<?xml version="1.0" encoding="UTF-8"?>
<svg xmlns="http://www.w3.org/2000/svg" version="1.1" width="300" height="300" viewBox="0 0 300 300"><rect x="0" y="0" width="300" height="300" fill="#ffffff"/><g transform="scale(4.918)"><g transform="translate(0,0)"><path fill-rule="evenodd" d="M9 0L9 1L8 1L8 2L9 2L9 3L8 3L8 4L9 4L9 5L8 5L8 7L9 7L9 5L10 5L10 9L11 9L11 12L9 12L9 8L6 8L6 9L5 9L5 8L0 8L0 10L1 10L1 11L2 11L2 12L1 12L1 13L0 13L0 14L1 14L1 15L0 15L0 16L2 16L2 15L3 15L3 16L4 16L4 17L1 17L1 18L0 18L0 19L1 19L1 20L2 20L2 18L4 18L4 19L5 19L5 20L4 20L4 21L2 21L2 23L1 23L1 25L2 25L2 27L1 27L1 26L0 26L0 27L1 27L1 28L0 28L0 29L1 29L1 31L0 31L0 33L1 33L1 32L2 32L2 31L4 31L4 32L3 32L3 33L2 33L2 34L1 34L1 35L0 35L0 37L1 37L1 35L2 35L2 38L0 38L0 39L3 39L3 40L1 40L1 41L0 41L0 43L1 43L1 46L0 46L0 49L1 49L1 48L3 48L3 49L2 49L2 51L0 51L0 53L4 53L4 52L5 52L5 51L9 51L9 52L10 52L10 51L11 51L11 56L10 56L10 55L9 55L9 53L8 53L8 52L6 52L6 53L8 53L8 55L9 55L9 56L8 56L8 61L10 61L10 59L12 59L12 58L13 58L13 57L11 57L11 56L12 56L12 55L13 55L13 56L15 56L15 57L14 57L14 58L15 58L15 59L16 59L16 58L15 58L15 57L18 57L18 59L20 59L20 58L19 58L19 57L20 57L20 56L26 56L26 55L25 55L25 54L28 54L28 55L27 55L27 57L29 57L29 58L30 58L30 59L32 59L32 60L33 60L33 59L35 59L35 58L33 58L33 57L35 57L35 56L36 56L36 57L37 57L37 56L36 56L36 55L37 55L37 54L36 54L36 55L35 55L35 54L34 54L34 55L33 55L33 53L37 53L37 52L39 52L39 53L40 53L40 52L42 52L42 53L41 53L41 54L43 54L43 55L42 55L42 56L41 56L41 55L40 55L40 56L38 56L38 57L39 57L39 58L38 58L38 59L37 59L37 58L36 58L36 59L37 59L37 60L35 60L35 61L38 61L38 59L39 59L39 60L41 60L41 59L42 59L42 60L43 60L43 61L44 61L44 60L47 60L47 61L50 61L50 60L47 60L47 59L45 59L45 57L44 57L44 55L47 55L47 54L43 54L43 53L44 53L44 52L45 52L45 53L46 53L46 51L47 51L47 52L48 52L48 55L49 55L49 56L48 56L48 57L49 57L49 56L50 56L50 55L52 55L52 56L51 56L51 58L50 58L50 59L51 59L51 61L52 61L52 60L53 60L53 61L54 61L54 60L55 60L55 59L54 59L54 58L57 58L57 59L56 59L56 60L57 60L57 61L61 61L61 57L60 57L60 55L61 55L61 54L59 54L59 56L58 56L58 57L60 57L60 60L57 60L57 59L58 59L58 58L57 58L57 52L58 52L58 53L60 53L60 52L58 52L58 51L61 51L61 50L58 50L58 49L61 49L61 46L59 46L59 44L60 44L60 45L61 45L61 42L60 42L60 43L59 43L59 44L58 44L58 46L56 46L56 45L57 45L57 44L56 44L56 42L55 42L55 40L54 40L54 41L53 41L53 39L55 39L55 37L53 37L53 36L54 36L54 35L56 35L56 37L57 37L57 38L56 38L56 41L57 41L57 42L59 42L59 41L60 41L60 40L57 40L57 39L61 39L61 38L58 38L58 37L59 37L59 36L60 36L60 37L61 37L61 34L60 34L60 33L61 33L61 30L60 30L60 29L61 29L61 28L60 28L60 27L61 27L61 26L60 26L60 24L58 24L58 26L57 26L57 27L56 27L56 24L57 24L57 23L61 23L61 22L58 22L58 21L61 21L61 18L59 18L59 16L57 16L57 17L56 17L56 15L55 15L55 17L53 17L53 16L48 16L48 15L49 15L49 14L50 14L50 15L51 15L51 14L50 14L50 13L53 13L53 11L54 11L54 10L55 10L55 9L56 9L56 10L58 10L58 8L57 8L57 9L56 9L56 8L55 8L55 9L54 9L54 8L52 8L52 7L53 7L53 6L52 6L52 7L51 7L51 5L52 5L52 4L53 4L53 0L51 0L51 2L50 2L50 4L49 4L49 3L47 3L47 1L46 1L46 0L45 0L45 2L44 2L44 3L45 3L45 2L46 2L46 3L47 3L47 4L49 4L49 5L48 5L48 7L49 7L49 8L47 8L47 5L46 5L46 4L45 4L45 6L44 6L44 4L43 4L43 2L42 2L42 3L41 3L41 1L43 1L43 0L40 0L40 1L38 1L38 4L39 4L39 5L36 5L36 7L37 7L37 6L38 6L38 7L39 7L39 8L42 8L42 7L43 7L43 6L44 6L44 8L43 8L43 9L41 9L41 10L43 10L43 11L42 11L42 12L43 12L43 13L42 13L42 14L41 14L41 13L40 13L40 12L41 12L41 11L40 11L40 12L35 12L35 13L36 13L36 14L33 14L33 12L32 12L32 11L29 11L29 12L31 12L31 15L32 15L32 16L35 16L35 17L37 17L37 18L36 18L36 19L37 19L37 18L38 18L38 19L39 19L39 22L37 22L37 21L38 21L38 20L35 20L35 18L33 18L33 17L32 17L32 18L33 18L33 19L32 19L32 22L31 22L31 21L28 21L28 23L29 23L29 22L31 22L31 23L30 23L30 24L29 24L29 25L30 25L30 24L31 24L31 26L29 26L29 27L28 27L28 24L27 24L27 26L26 26L26 25L24 25L24 23L23 23L23 22L25 22L25 21L26 21L26 22L27 22L27 21L26 21L26 20L28 20L28 19L30 19L30 20L31 20L31 18L30 18L30 17L31 17L31 16L30 16L30 15L29 15L29 14L30 14L30 13L29 13L29 14L28 14L28 13L26 13L26 10L25 10L25 9L27 9L27 10L28 10L28 9L30 9L30 10L31 10L31 9L33 9L33 11L37 11L37 10L38 10L38 11L39 11L39 10L40 10L40 9L39 9L39 10L38 10L38 8L36 8L36 9L35 9L35 10L34 10L34 8L35 8L35 5L33 5L33 3L34 3L34 2L36 2L36 1L37 1L37 0L36 0L36 1L33 1L33 0L32 0L32 1L31 1L31 0L30 0L30 1L31 1L31 2L28 2L28 0L26 0L26 1L27 1L27 2L26 2L26 3L25 3L25 0L24 0L24 1L22 1L22 2L21 2L21 1L20 1L20 4L19 4L19 1L18 1L18 0L16 0L16 1L14 1L14 2L12 2L12 1L13 1L13 0L11 0L11 1L10 1L10 0ZM48 0L48 1L50 1L50 0ZM32 1L32 2L33 2L33 1ZM10 2L10 4L11 4L11 5L12 5L12 6L11 6L11 9L12 9L12 6L13 6L13 7L14 7L14 9L13 9L13 12L12 12L12 13L11 13L11 16L10 16L10 18L8 18L8 19L9 19L9 20L10 20L10 18L11 18L11 20L13 20L13 21L8 21L8 20L7 20L7 19L6 19L6 20L5 20L5 21L4 21L4 22L7 22L7 21L8 21L8 22L10 22L10 23L8 23L8 24L7 24L7 23L6 23L6 24L7 24L7 25L4 25L4 24L5 24L5 23L4 23L4 24L3 24L3 23L2 23L2 24L3 24L3 27L2 27L2 28L1 28L1 29L3 29L3 27L4 27L4 28L5 28L5 27L6 27L6 28L7 28L7 27L8 27L8 28L9 28L9 27L11 27L11 25L13 25L13 26L14 26L14 29L15 29L15 30L13 30L13 31L12 31L12 30L11 30L11 31L12 31L12 32L10 32L10 31L9 31L9 32L10 32L10 33L9 33L9 34L8 34L8 33L3 33L3 34L5 34L5 35L3 35L3 38L4 38L4 39L5 39L5 40L3 40L3 41L4 41L4 42L3 42L3 43L2 43L2 42L1 42L1 43L2 43L2 44L3 44L3 45L2 45L2 46L1 46L1 47L3 47L3 46L4 46L4 44L5 44L5 43L4 43L4 42L8 42L8 40L7 40L7 39L6 39L6 38L7 38L7 37L8 37L8 39L9 39L9 41L10 41L10 42L11 42L11 43L8 43L8 44L7 44L7 43L6 43L6 44L7 44L7 45L5 45L5 46L7 46L7 45L8 45L8 47L6 47L6 48L5 48L5 47L4 47L4 49L3 49L3 50L8 50L8 49L6 49L6 48L9 48L9 47L10 47L10 48L13 48L13 49L10 49L10 50L13 50L13 49L14 49L14 50L15 50L15 51L16 51L16 52L17 52L17 51L19 51L19 53L16 53L16 54L18 54L18 55L15 55L15 54L14 54L14 55L15 55L15 56L18 56L18 57L19 57L19 56L20 56L20 54L22 54L22 55L23 55L23 54L22 54L22 53L25 53L25 50L26 50L26 51L27 51L27 50L30 50L30 51L29 51L29 52L31 52L31 51L32 51L32 52L33 52L33 51L34 51L34 52L37 52L37 51L38 51L38 50L39 50L39 51L43 51L43 52L44 52L44 51L43 51L43 50L42 50L42 48L40 48L40 50L39 50L39 47L38 47L38 46L41 46L41 47L43 47L43 48L44 48L44 49L45 49L45 50L47 50L47 51L48 51L48 52L49 52L49 51L48 51L48 50L49 50L49 49L48 49L48 48L49 48L49 47L50 47L50 46L51 46L51 44L52 44L52 43L53 43L53 41L52 41L52 42L51 42L51 40L52 40L52 39L53 39L53 37L52 37L52 38L51 38L51 37L50 37L50 36L52 36L52 35L53 35L53 34L59 34L59 33L60 33L60 32L59 32L59 31L58 31L58 29L57 29L57 32L59 32L59 33L53 33L53 34L52 34L52 33L51 33L51 32L50 32L50 30L51 30L51 31L52 31L52 29L51 29L51 27L53 27L53 28L54 28L54 27L55 27L55 28L56 28L56 27L55 27L55 26L53 26L53 25L55 25L55 24L53 24L53 23L57 23L57 22L56 22L56 21L57 21L57 20L60 20L60 19L59 19L59 18L56 18L56 17L55 17L55 18L53 18L53 17L50 17L50 18L49 18L49 17L48 17L48 16L46 16L46 15L45 15L45 16L44 16L44 19L43 19L43 18L42 18L42 20L40 20L40 21L42 21L42 20L44 20L44 21L45 21L45 20L46 20L46 22L48 22L48 23L47 23L47 24L44 24L44 23L45 23L45 22L41 22L41 23L40 23L40 24L39 24L39 25L38 25L38 26L37 26L37 27L36 27L36 26L35 26L35 25L36 25L36 24L38 24L38 23L37 23L37 22L35 22L35 20L33 20L33 22L32 22L32 23L31 23L31 24L32 24L32 23L34 23L34 24L35 24L35 25L33 25L33 26L32 26L32 28L34 28L34 29L33 29L33 30L35 30L35 31L33 31L33 35L32 35L32 37L31 37L31 38L33 38L33 37L34 37L34 38L36 38L36 40L35 40L35 39L34 39L34 41L32 41L32 40L33 40L33 39L30 39L30 38L28 38L28 37L27 37L27 36L29 36L29 37L30 37L30 36L29 36L29 35L30 35L30 34L31 34L31 33L30 33L30 34L29 34L29 33L28 33L28 29L27 29L27 28L28 28L28 27L27 27L27 28L26 28L26 27L25 27L25 28L22 28L22 25L23 25L23 24L20 24L20 25L19 25L19 23L20 23L20 22L21 22L21 21L25 21L25 20L26 20L26 18L25 18L25 17L24 17L24 15L25 15L25 16L26 16L26 17L27 17L27 16L26 16L26 15L27 15L27 14L26 14L26 13L25 13L25 12L23 12L23 11L24 11L24 9L25 9L25 8L26 8L26 6L25 6L25 5L24 5L24 6L23 6L23 5L22 5L22 6L21 6L21 7L22 7L22 6L23 6L23 8L22 8L22 9L21 9L21 8L19 8L19 9L21 9L21 10L22 10L22 9L23 9L23 11L22 11L22 12L21 12L21 13L20 13L20 14L19 14L19 13L18 13L18 12L17 12L17 9L18 9L18 8L17 8L17 9L15 9L15 7L16 7L16 5L17 5L17 7L18 7L18 5L19 5L19 4L16 4L16 5L15 5L15 7L14 7L14 4L15 4L15 3L16 3L16 2L14 2L14 4L12 4L12 2ZM17 2L17 3L18 3L18 2ZM23 2L23 3L21 3L21 4L20 4L20 5L21 5L21 4L25 4L25 3L24 3L24 2ZM27 2L27 3L26 3L26 5L28 5L28 4L27 4L27 3L28 3L28 2ZM39 2L39 4L41 4L41 3L40 3L40 2ZM29 3L29 4L31 4L31 3ZM35 3L35 4L37 4L37 3ZM51 3L51 4L52 4L52 3ZM29 5L29 8L32 8L32 5ZM40 5L40 6L39 6L39 7L40 7L40 6L41 6L41 7L42 7L42 6L43 6L43 5ZM19 6L19 7L20 7L20 6ZM24 6L24 8L25 8L25 6ZM27 6L27 7L28 7L28 6ZM30 6L30 7L31 7L31 6ZM33 6L33 8L34 8L34 6ZM45 6L45 8L44 8L44 9L45 9L45 10L47 10L47 11L48 11L48 12L49 12L49 11L48 11L48 10L49 10L49 9L50 9L50 12L52 12L52 11L51 11L51 10L53 10L53 9L50 9L50 8L49 8L49 9L47 9L47 8L46 8L46 6ZM49 6L49 7L50 7L50 6ZM27 8L27 9L28 9L28 8ZM45 8L45 9L46 9L46 8ZM59 8L59 9L60 9L60 8ZM1 9L1 10L2 10L2 9ZM3 9L3 10L4 10L4 9ZM6 9L6 10L8 10L8 9ZM14 9L14 10L15 10L15 11L14 11L14 12L13 12L13 13L12 13L12 16L14 16L14 15L13 15L13 14L15 14L15 15L16 15L16 14L15 14L15 13L17 13L17 12L15 12L15 11L16 11L16 10L15 10L15 9ZM36 9L36 10L37 10L37 9ZM18 10L18 11L20 11L20 10ZM60 10L60 11L59 11L59 12L57 12L57 11L55 11L55 13L54 13L54 14L55 14L55 13L56 13L56 14L59 14L59 15L61 15L61 14L59 14L59 12L60 12L60 11L61 11L61 10ZM3 11L3 12L2 12L2 13L1 13L1 14L2 14L2 13L3 13L3 15L5 15L5 14L4 14L4 13L5 13L5 12L4 12L4 11ZM6 11L6 12L7 12L7 13L6 13L6 14L7 14L7 15L6 15L6 16L5 16L5 17L6 17L6 18L7 18L7 17L6 17L6 16L8 16L8 17L9 17L9 16L8 16L8 15L10 15L10 13L9 13L9 12L7 12L7 11ZM27 11L27 12L28 12L28 11ZM43 11L43 12L44 12L44 13L43 13L43 14L42 14L42 15L41 15L41 14L40 14L40 15L38 15L38 14L39 14L39 13L38 13L38 14L36 14L36 15L35 15L35 16L37 16L37 17L38 17L38 18L39 18L39 17L41 17L41 16L42 16L42 15L43 15L43 14L44 14L44 13L45 13L45 14L47 14L47 15L48 15L48 14L49 14L49 13L45 13L45 12L46 12L46 11L45 11L45 12L44 12L44 11ZM14 12L14 13L15 13L15 12ZM56 12L56 13L57 13L57 12ZM7 13L7 14L8 14L8 13ZM21 13L21 14L20 14L20 15L21 15L21 16L19 16L19 14L18 14L18 15L17 15L17 16L18 16L18 17L21 17L21 18L20 18L20 19L21 19L21 18L22 18L22 20L24 20L24 19L23 19L23 18L24 18L24 17L23 17L23 14L25 14L25 13ZM21 14L21 15L22 15L22 14ZM32 14L32 15L33 15L33 14ZM28 15L28 16L29 16L29 17L30 17L30 16L29 16L29 15ZM40 15L40 16L41 16L41 15ZM21 16L21 17L22 17L22 18L23 18L23 17L22 17L22 16ZM38 16L38 17L39 17L39 16ZM45 16L45 19L44 19L44 20L45 20L45 19L46 19L46 20L47 20L47 18L46 18L46 16ZM60 16L60 17L61 17L61 16ZM12 17L12 19L13 19L13 20L14 20L14 19L13 19L13 18L14 18L14 17ZM15 17L15 18L16 18L16 17ZM18 18L18 19L17 19L17 20L16 20L16 19L15 19L15 20L16 20L16 21L17 21L17 22L15 22L15 21L13 21L13 22L14 22L14 23L12 23L12 22L11 22L11 24L13 24L13 25L14 25L14 26L15 26L15 24L16 24L16 25L18 25L18 27L20 27L20 26L19 26L19 25L18 25L18 24L17 24L17 23L18 23L18 21L19 21L19 22L20 22L20 21L21 21L21 20L20 20L20 21L19 21L19 18ZM48 18L48 19L49 19L49 18ZM50 18L50 21L51 21L51 22L49 22L49 20L48 20L48 22L49 22L49 24L48 24L48 26L45 26L45 25L44 25L44 24L43 24L43 25L39 25L39 26L38 26L38 27L37 27L37 28L35 28L35 26L34 26L34 28L35 28L35 30L36 30L36 31L37 31L37 30L38 30L38 32L36 32L36 34L34 34L34 35L33 35L33 36L34 36L34 37L36 37L36 38L37 38L37 37L38 37L38 35L40 35L40 36L39 36L39 38L38 38L38 39L39 39L39 42L38 42L38 40L36 40L36 41L37 41L37 44L35 44L35 42L34 42L34 44L33 44L33 45L34 45L34 44L35 44L35 46L32 46L32 43L33 43L33 42L32 42L32 43L31 43L31 42L30 42L30 41L31 41L31 40L30 40L30 41L29 41L29 40L27 40L27 39L28 39L28 38L27 38L27 37L26 37L26 35L28 35L28 34L27 34L27 33L26 33L26 32L24 32L24 31L26 31L26 30L27 30L27 29L26 29L26 28L25 28L25 29L24 29L24 31L23 31L23 33L24 33L24 34L22 34L22 35L24 35L24 36L25 36L25 37L22 37L22 36L20 36L20 35L19 35L19 34L18 34L18 35L19 35L19 36L17 36L17 33L16 33L16 31L15 31L15 32L14 32L14 31L13 31L13 33L12 33L12 34L13 34L13 36L12 36L12 35L11 35L11 34L10 34L10 35L11 35L11 36L10 36L10 38L11 38L11 39L12 39L12 38L13 38L13 40L16 40L16 41L17 41L17 43L18 43L18 45L19 45L19 44L20 44L20 45L21 45L21 46L22 46L22 47L20 47L20 46L18 46L18 47L19 47L19 48L17 48L17 46L15 46L15 45L17 45L17 44L15 44L15 42L14 42L14 41L13 41L13 42L12 42L12 41L11 41L11 40L10 40L10 41L11 41L11 42L12 42L12 43L11 43L11 44L10 44L10 45L9 45L9 46L10 46L10 47L12 47L12 46L10 46L10 45L11 45L11 44L12 44L12 45L14 45L14 46L13 46L13 47L14 47L14 49L15 49L15 50L16 50L16 49L15 49L15 47L16 47L16 48L17 48L17 49L19 49L19 51L20 51L20 53L22 53L22 52L24 52L24 51L22 51L22 49L23 49L23 50L24 50L24 49L26 49L26 50L27 50L27 49L28 49L28 47L31 47L31 48L29 48L29 49L31 49L31 50L32 50L32 51L33 51L33 49L32 49L32 47L37 47L37 48L36 48L36 49L37 49L37 48L38 48L38 47L37 47L37 46L38 46L38 45L39 45L39 44L41 44L41 45L42 45L42 46L43 46L43 47L44 47L44 48L45 48L45 49L47 49L47 48L48 48L48 47L47 47L47 46L50 46L50 45L49 45L49 44L51 44L51 42L50 42L50 40L51 40L51 38L49 38L49 36L48 36L48 39L50 39L50 40L48 40L48 41L49 41L49 42L48 42L48 43L47 43L47 42L46 42L46 43L47 43L47 46L45 46L45 45L46 45L46 44L45 44L45 41L44 41L44 40L45 40L45 39L44 39L44 40L43 40L43 39L42 39L42 38L44 38L44 36L45 36L45 37L47 37L47 36L46 36L46 35L47 35L47 34L45 34L45 35L44 35L44 34L43 34L43 33L44 33L44 32L45 32L45 33L47 33L47 32L48 32L48 33L49 33L49 34L50 34L50 35L51 35L51 34L50 34L50 33L49 33L49 32L48 32L48 31L49 31L49 30L50 30L50 28L48 28L48 29L47 29L47 30L46 30L46 31L45 31L45 29L44 29L44 28L46 28L46 27L48 27L48 26L50 26L50 27L51 27L51 26L50 26L50 25L53 25L53 24L51 24L51 23L53 23L53 22L55 22L55 20L57 20L57 19L53 19L53 18L52 18L52 20L51 20L51 18ZM6 20L6 21L7 21L7 20ZM53 20L53 21L52 21L52 22L53 22L53 21L54 21L54 20ZM34 22L34 23L35 23L35 24L36 24L36 23L35 23L35 22ZM25 23L25 24L26 24L26 23ZM41 23L41 24L42 24L42 23ZM8 24L8 25L7 25L7 26L6 26L6 27L7 27L7 26L8 26L8 27L9 27L9 26L10 26L10 24ZM16 26L16 27L15 27L15 28L16 28L16 29L17 29L17 28L16 28L16 27L17 27L17 26ZM40 26L40 27L41 27L41 28L40 28L40 30L39 30L39 27L38 27L38 30L39 30L39 32L38 32L38 34L36 34L36 35L34 35L34 36L37 36L37 35L38 35L38 34L39 34L39 32L40 32L40 33L43 33L43 32L44 32L44 31L43 31L43 30L44 30L44 29L43 29L43 28L44 28L44 27L45 27L45 26ZM58 26L58 27L57 27L57 28L59 28L59 29L60 29L60 28L59 28L59 26ZM12 27L12 28L11 28L11 29L12 29L12 28L13 28L13 27ZM18 28L18 29L19 29L19 28ZM20 28L20 29L21 29L21 28ZM5 29L5 32L8 32L8 29ZM22 29L22 30L21 30L21 31L18 31L18 30L17 30L17 31L18 31L18 33L19 33L19 32L20 32L20 33L22 33L22 32L21 32L21 31L22 31L22 30L23 30L23 29ZM25 29L25 30L26 30L26 29ZM29 29L29 32L32 32L32 29ZM41 29L41 31L40 31L40 32L41 32L41 31L42 31L42 32L43 32L43 31L42 31L42 30L43 30L43 29ZM48 29L48 30L47 30L47 31L46 31L46 32L47 32L47 31L48 31L48 30L49 30L49 29ZM53 29L53 32L56 32L56 29ZM6 30L6 31L7 31L7 30ZM30 30L30 31L31 31L31 30ZM54 30L54 31L55 31L55 30ZM15 33L15 34L14 34L14 36L13 36L13 37L14 37L14 38L15 38L15 37L16 37L16 38L17 38L17 39L16 39L16 40L17 40L17 41L18 41L18 40L17 40L17 39L18 39L18 38L19 38L19 41L21 41L21 40L22 40L22 41L25 41L25 42L22 42L22 43L23 43L23 44L22 44L22 45L23 45L23 49L24 49L24 47L25 47L25 48L26 48L26 49L27 49L27 48L26 48L26 47L27 47L27 46L26 46L26 45L27 45L27 44L29 44L29 45L28 45L28 46L29 46L29 45L30 45L30 46L31 46L31 45L30 45L30 44L29 44L29 43L30 43L30 42L28 42L28 41L25 41L25 40L26 40L26 39L23 39L23 40L22 40L22 39L20 39L20 38L21 38L21 37L20 37L20 36L19 36L19 37L16 37L16 35L15 35L15 34L16 34L16 33ZM6 34L6 35L5 35L5 36L4 36L4 37L5 37L5 38L6 38L6 37L7 37L7 36L8 36L8 35L7 35L7 34ZM25 34L25 35L26 35L26 34ZM40 34L40 35L41 35L41 36L40 36L40 37L41 37L41 36L44 36L44 35L43 35L43 34L42 34L42 35L41 35L41 34ZM6 35L6 36L5 36L5 37L6 37L6 36L7 36L7 35ZM58 35L58 36L59 36L59 35ZM11 36L11 37L12 37L12 36ZM14 36L14 37L15 37L15 36ZM19 37L19 38L20 38L20 37ZM25 37L25 38L26 38L26 37ZM40 38L40 39L41 39L41 38ZM46 38L46 39L47 39L47 38ZM6 40L6 41L7 41L7 40ZM40 40L40 41L41 41L41 40ZM18 42L18 43L20 43L20 42ZM25 42L25 45L24 45L24 46L25 46L25 45L26 45L26 44L27 44L27 43L28 43L28 42ZM41 42L41 44L42 44L42 45L43 45L43 44L44 44L44 45L45 45L45 44L44 44L44 43L43 43L43 42ZM49 42L49 43L48 43L48 44L49 44L49 43L50 43L50 42ZM3 43L3 44L4 44L4 43ZM12 43L12 44L13 44L13 43ZM54 43L54 44L53 44L53 45L54 45L54 44L55 44L55 45L56 45L56 44L55 44L55 43ZM14 44L14 45L15 45L15 44ZM37 44L37 45L36 45L36 46L37 46L37 45L38 45L38 44ZM14 46L14 47L15 47L15 46ZM52 46L52 47L51 47L51 48L52 48L52 47L53 47L53 46ZM45 47L45 48L46 48L46 47ZM54 47L54 48L53 48L53 49L54 49L54 50L55 50L55 51L53 51L53 50L52 50L52 51L50 51L50 53L49 53L49 54L51 54L51 52L52 52L52 51L53 51L53 52L56 52L56 50L57 50L57 49L56 49L56 50L55 50L55 49L54 49L54 48L57 48L57 47ZM58 47L58 48L60 48L60 47ZM19 48L19 49L20 49L20 51L21 51L21 49L22 49L22 48L21 48L21 49L20 49L20 48ZM50 49L50 50L51 50L51 49ZM36 50L36 51L37 51L37 50ZM3 51L3 52L4 52L4 51ZM12 51L12 52L13 52L13 53L14 53L14 52L13 52L13 51ZM26 52L26 53L27 53L27 52ZM29 53L29 56L32 56L32 53ZM53 53L53 56L56 56L56 53ZM30 54L30 55L31 55L31 54ZM38 54L38 55L39 55L39 54ZM54 54L54 55L55 55L55 54ZM34 55L34 56L35 56L35 55ZM9 56L9 57L10 57L10 58L9 58L9 59L10 59L10 58L11 58L11 57L10 57L10 56ZM40 56L40 57L41 57L41 56ZM42 56L42 57L43 57L43 56ZM21 57L21 60L14 60L14 59L13 59L13 60L14 60L14 61L21 61L21 60L23 60L23 59L24 59L24 60L26 60L26 59L27 59L27 61L28 61L28 60L29 60L29 59L27 59L27 58L26 58L26 57ZM30 57L30 58L31 58L31 57ZM22 58L22 59L23 59L23 58ZM40 58L40 59L41 59L41 58ZM42 58L42 59L43 59L43 60L44 60L44 59L43 59L43 58ZM48 58L48 59L49 59L49 58ZM51 58L51 59L53 59L53 58ZM11 60L11 61L12 61L12 60ZM0 0L0 7L7 7L7 0ZM1 1L1 6L6 6L6 1ZM2 2L2 5L5 5L5 2ZM54 0L54 7L61 7L61 0ZM55 1L55 6L60 6L60 1ZM56 2L56 5L59 5L59 2ZM0 54L0 61L7 61L7 54ZM1 55L1 60L6 60L6 55ZM2 56L2 59L5 59L5 56Z" fill="#000000"/></g></g></svg>
