<?xml version="1.0" encoding="UTF-8"?>
<svg xmlns="http://www.w3.org/2000/svg" version="1.1" width="300" height="300" viewBox="0 0 300 300"><rect x="0" y="0" width="300" height="300" fill="#ffffff"/><g transform="scale(5.66)"><g transform="translate(0,0)"><path fill-rule="evenodd" d="M9 0L9 1L8 1L8 2L9 2L9 1L11 1L11 0ZM12 0L12 1L13 1L13 0ZM15 0L15 1L16 1L16 0ZM17 0L17 1L18 1L18 2L16 2L16 3L15 3L15 2L13 2L13 4L14 4L14 5L12 5L12 4L11 4L11 3L12 3L12 2L11 2L11 3L10 3L10 5L8 5L8 7L9 7L9 6L10 6L10 8L6 8L6 9L9 9L9 10L8 10L8 11L7 11L7 10L6 10L6 11L5 11L5 10L4 10L4 9L5 9L5 8L0 8L0 10L1 10L1 11L3 11L3 12L0 12L0 17L1 17L1 18L0 18L0 20L1 20L1 22L3 22L3 20L4 20L4 19L5 19L5 21L7 21L7 20L8 20L8 21L10 21L10 22L9 22L9 23L8 23L8 22L5 22L5 23L2 23L2 24L4 24L4 26L3 26L3 25L1 25L1 23L0 23L0 25L1 25L1 27L2 27L2 31L5 31L5 30L6 30L6 31L7 31L7 32L5 32L5 33L7 33L7 34L5 34L5 35L4 35L4 36L3 36L3 37L2 37L2 38L3 38L3 39L4 39L4 38L5 38L5 37L4 37L4 36L6 36L6 37L7 37L7 38L6 38L6 39L7 39L7 40L6 40L6 41L7 41L7 42L4 42L4 41L5 41L5 40L2 40L2 39L1 39L1 38L0 38L0 39L1 39L1 40L0 40L0 43L1 43L1 44L3 44L3 45L4 45L4 44L3 44L3 43L7 43L7 44L6 44L6 45L8 45L8 47L9 47L9 46L10 46L10 48L8 48L8 53L9 53L9 52L11 52L11 53L13 53L13 52L15 52L15 53L22 53L22 52L23 52L23 53L25 53L25 52L24 52L24 50L26 50L26 51L27 51L27 52L26 52L26 53L27 53L27 52L29 52L29 53L30 53L30 51L29 51L29 50L31 50L31 47L32 47L32 48L33 48L33 49L32 49L32 52L33 52L33 50L34 50L34 52L35 52L35 50L34 50L34 49L37 49L37 48L34 48L34 47L36 47L36 46L38 46L38 47L39 47L39 48L38 48L38 49L39 49L39 50L37 50L37 52L36 52L36 53L37 53L37 52L42 52L42 53L43 53L43 51L44 51L44 52L46 52L46 53L51 53L51 52L52 52L52 51L53 51L53 47L52 47L52 46L53 46L53 45L52 45L52 44L50 44L50 43L51 43L51 42L50 42L50 43L48 43L48 44L47 44L47 43L46 43L46 42L49 42L49 41L47 41L47 39L49 39L49 40L50 40L50 41L52 41L52 42L53 42L53 41L52 41L52 40L53 40L53 39L52 39L52 38L53 38L53 35L52 35L52 34L53 34L53 31L51 31L51 30L53 30L53 29L52 29L52 28L53 28L53 27L51 27L51 28L50 28L50 29L51 29L51 30L50 30L50 31L49 31L49 33L47 33L47 32L48 32L48 30L49 30L49 27L50 27L50 26L51 26L51 24L52 24L52 26L53 26L53 23L51 23L51 24L50 24L50 21L52 21L52 22L53 22L53 21L52 21L52 20L53 20L53 19L51 19L51 20L50 20L50 19L49 19L49 20L46 20L46 19L48 19L48 18L44 18L44 17L45 17L45 16L47 16L47 17L49 17L49 18L53 18L53 17L51 17L51 16L50 16L50 15L51 15L51 14L53 14L53 13L51 13L51 12L50 12L50 11L49 11L49 12L48 12L48 8L47 8L47 10L45 10L45 11L47 11L47 14L46 14L46 12L44 12L44 9L46 9L46 8L43 8L43 3L44 3L44 4L45 4L45 3L44 3L44 1L43 1L43 0L41 0L41 1L40 1L40 0L39 0L39 1L38 1L38 2L37 2L37 1L36 1L36 2L37 2L37 3L36 3L36 4L35 4L35 3L34 3L34 2L35 2L35 1L33 1L33 0L32 0L32 1L33 1L33 2L32 2L32 3L31 3L31 0L27 0L27 1L30 1L30 2L28 2L28 3L26 3L26 4L24 4L24 7L23 7L23 6L22 6L22 7L21 7L21 5L20 5L20 4L22 4L22 5L23 5L23 4L22 4L22 3L23 3L23 2L24 2L24 3L25 3L25 1L26 1L26 0L22 0L22 1L20 1L20 0L19 0L19 1L18 1L18 0ZM19 1L19 4L15 4L15 3L14 3L14 4L15 4L15 9L13 9L13 8L14 8L14 6L13 6L13 7L12 7L12 6L11 6L11 5L10 5L10 6L11 6L11 8L10 8L10 10L9 10L9 11L10 11L10 10L12 10L12 11L14 11L14 13L15 13L15 14L13 14L13 15L14 15L14 16L12 16L12 14L11 14L11 15L10 15L10 16L8 16L8 15L9 15L9 14L7 14L7 13L3 13L3 15L1 15L1 17L2 17L2 16L3 16L3 18L2 18L2 20L3 20L3 19L4 19L4 16L3 16L3 15L4 15L4 14L7 14L7 15L6 15L6 16L5 16L5 18L9 18L9 19L8 19L8 20L9 20L9 19L10 19L10 18L13 18L13 17L14 17L14 19L11 19L11 20L10 20L10 21L13 21L13 22L11 22L11 23L9 23L9 24L10 24L10 25L12 25L12 26L9 26L9 28L11 28L11 29L13 29L13 30L11 30L11 31L14 31L14 32L10 32L10 30L7 30L7 29L6 29L6 30L7 30L7 31L8 31L8 32L7 32L7 33L8 33L8 34L7 34L7 35L6 35L6 36L7 36L7 35L8 35L8 36L9 36L9 35L8 35L8 34L10 34L10 33L11 33L11 34L12 34L12 35L11 35L11 36L12 36L12 35L13 35L13 33L14 33L14 34L15 34L15 35L17 35L17 36L19 36L19 35L20 35L20 36L21 36L21 37L16 37L16 39L15 39L15 40L16 40L16 39L17 39L17 38L21 38L21 39L18 39L18 40L21 40L21 41L20 41L20 43L19 43L19 41L12 41L12 40L14 40L14 39L12 39L12 37L10 37L10 38L9 38L9 37L8 37L8 38L7 38L7 39L8 39L8 38L9 38L9 39L11 39L11 40L10 40L10 42L9 42L9 41L8 41L8 40L7 40L7 41L8 41L8 45L9 45L9 44L11 44L11 45L10 45L10 46L11 46L11 47L13 47L13 48L11 48L11 49L9 49L9 50L10 50L10 51L11 51L11 52L13 52L13 51L11 51L11 50L12 50L12 49L14 49L14 46L16 46L16 47L15 47L15 48L16 48L16 47L18 47L18 46L19 46L19 49L15 49L15 50L14 50L14 51L15 51L15 52L16 52L16 51L17 51L17 50L19 50L19 51L21 51L21 49L23 49L23 50L22 50L22 51L23 51L23 50L24 50L24 48L23 48L23 46L24 46L24 42L26 42L26 44L29 44L29 43L27 43L27 42L28 42L28 41L27 41L27 40L29 40L29 41L31 41L31 42L30 42L30 44L31 44L31 46L29 46L29 47L31 47L31 46L33 46L33 47L34 47L34 46L36 46L36 44L37 44L37 45L38 45L38 46L41 46L41 44L42 44L42 45L44 45L44 44L45 44L45 43L44 43L44 44L42 44L42 43L43 43L43 42L46 42L46 41L44 41L44 40L43 40L43 39L45 39L45 40L46 40L46 39L47 39L47 38L46 38L46 39L45 39L45 36L46 36L46 37L50 37L50 38L49 38L49 39L50 39L50 40L51 40L51 39L50 39L50 38L52 38L52 37L50 37L50 36L52 36L52 35L51 35L51 34L49 34L49 36L48 36L48 35L47 35L47 34L44 34L44 33L45 33L45 30L44 30L44 26L42 26L42 25L44 25L44 24L49 24L49 21L46 21L46 22L45 22L45 21L43 21L43 20L45 20L45 19L44 19L44 18L42 18L42 19L41 19L41 20L39 20L39 21L38 21L38 18L39 18L39 17L38 17L38 16L37 16L37 15L35 15L35 16L34 16L34 15L33 15L33 14L36 14L36 13L33 13L33 12L32 12L32 11L33 11L33 10L36 10L36 11L35 11L35 12L37 12L37 14L41 14L41 15L43 15L43 16L44 16L44 14L45 14L45 13L43 13L43 14L42 14L42 12L43 12L43 10L40 10L40 11L42 11L42 12L39 12L39 11L38 11L38 10L39 10L39 9L38 9L38 8L39 8L39 7L40 7L40 4L42 4L42 3L43 3L43 2L41 2L41 3L39 3L39 4L38 4L38 3L37 3L37 7L36 7L36 6L35 6L35 7L34 7L34 5L35 5L35 4L34 4L34 5L33 5L33 3L32 3L32 5L30 5L30 4L31 4L31 3L28 3L28 4L29 4L29 9L30 9L30 6L31 6L31 7L32 7L32 5L33 5L33 8L31 8L31 9L33 9L33 10L30 10L30 11L29 11L29 10L28 10L28 9L27 9L27 11L26 11L26 10L23 10L23 11L25 11L25 12L21 12L21 13L20 13L20 10L21 10L21 9L24 9L24 8L23 8L23 7L22 7L22 8L21 8L21 9L20 9L20 8L19 8L19 7L20 7L20 5L19 5L19 4L20 4L20 3L21 3L21 2L20 2L20 1ZM22 1L22 2L23 2L23 1ZM39 1L39 2L40 2L40 1ZM8 3L8 4L9 4L9 3ZM16 5L16 9L19 9L19 8L18 8L18 7L19 7L19 5L18 5L18 7L17 7L17 5ZM25 5L25 8L28 8L28 5ZM38 5L38 7L39 7L39 5ZM41 5L41 8L40 8L40 9L41 9L41 8L42 8L42 9L43 9L43 8L42 8L42 5ZM26 6L26 7L27 7L27 6ZM44 6L44 7L45 7L45 6ZM36 8L36 10L38 10L38 9L37 9L37 8ZM49 8L49 10L51 10L51 9L52 9L52 10L53 10L53 9L52 9L52 8L51 8L51 9L50 9L50 8ZM1 9L1 10L2 10L2 9ZM12 9L12 10L13 10L13 9ZM17 10L17 11L16 11L16 12L15 12L15 13L19 13L19 14L17 14L17 15L16 15L16 14L15 14L15 15L16 15L16 17L21 17L21 18L20 18L20 19L22 19L22 20L20 20L20 21L21 21L21 22L22 22L22 24L23 24L23 25L21 25L21 23L19 23L19 24L16 24L16 23L18 23L18 22L15 22L15 21L17 21L17 20L18 20L18 21L19 21L19 18L15 18L15 21L14 21L14 20L13 20L13 21L14 21L14 22L13 22L13 23L14 23L14 24L13 24L13 25L15 25L15 26L14 26L14 27L11 27L11 28L13 28L13 29L14 29L14 30L15 30L15 31L16 31L16 33L19 33L19 34L20 34L20 33L21 33L21 35L23 35L23 34L24 34L24 35L26 35L26 36L23 36L23 37L21 37L21 38L22 38L22 39L21 39L21 40L23 40L23 41L21 41L21 42L24 42L24 41L25 41L25 40L23 40L23 38L24 38L24 39L27 39L27 38L28 38L28 39L29 39L29 40L30 40L30 39L29 39L29 38L31 38L31 37L32 37L32 38L33 38L33 39L32 39L32 40L31 40L31 41L32 41L32 42L33 42L33 43L32 43L32 44L33 44L33 45L34 45L34 44L35 44L35 43L36 43L36 42L34 42L34 40L35 40L35 41L38 41L38 39L39 39L39 40L41 40L41 39L42 39L42 38L44 38L44 37L43 37L43 36L44 36L44 35L42 35L42 34L43 34L43 33L42 33L42 34L41 34L41 35L39 35L39 34L40 34L40 32L41 32L41 31L40 31L40 30L38 30L38 29L39 29L39 27L40 27L40 28L42 28L42 29L41 29L41 30L43 30L43 31L42 31L42 32L44 32L44 30L43 30L43 27L40 27L40 26L41 26L41 25L40 25L40 24L41 24L41 23L40 23L40 24L39 24L39 26L38 26L38 24L35 24L35 25L36 25L36 26L32 26L32 25L31 25L31 24L29 24L29 23L30 23L30 22L32 22L32 20L33 20L33 21L35 21L35 22L34 22L34 23L32 23L32 24L34 24L34 23L35 23L35 22L36 22L36 23L37 23L37 22L38 22L38 23L39 23L39 22L40 22L40 21L39 21L39 22L38 22L38 21L37 21L37 20L36 20L36 18L38 18L38 17L37 17L37 16L36 16L36 18L33 18L33 17L32 17L32 16L33 16L33 15L32 15L32 16L31 16L31 17L29 17L29 15L30 15L30 14L31 14L31 13L32 13L32 14L33 14L33 13L32 13L32 12L31 12L31 11L30 11L30 12L31 12L31 13L30 13L30 14L29 14L29 11L27 11L27 12L26 12L26 13L27 13L27 12L28 12L28 14L29 14L29 15L27 15L27 14L26 14L26 15L27 15L27 16L25 16L25 15L23 15L23 14L24 14L24 13L22 13L22 14L20 14L20 13L19 13L19 11L18 11L18 10ZM4 11L4 12L5 12L5 11ZM6 11L6 12L7 12L7 11ZM10 12L10 13L11 13L11 12ZM12 12L12 13L13 13L13 12ZM38 12L38 13L39 13L39 12ZM49 12L49 14L51 14L51 13L50 13L50 12ZM19 14L19 16L21 16L21 17L23 17L23 19L26 19L26 20L28 20L28 21L31 21L31 18L32 18L32 17L31 17L31 18L27 18L27 17L28 17L28 16L27 16L27 17L25 17L25 16L24 16L24 17L23 17L23 15L20 15L20 14ZM39 15L39 16L40 16L40 17L41 17L41 16L40 16L40 15ZM6 16L6 17L8 17L8 16ZM10 16L10 17L12 17L12 16ZM49 16L49 17L50 17L50 16ZM24 17L24 18L25 18L25 17ZM26 18L26 19L27 19L27 18ZM6 19L6 20L7 20L7 19ZM16 19L16 20L17 20L17 19ZM33 19L33 20L34 20L34 19ZM42 19L42 20L43 20L43 19ZM22 20L22 21L23 21L23 23L26 23L26 24L27 24L27 23L26 23L26 21L25 21L25 20ZM24 21L24 22L25 22L25 21ZM41 21L41 22L43 22L43 21ZM28 22L28 23L29 23L29 22ZM44 22L44 23L45 23L45 22ZM46 22L46 23L47 23L47 22ZM6 23L6 24L8 24L8 23ZM42 23L42 24L43 24L43 23ZM19 24L19 25L16 25L16 26L15 26L15 27L14 27L14 29L15 29L15 27L16 27L16 28L17 28L17 29L16 29L16 31L17 31L17 29L18 29L18 30L19 30L19 31L20 31L20 32L19 32L19 33L20 33L20 32L21 32L21 33L23 33L23 32L25 32L25 33L24 33L24 34L26 34L26 33L27 33L27 36L26 36L26 37L31 37L31 36L30 36L30 35L31 35L31 34L32 34L32 33L33 33L33 34L35 34L35 32L37 32L37 31L35 31L35 32L32 32L32 31L33 31L33 30L36 30L36 29L35 29L35 28L37 28L37 29L38 29L38 28L37 28L37 27L38 27L38 26L36 26L36 27L33 27L33 28L32 28L32 27L31 27L31 26L29 26L29 28L30 28L30 29L27 29L27 30L29 30L29 31L26 31L26 32L25 32L25 31L24 31L24 30L23 30L23 32L21 32L21 31L22 31L22 30L21 30L21 29L24 29L24 25L23 25L23 26L22 26L22 27L23 27L23 28L21 28L21 25L20 25L20 24ZM5 25L5 28L8 28L8 25ZM25 25L25 28L28 28L28 25ZM45 25L45 28L48 28L48 25ZM6 26L6 27L7 27L7 26ZM16 26L16 27L17 27L17 26ZM18 26L18 27L19 27L19 28L18 28L18 29L19 29L19 28L20 28L20 29L21 29L21 28L20 28L20 26ZM26 26L26 27L27 27L27 26ZM46 26L46 27L47 27L47 26ZM3 27L3 30L5 30L5 29L4 29L4 27ZM31 28L31 29L30 29L30 30L31 30L31 31L29 31L29 33L30 33L30 34L31 34L31 33L32 33L32 32L31 32L31 31L32 31L32 30L31 30L31 29L32 29L32 28ZM0 29L0 32L1 32L1 29ZM25 29L25 30L26 30L26 29ZM46 29L46 31L47 31L47 29ZM50 31L50 32L51 32L51 31ZM8 32L8 33L10 33L10 32ZM27 32L27 33L28 33L28 32ZM30 32L30 33L31 33L31 32ZM38 32L38 34L37 34L37 35L35 35L35 36L34 36L34 35L33 35L33 36L32 36L32 37L33 37L33 38L35 38L35 39L36 39L36 40L37 40L37 39L38 39L38 38L39 38L39 39L40 39L40 38L39 38L39 37L41 37L41 36L39 36L39 35L38 35L38 34L39 34L39 32ZM1 33L1 35L2 35L2 34L3 34L3 33ZM28 34L28 35L29 35L29 34ZM37 35L37 36L35 36L35 37L37 37L37 38L36 38L36 39L37 39L37 38L38 38L38 35ZM46 35L46 36L47 36L47 35ZM0 36L0 37L1 37L1 36ZM14 36L14 37L13 37L13 38L14 38L14 37L15 37L15 36ZM33 36L33 37L34 37L34 36ZM33 39L33 40L32 40L32 41L33 41L33 40L34 40L34 39ZM1 40L1 41L2 41L2 40ZM11 41L11 42L10 42L10 43L12 43L12 41ZM26 41L26 42L27 42L27 41ZM41 41L41 42L38 42L38 43L37 43L37 44L41 44L41 43L42 43L42 42L43 42L43 41ZM2 42L2 43L3 43L3 42ZM14 42L14 43L13 43L13 44L12 44L12 45L13 45L13 46L14 46L14 45L17 45L17 46L18 46L18 45L21 45L21 46L20 46L20 49L19 49L19 50L20 50L20 49L21 49L21 47L22 47L22 46L23 46L23 45L22 45L22 43L20 43L20 44L16 44L16 43L15 43L15 42ZM17 42L17 43L18 43L18 42ZM33 43L33 44L34 44L34 43ZM25 45L25 48L28 48L28 45ZM45 45L45 48L48 48L48 45ZM49 45L49 46L50 46L50 48L51 48L51 49L50 49L50 50L49 50L49 49L47 49L47 50L49 50L49 51L50 51L50 52L51 52L51 51L52 51L52 50L51 50L51 49L52 49L52 48L51 48L51 45ZM26 46L26 47L27 47L27 46ZM42 46L42 47L41 47L41 48L39 48L39 49L41 49L41 50L40 50L40 51L43 51L43 50L44 50L44 51L45 51L45 50L44 50L44 48L43 48L43 47L44 47L44 46ZM46 46L46 47L47 47L47 46ZM41 48L41 49L42 49L42 50L43 50L43 49L42 49L42 48ZM26 49L26 50L27 50L27 51L28 51L28 50L27 50L27 49ZM15 50L15 51L16 51L16 50ZM46 51L46 52L48 52L48 51ZM0 0L0 7L7 7L7 0ZM1 1L1 6L6 6L6 1ZM2 2L2 5L5 5L5 2ZM46 0L46 7L53 7L53 0ZM47 1L47 6L52 6L52 1ZM48 2L48 5L51 5L51 2ZM0 46L0 53L7 53L7 46ZM1 47L1 52L6 52L6 47ZM2 48L2 51L5 51L5 48Z" fill="#000000"/></g></g></svg>
