<?xml version="1.0" encoding="UTF-8"?>
<svg xmlns="http://www.w3.org/2000/svg" version="1.1" width="300" height="300" viewBox="0 0 300 300"><rect x="0" y="0" width="300" height="300" fill="#ffffff"/><g transform="scale(4.918)"><g transform="translate(0,0)"><path fill-rule="evenodd" d="M8 0L8 1L9 1L9 3L10 3L10 4L11 4L11 6L10 6L10 5L9 5L9 6L8 6L8 8L9 8L9 9L8 9L8 10L9 10L9 11L8 11L8 13L7 13L7 12L6 12L6 11L7 11L7 10L5 10L5 8L3 8L3 9L2 9L2 8L0 8L0 9L1 9L1 10L3 10L3 11L4 11L4 12L5 12L5 13L7 13L7 14L6 14L6 15L4 15L4 14L3 14L3 12L1 12L1 14L2 14L2 15L3 15L3 16L1 16L1 20L0 20L0 21L2 21L2 22L1 22L1 23L2 23L2 22L3 22L3 25L1 25L1 24L0 24L0 27L1 27L1 28L2 28L2 29L0 29L0 30L2 30L2 32L3 32L3 31L4 31L4 36L5 36L5 37L4 37L4 38L6 38L6 39L7 39L7 38L6 38L6 37L7 37L7 36L6 36L6 35L8 35L8 36L9 36L9 37L8 37L8 38L10 38L10 39L9 39L9 41L10 41L10 40L11 40L11 42L13 42L13 43L14 43L14 44L15 44L15 45L14 45L14 46L13 46L13 47L14 47L14 46L16 46L16 47L15 47L15 48L14 48L14 49L13 49L13 50L12 50L12 47L11 47L11 49L10 49L10 50L11 50L11 51L9 51L9 52L8 52L8 50L9 50L9 48L10 48L10 47L9 47L9 45L8 45L8 44L10 44L10 45L11 45L11 44L12 44L12 43L11 43L11 44L10 44L10 43L9 43L9 42L8 42L8 40L5 40L5 39L4 39L4 40L0 40L0 44L4 44L4 43L5 43L5 44L6 44L6 45L4 45L4 46L3 46L3 45L0 45L0 48L1 48L1 49L0 49L0 50L2 50L2 51L0 51L0 53L4 53L4 52L5 52L5 51L7 51L7 52L6 52L6 53L8 53L8 54L10 54L10 55L9 55L9 56L8 56L8 58L10 58L10 59L8 59L8 61L12 61L12 58L13 58L13 61L16 61L16 60L17 60L17 59L18 59L18 61L19 61L19 59L22 59L22 58L21 58L21 57L23 57L23 58L24 58L24 59L23 59L23 60L22 60L22 61L24 61L24 59L25 59L25 61L29 61L29 60L28 60L28 58L27 58L27 60L26 60L26 57L23 57L23 55L24 55L24 56L26 56L26 55L27 55L27 54L28 54L28 56L27 56L27 57L29 57L29 59L30 59L30 61L34 61L34 60L36 60L36 61L38 61L38 60L39 60L39 61L52 61L52 58L51 58L51 57L53 57L53 61L54 61L54 60L55 60L55 61L56 61L56 59L57 59L57 60L60 60L60 61L61 61L61 57L60 57L60 56L61 56L61 54L60 54L60 53L61 53L61 50L60 50L60 49L61 49L61 48L60 48L60 47L61 47L61 46L60 46L60 45L61 45L61 42L60 42L60 40L61 40L61 38L60 38L60 37L61 37L61 34L59 34L59 33L60 33L60 32L61 32L61 30L60 30L60 29L59 29L59 28L60 28L60 27L61 27L61 26L60 26L60 25L61 25L61 22L60 22L60 23L59 23L59 21L58 21L58 22L57 22L57 21L54 21L54 22L55 22L55 23L54 23L54 24L53 24L53 23L52 23L52 22L53 22L53 21L52 21L52 20L53 20L53 19L49 19L49 18L50 18L50 16L51 16L51 18L55 18L55 19L54 19L54 20L56 20L56 19L57 19L57 20L58 20L58 18L59 18L59 19L61 19L61 18L59 18L59 15L58 15L58 14L59 14L59 13L60 13L60 12L59 12L59 11L61 11L61 10L59 10L59 9L57 9L57 10L56 10L56 12L55 12L55 13L54 13L54 12L53 12L53 11L51 11L51 10L55 10L55 8L54 8L54 9L51 9L51 8L47 8L47 6L48 6L48 7L49 7L49 6L50 6L50 7L51 7L51 5L52 5L52 4L53 4L53 0L51 0L51 2L49 2L49 1L50 1L50 0L45 0L45 1L46 1L46 2L44 2L44 1L43 1L43 0L42 0L42 1L43 1L43 2L42 2L42 3L39 3L39 4L38 4L38 5L37 5L37 3L38 3L38 1L40 1L40 0L37 0L37 1L36 1L36 0L34 0L34 1L32 1L32 0L27 0L27 2L26 2L26 3L25 3L25 1L26 1L26 0L22 0L22 1L23 1L23 2L24 2L24 3L21 3L21 2L19 2L19 1L21 1L21 0L19 0L19 1L18 1L18 0L17 0L17 1L16 1L16 2L17 2L17 3L18 3L18 4L17 4L17 5L14 5L14 7L13 7L13 4L16 4L16 3L13 3L13 2L15 2L15 0L13 0L13 1L9 1L9 0ZM28 1L28 2L31 2L31 3L27 3L27 4L26 4L26 5L25 5L25 8L23 8L23 7L24 7L24 4L25 4L25 3L24 3L24 4L23 4L23 5L22 5L22 6L21 6L21 8L20 8L20 10L15 10L15 8L16 8L16 9L18 9L18 8L17 8L17 7L18 7L18 6L17 6L17 7L16 7L16 6L15 6L15 7L14 7L14 8L13 8L13 12L12 12L12 13L10 13L10 12L11 12L11 11L9 11L9 13L8 13L8 17L9 17L9 18L7 18L7 17L6 17L6 16L7 16L7 15L6 15L6 16L5 16L5 17L2 17L2 19L3 19L3 20L2 20L2 21L3 21L3 22L4 22L4 25L5 25L5 24L7 24L7 25L6 25L6 26L9 26L9 28L10 28L10 29L11 29L11 30L13 30L13 32L11 32L11 31L9 31L9 32L10 32L10 33L8 33L8 35L10 35L10 36L12 36L12 35L13 35L13 36L14 36L14 37L10 37L10 38L11 38L11 39L13 39L13 42L15 42L15 41L16 41L16 38L17 38L17 39L18 39L18 38L19 38L19 37L17 37L17 35L16 35L16 38L14 38L14 37L15 37L15 36L14 36L14 35L13 35L13 34L15 34L15 33L14 33L14 31L15 31L15 28L16 28L16 27L18 27L18 25L20 25L20 24L19 24L19 23L20 23L20 21L18 21L18 20L19 20L19 19L16 19L16 17L17 17L17 18L19 18L19 17L20 17L20 19L21 19L21 18L22 18L22 20L21 20L21 21L22 21L22 22L21 22L21 23L24 23L24 25L25 25L25 28L24 28L24 29L25 29L25 30L24 30L24 31L22 31L22 32L23 32L23 34L22 34L22 36L21 36L21 34L20 34L20 32L21 32L21 31L20 31L20 30L23 30L23 26L22 26L22 25L21 25L21 26L19 26L19 28L20 28L20 30L19 30L19 29L18 29L18 28L17 28L17 30L16 30L16 31L20 31L20 32L19 32L19 33L18 33L18 32L17 32L17 33L16 33L16 34L18 34L18 36L20 36L20 37L22 37L22 36L24 36L24 37L25 37L25 36L26 36L26 34L27 34L27 32L28 32L28 31L26 31L26 32L25 32L25 30L26 30L26 29L25 29L25 28L27 28L27 30L28 30L28 28L27 28L27 27L26 27L26 26L28 26L28 27L29 27L29 24L30 24L30 25L31 25L31 28L33 28L33 29L34 29L34 27L35 27L35 30L34 30L34 31L33 31L33 32L34 32L34 33L33 33L33 34L32 34L32 33L28 33L28 34L29 34L29 35L30 35L30 36L28 36L28 38L29 38L29 40L27 40L27 37L26 37L26 40L25 40L25 39L24 39L24 38L23 38L23 39L21 39L21 40L22 40L22 42L24 42L24 43L22 43L22 44L21 44L21 42L20 42L20 43L19 43L19 44L21 44L21 45L22 45L22 46L19 46L19 45L17 45L17 44L18 44L18 41L17 41L17 43L16 43L16 45L17 45L17 47L16 47L16 48L15 48L15 49L14 49L14 50L15 50L15 52L16 52L16 50L17 50L17 53L18 53L18 54L17 54L17 55L16 55L16 56L14 56L14 55L15 55L15 54L13 54L13 53L14 53L14 51L13 51L13 53L12 53L12 52L9 52L9 53L10 53L10 54L11 54L11 56L12 56L12 57L11 57L11 58L12 58L12 57L14 57L14 58L15 58L15 57L17 57L17 58L18 58L18 59L19 59L19 58L20 58L20 57L21 57L21 56L22 56L22 55L23 55L23 54L24 54L24 55L25 55L25 54L26 54L26 50L27 50L27 49L26 49L26 48L27 48L27 42L26 42L26 40L27 40L27 41L30 41L30 42L29 42L29 43L28 43L28 44L29 44L29 45L28 45L28 46L30 46L30 47L28 47L28 48L29 48L29 50L31 50L31 51L32 51L32 50L34 50L34 51L33 51L33 52L34 52L34 51L35 51L35 52L37 52L37 51L38 51L38 52L40 52L40 53L37 53L37 54L34 54L34 53L33 53L33 56L34 56L34 57L35 57L35 58L34 58L34 59L33 59L33 60L34 60L34 59L35 59L35 58L37 58L37 59L36 59L36 60L37 60L37 59L40 59L40 60L42 60L42 59L44 59L44 58L46 58L46 57L47 57L47 59L48 59L48 60L49 60L49 59L51 59L51 58L50 58L50 57L51 57L51 56L50 56L50 55L51 55L51 54L52 54L52 53L51 53L51 52L49 52L49 51L48 51L48 50L50 50L50 47L51 47L51 46L50 46L50 45L47 45L47 46L49 46L49 47L47 47L47 48L49 48L49 49L46 49L46 48L45 48L45 49L44 49L44 45L45 45L45 47L46 47L46 44L48 44L48 43L47 43L47 42L48 42L48 40L51 40L51 39L52 39L52 41L53 41L53 40L54 40L54 42L53 42L53 43L54 43L54 44L53 44L53 45L54 45L54 44L55 44L55 43L57 43L57 44L58 44L58 45L57 45L57 46L56 46L56 47L54 47L54 46L52 46L52 49L51 49L51 50L53 50L53 49L54 49L54 50L56 50L56 49L57 49L57 51L58 51L58 50L59 50L59 48L58 48L58 49L57 49L57 46L58 46L58 45L60 45L60 44L59 44L59 41L57 41L57 40L55 40L55 39L54 39L54 38L55 38L55 37L54 37L54 38L53 38L53 35L54 35L54 36L56 36L56 37L57 37L57 38L56 38L56 39L57 39L57 38L58 38L58 39L59 39L59 37L60 37L60 36L58 36L58 37L57 37L57 36L56 36L56 35L54 35L54 34L53 34L53 33L51 33L51 32L52 32L52 30L51 30L51 28L50 28L50 27L49 27L49 28L50 28L50 29L48 29L48 27L47 27L47 26L48 26L48 24L49 24L49 26L50 26L50 25L51 25L51 24L49 24L49 23L51 23L51 22L49 22L49 21L48 21L48 20L49 20L49 19L48 19L48 18L49 18L49 17L47 17L47 14L48 14L48 16L50 16L50 11L49 11L49 10L48 10L48 11L49 11L49 13L48 13L48 12L46 12L46 13L44 13L44 12L45 12L45 11L44 11L44 10L45 10L45 9L47 9L47 8L45 8L45 7L46 7L46 6L47 6L47 4L48 4L48 5L49 5L49 4L48 4L48 3L49 3L49 2L48 2L48 1L47 1L47 2L46 2L46 3L47 3L47 4L46 4L46 5L45 5L45 4L44 4L44 2L43 2L43 3L42 3L42 4L39 4L39 8L38 8L38 6L37 6L37 5L35 5L35 4L33 4L33 3L32 3L32 1ZM35 1L35 2L34 2L34 3L37 3L37 2L36 2L36 1ZM47 2L47 3L48 3L48 2ZM19 3L19 4L18 4L18 5L19 5L19 7L20 7L20 5L19 5L19 4L21 4L21 3ZM31 3L31 4L27 4L27 5L28 5L28 8L27 8L27 6L26 6L26 8L27 8L27 10L26 10L26 13L24 13L24 12L23 12L23 11L25 11L25 9L23 9L23 8L22 8L22 9L23 9L23 11L19 11L19 12L18 12L18 11L16 11L16 12L15 12L15 10L14 10L14 12L13 12L13 16L14 16L14 17L13 17L13 18L12 18L12 19L11 19L11 17L12 17L12 14L10 14L10 13L9 13L9 15L10 15L10 18L9 18L9 19L8 19L8 20L6 20L6 21L5 21L5 20L3 20L3 21L5 21L5 22L6 22L6 23L8 23L8 22L9 22L9 26L10 26L10 27L11 27L11 29L12 29L12 27L14 27L14 28L13 28L13 29L14 29L14 28L15 28L15 27L16 27L16 24L15 24L15 25L14 25L14 22L16 22L16 23L17 23L17 24L18 24L18 23L17 23L17 22L18 22L18 21L16 21L16 20L14 20L14 19L13 19L13 18L14 18L14 17L15 17L15 16L16 16L16 12L18 12L18 13L20 13L20 14L18 14L18 15L19 15L19 16L18 16L18 17L19 17L19 16L20 16L20 17L21 17L21 14L22 14L22 13L23 13L23 14L26 14L26 18L25 18L25 21L23 21L23 20L24 20L24 18L23 18L23 17L25 17L25 15L24 15L24 16L22 16L22 18L23 18L23 20L22 20L22 21L23 21L23 22L24 22L24 23L25 23L25 24L26 24L26 25L28 25L28 24L29 24L29 20L31 20L31 21L33 21L33 22L30 22L30 24L31 24L31 25L34 25L34 24L36 24L36 25L37 25L37 24L38 24L38 26L39 26L39 24L38 24L38 23L37 23L37 20L38 20L38 22L39 22L39 19L40 19L40 21L41 21L41 22L40 22L40 23L41 23L41 24L40 24L40 25L41 25L41 24L42 24L42 23L43 23L43 22L44 22L44 24L43 24L43 25L42 25L42 26L43 26L43 27L42 27L42 28L41 28L41 30L39 30L39 31L38 31L38 29L40 29L40 27L39 27L39 28L36 28L36 30L35 30L35 31L37 31L37 32L35 32L35 33L34 33L34 35L33 35L33 36L34 36L34 37L35 37L35 35L38 35L38 34L39 34L39 35L40 35L40 34L39 34L39 33L41 33L41 30L43 30L43 31L42 31L42 32L44 32L44 31L45 31L45 30L43 30L43 29L46 29L46 30L47 30L47 32L48 32L48 33L49 33L49 34L51 34L51 33L50 33L50 32L51 32L51 31L50 31L50 30L47 30L47 29L46 29L46 28L47 28L47 27L46 27L46 26L45 26L45 27L44 27L44 25L46 25L46 23L47 23L47 24L48 24L48 23L49 23L49 22L47 22L47 21L46 21L46 20L45 20L45 21L46 21L46 23L45 23L45 22L44 22L44 20L43 20L43 19L46 19L46 18L47 18L47 17L46 17L46 14L45 14L45 16L43 16L43 15L42 15L42 14L44 14L44 13L43 13L43 11L41 11L41 10L43 10L43 9L44 9L44 8L43 8L43 9L41 9L41 6L42 6L42 7L43 7L43 4L42 4L42 5L40 5L40 9L37 9L37 8L35 8L35 6L34 6L34 5L33 5L33 4L32 4L32 3ZM51 3L51 4L52 4L52 3ZM29 5L29 8L32 8L32 5ZM9 6L9 7L10 7L10 6ZM11 6L11 7L12 7L12 6ZM22 6L22 7L23 7L23 6ZM30 6L30 7L31 7L31 6ZM33 6L33 7L34 7L34 6ZM36 6L36 7L37 7L37 6ZM44 6L44 7L45 7L45 6ZM52 6L52 7L53 7L53 6ZM6 8L6 9L7 9L7 8ZM33 8L33 9L31 9L31 10L29 10L29 9L28 9L28 10L29 10L29 13L31 13L31 12L30 12L30 11L31 11L31 10L34 10L34 8ZM60 8L60 9L61 9L61 8ZM3 9L3 10L4 10L4 9ZM36 9L36 10L35 10L35 11L36 11L36 12L35 12L35 13L34 13L34 11L33 11L33 13L32 13L32 14L31 14L31 15L33 15L33 13L34 13L34 15L35 15L35 14L36 14L36 16L34 16L34 17L33 17L33 16L30 16L30 17L29 17L29 16L28 16L28 17L27 17L27 19L26 19L26 21L25 21L25 23L26 23L26 24L28 24L28 23L27 23L27 21L28 21L28 20L29 20L29 19L30 19L30 18L32 18L32 17L33 17L33 18L34 18L34 20L37 20L37 19L35 19L35 18L36 18L36 16L37 16L37 18L38 18L38 19L39 19L39 18L40 18L40 19L43 19L43 18L42 18L42 15L40 15L40 17L38 17L38 16L39 16L39 15L38 15L38 16L37 16L37 14L38 14L38 13L37 13L37 14L36 14L36 12L37 12L37 9ZM38 10L38 12L39 12L39 10ZM57 10L57 12L58 12L58 13L56 13L56 14L53 14L53 12L52 12L52 14L51 14L51 16L52 16L52 14L53 14L53 16L54 16L54 17L55 17L55 18L56 18L56 16L57 16L57 18L58 18L58 16L57 16L57 14L58 14L58 13L59 13L59 12L58 12L58 11L59 11L59 10ZM40 11L40 12L41 12L41 13L40 13L40 14L42 14L42 12L41 12L41 11ZM20 12L20 13L22 13L22 12ZM14 13L14 15L15 15L15 13ZM26 13L26 14L27 14L27 13ZM28 14L28 15L29 15L29 14ZM60 14L60 16L61 16L61 14ZM55 15L55 16L56 16L56 15ZM34 17L34 18L35 18L35 17ZM44 17L44 18L46 18L46 17ZM3 18L3 19L4 19L4 18ZM5 18L5 19L7 19L7 18ZM9 19L9 20L10 20L10 19ZM12 19L12 20L13 20L13 19ZM31 19L31 20L33 20L33 19ZM47 19L47 20L48 20L48 19ZM41 20L41 21L43 21L43 20ZM60 20L60 21L61 21L61 20ZM6 21L6 22L8 22L8 21ZM10 21L10 23L11 23L11 21ZM12 21L12 23L13 23L13 21ZM35 21L35 22L36 22L36 21ZM31 23L31 24L32 24L32 23ZM33 23L33 24L34 24L34 23ZM36 23L36 24L37 24L37 23ZM10 24L10 25L11 25L11 26L13 26L13 24ZM52 24L52 26L53 26L53 27L55 27L55 28L57 28L57 32L58 32L58 33L59 33L59 29L58 29L58 27L59 27L59 25L60 25L60 24L57 24L57 26L56 26L56 24L54 24L54 25L55 25L55 26L53 26L53 24ZM14 26L14 27L15 27L15 26ZM35 26L35 27L36 27L36 26ZM57 26L57 27L58 27L58 26ZM2 27L2 28L5 28L5 27ZM6 27L6 28L8 28L8 27ZM20 27L20 28L22 28L22 27ZM43 27L43 28L42 28L42 29L43 29L43 28L44 28L44 27ZM45 27L45 28L46 28L46 27ZM2 29L2 30L3 30L3 29ZM5 29L5 32L8 32L8 29ZM29 29L29 32L32 32L32 29ZM53 29L53 32L56 32L56 29ZM6 30L6 31L7 31L7 30ZM30 30L30 31L31 31L31 30ZM54 30L54 31L55 31L55 30ZM0 31L0 32L1 32L1 31ZM48 31L48 32L50 32L50 31ZM24 32L24 35L25 35L25 32ZM45 32L45 33L44 33L44 34L43 34L43 33L42 33L42 34L41 34L41 36L40 36L40 38L39 38L39 37L38 37L38 36L36 36L36 37L38 37L38 39L37 39L37 38L36 38L36 39L37 39L37 40L36 40L36 43L38 43L38 39L41 39L41 36L42 36L42 38L43 38L43 39L42 39L42 40L41 40L41 41L42 41L42 42L39 42L39 44L38 44L38 45L37 45L37 44L34 44L34 42L35 42L35 40L33 40L33 39L34 39L34 38L32 38L32 35L31 35L31 36L30 36L30 37L31 37L31 38L30 38L30 39L31 39L31 40L30 40L30 41L31 41L31 40L33 40L33 41L32 41L32 42L30 42L30 45L31 45L31 46L32 46L32 45L31 45L31 43L32 43L32 44L34 44L34 46L33 46L33 47L35 47L35 45L37 45L37 46L39 46L39 47L40 47L40 45L42 45L42 46L43 46L43 45L44 45L44 43L45 43L45 44L46 44L46 43L45 43L45 42L44 42L44 41L46 41L46 42L47 42L47 40L48 40L48 39L46 39L46 38L45 38L45 39L46 39L46 40L44 40L44 37L46 37L46 36L45 36L45 34L46 34L46 35L47 35L47 37L49 37L49 36L48 36L48 34L47 34L47 33L46 33L46 32ZM0 33L0 36L1 36L1 37L0 37L0 39L3 39L3 33ZM5 33L5 35L6 35L6 34L7 34L7 33ZM10 33L10 35L12 35L12 33ZM35 33L35 34L36 34L36 33ZM19 34L19 35L20 35L20 34ZM42 34L42 35L43 35L43 34ZM58 34L58 35L59 35L59 34ZM1 35L1 36L2 36L2 35ZM50 35L50 38L49 38L49 39L51 39L51 37L52 37L52 35ZM13 38L13 39L14 39L14 40L15 40L15 39L14 39L14 38ZM31 38L31 39L32 39L32 38ZM19 39L19 41L20 41L20 39ZM23 39L23 41L24 41L24 42L25 42L25 41L24 41L24 39ZM4 40L4 41L3 41L3 42L5 42L5 40ZM42 40L42 41L43 41L43 40ZM6 41L6 42L7 42L7 41ZM33 41L33 42L32 42L32 43L33 43L33 42L34 42L34 41ZM50 41L50 43L51 43L51 41ZM55 41L55 42L54 42L54 43L55 43L55 42L56 42L56 41ZM1 42L1 43L2 43L2 42ZM42 42L42 43L41 43L41 44L42 44L42 45L43 45L43 44L42 44L42 43L44 43L44 42ZM57 42L57 43L58 43L58 42ZM6 43L6 44L8 44L8 43ZM24 43L24 44L22 44L22 45L24 45L24 46L22 46L22 47L23 47L23 48L25 48L25 47L26 47L26 46L25 46L25 45L24 45L24 44L25 44L25 43ZM6 45L6 46L5 46L5 49L3 49L3 48L4 48L4 47L2 47L2 49L3 49L3 50L8 50L8 49L6 49L6 48L9 48L9 47L6 47L6 46L7 46L7 45ZM24 46L24 47L25 47L25 46ZM59 46L59 47L60 47L60 46ZM17 47L17 48L16 48L16 49L20 49L20 50L18 50L18 51L20 51L20 52L22 52L22 51L23 51L23 53L24 53L24 54L25 54L25 53L24 53L24 51L25 51L25 50L26 50L26 49L23 49L23 50L21 50L21 49L20 49L20 48L19 48L19 47ZM30 47L30 49L31 49L31 50L32 50L32 48L31 48L31 47ZM41 47L41 48L36 48L36 49L35 49L35 51L37 51L37 49L38 49L38 51L39 51L39 49L42 49L42 50L43 50L43 51L42 51L42 52L41 52L41 53L40 53L40 54L41 54L41 55L40 55L40 56L39 56L39 55L38 55L38 54L37 54L37 55L38 55L38 56L35 56L35 57L37 57L37 58L39 58L39 57L40 57L40 59L42 59L42 58L44 58L44 57L43 57L43 56L44 56L44 55L45 55L45 54L44 54L44 53L46 53L46 54L47 54L47 55L46 55L46 56L45 56L45 57L46 57L46 56L47 56L47 57L50 57L50 56L47 56L47 55L50 55L50 54L48 54L48 53L49 53L49 52L48 52L48 51L46 51L46 52L44 52L44 49L42 49L42 48L43 48L43 47ZM33 48L33 49L34 49L34 48ZM54 48L54 49L56 49L56 48ZM45 49L45 50L46 50L46 49ZM40 50L40 51L41 51L41 50ZM3 51L3 52L4 52L4 51ZM28 51L28 52L27 52L27 53L28 53L28 52L29 52L29 51ZM52 51L52 52L56 52L56 51ZM18 52L18 53L19 53L19 52ZM42 52L42 53L44 53L44 52ZM57 52L57 53L58 53L58 52ZM59 52L59 53L60 53L60 52ZM29 53L29 56L32 56L32 53ZM53 53L53 56L56 56L56 53ZM20 54L20 56L21 56L21 55L22 55L22 54ZM30 54L30 55L31 55L31 54ZM42 54L42 55L41 55L41 56L43 56L43 54ZM54 54L54 55L55 55L55 54ZM57 54L57 55L58 55L58 56L57 56L57 57L54 57L54 58L58 58L58 57L59 57L59 58L60 58L60 57L59 57L59 56L60 56L60 54L59 54L59 55L58 55L58 54ZM9 56L9 57L10 57L10 56ZM17 56L17 57L18 57L18 58L19 58L19 57L18 57L18 56ZM38 56L38 57L39 57L39 56ZM31 57L31 58L30 58L30 59L32 59L32 58L33 58L33 57ZM15 59L15 60L16 60L16 59ZM45 59L45 60L46 60L46 59ZM0 0L0 7L7 7L7 0ZM1 1L1 6L6 6L6 1ZM2 2L2 5L5 5L5 2ZM54 0L54 7L61 7L61 0ZM55 1L55 6L60 6L60 1ZM56 2L56 5L59 5L59 2ZM0 54L0 61L7 61L7 54ZM1 55L1 60L6 60L6 55ZM2 56L2 59L5 59L5 56Z" fill="#000000"/></g></g></svg>
