<?xml version="1.0" encoding="UTF-8"?>
<svg xmlns="http://www.w3.org/2000/svg" version="1.1" width="300" height="300" viewBox="0 0 300 300"><rect x="0" y="0" width="300" height="300" fill="#ffffff"/><g transform="scale(4.918)"><g transform="translate(0,0)"><path fill-rule="evenodd" d="M9 0L9 1L8 1L8 2L9 2L9 3L8 3L8 4L9 4L9 5L8 5L8 7L9 7L9 8L6 8L6 9L5 9L5 8L0 8L0 9L2 9L2 12L4 12L4 14L3 14L3 13L0 13L0 14L2 14L2 15L1 15L1 16L2 16L2 15L4 15L4 17L5 17L5 19L4 19L4 18L3 18L3 19L2 19L2 18L1 18L1 20L3 20L3 19L4 19L4 20L5 20L5 22L3 22L3 23L4 23L4 24L5 24L5 23L9 23L9 24L8 24L8 25L7 25L7 24L6 24L6 25L5 25L5 26L4 26L4 25L3 25L3 28L2 28L2 27L1 27L1 26L2 26L2 25L1 25L1 26L0 26L0 27L1 27L1 28L0 28L0 30L2 30L2 31L1 31L1 32L2 32L2 33L1 33L1 37L0 37L0 38L1 38L1 37L2 37L2 36L3 36L3 38L2 38L2 39L1 39L1 40L0 40L0 42L3 42L3 43L4 43L4 44L5 44L5 45L3 45L3 44L2 44L2 47L1 47L1 46L0 46L0 48L2 48L2 47L3 47L3 49L4 49L4 48L6 48L6 49L7 49L7 48L6 48L6 47L7 47L7 46L6 46L6 47L5 47L5 45L7 45L7 44L6 44L6 43L7 43L7 42L5 42L5 43L4 43L4 42L3 42L3 41L2 41L2 39L4 39L4 38L5 38L5 37L4 37L4 35L5 35L5 33L7 33L7 34L6 34L6 35L7 35L7 36L6 36L6 37L9 37L9 36L8 36L8 34L9 34L9 35L10 35L10 38L11 38L11 36L12 36L12 37L13 37L13 38L14 38L14 40L13 40L13 39L12 39L12 41L13 41L13 42L10 42L10 44L11 44L11 45L10 45L10 47L11 47L11 48L13 48L13 49L14 49L14 51L15 51L15 54L13 54L13 52L12 52L12 51L9 51L9 50L11 50L11 49L10 49L10 48L9 48L9 50L2 50L2 49L0 49L0 50L2 50L2 51L0 51L0 53L4 53L4 52L5 52L5 51L7 51L7 52L6 52L6 53L8 53L8 55L9 55L9 56L8 56L8 61L11 61L11 60L12 60L12 61L15 61L15 60L14 60L14 58L15 58L15 59L16 59L16 57L18 57L18 59L20 59L20 58L19 58L19 57L20 57L20 56L23 56L23 57L21 57L21 59L23 59L23 58L26 58L26 57L24 57L24 56L26 56L26 55L24 55L24 56L23 56L23 53L24 53L24 54L25 54L25 53L24 53L24 51L22 51L22 49L23 49L23 50L24 50L24 49L25 49L25 48L26 48L26 47L27 47L27 48L29 48L29 49L28 49L28 50L27 50L27 49L26 49L26 50L25 50L25 52L26 52L26 50L27 50L27 51L28 51L28 53L26 53L26 54L28 54L28 56L27 56L27 58L28 58L28 59L26 59L26 60L25 60L25 59L24 59L24 60L23 60L23 61L24 61L24 60L25 60L25 61L26 61L26 60L27 60L27 61L28 61L28 60L29 60L29 59L30 59L30 58L31 58L31 59L32 59L32 60L31 60L31 61L32 61L32 60L33 60L33 61L35 61L35 60L36 60L36 61L37 61L37 60L36 60L36 59L37 59L37 58L36 58L36 59L35 59L35 58L31 58L31 57L35 57L35 56L36 56L36 57L37 57L37 56L36 56L36 55L37 55L37 54L36 54L36 55L35 55L35 54L33 54L33 52L29 52L29 50L30 50L30 51L31 51L31 49L32 49L32 47L33 47L33 50L32 50L32 51L35 51L35 50L34 50L34 49L37 49L37 48L38 48L38 47L39 47L39 50L38 50L38 52L34 52L34 53L39 53L39 54L38 54L38 57L39 57L39 58L38 58L38 59L39 59L39 60L38 60L38 61L39 61L39 60L41 60L41 59L42 59L42 61L43 61L43 59L44 59L44 60L45 60L45 61L46 61L46 59L47 59L47 61L49 61L49 60L48 60L48 59L49 59L49 56L50 56L50 55L52 55L52 56L51 56L51 57L52 57L52 58L50 58L50 59L51 59L51 60L50 60L50 61L52 61L52 60L53 60L53 59L52 59L52 58L54 58L54 57L56 57L56 58L55 58L55 59L54 59L54 60L55 60L55 61L61 61L61 56L60 56L60 60L57 60L57 59L58 59L58 58L57 58L57 52L56 52L56 51L55 51L55 50L56 50L56 49L57 49L57 51L61 51L61 50L58 50L58 49L59 49L59 48L61 48L61 46L59 46L59 44L60 44L60 45L61 45L61 42L60 42L60 43L59 43L59 44L58 44L58 45L57 45L57 43L56 43L56 41L57 41L57 42L58 42L58 41L59 41L59 40L56 40L56 41L55 41L55 40L53 40L53 39L56 39L56 37L57 37L57 39L59 39L59 38L58 38L58 37L61 37L61 34L59 34L59 33L61 33L61 32L57 32L57 31L58 31L58 30L57 30L57 29L59 29L59 28L61 28L61 26L60 26L60 24L61 24L61 22L60 22L60 24L58 24L58 26L57 26L57 27L56 27L56 24L57 24L57 23L59 23L59 22L58 22L58 21L61 21L61 18L60 18L60 17L61 17L61 16L60 16L60 17L59 17L59 16L58 16L58 17L57 17L57 19L56 19L56 18L55 18L55 17L56 17L56 16L57 16L57 15L56 15L56 16L51 16L51 15L52 15L52 14L50 14L50 17L49 17L49 16L48 16L48 14L46 14L46 13L50 13L50 9L51 9L51 8L52 8L52 7L53 7L53 6L52 6L52 7L51 7L51 5L52 5L52 4L53 4L53 0L51 0L51 2L50 2L50 3L48 3L48 2L49 2L49 1L50 1L50 0L48 0L48 2L47 2L47 1L46 1L46 0L45 0L45 1L44 1L44 0L40 0L40 1L38 1L38 2L37 2L37 3L36 3L36 2L35 2L35 1L36 1L36 0L35 0L35 1L33 1L33 0L32 0L32 1L31 1L31 0L30 0L30 1L31 1L31 2L29 2L29 1L28 1L28 0L26 0L26 1L27 1L27 2L26 2L26 3L25 3L25 0L24 0L24 1L23 1L23 2L22 2L22 1L20 1L20 0L19 0L19 1L20 1L20 3L18 3L18 0L16 0L16 1L15 1L15 2L14 2L14 3L12 3L12 4L11 4L11 3L10 3L10 2L9 2L9 1L10 1L10 0ZM12 0L12 1L13 1L13 0ZM32 1L32 2L33 2L33 5L35 5L35 8L34 8L34 6L33 6L33 8L34 8L34 10L35 10L35 12L38 12L38 14L40 14L40 15L36 15L36 14L37 14L37 13L36 13L36 14L35 14L35 13L34 13L34 14L32 14L32 13L33 13L33 10L32 10L32 9L28 9L28 8L27 8L27 9L25 9L25 8L26 8L26 6L25 6L25 5L26 5L26 4L27 4L27 5L28 5L28 3L26 3L26 4L25 4L25 3L24 3L24 2L23 2L23 3L22 3L22 4L25 4L25 5L21 5L21 4L18 4L18 5L17 5L17 4L16 4L16 2L15 2L15 3L14 3L14 4L15 4L15 7L14 7L14 6L13 6L13 4L12 4L12 6L11 6L11 4L10 4L10 3L9 3L9 4L10 4L10 6L9 6L9 7L10 7L10 8L9 8L9 9L10 9L10 8L11 8L11 11L10 11L10 10L9 10L9 11L10 11L10 12L8 12L8 13L9 13L9 14L10 14L10 16L9 16L9 17L6 17L6 18L9 18L9 19L5 19L5 20L7 20L7 21L6 21L6 22L8 22L8 21L9 21L9 23L10 23L10 21L11 21L11 20L12 20L12 17L14 17L14 19L13 19L13 21L14 21L14 19L16 19L16 20L17 20L17 21L15 21L15 22L13 22L13 25L14 25L14 26L13 26L13 28L11 28L11 29L10 29L10 30L9 30L9 34L10 34L10 35L12 35L12 34L10 34L10 33L15 33L15 34L16 34L16 33L17 33L17 36L19 36L19 37L18 37L18 38L17 38L17 37L16 37L16 35L14 35L14 34L13 34L13 36L14 36L14 37L15 37L15 38L17 38L17 39L16 39L16 40L14 40L14 42L13 42L13 44L12 44L12 43L11 43L11 44L12 44L12 45L13 45L13 48L14 48L14 49L16 49L16 50L15 50L15 51L16 51L16 52L17 52L17 53L16 53L16 55L14 55L14 56L13 56L13 58L14 58L14 56L16 56L16 55L17 55L17 56L18 56L18 57L19 57L19 55L20 55L20 54L21 54L21 53L23 53L23 52L21 52L21 49L22 49L22 48L21 48L21 49L20 49L20 52L19 52L19 53L18 53L18 52L17 52L17 50L18 50L18 51L19 51L19 49L17 49L17 47L20 47L20 46L21 46L21 47L22 47L22 46L21 46L21 45L23 45L23 42L24 42L24 41L25 41L25 43L24 43L24 45L25 45L25 44L26 44L26 45L27 45L27 46L28 46L28 45L27 45L27 44L30 44L30 43L32 43L32 46L31 46L31 45L29 45L29 46L31 46L31 47L32 47L32 46L33 46L33 44L34 44L34 46L35 46L35 47L34 47L34 48L36 48L36 47L38 47L38 46L39 46L39 47L40 47L40 46L41 46L41 45L43 45L43 46L42 46L42 49L43 49L43 50L41 50L41 48L40 48L40 50L39 50L39 51L42 51L42 53L43 53L43 52L44 52L44 54L41 54L41 56L39 56L39 57L40 57L40 58L39 58L39 59L41 59L41 56L42 56L42 57L43 57L43 56L42 56L42 55L44 55L44 57L45 57L45 54L47 54L47 55L46 55L46 56L49 56L49 55L50 55L50 54L51 54L51 53L50 53L50 52L52 52L52 51L53 51L53 52L55 52L55 51L53 51L53 50L51 50L51 49L50 49L50 50L51 50L51 51L48 51L48 50L49 50L49 49L48 49L48 48L49 48L49 47L50 47L50 48L52 48L52 49L54 49L54 48L55 48L55 49L56 49L56 48L59 48L59 46L57 46L57 45L56 45L56 43L54 43L54 42L55 42L55 41L53 41L53 40L52 40L52 38L53 38L53 37L52 37L52 38L51 38L51 36L52 36L52 35L53 35L53 36L54 36L54 38L55 38L55 36L57 36L57 35L58 35L58 36L60 36L60 35L58 35L58 34L57 34L57 33L56 33L56 35L53 35L53 34L55 34L55 33L52 33L52 32L50 32L50 31L48 31L48 32L47 32L47 31L46 31L46 30L47 30L47 28L49 28L49 30L51 30L51 31L52 31L52 28L51 28L51 27L50 27L50 26L51 26L51 25L50 25L50 26L49 26L49 25L46 25L46 23L45 23L45 22L47 22L47 24L49 24L49 23L50 23L50 22L51 22L51 23L52 23L52 22L53 22L53 23L55 23L55 22L53 22L53 21L52 21L52 22L51 22L51 20L52 20L52 18L53 18L53 20L56 20L56 21L58 21L58 20L59 20L59 19L57 19L57 20L56 20L56 19L55 19L55 18L53 18L53 17L50 17L50 18L49 18L49 17L48 17L48 16L46 16L46 14L45 14L45 16L44 16L44 15L43 15L43 14L44 14L44 13L45 13L45 12L44 12L44 11L43 11L43 10L41 10L41 9L43 9L43 8L44 8L44 9L45 9L45 10L47 10L47 11L46 11L46 12L49 12L49 11L48 11L48 10L49 10L49 9L50 9L50 8L49 8L49 7L50 7L50 6L49 6L49 4L48 4L48 3L47 3L47 2L45 2L45 3L44 3L44 4L43 4L43 5L42 5L42 6L41 6L41 7L42 7L42 8L40 8L40 5L41 5L41 3L42 3L42 2L44 2L44 1L41 1L41 3L39 3L39 2L38 2L38 4L36 4L36 3L35 3L35 2L33 2L33 1ZM29 3L29 4L31 4L31 3ZM51 3L51 4L52 4L52 3ZM39 4L39 5L38 5L38 7L39 7L39 5L40 5L40 4ZM44 4L44 5L45 5L45 6L44 6L44 8L45 8L45 9L46 9L46 8L47 8L47 10L48 10L48 9L49 9L49 8L47 8L47 5L45 5L45 4ZM18 5L18 7L17 7L17 6L16 6L16 7L15 7L15 9L14 9L14 10L16 10L16 9L17 9L17 10L20 10L20 11L19 11L19 12L18 12L18 13L19 13L19 14L20 14L20 13L21 13L21 14L22 14L22 15L20 15L20 16L18 16L18 15L17 15L17 14L15 14L15 13L14 13L14 12L16 12L16 13L17 13L17 12L16 12L16 11L14 11L14 12L13 12L13 13L14 13L14 14L15 14L15 16L16 16L16 15L17 15L17 16L18 16L18 17L21 17L21 18L20 18L20 19L21 19L21 20L20 20L20 21L21 21L21 23L20 23L20 22L19 22L19 25L18 25L18 24L16 24L16 25L15 25L15 24L14 24L14 25L15 25L15 27L14 27L14 28L13 28L13 29L11 29L11 30L13 30L13 31L14 31L14 32L15 32L15 33L16 33L16 31L17 31L17 30L18 30L18 31L22 31L22 30L25 30L25 31L24 31L24 32L23 32L23 33L24 33L24 34L22 34L22 35L21 35L21 36L20 36L20 35L19 35L19 34L18 34L18 35L19 35L19 36L20 36L20 37L19 37L19 38L18 38L18 39L17 39L17 40L16 40L16 41L15 41L15 43L14 43L14 46L15 46L15 48L16 48L16 47L17 47L17 46L18 46L18 45L19 45L19 46L20 46L20 45L21 45L21 42L23 42L23 41L19 41L19 40L21 40L21 39L22 39L22 38L23 38L23 37L22 37L22 35L24 35L24 36L25 36L25 37L24 37L24 38L25 38L25 39L26 39L26 40L25 40L25 41L28 41L28 42L27 42L27 43L26 43L26 44L27 44L27 43L28 43L28 42L29 42L29 43L30 43L30 41L31 41L31 42L32 42L32 43L33 43L33 41L34 41L34 39L35 39L35 40L36 40L36 41L37 41L37 40L36 40L36 39L35 39L35 38L37 38L37 39L39 39L39 38L40 38L40 40L41 40L41 42L43 42L43 43L42 43L42 44L43 44L43 43L44 43L44 44L45 44L45 46L43 46L43 47L44 47L44 48L45 48L45 49L47 49L47 48L48 48L48 47L49 47L49 46L48 46L48 45L49 45L49 44L47 44L47 46L46 46L46 43L47 43L47 42L50 42L50 45L52 45L52 44L51 44L51 42L50 42L50 40L51 40L51 41L52 41L52 40L51 40L51 38L50 38L50 36L48 36L48 37L49 37L49 38L44 38L44 36L46 36L46 35L47 35L47 34L45 34L45 33L47 33L47 32L46 32L46 31L44 31L44 32L43 32L43 31L40 31L40 30L38 30L38 29L37 29L37 28L38 28L38 27L39 27L39 28L42 28L42 30L43 30L43 29L44 29L44 30L46 30L46 29L44 29L44 28L45 28L45 27L44 27L44 28L42 28L42 27L40 27L40 25L39 25L39 26L38 26L38 27L37 27L37 24L38 24L38 23L39 23L39 24L42 24L42 23L40 23L40 22L37 22L37 20L36 20L36 22L33 22L33 21L35 21L35 18L36 18L36 19L37 19L37 18L38 18L38 19L39 19L39 20L38 20L38 21L39 21L39 20L42 20L42 21L41 21L41 22L45 22L45 21L43 21L43 19L44 19L44 20L45 20L45 19L47 19L47 20L46 20L46 21L47 21L47 20L48 20L48 21L49 21L49 22L48 22L48 23L49 23L49 22L50 22L50 21L49 21L49 20L50 20L50 19L51 19L51 18L50 18L50 19L49 19L49 18L48 18L48 17L47 17L47 18L46 18L46 16L45 16L45 18L43 18L43 17L44 17L44 16L43 16L43 15L40 15L40 16L41 16L41 17L39 17L39 16L38 16L38 17L37 17L37 16L35 16L35 18L34 18L34 20L32 20L32 18L33 18L33 16L34 16L34 15L35 15L35 14L34 14L34 15L33 15L33 16L31 16L31 15L32 15L32 14L29 14L29 13L28 13L28 15L29 15L29 16L27 16L27 15L26 15L26 16L25 16L25 15L24 15L24 17L23 17L23 14L27 14L27 13L26 13L26 12L28 12L28 9L27 9L27 11L26 11L26 12L25 12L25 11L24 11L24 12L23 12L23 13L21 13L21 11L23 11L23 10L25 10L25 9L24 9L24 8L23 8L23 9L22 9L22 10L21 10L21 9L19 9L19 5ZM20 5L20 7L21 7L21 8L22 8L22 7L23 7L23 6L22 6L22 7L21 7L21 5ZM29 5L29 8L32 8L32 5ZM36 5L36 7L37 7L37 5ZM10 6L10 7L11 7L11 6ZM12 6L12 8L13 8L13 6ZM24 6L24 7L25 7L25 6ZM27 6L27 7L28 7L28 6ZM30 6L30 7L31 7L31 6ZM42 6L42 7L43 7L43 6ZM45 6L45 7L46 7L46 6ZM48 6L48 7L49 7L49 6ZM16 7L16 8L17 8L17 9L18 9L18 8L17 8L17 7ZM36 8L36 9L35 9L35 10L37 10L37 11L38 11L38 12L41 12L41 13L40 13L40 14L41 14L41 13L42 13L42 14L43 14L43 13L44 13L44 12L42 12L42 11L40 11L40 10L38 10L38 9L39 9L39 8L38 8L38 9L37 9L37 8ZM53 8L53 10L51 10L51 13L53 13L53 14L55 14L55 13L56 13L56 14L58 14L58 15L59 15L59 14L60 14L60 15L61 15L61 14L60 14L60 13L59 13L59 12L60 12L60 11L61 11L61 10L60 10L60 11L59 11L59 10L58 10L58 8L57 8L57 9L56 9L56 8L55 8L55 9L54 9L54 8ZM59 8L59 9L60 9L60 8ZM6 9L6 10L3 10L3 11L6 11L6 12L7 12L7 11L6 11L6 10L7 10L7 9ZM12 9L12 10L13 10L13 9ZM55 9L55 10L54 10L54 12L53 12L53 11L52 11L52 12L53 12L53 13L55 13L55 12L56 12L56 13L57 13L57 12L59 12L59 11L57 11L57 10L56 10L56 9ZM29 10L29 12L32 12L32 10ZM0 11L0 12L1 12L1 11ZM56 11L56 12L57 12L57 11ZM10 12L10 14L12 14L12 15L11 15L11 16L12 16L12 15L13 15L13 16L14 16L14 15L13 15L13 14L12 14L12 13L11 13L11 12ZM19 12L19 13L20 13L20 12ZM24 12L24 13L25 13L25 12ZM6 13L6 14L7 14L7 15L6 15L6 16L7 16L7 15L8 15L8 14L7 14L7 13ZM58 13L58 14L59 14L59 13ZM21 16L21 17L22 17L22 19L24 19L24 20L25 20L25 19L26 19L26 21L27 21L27 19L28 19L28 20L29 20L29 21L28 21L28 22L22 22L22 23L23 23L23 24L20 24L20 25L19 25L19 26L20 26L20 27L18 27L18 25L16 25L16 26L17 26L17 28L19 28L19 29L18 29L18 30L19 30L19 29L20 29L20 30L22 30L22 29L23 29L23 28L22 28L22 27L24 27L24 29L25 29L25 28L26 28L26 29L28 29L28 28L29 28L29 27L28 27L28 26L29 26L29 25L31 25L31 26L32 26L32 27L31 27L31 28L33 28L33 29L34 29L34 30L35 30L35 31L34 31L34 32L38 32L38 34L37 34L37 35L32 35L32 34L31 34L31 33L30 33L30 34L29 34L29 35L28 35L28 37L27 37L27 36L26 36L26 35L27 35L27 34L28 34L28 30L26 30L26 31L25 31L25 33L27 33L27 34L26 34L26 35L25 35L25 36L26 36L26 37L25 37L25 38L26 38L26 37L27 37L27 38L29 38L29 41L30 41L30 40L31 40L31 41L33 41L33 39L32 39L32 38L35 38L35 36L37 36L37 37L38 37L38 38L39 38L39 37L41 37L41 36L43 36L43 35L45 35L45 34L44 34L44 33L45 33L45 32L44 32L44 33L43 33L43 35L41 35L41 34L40 34L40 35L41 35L41 36L39 36L39 37L38 37L38 34L39 34L39 32L40 32L40 33L41 33L41 32L40 32L40 31L39 31L39 32L38 32L38 30L37 30L37 29L35 29L35 28L33 28L33 27L34 27L34 26L35 26L35 27L36 27L36 28L37 28L37 27L36 27L36 26L35 26L35 25L36 25L36 24L37 24L37 23L36 23L36 24L35 24L35 23L34 23L34 24L35 24L35 25L33 25L33 26L32 26L32 25L31 25L31 24L32 24L32 23L33 23L33 22L32 22L32 20L30 20L30 19L28 19L28 18L29 18L29 17L28 17L28 18L27 18L27 19L26 19L26 17L27 17L27 16L26 16L26 17L24 17L24 18L23 18L23 17L22 17L22 16ZM30 16L30 18L32 18L32 17L31 17L31 16ZM9 17L9 18L10 18L10 19L9 19L9 20L10 20L10 19L11 19L11 18L10 18L10 17ZM15 17L15 18L16 18L16 17ZM38 17L38 18L39 18L39 17ZM18 18L18 19L19 19L19 18ZM42 18L42 19L43 19L43 18ZM47 18L47 19L48 19L48 20L49 20L49 19L48 19L48 18ZM18 20L18 21L19 21L19 20ZM22 20L22 21L23 21L23 20ZM0 21L0 23L1 23L1 24L2 24L2 21ZM29 21L29 22L28 22L28 23L29 23L29 24L27 24L27 26L28 26L28 25L29 25L29 24L31 24L31 23L32 23L32 22L31 22L31 21ZM15 22L15 23L16 23L16 22ZM17 22L17 23L18 23L18 22ZM24 23L24 24L26 24L26 23ZM44 23L44 24L43 24L43 25L41 25L41 26L45 26L45 25L44 25L44 24L45 24L45 23ZM53 24L53 25L52 25L52 26L53 26L53 27L54 27L54 28L55 28L55 26L53 26L53 25L55 25L55 24ZM6 25L6 26L5 26L5 27L4 27L4 28L5 28L5 27L6 27L6 28L7 28L7 27L6 27L6 26L7 26L7 25ZM9 25L9 26L10 26L10 27L11 27L11 26L12 26L12 25ZM21 25L21 26L23 26L23 25ZM24 25L24 27L25 27L25 26L26 26L26 25ZM46 26L46 27L48 27L48 26ZM8 27L8 28L9 28L9 27ZM26 27L26 28L27 28L27 27ZM57 27L57 28L59 28L59 27ZM15 28L15 29L13 29L13 30L17 30L17 29L16 29L16 28ZM20 28L20 29L21 29L21 28ZM50 28L50 29L51 29L51 28ZM2 29L2 30L3 30L3 29ZM5 29L5 32L8 32L8 29ZM29 29L29 32L32 32L32 29ZM53 29L53 32L56 32L56 29ZM6 30L6 31L7 31L7 30ZM30 30L30 31L31 31L31 30ZM36 30L36 31L37 31L37 30ZM54 30L54 31L55 31L55 30ZM60 30L60 31L61 31L61 30ZM11 31L11 32L12 32L12 31ZM26 31L26 32L27 32L27 31ZM17 32L17 33L19 33L19 32ZM20 32L20 33L22 33L22 32ZM48 32L48 33L49 33L49 34L50 34L50 35L51 35L51 34L52 34L52 33L51 33L51 34L50 34L50 32ZM2 33L2 34L3 34L3 35L4 35L4 34L3 34L3 33ZM34 33L34 34L36 34L36 33ZM30 34L30 35L29 35L29 36L30 36L30 37L31 37L31 36L32 36L32 37L33 37L33 36L32 36L32 35L31 35L31 34ZM30 35L30 36L31 36L31 35ZM20 37L20 38L21 38L21 37ZM6 38L6 39L7 39L7 40L6 40L6 41L10 41L10 40L11 40L11 39L10 39L10 40L9 40L9 39L7 39L7 38ZM30 38L30 39L31 39L31 40L32 40L32 39L31 39L31 38ZM41 38L41 39L43 39L43 40L44 40L44 41L45 41L45 40L44 40L44 38ZM60 38L60 39L61 39L61 38ZM46 39L46 40L50 40L50 39ZM4 40L4 41L5 41L5 40ZM17 40L17 41L16 41L16 42L17 42L17 43L16 43L16 44L15 44L15 46L17 46L17 45L16 45L16 44L19 44L19 45L20 45L20 44L19 44L19 43L20 43L20 42L19 42L19 43L18 43L18 42L17 42L17 41L18 41L18 40ZM38 40L38 41L39 41L39 40ZM60 40L60 41L61 41L61 40ZM46 41L46 42L47 42L47 41ZM34 42L34 44L35 44L35 42ZM37 42L37 44L36 44L36 45L38 45L38 43L39 43L39 44L41 44L41 43L39 43L39 42ZM52 42L52 43L53 43L53 42ZM8 43L8 45L9 45L9 43ZM0 44L0 45L1 45L1 44ZM54 44L54 45L53 45L53 47L52 47L52 46L50 46L50 47L52 47L52 48L54 48L54 47L57 47L57 46L56 46L56 45L55 45L55 44ZM39 45L39 46L40 46L40 45ZM8 46L8 47L9 47L9 46ZM11 46L11 47L12 47L12 46ZM23 46L23 49L24 49L24 47L26 47L26 46ZM45 46L45 48L46 48L46 46ZM47 46L47 47L48 47L48 46ZM36 50L36 51L37 51L37 50ZM43 50L43 51L44 51L44 52L45 52L45 53L46 53L46 52L47 52L47 54L50 54L50 53L49 53L49 52L47 52L47 50ZM3 51L3 52L4 52L4 51ZM45 51L45 52L46 52L46 51ZM8 52L8 53L9 53L9 52ZM11 52L11 54L10 54L10 55L11 55L11 54L12 54L12 52ZM20 52L20 53L19 53L19 54L20 54L20 53L21 53L21 52ZM39 52L39 53L41 53L41 52ZM58 52L58 53L59 53L59 52ZM60 52L60 53L61 53L61 52ZM29 53L29 56L32 56L32 53ZM53 53L53 56L56 56L56 53ZM17 54L17 55L18 55L18 54ZM30 54L30 55L31 55L31 54ZM39 54L39 55L40 55L40 54ZM54 54L54 55L55 55L55 54ZM60 54L60 55L61 55L61 54ZM34 55L34 56L35 56L35 55ZM9 56L9 59L11 59L11 58L12 58L12 57L11 57L11 56ZM58 56L58 57L59 57L59 56ZM10 57L10 58L11 58L11 57ZM28 57L28 58L29 58L29 57ZM46 57L46 58L47 58L47 57ZM42 58L42 59L43 59L43 58ZM56 58L56 59L55 59L55 60L56 60L56 59L57 59L57 58ZM12 59L12 60L13 60L13 59ZM34 59L34 60L35 60L35 59ZM16 60L16 61L19 61L19 60ZM20 60L20 61L21 61L21 60ZM0 0L0 7L7 7L7 0ZM1 1L1 6L6 6L6 1ZM2 2L2 5L5 5L5 2ZM54 0L54 7L61 7L61 0ZM55 1L55 6L60 6L60 1ZM56 2L56 5L59 5L59 2ZM0 54L0 61L7 61L7 54ZM1 55L1 60L6 60L6 55ZM2 56L2 59L5 59L5 56Z" fill="#000000"/></g></g></svg>
