<?xml version="1.0" encoding="UTF-8"?>
<svg xmlns="http://www.w3.org/2000/svg" version="1.1" width="300" height="300" viewBox="0 0 300 300"><rect x="0" y="0" width="300" height="300" fill="#ffffff"/><g transform="scale(4.615)"><g transform="translate(0,0)"><path fill-rule="evenodd" d="M10 0L10 1L11 1L11 2L12 2L12 3L11 3L11 5L10 5L10 4L9 4L9 3L10 3L10 2L9 2L9 1L8 1L8 2L9 2L9 3L8 3L8 4L9 4L9 5L8 5L8 7L9 7L9 5L10 5L10 8L6 8L6 9L5 9L5 8L0 8L0 9L2 9L2 10L0 10L0 15L2 15L2 16L5 16L5 17L2 17L2 18L3 18L3 19L5 19L5 20L2 20L2 19L0 19L0 21L1 21L1 22L0 22L0 23L1 23L1 22L2 22L2 28L1 28L1 29L0 29L0 31L3 31L3 33L1 33L1 35L0 35L0 38L1 38L1 40L0 40L0 44L1 44L1 43L2 43L2 44L4 44L4 42L3 42L3 40L2 40L2 37L1 37L1 35L2 35L2 34L3 34L3 33L4 33L4 35L3 35L3 39L5 39L5 40L4 40L4 41L5 41L5 43L7 43L7 44L5 44L5 46L6 46L6 47L5 47L5 48L3 48L3 46L4 46L4 45L3 45L3 46L2 46L2 45L0 45L0 48L1 48L1 46L2 46L2 48L3 48L3 49L2 49L2 50L0 50L0 51L1 51L1 53L2 53L2 50L3 50L3 49L4 49L4 50L5 50L5 49L7 49L7 50L6 50L6 51L7 51L7 50L10 50L10 52L9 52L9 51L8 51L8 52L5 52L5 51L4 51L4 52L3 52L3 53L4 53L4 54L2 54L2 55L3 55L3 56L1 56L1 55L0 55L0 56L1 56L1 57L3 57L3 56L4 56L4 57L5 57L5 56L4 56L4 54L5 54L5 55L8 55L8 56L6 56L6 57L8 57L8 59L9 59L9 57L8 57L8 56L10 56L10 55L9 55L9 54L11 54L11 55L13 55L13 54L14 54L14 55L15 55L15 56L14 56L14 57L13 57L13 56L11 56L11 57L10 57L10 58L11 58L11 59L10 59L10 60L11 60L11 61L10 61L10 62L11 62L11 63L10 63L10 64L11 64L11 63L12 63L12 65L13 65L13 63L12 63L12 60L11 60L11 59L14 59L14 60L17 60L17 59L18 59L18 61L20 61L20 60L21 60L21 64L20 64L20 65L21 65L21 64L22 64L22 63L24 63L24 64L23 64L23 65L24 65L24 64L26 64L26 63L25 63L25 60L26 60L26 58L27 58L27 57L29 57L29 58L28 58L28 60L29 60L29 59L30 59L30 61L32 61L32 62L29 62L29 64L28 64L28 63L27 63L27 65L34 65L34 64L36 64L36 65L38 65L38 64L37 64L37 63L36 63L36 62L38 62L38 63L40 63L40 64L39 64L39 65L40 65L40 64L41 64L41 62L38 62L38 61L40 61L40 60L41 60L41 58L43 58L43 61L42 61L42 62L43 62L43 61L44 61L44 64L45 64L45 63L46 63L46 64L47 64L47 62L48 62L48 63L49 63L49 62L48 62L48 61L49 61L49 60L47 60L47 59L48 59L48 58L44 58L44 56L45 56L45 55L44 55L44 56L43 56L43 55L42 55L42 54L44 54L44 52L45 52L45 54L46 54L46 55L47 55L47 57L49 57L49 58L50 58L50 59L52 59L52 60L50 60L50 61L51 61L51 62L50 62L50 63L52 63L52 64L53 64L53 61L52 61L52 60L54 60L54 62L55 62L55 63L54 63L54 64L55 64L55 65L56 65L56 64L55 64L55 63L56 63L56 62L57 62L57 61L61 61L61 59L62 59L62 58L61 58L61 56L62 56L62 57L63 57L63 58L65 58L65 55L64 55L64 54L65 54L65 51L64 51L64 50L65 50L65 49L64 49L64 48L61 48L61 47L60 47L60 48L61 48L61 49L60 49L60 51L56 51L56 50L58 50L58 49L57 49L57 47L54 47L54 46L55 46L55 45L53 45L53 47L51 47L51 46L52 46L52 44L53 44L53 43L54 43L54 44L55 44L55 43L56 43L56 46L57 46L57 45L58 45L58 44L61 44L61 45L60 45L60 46L61 46L61 45L63 45L63 46L64 46L64 45L63 45L63 44L61 44L61 41L60 41L60 40L59 40L59 39L61 39L61 40L62 40L62 43L63 43L63 42L65 42L65 41L64 41L64 40L65 40L65 39L63 39L63 40L62 40L62 38L61 38L61 37L60 37L60 36L62 36L62 37L63 37L63 38L65 38L65 37L64 37L64 36L65 36L65 35L64 35L64 34L65 34L65 33L64 33L64 34L62 34L62 35L61 35L61 33L63 33L63 32L64 32L64 31L63 31L63 28L64 28L64 30L65 30L65 27L63 27L63 26L65 26L65 24L62 24L62 23L63 23L63 22L65 22L65 21L64 21L64 20L65 20L65 19L64 19L64 18L65 18L65 15L64 15L64 14L65 14L65 13L63 13L63 12L62 12L62 13L63 13L63 15L64 15L64 16L60 16L60 17L59 17L59 16L58 16L58 15L60 15L60 14L61 14L61 12L56 12L56 11L54 11L54 10L56 10L56 9L58 9L58 8L57 8L57 6L56 6L56 7L55 7L55 5L54 5L54 4L56 4L56 5L57 5L57 4L56 4L56 3L57 3L57 1L56 1L56 0L55 0L55 1L56 1L56 3L55 3L55 2L54 2L54 0L51 0L51 1L49 1L49 0L47 0L47 1L46 1L46 0L45 0L45 1L46 1L46 2L48 2L48 1L49 1L49 2L51 2L51 3L50 3L50 4L49 4L49 3L47 3L47 4L48 4L48 5L44 5L44 3L45 3L45 2L42 2L42 1L44 1L44 0L41 0L41 1L40 1L40 0L39 0L39 1L38 1L38 0L35 0L35 1L36 1L36 2L37 2L37 1L38 1L38 2L39 2L39 1L40 1L40 3L42 3L42 5L44 5L44 7L43 7L43 6L42 6L42 7L41 7L41 6L40 6L40 7L39 7L39 5L38 5L38 4L39 4L39 3L38 3L38 4L37 4L37 3L36 3L36 4L37 4L37 5L36 5L36 7L37 7L37 8L36 8L36 9L35 9L35 4L34 4L34 2L33 2L33 4L31 4L31 3L32 3L32 2L29 2L29 3L27 3L27 4L30 4L30 7L29 7L29 5L27 5L27 6L26 6L26 8L25 8L25 6L24 6L24 5L26 5L26 4L24 4L24 3L26 3L26 2L25 2L25 0L24 0L24 3L23 3L23 4L24 4L24 5L23 5L23 6L22 6L22 5L20 5L20 4L22 4L22 3L20 3L20 0L19 0L19 1L18 1L18 2L16 2L16 3L15 3L15 2L12 2L12 0ZM14 0L14 1L16 1L16 0ZM21 0L21 2L22 2L22 1L23 1L23 0ZM26 0L26 1L27 1L27 2L28 2L28 0ZM30 0L30 1L31 1L31 0ZM32 0L32 1L34 1L34 0ZM52 1L52 2L53 2L53 3L51 3L51 4L50 4L50 5L48 5L48 6L47 6L47 8L46 8L46 6L45 6L45 7L44 7L44 9L45 9L45 8L46 8L46 10L48 10L48 11L47 11L47 12L44 12L44 11L43 11L43 10L42 10L42 11L43 11L43 12L40 12L40 11L41 11L41 10L40 10L40 11L38 11L38 10L39 10L39 9L41 9L41 8L39 8L39 7L38 7L38 5L37 5L37 7L38 7L38 9L37 9L37 10L36 10L36 12L37 12L37 11L38 11L38 14L37 14L37 13L35 13L35 12L34 12L34 10L35 10L35 9L32 9L32 10L30 10L30 8L29 8L29 7L28 7L28 6L27 6L27 7L28 7L28 8L29 8L29 9L28 9L28 10L29 10L29 11L33 11L33 12L32 12L32 14L31 14L31 12L30 12L30 14L29 14L29 15L30 15L30 16L29 16L29 17L28 17L28 15L27 15L27 14L28 14L28 13L29 13L29 12L28 12L28 13L27 13L27 10L26 10L26 9L27 9L27 8L26 8L26 9L25 9L25 8L24 8L24 6L23 6L23 7L22 7L22 6L21 6L21 7L20 7L20 5L17 5L17 4L18 4L18 3L16 3L16 4L15 4L15 3L13 3L13 4L12 4L12 5L11 5L11 7L12 7L12 8L11 8L11 11L10 11L10 10L9 10L9 9L6 9L6 10L9 10L9 12L7 12L7 11L6 11L6 12L5 12L5 13L4 13L4 12L3 12L3 10L4 10L4 11L5 11L5 9L3 9L3 10L2 10L2 11L1 11L1 13L2 13L2 12L3 12L3 13L4 13L4 15L5 15L5 16L7 16L7 15L8 15L8 18L7 18L7 17L6 17L6 18L5 18L5 19L6 19L6 20L5 20L5 21L3 21L3 22L5 22L5 21L6 21L6 22L7 22L7 23L5 23L5 24L3 24L3 26L4 26L4 27L3 27L3 28L4 28L4 29L3 29L3 30L8 30L8 29L9 29L9 31L10 31L10 32L9 32L9 34L10 34L10 35L9 35L9 36L11 36L11 37L10 37L10 38L11 38L11 39L9 39L9 37L8 37L8 35L4 35L4 36L5 36L5 37L6 37L6 38L7 38L7 39L6 39L6 40L5 40L5 41L6 41L6 42L8 42L8 40L7 40L7 39L9 39L9 40L10 40L10 41L9 41L9 44L10 44L10 43L12 43L12 45L10 45L10 46L9 46L9 45L6 45L6 46L8 46L8 47L6 47L6 48L8 48L8 49L11 49L11 51L12 51L12 52L11 52L11 54L13 54L13 53L12 53L12 52L15 52L15 53L14 53L14 54L15 54L15 53L16 53L16 54L17 54L17 55L16 55L16 56L17 56L17 57L16 57L16 58L17 58L17 57L18 57L18 58L19 58L19 59L20 59L20 58L21 58L21 60L22 60L22 61L23 61L23 62L24 62L24 61L23 61L23 60L24 60L24 59L25 59L25 58L26 58L26 57L27 57L27 55L26 55L26 56L24 56L24 55L25 55L25 54L30 54L30 55L35 55L35 56L37 56L37 57L38 57L38 58L41 58L41 56L40 56L40 55L41 55L41 54L42 54L42 53L43 53L43 52L42 52L42 51L43 51L43 50L45 50L45 51L46 51L46 52L47 52L47 53L46 53L46 54L47 54L47 55L48 55L48 56L49 56L49 57L50 57L50 58L51 58L51 57L50 57L50 54L51 54L51 53L50 53L50 54L49 54L49 53L48 53L48 52L49 52L49 50L51 50L51 52L52 52L52 53L53 53L53 54L52 54L52 55L53 55L53 54L54 54L54 55L59 55L59 56L60 56L60 55L59 55L59 54L57 54L57 53L56 53L56 52L54 52L54 51L55 51L55 50L54 50L54 51L53 51L53 48L54 48L54 47L53 47L53 48L52 48L52 50L51 50L51 47L49 47L49 45L48 45L48 48L47 48L47 44L50 44L50 46L51 46L51 44L52 44L52 42L54 42L54 43L55 43L55 42L54 42L54 41L56 41L56 40L54 40L54 39L57 39L57 38L54 38L54 36L52 36L52 37L53 37L53 40L52 40L52 42L51 42L51 41L50 41L50 40L51 40L51 37L50 37L50 39L49 39L49 38L48 38L48 36L49 36L49 35L48 35L48 34L47 34L47 33L48 33L48 32L49 32L49 34L51 34L51 32L52 32L52 33L54 33L54 31L55 31L55 32L56 32L56 30L61 30L61 32L63 32L63 31L62 31L62 29L59 29L59 28L63 28L63 27L62 27L62 26L63 26L63 25L62 25L62 24L61 24L61 23L60 23L60 22L61 22L61 21L59 21L59 20L57 20L57 17L56 17L56 16L57 16L57 14L60 14L60 13L56 13L56 16L55 16L55 18L54 18L54 19L52 19L52 20L51 20L51 21L50 21L50 20L49 20L49 19L48 19L48 18L47 18L47 17L48 17L48 16L49 16L49 18L51 18L51 17L50 17L50 16L51 16L51 15L52 15L52 14L53 14L53 15L55 15L55 14L53 14L53 13L54 13L54 11L53 11L53 10L54 10L54 9L56 9L56 8L54 8L54 5L53 5L53 3L54 3L54 2L53 2L53 1ZM19 3L19 4L20 4L20 3ZM14 4L14 5L12 5L12 7L13 7L13 8L12 8L12 11L13 11L13 10L14 10L14 12L12 12L12 13L11 13L11 14L10 14L10 12L9 12L9 14L10 14L10 15L9 15L9 16L10 16L10 17L11 17L11 18L12 18L12 17L14 17L14 18L13 18L13 19L14 19L14 20L15 20L15 21L13 21L13 23L11 23L11 22L12 22L12 20L11 20L11 19L9 19L9 18L8 18L8 20L6 20L6 21L7 21L7 22L8 22L8 20L10 20L10 21L11 21L11 22L9 22L9 23L7 23L7 24L6 24L6 25L9 25L9 26L6 26L6 27L7 27L7 28L5 28L5 27L4 27L4 28L5 28L5 29L8 29L8 27L9 27L9 28L10 28L10 30L11 30L11 31L12 31L12 35L11 35L11 36L12 36L12 39L11 39L11 40L12 40L12 39L13 39L13 40L14 40L14 39L15 39L15 40L16 40L16 41L17 41L17 40L18 40L18 41L19 41L19 42L15 42L15 41L11 41L11 42L14 42L14 43L13 43L13 46L14 46L14 45L16 45L16 46L15 46L15 47L16 47L16 49L19 49L19 52L20 52L20 53L21 53L21 54L22 54L22 56L23 56L23 54L22 54L22 53L24 53L24 54L25 54L25 53L30 53L30 54L32 54L32 53L33 53L33 52L35 52L35 53L36 53L36 54L38 54L38 55L37 55L37 56L38 56L38 57L39 57L39 55L40 55L40 54L41 54L41 53L39 53L39 51L41 51L41 49L39 49L39 48L43 48L43 47L42 47L42 46L44 46L44 48L45 48L45 49L47 49L47 50L46 50L46 51L48 51L48 50L49 50L49 48L48 48L48 49L47 49L47 48L46 48L46 47L45 47L45 45L42 45L42 46L40 46L40 44L41 44L41 43L40 43L40 42L43 42L43 43L42 43L42 44L43 44L43 43L44 43L44 44L45 44L45 43L44 43L44 40L45 40L45 41L47 41L47 42L46 42L46 43L51 43L51 42L49 42L49 40L47 40L47 39L48 39L48 38L46 38L46 36L45 36L45 35L47 35L47 34L46 34L46 33L47 33L47 32L48 32L48 30L46 30L46 31L47 31L47 32L46 32L46 33L44 33L44 32L45 32L45 31L43 31L43 32L41 32L41 31L40 31L40 30L41 30L41 29L42 29L42 30L43 30L43 29L44 29L44 30L45 30L45 29L44 29L44 28L45 28L45 27L48 27L48 26L49 26L49 25L50 25L50 24L52 24L52 22L56 22L56 23L55 23L55 24L56 24L56 25L54 25L54 26L55 26L55 27L54 27L54 28L53 28L53 27L52 27L52 26L53 26L53 25L51 25L51 26L50 26L50 28L47 28L47 29L49 29L49 30L50 30L50 31L52 31L52 32L53 32L53 31L54 31L54 30L56 30L56 29L57 29L57 28L58 28L58 27L60 27L60 26L61 26L61 24L60 24L60 26L56 26L56 25L58 25L58 24L57 24L57 23L59 23L59 22L56 22L56 18L55 18L55 20L53 20L53 21L51 21L51 22L50 22L50 21L49 21L49 20L46 20L46 19L47 19L47 18L46 18L46 17L45 17L45 18L46 18L46 19L44 19L44 18L43 18L43 17L44 17L44 16L46 16L46 15L48 15L48 14L44 14L44 12L43 12L43 13L41 13L41 14L44 14L44 16L43 16L43 15L42 15L42 16L43 16L43 17L41 17L41 18L43 18L43 19L42 19L42 20L43 20L43 21L42 21L42 22L38 22L38 19L39 19L39 20L41 20L41 19L39 19L39 18L38 18L38 17L37 17L37 20L36 20L36 21L37 21L37 22L36 22L36 23L35 23L35 24L34 24L34 22L35 22L35 19L36 19L36 18L34 18L34 16L35 16L35 17L36 17L36 16L41 16L41 15L40 15L40 13L39 13L39 14L38 14L38 15L37 15L37 14L36 14L36 16L35 16L35 14L34 14L34 12L33 12L33 15L32 15L32 16L30 16L30 17L29 17L29 18L27 18L27 17L24 17L24 15L22 15L22 13L19 13L19 12L22 12L22 11L19 11L19 10L20 10L20 9L21 9L21 8L20 8L20 9L19 9L19 6L18 6L18 7L17 7L17 6L16 6L16 5L15 5L15 4ZM40 4L40 5L41 5L41 4ZM51 4L51 5L50 5L50 7L49 7L49 6L48 6L48 7L49 7L49 8L48 8L48 10L50 10L50 9L51 9L51 8L52 8L52 7L53 7L53 6L52 6L52 7L51 7L51 5L52 5L52 4ZM14 5L14 6L13 6L13 7L14 7L14 6L15 6L15 8L14 8L14 9L15 9L15 11L16 11L16 6L15 6L15 5ZM31 5L31 8L34 8L34 5ZM32 6L32 7L33 7L33 6ZM42 7L42 9L43 9L43 7ZM49 8L49 9L50 9L50 8ZM59 8L59 9L60 9L60 8ZM61 8L61 10L60 10L60 11L61 11L61 10L62 10L62 8ZM63 8L63 10L65 10L65 9L64 9L64 8ZM18 9L18 10L17 10L17 11L18 11L18 10L19 10L19 9ZM22 9L22 10L25 10L25 12L24 12L24 11L23 11L23 12L24 12L24 13L23 13L23 14L24 14L24 13L26 13L26 14L27 14L27 13L26 13L26 10L25 10L25 9ZM52 9L52 10L51 10L51 14L50 14L50 12L47 12L47 13L49 13L49 14L50 14L50 15L51 15L51 14L52 14L52 12L53 12L53 11L52 11L52 10L53 10L53 9ZM57 10L57 11L59 11L59 10ZM6 12L6 13L7 13L7 14L5 14L5 15L7 15L7 14L8 14L8 13L7 13L7 12ZM14 12L14 13L13 13L13 14L11 14L11 15L14 15L14 16L15 16L15 17L16 17L16 16L18 16L18 15L16 15L16 16L15 16L15 15L14 15L14 14L15 14L15 13L16 13L16 14L19 14L19 15L20 15L20 14L19 14L19 13L16 13L16 12ZM2 14L2 15L3 15L3 14ZM26 15L26 16L27 16L27 15ZM33 15L33 16L32 16L32 17L33 17L33 16L34 16L34 15ZM19 16L19 17L17 17L17 18L18 18L18 19L17 19L17 20L16 20L16 21L15 21L15 22L14 22L14 23L13 23L13 24L15 24L15 25L16 25L16 26L17 26L17 27L16 27L16 28L15 28L15 27L13 27L13 26L12 26L12 28L11 28L11 30L12 30L12 31L13 31L13 33L14 33L14 34L15 34L15 33L14 33L14 32L15 32L15 31L16 31L16 32L17 32L17 30L20 30L20 31L19 31L19 32L21 32L21 31L22 31L22 33L23 33L23 34L22 34L22 35L21 35L21 33L20 33L20 36L22 36L22 37L20 37L20 38L19 38L19 41L20 41L20 42L19 42L19 43L20 43L20 42L21 42L21 41L23 41L23 42L22 42L22 43L24 43L24 44L19 44L19 45L18 45L18 46L17 46L17 48L18 48L18 46L19 46L19 47L20 47L20 46L19 46L19 45L21 45L21 46L22 46L22 47L24 47L24 49L23 49L23 48L21 48L21 49L20 49L20 52L21 52L21 53L22 53L22 52L21 52L21 51L22 51L22 50L21 50L21 49L23 49L23 52L24 52L24 53L25 53L25 52L26 52L26 51L25 51L25 50L24 50L24 49L27 49L27 52L28 52L28 51L31 51L31 50L29 50L29 49L27 49L27 48L28 48L28 47L27 47L27 46L28 46L28 45L29 45L29 46L30 46L30 47L31 47L31 48L30 48L30 49L32 49L32 51L35 51L35 52L37 52L37 51L39 51L39 50L37 50L37 49L38 49L38 48L36 48L36 46L37 46L37 47L38 47L38 46L39 46L39 47L40 47L40 46L39 46L39 45L38 45L38 44L37 44L37 43L38 43L38 42L40 42L40 41L41 41L41 40L40 40L40 39L39 39L39 41L38 41L38 38L39 38L39 37L41 37L41 38L42 38L42 39L45 39L45 40L46 40L46 39L45 39L45 38L44 38L44 37L45 37L45 36L44 36L44 37L43 37L43 35L45 35L45 34L44 34L44 33L43 33L43 34L41 34L41 36L39 36L39 37L38 37L38 36L37 36L37 35L40 35L40 34L39 34L39 33L41 33L41 32L40 32L40 31L39 31L39 32L38 32L38 33L37 33L37 35L36 35L36 34L35 34L35 35L36 35L36 36L37 36L37 37L36 37L36 39L35 39L35 38L33 38L33 37L32 37L32 36L34 36L34 37L35 37L35 36L34 36L34 35L30 35L30 32L29 32L29 31L30 31L30 29L31 29L31 30L32 30L32 29L33 29L33 30L35 30L35 31L38 31L38 30L39 30L39 29L41 29L41 28L40 28L40 27L43 27L43 28L44 28L44 27L45 27L45 26L48 26L48 25L45 25L45 24L44 24L44 23L46 23L46 24L50 24L50 22L49 22L49 21L46 21L46 20L44 20L44 19L43 19L43 20L44 20L44 21L43 21L43 22L42 22L42 23L41 23L41 24L40 24L40 23L38 23L38 22L37 22L37 23L36 23L36 24L37 24L37 26L36 26L36 25L33 25L33 26L36 26L36 27L34 27L34 28L35 28L35 29L33 29L33 28L32 28L32 27L31 27L31 28L30 28L30 29L29 29L29 27L28 27L28 28L27 28L27 27L25 27L25 26L26 26L26 25L28 25L28 26L30 26L30 25L31 25L31 26L32 26L32 25L31 25L31 24L33 24L33 23L31 23L31 22L30 22L30 21L32 21L32 22L34 22L34 21L33 21L33 20L34 20L34 19L33 19L33 18L31 18L31 17L30 17L30 18L29 18L29 21L25 21L25 20L26 20L26 19L25 19L25 20L24 20L24 17L23 17L23 16L22 16L22 17L23 17L23 21L22 21L22 20L21 20L21 19L22 19L22 18L21 18L21 17L20 17L20 16ZM52 16L52 17L53 17L53 16ZM0 17L0 18L1 18L1 17ZM19 17L19 18L20 18L20 19L21 19L21 18L20 18L20 17ZM58 17L58 18L59 18L59 19L60 19L60 20L61 20L61 19L62 19L62 20L63 20L63 19L62 19L62 18L64 18L64 17L60 17L60 18L59 18L59 17ZM6 18L6 19L7 19L7 18ZM15 18L15 19L16 19L16 18ZM30 18L30 20L31 20L31 18ZM60 18L60 19L61 19L61 18ZM27 19L27 20L28 20L28 19ZM32 19L32 20L33 20L33 19ZM17 20L17 21L16 21L16 22L15 22L15 23L16 23L16 25L19 25L19 27L20 27L20 25L21 25L21 27L22 27L22 28L21 28L21 30L22 30L22 31L24 31L24 32L23 32L23 33L24 33L24 34L25 34L25 33L24 33L24 32L25 32L25 29L26 29L26 32L27 32L27 33L26 33L26 34L27 34L27 33L29 33L29 32L28 32L28 31L27 31L27 30L28 30L28 29L26 29L26 28L25 28L25 27L24 27L24 28L23 28L23 27L22 27L22 26L25 26L25 25L26 25L26 24L28 24L28 25L30 25L30 24L31 24L31 23L30 23L30 24L29 24L29 23L27 23L27 22L25 22L25 21L23 21L23 22L25 22L25 23L24 23L24 24L25 24L25 25L21 25L21 24L22 24L22 23L21 23L21 24L20 24L20 23L19 23L19 22L20 22L20 21L21 21L21 22L22 22L22 21L21 21L21 20L19 20L19 21L18 21L18 20ZM17 21L17 22L18 22L18 21ZM44 21L44 22L45 22L45 21ZM62 21L62 22L63 22L63 21ZM46 22L46 23L47 23L47 22ZM48 22L48 23L49 23L49 22ZM17 23L17 24L18 24L18 23ZM25 23L25 24L26 24L26 23ZM42 23L42 24L43 24L43 25L41 25L41 26L43 26L43 25L44 25L44 26L45 26L45 25L44 25L44 24L43 24L43 23ZM0 24L0 25L1 25L1 24ZM9 24L9 25L10 25L10 27L11 27L11 25L12 25L12 24L11 24L11 25L10 25L10 24ZM19 24L19 25L20 25L20 24ZM38 24L38 25L39 25L39 26L37 26L37 27L38 27L38 28L36 28L36 29L37 29L37 30L38 30L38 28L39 28L39 26L40 26L40 25L39 25L39 24ZM4 25L4 26L5 26L5 25ZM12 28L12 29L13 29L13 28ZM14 28L14 29L15 29L15 30L16 30L16 29L15 29L15 28ZM17 28L17 29L20 29L20 28ZM22 28L22 29L23 29L23 30L24 30L24 29L23 29L23 28ZM31 28L31 29L32 29L32 28ZM52 28L52 31L53 31L53 28ZM55 28L55 29L56 29L56 28ZM50 29L50 30L51 30L51 29ZM5 31L5 34L8 34L8 31ZM31 31L31 34L34 34L34 31ZM57 31L57 34L60 34L60 31ZM6 32L6 33L7 33L7 32ZM10 32L10 34L11 34L11 32ZM32 32L32 33L33 33L33 32ZM35 32L35 33L36 33L36 32ZM58 32L58 33L59 33L59 32ZM16 33L16 35L14 35L14 36L13 36L13 35L12 35L12 36L13 36L13 39L14 39L14 36L15 36L15 38L17 38L17 37L18 37L18 36L17 36L17 35L18 35L18 34L19 34L19 33L18 33L18 34L17 34L17 33ZM55 33L55 34L52 34L52 35L56 35L56 33ZM25 35L25 36L26 36L26 35ZM57 35L57 37L58 37L58 39L59 39L59 37L58 37L58 35ZM59 35L59 36L60 36L60 35ZM62 35L62 36L63 36L63 35ZM6 36L6 37L7 37L7 36ZM16 36L16 37L17 37L17 36ZM27 36L27 37L30 37L30 38L29 38L29 39L28 39L28 38L26 38L26 37L24 37L24 38L25 38L25 41L24 41L24 43L27 43L27 42L28 42L28 41L30 41L30 42L29 42L29 43L28 43L28 44L27 44L27 45L26 45L26 44L24 44L24 45L22 45L22 46L24 46L24 45L26 45L26 46L27 46L27 45L28 45L28 44L29 44L29 43L30 43L30 42L31 42L31 45L32 45L32 44L33 44L33 43L34 43L34 42L32 42L32 41L34 41L34 40L35 40L35 41L36 41L36 42L35 42L35 44L36 44L36 45L37 45L37 46L38 46L38 45L37 45L37 44L36 44L36 42L38 42L38 41L37 41L37 40L35 40L35 39L33 39L33 40L32 40L32 41L31 41L31 39L32 39L32 37L31 37L31 36ZM55 36L55 37L56 37L56 36ZM37 37L37 38L38 38L38 37ZM42 37L42 38L43 38L43 37ZM20 38L20 39L23 39L23 38ZM30 38L30 39L31 39L31 38ZM27 39L27 40L26 40L26 41L25 41L25 42L26 42L26 41L27 41L27 40L28 40L28 39ZM6 40L6 41L7 41L7 40ZM20 40L20 41L21 41L21 40ZM57 40L57 44L58 44L58 43L59 43L59 40ZM1 41L1 42L2 42L2 43L3 43L3 42L2 42L2 41ZM16 43L16 45L17 45L17 43ZM11 46L11 47L10 47L10 48L11 48L11 47L12 47L12 49L13 49L13 50L12 50L12 51L14 51L14 50L15 50L15 52L16 52L16 53L18 53L18 55L19 55L19 56L18 56L18 57L19 57L19 58L20 58L20 57L21 57L21 58L22 58L22 59L23 59L23 57L21 57L21 55L19 55L19 53L18 53L18 52L16 52L16 51L18 51L18 50L15 50L15 48L13 48L13 47L12 47L12 46ZM31 46L31 47L32 47L32 46ZM8 47L8 48L9 48L9 47ZM26 47L26 48L27 48L27 47ZM33 47L33 48L32 48L32 49L33 49L33 50L34 50L34 48L35 48L35 49L36 49L36 48L35 48L35 47ZM58 47L58 48L59 48L59 47ZM55 48L55 49L56 49L56 48ZM42 49L42 50L43 50L43 49ZM62 49L62 52L63 52L63 49ZM35 50L35 51L36 51L36 50ZM24 51L24 52L25 52L25 51ZM52 51L52 52L53 52L53 51ZM60 51L60 52L58 52L58 53L61 53L61 51ZM30 52L30 53L32 53L32 52ZM6 53L6 54L7 54L7 53ZM38 53L38 54L39 54L39 53ZM54 53L54 54L55 54L55 53ZM48 54L48 55L49 55L49 54ZM61 54L61 55L62 55L62 56L64 56L64 55L63 55L63 54ZM28 55L28 56L29 56L29 57L30 57L30 56L29 56L29 55ZM19 56L19 57L20 57L20 56ZM42 56L42 57L43 57L43 56ZM52 56L52 57L53 57L53 58L52 58L52 59L55 59L55 60L56 60L56 58L54 58L54 57L53 57L53 56ZM55 56L55 57L56 57L56 56ZM14 57L14 59L15 59L15 57ZM24 57L24 58L25 58L25 57ZM31 57L31 60L34 60L34 57ZM57 57L57 60L60 60L60 57ZM32 58L32 59L33 59L33 58ZM58 58L58 59L59 59L59 58ZM35 59L35 61L36 61L36 60L39 60L39 59ZM45 59L45 60L44 60L44 61L45 61L45 62L47 62L47 61L46 61L46 59ZM64 59L64 60L62 60L62 61L63 61L63 64L62 64L62 65L63 65L63 64L64 64L64 60L65 60L65 59ZM8 60L8 65L9 65L9 60ZM13 61L13 62L16 62L16 61ZM26 61L26 62L28 62L28 61ZM33 61L33 62L32 62L32 63L31 63L31 64L32 64L32 63L33 63L33 64L34 64L34 63L33 63L33 62L34 62L34 61ZM55 61L55 62L56 62L56 61ZM18 62L18 63L17 63L17 64L16 64L16 63L15 63L15 64L16 64L16 65L19 65L19 63L20 63L20 62ZM59 62L59 64L60 64L60 65L61 65L61 64L60 64L60 63L61 63L61 62ZM42 63L42 64L43 64L43 63ZM48 64L48 65L49 65L49 64ZM50 64L50 65L51 65L51 64ZM0 0L0 7L7 7L7 0ZM1 1L1 6L6 6L6 1ZM2 2L2 5L5 5L5 2ZM58 0L58 7L65 7L65 0ZM59 1L59 6L64 6L64 1ZM60 2L60 5L63 5L63 2ZM0 58L0 65L7 65L7 58ZM1 59L1 64L6 64L6 59ZM2 60L2 63L5 63L5 60Z" fill="#000000"/></g></g></svg>
