<?xml version="1.0" encoding="UTF-8"?>
<svg xmlns="http://www.w3.org/2000/svg" version="1.1" width="300" height="300" viewBox="0 0 300 300"><rect x="0" y="0" width="300" height="300" fill="#ffffff"/><g transform="scale(4.918)"><g transform="translate(0,0)"><path fill-rule="evenodd" d="M9 0L9 1L8 1L8 2L9 2L9 1L10 1L10 2L11 2L11 3L8 3L8 4L11 4L11 5L10 5L10 8L12 8L12 9L9 9L9 8L6 8L6 9L9 9L9 10L6 10L6 11L7 11L7 12L5 12L5 13L4 13L4 11L3 11L3 12L2 12L2 10L0 10L0 13L1 13L1 12L2 12L2 13L3 13L3 14L2 14L2 15L1 15L1 16L2 16L2 18L1 18L1 19L0 19L0 25L1 25L1 26L0 26L0 28L1 28L1 31L0 31L0 34L3 34L3 35L4 35L4 36L3 36L3 37L2 37L2 35L1 35L1 37L2 37L2 38L1 38L1 39L0 39L0 40L1 40L1 41L4 41L4 42L1 42L1 43L3 43L3 44L4 44L4 45L7 45L7 46L6 46L6 47L5 47L5 46L4 46L4 47L5 47L5 48L4 48L4 49L2 49L2 48L0 48L0 50L2 50L2 51L0 51L0 53L4 53L4 52L5 52L5 51L7 51L7 52L6 52L6 53L7 53L7 52L8 52L8 55L9 55L9 56L8 56L8 61L9 61L9 60L10 60L10 59L11 59L11 61L12 61L12 60L13 60L13 61L14 61L14 60L15 60L15 61L21 61L21 59L23 59L23 60L25 60L25 57L22 57L22 56L23 56L23 55L25 55L25 56L27 56L27 57L26 57L26 60L27 60L27 61L28 61L28 60L29 60L29 59L27 59L27 58L28 58L28 57L29 57L29 58L31 58L31 59L30 59L30 60L31 60L31 59L32 59L32 60L34 60L34 61L40 61L40 60L41 60L41 58L43 58L43 59L42 59L42 61L43 61L43 60L45 60L45 61L46 61L46 59L48 59L48 60L47 60L47 61L51 61L51 60L55 60L55 58L57 58L57 53L59 53L59 52L58 52L58 50L60 50L60 51L61 51L61 50L60 50L60 49L59 49L59 48L58 48L58 46L56 46L56 45L59 45L59 44L60 44L60 45L61 45L61 42L60 42L60 41L61 41L61 38L60 38L60 39L59 39L59 38L58 38L58 37L59 37L59 36L58 36L58 35L57 35L57 36L56 36L56 35L55 35L55 34L56 34L56 33L58 33L58 34L59 34L59 35L61 35L61 34L60 34L60 31L61 31L61 30L60 30L60 29L61 29L61 26L60 26L60 25L61 25L61 24L60 24L60 25L59 25L59 24L58 24L58 25L57 25L57 27L56 27L56 24L57 24L57 23L59 23L59 22L60 22L60 23L61 23L61 22L60 22L60 21L59 21L59 20L60 20L60 19L61 19L61 18L60 18L60 19L59 19L59 18L58 18L58 17L59 17L59 16L57 16L57 15L59 15L59 14L58 14L58 13L59 13L59 12L60 12L60 11L61 11L61 10L60 10L60 11L59 11L59 9L60 9L60 8L59 8L59 9L58 9L58 8L57 8L57 9L56 9L56 8L55 8L55 9L54 9L54 8L53 8L53 6L52 6L52 7L51 7L51 5L52 5L52 4L53 4L53 0L51 0L51 2L50 2L50 0L48 0L48 2L47 2L47 1L46 1L46 0L45 0L45 1L44 1L44 0L39 0L39 1L37 1L37 0L35 0L35 1L34 1L34 3L33 3L33 2L32 2L32 1L31 1L31 0L29 0L29 1L27 1L27 0L26 0L26 1L27 1L27 2L26 2L26 3L27 3L27 4L26 4L26 5L25 5L25 4L22 4L22 5L21 5L21 6L20 6L20 4L21 4L21 2L22 2L22 3L24 3L24 2L22 2L22 0L21 0L21 2L20 2L20 1L19 1L19 3L18 3L18 4L19 4L19 6L18 6L18 5L15 5L15 4L17 4L17 3L16 3L16 2L15 2L15 1L16 1L16 0L15 0L15 1L14 1L14 0ZM23 0L23 1L24 1L24 0ZM13 1L13 2L12 2L12 3L13 3L13 2L14 2L14 4L15 4L15 2L14 2L14 1ZM29 1L29 2L28 2L28 3L29 3L29 4L31 4L31 3L32 3L32 2L31 2L31 3L30 3L30 1ZM41 1L41 2L44 2L44 1ZM45 1L45 2L46 2L46 1ZM35 2L35 3L34 3L34 4L33 4L33 5L35 5L35 8L37 8L37 9L38 9L38 10L37 10L37 11L33 11L33 10L35 10L35 9L33 9L33 10L32 10L32 11L31 11L31 10L30 10L30 9L29 9L29 11L27 11L27 12L26 12L26 13L25 13L25 12L24 12L24 13L25 13L25 14L26 14L26 13L28 13L28 14L30 14L30 15L31 15L31 16L29 16L29 15L28 15L28 16L29 16L29 17L28 17L28 18L29 18L29 17L30 17L30 18L32 18L32 20L31 20L31 22L30 22L30 20L29 20L29 19L28 19L28 21L27 21L27 19L24 19L24 20L25 20L25 23L26 23L26 25L25 25L25 24L22 24L22 25L25 25L25 26L26 26L26 25L27 25L27 24L30 24L30 25L31 25L31 28L32 28L32 27L33 27L33 26L35 26L35 27L34 27L34 28L37 28L37 29L34 29L34 30L33 30L33 31L34 31L34 32L33 32L33 35L31 35L31 37L29 37L29 35L28 35L28 37L27 37L27 36L26 36L26 35L27 35L27 34L28 34L28 32L27 32L27 31L28 31L28 28L29 28L29 27L30 27L30 26L29 26L29 25L28 25L28 26L29 26L29 27L26 27L26 28L25 28L25 27L24 27L24 26L22 26L22 27L24 27L24 28L21 28L21 29L20 29L20 28L19 28L19 29L14 29L14 28L13 28L13 27L15 27L15 26L17 26L17 27L20 27L20 26L17 26L17 25L18 25L18 24L17 24L17 25L15 25L15 24L14 24L14 25L15 25L15 26L12 26L12 27L11 27L11 28L9 28L9 27L8 27L8 28L9 28L9 31L10 31L10 32L9 32L9 33L10 33L10 34L11 34L11 32L12 32L12 33L14 33L14 32L15 32L15 33L16 33L16 34L15 34L15 35L16 35L16 36L19 36L19 37L15 37L15 38L14 38L14 41L15 41L15 42L14 42L14 44L12 44L12 42L13 42L13 41L12 41L12 40L13 40L13 39L12 39L12 38L13 38L13 36L14 36L14 35L13 35L13 36L12 36L12 37L9 37L9 38L8 38L8 37L6 37L6 36L10 36L10 35L9 35L9 34L7 34L7 33L4 33L4 35L5 35L5 36L4 36L4 37L3 37L3 38L2 38L2 39L1 39L1 40L4 40L4 41L5 41L5 42L7 42L7 43L5 43L5 44L10 44L10 43L9 43L9 42L7 42L7 41L8 41L8 40L11 40L11 41L10 41L10 42L11 42L11 44L12 44L12 46L13 46L13 47L12 47L12 49L11 49L11 48L9 48L9 45L8 45L8 46L7 46L7 47L6 47L6 48L8 48L8 49L6 49L6 50L8 50L8 51L9 51L9 50L8 50L8 49L11 49L11 50L12 50L12 51L11 51L11 52L12 52L12 51L13 51L13 53L14 53L14 51L15 51L15 55L14 55L14 56L13 56L13 60L14 60L14 59L15 59L15 58L17 58L17 57L18 57L18 56L17 56L17 55L18 55L18 54L19 54L19 55L23 55L23 54L21 54L21 53L20 53L20 52L21 52L21 50L22 50L22 51L23 51L23 52L22 52L22 53L25 53L25 55L28 55L28 52L33 52L33 53L34 53L34 54L35 54L35 55L34 55L34 56L35 56L35 55L36 55L36 56L37 56L37 55L36 55L36 53L35 53L35 52L37 52L37 53L38 53L38 54L39 54L39 53L38 53L38 52L39 52L39 51L38 51L38 50L41 50L41 52L40 52L40 53L41 53L41 54L40 54L40 55L38 55L38 58L39 58L39 60L40 60L40 57L43 57L43 56L42 56L42 55L46 55L46 54L47 54L47 56L49 56L49 60L51 60L51 59L50 59L50 58L51 58L51 56L52 56L52 55L50 55L50 56L49 56L49 55L48 55L48 54L49 54L49 53L46 53L46 54L42 54L42 53L41 53L41 52L42 52L42 51L44 51L44 50L45 50L45 51L46 51L46 52L50 52L50 54L51 54L51 52L52 52L52 51L53 51L53 52L57 52L57 51L56 51L56 50L58 50L58 49L56 49L56 50L55 50L55 51L53 51L53 50L54 50L54 49L55 49L55 48L57 48L57 47L54 47L54 49L52 49L52 51L48 51L48 50L49 50L49 49L48 49L48 48L50 48L50 50L51 50L51 48L52 48L52 47L53 47L53 46L52 46L52 47L51 47L51 45L50 45L50 44L52 44L52 43L50 43L50 42L53 42L53 41L56 41L56 42L55 42L55 43L53 43L53 45L54 45L54 44L55 44L55 45L56 45L56 44L55 44L55 43L56 43L56 42L57 42L57 44L59 44L59 43L60 43L60 42L59 42L59 41L58 41L58 42L57 42L57 41L56 41L56 38L57 38L57 37L54 37L54 36L55 36L55 35L53 35L53 33L52 33L52 32L51 32L51 33L50 33L50 32L49 32L49 31L50 31L50 30L51 30L51 31L52 31L52 28L54 28L54 27L55 27L55 28L56 28L56 27L55 27L55 26L53 26L53 25L55 25L55 24L53 24L53 25L52 25L52 24L51 24L51 25L50 25L50 26L49 26L49 25L48 25L48 27L46 27L46 28L47 28L47 29L46 29L46 30L45 30L45 28L44 28L44 27L45 27L45 24L44 24L44 27L43 27L43 26L42 26L42 27L41 27L41 26L40 26L40 27L38 27L38 26L39 26L39 24L37 24L37 23L38 23L38 22L39 22L39 21L41 21L41 20L42 20L42 21L44 21L44 23L46 23L46 22L49 22L49 21L50 21L50 22L53 22L53 23L55 23L55 22L53 22L53 21L55 21L55 20L56 20L56 23L57 23L57 21L58 21L58 22L59 22L59 21L58 21L58 20L59 20L59 19L57 19L57 18L56 18L56 17L57 17L57 16L56 16L56 15L57 15L57 12L56 12L56 14L53 14L53 13L52 13L52 14L51 14L51 13L50 13L50 12L53 12L53 9L50 9L50 8L49 8L49 7L50 7L50 5L49 5L49 4L50 4L50 2L48 2L48 3L47 3L47 4L46 4L46 5L47 5L47 7L46 7L46 6L45 6L45 5L44 5L44 4L45 4L45 3L39 3L39 2ZM35 3L35 5L36 5L36 7L37 7L37 6L38 6L38 7L39 7L39 8L38 8L38 9L39 9L39 10L38 10L38 11L39 11L39 14L38 14L38 12L35 12L35 14L34 14L34 13L32 13L32 14L33 14L33 15L32 15L32 18L33 18L33 20L32 20L32 21L33 21L33 20L35 20L35 22L34 22L34 25L37 25L37 26L36 26L36 27L37 27L37 28L38 28L38 27L37 27L37 26L38 26L38 25L37 25L37 24L35 24L35 22L36 22L36 23L37 23L37 21L38 21L38 20L41 20L41 19L40 19L40 18L43 18L43 19L42 19L42 20L45 20L45 22L46 22L46 21L47 21L47 20L46 20L46 19L47 19L47 18L48 18L48 19L49 19L49 18L50 18L50 19L51 19L51 18L50 18L50 16L51 16L51 17L53 17L53 16L54 16L54 18L55 18L55 16L54 16L54 15L53 15L53 14L52 14L52 15L51 15L51 14L50 14L50 16L48 16L48 15L49 15L49 14L48 14L48 15L47 15L47 14L46 14L46 13L47 13L47 12L48 12L48 13L49 13L49 12L48 12L48 10L46 10L46 9L47 9L47 8L46 8L46 7L45 7L45 6L44 6L44 5L43 5L43 4L39 4L39 3L38 3L38 4L37 4L37 3ZM48 3L48 4L49 4L49 3ZM51 3L51 4L52 4L52 3ZM12 4L12 5L13 5L13 4ZM27 4L27 5L28 5L28 4ZM36 4L36 5L37 5L37 4ZM38 4L38 5L39 5L39 7L40 7L40 5L39 5L39 4ZM8 5L8 7L9 7L9 5ZM14 5L14 6L13 6L13 7L12 7L12 6L11 6L11 7L12 7L12 8L13 8L13 9L12 9L12 10L10 10L10 11L12 11L12 13L11 13L11 12L10 12L10 13L8 13L8 15L9 15L9 17L10 17L10 18L9 18L9 19L6 19L6 20L7 20L7 21L5 21L5 20L3 20L3 21L2 21L2 19L3 19L3 18L2 18L2 19L1 19L1 23L3 23L3 25L2 25L2 24L1 24L1 25L2 25L2 26L4 26L4 27L5 27L5 28L7 28L7 27L6 27L6 26L8 26L8 25L5 25L5 24L7 24L7 23L6 23L6 22L8 22L8 23L9 23L9 24L10 24L10 23L11 23L11 21L12 21L12 20L14 20L14 21L13 21L13 23L18 23L18 22L17 22L17 21L15 21L15 20L16 20L16 19L15 19L15 18L16 18L16 17L17 17L17 20L19 20L19 21L20 21L20 22L19 22L19 23L20 23L20 22L21 22L21 21L23 21L23 20L22 20L22 19L23 19L23 18L24 18L24 16L26 16L26 17L25 17L25 18L26 18L26 17L27 17L27 15L23 15L23 14L22 14L22 13L23 13L23 10L24 10L24 9L25 9L25 10L26 10L26 9L27 9L27 10L28 10L28 8L27 8L27 7L28 7L28 6L27 6L27 7L26 7L26 6L25 6L25 5L24 5L24 6L23 6L23 5L22 5L22 6L21 6L21 7L20 7L20 6L19 6L19 7L18 7L18 6L17 6L17 8L18 8L18 9L16 9L16 6L15 6L15 5ZM29 5L29 8L32 8L32 5ZM41 5L41 8L40 8L40 10L39 10L39 11L40 11L40 10L42 10L42 11L43 11L43 12L42 12L42 13L41 13L41 12L40 12L40 13L41 13L41 14L39 14L39 15L36 15L36 14L35 14L35 15L34 15L34 17L33 17L33 18L36 18L36 17L35 17L35 16L38 16L38 17L37 17L37 18L39 18L39 16L40 16L40 17L43 17L43 16L44 16L44 19L45 19L45 17L46 17L46 18L47 18L47 17L48 17L48 16L47 16L47 15L45 15L45 11L46 11L46 10L44 10L44 9L45 9L45 8L44 8L44 6L43 6L43 8L42 8L42 5ZM48 5L48 7L49 7L49 5ZM14 6L14 7L15 7L15 6ZM22 6L22 7L21 7L21 9L22 9L22 10L21 10L21 11L22 11L22 10L23 10L23 9L22 9L22 8L24 8L24 7L25 7L25 6L24 6L24 7L23 7L23 6ZM30 6L30 7L31 7L31 6ZM33 6L33 8L34 8L34 6ZM0 8L0 9L4 9L4 10L5 10L5 8ZM19 8L19 9L18 9L18 10L17 10L17 11L18 11L18 12L15 12L15 11L13 11L13 13L12 13L12 17L11 17L11 15L10 15L10 14L11 14L11 13L10 13L10 14L9 14L9 15L10 15L10 17L11 17L11 18L12 18L12 19L9 19L9 20L8 20L8 22L10 22L10 21L11 21L11 20L12 20L12 19L14 19L14 18L13 18L13 17L16 17L16 16L17 16L17 15L18 15L18 17L19 17L19 18L18 18L18 19L19 19L19 18L20 18L20 19L22 19L22 18L20 18L20 17L22 17L22 16L19 16L19 15L18 15L18 14L17 14L17 15L16 15L16 14L15 14L15 13L21 13L21 12L19 12L19 11L20 11L20 10L19 10L19 9L20 9L20 8ZM25 8L25 9L26 9L26 8ZM48 8L48 9L49 9L49 11L50 11L50 9L49 9L49 8ZM14 9L14 10L15 10L15 9ZM42 9L42 10L43 10L43 9ZM55 9L55 10L54 10L54 11L57 11L57 10L56 10L56 9ZM51 10L51 11L52 11L52 10ZM29 11L29 12L30 12L30 14L31 14L31 11ZM32 11L32 12L33 12L33 11ZM58 11L58 12L59 12L59 11ZM14 12L14 13L13 13L13 14L14 14L14 13L15 13L15 12ZM43 12L43 13L42 13L42 14L41 14L41 15L40 15L40 16L42 16L42 14L43 14L43 13L44 13L44 12ZM54 12L54 13L55 13L55 12ZM5 13L5 14L4 14L4 16L5 16L5 17L4 17L4 18L5 18L5 17L6 17L6 18L8 18L8 17L6 17L6 16L7 16L7 15L6 15L6 16L5 16L5 14L7 14L7 13ZM20 14L20 15L22 15L22 14ZM60 14L60 15L61 15L61 14ZM2 15L2 16L3 16L3 15ZM13 15L13 16L14 16L14 15ZM15 15L15 16L16 16L16 15ZM44 15L44 16L45 16L45 15ZM52 15L52 16L53 16L53 15ZM46 16L46 17L47 17L47 16ZM60 16L60 17L61 17L61 16ZM52 18L52 21L53 21L53 18ZM35 19L35 20L37 20L37 19ZM54 19L54 20L55 20L55 19ZM56 19L56 20L57 20L57 19ZM9 20L9 21L10 21L10 20ZM20 20L20 21L21 21L21 20ZM48 20L48 21L49 21L49 20ZM50 20L50 21L51 21L51 20ZM3 21L3 22L4 22L4 21ZM14 21L14 22L15 22L15 21ZM26 21L26 22L27 22L27 23L29 23L29 21L28 21L28 22L27 22L27 21ZM31 22L31 23L30 23L30 24L31 24L31 23L32 23L32 24L33 24L33 23L32 23L32 22ZM40 22L40 23L41 23L41 24L40 24L40 25L43 25L43 23L42 23L42 22ZM4 23L4 24L5 24L5 23ZM47 23L47 24L49 24L49 23ZM11 24L11 25L9 25L9 26L11 26L11 25L12 25L12 24ZM19 24L19 25L21 25L21 24ZM32 25L32 26L33 26L33 25ZM46 25L46 26L47 26L47 25ZM58 25L58 26L59 26L59 25ZM50 26L50 27L49 27L49 28L48 28L48 29L47 29L47 30L46 30L46 32L45 32L45 31L42 31L42 30L43 30L43 28L42 28L42 30L41 30L41 29L40 29L40 28L41 28L41 27L40 27L40 28L39 28L39 29L40 29L40 30L41 30L41 31L39 31L39 30L38 30L38 29L37 29L37 30L38 30L38 31L39 31L39 34L38 34L38 35L37 35L37 36L35 36L35 37L36 37L36 38L32 38L32 39L31 39L31 38L30 38L30 39L29 39L29 40L30 40L30 41L31 41L31 40L32 40L32 41L33 41L33 42L32 42L32 43L33 43L33 44L32 44L32 46L30 46L30 45L31 45L31 44L30 44L30 45L28 45L28 46L27 46L27 45L25 45L25 44L24 44L24 43L25 43L25 42L27 42L27 43L26 43L26 44L29 44L29 43L28 43L28 42L27 42L27 41L28 41L28 40L27 40L27 41L26 41L26 39L28 39L28 38L27 38L27 37L26 37L26 36L25 36L25 37L24 37L24 35L25 35L25 33L26 33L26 34L27 34L27 33L26 33L26 31L27 31L27 29L26 29L26 31L24 31L24 30L25 30L25 29L22 29L22 31L21 31L21 32L20 32L20 30L18 30L18 31L19 31L19 32L17 32L17 34L18 34L18 33L19 33L19 32L20 32L20 33L21 33L21 34L20 34L20 35L21 35L21 34L22 34L22 33L23 33L23 37L22 37L22 36L20 36L20 37L19 37L19 38L20 38L20 39L21 39L21 40L25 40L25 41L21 41L21 44L20 44L20 45L19 45L19 44L18 44L18 42L19 42L19 43L20 43L20 42L19 42L19 41L20 41L20 40L19 40L19 41L18 41L18 40L15 40L15 41L18 41L18 42L17 42L17 44L16 44L16 43L15 43L15 45L19 45L19 46L15 46L15 47L16 47L16 48L15 48L15 49L14 49L14 50L15 50L15 51L16 51L16 53L19 53L19 51L20 51L20 50L19 50L19 51L17 51L17 50L18 50L18 49L22 49L22 48L20 48L20 47L22 47L22 46L27 46L27 47L26 47L26 48L25 48L25 47L24 47L24 48L23 48L23 50L25 50L25 51L24 51L24 52L25 52L25 53L26 53L26 54L27 54L27 53L26 53L26 52L25 52L25 51L30 51L30 50L29 50L29 49L31 49L31 47L33 47L33 48L32 48L32 49L35 49L35 50L34 50L34 51L37 51L37 48L41 48L41 47L42 47L42 46L43 46L43 44L45 44L45 43L43 43L43 44L41 44L41 43L40 43L40 42L41 42L41 41L42 41L42 42L45 42L45 41L47 41L47 42L50 42L50 40L51 40L51 41L52 41L52 40L51 40L51 38L52 38L52 39L55 39L55 38L52 38L52 37L53 37L53 35L52 35L52 36L51 36L51 38L50 38L50 37L49 37L49 36L50 36L50 35L51 35L51 34L52 34L52 33L51 33L51 34L50 34L50 33L49 33L49 32L48 32L48 31L47 31L47 30L49 30L49 28L52 28L52 27L53 27L53 26L52 26L52 27L51 27L51 26ZM1 27L1 28L2 28L2 27ZM57 27L57 29L58 29L58 28L59 28L59 29L60 29L60 27ZM11 28L11 29L10 29L10 30L11 30L11 31L12 31L12 30L13 30L13 28ZM3 29L3 30L2 30L2 31L3 31L3 32L4 32L4 29ZM5 29L5 32L8 32L8 29ZM11 29L11 30L12 30L12 29ZM29 29L29 32L32 32L32 29ZM53 29L53 32L56 32L56 29ZM6 30L6 31L7 31L7 30ZM14 30L14 31L13 31L13 32L14 32L14 31L15 31L15 32L16 32L16 31L15 31L15 30ZM30 30L30 31L31 31L31 30ZM34 30L34 31L36 31L36 30ZM54 30L54 31L55 31L55 30ZM57 30L57 32L59 32L59 30ZM23 31L23 32L24 32L24 33L25 33L25 32L24 32L24 31ZM41 31L41 32L40 32L40 34L39 34L39 35L43 35L43 34L41 34L41 32L42 32L42 33L43 33L43 32L42 32L42 31ZM21 32L21 33L22 33L22 32ZM35 32L35 34L34 34L34 35L36 35L36 33L38 33L38 32ZM44 32L44 33L45 33L45 32ZM46 32L46 34L47 34L47 35L46 35L46 36L40 36L40 38L39 38L39 36L37 36L37 38L36 38L36 40L38 40L38 42L37 42L37 43L36 43L36 41L35 41L35 40L34 40L34 39L32 39L32 40L33 40L33 41L34 41L34 42L35 42L35 44L38 44L38 46L37 46L37 45L33 45L33 47L34 47L34 48L35 48L35 47L34 47L34 46L36 46L36 47L38 47L38 46L39 46L39 44L40 44L40 46L42 46L42 45L41 45L41 44L40 44L40 43L39 43L39 44L38 44L38 42L39 42L39 40L38 40L38 38L39 38L39 39L40 39L40 38L41 38L41 40L40 40L40 41L41 41L41 40L42 40L42 41L43 41L43 40L44 40L44 41L45 41L45 40L44 40L44 39L46 39L46 40L50 40L50 38L47 38L47 36L49 36L49 35L50 35L50 34L49 34L49 33L48 33L48 32ZM29 33L29 34L32 34L32 33ZM6 34L6 35L7 35L7 34ZM44 34L44 35L45 35L45 34ZM32 36L32 37L34 37L34 36ZM20 37L20 38L21 38L21 37ZM25 37L25 39L26 39L26 37ZM41 37L41 38L42 38L42 39L44 39L44 38L43 38L43 37ZM45 37L45 38L46 38L46 39L47 39L47 38L46 38L46 37ZM5 38L5 39L4 39L4 40L5 40L5 41L7 41L7 40L8 40L8 38ZM10 38L10 39L11 39L11 40L12 40L12 39L11 39L11 38ZM17 38L17 39L18 39L18 38ZM22 38L22 39L23 39L23 38ZM6 39L6 40L7 40L7 39ZM30 39L30 40L31 40L31 39ZM57 39L57 40L59 40L59 39ZM22 42L22 43L24 43L24 42ZM58 42L58 43L59 43L59 42ZM48 43L48 44L47 44L47 45L49 45L49 46L50 46L50 45L49 45L49 43ZM1 44L1 46L3 46L3 45L2 45L2 44ZM21 44L21 45L20 45L20 46L19 46L19 47L20 47L20 46L21 46L21 45L24 45L24 44ZM45 45L45 46L46 46L46 47L44 47L44 48L42 48L42 49L41 49L41 50L44 50L44 48L45 48L45 49L47 49L47 48L48 48L48 46L46 46L46 45ZM10 46L10 47L11 47L11 46ZM29 46L29 47L30 47L30 46ZM59 46L59 47L60 47L60 48L61 48L61 46ZM13 47L13 48L14 48L14 47ZM17 47L17 48L16 48L16 49L15 49L15 50L16 50L16 49L17 49L17 48L18 48L18 47ZM46 47L46 48L47 48L47 47ZM24 48L24 49L25 49L25 50L26 50L26 49L27 49L27 50L28 50L28 49L29 49L29 48L28 48L28 49L27 49L27 48L26 48L26 49L25 49L25 48ZM32 50L32 51L33 51L33 50ZM46 50L46 51L47 51L47 50ZM3 51L3 52L4 52L4 51ZM9 52L9 53L10 53L10 52ZM43 52L43 53L45 53L45 52ZM60 52L60 53L61 53L61 52ZM11 53L11 54L9 54L9 55L10 55L10 56L9 56L9 57L12 57L12 55L13 55L13 54L12 54L12 53ZM29 53L29 56L32 56L32 53ZM53 53L53 56L56 56L56 53ZM11 54L11 55L12 55L12 54ZM16 54L16 55L17 55L17 54ZM30 54L30 55L31 55L31 54ZM54 54L54 55L55 55L55 54ZM59 54L59 55L60 55L60 56L58 56L58 57L60 57L60 60L57 60L57 59L56 59L56 60L57 60L57 61L61 61L61 54ZM40 55L40 56L41 56L41 55ZM15 56L15 57L14 57L14 58L15 58L15 57L17 57L17 56ZM19 56L19 57L21 57L21 58L22 58L22 57L21 57L21 56ZM44 56L44 59L45 59L45 58L48 58L48 57L45 57L45 56ZM31 57L31 58L32 58L32 59L34 59L34 58L35 58L35 60L37 60L37 59L36 59L36 58L37 58L37 57L34 57L34 58L33 58L33 57ZM9 58L9 59L10 59L10 58ZM18 58L18 59L16 59L16 60L19 60L19 59L20 59L20 58ZM52 58L52 59L54 59L54 58ZM0 0L0 7L7 7L7 0ZM1 1L1 6L6 6L6 1ZM2 2L2 5L5 5L5 2ZM54 0L54 7L61 7L61 0ZM55 1L55 6L60 6L60 1ZM56 2L56 5L59 5L59 2ZM0 54L0 61L7 61L7 54ZM1 55L1 60L6 60L6 55ZM2 56L2 59L5 59L5 56Z" fill="#000000"/></g></g></svg>
