<?xml version="1.0" encoding="UTF-8"?>
<svg xmlns="http://www.w3.org/2000/svg" version="1.1" width="300" height="300" viewBox="0 0 300 300"><rect x="0" y="0" width="300" height="300" fill="#ffffff"/><g transform="scale(4.918)"><g transform="translate(0,0)"><path fill-rule="evenodd" d="M9 0L9 1L8 1L8 2L9 2L9 3L8 3L8 4L9 4L9 5L8 5L8 7L9 7L9 6L10 6L10 7L11 7L11 8L12 8L12 10L13 10L13 6L12 6L12 7L11 7L11 5L12 5L12 3L11 3L11 5L10 5L10 4L9 4L9 3L10 3L10 2L12 2L12 1L13 1L13 3L14 3L14 1L13 1L13 0L11 0L11 1L10 1L10 0ZM16 0L16 1L15 1L15 2L16 2L16 4L14 4L14 8L15 8L15 5L16 5L16 4L17 4L17 2L20 2L20 4L19 4L19 3L18 3L18 4L19 4L19 5L18 5L18 7L17 7L17 6L16 6L16 7L17 7L17 8L16 8L16 9L14 9L14 10L15 10L15 13L12 13L12 15L11 15L11 13L10 13L10 16L6 16L6 17L7 17L7 18L5 18L5 15L8 15L8 14L9 14L9 13L7 13L7 12L6 12L6 11L7 11L7 10L6 10L6 9L8 9L8 10L10 10L10 11L11 11L11 12L13 12L13 11L11 11L11 10L10 10L10 8L6 8L6 9L5 9L5 8L0 8L0 11L4 11L4 12L2 12L2 13L1 13L1 12L0 12L0 13L1 13L1 15L0 15L0 17L1 17L1 18L0 18L0 22L2 22L2 21L1 21L1 20L2 20L2 19L1 19L1 18L4 18L4 19L3 19L3 21L5 21L5 22L6 22L6 23L7 23L7 24L2 24L2 23L1 23L1 24L0 24L0 31L2 31L2 32L1 32L1 33L0 33L0 34L3 34L3 39L2 39L2 38L1 38L1 37L2 37L2 35L0 35L0 38L1 38L1 39L0 39L0 40L1 40L1 41L2 41L2 40L4 40L4 36L5 36L5 41L4 41L4 42L2 42L2 43L1 43L1 42L0 42L0 46L1 46L1 47L2 47L2 46L1 46L1 45L4 45L4 46L5 46L5 45L4 45L4 44L6 44L6 45L7 45L7 46L6 46L6 47L5 47L5 49L7 49L7 50L2 50L2 51L0 51L0 53L4 53L4 52L5 52L5 51L7 51L7 50L8 50L8 51L9 51L9 53L8 53L8 52L6 52L6 53L8 53L8 55L9 55L9 56L8 56L8 61L9 61L9 60L10 60L10 61L14 61L14 60L15 60L15 61L19 61L19 59L20 59L20 58L19 58L19 57L20 57L20 56L22 56L22 55L21 55L21 54L28 54L28 56L27 56L27 59L25 59L25 58L26 58L26 57L21 57L21 58L23 58L23 59L25 59L25 61L26 61L26 60L29 60L29 58L30 58L30 60L31 60L31 58L30 58L30 57L32 57L32 60L33 60L33 59L34 59L34 60L36 60L36 61L38 61L38 60L37 60L37 58L38 58L38 59L39 59L39 60L41 60L41 59L40 59L40 58L45 58L45 57L44 57L44 56L45 56L45 55L47 55L47 56L46 56L46 57L49 57L49 56L50 56L50 55L52 55L52 56L51 56L51 58L50 58L50 59L49 59L49 58L48 58L48 59L49 59L49 60L47 60L47 61L49 61L49 60L52 60L52 59L51 59L51 58L53 58L53 61L54 61L54 60L55 60L55 57L56 57L56 58L57 58L57 53L59 53L59 54L60 54L60 55L61 55L61 54L60 54L60 53L61 53L61 52L60 52L60 53L59 53L59 52L58 52L58 51L57 51L57 50L58 50L58 49L59 49L59 48L58 48L58 47L59 47L59 46L58 46L58 45L59 45L59 44L60 44L60 45L61 45L61 41L59 41L59 40L57 40L57 39L59 39L59 38L58 38L58 36L57 36L57 35L60 35L60 36L59 36L59 37L61 37L61 34L57 34L57 35L55 35L55 33L57 33L57 30L58 30L58 29L60 29L60 30L59 30L59 31L60 31L60 33L61 33L61 26L60 26L60 25L61 25L61 24L60 24L60 25L59 25L59 24L58 24L58 25L59 25L59 28L57 28L57 27L56 27L56 24L57 24L57 23L61 23L61 22L60 22L60 21L61 21L61 18L58 18L58 17L61 17L61 16L57 16L57 15L56 15L56 16L54 16L54 15L52 15L52 16L51 16L51 17L53 17L53 18L52 18L52 20L51 20L51 18L50 18L50 15L51 15L51 14L52 14L52 13L53 13L53 14L55 14L55 13L56 13L56 14L58 14L58 15L61 15L61 13L60 13L60 14L59 14L59 12L60 12L60 11L61 11L61 10L60 10L60 11L59 11L59 10L58 10L58 8L57 8L57 9L56 9L56 8L55 8L55 9L54 9L54 8L53 8L53 6L52 6L52 8L51 8L51 5L52 5L52 4L53 4L53 0L51 0L51 2L50 2L50 3L48 3L48 2L47 2L47 1L46 1L46 0L41 0L41 1L45 1L45 2L42 2L42 3L41 3L41 5L40 5L40 7L39 7L39 5L38 5L38 2L39 2L39 4L40 4L40 2L39 2L39 1L40 1L40 0L39 0L39 1L38 1L38 2L37 2L37 3L36 3L36 2L35 2L35 1L37 1L37 0L35 0L35 1L34 1L34 2L31 2L31 0L29 0L29 1L28 1L28 0L24 0L24 1L23 1L23 2L24 2L24 3L23 3L23 4L22 4L22 3L21 3L21 2L20 2L20 0L19 0L19 1L17 1L17 0ZM32 0L32 1L33 1L33 0ZM48 0L48 1L50 1L50 0ZM9 1L9 2L10 2L10 1ZM29 1L29 2L28 2L28 3L29 3L29 2L30 2L30 1ZM25 2L25 3L24 3L24 4L23 4L23 5L22 5L22 6L21 6L21 4L20 4L20 6L19 6L19 9L21 9L21 8L22 8L22 9L23 9L23 12L21 12L21 13L20 13L20 12L19 12L19 11L20 11L20 10L18 10L18 12L19 12L19 13L15 13L15 14L13 14L13 15L14 15L14 16L12 16L12 17L10 17L10 18L7 18L7 19L6 19L6 20L7 20L7 19L8 19L8 20L9 20L9 21L8 21L8 22L7 22L7 21L6 21L6 22L7 22L7 23L9 23L9 21L10 21L10 22L11 22L11 24L7 24L7 25L5 25L5 26L4 26L4 27L3 27L3 25L2 25L2 24L1 24L1 27L3 27L3 30L2 30L2 31L3 31L3 32L4 32L4 27L5 27L5 26L7 26L7 25L8 25L8 27L6 27L6 28L8 28L8 27L9 27L9 25L11 25L11 26L12 26L12 25L13 25L13 28L12 28L12 29L11 29L11 28L9 28L9 31L10 31L10 30L11 30L11 31L13 31L13 30L12 30L12 29L13 29L13 28L14 28L14 29L15 29L15 30L14 30L14 31L18 31L18 30L19 30L19 32L22 32L22 33L20 33L20 34L21 34L21 35L19 35L19 33L18 33L18 34L17 34L17 37L16 37L16 38L17 38L17 39L15 39L15 37L14 37L14 39L12 39L12 38L13 38L13 36L12 36L12 38L11 38L11 39L10 39L10 38L9 38L9 37L8 37L8 38L9 38L9 39L6 39L6 40L7 40L7 41L5 41L5 42L8 42L8 43L6 43L6 44L8 44L8 48L7 48L7 47L6 47L6 48L7 48L7 49L9 49L9 47L10 47L10 50L9 50L9 51L10 51L10 52L11 52L11 53L9 53L9 55L11 55L11 56L12 56L12 55L13 55L13 52L14 52L14 53L16 53L16 54L17 54L17 53L18 53L18 55L16 55L16 56L18 56L18 57L15 57L15 55L14 55L14 57L9 57L9 59L12 59L12 60L14 60L14 59L13 59L13 58L14 58L14 57L15 57L15 59L18 59L18 57L19 57L19 55L20 55L20 54L21 54L21 53L25 53L25 51L26 51L26 53L27 53L27 52L34 52L34 50L35 50L35 51L36 51L36 52L35 52L35 54L34 54L34 53L33 53L33 54L34 54L34 56L37 56L37 55L38 55L38 54L40 54L40 55L41 55L41 56L40 56L40 57L41 57L41 56L44 56L44 54L47 54L47 55L48 55L48 56L49 56L49 55L50 55L50 54L51 54L51 52L52 52L52 51L53 51L53 49L55 49L55 51L54 51L54 52L57 52L57 51L56 51L56 50L57 50L57 49L56 49L56 48L57 48L57 47L54 47L54 48L53 48L53 46L52 46L52 47L50 47L50 46L51 46L51 43L52 43L52 42L53 42L53 41L54 41L54 40L55 40L55 41L56 41L56 42L58 42L58 41L56 41L56 40L55 40L55 39L57 39L57 37L56 37L56 36L55 36L55 35L53 35L53 33L51 33L51 31L52 31L52 26L53 26L53 28L54 28L54 27L55 27L55 28L56 28L56 27L55 27L55 26L53 26L53 25L55 25L55 24L53 24L53 25L50 25L50 26L49 26L49 25L48 25L48 24L49 24L49 23L50 23L50 22L51 22L51 24L52 24L52 22L53 22L53 23L57 23L57 20L58 20L58 22L59 22L59 21L60 21L60 20L59 20L59 19L58 19L58 18L56 18L56 17L57 17L57 16L56 16L56 17L55 17L55 18L53 18L53 19L54 19L54 20L53 20L53 21L50 21L50 20L49 20L49 19L47 19L47 21L45 21L45 20L43 20L43 18L44 18L44 17L45 17L45 16L46 16L46 18L47 18L47 17L48 17L48 16L49 16L49 15L50 15L50 14L51 14L51 12L53 12L53 13L54 13L54 12L56 12L56 13L57 13L57 12L59 12L59 11L58 11L58 10L56 10L56 9L55 9L55 10L54 10L54 12L53 12L53 9L50 9L50 8L49 8L49 7L50 7L50 5L49 5L49 4L48 4L48 3L47 3L47 2L46 2L46 3L47 3L47 4L46 4L46 5L45 5L45 7L46 7L46 8L47 8L47 9L45 9L45 8L43 8L43 7L44 7L44 4L45 4L45 3L43 3L43 5L41 5L41 8L38 8L38 5L37 5L37 4L36 4L36 3L35 3L35 2L34 2L34 3L30 3L30 4L34 4L34 5L33 5L33 9L32 9L32 10L31 10L31 11L32 11L32 12L29 12L29 10L30 10L30 9L29 9L29 10L28 10L28 9L25 9L25 8L26 8L26 6L25 6L25 5L26 5L26 4L27 4L27 2ZM51 3L51 4L52 4L52 3ZM24 4L24 5L25 5L25 4ZM35 4L35 5L36 5L36 7L37 7L37 5L36 5L36 4ZM29 5L29 8L32 8L32 5ZM46 5L46 7L47 7L47 5ZM48 5L48 7L49 7L49 5ZM20 6L20 8L21 8L21 6ZM22 6L22 8L23 8L23 9L24 9L24 10L25 10L25 9L24 9L24 8L25 8L25 6L24 6L24 8L23 8L23 6ZM27 6L27 8L28 8L28 6ZM30 6L30 7L31 7L31 6ZM34 6L34 8L35 8L35 10L34 10L34 9L33 9L33 13L32 13L32 14L31 14L31 15L32 15L32 14L33 14L33 13L36 13L36 12L38 12L38 13L37 13L37 14L39 14L39 15L37 15L37 16L33 16L33 17L32 17L32 16L30 16L30 15L29 15L29 14L30 14L30 13L29 13L29 14L28 14L28 13L22 13L22 15L20 15L20 13L19 13L19 15L20 15L20 17L19 17L19 16L17 16L17 17L19 17L19 18L18 18L18 19L19 19L19 20L18 20L18 21L17 21L17 20L16 20L16 19L15 19L15 18L16 18L16 17L15 17L15 18L14 18L14 17L12 17L12 18L13 18L13 19L12 19L12 20L10 20L10 21L12 21L12 20L13 20L13 19L15 19L15 20L14 20L14 21L15 21L15 23L13 23L13 22L12 22L12 23L13 23L13 25L15 25L15 26L14 26L14 28L15 28L15 27L16 27L16 29L19 29L19 30L20 30L20 31L22 31L22 30L23 30L23 31L24 31L24 32L23 32L23 33L24 33L24 34L22 34L22 35L21 35L21 36L18 36L18 37L19 37L19 38L18 38L18 39L17 39L17 40L14 40L14 41L17 41L17 42L16 42L16 44L15 44L15 42L13 42L13 41L11 41L11 42L13 42L13 43L10 43L10 42L9 42L9 43L10 43L10 46L11 46L11 47L12 47L12 48L11 48L11 49L12 49L12 48L13 48L13 49L14 49L14 50L16 50L16 49L14 49L14 48L15 48L15 47L16 47L16 48L17 48L17 49L19 49L19 50L18 50L18 51L19 51L19 52L18 52L18 53L19 53L19 54L20 54L20 53L21 53L21 52L24 52L24 51L22 51L22 49L23 49L23 50L24 50L24 49L26 49L26 50L27 50L27 51L28 51L28 50L27 50L27 49L28 49L28 47L29 47L29 51L30 51L30 49L32 49L32 48L31 48L31 47L32 47L32 46L33 46L33 45L36 45L36 44L38 44L38 45L37 45L37 46L40 46L40 47L39 47L39 50L38 50L38 49L37 49L37 48L36 48L36 46L34 46L34 47L33 47L33 50L32 50L32 51L33 51L33 50L34 50L34 49L35 49L35 50L36 50L36 51L37 51L37 52L36 52L36 53L38 53L38 51L39 51L39 53L40 53L40 54L41 54L41 55L42 55L42 54L44 54L44 52L45 52L45 53L47 53L47 54L50 54L50 53L49 53L49 52L51 52L51 51L52 51L52 50L50 50L50 48L48 48L48 47L49 47L49 46L50 46L50 45L49 45L49 44L46 44L46 43L49 43L49 42L50 42L50 43L51 43L51 42L52 42L52 41L53 41L53 39L55 39L55 37L53 37L53 35L52 35L52 34L50 34L50 33L49 33L49 32L48 32L48 31L51 31L51 30L50 30L50 29L51 29L51 28L50 28L50 29L49 29L49 28L46 28L46 27L47 27L47 26L45 26L45 25L47 25L47 24L48 24L48 23L49 23L49 22L50 22L50 21L49 21L49 20L48 20L48 21L47 21L47 22L46 22L46 23L44 23L44 24L45 24L45 25L44 25L44 26L45 26L45 27L44 27L44 28L43 28L43 27L42 27L42 30L43 30L43 31L44 31L44 32L43 32L43 33L42 33L42 31L41 31L41 30L39 30L39 31L40 31L40 32L38 32L38 33L37 33L37 32L36 32L36 31L38 31L38 30L37 30L37 29L38 29L38 28L37 28L37 27L39 27L39 28L41 28L41 27L40 27L40 26L41 26L41 25L42 25L42 26L43 26L43 25L42 25L42 24L41 24L41 22L43 22L43 20L42 20L42 19L41 19L41 18L43 18L43 17L44 17L44 16L45 16L45 15L46 15L46 16L48 16L48 15L49 15L49 12L51 12L51 11L52 11L52 10L51 10L51 11L50 11L50 9L49 9L49 8L48 8L48 9L49 9L49 12L48 12L48 13L47 13L47 10L46 10L46 11L44 11L44 12L43 12L43 11L42 11L42 10L43 10L43 9L41 9L41 10L40 10L40 9L39 9L39 10L38 10L38 8L35 8L35 6ZM42 6L42 7L43 7L43 6ZM17 8L17 9L16 9L16 10L17 10L17 9L18 9L18 8ZM59 8L59 9L60 9L60 8ZM1 9L1 10L4 10L4 11L5 11L5 9ZM36 9L36 11L34 11L34 12L36 12L36 11L38 11L38 10L37 10L37 9ZM44 9L44 10L45 10L45 9ZM39 10L39 11L40 11L40 10ZM8 11L8 12L9 12L9 11ZM16 11L16 12L17 12L17 11ZM26 11L26 12L28 12L28 11ZM56 11L56 12L57 12L57 11ZM39 12L39 13L41 13L41 14L40 14L40 15L39 15L39 16L37 16L37 17L33 17L33 18L32 18L32 19L31 19L31 18L30 18L30 16L29 16L29 15L28 15L28 16L26 16L26 14L24 14L24 15L23 15L23 17L22 17L22 16L21 16L21 17L20 17L20 18L19 18L19 19L20 19L20 20L19 20L19 21L18 21L18 23L17 23L17 21L16 21L16 20L15 20L15 21L16 21L16 24L18 24L18 25L16 25L16 26L18 26L18 27L17 27L17 28L19 28L19 29L20 29L20 30L21 30L21 29L20 29L20 28L22 28L22 29L23 29L23 28L24 28L24 29L25 29L25 30L24 30L24 31L26 31L26 29L27 29L27 32L25 32L25 34L26 34L26 35L25 35L25 36L24 36L24 35L22 35L22 37L25 37L25 38L26 38L26 37L27 37L27 38L28 38L28 37L27 37L27 36L29 36L29 37L30 37L30 36L29 36L29 35L30 35L30 34L31 34L31 35L32 35L32 36L31 36L31 38L30 38L30 39L29 39L29 40L28 40L28 41L25 41L25 40L26 40L26 39L23 39L23 38L22 38L22 39L23 39L23 40L21 40L21 37L20 37L20 39L19 39L19 41L23 41L23 42L22 42L22 43L24 43L24 41L25 41L25 44L24 44L24 45L25 45L25 47L23 47L23 49L24 49L24 48L26 48L26 49L27 49L27 48L26 48L26 47L27 47L27 45L28 45L28 46L29 46L29 47L30 47L30 46L31 46L31 45L32 45L32 44L33 44L33 42L31 42L31 41L33 41L33 39L35 39L35 40L37 40L37 39L38 39L38 43L40 43L40 42L41 42L41 43L42 43L42 44L39 44L39 45L40 45L40 46L41 46L41 48L40 48L40 50L39 50L39 51L41 51L41 52L40 52L40 53L41 53L41 52L44 52L44 51L46 51L46 52L47 52L47 51L48 51L48 52L49 52L49 51L48 51L48 50L49 50L49 49L48 49L48 48L47 48L47 47L48 47L48 46L47 46L47 45L46 45L46 44L44 44L44 43L45 43L45 42L48 42L48 40L50 40L50 42L51 42L51 40L52 40L52 39L53 39L53 37L52 37L52 38L51 38L51 36L52 36L52 35L50 35L50 34L49 34L49 33L48 33L48 32L47 32L47 31L48 31L48 30L49 30L49 29L48 29L48 30L47 30L47 29L45 29L45 28L44 28L44 31L46 31L46 32L47 32L47 33L45 33L45 32L44 32L44 34L42 34L42 35L41 35L41 34L40 34L40 35L39 35L39 36L37 36L37 35L36 35L36 34L37 34L37 33L35 33L35 31L36 31L36 30L35 30L35 29L36 29L36 28L35 28L35 27L34 27L34 26L36 26L36 27L37 27L37 25L34 25L34 26L33 26L33 25L31 25L31 24L29 24L29 23L31 23L31 22L32 22L32 24L33 24L33 22L34 22L34 24L37 24L37 23L38 23L38 26L39 26L39 25L41 25L41 24L39 24L39 23L40 23L40 22L41 22L41 21L42 21L42 20L40 20L40 19L39 19L39 20L37 20L37 19L38 19L38 18L39 18L39 16L40 16L40 17L42 17L42 16L44 16L44 15L45 15L45 14L44 14L44 15L43 15L43 14L42 14L42 13L43 13L43 12ZM44 12L44 13L45 13L45 12ZM2 13L2 14L3 14L3 15L5 15L5 14L7 14L7 13ZM46 13L46 14L47 14L47 13ZM15 14L15 15L16 15L16 14ZM17 14L17 15L18 15L18 14ZM35 14L35 15L36 15L36 14ZM41 14L41 15L40 15L40 16L41 16L41 15L42 15L42 14ZM24 15L24 17L23 17L23 18L24 18L24 17L25 17L25 18L27 18L27 19L26 19L26 20L25 20L25 21L24 21L24 22L27 22L27 23L29 23L29 22L27 22L27 21L28 21L28 19L29 19L29 17L28 17L28 18L27 18L27 17L26 17L26 16L25 16L25 15ZM1 16L1 17L2 17L2 16ZM53 16L53 17L54 17L54 16ZM21 17L21 20L20 20L20 21L19 21L19 22L20 22L20 21L21 21L21 22L22 22L22 23L21 23L21 27L22 27L22 28L23 28L23 25L24 25L24 26L26 26L26 28L27 28L27 29L28 29L28 34L27 34L27 33L26 33L26 34L27 34L27 35L28 35L28 34L29 34L29 33L31 33L31 34L32 34L32 35L33 35L33 36L32 36L32 37L33 37L33 38L32 38L32 39L33 39L33 38L34 38L34 37L33 37L33 36L34 36L34 35L35 35L35 34L34 34L34 33L33 33L33 31L35 31L35 30L34 30L34 28L33 28L33 26L31 26L31 27L30 27L30 26L29 26L29 24L28 24L28 26L26 26L26 25L24 25L24 24L26 24L26 23L23 23L23 21L22 21L22 20L24 20L24 19L22 19L22 17ZM10 18L10 19L11 19L11 18ZM33 18L33 19L32 19L32 20L33 20L33 21L34 21L34 22L35 22L35 21L37 21L37 22L36 22L36 23L37 23L37 22L38 22L38 23L39 23L39 22L38 22L38 21L37 21L37 20L35 20L35 18ZM36 18L36 19L37 19L37 18ZM4 19L4 20L5 20L5 19ZM30 19L30 20L31 20L31 19ZM33 19L33 20L34 20L34 19ZM56 19L56 20L55 20L55 21L53 21L53 22L56 22L56 20L57 20L57 19ZM26 20L26 21L27 21L27 20ZM30 21L30 22L31 22L31 21ZM44 21L44 22L45 22L45 21ZM19 23L19 25L18 25L18 26L19 26L19 27L20 27L20 26L19 26L19 25L20 25L20 23ZM22 23L22 25L23 25L23 23ZM11 24L11 25L12 25L12 24ZM28 26L28 27L27 27L27 28L28 28L28 27L29 27L29 26ZM48 26L48 27L49 27L49 26ZM50 26L50 27L51 27L51 26ZM24 27L24 28L25 28L25 27ZM31 27L31 28L32 28L32 27ZM1 28L1 29L2 29L2 28ZM5 29L5 32L8 32L8 29ZM29 29L29 32L32 32L32 29ZM53 29L53 32L56 32L56 29ZM6 30L6 31L7 31L7 30ZM30 30L30 31L31 31L31 30ZM46 30L46 31L47 31L47 30ZM54 30L54 31L55 31L55 30ZM9 32L9 33L6 33L6 34L7 34L7 35L5 35L5 34L4 34L4 35L5 35L5 36L8 36L8 34L9 34L9 36L10 36L10 37L11 37L11 36L10 36L10 35L12 35L12 32ZM16 32L16 33L13 33L13 34L16 34L16 33L17 33L17 32ZM40 32L40 33L41 33L41 32ZM58 32L58 33L59 33L59 32ZM9 33L9 34L11 34L11 33ZM38 33L38 34L39 34L39 33ZM44 34L44 36L46 36L46 37L45 37L45 39L44 39L44 38L43 38L43 35L42 35L42 36L41 36L41 35L40 35L40 36L41 36L41 37L39 37L39 38L38 38L38 37L37 37L37 36L36 36L36 37L37 37L37 38L38 38L38 39L39 39L39 42L40 42L40 40L41 40L41 39L40 39L40 38L43 38L43 39L42 39L42 40L43 40L43 41L41 41L41 42L43 42L43 43L44 43L44 40L47 40L47 39L49 39L49 38L50 38L50 40L51 40L51 38L50 38L50 36L47 36L47 34L46 34L46 35L45 35L45 34ZM15 35L15 36L16 36L16 35ZM25 36L25 37L26 37L26 36ZM6 37L6 38L7 38L7 37ZM46 37L46 38L48 38L48 37ZM60 38L60 39L61 39L61 38ZM1 39L1 40L2 40L2 39ZM30 39L30 41L31 41L31 39ZM9 40L9 41L10 41L10 40ZM17 40L17 41L18 41L18 40ZM28 41L28 42L27 42L27 43L26 43L26 44L25 44L25 45L26 45L26 44L27 44L27 43L28 43L28 45L31 45L31 44L32 44L32 43L31 43L31 42L30 42L30 43L28 43L28 42L29 42L29 41ZM34 41L34 42L35 42L35 41ZM18 42L18 43L17 43L17 44L19 44L19 43L20 43L20 42ZM59 42L59 43L56 43L56 44L55 44L55 43L54 43L54 44L53 44L53 45L54 45L54 44L55 44L55 45L56 45L56 46L57 46L57 45L56 45L56 44L59 44L59 43L60 43L60 42ZM2 43L2 44L4 44L4 43ZM13 43L13 46L14 46L14 47L13 47L13 48L14 48L14 47L15 47L15 46L16 46L16 47L17 47L17 48L18 48L18 47L17 47L17 46L19 46L19 45L15 45L15 46L14 46L14 43ZM34 43L34 44L36 44L36 43ZM21 44L21 45L20 45L20 47L19 47L19 48L21 48L21 49L20 49L20 52L19 52L19 53L20 53L20 52L21 52L21 49L22 49L22 48L21 48L21 47L22 47L22 45L23 45L23 44ZM42 44L42 46L43 46L43 47L42 47L42 48L43 48L43 49L42 49L42 50L43 50L43 51L44 51L44 48L45 48L45 47L47 47L47 46L45 46L45 45L44 45L44 44ZM11 45L11 46L12 46L12 45ZM43 45L43 46L44 46L44 45ZM60 46L60 49L61 49L61 46ZM3 47L3 48L0 48L0 49L3 49L3 48L4 48L4 47ZM34 47L34 48L35 48L35 47ZM43 47L43 48L44 48L44 47ZM51 48L51 49L53 49L53 48ZM10 50L10 51L11 51L11 50ZM12 50L12 52L13 52L13 50ZM46 50L46 51L47 51L47 50ZM59 50L59 51L61 51L61 50ZM3 51L3 52L4 52L4 51ZM14 51L14 52L16 52L16 53L17 53L17 52L16 52L16 51ZM11 53L11 54L12 54L12 53ZM29 53L29 56L32 56L32 53ZM53 53L53 56L56 56L56 53ZM30 54L30 55L31 55L31 54ZM36 54L36 55L37 55L37 54ZM54 54L54 55L55 55L55 54ZM24 55L24 56L26 56L26 55ZM58 56L58 57L59 57L59 56ZM60 56L60 60L57 60L57 59L56 59L56 60L57 60L57 61L61 61L61 56ZM33 57L33 58L34 58L34 59L36 59L36 58L37 58L37 57ZM38 57L38 58L39 58L39 57ZM46 58L46 59L47 59L47 58ZM21 59L21 60L20 60L20 61L21 61L21 60L22 60L22 59ZM42 59L42 60L43 60L43 61L44 61L44 60L45 60L45 59L44 59L44 60L43 60L43 59ZM0 0L0 7L7 7L7 0ZM1 1L1 6L6 6L6 1ZM2 2L2 5L5 5L5 2ZM54 0L54 7L61 7L61 0ZM55 1L55 6L60 6L60 1ZM56 2L56 5L59 5L59 2ZM0 54L0 61L7 61L7 54ZM1 55L1 60L6 60L6 55ZM2 56L2 59L5 59L5 56Z" fill="#000000"/></g></g></svg>
