<?xml version="1.0" encoding="UTF-8"?>
<svg xmlns="http://www.w3.org/2000/svg" version="1.1" width="300" height="300" viewBox="0 0 300 300"><rect x="0" y="0" width="300" height="300" fill="#ffffff"/><g transform="scale(4.918)"><g transform="translate(0,0)"><path fill-rule="evenodd" d="M8 0L8 4L9 4L9 5L8 5L8 7L9 7L9 5L10 5L10 4L11 4L11 5L12 5L12 3L11 3L11 1L12 1L12 0L11 0L11 1L10 1L10 3L9 3L9 0ZM13 0L13 4L14 4L14 2L15 2L15 1L16 1L16 2L17 2L17 4L18 4L18 1L17 1L17 0ZM19 0L19 3L20 3L20 5L21 5L21 6L20 6L20 7L21 7L21 6L22 6L22 8L18 8L18 9L17 9L17 5L16 5L16 7L15 7L15 5L13 5L13 6L12 6L12 7L11 7L11 6L10 6L10 7L11 7L11 8L9 8L9 9L8 9L8 10L6 10L6 9L7 9L7 8L4 8L4 9L5 9L5 10L6 10L6 11L8 11L8 12L6 12L6 13L7 13L7 14L4 14L4 15L8 15L8 13L9 13L9 12L10 12L10 14L9 14L9 16L8 16L8 17L7 17L7 16L5 16L5 17L7 17L7 18L6 18L6 19L7 19L7 20L5 20L5 21L7 21L7 22L6 22L6 23L7 23L7 24L6 24L6 25L7 25L7 26L5 26L5 27L7 27L7 26L8 26L8 25L7 25L7 24L9 24L9 22L10 22L10 23L11 23L11 22L13 22L13 21L12 21L12 20L11 20L11 19L10 19L10 20L11 20L11 22L10 22L10 21L9 21L9 19L8 19L8 17L10 17L10 18L11 18L11 17L12 17L12 18L13 18L13 20L14 20L14 19L15 19L15 20L16 20L16 21L17 21L17 22L18 22L18 23L16 23L16 22L15 22L15 23L13 23L13 25L12 25L12 28L11 28L11 27L8 27L8 28L4 28L4 27L3 27L3 26L4 26L4 25L3 25L3 22L2 22L2 21L1 21L1 19L3 19L3 20L4 20L4 19L5 19L5 18L4 18L4 16L3 16L3 13L4 13L4 12L5 12L5 11L4 11L4 10L3 10L3 11L1 11L1 10L2 10L2 8L0 8L0 9L1 9L1 10L0 10L0 12L2 12L2 13L1 13L1 15L0 15L0 16L1 16L1 15L2 15L2 16L3 16L3 18L1 18L1 17L0 17L0 18L1 18L1 19L0 19L0 22L2 22L2 23L0 23L0 25L2 25L2 28L1 28L1 26L0 26L0 28L1 28L1 29L2 29L2 28L3 28L3 29L4 29L4 33L5 33L5 34L6 34L6 35L3 35L3 36L2 36L2 38L0 38L0 39L3 39L3 40L1 40L1 42L2 42L2 44L1 44L1 45L2 45L2 44L4 44L4 45L3 45L3 47L2 47L2 46L0 46L0 47L1 47L1 48L0 48L0 50L1 50L1 49L2 49L2 51L0 51L0 53L4 53L4 52L5 52L5 51L7 51L7 52L6 52L6 53L8 53L8 54L9 54L9 55L8 55L8 57L9 57L9 56L10 56L10 57L11 57L11 58L12 58L12 59L13 59L13 60L10 60L10 58L9 58L9 59L8 59L8 61L9 61L9 60L10 60L10 61L15 61L15 59L17 59L17 60L16 60L16 61L17 61L17 60L18 60L18 61L19 61L19 59L20 59L20 58L23 58L23 59L24 59L24 58L25 58L25 57L26 57L26 58L27 58L27 56L28 56L28 59L26 59L26 60L25 60L25 61L27 61L27 60L28 60L28 59L29 59L29 60L31 60L31 59L32 59L32 61L33 61L33 59L34 59L34 57L35 57L35 55L33 55L33 54L34 54L34 44L35 44L35 45L37 45L37 42L35 42L35 43L34 43L34 44L32 44L32 43L33 43L33 42L34 42L34 41L33 41L33 40L35 40L35 39L34 39L34 36L36 36L36 41L37 41L37 39L39 39L39 40L38 40L38 43L39 43L39 44L40 44L40 43L41 43L41 44L42 44L42 43L44 43L44 45L42 45L42 47L41 47L41 50L40 50L40 51L41 51L41 50L42 50L42 53L41 53L41 57L40 57L40 56L39 56L39 55L40 55L40 52L38 52L38 53L37 53L37 51L36 51L36 50L38 50L38 51L39 51L39 48L40 48L40 46L41 46L41 45L38 45L38 47L37 47L37 46L36 46L36 48L35 48L35 52L36 52L36 53L35 53L35 54L36 54L36 53L37 53L37 55L36 55L36 57L37 57L37 55L38 55L38 56L39 56L39 57L38 57L38 59L36 59L36 58L35 58L35 61L37 61L37 60L38 60L38 61L40 61L40 60L38 60L38 59L41 59L41 60L44 60L44 61L46 61L46 60L47 60L47 61L49 61L49 58L50 58L50 59L51 59L51 60L50 60L50 61L52 61L52 60L53 60L53 59L55 59L55 60L57 60L57 59L58 59L58 61L61 61L61 60L60 60L60 58L61 58L61 56L60 56L60 55L59 55L59 54L58 54L58 53L61 53L61 52L60 52L60 51L59 51L59 47L60 47L60 48L61 48L61 47L60 47L60 46L59 46L59 43L60 43L60 42L58 42L58 53L57 53L57 52L56 52L56 51L57 51L57 49L56 49L56 48L55 48L55 47L57 47L57 45L56 45L56 44L57 44L57 43L56 43L56 42L57 42L57 41L56 41L56 42L55 42L55 43L54 43L54 45L53 45L53 44L52 44L52 45L53 45L53 46L55 46L55 47L54 47L54 48L55 48L55 50L56 50L56 51L54 51L54 50L52 50L52 49L50 49L50 52L49 52L49 51L48 51L48 50L47 50L47 51L48 51L48 53L49 53L49 55L48 55L48 54L47 54L47 57L48 57L48 58L47 58L47 59L46 59L46 54L45 54L45 56L44 56L44 55L43 55L43 54L44 54L44 53L45 53L45 51L46 51L46 49L47 49L47 48L46 48L46 49L45 49L45 47L46 47L46 45L48 45L48 49L49 49L49 44L50 44L50 43L53 43L53 42L51 42L51 37L50 37L50 36L49 36L49 34L47 34L47 35L48 35L48 37L47 37L47 38L49 38L49 39L48 39L48 40L47 40L47 42L48 42L48 43L47 43L47 44L46 44L46 45L45 45L45 43L46 43L46 41L45 41L45 39L46 39L46 38L45 38L45 37L46 37L46 36L45 36L45 35L46 35L46 33L47 33L47 31L48 31L48 33L50 33L50 35L54 35L54 37L55 37L55 38L56 38L56 39L55 39L55 40L54 40L54 41L55 41L55 40L57 40L57 39L58 39L58 41L59 41L59 39L58 39L58 38L57 38L57 37L56 37L56 36L55 36L55 35L54 35L54 34L52 34L52 33L55 33L55 34L56 34L56 35L58 35L58 37L59 37L59 35L58 35L58 34L57 34L57 31L58 31L58 33L59 33L59 32L60 32L60 33L61 33L61 31L59 31L59 30L60 30L60 29L61 29L61 28L59 28L59 27L58 27L58 26L60 26L60 24L61 24L61 23L60 23L60 24L59 24L59 23L58 23L58 22L57 22L57 21L60 21L60 20L61 20L61 19L59 19L59 18L58 18L58 20L57 20L57 19L56 19L56 21L54 21L54 20L55 20L55 18L56 18L56 17L61 17L61 16L60 16L60 15L59 15L59 14L58 14L58 16L57 16L57 14L56 14L56 13L57 13L57 11L58 11L58 13L59 13L59 11L60 11L60 12L61 12L61 11L60 11L60 10L59 10L59 9L61 9L61 8L57 8L57 11L55 11L55 10L56 10L56 8L55 8L55 9L53 9L53 8L52 8L52 7L53 7L53 6L52 6L52 7L51 7L51 5L52 5L52 4L53 4L53 0L51 0L51 2L50 2L50 3L49 3L49 1L50 1L50 0L47 0L47 1L46 1L46 2L45 2L45 0L36 0L36 1L34 1L34 2L33 2L33 1L32 1L32 0L30 0L30 1L32 1L32 2L31 2L31 3L30 3L30 2L29 2L29 1L28 1L28 0L27 0L27 1L25 1L25 0L24 0L24 1L22 1L22 0ZM27 1L27 2L28 2L28 1ZM36 1L36 2L37 2L37 1ZM38 1L38 3L35 3L35 4L34 4L34 3L33 3L33 4L34 4L34 5L33 5L33 9L31 9L31 10L30 10L30 9L27 9L27 8L28 8L28 5L27 5L27 3L26 3L26 2L24 2L24 3L25 3L25 8L22 8L22 9L27 9L27 10L26 10L26 11L25 11L25 12L23 12L23 10L21 10L21 9L19 9L19 10L17 10L17 9L16 9L16 10L15 10L15 9L14 9L14 8L13 8L13 7L14 7L14 6L13 6L13 7L12 7L12 8L11 8L11 10L8 10L8 11L10 11L10 12L11 12L11 14L10 14L10 16L11 16L11 15L14 15L14 16L16 16L16 17L15 17L15 19L16 19L16 18L17 18L17 17L18 17L18 19L19 19L19 21L18 21L18 22L19 22L19 23L20 23L20 24L18 24L18 25L16 25L16 23L15 23L15 24L14 24L14 25L16 25L16 26L18 26L18 27L17 27L17 28L18 28L18 27L19 27L19 29L16 29L16 27L15 27L15 28L12 28L12 29L10 29L10 28L9 28L9 33L10 33L10 34L8 34L8 35L11 35L11 36L10 36L10 37L9 37L9 38L10 38L10 39L9 39L9 40L8 40L8 39L6 39L6 38L8 38L8 36L7 36L7 35L6 35L6 36L7 36L7 37L6 37L6 38L5 38L5 39L4 39L4 38L3 38L3 39L4 39L4 41L3 41L3 42L4 42L4 41L5 41L5 40L8 40L8 41L6 41L6 42L7 42L7 43L6 43L6 44L5 44L5 43L4 43L4 44L5 44L5 46L4 46L4 47L5 47L5 46L9 46L9 45L10 45L10 46L12 46L12 44L11 44L11 43L9 43L9 45L6 45L6 44L8 44L8 41L9 41L9 42L10 42L10 41L11 41L11 42L12 42L12 43L13 43L13 42L14 42L14 44L13 44L13 45L14 45L14 46L13 46L13 47L11 47L11 49L10 49L10 48L9 48L9 47L8 47L8 48L7 48L7 47L6 47L6 48L7 48L7 49L4 49L4 48L2 48L2 49L3 49L3 50L7 50L7 51L8 51L8 53L9 53L9 49L10 49L10 52L11 52L11 49L12 49L12 50L13 50L13 49L14 49L14 50L15 50L15 51L14 51L14 53L10 53L10 54L11 54L11 56L12 56L12 58L13 58L13 59L14 59L14 58L13 58L13 56L14 56L14 57L15 57L15 58L18 58L18 59L19 59L19 58L18 58L18 57L20 57L20 56L21 56L21 55L20 55L20 53L21 53L21 54L22 54L22 57L23 57L23 55L26 55L26 56L27 56L27 55L28 55L28 54L27 54L27 53L26 53L26 50L27 50L27 49L28 49L28 48L27 48L27 49L26 49L26 47L27 47L27 46L28 46L28 47L29 47L29 46L30 46L30 47L31 47L31 49L29 49L29 50L28 50L28 51L30 51L30 50L31 50L31 49L33 49L33 47L32 47L32 44L31 44L31 45L28 45L28 43L27 43L27 42L26 42L26 43L24 43L24 44L22 44L22 45L21 45L21 44L20 44L20 45L21 45L21 47L20 47L20 46L19 46L19 45L18 45L18 44L19 44L19 43L20 43L20 42L21 42L21 41L30 41L30 43L32 43L32 42L33 42L33 41L30 41L30 40L26 40L26 39L24 39L24 38L23 38L23 39L22 39L22 40L21 40L21 39L19 39L19 38L20 38L20 37L23 37L23 35L24 35L24 37L25 37L25 38L26 38L26 35L27 35L27 37L28 37L28 39L29 39L29 38L30 38L30 39L32 39L32 40L33 40L33 39L32 39L32 36L33 36L33 34L32 34L32 36L31 36L31 35L30 35L30 34L31 34L31 33L30 33L30 34L29 34L29 35L27 35L27 33L28 33L28 30L27 30L27 29L28 29L28 28L32 28L32 27L35 27L35 25L36 25L36 23L37 23L37 21L35 21L35 18L36 18L36 19L37 19L37 20L38 20L38 21L40 21L40 22L39 22L39 23L38 23L38 24L39 24L39 26L40 26L40 25L43 25L43 27L40 27L40 29L39 29L39 27L38 27L38 25L37 25L37 26L36 26L36 27L37 27L37 28L38 28L38 29L37 29L37 30L35 30L35 29L34 29L34 28L33 28L33 29L34 29L34 31L33 31L33 33L34 33L34 35L35 35L35 34L36 34L36 35L37 35L37 36L38 36L38 37L39 37L39 39L40 39L40 40L39 40L39 43L40 43L40 42L41 42L41 40L43 40L43 42L45 42L45 41L44 41L44 39L45 39L45 38L43 38L43 39L40 39L40 38L41 38L41 35L40 35L40 37L39 37L39 36L38 36L38 31L37 31L37 30L38 30L38 29L39 29L39 30L40 30L40 29L41 29L41 30L42 30L42 29L41 29L41 28L43 28L43 31L42 31L42 32L41 32L41 31L39 31L39 34L40 34L40 33L42 33L42 32L43 32L43 34L44 34L44 35L42 35L42 36L43 36L43 37L44 37L44 35L45 35L45 34L44 34L44 32L45 32L45 33L46 33L46 32L45 32L45 31L44 31L44 27L45 27L45 25L46 25L46 27L47 27L47 26L48 26L48 27L50 27L50 28L49 28L49 30L48 30L48 31L50 31L50 28L51 28L51 29L52 29L52 27L53 27L53 25L55 25L55 26L56 26L56 27L57 27L57 29L58 29L58 30L59 30L59 29L58 29L58 27L57 27L57 26L56 26L56 24L55 24L55 23L53 23L53 22L54 22L54 21L52 21L52 20L53 20L53 18L54 18L54 17L55 17L55 16L53 16L53 17L52 17L52 14L54 14L54 13L52 13L52 10L53 10L53 12L55 12L55 13L56 13L56 12L55 12L55 11L54 11L54 10L53 10L53 9L52 9L52 8L50 8L50 9L48 9L48 8L47 8L47 7L48 7L48 4L49 4L49 5L50 5L50 4L49 4L49 3L48 3L48 4L47 4L47 3L44 3L44 1L41 1L41 2L40 2L40 1ZM20 2L20 3L21 3L21 5L22 5L22 6L23 6L23 7L24 7L24 6L23 6L23 5L22 5L22 3L23 3L23 2ZM42 2L42 3L39 3L39 4L36 4L36 5L34 5L34 7L35 7L35 8L36 8L36 10L37 10L37 9L38 9L38 10L39 10L39 11L38 11L38 12L37 12L37 11L35 11L35 14L36 14L36 13L37 13L37 14L38 14L38 15L40 15L40 10L41 10L41 15L44 15L44 17L45 17L45 15L46 15L46 14L43 14L43 13L42 13L42 11L44 11L44 13L45 13L45 11L46 11L46 10L43 10L43 9L40 9L40 10L39 10L39 9L38 9L38 8L37 8L37 6L38 6L38 7L39 7L39 8L40 8L40 7L41 7L41 6L40 6L40 7L39 7L39 6L38 6L38 5L39 5L39 4L40 4L40 5L43 5L43 6L42 6L42 8L43 8L43 6L44 6L44 9L45 9L45 4L44 4L44 3L43 3L43 2ZM28 3L28 4L30 4L30 3ZM51 3L51 4L52 4L52 3ZM43 4L43 5L44 5L44 4ZM18 5L18 7L19 7L19 5ZM29 5L29 8L32 8L32 5ZM36 5L36 6L35 6L35 7L36 7L36 6L37 6L37 5ZM46 5L46 7L47 7L47 5ZM26 6L26 8L27 8L27 6ZM30 6L30 7L31 7L31 6ZM49 6L49 7L50 7L50 6ZM12 8L12 10L13 10L13 8ZM50 9L50 10L49 10L49 11L48 11L48 10L47 10L47 11L48 11L48 12L47 12L47 15L48 15L48 17L47 17L47 19L46 19L46 18L43 18L43 16L41 16L41 17L40 17L40 16L39 16L39 17L38 17L38 16L37 16L37 15L34 15L34 10L33 10L33 15L32 15L32 13L31 13L31 16L34 16L34 17L33 17L33 19L34 19L34 17L35 17L35 16L36 16L36 17L38 17L38 19L39 19L39 20L40 20L40 18L42 18L42 20L43 20L43 19L44 19L44 21L41 21L41 22L40 22L40 23L42 23L42 24L43 24L43 23L44 23L44 25L45 25L45 24L46 24L46 25L47 25L47 24L48 24L48 25L49 25L49 24L51 24L51 25L50 25L50 27L51 27L51 26L52 26L52 25L53 25L53 23L52 23L52 21L50 21L50 19L51 19L51 18L52 18L52 17L51 17L51 14L52 14L52 13L50 13L50 12L51 12L51 11L50 11L50 10L52 10L52 9ZM14 10L14 13L15 13L15 15L16 15L16 13L17 13L17 16L18 16L18 17L20 17L20 18L19 18L19 19L20 19L20 20L21 20L21 19L20 19L20 18L21 18L21 17L23 17L23 19L22 19L22 20L23 20L23 19L24 19L24 20L25 20L25 21L22 21L22 23L21 23L21 24L20 24L20 25L18 25L18 26L19 26L19 27L20 27L20 26L21 26L21 27L23 27L23 28L24 28L24 27L23 27L23 26L25 26L25 25L26 25L26 26L27 26L27 27L25 27L25 28L26 28L26 29L22 29L22 28L21 28L21 29L20 29L20 31L22 31L22 32L23 32L23 33L24 33L24 34L26 34L26 33L27 33L27 32L24 32L24 31L27 31L27 30L26 30L26 29L27 29L27 27L32 27L32 26L31 26L31 25L30 25L30 26L28 26L28 25L27 25L27 24L26 24L26 23L25 23L25 25L22 25L22 26L21 26L21 24L23 24L23 22L26 22L26 21L27 21L27 22L28 22L28 21L29 21L29 20L30 20L30 19L28 19L28 16L29 16L29 18L30 18L30 16L29 16L29 15L28 15L28 14L25 14L25 13L22 13L22 11L21 11L21 10L20 10L20 11L19 11L19 12L18 12L18 11L17 11L17 10L16 10L16 13L15 13L15 10ZM28 10L28 11L27 11L27 12L26 12L26 13L28 13L28 12L29 12L29 14L30 14L30 12L29 12L29 10ZM31 10L31 12L32 12L32 10ZM58 10L58 11L59 11L59 10ZM3 11L3 12L4 12L4 11ZM11 11L11 12L12 12L12 13L13 13L13 11ZM20 12L20 13L21 13L21 14L20 14L20 15L22 15L22 16L23 16L23 17L24 17L24 18L25 18L25 20L26 20L26 18L27 18L27 17L26 17L26 18L25 18L25 17L24 17L24 15L23 15L23 14L22 14L22 13L21 13L21 12ZM38 12L38 13L39 13L39 12ZM18 13L18 15L19 15L19 13ZM49 13L49 18L48 18L48 19L47 19L47 21L46 21L46 20L45 20L45 21L46 21L46 22L45 22L45 23L47 23L47 22L48 22L48 23L50 23L50 22L48 22L48 19L50 19L50 13ZM55 14L55 15L56 15L56 14ZM26 15L26 16L27 16L27 15ZM12 16L12 17L13 17L13 18L14 18L14 17L13 17L13 16ZM20 16L20 17L21 17L21 16ZM31 17L31 18L32 18L32 17ZM39 17L39 18L40 18L40 17ZM3 18L3 19L4 19L4 18ZM31 19L31 20L32 20L32 21L31 21L31 22L29 22L29 23L28 23L28 24L30 24L30 23L32 23L32 24L34 24L34 25L33 25L33 26L34 26L34 25L35 25L35 23L36 23L36 22L35 22L35 23L34 23L34 21L33 21L33 20L32 20L32 19ZM7 20L7 21L8 21L8 22L7 22L7 23L8 23L8 22L9 22L9 21L8 21L8 20ZM20 21L20 22L21 22L21 21ZM32 21L32 23L33 23L33 21ZM4 22L4 23L5 23L5 22ZM56 22L56 23L57 23L57 24L58 24L58 23L57 23L57 22ZM10 25L10 26L11 26L11 25ZM54 27L54 28L55 28L55 27ZM45 28L45 29L46 29L46 31L47 31L47 29L46 29L46 28ZM5 29L5 32L8 32L8 29ZM12 29L12 30L10 30L10 31L12 31L12 32L11 32L11 33L12 33L12 32L13 32L13 34L15 34L15 35L13 35L13 36L15 36L15 35L16 35L16 34L18 34L18 33L20 33L20 35L21 35L21 36L22 36L22 35L23 35L23 34L22 34L22 33L20 33L20 32L19 32L19 30L17 30L17 31L16 31L16 29ZM21 29L21 30L22 30L22 29ZM29 29L29 32L32 32L32 29ZM53 29L53 32L56 32L56 29ZM0 30L0 31L1 31L1 32L2 32L2 33L0 33L0 34L2 34L2 33L3 33L3 30ZM6 30L6 31L7 31L7 30ZM14 30L14 31L13 31L13 32L15 32L15 33L18 33L18 32L15 32L15 30ZM30 30L30 31L31 31L31 30ZM51 30L51 31L52 31L52 30ZM54 30L54 31L55 31L55 30ZM35 31L35 32L36 32L36 33L37 33L37 31ZM43 31L43 32L44 32L44 31ZM50 32L50 33L51 33L51 32ZM6 33L6 34L7 34L7 33ZM0 35L0 36L1 36L1 35ZM17 35L17 36L16 36L16 37L12 37L12 36L11 36L11 37L10 37L10 38L11 38L11 37L12 37L12 38L13 38L13 40L16 40L16 41L15 41L15 44L14 44L14 45L15 45L15 44L16 44L16 45L17 45L17 44L18 44L18 43L16 43L16 41L17 41L17 42L19 42L19 41L21 41L21 40L18 40L18 41L17 41L17 40L16 40L16 39L18 39L18 38L16 38L16 37L20 37L20 36L18 36L18 35ZM4 36L4 37L5 37L5 36ZM28 36L28 37L29 37L29 36ZM30 36L30 38L31 38L31 36ZM52 36L52 37L53 37L53 36ZM14 38L14 39L16 39L16 38ZM11 39L11 40L12 40L12 39ZM49 39L49 41L48 41L48 42L49 42L49 43L50 43L50 39ZM52 40L52 41L53 41L53 40ZM12 41L12 42L13 42L13 41ZM22 42L22 43L23 43L23 42ZM55 43L55 44L56 44L56 43ZM25 44L25 45L24 45L24 46L23 46L23 45L22 45L22 46L23 46L23 47L24 47L24 49L23 49L23 48L22 48L22 47L21 47L21 49L20 49L20 48L18 48L18 49L19 49L19 51L20 51L20 52L22 52L22 50L21 50L21 49L23 49L23 51L24 51L24 52L25 52L25 50L24 50L24 49L25 49L25 47L24 47L24 46L26 46L26 45L27 45L27 44ZM60 44L60 45L61 45L61 44ZM50 45L50 47L51 47L51 45ZM55 45L55 46L56 46L56 45ZM14 46L14 47L18 47L18 46ZM44 46L44 47L45 47L45 46ZM38 47L38 48L39 48L39 47ZM42 47L42 48L43 48L43 50L44 50L44 51L45 51L45 50L44 50L44 48L43 48L43 47ZM15 48L15 49L16 49L16 48ZM7 49L7 50L8 50L8 49ZM16 50L16 51L15 51L15 52L16 52L16 53L14 53L14 55L15 55L15 56L16 56L16 57L18 57L18 56L19 56L19 54L18 54L18 53L19 53L19 52L17 52L17 51L18 51L18 50ZM3 51L3 52L4 52L4 51ZM12 51L12 52L13 52L13 51ZM32 51L32 52L33 52L33 51ZM51 51L51 52L50 52L50 53L51 53L51 54L52 54L52 52L53 52L53 51ZM43 52L43 53L44 53L44 52ZM16 53L16 55L18 55L18 54L17 54L17 53ZM22 53L22 54L26 54L26 53ZM29 53L29 56L32 56L32 53ZM53 53L53 56L56 56L56 53ZM12 54L12 56L13 56L13 54ZM30 54L30 55L31 55L31 54ZM54 54L54 55L55 55L55 54ZM57 54L57 56L58 56L58 54ZM42 55L42 57L43 57L43 58L45 58L45 57L44 57L44 56L43 56L43 55ZM50 55L50 56L51 56L51 59L52 59L52 55ZM24 56L24 57L25 57L25 56ZM33 56L33 57L34 57L34 56ZM30 57L30 59L31 59L31 58L32 58L32 59L33 59L33 58L32 58L32 57ZM39 57L39 58L40 58L40 57ZM53 57L53 58L55 58L55 57ZM56 57L56 59L57 59L57 57ZM59 57L59 58L60 58L60 57ZM41 58L41 59L42 59L42 58ZM21 60L21 61L22 61L22 60ZM0 0L0 7L7 7L7 0ZM1 1L1 6L6 6L6 1ZM2 2L2 5L5 5L5 2ZM54 0L54 7L61 7L61 0ZM55 1L55 6L60 6L60 1ZM56 2L56 5L59 5L59 2ZM0 54L0 61L7 61L7 54ZM1 55L1 60L6 60L6 55ZM2 56L2 59L5 59L5 56Z" fill="#000000"/></g></g></svg>
