<?xml version="1.0" encoding="UTF-8"?>
<svg xmlns="http://www.w3.org/2000/svg" version="1.1" width="300" height="300" viewBox="0 0 300 300"><rect x="0" y="0" width="300" height="300" fill="#ffffff"/><g transform="scale(4.918)"><g transform="translate(0,0)"><path fill-rule="evenodd" d="M16 0L16 1L15 1L15 2L16 2L16 3L15 3L15 4L14 4L14 3L13 3L13 2L14 2L14 1L13 1L13 2L12 2L12 3L13 3L13 4L14 4L14 5L13 5L13 6L12 6L12 10L11 10L11 6L10 6L10 7L9 7L9 5L8 5L8 7L9 7L9 8L6 8L6 9L7 9L7 10L6 10L6 11L5 11L5 8L0 8L0 9L3 9L3 10L1 10L1 11L0 11L0 12L1 12L1 13L0 13L0 16L2 16L2 17L1 17L1 18L0 18L0 19L1 19L1 20L2 20L2 19L1 19L1 18L3 18L3 20L5 20L5 21L3 21L3 24L1 24L1 23L2 23L2 21L1 21L1 22L0 22L0 27L1 27L1 29L0 29L0 33L1 33L1 29L2 29L2 30L3 30L3 31L2 31L2 32L3 32L3 31L4 31L4 33L2 33L2 35L1 35L1 34L0 34L0 35L1 35L1 36L0 36L0 38L1 38L1 36L2 36L2 35L4 35L4 36L3 36L3 37L2 37L2 39L1 39L1 40L0 40L0 46L1 46L1 48L4 48L4 49L3 49L3 50L2 50L2 51L0 51L0 53L4 53L4 52L5 52L5 51L7 51L7 52L6 52L6 53L8 53L8 55L9 55L9 56L8 56L8 61L9 61L9 60L10 60L10 61L12 61L12 60L13 60L13 61L17 61L17 60L16 60L16 59L18 59L18 61L20 61L20 60L21 60L21 59L20 59L20 58L19 58L19 57L18 57L18 56L16 56L16 55L18 55L18 54L16 54L16 53L17 53L17 52L18 52L18 53L19 53L19 54L20 54L20 55L21 55L21 56L22 56L22 55L23 55L23 53L22 53L22 52L23 52L23 51L24 51L24 52L25 52L25 53L24 53L24 54L25 54L25 55L24 55L24 56L25 56L25 57L24 57L24 58L25 58L25 57L26 57L26 58L27 58L27 59L26 59L26 60L28 60L28 59L30 59L30 61L32 61L32 60L33 60L33 61L34 61L34 58L33 58L33 59L32 59L32 58L31 58L31 57L37 57L37 56L34 56L34 55L35 55L35 54L37 54L37 55L39 55L39 56L38 56L38 57L39 57L39 56L41 56L41 58L45 58L45 59L44 59L44 60L45 60L45 61L49 61L49 60L51 60L51 61L52 61L52 60L53 60L53 61L54 61L54 60L55 60L55 59L56 59L56 61L57 61L57 59L56 59L56 58L59 58L59 56L61 56L61 54L59 54L59 56L58 56L58 57L57 57L57 53L59 53L59 52L57 52L57 51L58 51L58 50L59 50L59 51L61 51L61 50L59 50L59 49L61 49L61 48L60 48L60 47L61 47L61 46L60 46L60 45L61 45L61 42L60 42L60 39L61 39L61 38L58 38L58 37L59 37L59 36L60 36L60 37L61 37L61 34L58 34L58 33L61 33L61 30L59 30L59 32L58 32L58 30L57 30L57 29L61 29L61 26L60 26L60 24L58 24L58 25L57 25L57 26L58 26L58 25L59 25L59 28L57 28L57 27L56 27L56 24L57 24L57 23L61 23L61 22L58 22L58 21L59 21L59 20L57 20L57 19L61 19L61 18L59 18L59 16L61 16L61 14L59 14L59 16L58 16L58 18L57 18L57 17L56 17L56 16L57 16L57 15L56 15L56 16L53 16L53 15L54 15L54 14L55 14L55 13L56 13L56 14L57 14L57 13L59 13L59 12L60 12L60 11L61 11L61 10L60 10L60 11L59 11L59 9L60 9L60 8L59 8L59 9L58 9L58 8L57 8L57 9L56 9L56 8L55 8L55 9L54 9L54 8L52 8L52 7L53 7L53 6L52 6L52 7L51 7L51 5L52 5L52 4L53 4L53 0L51 0L51 2L50 2L50 3L46 3L46 2L47 2L47 1L46 1L46 0L44 0L44 1L45 1L45 2L44 2L44 3L45 3L45 4L44 4L44 7L43 7L43 6L42 6L42 5L43 5L43 0L39 0L39 1L38 1L38 3L40 3L40 1L41 1L41 4L39 4L39 5L36 5L36 7L37 7L37 6L38 6L38 8L41 8L41 6L42 6L42 7L43 7L43 8L46 8L46 7L47 7L47 6L48 6L48 7L49 7L49 8L47 8L47 9L49 9L49 12L48 12L48 13L47 13L47 14L46 14L46 16L45 16L45 15L44 15L44 16L45 16L45 17L44 17L44 19L42 19L42 22L41 22L41 21L40 21L40 22L37 22L37 21L39 21L39 20L40 20L40 19L41 19L41 18L43 18L43 17L40 17L40 16L41 16L41 15L42 15L42 14L43 14L43 13L42 13L42 14L41 14L41 13L40 13L40 12L41 12L41 11L42 11L42 12L46 12L46 11L48 11L48 10L46 10L46 11L42 11L42 10L43 10L43 9L40 9L40 10L38 10L38 9L37 9L37 8L35 8L35 5L33 5L33 4L32 4L32 1L33 1L33 3L35 3L35 4L37 4L37 3L36 3L36 2L35 2L35 1L37 1L37 0L35 0L35 1L33 1L33 0L30 0L30 1L29 1L29 2L27 2L27 4L26 4L26 3L25 3L25 4L21 4L21 1L20 1L20 3L17 3L17 0ZM22 0L22 3L23 3L23 2L26 2L26 1L27 1L27 0L26 0L26 1L25 1L25 0ZM48 0L48 2L49 2L49 1L50 1L50 0ZM8 1L8 2L9 2L9 1ZM10 1L10 2L11 2L11 1ZM18 1L18 2L19 2L19 1ZM30 1L30 2L31 2L31 1ZM8 3L8 4L9 4L9 3ZM10 3L10 4L11 4L11 3ZM29 3L29 4L31 4L31 3ZM51 3L51 4L52 4L52 3ZM15 4L15 5L14 5L14 6L13 6L13 8L14 8L14 9L15 9L15 10L17 10L17 11L16 11L16 12L15 12L15 11L14 11L14 10L13 10L13 11L14 11L14 13L12 13L12 14L13 14L13 15L12 15L12 16L11 16L11 14L10 14L10 12L9 12L9 11L8 11L8 10L9 10L9 9L10 9L10 8L9 8L9 9L8 9L8 10L7 10L7 11L6 11L6 12L5 12L5 11L4 11L4 10L3 10L3 12L2 12L2 11L1 11L1 12L2 12L2 13L1 13L1 15L3 15L3 14L5 14L5 13L6 13L6 14L7 14L7 15L6 15L6 16L7 16L7 17L5 17L5 18L4 18L4 17L3 17L3 18L4 18L4 19L5 19L5 18L7 18L7 17L8 17L8 18L9 18L9 19L6 19L6 20L8 20L8 21L9 21L9 22L10 22L10 23L6 23L6 24L7 24L7 25L6 25L6 26L5 26L5 25L4 25L4 24L3 24L3 25L4 25L4 26L5 26L5 27L6 27L6 28L7 28L7 27L9 27L9 28L10 28L10 29L9 29L9 30L10 30L10 29L12 29L12 30L11 30L11 31L10 31L10 32L9 32L9 33L10 33L10 34L8 34L8 33L6 33L6 34L5 34L5 33L4 33L4 35L6 35L6 36L7 36L7 37L5 37L5 36L4 36L4 37L5 37L5 38L4 38L4 40L5 40L5 42L7 42L7 43L3 43L3 44L5 44L5 46L4 46L4 45L3 45L3 46L2 46L2 47L3 47L3 46L4 46L4 48L7 48L7 49L4 49L4 50L7 50L7 49L8 49L8 50L9 50L9 51L8 51L8 53L9 53L9 51L10 51L10 52L11 52L11 53L14 53L14 56L15 56L15 57L11 57L11 59L12 59L12 58L18 58L18 59L19 59L19 58L18 58L18 57L16 57L16 56L15 56L15 53L16 53L16 52L17 52L17 50L19 50L19 51L21 51L21 50L22 50L22 49L27 49L27 50L25 50L25 51L26 51L26 53L27 53L27 54L26 54L26 55L27 55L27 56L26 56L26 57L27 57L27 56L28 56L28 53L27 53L27 52L31 52L31 51L32 51L32 52L34 52L34 51L32 51L32 50L36 50L36 52L35 52L35 53L33 53L33 54L35 54L35 53L36 53L36 52L37 52L37 54L39 54L39 53L40 53L40 55L41 55L41 56L44 56L44 57L45 57L45 58L47 58L47 59L45 59L45 60L49 60L49 59L50 59L50 58L51 58L51 59L53 59L53 60L54 60L54 59L55 59L55 58L54 58L54 57L53 57L53 58L52 58L52 57L51 57L51 56L52 56L52 55L50 55L50 56L49 56L49 54L51 54L51 53L50 53L50 52L52 52L52 51L53 51L53 50L55 50L55 49L54 49L54 48L57 48L57 49L56 49L56 50L57 50L57 49L58 49L58 48L59 48L59 47L58 47L58 48L57 48L57 47L54 47L54 48L53 48L53 49L51 49L51 48L52 48L52 47L53 47L53 45L54 45L54 44L55 44L55 45L56 45L56 46L57 46L57 45L56 45L56 44L59 44L59 45L58 45L58 46L59 46L59 45L60 45L60 44L59 44L59 43L60 43L60 42L58 42L58 41L56 41L56 39L54 39L54 37L52 37L52 38L51 38L51 37L50 37L50 36L52 36L52 35L53 35L53 36L55 36L55 38L57 38L57 37L56 37L56 36L59 36L59 35L58 35L58 34L57 34L57 33L53 33L53 34L52 34L52 35L50 35L50 34L51 34L51 33L52 33L52 32L51 32L51 31L52 31L52 29L50 29L50 30L47 30L47 29L45 29L45 28L44 28L44 27L45 27L45 26L47 26L47 27L46 27L46 28L47 28L47 27L48 27L48 28L49 28L49 27L50 27L50 28L51 28L51 27L52 27L52 28L56 28L56 27L55 27L55 26L53 26L53 25L55 25L55 24L53 24L53 23L55 23L55 22L54 22L54 21L52 21L52 18L53 18L53 19L54 19L54 20L55 20L55 21L56 21L56 23L57 23L57 20L56 20L56 19L57 19L57 18L56 18L56 17L55 17L55 18L53 18L53 17L50 17L50 16L52 16L52 15L50 15L50 14L54 14L54 13L55 13L55 12L54 12L54 11L57 11L57 12L56 12L56 13L57 13L57 12L59 12L59 11L57 11L57 10L58 10L58 9L57 9L57 10L56 10L56 9L55 9L55 10L54 10L54 11L53 11L53 9L52 9L52 11L51 11L51 9L50 9L50 8L49 8L49 9L50 9L50 14L49 14L49 13L48 13L48 14L47 14L47 15L48 15L48 16L46 16L46 18L47 18L47 17L48 17L48 18L49 18L49 19L48 19L48 20L50 20L50 22L49 22L49 21L47 21L47 20L46 20L46 19L45 19L45 20L43 20L43 22L42 22L42 23L41 23L41 22L40 22L40 23L41 23L41 24L39 24L39 25L38 25L38 26L39 26L39 27L37 27L37 25L34 25L34 26L32 26L32 25L33 25L33 22L36 22L36 20L37 20L37 19L38 19L38 20L39 20L39 19L38 19L38 18L39 18L39 16L40 16L40 15L41 15L41 14L40 14L40 15L39 15L39 16L37 16L37 15L38 15L38 14L39 14L39 12L40 12L40 11L41 11L41 10L40 10L40 11L38 11L38 10L37 10L37 9L36 9L36 11L35 11L35 12L34 12L34 11L33 11L33 10L32 10L32 12L30 12L30 13L31 13L31 14L32 14L32 15L31 15L31 16L29 16L29 15L30 15L30 14L29 14L29 13L28 13L28 12L29 12L29 11L26 11L26 13L25 13L25 11L24 11L24 10L23 10L23 11L22 11L22 10L21 10L21 11L22 11L22 12L21 12L21 13L20 13L20 14L19 14L19 13L16 13L16 12L17 12L17 11L18 11L18 12L19 12L19 11L20 11L20 10L19 10L19 11L18 11L18 10L17 10L17 9L18 9L18 8L17 8L17 9L16 9L16 8L15 8L15 7L16 7L16 6L15 6L15 5L17 5L17 7L18 7L18 5L19 5L19 4ZM20 4L20 5L21 5L21 4ZM25 4L25 5L23 5L23 7L22 7L22 6L21 6L21 7L20 7L20 6L19 6L19 9L25 9L25 10L26 10L26 9L27 9L27 10L30 10L30 9L27 9L27 8L28 8L28 6L27 6L27 5L28 5L28 4L27 4L27 5L26 5L26 4ZM41 4L41 5L39 5L39 7L40 7L40 6L41 6L41 5L42 5L42 4ZM46 4L46 5L48 5L48 4ZM25 5L25 6L24 6L24 8L25 8L25 9L26 9L26 7L27 7L27 6L26 6L26 5ZM29 5L29 8L32 8L32 5ZM49 5L49 7L50 7L50 5ZM14 6L14 7L15 7L15 6ZM25 6L25 7L26 7L26 6ZM30 6L30 7L31 7L31 6ZM33 6L33 9L34 9L34 10L35 10L35 8L34 8L34 6ZM45 6L45 7L46 7L46 6ZM44 9L44 10L45 10L45 9ZM7 11L7 12L6 12L6 13L7 13L7 14L8 14L8 15L7 15L7 16L8 16L8 17L9 17L9 16L10 16L10 19L9 19L9 21L10 21L10 22L11 22L11 23L10 23L10 24L12 24L12 25L9 25L9 24L8 24L8 25L7 25L7 26L6 26L6 27L7 27L7 26L8 26L8 25L9 25L9 27L10 27L10 28L11 28L11 27L12 27L12 28L13 28L13 30L12 30L12 31L13 31L13 30L14 30L14 32L10 32L10 33L12 33L12 34L10 34L10 35L9 35L9 37L12 37L12 38L10 38L10 39L13 39L13 40L8 40L8 41L9 41L9 42L8 42L8 43L7 43L7 44L6 44L6 45L7 45L7 46L5 46L5 47L7 47L7 48L10 48L10 49L9 49L9 50L10 50L10 51L12 51L12 52L14 52L14 53L15 53L15 52L16 52L16 51L14 51L14 50L13 50L13 51L12 51L12 50L10 50L10 49L12 49L12 48L10 48L10 47L7 47L7 46L8 46L8 45L9 45L9 44L8 44L8 43L9 43L9 42L11 42L11 43L10 43L10 45L11 45L11 43L12 43L12 44L13 44L13 43L12 43L12 42L11 42L11 41L13 41L13 42L14 42L14 40L15 40L15 42L16 42L16 41L17 41L17 42L18 42L18 43L19 43L19 44L18 44L18 45L19 45L19 46L15 46L15 47L14 47L14 45L17 45L17 43L16 43L16 44L15 44L15 43L14 43L14 45L13 45L13 46L11 46L11 47L14 47L14 49L15 49L15 50L16 50L16 49L15 49L15 48L16 48L16 47L19 47L19 48L18 48L18 49L19 49L19 50L20 50L20 49L21 49L21 46L20 46L20 45L21 45L21 42L23 42L23 41L19 41L19 39L21 39L21 38L20 38L20 37L22 37L22 38L23 38L23 37L22 37L22 36L24 36L24 35L25 35L25 37L24 37L24 38L25 38L25 39L24 39L24 40L25 40L25 41L24 41L24 43L23 43L23 44L24 44L24 43L25 43L25 44L26 44L26 43L25 43L25 41L26 41L26 42L27 42L27 43L29 43L29 41L28 41L28 42L27 42L27 41L26 41L26 38L27 38L27 39L29 39L29 40L30 40L30 41L31 41L31 42L30 42L30 43L31 43L31 44L30 44L30 45L29 45L29 47L30 47L30 49L32 49L32 47L33 47L33 45L37 45L37 44L39 44L39 46L38 46L38 47L39 47L39 50L38 50L38 49L37 49L37 48L36 48L36 50L37 50L37 51L39 51L39 52L40 52L40 51L39 51L39 50L40 50L40 48L41 48L41 51L42 51L42 54L43 54L43 55L44 55L44 56L45 56L45 55L46 55L46 57L47 57L47 58L48 58L48 59L49 59L49 58L48 58L48 57L49 57L49 56L48 56L48 55L46 55L46 54L45 54L45 53L44 53L44 52L43 52L43 51L45 51L45 52L46 52L46 53L49 53L49 52L48 52L48 51L52 51L52 50L50 50L50 47L51 47L51 46L50 46L50 44L47 44L47 43L49 43L49 42L50 42L50 43L53 43L53 41L54 41L54 43L55 43L55 44L56 44L56 43L55 43L55 42L56 42L56 41L54 41L54 40L53 40L53 39L52 39L52 40L51 40L51 38L50 38L50 40L47 40L47 39L46 39L46 38L44 38L44 37L43 37L43 35L42 35L42 38L41 38L41 37L39 37L39 36L40 36L40 34L43 34L43 32L45 32L45 33L44 33L44 34L45 34L45 33L47 33L47 32L48 32L48 33L49 33L49 34L50 34L50 33L49 33L49 32L50 32L50 31L51 31L51 30L50 30L50 31L49 31L49 32L48 32L48 31L47 31L47 30L45 30L45 29L44 29L44 31L43 31L43 32L41 32L41 31L42 31L42 30L43 30L43 28L42 28L42 30L41 30L41 31L40 31L40 30L38 30L38 31L40 31L40 32L38 32L38 33L37 33L37 32L35 32L35 33L37 33L37 34L36 34L36 35L34 35L34 36L33 36L33 37L35 37L35 36L36 36L36 38L37 38L37 39L39 39L39 40L38 40L38 41L39 41L39 40L41 40L41 39L42 39L42 40L43 40L43 41L41 41L41 42L38 42L38 43L37 43L37 40L35 40L35 38L32 38L32 35L33 35L33 31L35 31L35 30L36 30L36 31L37 31L37 28L36 28L36 26L34 26L34 28L31 28L31 27L32 27L32 26L31 26L31 25L32 25L32 24L31 24L31 23L32 23L32 22L33 22L33 21L32 21L32 22L31 22L31 21L29 21L29 20L32 20L32 18L33 18L33 17L32 17L32 18L28 18L28 17L29 17L29 16L27 16L27 17L26 17L26 18L27 18L27 19L29 19L29 20L27 20L27 21L26 21L26 19L25 19L25 17L22 17L22 16L24 16L24 15L22 15L22 14L25 14L25 15L26 15L26 14L27 14L27 15L28 15L28 13L26 13L26 14L25 14L25 13L21 13L21 14L20 14L20 15L22 15L22 16L17 16L17 17L21 17L21 18L20 18L20 19L21 19L21 18L22 18L22 19L24 19L24 20L25 20L25 21L24 21L24 23L22 23L22 22L23 22L23 21L22 21L22 20L19 20L19 19L17 19L17 22L15 22L15 24L14 24L14 27L12 27L12 25L13 25L13 23L14 23L14 20L16 20L16 19L15 19L15 18L16 18L16 17L15 17L15 18L14 18L14 17L12 17L12 18L11 18L11 16L10 16L10 15L9 15L9 14L8 14L8 13L9 13L9 12L8 12L8 11ZM11 11L11 12L12 12L12 11ZM23 11L23 12L24 12L24 11ZM52 11L52 12L51 12L51 13L53 13L53 11ZM3 12L3 13L4 13L4 12ZM32 12L32 14L33 14L33 15L37 15L37 13L38 13L38 12L35 12L35 13L36 13L36 14L34 14L34 13L33 13L33 12ZM14 13L14 14L15 14L15 13ZM44 13L44 14L45 14L45 13ZM18 14L18 15L19 15L19 14ZM48 14L48 15L49 15L49 14ZM4 15L4 16L5 16L5 15ZM8 15L8 16L9 16L9 15ZM13 15L13 16L14 16L14 15ZM15 15L15 16L16 16L16 15ZM35 16L35 17L36 17L36 18L34 18L34 21L35 21L35 19L36 19L36 18L37 18L37 16ZM48 16L48 17L49 17L49 18L50 18L50 20L51 20L51 18L50 18L50 17L49 17L49 16ZM12 18L12 19L14 19L14 18ZM10 20L10 21L13 21L13 20ZM45 20L45 21L44 21L44 22L45 22L45 23L44 23L44 24L45 24L45 25L44 25L44 26L45 26L45 25L46 25L46 24L45 24L45 23L47 23L47 22L46 22L46 20ZM6 21L6 22L7 22L7 21ZM18 21L18 23L16 23L16 24L18 24L18 25L16 25L16 27L14 27L14 28L16 28L16 27L17 27L17 26L18 26L18 25L19 25L19 26L20 26L20 27L19 27L19 28L21 28L21 29L20 29L20 31L17 31L17 32L16 32L16 31L15 31L15 32L16 32L16 33L14 33L14 36L13 36L13 34L12 34L12 37L14 37L14 39L15 39L15 37L14 37L14 36L16 36L16 35L15 35L15 34L16 34L16 33L18 33L18 34L20 34L20 36L19 36L19 35L17 35L17 36L19 36L19 37L16 37L16 38L17 38L17 39L18 39L18 38L19 38L19 37L20 37L20 36L21 36L21 34L22 34L22 35L24 35L24 34L22 34L22 33L27 33L27 34L28 34L28 35L27 35L27 36L26 36L26 37L25 37L25 38L26 38L26 37L27 37L27 38L31 38L31 39L32 39L32 40L31 40L31 41L33 41L33 39L32 39L32 38L31 38L31 37L30 37L30 36L29 36L29 33L27 33L27 32L26 32L26 31L27 31L27 30L28 30L28 29L27 29L27 28L29 28L29 27L31 27L31 26L30 26L30 25L31 25L31 24L30 24L30 23L28 23L28 22L29 22L29 21L28 21L28 22L27 22L27 24L26 24L26 23L24 23L24 24L20 24L20 23L21 23L21 21L20 21L20 23L19 23L19 21ZM25 21L25 22L26 22L26 21ZM4 22L4 23L5 23L5 22ZM48 22L48 23L49 23L49 24L47 24L47 26L50 26L50 27L51 27L51 26L52 26L52 25L53 25L53 24L52 24L52 23L51 23L51 22L50 22L50 23L49 23L49 22ZM34 23L34 24L37 24L37 23ZM19 24L19 25L20 25L20 24ZM25 24L25 25L21 25L21 27L23 27L23 26L25 26L25 25L26 25L26 26L27 26L27 25L26 25L26 24ZM28 24L28 27L29 27L29 24ZM41 24L41 25L39 25L39 26L40 26L40 28L38 28L38 29L40 29L40 28L41 28L41 25L42 25L42 26L43 26L43 25L42 25L42 24ZM50 25L50 26L51 26L51 25ZM1 26L1 27L2 27L2 29L3 29L3 26ZM10 26L10 27L11 27L11 26ZM24 27L24 28L25 28L25 29L21 29L21 32L20 32L20 33L21 33L21 32L23 32L23 31L22 31L22 30L25 30L25 29L26 29L26 30L27 30L27 29L26 29L26 28L27 28L27 27L26 27L26 28L25 28L25 27ZM17 28L17 29L14 29L14 30L19 30L19 29L18 29L18 28ZM34 28L34 30L35 30L35 28ZM5 29L5 32L8 32L8 29ZM29 29L29 32L32 32L32 29ZM53 29L53 32L56 32L56 29ZM6 30L6 31L7 31L7 30ZM30 30L30 31L31 31L31 30ZM54 30L54 31L55 31L55 30ZM24 31L24 32L25 32L25 31ZM46 31L46 32L47 32L47 31ZM18 32L18 33L19 33L19 32ZM40 32L40 33L41 33L41 32ZM30 33L30 34L31 34L31 33ZM38 33L38 34L39 34L39 33ZM6 34L6 35L7 35L7 34ZM25 34L25 35L26 35L26 34ZM46 34L46 35L44 35L44 36L45 36L45 37L47 37L47 38L48 38L48 37L49 37L49 36L50 36L50 35L49 35L49 36L48 36L48 37L47 37L47 36L46 36L46 35L47 35L47 34ZM54 34L54 35L55 35L55 34ZM56 34L56 35L57 35L57 34ZM36 35L36 36L39 36L39 35ZM7 37L7 38L5 38L5 39L7 39L7 38L8 38L8 37ZM37 37L37 38L39 38L39 39L41 39L41 38L39 38L39 37ZM42 38L42 39L44 39L44 38ZM57 39L57 40L59 40L59 39ZM1 40L1 42L2 42L2 41L3 41L3 40ZM6 40L6 41L7 41L7 40ZM17 40L17 41L18 41L18 40ZM44 40L44 43L45 43L45 42L48 42L48 41L47 41L47 40ZM50 40L50 42L51 42L51 40ZM52 40L52 41L53 41L53 40ZM34 41L34 42L35 42L35 41ZM19 42L19 43L20 43L20 42ZM31 42L31 43L32 43L32 44L31 44L31 45L30 45L30 46L31 46L31 47L32 47L32 46L31 46L31 45L32 45L32 44L33 44L33 43L32 43L32 42ZM41 42L41 43L43 43L43 42ZM57 42L57 43L58 43L58 42ZM34 43L34 44L37 44L37 43ZM39 43L39 44L40 44L40 47L41 47L41 46L42 46L42 47L43 47L43 48L42 48L42 49L43 49L43 50L42 50L42 51L43 51L43 50L44 50L44 49L45 49L45 51L46 51L46 52L47 52L47 51L48 51L48 50L49 50L49 49L48 49L48 48L49 48L49 47L50 47L50 46L49 46L49 47L48 47L48 46L47 46L47 44L42 44L42 45L41 45L41 44L40 44L40 43ZM1 44L1 45L2 45L2 44ZM19 44L19 45L20 45L20 44ZM27 44L27 45L26 45L26 48L27 48L27 47L28 47L28 46L27 46L27 45L28 45L28 44ZM51 44L51 45L52 45L52 44ZM22 45L22 47L23 47L23 48L24 48L24 47L25 47L25 45L24 45L24 47L23 47L23 45ZM42 45L42 46L43 46L43 45ZM44 45L44 46L45 46L45 47L44 47L44 48L45 48L45 47L47 47L47 48L48 48L48 47L47 47L47 46L45 46L45 45ZM34 46L34 49L35 49L35 47L36 47L36 46ZM19 48L19 49L20 49L20 48ZM28 48L28 49L29 49L29 48ZM0 49L0 50L1 50L1 49ZM27 50L27 51L28 51L28 50ZM30 50L30 51L31 51L31 50ZM46 50L46 51L47 51L47 50ZM3 51L3 52L4 52L4 51ZM54 51L54 52L55 52L55 51ZM19 52L19 53L20 53L20 54L21 54L21 55L22 55L22 54L21 54L21 52ZM60 52L60 53L61 53L61 52ZM29 53L29 56L32 56L32 53ZM43 53L43 54L44 54L44 53ZM53 53L53 56L56 56L56 53ZM11 54L11 55L10 55L10 56L13 56L13 55L12 55L12 54ZM30 54L30 55L31 55L31 54ZM54 54L54 55L55 55L55 54ZM9 57L9 59L10 59L10 57ZM21 57L21 58L23 58L23 57ZM29 57L29 58L30 58L30 59L31 59L31 60L32 60L32 59L31 59L31 58L30 58L30 57ZM60 57L60 60L58 60L58 61L61 61L61 57ZM36 58L36 59L37 59L37 58ZM38 58L38 59L39 59L39 58ZM13 59L13 60L14 60L14 59ZM23 59L23 60L25 60L25 59ZM40 59L40 60L38 60L38 61L40 61L40 60L41 60L41 61L42 61L42 60L43 60L43 59L42 59L42 60L41 60L41 59ZM35 60L35 61L37 61L37 60ZM0 0L0 7L7 7L7 0ZM1 1L1 6L6 6L6 1ZM2 2L2 5L5 5L5 2ZM54 0L54 7L61 7L61 0ZM55 1L55 6L60 6L60 1ZM56 2L56 5L59 5L59 2ZM0 54L0 61L7 61L7 54ZM1 55L1 60L6 60L6 55ZM2 56L2 59L5 59L5 56Z" fill="#000000"/></g></g></svg>
