<?xml version="1.0" encoding="UTF-8"?>
<svg xmlns="http://www.w3.org/2000/svg" version="1.1" width="300" height="300" viewBox="0 0 300 300"><rect x="0" y="0" width="300" height="300" fill="#ffffff"/><g transform="scale(4.918)"><g transform="translate(0,0)"><path fill-rule="evenodd" d="M8 0L8 1L10 1L10 2L9 2L9 3L10 3L10 4L9 4L9 6L8 6L8 8L9 8L9 12L8 12L8 13L9 13L9 12L10 12L10 13L11 13L11 12L12 12L12 14L14 14L14 15L15 15L15 18L13 18L13 17L14 17L14 16L13 16L13 15L12 15L12 17L11 17L11 14L8 14L8 15L7 15L7 14L6 14L6 13L7 13L7 12L6 12L6 13L5 13L5 12L4 12L4 10L5 10L5 11L7 11L7 10L5 10L5 8L3 8L3 9L4 9L4 10L3 10L3 12L2 12L2 11L1 11L1 10L0 10L0 11L1 11L1 12L0 12L0 13L1 13L1 14L2 14L2 15L3 15L3 17L2 17L2 16L1 16L1 15L0 15L0 16L1 16L1 17L0 17L0 18L1 18L1 17L2 17L2 18L3 18L3 24L0 24L0 28L1 28L1 29L2 29L2 28L1 28L1 25L3 25L3 26L2 26L2 27L5 27L5 25L7 25L7 24L4 24L4 22L5 22L5 23L7 23L7 22L5 22L5 21L4 21L4 20L6 20L6 21L8 21L8 23L10 23L10 22L12 22L12 26L10 26L10 25L11 25L11 24L9 24L9 25L8 25L8 26L9 26L9 27L8 27L8 28L3 28L3 33L2 33L2 32L1 32L1 30L0 30L0 33L1 33L1 34L2 34L2 35L3 35L3 34L4 34L4 35L7 35L7 36L6 36L6 37L4 37L4 36L2 36L2 37L3 37L3 38L2 38L2 39L0 39L0 40L1 40L1 41L0 41L0 43L2 43L2 44L0 44L0 47L2 47L2 46L1 46L1 45L2 45L2 44L4 44L4 45L3 45L3 48L2 48L2 49L1 49L1 48L0 48L0 49L1 49L1 50L2 50L2 51L0 51L0 53L4 53L4 52L5 52L5 51L8 51L8 49L9 49L9 51L10 51L10 52L12 52L12 53L11 53L11 54L10 54L10 53L9 53L9 52L6 52L6 53L8 53L8 54L9 54L9 55L11 55L11 56L8 56L8 58L9 58L9 59L8 59L8 61L9 61L9 60L10 60L10 61L16 61L16 60L18 60L18 61L19 61L19 60L18 60L18 59L20 59L20 58L21 58L21 55L19 55L19 54L20 54L20 53L19 53L19 52L20 52L20 50L21 50L21 51L23 51L23 52L24 52L24 51L23 51L23 50L25 50L25 53L24 53L24 56L25 56L25 53L26 53L26 56L27 56L27 59L29 59L29 58L31 58L31 59L30 59L30 61L31 61L31 59L32 59L32 61L37 61L37 60L36 60L36 59L37 59L37 58L35 58L35 57L38 57L38 58L40 58L40 57L41 57L41 60L40 60L40 59L39 59L39 60L38 60L38 61L42 61L42 60L43 60L43 59L42 59L42 58L44 58L44 61L45 61L45 59L47 59L47 60L46 60L46 61L47 61L47 60L48 60L48 61L49 61L49 60L48 60L48 59L49 59L49 57L50 57L50 58L51 58L51 59L52 59L52 60L53 60L53 61L54 61L54 60L55 60L55 61L58 61L58 60L60 60L60 61L61 61L61 57L60 57L60 55L61 55L61 54L60 54L60 53L61 53L61 50L60 50L60 48L61 48L61 46L60 46L60 48L59 48L59 47L58 47L58 46L59 46L59 45L57 45L57 44L58 44L58 43L59 43L59 44L60 44L60 45L61 45L61 42L58 42L58 43L57 43L57 42L56 42L56 44L54 44L54 45L53 45L53 44L52 44L52 42L53 42L53 43L55 43L55 41L54 41L54 42L53 42L53 41L52 41L52 39L51 39L51 37L52 37L52 35L50 35L50 38L49 38L49 39L51 39L51 40L48 40L48 39L47 39L47 38L46 38L46 37L45 37L45 35L44 35L44 34L43 34L43 33L44 33L44 31L45 31L45 30L47 30L47 32L48 32L48 33L49 33L49 34L52 34L52 33L55 33L55 34L54 34L54 35L55 35L55 36L57 36L57 37L56 37L56 38L55 38L55 37L54 37L54 36L53 36L53 39L57 39L57 41L59 41L59 39L61 39L61 38L59 38L59 39L58 39L58 38L57 38L57 37L58 37L58 36L59 36L59 37L61 37L61 36L60 36L60 35L61 35L61 34L60 34L60 35L59 35L59 34L58 34L58 33L57 33L57 32L58 32L58 31L59 31L59 33L61 33L61 32L60 32L60 31L61 31L61 30L60 30L60 31L59 31L59 29L60 29L60 28L61 28L61 26L60 26L60 25L57 25L57 24L60 24L60 23L61 23L61 22L60 22L60 23L59 23L59 21L58 21L58 19L59 19L59 20L60 20L60 21L61 21L61 18L60 18L60 17L61 17L61 14L59 14L59 13L60 13L60 12L59 12L59 11L61 11L61 10L59 10L59 9L58 9L58 10L59 10L59 11L57 11L57 10L56 10L56 12L55 12L55 13L54 13L54 11L53 11L53 10L55 10L55 8L54 8L54 9L52 9L52 8L47 8L47 6L48 6L48 7L49 7L49 6L50 6L50 7L51 7L51 5L52 5L52 4L53 4L53 0L51 0L51 2L49 2L49 1L50 1L50 0L45 0L45 1L46 1L46 2L47 2L47 3L46 3L46 4L45 4L45 2L44 2L44 0L41 0L41 1L43 1L43 2L42 2L42 3L43 3L43 2L44 2L44 4L45 4L45 5L46 5L46 4L47 4L47 6L46 6L46 7L45 7L45 6L44 6L44 7L45 7L45 10L44 10L44 12L43 12L43 11L41 11L41 10L43 10L43 9L44 9L44 8L43 8L43 9L41 9L41 5L43 5L43 4L41 4L41 2L39 2L39 3L38 3L38 5L37 5L37 3L36 3L36 5L37 5L37 6L36 6L36 7L37 7L37 8L35 8L35 6L34 6L34 7L33 7L33 4L32 4L32 3L33 3L33 1L32 1L32 0L30 0L30 1L29 1L29 0L27 0L27 1L26 1L26 0L24 0L24 1L22 1L22 0L19 0L19 1L18 1L18 0L14 0L14 1L13 1L13 2L12 2L12 0L11 0L11 1L10 1L10 0ZM34 0L34 2L36 2L36 1L37 1L37 2L38 2L38 1L40 1L40 0ZM14 1L14 2L13 2L13 3L11 3L11 2L10 2L10 3L11 3L11 7L12 7L12 8L10 8L10 9L12 9L12 10L11 10L11 11L13 11L13 13L14 13L14 14L15 14L15 13L14 13L14 11L15 11L15 10L16 10L16 14L17 14L17 16L16 16L16 19L17 19L17 20L16 20L16 21L15 21L15 19L13 19L13 18L8 18L8 17L9 17L9 15L8 15L8 16L7 16L7 15L6 15L6 14L5 14L5 17L4 17L4 19L6 19L6 20L8 20L8 21L9 21L9 22L10 22L10 19L12 19L12 20L11 20L11 21L15 21L15 22L16 22L16 21L17 21L17 22L19 22L19 21L20 21L20 20L19 20L19 19L17 19L17 17L18 17L18 18L20 18L20 19L21 19L21 20L22 20L22 19L21 19L21 18L23 18L23 19L26 19L26 18L24 18L24 17L26 17L26 16L28 16L28 15L29 15L29 14L30 14L30 13L31 13L31 15L33 15L33 17L36 17L36 18L38 18L38 19L39 19L39 20L40 20L40 19L41 19L41 20L42 20L42 17L43 17L43 18L44 18L44 16L45 16L45 15L44 15L44 16L42 16L42 15L43 15L43 14L42 14L42 12L41 12L41 11L40 11L40 10L41 10L41 9L40 9L40 5L41 5L41 4L40 4L40 5L39 5L39 10L37 10L37 9L38 9L38 8L37 8L37 9L36 9L36 10L35 10L35 11L34 11L34 12L35 12L35 13L33 13L33 12L32 12L32 11L31 11L31 12L30 12L30 11L29 11L29 12L28 12L28 9L27 9L27 7L28 7L28 4L31 4L31 3L32 3L32 1L31 1L31 3L30 3L30 2L29 2L29 1L27 1L27 7L26 7L26 4L25 4L25 3L24 3L24 2L23 2L23 4L25 4L25 7L24 7L24 6L23 6L23 5L21 5L21 7L22 7L22 8L20 8L20 9L19 9L19 7L20 7L20 6L19 6L19 4L22 4L22 2L21 2L21 1L20 1L20 2L21 2L21 3L19 3L19 2L18 2L18 1L16 1L16 2L17 2L17 3L19 3L19 4L13 4L13 3L15 3L15 1ZM47 1L47 2L48 2L48 3L49 3L49 2L48 2L48 1ZM28 2L28 3L29 3L29 2ZM51 3L51 4L52 4L52 3ZM12 4L12 7L13 7L13 8L14 8L14 7L15 7L15 6L14 6L14 7L13 7L13 4ZM48 4L48 5L49 5L49 4ZM29 5L29 8L32 8L32 5ZM9 6L9 7L10 7L10 6ZM16 6L16 7L17 7L17 6ZM18 6L18 7L19 7L19 6ZM22 6L22 7L23 7L23 8L22 8L22 9L23 9L23 11L27 11L27 10L25 10L25 9L26 9L26 7L25 7L25 9L23 9L23 8L24 8L24 7L23 7L23 6ZM30 6L30 7L31 7L31 6ZM37 6L37 7L38 7L38 6ZM42 6L42 7L43 7L43 6ZM52 6L52 7L53 7L53 6ZM0 8L0 9L2 9L2 8ZM6 8L6 9L7 9L7 8ZM15 8L15 9L16 9L16 10L17 10L17 9L18 9L18 12L17 12L17 13L19 13L19 12L21 12L21 11L22 11L22 10L21 10L21 9L20 9L20 10L19 10L19 9L18 9L18 8L17 8L17 9L16 9L16 8ZM33 8L33 9L31 9L31 10L34 10L34 8ZM46 8L46 9L47 9L47 8ZM60 8L60 9L61 9L61 8ZM13 9L13 10L14 10L14 9ZM29 9L29 10L30 10L30 9ZM51 9L51 10L52 10L52 9ZM48 10L48 12L49 12L49 13L46 13L46 17L45 17L45 18L46 18L46 19L44 19L44 21L43 21L43 22L42 22L42 21L41 21L41 22L40 22L40 21L39 21L39 22L38 22L38 20L37 20L37 19L36 19L36 20L37 20L37 21L35 21L35 22L38 22L38 23L36 23L36 24L34 24L34 22L33 22L33 21L34 21L34 20L35 20L35 18L34 18L34 19L32 19L32 17L31 17L31 16L30 16L30 17L27 17L27 18L28 18L28 20L23 20L23 21L22 21L22 23L21 23L21 22L20 22L20 23L19 23L19 27L18 27L18 26L17 26L17 24L18 24L18 23L15 23L15 24L13 24L13 26L15 26L15 27L16 27L16 28L15 28L15 29L16 29L16 28L19 28L19 29L18 29L18 30L19 30L19 31L18 31L18 32L17 32L17 31L16 31L16 30L15 30L15 31L12 31L12 32L14 32L14 33L13 33L13 35L12 35L12 33L11 33L11 34L10 34L10 35L9 35L9 33L10 33L10 32L9 32L9 33L6 33L6 34L8 34L8 35L9 35L9 37L6 37L6 38L11 38L11 37L12 37L12 36L13 36L13 37L14 37L14 38L16 38L16 39L15 39L15 41L14 41L14 39L13 39L13 42L10 42L10 41L9 41L9 40L11 40L11 39L9 39L9 40L8 40L8 39L5 39L5 38L4 38L4 41L3 41L3 42L4 42L4 43L5 43L5 40L8 40L8 41L6 41L6 42L7 42L7 43L6 43L6 44L7 44L7 45L4 45L4 46L7 46L7 47L6 47L6 48L7 48L7 47L8 47L8 46L7 46L7 45L10 45L10 46L9 46L9 47L11 47L11 48L9 48L9 49L10 49L10 50L11 50L11 51L12 51L12 50L11 50L11 49L12 49L12 48L14 48L14 46L15 46L15 45L14 45L14 44L16 44L16 45L17 45L17 46L18 46L18 47L19 47L19 45L21 45L21 46L23 46L23 45L25 45L25 46L24 46L24 47L26 47L26 46L27 46L27 44L31 44L31 45L30 45L30 46L31 46L31 47L30 47L30 48L29 48L29 45L28 45L28 47L27 47L27 48L29 48L29 49L28 49L28 50L29 50L29 51L26 51L26 52L29 52L29 51L31 51L31 50L33 50L33 53L35 53L35 51L36 51L36 52L38 52L38 49L34 49L34 48L33 48L33 44L35 44L35 46L37 46L37 47L36 47L36 48L41 48L41 49L39 49L39 51L40 51L40 53L41 53L41 52L42 52L42 51L43 51L43 53L44 53L44 56L43 56L43 54L41 54L41 56L43 56L43 57L44 57L44 58L45 58L45 57L46 57L46 55L45 55L45 53L44 53L44 52L45 52L45 51L46 51L46 52L47 52L47 51L48 51L48 52L49 52L49 53L48 53L48 54L50 54L50 55L48 55L48 56L50 56L50 57L51 57L51 58L52 58L52 59L53 59L53 57L51 57L51 56L50 56L50 55L51 55L51 54L52 54L52 53L51 53L51 52L49 52L49 51L48 51L48 50L50 50L50 49L46 49L46 48L45 48L45 49L44 49L44 47L43 47L43 46L45 46L45 44L46 44L46 45L47 45L47 42L49 42L49 41L48 41L48 40L46 40L46 41L47 41L47 42L46 42L46 43L44 43L44 42L45 42L45 41L44 41L44 42L42 42L42 41L43 41L43 40L42 40L42 39L43 39L43 38L42 38L42 37L43 37L43 36L42 36L42 37L39 37L39 34L40 34L40 36L41 36L41 33L43 33L43 30L44 30L44 28L45 28L45 29L47 29L47 30L49 30L49 29L47 29L47 28L50 28L50 27L47 27L47 26L48 26L48 24L49 24L49 26L50 26L50 25L51 25L51 26L52 26L52 27L51 27L51 28L54 28L54 27L56 27L56 28L57 28L57 26L56 26L56 24L54 24L54 23L56 23L56 22L58 22L58 21L57 21L57 19L58 19L58 18L59 18L59 19L60 19L60 18L59 18L59 17L60 17L60 16L59 16L59 17L57 17L57 18L56 18L56 19L55 19L55 18L54 18L54 17L56 17L56 16L57 16L57 14L58 14L58 15L59 15L59 14L58 14L58 13L59 13L59 12L58 12L58 13L56 13L56 15L55 15L55 14L54 14L54 13L53 13L53 12L52 12L52 11L50 11L50 12L49 12L49 10ZM35 11L35 12L36 12L36 13L38 13L38 14L36 14L36 15L37 15L37 16L36 16L36 17L37 17L37 16L38 16L38 17L40 17L40 15L42 15L42 14L41 14L41 12L40 12L40 11L39 11L39 13L38 13L38 11L37 11L37 12L36 12L36 11ZM1 12L1 13L2 13L2 14L4 14L4 13L2 13L2 12ZM22 12L22 14L23 14L23 15L22 15L22 16L23 16L23 17L24 17L24 14L25 14L25 15L26 15L26 14L25 14L25 13L24 13L24 12ZM26 12L26 13L28 13L28 12ZM29 12L29 13L30 13L30 12ZM51 12L51 13L50 13L50 14L48 14L48 15L47 15L47 17L46 17L46 18L47 18L47 19L48 19L48 18L49 18L49 20L48 20L48 21L46 21L46 20L45 20L45 23L44 23L44 24L43 24L43 25L42 25L42 26L43 26L43 27L42 27L42 28L41 28L41 30L38 30L38 28L39 28L39 29L40 29L40 25L41 25L41 24L42 24L42 23L41 23L41 24L40 24L40 25L39 25L39 23L40 23L40 22L39 22L39 23L38 23L38 24L36 24L36 25L38 25L38 26L37 26L37 27L38 27L38 28L35 28L35 27L36 27L36 26L35 26L35 27L34 27L34 28L31 28L31 26L32 26L32 25L34 25L34 24L33 24L33 22L31 22L31 21L32 21L32 20L31 20L31 18L30 18L30 19L29 19L29 20L28 20L28 21L29 21L29 20L31 20L31 21L30 21L30 22L26 22L26 25L27 25L27 24L31 24L31 25L30 25L30 26L29 26L29 25L28 25L28 26L25 26L25 25L24 25L24 24L25 24L25 23L24 23L24 22L25 22L25 21L24 21L24 22L23 22L23 24L22 24L22 26L25 26L25 27L24 27L24 28L23 28L23 27L22 27L22 28L23 28L23 29L24 29L24 30L21 30L21 32L18 32L18 33L17 33L17 32L16 32L16 34L17 34L17 35L16 35L16 36L17 36L17 35L18 35L18 37L17 37L17 39L16 39L16 41L15 41L15 43L16 43L16 42L19 42L19 43L18 43L18 45L19 45L19 44L22 44L22 45L23 45L23 44L24 44L24 43L25 43L25 45L26 45L26 43L30 43L30 41L34 41L34 42L33 42L33 43L32 43L32 42L31 42L31 43L32 43L32 44L33 44L33 43L34 43L34 42L35 42L35 40L33 40L33 39L34 39L34 37L35 37L35 38L36 38L36 39L37 39L37 40L36 40L36 43L37 43L37 42L38 42L38 39L41 39L41 38L39 38L39 37L38 37L38 36L36 36L36 35L35 35L35 32L34 32L34 31L33 31L33 30L37 30L37 32L36 32L36 34L37 34L37 35L38 35L38 34L39 34L39 33L41 33L41 30L43 30L43 29L42 29L42 28L44 28L44 25L45 25L45 26L46 26L46 25L47 25L47 24L48 24L48 21L49 21L49 22L51 22L51 23L49 23L49 24L53 24L53 26L55 26L55 25L54 25L54 24L53 24L53 23L52 23L52 22L55 22L55 21L56 21L56 20L55 20L55 19L54 19L54 18L53 18L53 17L54 17L54 16L55 16L55 15L54 15L54 16L53 16L53 14L52 14L52 12ZM20 13L20 14L21 14L21 13ZM44 13L44 14L45 14L45 13ZM18 14L18 15L19 15L19 14ZM27 14L27 15L28 15L28 14ZM33 14L33 15L34 15L34 14ZM38 14L38 16L39 16L39 14ZM51 14L51 15L50 15L50 16L49 16L49 15L48 15L48 16L49 16L49 18L50 18L50 19L53 19L53 20L52 20L52 21L55 21L55 20L54 20L54 19L53 19L53 18L51 18L51 17L50 17L50 16L51 16L51 15L52 15L52 14ZM20 15L20 16L18 16L18 17L20 17L20 16L21 16L21 15ZM6 16L6 17L5 17L5 18L6 18L6 19L7 19L7 18L6 18L6 17L7 17L7 16ZM41 16L41 17L42 17L42 16ZM39 18L39 19L40 19L40 18ZM1 20L1 21L0 21L0 23L2 23L2 22L1 22L1 21L2 21L2 20ZM17 20L17 21L19 21L19 20ZM30 22L30 23L31 23L31 24L32 24L32 23L31 23L31 22ZM46 22L46 23L45 23L45 25L46 25L46 23L47 23L47 22ZM15 24L15 25L16 25L16 24ZM20 25L20 26L21 26L21 25ZM6 26L6 27L7 27L7 26ZM16 26L16 27L17 27L17 26ZM28 26L28 27L27 27L27 30L26 30L26 28L24 28L24 29L25 29L25 30L24 30L24 32L23 32L23 31L22 31L22 32L21 32L21 34L23 34L23 35L20 35L20 36L19 36L19 37L18 37L18 39L17 39L17 41L19 41L19 40L20 40L20 43L21 43L21 42L22 42L22 44L23 44L23 40L24 40L24 41L25 41L25 42L26 42L26 41L25 41L25 40L24 40L24 39L25 39L25 38L24 38L24 37L26 37L26 40L27 40L27 37L26 37L26 36L27 36L27 35L26 35L26 34L27 34L27 33L28 33L28 27L29 27L29 26ZM9 27L9 28L10 28L10 27ZM11 27L11 28L14 28L14 27ZM19 27L19 28L20 28L20 27ZM46 27L46 28L47 28L47 27ZM59 27L59 28L60 28L60 27ZM5 29L5 32L8 32L8 29ZM9 29L9 30L11 30L11 29ZM12 29L12 30L14 30L14 29ZM19 29L19 30L20 30L20 29ZM29 29L29 32L32 32L32 29ZM50 29L50 31L51 31L51 32L52 32L52 30L51 30L51 29ZM53 29L53 32L56 32L56 29ZM6 30L6 31L7 31L7 30ZM25 30L25 33L23 33L23 32L22 32L22 33L23 33L23 34L24 34L24 36L21 36L21 37L20 37L20 38L21 38L21 37L22 37L22 39L21 39L21 40L23 40L23 37L24 37L24 36L26 36L26 35L25 35L25 34L26 34L26 30ZM30 30L30 31L31 31L31 30ZM54 30L54 31L55 31L55 30ZM57 30L57 31L58 31L58 30ZM48 31L48 32L49 32L49 31ZM33 32L33 33L32 33L32 34L31 34L31 33L30 33L30 34L28 34L28 35L32 35L32 36L33 36L33 35L34 35L34 34L33 34L33 33L34 33L34 32ZM45 32L45 34L46 34L46 36L47 36L47 35L48 35L48 34L47 34L47 33L46 33L46 32ZM4 33L4 34L5 34L5 33ZM18 33L18 35L19 35L19 34L20 34L20 33ZM14 34L14 35L13 35L13 36L14 36L14 37L15 37L15 34ZM42 34L42 35L43 35L43 34ZM56 34L56 35L57 35L57 34ZM11 35L11 36L10 36L10 37L11 37L11 36L12 36L12 35ZM0 36L0 38L1 38L1 36ZM29 36L29 40L28 40L28 41L27 41L27 42L29 42L29 41L30 41L30 40L31 40L31 39L30 39L30 38L32 38L32 37L30 37L30 36ZM48 36L48 37L49 37L49 36ZM36 37L36 38L37 38L37 39L38 39L38 38L37 38L37 37ZM44 37L44 40L45 40L45 37ZM41 40L41 41L39 41L39 42L40 42L40 43L38 43L38 44L36 44L36 45L37 45L37 46L38 46L38 47L40 47L40 46L41 46L41 45L42 45L42 46L43 46L43 45L44 45L44 43L42 43L42 42L41 42L41 41L42 41L42 40ZM1 41L1 42L2 42L2 41ZM8 41L8 43L10 43L10 44L12 44L12 45L13 45L13 44L14 44L14 43L13 43L13 44L12 44L12 43L10 43L10 42L9 42L9 41ZM50 41L50 43L48 43L48 44L50 44L50 45L51 45L51 41ZM41 43L41 44L42 44L42 45L43 45L43 44L42 44L42 43ZM31 45L31 46L32 46L32 45ZM48 46L48 47L47 47L47 48L49 48L49 47L50 47L50 48L51 48L51 46ZM52 46L52 49L51 49L51 50L52 50L52 49L53 49L53 48L56 48L56 49L54 49L54 50L56 50L56 51L52 51L52 52L57 52L57 51L59 51L59 53L60 53L60 51L59 51L59 48L58 48L58 47L57 47L57 46L56 46L56 47L54 47L54 46ZM16 47L16 48L17 48L17 50L16 50L16 52L17 52L17 53L18 53L18 54L19 54L19 53L18 53L18 52L19 52L19 51L17 51L17 50L18 50L18 48L17 48L17 47ZM20 47L20 49L19 49L19 50L20 50L20 49L22 49L22 48L21 48L21 47ZM31 47L31 48L30 48L30 49L29 49L29 50L30 50L30 49L31 49L31 48L32 48L32 47ZM41 47L41 48L42 48L42 49L41 49L41 50L40 50L40 51L41 51L41 50L43 50L43 48L42 48L42 47ZM3 48L3 50L4 50L4 48ZM24 48L24 49L25 49L25 50L27 50L27 49L25 49L25 48ZM57 48L57 49L56 49L56 50L57 50L57 49L58 49L58 48ZM5 49L5 50L7 50L7 49ZM14 49L14 50L13 50L13 51L15 51L15 49ZM33 49L33 50L34 50L34 51L35 51L35 50L34 50L34 49ZM45 49L45 50L44 50L44 51L45 51L45 50L46 50L46 49ZM36 50L36 51L37 51L37 50ZM3 51L3 52L4 52L4 51ZM14 52L14 54L13 54L13 53L12 53L12 54L11 54L11 55L12 55L12 56L14 56L14 57L13 57L13 58L16 58L16 57L18 57L18 56L17 56L17 55L16 55L16 53L15 53L15 52ZM27 53L27 56L28 56L28 53ZM29 53L29 56L32 56L32 53ZM36 53L36 54L37 54L37 55L35 55L35 54L34 54L34 55L33 55L33 56L34 56L34 57L35 57L35 56L37 56L37 55L40 55L40 54L39 54L39 53ZM53 53L53 56L56 56L56 53ZM12 54L12 55L13 55L13 54ZM14 54L14 55L15 55L15 57L16 57L16 55L15 55L15 54ZM30 54L30 55L31 55L31 54ZM54 54L54 55L55 55L55 54ZM57 54L57 55L58 55L58 56L57 56L57 57L56 57L56 58L55 58L55 60L56 60L56 58L57 58L57 57L59 57L59 58L58 58L58 59L59 59L59 58L60 58L60 57L59 57L59 55L60 55L60 54L59 54L59 55L58 55L58 54ZM22 56L22 57L23 57L23 56ZM39 56L39 57L40 57L40 56ZM9 57L9 58L12 58L12 57ZM19 57L19 58L20 58L20 57ZM24 57L24 58L23 58L23 59L21 59L21 60L22 60L22 61L24 61L24 60L25 60L25 61L29 61L29 60L25 60L25 59L26 59L26 58L25 58L25 57ZM28 57L28 58L29 58L29 57ZM32 57L32 59L33 59L33 57ZM24 58L24 59L23 59L23 60L24 60L24 59L25 59L25 58ZM34 58L34 60L35 60L35 58ZM47 58L47 59L48 59L48 58ZM10 59L10 60L13 60L13 59ZM50 60L50 61L51 61L51 60ZM0 0L0 7L7 7L7 0ZM1 1L1 6L6 6L6 1ZM2 2L2 5L5 5L5 2ZM54 0L54 7L61 7L61 0ZM55 1L55 6L60 6L60 1ZM56 2L56 5L59 5L59 2ZM0 54L0 61L7 61L7 54ZM1 55L1 60L6 60L6 55ZM2 56L2 59L5 59L5 56Z" fill="#000000"/></g></g></svg>
