<?xml version="1.0" encoding="UTF-8"?>
<svg xmlns="http://www.w3.org/2000/svg" version="1.1" width="300" height="300" viewBox="0 0 300 300"><rect x="0" y="0" width="300" height="300" fill="#ffffff"/><g transform="scale(4.918)"><g transform="translate(0,0)"><path fill-rule="evenodd" d="M10 0L10 1L8 1L8 2L9 2L9 3L8 3L8 4L9 4L9 5L8 5L8 7L9 7L9 8L6 8L6 9L9 9L9 8L10 8L10 7L11 7L11 8L12 8L12 9L10 9L10 10L9 10L9 11L10 11L10 13L9 13L9 14L6 14L6 15L7 15L7 16L5 16L5 15L4 15L4 14L5 14L5 12L6 12L6 13L7 13L7 12L8 12L8 10L5 10L5 8L0 8L0 9L1 9L1 10L0 10L0 13L3 13L3 11L2 11L2 12L1 12L1 10L3 10L3 9L4 9L4 14L3 14L3 15L0 15L0 21L1 21L1 23L0 23L0 25L1 25L1 24L4 24L4 25L2 25L2 26L5 26L5 24L6 24L6 25L7 25L7 24L8 24L8 25L9 25L9 27L11 27L11 28L12 28L12 27L11 27L11 26L15 26L15 27L16 27L16 28L13 28L13 29L14 29L14 30L13 30L13 32L9 32L9 31L12 31L12 30L9 30L9 28L8 28L8 27L7 27L7 26L6 26L6 27L5 27L5 28L4 28L4 27L3 27L3 28L2 28L2 27L0 27L0 28L1 28L1 30L0 30L0 32L1 32L1 33L2 33L2 34L0 34L0 35L2 35L2 37L0 37L0 38L1 38L1 40L0 40L0 43L1 43L1 45L2 45L2 46L0 46L0 48L1 48L1 49L0 49L0 50L2 50L2 51L0 51L0 53L4 53L4 52L5 52L5 51L7 51L7 52L6 52L6 53L7 53L7 52L9 52L9 51L11 51L11 52L10 52L10 53L8 53L8 55L10 55L10 56L8 56L8 61L10 61L10 59L9 59L9 58L10 58L10 57L11 57L11 58L12 58L12 59L13 59L13 57L14 57L14 59L16 59L16 58L15 58L15 57L17 57L17 59L18 59L18 58L20 58L20 59L19 59L19 60L14 60L14 61L21 61L21 60L25 60L25 61L26 61L26 60L30 60L30 59L31 59L31 57L32 57L32 58L33 58L33 59L32 59L32 60L33 60L33 61L36 61L36 60L38 60L38 61L39 61L39 60L41 60L41 61L44 61L44 60L46 60L46 61L50 61L50 60L51 60L51 61L52 61L52 60L51 60L51 58L50 58L50 60L48 60L48 59L49 59L49 58L48 58L48 59L47 59L47 58L46 58L46 59L45 59L45 57L44 57L44 56L45 56L45 55L48 55L48 54L50 54L50 55L49 55L49 56L47 56L47 57L49 57L49 56L50 56L50 55L52 55L52 56L51 56L51 57L52 57L52 58L54 58L54 57L56 57L56 58L55 58L55 59L53 59L53 60L55 60L55 59L56 59L56 61L61 61L61 57L60 57L60 56L58 56L58 57L60 57L60 60L58 60L58 59L56 59L56 58L57 58L57 52L58 52L58 53L59 53L59 52L61 52L61 50L59 50L59 52L58 52L58 51L57 51L57 52L53 52L53 51L55 51L55 49L57 49L57 48L54 48L54 47L59 47L59 48L61 48L61 46L58 46L58 45L59 45L59 44L60 44L60 45L61 45L61 41L60 41L60 40L57 40L57 39L61 39L61 38L58 38L58 37L60 37L60 35L61 35L61 34L58 34L58 33L61 33L61 32L58 32L58 31L59 31L59 29L61 29L61 28L58 28L58 29L57 29L57 27L56 27L56 24L57 24L57 23L59 23L59 24L58 24L58 25L57 25L57 26L59 26L59 27L61 27L61 26L60 26L60 25L61 25L61 22L58 22L58 21L60 21L60 20L58 20L58 19L59 19L59 16L58 16L58 15L59 15L59 14L60 14L60 15L61 15L61 14L60 14L60 13L59 13L59 12L60 12L60 11L61 11L61 10L60 10L60 11L59 11L59 12L57 12L57 11L58 11L58 10L59 10L59 9L60 9L60 8L59 8L59 9L58 9L58 8L57 8L57 9L56 9L56 8L55 8L55 9L54 9L54 8L53 8L53 6L52 6L52 9L53 9L53 10L52 10L52 12L51 12L51 13L53 13L53 14L52 14L52 15L53 15L53 16L50 16L50 17L53 17L53 18L52 18L52 20L51 20L51 18L50 18L50 19L49 19L49 18L48 18L48 19L49 19L49 20L46 20L46 19L47 19L47 18L45 18L45 17L47 17L47 16L46 16L46 15L48 15L48 14L50 14L50 15L51 15L51 14L50 14L50 12L48 12L48 13L47 13L47 12L46 12L46 11L45 11L45 9L44 9L44 8L45 8L45 6L46 6L46 7L47 7L47 11L50 11L50 9L51 9L51 5L52 5L52 4L53 4L53 0L51 0L51 2L50 2L50 0L48 0L48 1L46 1L46 0L45 0L45 2L44 2L44 1L43 1L43 0L42 0L42 1L43 1L43 2L40 2L40 1L41 1L41 0L39 0L39 1L38 1L38 0L35 0L35 2L34 2L34 3L33 3L33 2L32 2L32 3L33 3L33 4L29 4L29 3L28 3L28 2L29 2L29 1L33 1L33 0L29 0L29 1L27 1L27 0L26 0L26 1L25 1L25 4L24 4L24 5L27 5L27 6L26 6L26 7L25 7L25 6L24 6L24 8L26 8L26 7L27 7L27 6L28 6L28 8L27 8L27 11L28 11L28 12L27 12L27 13L26 13L26 14L27 14L27 15L30 15L30 16L29 16L29 17L26 17L26 15L25 15L25 13L24 13L24 14L23 14L23 13L22 13L22 14L20 14L20 13L21 13L21 12L23 12L23 11L24 11L24 10L25 10L25 12L26 12L26 9L24 9L24 10L23 10L23 9L21 9L21 12L20 12L20 13L19 13L19 12L18 12L18 13L19 13L19 14L17 14L17 15L15 15L15 13L17 13L17 12L16 12L16 11L14 11L14 12L12 12L12 11L11 11L11 10L13 10L13 9L14 9L14 10L15 10L15 9L14 9L14 8L12 8L12 7L13 7L13 6L14 6L14 7L15 7L15 8L16 8L16 9L18 9L18 11L20 11L20 10L19 10L19 9L20 9L20 7L21 7L21 8L23 8L23 6L22 6L22 5L23 5L23 4L22 4L22 3L24 3L24 2L22 2L22 0L21 0L21 1L20 1L20 0L19 0L19 1L20 1L20 2L21 2L21 3L20 3L20 4L22 4L22 5L21 5L21 6L20 6L20 5L19 5L19 6L18 6L18 5L17 5L17 6L16 6L16 7L15 7L15 6L14 6L14 5L15 5L15 4L14 4L14 3L16 3L16 4L19 4L19 2L17 2L17 3L16 3L16 2L15 2L15 1L16 1L16 0L15 0L15 1L14 1L14 0ZM23 0L23 1L24 1L24 0ZM12 1L12 3L11 3L11 5L9 5L9 7L10 7L10 6L11 6L11 7L12 7L12 6L13 6L13 5L14 5L14 4L12 4L12 3L13 3L13 1ZM26 1L26 2L27 2L27 1ZM37 1L37 2L35 2L35 3L37 3L37 5L36 5L36 4L35 4L35 5L34 5L34 4L33 4L33 5L34 5L34 6L33 6L33 7L34 7L34 9L31 9L31 10L33 10L33 12L34 12L34 13L33 13L33 14L32 14L32 13L31 13L31 12L32 12L32 11L31 11L31 12L30 12L30 11L29 11L29 10L28 10L28 11L29 11L29 14L30 14L30 13L31 13L31 14L32 14L32 15L31 15L31 16L32 16L32 17L33 17L33 18L31 18L31 17L29 17L29 19L28 19L28 18L26 18L26 17L25 17L25 18L26 18L26 21L25 21L25 20L24 20L24 19L23 19L23 20L22 20L22 21L23 21L23 20L24 20L24 21L25 21L25 22L24 22L24 25L25 25L25 26L23 26L23 27L22 27L22 26L21 26L21 28L22 28L22 29L25 29L25 30L24 30L24 32L23 32L23 33L22 33L22 32L21 32L21 31L22 31L22 30L21 30L21 29L20 29L20 31L19 31L19 33L18 33L18 34L17 34L17 30L19 30L19 29L18 29L18 27L20 27L20 26L18 26L18 27L17 27L17 29L15 29L15 30L16 30L16 31L15 31L15 32L13 32L13 33L14 33L14 34L15 34L15 35L16 35L16 36L13 36L13 35L12 35L12 34L11 34L11 33L10 33L10 35L9 35L9 33L5 33L5 34L4 34L4 33L3 33L3 31L4 31L4 30L2 30L2 31L1 31L1 32L2 32L2 33L3 33L3 35L4 35L4 36L8 36L8 35L9 35L9 37L10 37L10 38L8 38L8 37L6 37L6 38L7 38L7 39L4 39L4 37L2 37L2 38L3 38L3 39L2 39L2 41L1 41L1 42L3 42L3 45L4 45L4 46L5 46L5 48L7 48L7 49L6 49L6 50L7 50L7 51L9 51L9 50L11 50L11 51L13 51L13 50L14 50L14 52L13 52L13 54L14 54L14 52L16 52L16 51L15 51L15 50L16 50L16 49L17 49L17 47L18 47L18 48L19 48L19 47L20 47L20 48L22 48L22 49L18 49L18 50L17 50L17 52L20 52L20 50L22 50L22 51L21 51L21 53L20 53L20 55L19 55L19 57L21 57L21 58L22 58L22 59L24 59L24 57L25 57L25 60L26 60L26 59L28 59L28 58L30 58L30 57L28 57L28 58L27 58L27 57L25 57L25 56L26 56L26 55L25 55L25 54L26 54L26 53L27 53L27 52L29 52L29 51L30 51L30 50L31 50L31 51L32 51L32 52L33 52L33 53L34 53L34 54L33 54L33 56L34 56L34 55L36 55L36 56L35 56L35 57L33 57L33 58L35 58L35 60L36 60L36 59L38 59L38 58L39 58L39 59L41 59L41 60L44 60L44 59L43 59L43 58L42 58L42 56L39 56L39 55L38 55L38 54L41 54L41 55L43 55L43 56L44 56L44 55L45 55L45 54L48 54L48 53L47 53L47 52L50 52L50 54L51 54L51 52L52 52L52 51L53 51L53 50L52 50L52 49L53 49L53 48L52 48L52 47L53 47L53 45L54 45L54 44L55 44L55 45L56 45L56 46L57 46L57 45L56 45L56 44L59 44L59 43L60 43L60 42L59 42L59 41L55 41L55 40L56 40L56 39L57 39L57 37L58 37L58 36L59 36L59 35L58 35L58 36L57 36L57 33L54 33L54 34L55 34L55 35L53 35L53 34L52 34L52 35L51 35L51 36L52 36L52 35L53 35L53 37L52 37L52 38L51 38L51 37L50 37L50 36L49 36L49 35L50 35L50 34L51 34L51 33L52 33L52 32L51 32L51 31L52 31L52 29L51 29L51 28L49 28L49 27L50 27L50 26L52 26L52 27L53 27L53 28L54 28L54 27L55 27L55 28L56 28L56 27L55 27L55 26L53 26L53 25L55 25L55 24L53 24L53 25L50 25L50 26L47 26L47 25L46 25L46 22L48 22L48 21L45 21L45 20L44 20L44 19L45 19L45 18L44 18L44 17L45 17L45 16L44 16L44 17L43 17L43 16L42 16L42 15L43 15L43 14L42 14L42 15L41 15L41 16L40 16L40 17L39 17L39 16L38 16L38 15L39 15L39 12L40 12L40 13L43 13L43 12L44 12L44 15L46 15L46 14L47 14L47 13L46 13L46 14L45 14L45 12L44 12L44 11L43 11L43 10L44 10L44 9L43 9L43 8L44 8L44 6L45 6L45 5L44 5L44 4L45 4L45 3L46 3L46 5L47 5L47 4L48 4L48 3L50 3L50 2L49 2L49 1L48 1L48 2L47 2L47 3L46 3L46 2L45 2L45 3L42 3L42 4L43 4L43 5L41 5L41 3L40 3L40 2L38 2L38 1ZM30 2L30 3L31 3L31 2ZM37 2L37 3L38 3L38 4L39 4L39 3L38 3L38 2ZM9 3L9 4L10 4L10 3ZM26 3L26 4L27 4L27 5L28 5L28 4L27 4L27 3ZM51 3L51 4L52 4L52 3ZM11 5L11 6L12 6L12 5ZM29 5L29 8L32 8L32 5ZM35 5L35 6L34 6L34 7L35 7L35 9L37 9L37 8L36 8L36 7L37 7L37 6L36 6L36 5ZM38 5L38 7L39 7L39 5ZM40 5L40 8L42 8L42 7L43 7L43 6L42 6L42 7L41 7L41 5ZM49 5L49 7L48 7L48 6L47 6L47 7L48 7L48 8L49 8L49 9L50 9L50 8L49 8L49 7L50 7L50 5ZM17 6L17 7L16 7L16 8L18 8L18 9L19 9L19 7L20 7L20 6L19 6L19 7L18 7L18 6ZM21 6L21 7L22 7L22 6ZM30 6L30 7L31 7L31 6ZM35 6L35 7L36 7L36 6ZM38 8L38 9L39 9L39 8ZM41 9L41 10L43 10L43 9ZM55 9L55 10L54 10L54 11L53 11L53 13L55 13L55 14L54 14L54 15L55 15L55 14L57 14L57 12L56 12L56 11L57 11L57 10L58 10L58 9L57 9L57 10L56 10L56 9ZM22 10L22 11L23 11L23 10ZM34 10L34 12L36 12L36 13L35 13L35 14L33 14L33 15L32 15L32 16L33 16L33 15L34 15L34 17L35 17L35 18L33 18L33 19L32 19L32 20L31 20L31 19L30 19L30 20L31 20L31 21L30 21L30 22L31 22L31 21L32 21L32 22L34 22L34 21L32 21L32 20L34 20L34 19L37 19L37 20L35 20L35 23L37 23L37 20L39 20L39 19L40 19L40 20L41 20L41 21L39 21L39 22L38 22L38 23L39 23L39 24L38 24L38 25L39 25L39 24L41 24L41 25L40 25L40 26L38 26L38 27L36 27L36 26L37 26L37 24L36 24L36 26L33 26L33 27L36 27L36 28L35 28L35 29L36 29L36 28L38 28L38 29L37 29L37 30L39 30L39 31L40 31L40 32L41 32L41 31L40 31L40 30L41 30L41 29L42 29L42 30L43 30L43 33L42 33L42 34L44 34L44 32L45 32L45 33L47 33L47 32L48 32L48 33L49 33L49 32L48 32L48 31L49 31L49 30L50 30L50 31L51 31L51 30L50 30L50 29L49 29L49 28L48 28L48 27L47 27L47 26L45 26L45 25L44 25L44 24L45 24L45 23L44 23L44 21L43 21L43 19L42 19L42 18L43 18L43 17L42 17L42 18L41 18L41 17L40 17L40 18L38 18L38 16L36 16L36 15L37 15L37 13L38 13L38 12L39 12L39 11L40 11L40 12L41 12L41 11L40 11L40 10L38 10L38 11L37 11L37 10L36 10L36 11L35 11L35 10ZM6 11L6 12L7 12L7 11ZM54 11L54 12L55 12L55 11ZM11 12L11 13L10 13L10 14L9 14L9 16L7 16L7 17L4 17L4 15L3 15L3 17L4 17L4 20L2 20L2 23L4 23L4 24L5 24L5 23L6 23L6 24L7 24L7 23L6 23L6 22L8 22L8 23L10 23L10 26L11 26L11 24L12 24L12 25L13 25L13 23L10 23L10 21L9 21L9 22L8 22L8 21L6 21L6 22L5 22L5 19L6 19L6 20L7 20L7 19L8 19L8 20L9 20L9 19L10 19L10 20L12 20L12 19L13 19L13 21L11 21L11 22L13 22L13 21L14 21L14 23L15 23L15 24L14 24L14 25L15 25L15 26L17 26L17 25L18 25L18 24L17 24L17 23L18 23L18 22L19 22L19 21L20 21L20 22L21 22L21 21L20 21L20 20L19 20L19 19L21 19L21 18L24 18L24 17L23 17L23 14L22 14L22 15L20 15L20 14L19 14L19 17L17 17L17 16L18 16L18 15L17 15L17 16L16 16L16 17L13 17L13 16L14 16L14 15L13 15L13 16L10 16L10 14L11 14L11 13L12 13L12 14L14 14L14 13L15 13L15 12L14 12L14 13L12 13L12 12ZM27 13L27 14L28 14L28 13ZM58 13L58 14L59 14L59 13ZM35 14L35 15L36 15L36 14ZM24 15L24 16L25 16L25 15ZM9 16L9 17L10 17L10 16ZM20 16L20 17L22 17L22 16ZM48 16L48 17L49 17L49 16ZM56 16L56 17L58 17L58 16ZM60 16L60 17L61 17L61 16ZM1 17L1 19L2 19L2 17ZM16 17L16 18L14 18L14 19L16 19L16 20L14 20L14 21L17 21L17 19L19 19L19 18L17 18L17 17ZM6 18L6 19L7 19L7 18ZM8 18L8 19L9 19L9 18ZM37 18L37 19L38 19L38 18ZM53 18L53 21L50 21L50 20L49 20L49 21L50 21L50 22L49 22L49 23L47 23L47 24L49 24L49 23L50 23L50 22L51 22L51 23L56 23L56 21L58 21L58 20L56 20L56 19L57 19L57 18L56 18L56 19L55 19L55 18ZM60 18L60 19L61 19L61 18ZM41 19L41 20L42 20L42 19ZM54 19L54 20L55 20L55 19ZM18 20L18 21L19 21L19 20ZM27 20L27 21L26 21L26 22L25 22L25 23L26 23L26 24L25 24L25 25L27 25L27 21L28 21L28 20ZM53 21L53 22L55 22L55 21ZM4 22L4 23L5 23L5 22ZM15 22L15 23L16 23L16 22ZM28 22L28 23L29 23L29 25L30 25L30 26L32 26L32 25L35 25L35 24L34 24L34 23L33 23L33 24L32 24L32 23L29 23L29 22ZM40 22L40 23L43 23L43 24L44 24L44 23L43 23L43 22ZM19 23L19 25L23 25L23 23ZM15 24L15 25L17 25L17 24ZM30 24L30 25L31 25L31 24ZM59 24L59 25L60 25L60 24ZM41 26L41 28L40 28L40 27L39 27L39 28L40 28L40 29L41 29L41 28L42 28L42 29L43 29L43 30L44 30L44 29L45 29L45 28L44 28L44 27L43 27L43 26ZM6 27L6 28L7 28L7 27ZM26 27L26 28L28 28L28 29L26 29L26 32L24 32L24 33L23 33L23 34L24 34L24 33L26 33L26 35L25 35L25 37L21 37L21 36L24 36L24 35L22 35L22 33L21 33L21 32L20 32L20 33L21 33L21 36L18 36L18 37L17 37L17 36L16 36L16 37L17 37L17 38L15 38L15 41L18 41L18 43L20 43L20 42L19 42L19 41L20 41L20 40L19 40L19 41L18 41L18 40L16 40L16 39L18 39L18 37L19 37L19 39L21 39L21 42L22 42L22 43L21 43L21 44L20 44L20 45L19 45L19 44L17 44L17 43L15 43L15 42L14 42L14 41L13 41L13 40L11 40L11 41L10 41L10 40L9 40L9 39L8 39L8 41L10 41L10 42L6 42L6 43L9 43L9 45L8 45L8 44L5 44L5 43L4 43L4 44L5 44L5 45L8 45L8 46L6 46L6 47L7 47L7 48L9 48L9 49L8 49L8 50L9 50L9 49L10 49L10 47L13 47L13 48L11 48L11 49L12 49L12 50L13 50L13 48L14 48L14 50L15 50L15 49L16 49L16 47L15 47L15 45L14 45L14 44L13 44L13 43L15 43L15 44L16 44L16 45L19 45L19 46L18 46L18 47L19 47L19 46L20 46L20 45L21 45L21 47L22 47L22 46L25 46L25 48L24 48L24 47L23 47L23 49L24 49L24 50L23 50L23 51L22 51L22 52L23 52L23 51L24 51L24 52L25 52L25 53L21 53L21 55L20 55L20 56L21 56L21 57L22 57L22 58L23 58L23 57L22 57L22 56L23 56L23 55L24 55L24 56L25 56L25 55L24 55L24 54L25 54L25 53L26 53L26 52L27 52L27 51L28 51L28 50L29 50L29 47L28 47L28 49L26 49L26 46L29 46L29 45L28 45L28 44L30 44L30 45L31 45L31 46L34 46L34 47L31 47L31 48L30 48L30 49L31 49L31 50L32 50L32 51L33 51L33 52L34 52L34 51L36 51L36 50L37 50L37 52L35 52L35 54L38 54L38 53L37 53L37 52L39 52L39 51L40 51L40 52L41 52L41 54L44 54L44 52L45 52L45 53L46 53L46 52L47 52L47 51L46 51L46 52L45 52L45 51L44 51L44 52L43 52L43 49L44 49L44 48L45 48L45 47L44 47L44 44L45 44L45 45L47 45L47 46L46 46L46 49L47 49L47 48L48 48L48 49L49 49L49 48L51 48L51 49L52 49L52 48L51 48L51 47L52 47L52 46L50 46L50 44L48 44L48 45L47 45L47 44L46 44L46 43L48 43L48 42L50 42L50 43L52 43L52 44L51 44L51 45L53 45L53 43L55 43L55 42L53 42L53 41L54 41L54 40L53 40L53 39L56 39L56 37L57 37L57 36L56 36L56 37L53 37L53 39L52 39L52 40L51 40L51 38L50 38L50 37L49 37L49 36L48 36L48 35L47 35L47 34L45 34L45 35L44 35L44 36L42 36L42 35L41 35L41 33L39 33L39 34L38 34L38 35L39 35L39 36L38 36L38 37L37 37L37 36L35 36L35 34L37 34L37 32L38 32L38 31L37 31L37 32L35 32L35 34L34 34L34 36L33 36L33 37L32 37L32 35L33 35L33 34L31 34L31 37L30 37L30 36L28 36L28 38L27 38L27 37L26 37L26 35L28 35L28 34L29 34L29 35L30 35L30 33L33 33L33 32L34 32L34 31L36 31L36 30L34 30L34 29L33 29L33 28L32 28L32 27L30 27L30 28L28 28L28 27ZM43 28L43 29L44 29L44 28ZM5 29L5 32L8 32L8 29ZM29 29L29 32L32 32L32 29ZM46 29L46 30L47 30L47 31L48 31L48 30L49 30L49 29ZM53 29L53 32L56 32L56 29ZM6 30L6 31L7 31L7 30ZM30 30L30 31L31 31L31 30ZM54 30L54 31L55 31L55 30ZM60 30L60 31L61 31L61 30ZM45 31L45 32L46 32L46 31ZM26 32L26 33L27 33L27 34L28 34L28 33L27 33L27 32ZM50 32L50 33L51 33L51 32ZM15 33L15 34L16 34L16 33ZM6 34L6 35L8 35L8 34ZM18 34L18 35L20 35L20 34ZM11 35L11 36L12 36L12 35ZM46 35L46 37L45 37L45 36L44 36L44 37L45 37L45 38L40 38L40 37L42 37L42 36L40 36L40 37L38 37L38 38L37 38L37 37L35 37L35 38L34 38L34 37L33 37L33 38L34 38L34 39L32 39L32 37L31 37L31 39L30 39L30 37L29 37L29 38L28 38L28 39L27 39L27 38L26 38L26 37L25 37L25 39L24 39L24 38L21 38L21 37L20 37L20 38L21 38L21 39L22 39L22 41L23 41L23 43L22 43L22 45L25 45L25 46L26 46L26 45L27 45L27 43L25 43L25 42L24 42L24 41L26 41L26 42L28 42L28 43L29 43L29 42L30 42L30 43L32 43L32 44L33 44L33 43L32 43L32 42L35 42L35 43L34 43L34 44L35 44L35 45L34 45L34 46L35 46L35 47L34 47L34 48L37 48L37 50L39 50L39 49L38 49L38 48L40 48L40 49L43 49L43 48L44 48L44 47L43 47L43 46L41 46L41 45L43 45L43 44L44 44L44 43L45 43L45 42L48 42L48 41L47 41L47 40L50 40L50 42L51 42L51 40L50 40L50 38L47 38L47 35ZM12 37L12 38L14 38L14 37ZM36 38L36 39L37 39L37 40L36 40L36 41L35 41L35 42L36 42L36 43L35 43L35 44L36 44L36 45L35 45L35 46L36 46L36 47L38 47L38 46L37 46L37 45L38 45L38 44L37 44L37 40L41 40L41 43L40 43L40 42L38 42L38 43L39 43L39 46L40 46L40 44L41 44L41 43L42 43L42 44L43 44L43 43L42 43L42 42L45 42L45 41L46 41L46 40L45 40L45 39L47 39L47 38L45 38L45 39L44 39L44 40L43 40L43 39L42 39L42 40L41 40L41 39L40 39L40 38L38 38L38 39L37 39L37 38ZM25 39L25 40L26 40L26 39ZM31 39L31 40L29 40L29 41L28 41L28 40L27 40L27 41L28 41L28 42L29 42L29 41L31 41L31 40L32 40L32 41L33 41L33 40L32 40L32 39ZM5 40L5 41L7 41L7 40ZM23 40L23 41L24 41L24 40ZM42 40L42 41L43 41L43 40ZM44 40L44 41L45 41L45 40ZM52 40L52 41L53 41L53 40ZM12 41L12 42L10 42L10 44L11 44L11 43L12 43L12 42L13 42L13 41ZM52 42L52 43L53 43L53 42ZM56 42L56 43L58 43L58 42ZM24 43L24 44L25 44L25 43ZM12 44L12 45L13 45L13 44ZM48 45L48 46L47 46L47 47L48 47L48 48L49 48L49 47L50 47L50 46L49 46L49 45ZM8 46L8 47L9 47L9 46ZM48 46L48 47L49 47L49 46ZM3 47L3 48L2 48L2 50L3 50L3 48L4 48L4 47ZM40 47L40 48L41 48L41 47ZM42 47L42 48L43 48L43 47ZM31 48L31 49L32 49L32 48ZM4 49L4 50L5 50L5 49ZM33 49L33 51L34 51L34 50L36 50L36 49ZM40 50L40 51L41 51L41 52L42 52L42 50ZM48 50L48 51L49 51L49 50ZM50 50L50 51L51 51L51 50ZM3 51L3 52L4 52L4 51ZM25 51L25 52L26 52L26 51ZM11 52L11 53L10 53L10 54L11 54L11 53L12 53L12 52ZM16 53L16 54L15 54L15 55L14 55L14 56L15 56L15 55L16 55L16 54L17 54L17 55L18 55L18 54L19 54L19 53L18 53L18 54L17 54L17 53ZM29 53L29 56L32 56L32 53ZM53 53L53 56L56 56L56 53ZM22 54L22 55L23 55L23 54ZM27 54L27 55L28 55L28 54ZM30 54L30 55L31 55L31 54ZM54 54L54 55L55 55L55 54ZM59 54L59 55L61 55L61 54ZM11 55L11 56L12 56L12 55ZM17 56L17 57L18 57L18 56ZM36 56L36 57L37 57L37 58L38 58L38 57L39 57L39 58L40 58L40 57L39 57L39 56L38 56L38 57L37 57L37 56ZM46 59L46 60L47 60L47 59ZM12 60L12 61L13 61L13 60ZM0 0L0 7L7 7L7 0ZM1 1L1 6L6 6L6 1ZM2 2L2 5L5 5L5 2ZM54 0L54 7L61 7L61 0ZM55 1L55 6L60 6L60 1ZM56 2L56 5L59 5L59 2ZM0 54L0 61L7 61L7 54ZM1 55L1 60L6 60L6 55ZM2 56L2 59L5 59L5 56Z" fill="#000000"/></g></g></svg>
