<?xml version="1.0" encoding="UTF-8"?>
<svg xmlns="http://www.w3.org/2000/svg" version="1.1" width="300" height="300" viewBox="0 0 300 300"><rect x="0" y="0" width="300" height="300" fill="#ffffff"/><g transform="scale(4.615)"><g transform="translate(0,0)"><path fill-rule="evenodd" d="M9 0L9 1L8 1L8 2L9 2L9 3L8 3L8 4L9 4L9 3L10 3L10 5L8 5L8 7L9 7L9 8L6 8L6 9L5 9L5 8L0 8L0 9L5 9L5 11L0 11L0 13L1 13L1 15L0 15L0 16L1 16L1 18L0 18L0 21L1 21L1 19L2 19L2 20L3 20L3 22L4 22L4 23L3 23L3 24L4 24L4 25L0 25L0 26L2 26L2 27L3 27L3 29L2 29L2 31L3 31L3 33L2 33L2 36L5 36L5 37L8 37L8 38L5 38L5 39L8 39L8 40L5 40L5 41L4 41L4 40L3 40L3 39L1 39L1 38L3 38L3 37L0 37L0 39L1 39L1 40L0 40L0 41L1 41L1 42L0 42L0 43L2 43L2 41L3 41L3 43L4 43L4 42L6 42L6 43L5 43L5 44L4 44L4 45L3 45L3 46L2 46L2 48L1 48L1 47L0 47L0 50L1 50L1 51L0 51L0 52L2 52L2 49L3 49L3 46L4 46L4 47L5 47L5 48L4 48L4 49L7 49L7 50L6 50L6 51L5 51L5 52L4 52L4 51L3 51L3 53L2 53L2 55L3 55L3 56L1 56L1 55L0 55L0 56L1 56L1 57L3 57L3 56L4 56L4 57L5 57L5 56L4 56L4 54L3 54L3 53L5 53L5 55L7 55L7 56L6 56L6 57L8 57L8 59L9 59L9 60L8 60L8 65L9 65L9 61L10 61L10 65L11 65L11 64L12 64L12 65L14 65L14 64L15 64L15 65L19 65L19 63L20 63L20 62L17 62L17 64L16 64L16 63L13 63L13 62L16 62L16 61L15 61L15 60L14 60L14 59L12 59L12 58L13 58L13 57L14 57L14 58L16 58L16 57L19 57L19 58L18 58L18 59L20 59L20 60L17 60L17 61L20 61L20 60L21 60L21 61L22 61L22 62L21 62L21 64L20 64L20 65L22 65L22 62L23 62L23 63L24 63L24 64L25 64L25 63L26 63L26 62L28 62L28 61L26 61L26 60L27 60L27 59L26 59L26 60L24 60L24 59L25 59L25 57L26 57L26 58L27 58L27 57L29 57L29 58L28 58L28 60L29 60L29 61L32 61L32 62L30 62L30 63L29 63L29 64L28 64L28 63L27 63L27 64L28 64L28 65L34 65L34 64L35 64L35 65L37 65L37 64L39 64L39 62L38 62L38 61L40 61L40 60L41 60L41 63L40 63L40 64L41 64L41 65L43 65L43 64L45 64L45 63L46 63L46 64L48 64L48 65L49 65L49 64L48 64L48 63L49 63L49 62L50 62L50 63L51 63L51 64L50 64L50 65L51 65L51 64L54 64L54 65L59 65L59 64L60 64L60 65L63 65L63 64L64 64L64 61L65 61L65 59L64 59L64 58L65 58L65 57L63 57L63 56L62 56L62 55L63 55L63 54L62 54L62 53L64 53L64 54L65 54L65 53L64 53L64 52L62 52L62 49L64 49L64 50L65 50L65 49L64 49L64 48L61 48L61 45L60 45L60 44L62 44L62 45L63 45L63 46L62 46L62 47L63 47L63 46L64 46L64 44L65 44L65 43L63 43L63 42L62 42L62 43L61 43L61 41L60 41L60 39L61 39L61 40L62 40L62 41L63 41L63 40L64 40L64 38L65 38L65 37L64 37L64 36L65 36L65 35L63 35L63 34L62 34L62 35L61 35L61 30L56 30L56 29L57 29L57 28L58 28L58 27L59 27L59 28L60 28L60 29L61 29L61 28L60 28L60 27L59 27L59 26L58 26L58 23L59 23L59 24L60 24L60 25L61 25L61 24L62 24L62 26L61 26L61 27L63 27L63 26L65 26L65 25L64 25L64 24L65 24L65 23L64 23L64 22L65 22L65 21L64 21L64 22L63 22L63 20L64 20L64 18L65 18L65 15L64 15L64 14L65 14L65 13L63 13L63 12L62 12L62 11L63 11L63 10L65 10L65 9L64 9L64 8L63 8L63 9L62 9L62 8L61 8L61 9L60 9L60 8L59 8L59 9L60 9L60 11L59 11L59 10L58 10L58 8L57 8L57 6L56 6L56 7L55 7L55 5L54 5L54 4L56 4L56 5L57 5L57 4L56 4L56 3L57 3L57 1L56 1L56 0L55 0L55 1L56 1L56 3L55 3L55 2L54 2L54 0L51 0L51 1L50 1L50 0L49 0L49 1L48 1L48 2L51 2L51 3L50 3L50 4L49 4L49 3L48 3L48 4L49 4L49 5L48 5L48 7L49 7L49 5L50 5L50 7L51 7L51 8L50 8L50 9L49 9L49 8L47 8L47 5L45 5L45 4L44 4L44 3L45 3L45 2L47 2L47 1L46 1L46 0L45 0L45 1L44 1L44 0L42 0L42 1L43 1L43 2L40 2L40 1L41 1L41 0L39 0L39 1L37 1L37 0L35 0L35 1L36 1L36 2L39 2L39 3L38 3L38 4L37 4L37 3L35 3L35 4L34 4L34 2L33 2L33 4L31 4L31 3L32 3L32 2L30 2L30 5L28 5L28 4L29 4L29 3L27 3L27 5L28 5L28 7L27 7L27 6L26 6L26 8L25 8L25 5L26 5L26 4L24 4L24 5L23 5L23 6L22 6L22 5L21 5L21 6L20 6L20 5L19 5L19 1L20 1L20 0L19 0L19 1L18 1L18 2L17 2L17 3L18 3L18 4L17 4L17 5L14 5L14 4L16 4L16 3L15 3L15 1L17 1L17 0L11 0L11 1L13 1L13 3L14 3L14 4L12 4L12 5L11 5L11 3L10 3L10 0ZM22 0L22 1L21 1L21 2L20 2L20 4L22 4L22 3L21 3L21 2L22 2L22 1L23 1L23 2L24 2L24 3L26 3L26 2L25 2L25 0L24 0L24 1L23 1L23 0ZM26 0L26 1L27 1L27 0ZM30 0L30 1L31 1L31 0ZM32 0L32 1L34 1L34 0ZM52 1L52 2L53 2L53 3L52 3L52 5L51 5L51 4L50 4L50 5L51 5L51 7L52 7L52 6L53 6L53 7L54 7L54 5L53 5L53 3L54 3L54 2L53 2L53 1ZM43 2L43 3L44 3L44 2ZM40 3L40 4L41 4L41 8L40 8L40 6L39 6L39 7L38 7L38 5L39 5L39 4L38 4L38 5L37 5L37 4L36 4L36 5L35 5L35 7L36 7L36 8L35 8L35 9L32 9L32 10L31 10L31 12L28 12L28 13L27 13L27 12L26 12L26 11L27 11L27 10L25 10L25 11L24 11L24 9L25 9L25 8L21 8L21 9L20 9L20 8L19 8L19 9L17 9L17 7L18 7L18 5L17 5L17 7L16 7L16 6L15 6L15 7L16 7L16 10L15 10L15 8L14 8L14 6L13 6L13 9L14 9L14 10L15 10L15 11L16 11L16 10L18 10L18 11L17 11L17 14L19 14L19 15L20 15L20 14L19 14L19 13L21 13L21 14L22 14L22 15L24 15L24 17L23 17L23 16L22 16L22 17L20 17L20 16L19 16L19 17L18 17L18 19L15 19L15 20L16 20L16 21L14 21L14 20L12 20L12 16L14 16L14 17L15 17L15 18L16 18L16 17L17 17L17 15L15 15L15 16L14 16L14 15L11 15L11 18L10 18L10 14L11 14L11 12L13 12L13 13L14 13L14 14L16 14L16 13L14 13L14 12L13 12L13 11L12 11L12 9L11 9L11 10L8 10L8 11L5 11L5 14L4 14L4 13L3 13L3 15L2 15L2 16L3 16L3 15L5 15L5 17L4 17L4 18L3 18L3 20L4 20L4 22L5 22L5 25L4 25L4 26L3 26L3 27L4 27L4 30L5 30L5 29L6 29L6 30L7 30L7 29L9 29L9 30L12 30L12 32L13 32L13 33L10 33L10 34L9 34L9 35L11 35L11 37L10 37L10 38L8 38L8 39L9 39L9 40L8 40L8 41L6 41L6 42L8 42L8 41L10 41L10 40L11 40L11 42L12 42L12 45L13 45L13 46L12 46L12 48L13 48L13 49L14 49L14 48L16 48L16 47L15 47L15 46L16 46L16 45L17 45L17 44L18 44L18 43L16 43L16 45L15 45L15 46L14 46L14 45L13 45L13 44L15 44L15 43L14 43L14 41L16 41L16 42L17 42L17 41L16 41L16 40L14 40L14 38L17 38L17 39L20 39L20 40L19 40L19 41L18 41L18 42L19 42L19 41L20 41L20 42L22 42L22 43L23 43L23 44L19 44L19 45L18 45L18 46L17 46L17 48L19 48L19 49L15 49L15 50L16 50L16 51L15 51L15 52L18 52L18 53L13 53L13 52L14 52L14 51L13 51L13 50L11 50L11 53L12 53L12 54L15 54L15 55L16 55L16 56L18 56L18 55L17 55L17 54L18 54L18 53L20 53L20 54L19 54L19 55L20 55L20 56L19 56L19 57L20 57L20 59L21 59L21 60L22 60L22 61L23 61L23 62L24 62L24 61L23 61L23 60L22 60L22 59L24 59L24 58L22 58L22 59L21 59L21 57L25 57L25 56L26 56L26 57L27 57L27 56L29 56L29 57L30 57L30 55L31 55L31 54L32 54L32 55L33 55L33 53L32 53L32 52L34 52L34 53L35 53L35 52L37 52L37 51L38 51L38 50L39 50L39 49L42 49L42 48L39 48L39 47L40 47L40 46L41 46L41 47L44 47L44 46L41 46L41 45L45 45L45 46L47 46L47 45L45 45L45 44L44 44L44 43L45 43L45 40L46 40L46 42L47 42L47 43L46 43L46 44L49 44L49 45L48 45L48 48L47 48L47 47L46 47L46 48L43 48L43 49L44 49L44 50L40 50L40 51L41 51L41 52L39 52L39 53L38 53L38 54L37 54L37 55L35 55L35 54L34 54L34 55L35 55L35 61L36 61L36 60L37 60L37 58L39 58L39 59L38 59L38 60L39 60L39 59L41 59L41 60L43 60L43 58L44 58L44 57L45 57L45 58L47 58L47 60L46 60L46 59L45 59L45 60L44 60L44 61L43 61L43 62L42 62L42 63L41 63L41 64L42 64L42 63L44 63L44 61L45 61L45 62L47 62L47 63L48 63L48 62L49 62L49 61L50 61L50 62L51 62L51 60L52 60L52 61L53 61L53 60L52 60L52 59L55 59L55 60L56 60L56 58L54 58L54 57L56 57L56 56L55 56L55 54L56 54L56 55L57 55L57 54L56 54L56 53L57 53L57 51L60 51L60 49L61 49L61 48L60 48L60 45L59 45L59 44L58 44L58 45L59 45L59 46L58 46L58 47L59 47L59 48L55 48L55 47L57 47L57 44L55 44L55 45L56 45L56 46L53 46L53 45L54 45L54 44L52 44L52 43L53 43L53 42L54 42L54 43L55 43L55 42L54 42L54 41L56 41L56 40L54 40L54 39L57 39L57 38L58 38L58 39L60 39L60 38L58 38L58 37L62 37L62 40L63 40L63 37L62 37L62 36L63 36L63 35L62 35L62 36L60 36L60 35L59 35L59 36L58 36L58 35L57 35L57 36L55 36L55 37L56 37L56 38L54 38L54 36L52 36L52 35L53 35L53 32L51 32L51 31L55 31L55 33L56 33L56 31L55 31L55 30L53 30L53 28L52 28L52 30L51 30L51 29L50 29L50 27L51 27L51 25L50 25L50 26L49 26L49 25L47 25L47 24L46 24L46 22L47 22L47 23L48 23L48 24L51 24L51 23L50 23L50 22L51 22L51 21L53 21L53 20L56 20L56 22L52 22L52 23L56 23L56 22L57 22L57 21L58 21L58 22L59 22L59 23L60 23L60 24L61 24L61 23L62 23L62 24L63 24L63 23L62 23L62 22L61 22L61 21L59 21L59 19L60 19L60 20L61 20L61 19L62 19L62 20L63 20L63 19L62 19L62 18L63 18L63 17L61 17L61 19L60 19L60 18L59 18L59 16L64 16L64 15L62 15L62 14L63 14L63 13L60 13L60 12L61 12L61 11L62 11L62 9L61 9L61 11L60 11L60 12L59 12L59 11L58 11L58 10L57 10L57 9L56 9L56 11L55 11L55 10L53 10L53 8L52 8L52 10L51 10L51 9L50 9L50 10L49 10L49 11L46 11L46 12L49 12L49 13L46 13L46 14L48 14L48 16L46 16L46 15L45 15L45 16L44 16L44 17L43 17L43 18L42 18L42 16L43 16L43 15L44 15L44 14L45 14L45 12L44 12L44 11L45 11L45 10L47 10L47 8L46 8L46 6L45 6L45 8L44 8L44 11L43 11L43 10L40 10L40 9L43 9L43 8L42 8L42 6L43 6L43 7L44 7L44 6L43 6L43 5L42 5L42 3ZM31 5L31 8L34 8L34 5ZM36 5L36 7L37 7L37 8L36 8L36 9L37 9L37 10L36 10L36 11L35 11L35 10L34 10L34 11L32 11L32 12L31 12L31 13L32 13L32 14L34 14L34 15L31 15L31 16L30 16L30 15L29 15L29 14L30 14L30 13L28 13L28 14L27 14L27 13L26 13L26 12L24 12L24 11L22 11L22 10L23 10L23 9L21 9L21 10L20 10L20 9L19 9L19 10L20 10L20 11L18 11L18 13L19 13L19 12L21 12L21 13L22 13L22 14L24 14L24 13L26 13L26 14L25 14L25 17L24 17L24 18L25 18L25 19L24 19L24 20L25 20L25 21L23 21L23 17L22 17L22 19L21 19L21 18L20 18L20 17L19 17L19 18L20 18L20 19L21 19L21 20L19 20L19 21L18 21L18 20L17 20L17 21L16 21L16 22L15 22L15 23L13 23L13 24L14 24L14 26L12 26L12 27L11 27L11 28L10 28L10 29L12 29L12 30L13 30L13 29L15 29L15 30L14 30L14 31L15 31L15 32L14 32L14 33L13 33L13 35L14 35L14 36L15 36L15 37L17 37L17 38L19 38L19 36L20 36L20 37L22 37L22 36L21 36L21 35L22 35L22 34L23 34L23 33L22 33L22 32L23 32L23 31L24 31L24 32L25 32L25 33L24 33L24 34L25 34L25 33L26 33L26 34L27 34L27 33L26 33L26 30L28 30L28 29L26 29L26 28L25 28L25 27L27 27L27 28L28 28L28 27L29 27L29 28L31 28L31 27L32 27L32 28L33 28L33 30L31 30L31 29L30 29L30 31L29 31L29 32L28 32L28 31L27 31L27 32L28 32L28 33L29 33L29 32L30 32L30 35L31 35L31 36L28 36L28 35L27 35L27 36L28 36L28 37L27 37L27 41L26 41L26 39L25 39L25 38L26 38L26 37L23 37L23 38L24 38L24 39L23 39L23 40L24 40L24 39L25 39L25 41L24 41L24 42L23 42L23 41L22 41L22 42L23 42L23 43L24 43L24 45L19 45L19 46L18 46L18 47L19 47L19 48L20 48L20 49L22 49L22 51L21 51L21 50L20 50L20 51L21 51L21 52L22 52L22 53L21 53L21 54L22 54L22 53L23 53L23 56L25 56L25 55L27 55L27 54L28 54L28 53L30 53L30 54L29 54L29 55L30 55L30 54L31 54L31 53L30 53L30 52L31 52L31 51L29 51L29 50L31 50L31 49L30 49L30 48L31 48L31 47L32 47L32 46L31 46L31 45L32 45L32 44L33 44L33 43L34 43L34 42L32 42L32 41L34 41L34 40L36 40L36 41L38 41L38 39L39 39L39 40L41 40L41 41L40 41L40 42L41 42L41 43L39 43L39 42L38 42L38 44L36 44L36 43L37 43L37 42L36 42L36 43L35 43L35 44L36 44L36 45L37 45L37 46L36 46L36 47L33 47L33 48L32 48L32 49L33 49L33 50L32 50L32 51L33 51L33 50L35 50L35 51L34 51L34 52L35 52L35 51L36 51L36 50L38 50L38 47L39 47L39 46L40 46L40 44L41 44L41 43L42 43L42 44L43 44L43 43L44 43L44 40L45 40L45 39L46 39L46 40L47 40L47 41L49 41L49 42L50 42L50 41L52 41L52 42L53 42L53 41L52 41L52 40L53 40L53 39L52 39L52 38L51 38L51 39L50 39L50 37L51 37L51 35L52 35L52 33L51 33L51 32L50 32L50 33L51 33L51 34L49 34L49 32L48 32L48 30L46 30L46 28L47 28L47 29L49 29L49 28L47 28L47 27L48 27L48 26L46 26L46 24L45 24L45 23L44 23L44 19L42 19L42 20L43 20L43 21L42 21L42 22L41 22L41 21L40 21L40 20L41 20L41 19L40 19L40 20L39 20L39 22L38 22L38 19L39 19L39 18L41 18L41 17L40 17L40 16L42 16L42 14L44 14L44 12L43 12L43 11L42 11L42 12L41 12L41 11L40 11L40 10L38 10L38 9L37 9L37 8L38 8L38 7L37 7L37 5ZM9 6L9 7L10 7L10 8L9 8L9 9L10 9L10 8L11 8L11 7L12 7L12 6L11 6L11 7L10 7L10 6ZM19 6L19 7L20 7L20 6ZM21 6L21 7L22 7L22 6ZM23 6L23 7L24 7L24 6ZM29 6L29 7L30 7L30 6ZM32 6L32 7L33 7L33 6ZM26 8L26 9L27 9L27 8ZM29 8L29 9L28 9L28 10L29 10L29 9L30 9L30 8ZM45 8L45 9L46 9L46 8ZM54 8L54 9L55 9L55 8ZM6 9L6 10L7 10L7 9ZM52 10L52 11L51 11L51 12L50 12L50 13L51 13L51 14L49 14L49 16L48 16L48 19L47 19L47 18L46 18L46 17L44 17L44 18L46 18L46 19L45 19L45 20L46 20L46 21L47 21L47 22L48 22L48 23L49 23L49 22L50 22L50 21L51 21L51 19L52 19L52 20L53 20L53 19L52 19L52 18L50 18L50 19L49 19L49 16L50 16L50 15L51 15L51 14L52 14L52 16L54 16L54 17L53 17L53 18L55 18L55 19L56 19L56 17L57 17L57 16L59 16L59 14L57 14L57 16L56 16L56 13L59 13L59 12L55 12L55 11L53 11L53 10ZM9 11L9 13L8 13L8 12L6 12L6 13L8 13L8 14L9 14L9 13L10 13L10 12L11 12L11 11ZM36 11L36 12L37 12L37 13L35 13L35 12L32 12L32 13L34 13L34 14L35 14L35 16L34 16L34 17L33 17L33 16L32 16L32 17L30 17L30 16L29 16L29 17L27 17L27 16L28 16L28 15L26 15L26 17L25 17L25 18L26 18L26 17L27 17L27 21L25 21L25 22L26 22L26 23L24 23L24 22L23 22L23 21L22 21L22 20L21 20L21 21L20 21L20 22L18 22L18 21L17 21L17 22L18 22L18 23L17 23L17 24L18 24L18 23L19 23L19 25L15 25L15 26L16 26L16 28L15 28L15 29L16 29L16 30L15 30L15 31L16 31L16 32L15 32L15 33L14 33L14 34L15 34L15 36L17 36L17 37L18 37L18 36L17 36L17 35L18 35L18 34L19 34L19 35L21 35L21 34L22 34L22 33L20 33L20 32L21 32L21 28L20 28L20 29L18 29L18 30L20 30L20 31L19 31L19 33L18 33L18 34L17 34L17 33L16 33L16 32L17 32L17 28L19 28L19 27L20 27L20 26L21 26L21 25L23 25L23 28L22 28L22 29L23 29L23 30L24 30L24 29L23 29L23 28L24 28L24 27L25 27L25 26L26 26L26 25L28 25L28 26L29 26L29 25L30 25L30 26L32 26L32 25L31 25L31 24L33 24L33 23L31 23L31 24L29 24L29 25L28 25L28 24L27 24L27 22L29 22L29 23L30 23L30 22L31 22L31 21L32 21L32 22L34 22L34 24L35 24L35 25L33 25L33 26L35 26L35 27L34 27L34 30L35 30L35 33L36 33L36 31L38 31L38 30L39 30L39 29L43 29L43 30L42 30L42 31L41 31L41 30L40 30L40 31L41 31L41 32L39 32L39 33L38 33L38 32L37 32L37 33L38 33L38 34L41 34L41 33L46 33L46 34L44 34L44 35L45 35L45 36L44 36L44 39L43 39L43 38L42 38L42 37L43 37L43 34L42 34L42 35L41 35L41 36L40 36L40 37L38 37L38 36L37 36L37 34L36 34L36 35L35 35L35 36L37 36L37 37L38 37L38 38L34 38L34 36L33 36L33 37L32 37L32 36L31 36L31 38L30 38L30 37L28 37L28 38L30 38L30 39L28 39L28 40L29 40L29 41L28 41L28 42L27 42L27 43L26 43L26 41L25 41L25 43L26 43L26 45L24 45L24 46L22 46L22 49L23 49L23 53L25 53L25 54L27 54L27 53L25 53L25 52L26 52L26 51L25 51L25 50L24 50L24 49L25 49L25 48L26 48L26 49L27 49L27 50L29 50L29 49L28 49L28 47L27 47L27 48L26 48L26 47L25 47L25 46L26 46L26 45L27 45L27 46L28 46L28 45L29 45L29 46L30 46L30 47L31 47L31 46L30 46L30 45L29 45L29 44L30 44L30 43L31 43L31 41L32 41L32 40L31 40L31 41L30 41L30 39L33 39L33 40L34 40L34 39L36 39L36 40L37 40L37 39L38 39L38 38L39 38L39 39L41 39L41 38L42 38L42 41L43 41L43 40L44 40L44 39L45 39L45 36L46 36L46 38L47 38L47 40L49 40L49 41L50 41L50 40L49 40L49 37L48 37L48 38L47 38L47 36L49 36L49 35L48 35L48 32L47 32L47 31L46 31L46 32L44 32L44 31L45 31L45 30L44 30L44 29L45 29L45 28L46 28L46 27L45 27L45 28L44 28L44 27L43 27L43 28L42 28L42 27L41 27L41 28L40 28L40 27L39 27L39 29L38 29L38 26L41 26L41 24L40 24L40 23L41 23L41 22L40 22L40 23L38 23L38 22L37 22L37 21L35 21L35 22L34 22L34 21L33 21L33 20L34 20L34 19L33 19L33 18L36 18L36 19L35 19L35 20L37 20L37 19L38 19L38 18L39 18L39 17L38 17L38 15L39 15L39 13L40 13L40 15L41 15L41 12L40 12L40 11ZM1 12L1 13L2 13L2 12ZM22 12L22 13L24 13L24 12ZM38 12L38 13L37 13L37 14L36 14L36 16L35 16L35 17L36 17L36 16L37 16L37 15L38 15L38 13L39 13L39 12ZM52 12L52 14L53 14L53 12ZM5 14L5 15L7 15L7 16L6 16L6 17L7 17L7 18L4 18L4 19L7 19L7 20L5 20L5 22L6 22L6 23L7 23L7 24L6 24L6 25L5 25L5 26L6 26L6 27L7 27L7 26L8 26L8 25L9 25L9 23L8 23L8 22L6 22L6 21L7 21L7 20L8 20L8 19L7 19L7 18L9 18L9 16L8 16L8 15L7 15L7 14ZM7 16L7 17L8 17L8 16ZM15 16L15 17L16 17L16 16ZM55 16L55 17L56 17L56 16ZM29 17L29 18L30 18L30 20L31 20L31 18L30 18L30 17ZM32 17L32 18L33 18L33 17ZM37 17L37 18L38 18L38 17ZM13 18L13 19L14 19L14 18ZM58 18L58 19L57 19L57 20L58 20L58 19L59 19L59 18ZM25 19L25 20L26 20L26 19ZM32 19L32 20L33 20L33 19ZM46 19L46 20L47 20L47 19ZM48 19L48 20L49 20L49 21L50 21L50 20L49 20L49 19ZM9 20L9 22L10 22L10 23L12 23L12 22L11 22L11 21L10 21L10 20ZM28 20L28 21L29 21L29 22L30 22L30 21L29 21L29 20ZM13 21L13 22L14 22L14 21ZM21 21L21 22L20 22L20 23L21 23L21 24L20 24L20 25L19 25L19 26L18 26L18 27L19 27L19 26L20 26L20 25L21 25L21 24L24 24L24 23L23 23L23 22L22 22L22 21ZM1 22L1 24L2 24L2 22ZM21 22L21 23L22 23L22 22ZM35 22L35 24L36 24L36 25L35 25L35 26L36 26L36 27L37 27L37 26L38 26L38 25L39 25L39 24L38 24L38 25L37 25L37 24L36 24L36 22ZM42 22L42 25L43 25L43 24L44 24L44 26L45 26L45 24L44 24L44 23L43 23L43 22ZM60 22L60 23L61 23L61 22ZM15 23L15 24L16 24L16 23ZM7 24L7 25L6 25L6 26L7 26L7 25L8 25L8 24ZM10 24L10 25L12 25L12 24ZM25 24L25 25L24 25L24 26L25 26L25 25L26 25L26 24ZM52 24L52 25L53 25L53 26L52 26L52 27L54 27L54 29L56 29L56 28L57 28L57 25L56 25L56 24L55 24L55 25L56 25L56 26L54 26L54 25L53 25L53 24ZM9 26L9 27L8 27L8 28L9 28L9 27L10 27L10 26ZM12 27L12 29L13 29L13 28L14 28L14 27ZM55 27L55 28L56 28L56 27ZM64 27L64 28L62 28L62 31L63 31L63 32L62 32L62 33L64 33L64 34L65 34L65 32L64 32L64 31L63 31L63 29L64 29L64 30L65 30L65 29L64 29L64 28L65 28L65 27ZM0 28L0 29L1 29L1 28ZM6 28L6 29L7 29L7 28ZM36 28L36 29L37 29L37 30L38 30L38 29L37 29L37 28ZM43 28L43 29L44 29L44 28ZM25 29L25 30L26 30L26 29ZM0 30L0 34L1 34L1 30ZM50 30L50 31L51 31L51 30ZM5 31L5 34L8 34L8 31ZM9 31L9 32L10 32L10 31ZM31 31L31 34L34 34L34 31ZM42 31L42 32L43 32L43 31ZM57 31L57 34L60 34L60 31ZM6 32L6 33L7 33L7 32ZM32 32L32 33L33 33L33 32ZM58 32L58 33L59 33L59 32ZM3 33L3 35L4 35L4 33ZM46 34L46 35L47 35L47 34ZM55 34L55 35L56 35L56 34ZM6 35L6 36L8 36L8 37L9 37L9 36L8 36L8 35ZM25 35L25 36L26 36L26 35ZM12 36L12 38L13 38L13 36ZM57 36L57 37L58 37L58 36ZM10 38L10 39L11 39L11 40L12 40L12 39L11 39L11 38ZM21 38L21 39L22 39L22 38ZM20 40L20 41L21 41L21 40ZM57 40L57 41L58 41L58 43L59 43L59 41L58 41L58 40ZM12 41L12 42L13 42L13 41ZM64 41L64 42L65 42L65 41ZM9 42L9 43L6 43L6 44L7 44L7 45L5 45L5 47L6 47L6 48L7 48L7 47L6 47L6 46L9 46L9 48L8 48L8 52L7 52L7 51L6 51L6 52L7 52L7 53L6 53L6 54L7 54L7 55L8 55L8 56L9 56L9 55L11 55L11 57L12 57L12 55L11 55L11 54L10 54L10 53L9 53L9 51L10 51L10 49L11 49L11 48L10 48L10 47L11 47L11 45L10 45L10 46L9 46L9 45L8 45L8 44L10 44L10 42ZM29 42L29 43L28 43L28 44L27 44L27 45L28 45L28 44L29 44L29 43L30 43L30 42ZM42 42L42 43L43 43L43 42ZM56 42L56 43L57 43L57 42ZM62 43L62 44L63 44L63 43ZM0 44L0 45L1 45L1 44ZM38 44L38 46L37 46L37 47L36 47L36 48L37 48L37 47L38 47L38 46L39 46L39 44ZM50 44L50 45L49 45L49 46L50 46L50 45L51 45L51 46L52 46L52 44ZM19 46L19 47L20 47L20 46ZM13 47L13 48L14 48L14 47ZM23 47L23 49L24 49L24 47ZM50 47L50 49L51 49L51 47ZM52 47L52 48L53 48L53 50L55 50L55 51L54 51L54 52L56 52L56 50L58 50L58 49L56 49L56 50L55 50L55 49L54 49L54 47ZM34 48L34 49L35 49L35 50L36 50L36 49L35 49L35 48ZM48 48L48 49L49 49L49 48ZM45 49L45 51L44 51L44 52L43 52L43 51L42 51L42 52L41 52L41 53L39 53L39 54L38 54L38 55L39 55L39 56L38 56L38 57L39 57L39 56L41 56L41 55L42 55L42 56L43 56L43 57L41 57L41 58L43 58L43 57L44 57L44 56L45 56L45 57L47 57L47 56L48 56L48 57L50 57L50 56L51 56L51 58L50 58L50 59L49 59L49 58L48 58L48 59L49 59L49 60L47 60L47 62L48 62L48 61L49 61L49 60L50 60L50 59L52 59L52 58L53 58L53 57L52 57L52 56L53 56L53 55L54 55L54 54L55 54L55 53L54 53L54 54L53 54L53 55L52 55L52 53L51 53L51 52L53 52L53 51L51 51L51 50L50 50L50 51L49 51L49 50L48 50L48 51L49 51L49 52L46 52L46 51L47 51L47 50L46 50L46 49ZM17 50L17 51L18 51L18 50ZM12 51L12 52L13 52L13 51ZM24 51L24 52L25 52L25 51ZM28 51L28 52L29 52L29 51ZM42 52L42 53L41 53L41 54L39 54L39 55L41 55L41 54L42 54L42 55L44 55L44 54L45 54L45 55L46 55L46 56L47 56L47 55L48 55L48 56L50 56L50 54L51 54L51 53L50 53L50 54L49 54L49 55L48 55L48 54L47 54L47 53L46 53L46 54L45 54L45 52L44 52L44 54L42 54L42 53L43 53L43 52ZM58 52L58 53L61 53L61 52ZM7 53L7 54L8 54L8 55L9 55L9 53ZM46 54L46 55L47 55L47 54ZM58 54L58 55L59 55L59 56L60 56L60 55L59 55L59 54ZM13 55L13 56L14 56L14 55ZM21 55L21 56L20 56L20 57L21 57L21 56L22 56L22 55ZM51 55L51 56L52 56L52 55ZM36 56L36 57L37 57L37 56ZM61 56L61 58L62 58L62 60L61 60L61 61L58 61L58 62L61 62L61 63L60 63L60 64L63 64L63 63L62 63L62 62L63 62L63 61L62 61L62 60L63 60L63 58L62 58L62 56ZM9 57L9 58L10 58L10 59L11 59L11 60L10 60L10 61L12 61L12 62L13 62L13 61L14 61L14 60L13 60L13 61L12 61L12 59L11 59L11 58L10 58L10 57ZM31 57L31 60L34 60L34 57ZM57 57L57 60L60 60L60 57ZM32 58L32 59L33 59L33 58ZM58 58L58 59L59 59L59 58ZM29 59L29 60L30 60L30 59ZM45 60L45 61L46 61L46 60ZM25 61L25 62L26 62L26 61ZM33 61L33 62L32 62L32 63L31 63L31 64L32 64L32 63L33 63L33 64L34 64L34 63L33 63L33 62L34 62L34 61ZM55 61L55 62L54 62L54 63L55 63L55 64L59 64L59 63L57 63L57 62L56 62L56 61ZM36 62L36 63L35 63L35 64L37 64L37 62ZM12 63L12 64L13 64L13 63ZM0 0L0 7L7 7L7 0ZM1 1L1 6L6 6L6 1ZM2 2L2 5L5 5L5 2ZM58 0L58 7L65 7L65 0ZM59 1L59 6L64 6L64 1ZM60 2L60 5L63 5L63 2ZM0 58L0 65L7 65L7 58ZM1 59L1 64L6 64L6 59ZM2 60L2 63L5 63L5 60Z" fill="#000000"/></g></g></svg>
