<?xml version="1.0" encoding="UTF-8"?>
<svg xmlns="http://www.w3.org/2000/svg" version="1.1" width="300" height="300" viewBox="0 0 300 300"><rect x="0" y="0" width="300" height="300" fill="#ffffff"/><g transform="scale(4.918)"><g transform="translate(0,0)"><path fill-rule="evenodd" d="M8 0L8 4L9 4L9 5L8 5L8 7L9 7L9 8L10 8L10 7L11 7L11 4L13 4L13 5L14 5L14 3L12 3L12 1L11 1L11 0ZM13 0L13 1L14 1L14 2L15 2L15 1L16 1L16 2L17 2L17 1L18 1L18 2L20 2L20 1L21 1L21 2L23 2L23 1L24 1L24 3L22 3L22 5L21 5L21 3L19 3L19 4L20 4L20 5L21 5L21 6L20 6L20 7L21 7L21 8L18 8L18 9L17 9L17 8L16 8L16 7L17 7L17 5L18 5L18 7L19 7L19 5L18 5L18 4L17 4L17 5L16 5L16 7L15 7L15 6L14 6L14 7L15 7L15 8L12 8L12 9L10 9L10 12L9 12L9 9L8 9L8 12L9 12L9 13L10 13L10 12L12 12L12 13L11 13L11 14L8 14L8 13L7 13L7 12L6 12L6 11L7 11L7 10L6 10L6 9L7 9L7 8L4 8L4 9L2 9L2 8L0 8L0 15L2 15L2 18L1 18L1 16L0 16L0 18L1 18L1 19L0 19L0 20L1 20L1 21L0 21L0 24L2 24L2 25L3 25L3 27L2 27L2 26L1 26L1 25L0 25L0 32L1 32L1 33L0 33L0 34L2 34L2 35L1 35L1 36L2 36L2 37L0 37L0 41L1 41L1 42L0 42L0 47L1 47L1 48L4 48L4 49L3 49L3 50L2 50L2 49L1 49L1 50L2 50L2 51L0 51L0 53L4 53L4 52L5 52L5 51L7 51L7 52L6 52L6 53L8 53L8 54L9 54L9 55L8 55L8 57L9 57L9 56L10 56L10 59L8 59L8 61L9 61L9 60L10 60L10 59L11 59L11 56L12 56L12 55L11 55L11 54L9 54L9 53L10 53L10 52L9 52L9 51L7 51L7 50L6 50L6 49L7 49L7 48L6 48L6 47L7 47L7 46L5 46L5 45L9 45L9 44L10 44L10 46L8 46L8 47L10 47L10 48L13 48L13 49L12 49L12 50L11 50L11 52L12 52L12 50L13 50L13 49L14 49L14 51L13 51L13 52L14 52L14 53L15 53L15 54L14 54L14 56L13 56L13 58L12 58L12 60L11 60L11 61L12 61L12 60L16 60L16 61L17 61L17 60L18 60L18 61L20 61L20 60L18 60L18 59L19 59L19 57L18 57L18 56L19 56L19 54L18 54L18 53L20 53L20 55L21 55L21 52L22 52L22 50L25 50L25 49L27 49L27 51L28 51L28 53L27 53L27 52L26 52L26 51L25 51L25 52L26 52L26 53L22 53L22 56L21 56L21 57L20 57L20 59L22 59L22 60L21 60L21 61L22 61L22 60L24 60L24 59L22 59L22 58L23 58L23 57L24 57L24 58L26 58L26 57L27 57L27 54L28 54L28 58L27 58L27 59L26 59L26 60L25 60L25 61L28 61L28 60L30 60L30 61L31 61L31 60L30 60L30 59L32 59L32 61L33 61L33 60L36 60L36 61L38 61L38 60L37 60L37 59L40 59L40 55L41 55L41 61L42 61L42 59L43 59L43 55L44 55L44 57L45 57L45 59L44 59L44 61L45 61L45 60L46 60L46 61L53 61L53 57L55 57L55 58L56 58L56 57L58 57L58 60L56 60L56 61L61 61L61 60L60 60L60 58L61 58L61 57L60 57L60 58L59 58L59 54L58 54L58 53L59 53L59 52L60 52L60 53L61 53L61 51L58 51L58 50L60 50L60 49L59 49L59 48L61 48L61 47L59 47L59 46L58 46L58 45L59 45L59 43L60 43L60 40L61 40L61 39L60 39L60 40L59 40L59 39L58 39L58 38L57 38L57 37L55 37L55 35L54 35L54 34L53 34L53 33L56 33L56 34L57 34L57 31L58 31L58 37L61 37L61 36L60 36L60 35L59 35L59 34L60 34L60 33L59 33L59 31L58 31L58 30L59 30L59 29L61 29L61 27L60 27L60 28L59 28L59 26L60 26L60 24L61 24L61 23L58 23L58 22L57 22L57 18L58 18L58 21L59 21L59 20L60 20L60 21L61 21L61 19L59 19L59 18L58 18L58 17L61 17L61 15L60 15L60 16L59 16L59 14L60 14L60 13L59 13L59 11L60 11L60 12L61 12L61 11L60 11L60 10L59 10L59 9L61 9L61 8L57 8L57 11L55 11L55 10L56 10L56 8L55 8L55 9L53 9L53 6L52 6L52 8L51 8L51 5L52 5L52 4L53 4L53 0L51 0L51 2L50 2L50 0L49 0L49 1L48 1L48 0L47 0L47 1L46 1L46 2L45 2L45 1L44 1L44 0L42 0L42 1L41 1L41 0L40 0L40 1L41 1L41 2L38 2L38 1L39 1L39 0L37 0L37 1L36 1L36 3L37 3L37 2L38 2L38 3L40 3L40 5L39 5L39 4L37 4L37 5L36 5L36 7L35 7L35 5L34 5L34 4L35 4L35 1L34 1L34 0L33 0L33 1L32 1L32 2L31 2L31 3L29 3L29 4L28 4L28 0L27 0L27 2L26 2L26 0L22 0L22 1L21 1L21 0L19 0L19 1L18 1L18 0ZM30 0L30 1L29 1L29 2L30 2L30 1L31 1L31 0ZM10 1L10 2L9 2L9 4L10 4L10 2L11 2L11 1ZM33 1L33 2L32 2L32 4L34 4L34 3L33 3L33 2L34 2L34 1ZM42 1L42 2L43 2L43 4L44 4L44 6L43 6L43 5L42 5L42 4L41 4L41 5L40 5L40 6L39 6L39 5L37 5L37 7L38 7L38 6L39 6L39 7L40 7L40 11L38 11L38 9L39 9L39 8L38 8L38 9L36 9L36 10L35 10L35 7L34 7L34 6L33 6L33 8L34 8L34 9L32 9L32 12L34 12L34 13L32 13L32 15L31 15L31 10L29 10L29 9L28 9L28 5L27 5L27 3L26 3L26 2L25 2L25 4L26 4L26 5L27 5L27 9L26 9L26 6L25 6L25 5L24 5L24 4L23 4L23 7L24 7L24 8L22 8L22 9L19 9L19 10L18 10L18 11L16 11L16 10L17 10L17 9L16 9L16 8L15 8L15 9L14 9L14 10L13 10L13 11L12 11L12 12L13 12L13 14L12 14L12 15L11 15L11 16L12 16L12 15L14 15L14 16L15 16L15 15L16 15L16 14L20 14L20 13L21 13L21 14L22 14L22 13L26 13L26 15L25 15L25 16L24 16L24 15L23 15L23 16L22 16L22 15L21 15L21 16L20 16L20 17L21 17L21 18L20 18L20 20L19 20L19 21L18 21L18 22L17 22L17 21L15 21L15 19L16 19L16 18L18 18L18 19L19 19L19 17L18 17L18 16L16 16L16 17L15 17L15 19L12 19L12 18L11 18L11 17L10 17L10 16L9 16L9 17L10 17L10 19L8 19L8 22L7 22L7 21L6 21L6 22L3 22L3 21L5 21L5 20L7 20L7 19L6 19L6 18L8 18L8 15L6 15L6 14L7 14L7 13L6 13L6 14L4 14L4 13L3 13L3 12L5 12L5 11L6 11L6 10L5 10L5 11L3 11L3 12L2 12L2 9L1 9L1 14L2 14L2 13L3 13L3 14L4 14L4 15L5 15L5 17L6 17L6 18L5 18L5 19L4 19L4 17L3 17L3 18L2 18L2 19L1 19L1 20L2 20L2 24L3 24L3 23L4 23L4 25L6 25L6 26L8 26L8 27L9 27L9 26L10 26L10 24L11 24L11 26L12 26L12 28L11 28L11 29L9 29L9 31L12 31L12 32L13 32L13 33L12 33L12 34L11 34L11 37L12 37L12 36L14 36L14 34L13 34L13 33L17 33L17 34L16 34L16 35L15 35L15 39L14 39L14 40L13 40L13 42L16 42L16 43L15 43L15 44L14 44L14 45L16 45L16 47L19 47L19 46L20 46L20 49L18 49L18 48L16 48L16 49L15 49L15 48L14 48L14 49L15 49L15 51L14 51L14 52L15 52L15 53L16 53L16 55L15 55L15 56L16 56L16 55L18 55L18 54L17 54L17 53L16 53L16 52L15 52L15 51L16 51L16 50L17 50L17 49L18 49L18 50L19 50L19 51L17 51L17 52L19 52L19 51L21 51L21 50L22 50L22 49L25 49L25 48L26 48L26 46L27 46L27 45L28 45L28 48L27 48L27 49L28 49L28 48L31 48L31 47L32 47L32 49L30 49L30 50L29 50L29 51L30 51L30 52L31 52L31 50L32 50L32 52L35 52L35 53L34 53L34 55L35 55L35 53L36 53L36 51L37 51L37 52L39 52L39 54L41 54L41 55L42 55L42 52L43 52L43 53L44 53L44 54L45 54L45 53L44 53L44 52L45 52L45 51L47 51L47 50L48 50L48 51L49 51L49 53L48 53L48 52L47 52L47 53L46 53L46 54L47 54L47 55L50 55L50 56L51 56L51 58L52 58L52 55L50 55L50 49L52 49L52 50L53 50L53 51L51 51L51 54L52 54L52 52L54 52L54 51L55 51L55 52L57 52L57 53L58 53L58 51L55 51L55 50L56 50L56 49L57 49L57 48L58 48L58 46L57 46L57 47L55 47L55 46L56 46L56 45L58 45L58 43L57 43L57 42L56 42L56 41L58 41L58 39L56 39L56 38L55 38L55 37L54 37L54 36L53 36L53 35L50 35L50 34L49 34L49 33L48 33L48 31L47 31L47 28L48 28L48 27L50 27L50 28L49 28L49 31L50 31L50 29L52 29L52 28L51 28L51 27L50 27L50 25L51 25L51 26L52 26L52 27L53 27L53 25L55 25L55 26L56 26L56 27L55 27L55 28L56 28L56 27L57 27L57 30L58 30L58 26L59 26L59 25L57 25L57 26L56 26L56 24L55 24L55 23L53 23L53 22L54 22L54 21L55 21L55 22L56 22L56 23L57 23L57 24L58 24L58 23L57 23L57 22L56 22L56 21L55 21L55 20L56 20L56 18L57 18L57 17L58 17L58 14L59 14L59 13L58 13L58 11L59 11L59 10L58 10L58 11L57 11L57 13L56 13L56 12L55 12L55 11L54 11L54 10L53 10L53 9L51 9L51 8L50 8L50 9L49 9L49 10L48 10L48 9L47 9L47 7L48 7L48 6L49 6L49 7L50 7L50 6L49 6L49 5L50 5L50 4L49 4L49 3L50 3L50 2L49 2L49 3L48 3L48 5L47 5L47 3L46 3L46 4L45 4L45 3L44 3L44 2L43 2L43 1ZM15 3L15 4L16 4L16 3ZM51 3L51 4L52 4L52 3ZM29 5L29 8L32 8L32 5ZM46 5L46 7L45 7L45 6L44 6L44 7L43 7L43 6L42 6L42 7L41 7L41 6L40 6L40 7L41 7L41 8L43 8L43 9L41 9L41 10L42 10L42 11L41 11L41 12L42 12L42 11L43 11L43 13L42 13L42 15L41 15L41 13L40 13L40 14L39 14L39 13L38 13L38 14L39 14L39 15L37 15L37 14L36 14L36 15L35 15L35 16L36 16L36 19L34 19L34 17L33 17L33 16L32 16L32 17L31 17L31 21L29 21L29 19L28 19L28 18L27 18L27 19L26 19L26 21L24 21L24 22L23 22L23 21L22 21L22 22L21 22L21 21L20 21L20 22L18 22L18 23L16 23L16 22L15 22L15 21L14 21L14 20L12 20L12 21L11 21L11 20L9 20L9 22L8 22L8 23L7 23L7 22L6 22L6 23L5 23L5 24L6 24L6 25L7 25L7 24L8 24L8 23L9 23L9 24L10 24L10 23L12 23L12 25L15 25L15 27L14 27L14 26L13 26L13 27L14 27L14 29L15 29L15 30L14 30L14 31L13 31L13 30L12 30L12 29L13 29L13 28L12 28L12 29L11 29L11 30L12 30L12 31L13 31L13 32L14 32L14 31L16 31L16 29L17 29L17 27L16 27L16 25L18 25L18 26L19 26L19 28L18 28L18 29L19 29L19 28L20 28L20 30L19 30L19 31L18 31L18 30L17 30L17 33L20 33L20 34L21 34L21 35L18 35L18 34L17 34L17 36L16 36L16 37L20 37L20 38L19 38L19 39L21 39L21 41L20 41L20 42L19 42L19 40L18 40L18 41L17 41L17 39L18 39L18 38L16 38L16 41L17 41L17 43L16 43L16 45L17 45L17 44L18 44L18 45L19 45L19 44L21 44L21 45L20 45L20 46L21 46L21 47L24 47L24 48L25 48L25 47L24 47L24 46L26 46L26 45L27 45L27 44L26 44L26 43L25 43L25 42L26 42L26 41L27 41L27 43L28 43L28 44L30 44L30 45L29 45L29 47L30 47L30 45L32 45L32 43L33 43L33 44L34 44L34 45L33 45L33 46L32 46L32 47L33 47L33 46L34 46L34 45L35 45L35 44L36 44L36 47L34 47L34 48L33 48L33 50L34 50L34 48L36 48L36 49L38 49L38 50L37 50L37 51L39 51L39 48L40 48L40 47L41 47L41 48L43 48L43 45L42 45L42 44L41 44L41 45L42 45L42 47L41 47L41 46L39 46L39 44L38 44L38 45L37 45L37 43L34 43L34 42L32 42L32 43L30 43L30 42L29 42L29 41L28 41L28 40L29 40L29 39L28 39L28 37L27 37L27 36L28 36L28 35L31 35L31 36L29 36L29 38L30 38L30 37L31 37L31 36L32 36L32 35L33 35L33 38L32 38L32 39L31 39L31 40L30 40L30 41L33 41L33 40L34 40L34 41L35 41L35 42L37 42L37 41L38 41L38 43L39 43L39 42L40 42L40 43L44 43L44 51L45 51L45 50L46 50L46 48L47 48L47 47L48 47L48 49L50 49L50 48L49 48L49 47L48 47L48 46L49 46L49 43L44 43L44 42L46 42L46 40L47 40L47 42L49 42L49 39L48 39L48 38L46 38L46 37L47 37L47 35L48 35L48 37L50 37L50 43L51 43L51 37L50 37L50 36L49 36L49 34L47 34L47 35L45 35L45 34L46 34L46 33L47 33L47 31L46 31L46 29L45 29L45 27L46 27L46 28L47 28L47 27L48 27L48 25L49 25L49 24L51 24L51 25L53 25L53 23L52 23L52 21L53 21L53 20L54 20L54 19L55 19L55 18L56 18L56 17L57 17L57 14L55 14L55 13L54 13L54 15L53 15L53 16L52 16L52 17L51 17L51 16L50 16L50 17L49 17L49 15L48 15L48 13L49 13L49 12L50 12L50 15L52 15L52 13L53 13L53 12L54 12L54 11L53 11L53 12L52 12L52 10L51 10L51 9L50 9L50 10L49 10L49 11L46 11L46 7L47 7L47 5ZM9 6L9 7L10 7L10 6ZM12 6L12 7L13 7L13 6ZM21 6L21 7L22 7L22 6ZM24 6L24 7L25 7L25 6ZM30 6L30 7L31 7L31 6ZM22 9L22 10L23 10L23 11L21 11L21 10L20 10L20 11L18 11L18 12L15 12L15 11L14 11L14 14L16 14L16 13L20 13L20 12L24 12L24 11L25 11L25 12L26 12L26 13L27 13L27 12L28 12L28 14L29 14L29 15L27 15L27 16L25 16L25 17L22 17L22 16L21 16L21 17L22 17L22 18L26 18L26 17L27 17L27 16L28 16L28 17L29 17L29 15L30 15L30 12L29 12L29 11L28 11L28 9L27 9L27 10L25 10L25 9ZM44 9L44 10L43 10L43 11L45 11L45 9ZM33 10L33 11L34 11L34 10ZM36 10L36 11L35 11L35 13L37 13L37 10ZM50 10L50 12L51 12L51 13L52 13L52 12L51 12L51 10ZM26 11L26 12L27 12L27 11ZM45 12L45 13L44 13L44 14L43 14L43 16L41 16L41 15L39 15L39 18L40 18L40 19L41 19L41 18L42 18L42 17L43 17L43 16L44 16L44 15L45 15L45 17L44 17L44 18L46 18L46 19L45 19L45 21L44 21L44 22L43 22L43 24L42 24L42 25L41 25L41 23L42 23L42 21L43 21L43 19L42 19L42 20L40 20L40 21L39 21L39 19L38 19L38 18L37 18L37 19L38 19L38 20L37 20L37 21L39 21L39 22L41 22L41 23L40 23L40 26L39 26L39 27L38 27L38 25L39 25L39 23L37 23L37 22L36 22L36 20L34 20L34 19L33 19L33 17L32 17L32 20L33 20L33 21L32 21L32 23L31 23L31 22L29 22L29 21L28 21L28 19L27 19L27 22L25 22L25 23L24 23L24 24L22 24L22 23L23 23L23 22L22 22L22 23L21 23L21 22L20 22L20 23L19 23L19 24L18 24L18 25L19 25L19 24L20 24L20 23L21 23L21 24L22 24L22 25L21 25L21 26L20 26L20 27L21 27L21 26L22 26L22 25L23 25L23 26L24 26L24 27L22 27L22 29L21 29L21 30L20 30L20 33L21 33L21 32L22 32L22 33L25 33L25 34L26 34L26 35L24 35L24 34L23 34L23 35L22 35L22 36L20 36L20 37L23 37L23 36L24 36L24 37L26 37L26 40L25 40L25 38L23 38L23 39L22 39L22 41L21 41L21 42L20 42L20 43L23 43L23 44L22 44L22 45L21 45L21 46L22 46L22 45L23 45L23 46L24 46L24 45L25 45L25 43L23 43L23 42L24 42L24 41L26 41L26 40L28 40L28 39L27 39L27 37L26 37L26 36L27 36L27 33L28 33L28 34L31 34L31 35L32 35L32 34L33 34L33 33L28 33L28 32L27 32L27 33L25 33L25 32L26 32L26 31L27 31L27 29L28 29L28 28L27 28L27 29L26 29L26 27L29 27L29 28L32 28L32 27L33 27L33 30L34 30L34 40L35 40L35 38L36 38L36 35L37 35L37 37L39 37L39 38L41 38L41 39L39 39L39 40L40 40L40 41L43 41L43 42L44 42L44 40L43 40L43 39L44 39L44 37L43 37L43 39L42 39L42 37L41 37L41 36L44 36L44 35L43 35L43 34L45 34L45 33L46 33L46 32L45 32L45 33L44 33L44 31L45 31L45 29L44 29L44 31L42 31L42 28L41 28L41 27L40 27L40 26L42 26L42 25L43 25L43 24L44 24L44 23L45 23L45 25L44 25L44 26L43 26L43 28L44 28L44 27L45 27L45 25L46 25L46 27L47 27L47 25L46 25L46 24L48 24L48 23L47 23L47 22L50 22L50 20L53 20L53 18L54 18L54 17L56 17L56 16L54 16L54 17L52 17L52 18L51 18L51 19L50 19L50 18L49 18L49 17L48 17L48 15L47 15L47 13L48 13L48 12L47 12L47 13L46 13L46 12ZM45 13L45 14L46 14L46 13ZM33 14L33 15L34 15L34 14ZM6 16L6 17L7 17L7 16ZM13 17L13 18L14 18L14 17ZM40 17L40 18L41 18L41 17ZM47 17L47 18L48 18L48 17ZM3 19L3 20L4 20L4 19ZM22 19L22 20L24 20L24 19ZM48 19L48 20L47 20L47 21L49 21L49 19ZM12 21L12 23L13 23L13 24L15 24L15 22L14 22L14 21ZM33 21L33 24L32 24L32 25L30 25L30 26L29 26L29 24L30 24L30 23L28 23L28 24L27 24L27 23L25 23L25 24L26 24L26 25L24 25L24 26L26 26L26 25L27 25L27 26L29 26L29 27L30 27L30 26L31 26L31 27L32 27L32 25L33 25L33 24L34 24L34 25L37 25L37 23L34 23L34 21ZM9 22L9 23L10 23L10 22ZM45 22L45 23L46 23L46 22ZM6 23L6 24L7 24L7 23ZM36 26L36 27L35 27L35 29L38 29L38 30L39 30L39 31L41 31L41 32L42 32L42 31L41 31L41 30L40 30L40 29L38 29L38 27L37 27L37 26ZM3 27L3 29L4 29L4 27ZM6 27L6 28L7 28L7 27ZM24 27L24 28L25 28L25 27ZM15 28L15 29L16 29L16 28ZM1 29L1 32L2 32L2 34L8 34L8 35L9 35L9 34L10 34L10 33L11 33L11 32L9 32L9 34L8 34L8 33L4 33L4 32L2 32L2 31L3 31L3 30L2 30L2 29ZM5 29L5 32L8 32L8 29ZM22 29L22 30L21 30L21 31L22 31L22 32L24 32L24 31L25 31L25 30L26 30L26 29ZM29 29L29 32L32 32L32 29ZM53 29L53 32L56 32L56 29ZM6 30L6 31L7 31L7 30ZM22 30L22 31L23 31L23 30ZM30 30L30 31L31 31L31 30ZM35 30L35 32L36 32L36 33L38 33L38 34L37 34L37 35L39 35L39 36L40 36L40 35L41 35L41 34L43 34L43 33L40 33L40 34L39 34L39 33L38 33L38 32L37 32L37 31L36 31L36 30ZM51 30L51 31L52 31L52 30ZM54 30L54 31L55 31L55 30ZM51 33L51 34L52 34L52 33ZM35 34L35 35L36 35L36 34ZM4 35L4 36L5 36L5 35ZM6 35L6 36L7 36L7 37L3 37L3 38L2 38L2 39L4 39L4 38L7 38L7 39L5 39L5 40L4 40L4 42L3 42L3 40L1 40L1 41L2 41L2 42L1 42L1 44L2 44L2 45L1 45L1 47L2 47L2 46L4 46L4 47L5 47L5 46L4 46L4 44L3 44L3 43L5 43L5 44L7 44L7 43L8 43L8 44L9 44L9 42L11 42L11 41L12 41L12 39L13 39L13 38L11 38L11 39L10 39L10 36L7 36L7 35ZM56 35L56 36L57 36L57 35ZM45 36L45 37L46 37L46 36ZM52 36L52 37L53 37L53 36ZM8 37L8 39L7 39L7 40L5 40L5 41L7 41L7 40L8 40L8 39L9 39L9 37ZM52 38L52 40L54 40L54 41L56 41L56 40L55 40L55 39L53 39L53 38ZM23 39L23 40L24 40L24 39ZM32 39L32 40L33 40L33 39ZM37 39L37 40L38 40L38 39ZM41 39L41 40L42 40L42 39ZM47 39L47 40L48 40L48 39ZM9 40L9 41L11 41L11 40ZM14 40L14 41L15 41L15 40ZM22 41L22 42L23 42L23 41ZM52 41L52 44L53 44L53 41ZM5 42L5 43L7 43L7 42ZM18 42L18 43L19 43L19 42ZM28 42L28 43L29 43L29 42ZM10 43L10 44L11 44L11 45L12 45L12 46L10 46L10 47L13 47L13 45L12 45L12 44L11 44L11 43ZM54 43L54 45L52 45L52 46L51 46L51 44L50 44L50 47L53 47L53 46L55 46L55 45L56 45L56 43ZM46 44L46 46L45 46L45 48L46 48L46 47L47 47L47 44ZM60 44L60 45L61 45L61 44ZM37 46L37 48L39 48L39 47L38 47L38 46ZM54 47L54 49L56 49L56 48L55 48L55 47ZM8 48L8 50L9 50L9 48ZM52 48L52 49L53 49L53 48ZM20 49L20 50L21 50L21 49ZM41 49L41 50L40 50L40 51L41 51L41 52L42 52L42 51L43 51L43 49ZM35 50L35 51L36 51L36 50ZM3 51L3 52L4 52L4 51ZM8 52L8 53L9 53L9 52ZM12 53L12 54L13 54L13 53ZM26 53L26 54L27 54L27 53ZM29 53L29 56L32 56L32 53ZM53 53L53 56L56 56L56 53ZM23 54L23 55L24 55L24 54ZM30 54L30 55L31 55L31 54ZM54 54L54 55L55 55L55 54ZM57 54L57 56L58 56L58 54ZM10 55L10 56L11 56L11 55ZM25 55L25 56L24 56L24 57L26 57L26 55ZM45 55L45 57L46 57L46 59L50 59L50 58L48 58L48 57L47 57L47 56L46 56L46 55ZM22 56L22 57L21 57L21 58L22 58L22 57L23 57L23 56ZM33 56L33 57L34 57L34 58L36 58L36 59L37 59L37 58L38 58L38 57L39 57L39 56L37 56L37 57L34 57L34 56ZM14 57L14 58L13 58L13 59L16 59L16 58L17 58L17 59L18 59L18 57ZM31 57L31 58L32 58L32 59L33 59L33 58L32 58L32 57ZM28 58L28 59L29 59L29 58ZM51 59L51 60L52 60L52 59ZM0 0L0 7L7 7L7 0ZM1 1L1 6L6 6L6 1ZM2 2L2 5L5 5L5 2ZM54 0L54 7L61 7L61 0ZM55 1L55 6L60 6L60 1ZM56 2L56 5L59 5L59 2ZM0 54L0 61L7 61L7 54ZM1 55L1 60L6 60L6 55ZM2 56L2 59L5 59L5 56Z" fill="#000000"/></g></g></svg>
