<?xml version="1.0" encoding="UTF-8"?>
<svg xmlns="http://www.w3.org/2000/svg" version="1.1" width="300" height="300" viewBox="0 0 300 300"><rect x="0" y="0" width="300" height="300" fill="#ffffff"/><g transform="scale(4.918)"><g transform="translate(0,0)"><path fill-rule="evenodd" d="M8 0L8 1L9 1L9 3L10 3L10 1L11 1L11 2L12 2L12 1L15 1L15 0L12 0L12 1L11 1L11 0ZM19 0L19 1L18 1L18 2L19 2L19 3L14 3L14 2L13 2L13 4L19 4L19 5L18 5L18 8L17 8L17 9L16 9L16 8L15 8L15 9L16 9L16 10L15 10L15 11L14 11L14 13L13 13L13 15L12 15L12 16L14 16L14 17L13 17L13 18L12 18L12 20L13 20L13 22L12 22L12 23L13 23L13 27L12 27L12 26L11 26L11 24L10 24L10 23L11 23L11 21L10 21L10 20L11 20L11 19L9 19L9 21L8 21L8 22L6 22L6 21L7 21L7 20L6 20L6 19L7 19L7 18L5 18L5 20L4 20L4 21L3 21L3 23L2 23L2 20L3 20L3 19L2 19L2 18L3 18L3 17L2 17L2 18L1 18L1 17L0 17L0 18L1 18L1 19L0 19L0 21L1 21L1 22L0 22L0 23L1 23L1 24L4 24L4 23L5 23L5 24L6 24L6 25L7 25L7 26L5 26L5 25L3 25L3 26L4 26L4 27L8 27L8 26L9 26L9 28L3 28L3 30L2 30L2 28L1 28L1 25L0 25L0 29L1 29L1 30L0 30L0 34L1 34L1 35L2 35L2 34L3 34L3 35L4 35L4 36L5 36L5 37L4 37L4 39L1 39L1 38L3 38L3 37L2 37L2 36L1 36L1 37L0 37L0 40L3 40L3 41L5 41L5 42L6 42L6 43L7 43L7 44L4 44L4 43L3 43L3 44L4 44L4 46L2 46L2 47L4 47L4 49L3 49L3 48L2 48L2 49L1 49L1 46L0 46L0 49L1 49L1 50L2 50L2 51L0 51L0 53L4 53L4 52L5 52L5 51L7 51L7 52L6 52L6 53L8 53L8 54L9 54L9 56L8 56L8 58L9 58L9 59L8 59L8 61L9 61L9 60L10 60L10 59L11 59L11 57L12 57L12 58L15 58L15 57L16 57L16 60L15 60L15 61L16 61L16 60L17 60L17 57L16 57L16 55L17 55L17 54L18 54L18 57L19 57L19 58L21 58L21 56L22 56L22 57L24 57L24 58L23 58L23 59L21 59L21 60L22 60L22 61L23 61L23 60L24 60L24 58L26 58L26 60L25 60L25 61L29 61L29 60L27 60L27 59L28 59L28 58L26 58L26 57L24 57L24 56L27 56L27 57L29 57L29 58L31 58L31 59L30 59L30 61L31 61L31 60L32 60L32 61L34 61L34 60L35 60L35 61L37 61L37 60L36 60L36 59L37 59L37 58L35 58L35 57L38 57L38 58L40 58L40 57L41 57L41 60L40 60L40 59L39 59L39 60L38 60L38 61L42 61L42 60L43 60L43 59L42 59L42 58L44 58L44 61L45 61L45 59L47 59L47 60L46 60L46 61L47 61L47 60L48 60L48 61L49 61L49 60L48 60L48 59L49 59L49 57L50 57L50 58L51 58L51 59L50 59L50 61L51 61L51 59L52 59L52 60L53 60L53 61L54 61L54 60L55 60L55 61L57 61L57 60L60 60L60 61L61 61L61 57L60 57L60 58L59 58L59 57L57 57L57 56L58 56L58 55L59 55L59 56L61 56L61 54L60 54L60 55L59 55L59 51L60 51L60 53L61 53L61 50L60 50L60 48L61 48L61 46L60 46L60 48L59 48L59 47L58 47L58 46L59 46L59 45L58 45L58 42L59 42L59 44L60 44L60 45L61 45L61 42L59 42L59 39L60 39L60 41L61 41L61 38L59 38L59 39L58 39L58 38L57 38L57 37L58 37L58 36L59 36L59 37L61 37L61 36L60 36L60 35L61 35L61 34L60 34L60 35L59 35L59 34L58 34L58 33L57 33L57 32L58 32L58 31L59 31L59 33L61 33L61 32L60 32L60 31L61 31L61 30L60 30L60 31L59 31L59 28L60 28L60 27L61 27L61 26L60 26L60 25L61 25L61 22L59 22L59 21L58 21L58 19L59 19L59 20L60 20L60 21L61 21L61 18L60 18L60 17L61 17L61 14L59 14L59 13L60 13L60 12L59 12L59 11L61 11L61 10L59 10L59 9L58 9L58 10L56 10L56 12L55 12L55 11L52 11L52 12L54 12L54 13L53 13L53 14L52 14L52 13L50 13L50 12L48 12L48 13L50 13L50 14L49 14L49 16L48 16L48 14L47 14L47 17L46 17L46 13L47 13L47 11L48 11L48 10L49 10L49 11L51 11L51 9L52 9L52 10L55 10L55 8L54 8L54 9L52 9L52 8L47 8L47 6L48 6L48 7L49 7L49 6L50 6L50 7L51 7L51 5L52 5L52 4L53 4L53 0L51 0L51 2L49 2L49 1L50 1L50 0L49 0L49 1L47 1L47 0L45 0L45 1L46 1L46 4L45 4L45 2L44 2L44 0L41 0L41 1L43 1L43 2L42 2L42 3L43 3L43 2L44 2L44 4L45 4L45 5L46 5L46 4L47 4L47 6L46 6L46 7L45 7L45 6L44 6L44 7L45 7L45 10L44 10L44 12L43 12L43 13L42 13L42 11L41 11L41 10L43 10L43 9L44 9L44 8L43 8L43 9L41 9L41 5L43 5L43 4L41 4L41 2L39 2L39 4L38 4L38 5L35 5L35 6L34 6L34 7L33 7L33 4L32 4L32 3L33 3L33 1L32 1L32 0L28 0L28 2L27 2L27 1L26 1L26 0L24 0L24 1L22 1L22 0ZM34 0L34 2L36 2L36 1L37 1L37 3L36 3L36 4L37 4L37 3L38 3L38 1L39 1L39 0ZM16 1L16 2L17 2L17 1ZM20 1L20 3L19 3L19 4L21 4L21 5L22 5L22 6L21 6L21 7L20 7L20 5L19 5L19 8L21 8L21 10L22 10L22 11L21 11L21 12L20 12L20 11L19 11L19 13L18 13L18 11L17 11L17 10L19 10L19 9L17 9L17 10L16 10L16 14L15 14L15 13L14 13L14 15L15 15L15 16L16 16L16 17L14 17L14 19L13 19L13 20L14 20L14 21L15 21L15 22L14 22L14 24L16 24L16 25L14 25L14 27L13 27L13 29L12 29L12 30L13 30L13 29L15 29L15 27L16 27L16 28L17 28L17 29L18 29L18 30L19 30L19 31L17 31L17 30L16 30L16 31L17 31L17 32L15 32L15 30L14 30L14 33L17 33L17 34L14 34L14 35L12 35L12 34L10 34L10 33L12 33L12 32L13 32L13 31L11 31L11 28L12 28L12 27L11 27L11 26L10 26L10 24L9 24L9 22L10 22L10 21L9 21L9 22L8 22L8 24L9 24L9 26L10 26L10 28L9 28L9 29L10 29L10 30L9 30L9 32L10 32L10 33L9 33L9 34L8 34L8 33L5 33L5 35L6 35L6 36L7 36L7 37L6 37L6 38L7 38L7 39L6 39L6 40L8 40L8 39L9 39L9 34L10 34L10 35L12 35L12 36L11 36L11 37L10 37L10 40L9 40L9 41L6 41L6 42L9 42L9 43L10 43L10 44L8 44L8 47L9 47L9 45L10 45L10 49L9 49L9 48L7 48L7 47L6 47L6 46L7 46L7 45L5 45L5 46L4 46L4 47L6 47L6 48L7 48L7 49L6 49L6 50L7 50L7 51L8 51L8 53L10 53L10 54L13 54L13 55L14 55L14 54L15 54L15 55L16 55L16 53L14 53L14 50L15 50L15 49L16 49L16 51L15 51L15 52L16 52L16 51L17 51L17 53L18 53L18 54L20 54L20 55L22 55L22 56L24 56L24 53L25 53L25 55L26 55L26 53L25 53L25 52L24 52L24 51L25 51L25 50L27 50L27 49L25 49L25 48L26 48L26 46L27 46L27 44L26 44L26 43L27 43L27 42L23 42L23 40L24 40L24 41L25 41L25 40L24 40L24 39L27 39L27 37L26 37L26 36L27 36L27 35L26 35L26 34L27 34L27 33L28 33L28 27L29 27L29 26L30 26L30 25L31 25L31 24L32 24L32 23L31 23L31 22L33 22L33 24L34 24L34 25L32 25L32 26L31 26L31 28L33 28L33 30L34 30L34 32L33 32L33 33L32 33L32 34L31 34L31 33L30 33L30 34L28 34L28 35L32 35L32 36L33 36L33 35L34 35L34 34L33 34L33 33L34 33L34 32L35 32L35 36L37 36L37 34L36 34L36 32L37 32L37 30L34 30L34 29L35 29L35 28L38 28L38 30L41 30L41 33L39 33L39 34L38 34L38 36L39 36L39 34L40 34L40 36L41 36L41 33L43 33L43 34L42 34L42 35L43 35L43 37L44 37L44 38L42 38L42 37L39 37L39 38L41 38L41 39L38 39L38 38L37 38L37 39L36 39L36 38L35 38L35 37L34 37L34 39L33 39L33 40L35 40L35 42L34 42L34 41L32 41L32 40L31 40L31 39L30 39L30 38L32 38L32 37L30 37L30 36L28 36L28 37L29 37L29 40L27 40L27 41L30 41L30 42L29 42L29 43L28 43L28 44L29 44L29 45L28 45L28 47L27 47L27 48L29 48L29 49L28 49L28 50L29 50L29 51L26 51L26 52L29 52L29 51L31 51L31 50L33 50L33 53L35 53L35 51L36 51L36 52L38 52L38 53L36 53L36 54L37 54L37 55L35 55L35 54L34 54L34 55L33 55L33 56L34 56L34 57L35 57L35 56L37 56L37 55L39 55L39 52L38 52L38 49L34 49L34 48L33 48L33 46L34 46L34 45L33 45L33 44L32 44L32 43L33 43L33 42L34 42L34 43L35 43L35 46L37 46L37 47L36 47L36 48L41 48L41 49L39 49L39 51L40 51L40 53L41 53L41 52L42 52L42 51L43 51L43 52L44 52L44 50L45 50L45 52L46 52L46 51L48 51L48 52L49 52L49 53L48 53L48 54L50 54L50 55L48 55L48 56L50 56L50 57L51 57L51 58L52 58L52 59L53 59L53 57L51 57L51 56L50 56L50 55L51 55L51 54L52 54L52 53L51 53L51 52L49 52L49 51L48 51L48 50L50 50L50 49L46 49L46 48L45 48L45 49L44 49L44 47L43 47L43 46L45 46L45 44L46 44L46 45L47 45L47 48L49 48L49 47L50 47L50 48L51 48L51 46L49 46L49 47L48 47L48 45L47 45L47 44L49 44L49 45L50 45L50 44L49 44L49 43L47 43L47 42L49 42L49 41L48 41L48 40L51 40L51 39L52 39L52 41L53 41L53 42L52 42L52 44L53 44L53 45L54 45L54 44L56 44L56 43L53 43L53 42L54 42L54 41L55 41L55 40L56 40L56 42L58 42L58 41L57 41L57 39L53 39L53 35L54 35L54 37L55 37L55 38L56 38L56 37L57 37L57 36L55 36L55 35L54 35L54 34L55 34L55 33L53 33L53 34L52 34L52 37L51 37L51 39L49 39L49 38L50 38L50 35L51 35L51 34L49 34L49 33L48 33L48 32L49 32L49 31L51 31L51 32L52 32L52 31L51 31L51 29L50 29L50 30L49 30L49 31L48 31L48 28L49 28L49 27L47 27L47 26L48 26L48 24L49 24L49 26L50 26L50 25L51 25L51 26L52 26L52 27L51 27L51 28L53 28L53 27L54 27L54 28L55 28L55 27L56 27L56 28L58 28L58 27L59 27L59 26L58 26L58 25L60 25L60 23L59 23L59 24L57 24L57 26L56 26L56 24L54 24L54 23L56 23L56 22L58 22L58 21L57 21L57 19L58 19L58 18L59 18L59 19L60 19L60 18L59 18L59 17L60 17L60 16L59 16L59 17L57 17L57 18L56 18L56 20L54 20L54 19L55 19L55 18L54 18L54 17L56 17L56 16L57 16L57 14L58 14L58 15L59 15L59 14L58 14L58 13L59 13L59 12L58 12L58 11L57 11L57 13L56 13L56 15L55 15L55 14L53 14L53 16L54 16L54 17L53 17L53 18L51 18L51 17L50 17L50 16L52 16L52 15L50 15L50 16L49 16L49 17L48 17L48 18L46 18L46 17L45 17L45 18L46 18L46 19L44 19L44 21L45 21L45 22L42 22L42 21L41 21L41 22L40 22L40 21L39 21L39 22L38 22L38 20L37 20L37 19L36 19L36 20L35 20L35 18L34 18L34 19L33 19L33 21L32 21L32 20L29 20L29 19L30 19L30 18L31 18L31 19L32 19L32 17L31 17L31 16L30 16L30 17L27 17L27 18L28 18L28 19L27 19L27 20L25 20L25 19L26 19L26 17L25 17L25 16L24 16L24 15L25 15L25 14L24 14L24 15L23 15L23 16L20 16L20 15L22 15L22 12L23 12L23 9L25 9L25 10L24 10L24 11L25 11L25 12L24 12L24 13L26 13L26 14L28 14L28 15L27 15L27 16L28 16L28 15L29 15L29 14L30 14L30 13L31 13L31 15L33 15L33 17L36 17L36 18L38 18L38 19L39 19L39 20L40 20L40 19L41 19L41 20L42 20L42 17L43 17L43 18L44 18L44 16L45 16L45 15L44 15L44 16L42 16L42 15L43 15L43 14L42 14L42 13L40 13L40 14L41 14L41 15L40 15L40 17L38 17L38 16L39 16L39 14L38 14L38 13L39 13L39 11L40 11L40 12L41 12L41 11L40 11L40 10L41 10L41 9L40 9L40 5L41 5L41 4L40 4L40 5L39 5L39 10L37 10L37 9L38 9L38 8L37 8L37 7L38 7L38 6L37 6L37 7L36 7L36 6L35 6L35 8L37 8L37 9L36 9L36 10L35 10L35 11L36 11L36 12L34 12L34 11L33 11L33 12L32 12L32 11L31 11L31 12L30 12L30 11L29 11L29 12L28 12L28 4L31 4L31 3L32 3L32 1L31 1L31 3L27 3L27 7L26 7L26 4L25 4L25 3L23 3L23 4L25 4L25 7L24 7L24 6L23 6L23 5L22 5L22 4L21 4L21 3L22 3L22 1ZM24 1L24 2L25 2L25 1ZM48 2L48 3L49 3L49 2ZM11 3L11 4L12 4L12 3ZM51 3L51 4L52 4L52 3ZM9 4L9 5L10 5L10 4ZM48 4L48 5L49 5L49 4ZM11 5L11 6L10 6L10 7L9 7L9 6L8 6L8 8L9 8L9 10L10 10L10 8L12 8L12 9L11 9L11 11L10 11L10 12L9 12L9 11L8 11L8 10L6 10L6 9L7 9L7 8L6 8L6 9L5 9L5 8L3 8L3 9L2 9L2 8L0 8L0 9L1 9L1 12L0 12L0 13L2 13L2 11L3 11L3 13L4 13L4 12L5 12L5 10L6 10L6 11L7 11L7 12L6 12L6 13L8 13L8 14L6 14L6 15L5 15L5 17L8 17L8 18L9 18L9 17L8 17L8 16L9 16L9 15L10 15L10 16L11 16L11 14L12 14L12 12L13 12L13 11L12 11L12 10L14 10L14 9L13 9L13 8L14 8L14 7L15 7L15 6L14 6L14 7L13 7L13 5ZM29 5L29 8L32 8L32 5ZM11 6L11 7L12 7L12 6ZM16 6L16 7L17 7L17 6ZM22 6L22 7L23 7L23 8L22 8L22 9L23 9L23 8L24 8L24 7L23 7L23 6ZM30 6L30 7L31 7L31 6ZM42 6L42 7L43 7L43 6ZM52 6L52 7L53 7L53 6ZM25 7L25 9L26 9L26 7ZM33 8L33 9L31 9L31 10L34 10L34 8ZM46 8L46 9L47 9L47 8ZM60 8L60 9L61 9L61 8ZM3 9L3 10L4 10L4 9ZM29 9L29 10L30 10L30 9ZM25 10L25 11L26 11L26 13L28 13L28 12L27 12L27 11L26 11L26 10ZM37 11L37 12L36 12L36 13L38 13L38 11ZM29 12L29 13L30 13L30 12ZM33 12L33 14L34 14L34 12ZM17 13L17 14L16 14L16 16L17 16L17 17L16 17L16 19L14 19L14 20L15 20L15 21L16 21L16 22L15 22L15 23L17 23L17 21L19 21L19 22L18 22L18 25L20 25L20 28L21 28L21 25L20 25L20 24L19 24L19 22L21 22L21 24L22 24L22 26L23 26L23 25L24 25L24 27L22 27L22 28L23 28L23 29L24 29L24 30L21 30L21 31L22 31L22 32L17 32L17 33L19 33L19 34L20 34L20 35L18 35L18 34L17 34L17 35L18 35L18 37L17 37L17 39L16 39L16 38L15 38L15 37L14 37L14 36L16 36L16 35L14 35L14 36L12 36L12 38L11 38L11 41L12 41L12 42L11 42L11 44L10 44L10 45L11 45L11 46L12 46L12 45L13 45L13 44L12 44L12 43L13 43L13 42L14 42L14 41L15 41L15 43L14 43L14 44L15 44L15 45L14 45L14 46L13 46L13 48L12 48L12 49L10 49L10 50L8 50L8 49L7 49L7 50L8 50L8 51L9 51L9 52L11 52L11 53L12 53L12 49L13 49L13 48L14 48L14 49L15 49L15 48L16 48L16 47L17 47L17 51L19 51L19 52L18 52L18 53L19 53L19 52L20 52L20 50L22 50L22 51L21 51L21 53L22 53L22 52L23 52L23 50L25 50L25 49L24 49L24 46L25 46L25 45L26 45L26 44L25 44L25 43L24 43L24 44L25 44L25 45L24 45L24 46L23 46L23 47L22 47L22 46L21 46L21 45L19 45L19 43L18 43L18 42L17 42L17 39L18 39L18 37L19 37L19 40L18 40L18 41L19 41L19 42L20 42L20 44L22 44L22 45L23 45L23 44L22 44L22 42L20 42L20 38L21 38L21 39L23 39L23 37L24 37L24 38L26 38L26 37L24 37L24 36L26 36L26 35L25 35L25 33L26 33L26 32L27 32L27 28L26 28L26 27L28 27L28 26L29 26L29 25L30 25L30 24L31 24L31 23L30 23L30 24L29 24L29 22L26 22L26 25L24 25L24 24L25 24L25 23L24 23L24 22L25 22L25 21L24 21L24 22L22 22L22 21L23 21L23 20L24 20L24 18L25 18L25 17L24 17L24 16L23 16L23 17L24 17L24 18L22 18L22 17L21 17L21 18L20 18L20 20L17 20L17 19L19 19L19 18L18 18L18 17L19 17L19 16L17 16L17 14L18 14L18 13ZM20 13L20 14L21 14L21 13ZM44 13L44 14L45 14L45 13ZM2 14L2 15L0 15L0 16L2 16L2 15L3 15L3 16L4 16L4 15L3 15L3 14ZM36 14L36 15L37 15L37 16L36 16L36 17L37 17L37 16L38 16L38 14ZM6 15L6 16L7 16L7 15ZM54 15L54 16L55 16L55 15ZM41 16L41 17L42 17L42 16ZM10 17L10 18L11 18L11 17ZM39 18L39 19L40 19L40 18ZM48 18L48 19L49 19L49 20L48 20L48 21L46 21L46 20L45 20L45 21L46 21L46 22L45 22L45 23L44 23L44 24L43 24L43 25L42 25L42 26L43 26L43 27L42 27L42 28L41 28L41 30L43 30L43 33L44 33L44 31L45 31L45 30L47 30L47 29L45 29L45 28L44 28L44 25L45 25L45 26L46 26L46 25L47 25L47 24L48 24L48 21L49 21L49 22L51 22L51 23L49 23L49 24L53 24L53 26L55 26L55 25L54 25L54 24L53 24L53 23L52 23L52 22L55 22L55 21L52 21L52 20L53 20L53 19L54 19L54 18L53 18L53 19L50 19L50 18ZM5 20L5 21L6 21L6 20ZM16 20L16 21L17 21L17 20ZM21 20L21 21L22 21L22 20ZM34 20L34 21L33 21L33 22L34 22L34 24L36 24L36 25L38 25L38 26L37 26L37 27L38 27L38 28L39 28L39 29L40 29L40 25L41 25L41 24L42 24L42 23L41 23L41 24L40 24L40 25L39 25L39 23L40 23L40 22L39 22L39 23L38 23L38 22L35 22L35 20ZM36 20L36 21L37 21L37 20ZM30 21L30 22L31 22L31 21ZM5 22L5 23L6 23L6 24L7 24L7 23L6 23L6 22ZM27 23L27 24L28 24L28 23ZM36 23L36 24L38 24L38 23ZM45 23L45 25L46 25L46 23ZM26 25L26 26L25 26L25 27L24 27L24 28L25 28L25 27L26 27L26 26L27 26L27 25ZM16 26L16 27L18 27L18 29L19 29L19 30L20 30L20 29L19 29L19 26ZM35 26L35 27L36 27L36 26ZM57 26L57 27L58 27L58 26ZM33 27L33 28L34 28L34 27ZM46 27L46 28L47 28L47 27ZM42 28L42 29L43 29L43 30L44 30L44 28ZM5 29L5 32L8 32L8 29ZM25 29L25 30L24 30L24 31L23 31L23 33L21 33L21 34L22 34L22 36L20 36L20 37L21 37L21 38L22 38L22 36L23 36L23 35L24 35L24 34L23 34L23 33L25 33L25 32L24 32L24 31L26 31L26 29ZM29 29L29 32L32 32L32 29ZM53 29L53 32L56 32L56 29ZM3 30L3 31L1 31L1 32L4 32L4 30ZM6 30L6 31L7 31L7 30ZM30 30L30 31L31 31L31 30ZM54 30L54 31L55 31L55 30ZM57 30L57 31L58 31L58 30ZM47 31L47 32L48 32L48 31ZM45 32L45 34L46 34L46 35L45 35L45 36L44 36L44 37L47 37L47 36L46 36L46 35L48 35L48 34L47 34L47 33L46 33L46 32ZM1 33L1 34L2 34L2 33ZM6 34L6 35L7 35L7 36L8 36L8 34ZM43 34L43 35L44 35L44 34ZM56 34L56 35L57 35L57 34ZM48 36L48 37L49 37L49 36ZM7 37L7 38L8 38L8 37ZM13 37L13 38L12 38L12 40L13 40L13 38L14 38L14 39L15 39L15 41L16 41L16 39L15 39L15 38L14 38L14 37ZM44 38L44 39L42 39L42 40L41 40L41 41L39 41L39 42L40 42L40 43L38 43L38 44L36 44L36 45L37 45L37 46L38 46L38 47L40 47L40 45L42 45L42 46L43 46L43 45L44 45L44 43L46 43L46 42L47 42L47 41L46 41L46 40L48 40L48 39L46 39L46 38ZM37 39L37 40L36 40L36 43L37 43L37 42L38 42L38 39ZM44 39L44 40L45 40L45 39ZM30 40L30 41L31 41L31 40ZM42 40L42 41L41 41L41 42L42 42L42 43L41 43L41 44L42 44L42 43L44 43L44 42L45 42L45 41L44 41L44 42L42 42L42 41L43 41L43 40ZM0 41L0 42L1 42L1 41ZM50 41L50 43L51 43L51 41ZM16 42L16 43L15 43L15 44L16 44L16 45L17 45L17 47L18 47L18 48L19 48L19 47L18 47L18 46L19 46L19 45L17 45L17 42ZM30 42L30 43L29 43L29 44L30 44L30 45L31 45L31 46L29 46L29 48L30 48L30 49L29 49L29 50L30 50L30 49L31 49L31 48L32 48L32 47L31 47L31 46L32 46L32 45L31 45L31 43L32 43L32 42ZM0 43L0 45L2 45L2 44L1 44L1 43ZM11 44L11 45L12 45L12 44ZM14 46L14 47L15 47L15 46ZM53 46L53 47L52 47L52 49L51 49L51 50L52 50L52 49L54 49L54 50L56 50L56 51L52 51L52 52L57 52L57 51L59 51L59 48L58 48L58 47L57 47L57 46L56 46L56 47L54 47L54 46ZM20 47L20 49L18 49L18 50L20 50L20 49L22 49L22 47ZM30 47L30 48L31 48L31 47ZM41 47L41 48L42 48L42 49L41 49L41 50L40 50L40 51L41 51L41 50L43 50L43 48L42 48L42 47ZM54 48L54 49L56 49L56 50L57 50L57 49L58 49L58 48L57 48L57 49L56 49L56 48ZM33 49L33 50L34 50L34 51L35 51L35 50L34 50L34 49ZM45 49L45 50L46 50L46 49ZM36 50L36 51L37 51L37 50ZM3 51L3 52L4 52L4 51ZM13 53L13 54L14 54L14 53ZM29 53L29 56L32 56L32 53ZM53 53L53 56L56 56L56 53ZM22 54L22 55L23 55L23 54ZM27 54L27 56L28 56L28 54ZM30 54L30 55L31 55L31 54ZM40 54L40 55L41 55L41 56L43 56L43 57L44 57L44 58L45 58L45 57L46 57L46 55L44 55L44 56L43 56L43 54ZM54 54L54 55L55 55L55 54ZM57 54L57 55L58 55L58 54ZM10 55L10 57L9 57L9 58L10 58L10 57L11 57L11 55ZM39 56L39 57L40 57L40 56ZM32 57L32 59L33 59L33 60L34 60L34 59L35 59L35 58L34 58L34 59L33 59L33 57ZM56 57L56 58L55 58L55 60L56 60L56 58L57 58L57 59L59 59L59 58L57 58L57 57ZM47 58L47 59L48 59L48 58ZM11 60L11 61L12 61L12 60ZM18 60L18 61L19 61L19 60ZM0 0L0 7L7 7L7 0ZM1 1L1 6L6 6L6 1ZM2 2L2 5L5 5L5 2ZM54 0L54 7L61 7L61 0ZM55 1L55 6L60 6L60 1ZM56 2L56 5L59 5L59 2ZM0 54L0 61L7 61L7 54ZM1 55L1 60L6 60L6 55ZM2 56L2 59L5 59L5 56Z" fill="#000000"/></g></g></svg>
