<?xml version="1.0" encoding="UTF-8"?>
<svg xmlns="http://www.w3.org/2000/svg" version="1.1" width="300" height="300" viewBox="0 0 300 300"><rect x="0" y="0" width="300" height="300" fill="#ffffff"/><g transform="scale(4.918)"><g transform="translate(0,0)"><path fill-rule="evenodd" d="M10 0L10 1L8 1L8 2L10 2L10 4L11 4L11 3L12 3L12 5L11 5L11 6L10 6L10 7L11 7L11 6L12 6L12 7L13 7L13 6L14 6L14 8L15 8L15 9L14 9L14 10L15 10L15 9L17 9L17 10L16 10L16 12L15 12L15 11L14 11L14 12L15 12L15 13L13 13L13 14L15 14L15 15L16 15L16 16L17 16L17 17L19 17L19 20L18 20L18 19L17 19L17 20L16 20L16 19L15 19L15 18L16 18L16 17L15 17L15 18L14 18L14 17L13 17L13 19L12 19L12 18L11 18L11 19L12 19L12 20L13 20L13 19L14 19L14 20L15 20L15 21L17 21L17 20L18 20L18 21L19 21L19 20L20 20L20 21L21 21L21 20L20 20L20 17L21 17L21 19L23 19L23 20L24 20L24 19L23 19L23 18L24 18L24 17L25 17L25 15L26 15L26 14L27 14L27 15L29 15L29 16L30 16L30 17L26 17L26 18L27 18L27 19L25 19L25 21L24 21L24 22L23 22L23 21L22 21L22 22L21 22L21 23L19 23L19 25L18 25L18 24L17 24L17 23L18 23L18 22L17 22L17 23L15 23L15 25L18 25L18 27L15 27L15 26L14 26L14 25L13 25L13 24L14 24L14 21L13 21L13 22L12 22L12 23L11 23L11 24L12 24L12 25L10 25L10 26L12 26L12 25L13 25L13 26L14 26L14 27L12 27L12 28L11 28L11 27L10 27L10 29L9 29L9 26L8 26L8 28L6 28L6 27L7 27L7 26L6 26L6 25L9 25L9 24L10 24L10 21L11 21L11 20L10 20L10 17L7 17L7 16L8 16L8 15L9 15L9 16L10 16L10 14L8 14L8 15L7 15L7 14L6 14L6 13L8 13L8 12L9 12L9 11L7 11L7 10L8 10L8 9L9 9L9 10L11 10L11 11L10 11L10 13L12 13L12 12L13 12L13 10L12 10L12 8L11 8L11 9L10 9L10 8L6 8L6 9L7 9L7 10L6 10L6 11L5 11L5 8L0 8L0 10L1 10L1 11L2 11L2 12L4 12L4 13L5 13L5 14L6 14L6 15L7 15L7 16L6 16L6 17L7 17L7 18L4 18L4 17L5 17L5 16L4 16L4 17L3 17L3 18L4 18L4 19L3 19L3 20L4 20L4 21L2 21L2 18L1 18L1 17L0 17L0 19L1 19L1 20L0 20L0 21L1 21L1 23L0 23L0 25L1 25L1 27L0 27L0 28L1 28L1 27L2 27L2 30L1 30L1 31L0 31L0 32L1 32L1 33L2 33L2 34L1 34L1 36L0 36L0 37L1 37L1 38L0 38L0 39L1 39L1 40L0 40L0 41L1 41L1 42L0 42L0 43L1 43L1 44L0 44L0 46L1 46L1 48L0 48L0 49L2 49L2 48L4 48L4 49L3 49L3 50L2 50L2 51L0 51L0 53L4 53L4 52L5 52L5 51L7 51L7 52L6 52L6 53L8 53L8 55L9 55L9 56L8 56L8 61L11 61L11 60L12 60L12 61L13 61L13 60L14 60L14 61L19 61L19 59L20 59L20 58L19 58L19 57L20 57L20 54L19 54L19 57L18 57L18 56L16 56L16 55L14 55L14 56L13 56L13 55L12 55L12 54L13 54L13 53L14 53L14 54L15 54L15 53L14 53L14 51L13 51L13 50L14 50L14 49L11 49L11 48L10 48L10 47L12 47L12 45L13 45L13 48L15 48L15 47L14 47L14 45L19 45L19 47L20 47L20 49L19 49L19 48L17 48L17 47L18 47L18 46L16 46L16 48L17 48L17 49L19 49L19 50L17 50L17 51L18 51L18 52L16 52L16 51L15 51L15 52L16 52L16 53L19 53L19 50L20 50L20 51L22 51L22 52L24 52L24 51L22 51L22 49L23 49L23 50L24 50L24 49L25 49L25 53L24 53L24 54L28 54L28 56L27 56L27 58L26 58L26 57L24 57L24 58L23 58L23 57L22 57L22 55L23 55L23 53L21 53L21 52L20 52L20 53L21 53L21 54L22 54L22 55L21 55L21 60L20 60L20 61L21 61L21 60L23 60L23 59L24 59L24 58L25 58L25 60L26 60L26 59L27 59L27 60L29 60L29 61L31 61L31 60L29 60L29 59L28 59L28 58L30 58L30 59L32 59L32 60L34 60L34 59L35 59L35 60L36 60L36 61L38 61L38 60L37 60L37 59L40 59L40 60L39 60L39 61L40 61L40 60L41 60L41 59L40 59L40 58L38 58L38 55L39 55L39 54L38 54L38 51L40 51L40 52L41 52L41 51L40 51L40 50L43 50L43 51L42 51L42 52L45 52L45 51L47 51L47 50L45 50L45 51L44 51L44 50L43 50L43 49L42 49L42 48L41 48L41 47L42 47L42 46L43 46L43 47L44 47L44 48L46 48L46 49L47 49L47 48L48 48L48 49L49 49L49 50L48 50L48 51L49 51L49 52L48 52L48 53L47 53L47 54L46 54L46 53L44 53L44 54L45 54L45 55L42 55L42 54L43 54L43 53L41 53L41 54L40 54L40 56L42 56L42 58L43 58L43 59L44 59L44 60L43 60L43 61L44 61L44 60L45 60L45 59L44 59L44 56L45 56L45 57L47 57L47 58L46 58L46 59L49 59L49 60L48 60L48 61L50 61L50 60L51 60L51 58L53 58L53 59L52 59L52 61L54 61L54 60L55 60L55 61L56 61L56 58L57 58L57 59L59 59L59 58L58 58L58 57L60 57L60 60L58 60L58 61L61 61L61 57L60 57L60 56L61 56L61 54L59 54L59 55L60 55L60 56L58 56L58 57L57 57L57 53L59 53L59 52L58 52L58 50L60 50L60 51L61 51L61 50L60 50L60 49L59 49L59 48L58 48L58 50L56 50L56 49L57 49L57 48L56 48L56 49L55 49L55 48L54 48L54 47L57 47L57 46L56 46L56 45L59 45L59 46L58 46L58 47L59 47L59 46L60 46L60 47L61 47L61 46L60 46L60 45L61 45L61 41L59 41L59 40L61 40L61 38L60 38L60 37L59 37L59 36L58 36L58 33L59 33L59 32L57 32L57 30L60 30L60 31L61 31L61 30L60 30L60 29L61 29L61 28L60 28L60 27L61 27L61 26L60 26L60 25L61 25L61 22L58 22L58 21L59 21L59 20L58 20L58 17L59 17L59 19L61 19L61 14L60 14L60 13L59 13L59 12L60 12L60 11L61 11L61 10L60 10L60 11L59 11L59 12L58 12L58 11L55 11L55 13L53 13L53 12L54 12L54 10L55 10L55 9L56 9L56 10L57 10L57 9L58 9L58 8L57 8L57 9L56 9L56 8L55 8L55 9L54 9L54 8L52 8L52 7L53 7L53 6L52 6L52 7L51 7L51 5L52 5L52 4L53 4L53 0L51 0L51 2L50 2L50 1L49 1L49 0L48 0L48 1L46 1L46 0L44 0L44 1L45 1L45 2L44 2L44 3L43 3L43 0L41 0L41 1L42 1L42 3L41 3L41 5L43 5L43 4L44 4L44 5L45 5L45 6L44 6L44 7L43 7L43 6L42 6L42 7L43 7L43 9L42 9L42 8L41 8L41 6L40 6L40 5L38 5L38 4L37 4L37 3L39 3L39 4L40 4L40 3L39 3L39 1L38 1L38 0L37 0L37 1L36 1L36 2L35 2L35 1L34 1L34 2L32 2L32 1L33 1L33 0L32 0L32 1L30 1L30 0L29 0L29 1L30 1L30 3L31 3L31 4L29 4L29 3L27 3L27 0L24 0L24 1L23 1L23 2L22 2L22 1L20 1L20 0L19 0L19 2L22 2L22 3L23 3L23 2L24 2L24 3L25 3L25 4L24 4L24 7L23 7L23 6L22 6L22 5L23 5L23 4L21 4L21 3L20 3L20 4L19 4L19 3L17 3L17 1L18 1L18 0L16 0L16 1L15 1L15 2L16 2L16 3L15 3L15 4L14 4L14 2L13 2L13 0L12 0L12 2L11 2L11 0ZM37 1L37 2L36 2L36 3L35 3L35 2L34 2L34 3L33 3L33 4L34 4L34 5L33 5L33 8L34 8L34 6L35 6L35 8L37 8L37 9L38 9L38 10L37 10L37 11L38 11L38 10L39 10L39 11L40 11L40 10L41 10L41 12L39 12L39 13L41 13L41 12L44 12L44 13L43 13L43 14L40 14L40 15L39 15L39 14L37 14L37 13L38 13L38 12L36 12L36 11L35 11L35 12L36 12L36 13L34 13L34 14L36 14L36 16L37 16L37 17L38 17L38 18L37 18L37 19L36 19L36 18L35 18L35 17L33 17L33 18L32 18L32 15L33 15L33 14L32 14L32 13L33 13L33 10L35 10L35 9L32 9L32 10L30 10L30 9L29 9L29 10L28 10L28 9L25 9L25 8L26 8L26 6L25 6L25 7L24 7L24 8L22 8L22 9L21 9L21 7L22 7L22 6L21 6L21 7L20 7L20 5L21 5L21 4L20 4L20 5L19 5L19 4L18 4L18 5L17 5L17 4L16 4L16 5L17 5L17 7L16 7L16 6L15 6L15 8L17 8L17 9L18 9L18 8L17 8L17 7L18 7L18 5L19 5L19 9L21 9L21 10L22 10L22 11L24 11L24 9L25 9L25 12L21 12L21 13L15 13L15 14L19 14L19 16L21 16L21 17L22 17L22 18L23 18L23 17L24 17L24 15L25 15L25 14L26 14L26 13L28 13L28 14L29 14L29 15L30 15L30 16L31 16L31 19L32 19L32 20L34 20L34 19L33 19L33 18L35 18L35 21L36 21L36 20L38 20L38 22L37 22L37 23L35 23L35 22L34 22L34 21L33 21L33 22L32 22L32 21L31 21L31 20L29 20L29 19L30 19L30 18L29 18L29 19L27 19L27 20L26 20L26 21L25 21L25 23L24 23L24 24L22 24L22 25L21 25L21 24L20 24L20 25L19 25L19 26L20 26L20 27L19 27L19 29L18 29L18 30L17 30L17 29L14 29L14 30L17 30L17 31L20 31L20 32L19 32L19 33L17 33L17 32L16 32L16 31L15 31L15 32L14 32L14 31L13 31L13 29L12 29L12 30L11 30L11 29L10 29L10 30L9 30L9 31L10 31L10 30L11 30L11 31L13 31L13 32L9 32L9 33L5 33L5 34L4 34L4 31L3 31L3 30L2 30L2 31L1 31L1 32L2 32L2 33L3 33L3 34L4 34L4 35L5 35L5 36L11 36L11 35L10 35L10 34L11 34L11 33L13 33L13 34L12 34L12 35L14 35L14 36L12 36L12 37L11 37L11 38L10 38L10 37L9 37L9 38L8 38L8 37L4 37L4 36L2 36L2 38L1 38L1 39L2 39L2 40L3 40L3 38L7 38L7 39L6 39L6 40L5 40L5 39L4 39L4 41L2 41L2 44L3 44L3 45L1 45L1 46L3 46L3 47L4 47L4 48L5 48L5 50L9 50L9 51L8 51L8 52L9 52L9 53L10 53L10 52L9 52L9 51L11 51L11 54L12 54L12 52L13 52L13 51L12 51L12 50L10 50L10 48L9 48L9 49L8 49L8 47L9 47L9 46L10 46L10 45L9 45L9 44L11 44L11 45L12 45L12 43L10 43L10 41L11 41L11 42L13 42L13 40L14 40L14 41L15 41L15 42L16 42L16 43L15 43L15 44L18 44L18 43L17 43L17 41L18 41L18 40L17 40L17 39L18 39L18 38L19 38L19 41L21 41L21 40L22 40L22 41L25 41L25 42L22 42L22 43L21 43L21 45L20 45L20 44L19 44L19 45L20 45L20 47L22 47L22 45L23 45L23 49L24 49L24 47L25 47L25 48L26 48L26 49L27 49L27 50L28 50L28 49L27 49L27 48L26 48L26 45L27 45L27 44L26 44L26 45L25 45L25 44L24 44L24 43L25 43L25 42L29 42L29 39L28 39L28 41L25 41L25 40L26 40L26 39L25 39L25 38L26 38L26 37L27 37L27 38L28 38L28 37L30 37L30 36L28 36L28 37L27 37L27 35L26 35L26 34L25 34L25 36L24 36L24 35L23 35L23 34L24 34L24 33L23 33L23 32L25 32L25 33L27 33L27 34L28 34L28 33L27 33L27 32L28 32L28 29L27 29L27 28L28 28L28 27L31 27L31 28L32 28L32 27L31 27L31 26L35 26L35 27L34 27L34 28L35 28L35 29L33 29L33 30L35 30L35 32L33 32L33 35L31 35L31 38L33 38L33 39L32 39L32 40L31 40L31 41L30 41L30 42L31 42L31 45L30 45L30 46L29 46L29 45L28 45L28 46L29 46L29 47L28 47L28 48L29 48L29 47L31 47L31 48L32 48L32 49L29 49L29 50L30 50L30 51L29 51L29 52L34 52L34 51L32 51L32 50L35 50L35 49L33 49L33 48L35 48L35 47L34 47L34 46L36 46L36 47L39 47L39 48L37 48L37 51L35 51L35 52L37 52L37 51L38 51L38 50L39 50L39 48L40 48L40 49L41 49L41 48L40 48L40 47L41 47L41 46L42 46L42 45L43 45L43 44L44 44L44 45L45 45L45 46L44 46L44 47L45 47L45 46L48 46L48 48L50 48L50 50L49 50L49 51L50 51L50 52L49 52L49 53L50 53L50 54L49 54L49 55L48 55L48 56L49 56L49 59L50 59L50 58L51 58L51 56L52 56L52 55L50 55L50 54L51 54L51 52L52 52L52 51L53 51L53 52L57 52L57 51L56 51L56 50L55 50L55 49L54 49L54 50L55 50L55 51L53 51L53 49L52 49L52 51L50 51L50 50L51 50L51 48L52 48L52 47L53 47L53 45L54 45L54 44L55 44L55 45L56 45L56 44L57 44L57 43L53 43L53 42L52 42L52 41L56 41L56 42L57 42L57 41L56 41L56 39L57 39L57 40L59 40L59 39L57 39L57 37L56 37L56 36L55 36L55 35L56 35L56 34L57 34L57 33L56 33L56 34L55 34L55 35L53 35L53 34L51 34L51 32L49 32L49 31L50 31L50 30L51 30L51 31L52 31L52 29L47 29L47 27L45 27L45 26L47 26L47 24L49 24L49 23L50 23L50 22L53 22L53 23L55 23L55 22L53 22L53 21L54 21L54 20L53 20L53 21L51 21L51 20L52 20L52 18L53 18L53 19L55 19L55 20L56 20L56 23L57 23L57 24L56 24L56 27L55 27L55 26L53 26L53 25L55 25L55 24L53 24L53 25L52 25L52 26L53 26L53 27L52 27L52 28L53 28L53 27L55 27L55 28L56 28L56 27L57 27L57 25L58 25L58 26L59 26L59 25L58 25L58 24L60 24L60 23L57 23L57 21L58 21L58 20L56 20L56 19L55 19L55 18L56 18L56 17L57 17L57 16L59 16L59 15L60 15L60 14L59 14L59 15L57 15L57 12L56 12L56 14L53 14L53 13L51 13L51 12L52 12L52 11L53 11L53 9L52 9L52 11L51 11L51 9L50 9L50 8L49 8L49 7L50 7L50 5L49 5L49 4L47 4L47 3L46 3L46 2L45 2L45 3L44 3L44 4L45 4L45 5L47 5L47 7L46 7L46 6L45 6L45 8L44 8L44 9L43 9L43 10L42 10L42 9L41 9L41 8L40 8L40 10L39 10L39 9L38 9L38 8L39 8L39 7L40 7L40 6L39 6L39 7L38 7L38 5L37 5L37 4L36 4L36 3L37 3L37 2L38 2L38 1ZM48 1L48 3L50 3L50 2L49 2L49 1ZM25 2L25 3L26 3L26 4L25 4L25 5L26 5L26 4L27 4L27 3L26 3L26 2ZM31 2L31 3L32 3L32 2ZM8 3L8 4L9 4L9 3ZM45 3L45 4L46 4L46 3ZM51 3L51 4L52 4L52 3ZM13 4L13 5L14 5L14 4ZM8 5L8 7L9 7L9 5ZM29 5L29 8L32 8L32 5ZM36 5L36 7L37 7L37 5ZM48 5L48 7L49 7L49 5ZM27 6L27 7L28 7L28 6ZM30 6L30 7L31 7L31 6ZM47 8L47 9L48 9L48 10L46 10L46 11L45 11L45 9L44 9L44 12L46 12L46 13L48 13L48 15L51 15L51 16L50 16L50 17L49 17L49 16L48 16L48 17L47 17L47 16L46 16L46 15L47 15L47 14L43 14L43 15L40 15L40 16L42 16L42 17L39 17L39 18L38 18L38 20L40 20L40 21L39 21L39 22L38 22L38 23L37 23L37 24L35 24L35 23L34 23L34 22L33 22L33 23L32 23L32 22L31 22L31 21L30 21L30 22L31 22L31 23L29 23L29 20L27 20L27 21L26 21L26 22L27 22L27 26L26 26L26 25L22 25L22 26L23 26L23 27L26 27L26 28L25 28L25 29L24 29L24 30L25 30L25 29L26 29L26 30L27 30L27 29L26 29L26 28L27 28L27 27L28 27L28 25L30 25L30 24L31 24L31 23L32 23L32 24L33 24L33 23L34 23L34 25L37 25L37 26L36 26L36 27L35 27L35 28L36 28L36 29L35 29L35 30L36 30L36 31L37 31L37 32L35 32L35 34L34 34L34 35L33 35L33 36L32 36L32 37L33 37L33 38L34 38L34 37L33 37L33 36L34 36L34 35L36 35L36 33L37 33L37 32L41 32L41 33L39 33L39 34L38 34L38 35L39 35L39 36L38 36L38 37L37 37L37 36L35 36L35 37L36 37L36 38L35 38L35 39L34 39L34 40L35 40L35 41L36 41L36 44L32 44L32 46L31 46L31 47L32 47L32 46L34 46L34 45L36 45L36 44L38 44L38 45L37 45L37 46L39 46L39 47L40 47L40 46L39 46L39 45L40 45L40 44L41 44L41 43L40 43L40 42L43 42L43 40L41 40L41 38L40 38L40 39L39 39L39 38L38 38L38 37L40 37L40 35L41 35L41 34L43 34L43 32L45 32L45 31L47 31L47 32L48 32L48 33L49 33L49 34L50 34L50 36L48 36L48 35L47 35L47 34L46 34L46 35L42 35L42 36L41 36L41 37L42 37L42 38L43 38L43 37L44 37L44 40L46 40L46 39L47 39L47 42L46 42L46 44L45 44L45 43L44 43L44 44L45 44L45 45L47 45L47 43L49 43L49 42L50 42L50 43L51 43L51 42L50 42L50 40L51 40L51 41L52 41L52 40L53 40L53 39L56 39L56 37L54 37L54 38L53 38L53 39L52 39L52 40L51 40L51 38L52 38L52 37L53 37L53 35L52 35L52 36L51 36L51 34L50 34L50 33L49 33L49 32L48 32L48 31L49 31L49 30L48 30L48 31L47 31L47 30L45 30L45 31L42 31L42 32L41 32L41 30L40 30L40 28L42 28L42 30L44 30L44 28L45 28L45 27L44 27L44 28L43 28L43 27L40 27L40 26L43 26L43 25L40 25L40 24L41 24L41 23L42 23L42 24L45 24L45 25L44 25L44 26L45 26L45 25L46 25L46 23L47 23L47 22L45 22L45 21L43 21L43 20L40 20L40 19L41 19L41 18L43 18L43 15L44 15L44 16L45 16L45 17L44 17L44 20L46 20L46 19L47 19L47 18L48 18L48 19L49 19L49 20L48 20L48 21L49 21L49 22L50 22L50 21L49 21L49 20L51 20L51 18L50 18L50 17L53 17L53 18L55 18L55 17L56 17L56 16L57 16L57 15L56 15L56 16L55 16L55 15L54 15L54 16L52 16L52 15L51 15L51 14L50 14L50 12L51 12L51 11L50 11L50 9L49 9L49 8ZM59 8L59 9L60 9L60 8ZM22 9L22 10L23 10L23 9ZM3 10L3 11L4 11L4 10ZM18 10L18 11L17 11L17 12L19 12L19 11L20 11L20 10ZM6 11L6 12L5 12L5 13L6 13L6 12L7 12L7 11ZM26 11L26 12L25 12L25 13L22 13L22 15L21 15L21 14L20 14L20 15L21 15L21 16L22 16L22 17L23 17L23 14L25 14L25 13L26 13L26 12L28 12L28 11ZM29 11L29 14L30 14L30 13L31 13L31 12L32 12L32 11ZM46 11L46 12L50 12L50 11ZM2 13L2 14L0 14L0 15L4 15L4 14L3 14L3 13ZM12 15L12 16L11 16L11 17L12 17L12 16L14 16L14 15ZM17 15L17 16L18 16L18 15ZM34 15L34 16L35 16L35 15ZM37 15L37 16L39 16L39 15ZM54 16L54 17L55 17L55 16ZM45 17L45 19L46 19L46 18L47 18L47 17ZM39 18L39 19L40 19L40 18ZM49 18L49 19L50 19L50 18ZM6 19L6 20L5 20L5 21L4 21L4 23L1 23L1 25L2 25L2 27L5 27L5 25L6 25L6 24L7 24L7 23L6 23L6 22L8 22L8 23L9 23L9 21L8 21L8 20L7 20L7 19ZM6 20L6 21L5 21L5 22L6 22L6 21L7 21L7 20ZM60 20L60 21L61 21L61 20ZM39 22L39 23L40 23L40 22ZM42 22L42 23L44 23L44 22ZM5 23L5 24L6 24L6 23ZM25 23L25 24L26 24L26 23ZM28 23L28 24L29 24L29 23ZM51 23L51 24L52 24L52 23ZM37 24L37 25L38 25L38 26L37 26L37 28L38 28L38 29L37 29L37 30L38 30L38 31L40 31L40 30L39 30L39 27L38 27L38 26L39 26L39 24ZM48 25L48 28L51 28L51 27L50 27L50 26L51 26L51 25L50 25L50 26L49 26L49 25ZM21 27L21 28L20 28L20 29L21 29L21 30L20 30L20 31L22 31L22 30L23 30L23 29L21 29L21 28L22 28L22 27ZM58 27L58 28L57 28L57 29L58 29L58 28L59 28L59 29L60 29L60 28L59 28L59 27ZM5 29L5 32L8 32L8 29ZM29 29L29 32L32 32L32 29ZM53 29L53 32L56 32L56 29ZM6 30L6 31L7 31L7 30ZM30 30L30 31L31 31L31 30ZM54 30L54 31L55 31L55 30ZM2 31L2 32L3 32L3 31ZM26 31L26 32L27 32L27 31ZM13 32L13 33L14 33L14 35L16 35L16 36L14 36L14 37L13 37L13 38L11 38L11 39L10 39L10 38L9 38L9 39L10 39L10 40L11 40L11 41L12 41L12 39L14 39L14 40L15 40L15 41L17 41L17 40L16 40L16 39L17 39L17 38L18 38L18 37L19 37L19 36L20 36L20 37L21 37L21 36L20 36L20 35L19 35L19 34L20 34L20 33L22 33L22 32L20 32L20 33L19 33L19 34L18 34L18 35L19 35L19 36L17 36L17 33L16 33L16 32L15 32L15 33L14 33L14 32ZM60 32L60 33L61 33L61 32ZM15 33L15 34L16 34L16 33ZM29 33L29 35L30 35L30 34L31 34L31 33ZM44 33L44 34L45 34L45 33ZM5 34L5 35L9 35L9 34ZM21 34L21 35L22 35L22 36L23 36L23 37L22 37L22 38L20 38L20 39L22 39L22 38L25 38L25 37L26 37L26 36L25 36L25 37L24 37L24 36L23 36L23 35L22 35L22 34ZM60 34L60 35L61 35L61 34ZM46 35L46 36L44 36L44 37L45 37L45 38L47 38L47 39L48 39L48 38L49 38L49 37L48 37L48 36L47 36L47 35ZM42 36L42 37L43 37L43 36ZM46 36L46 37L47 37L47 36ZM50 36L50 38L51 38L51 36ZM14 37L14 39L15 39L15 38L17 38L17 37ZM58 37L58 38L59 38L59 37ZM36 38L36 40L38 40L38 42L37 42L37 43L38 43L38 42L39 42L39 40L38 40L38 38ZM7 39L7 40L6 40L6 41L4 41L4 42L3 42L3 44L4 44L4 45L3 45L3 46L6 46L6 47L5 47L5 48L6 48L6 49L7 49L7 48L6 48L6 47L8 47L8 46L6 46L6 45L7 45L7 44L9 44L9 42L8 42L8 39ZM24 39L24 40L25 40L25 39ZM49 39L49 40L50 40L50 39ZM32 40L32 41L33 41L33 42L32 42L32 43L35 43L35 42L34 42L34 41L33 41L33 40ZM40 40L40 41L41 41L41 40ZM6 41L6 42L4 42L4 43L6 43L6 44L7 44L7 43L6 43L6 42L7 42L7 41ZM44 41L44 42L45 42L45 41ZM19 42L19 43L20 43L20 42ZM59 42L59 43L58 43L58 44L59 44L59 45L60 45L60 44L59 44L59 43L60 43L60 42ZM29 43L29 44L30 44L30 43ZM42 43L42 44L43 44L43 43ZM23 44L23 45L24 45L24 46L25 46L25 45L24 45L24 44ZM48 44L48 46L49 46L49 47L50 47L50 48L51 48L51 47L52 47L52 46L50 46L50 45L52 45L52 44L50 44L50 45L49 45L49 44ZM46 47L46 48L47 48L47 47ZM21 48L21 49L20 49L20 50L21 50L21 49L22 49L22 48ZM15 49L15 50L16 50L16 49ZM3 51L3 52L4 52L4 51ZM27 51L27 52L26 52L26 53L27 53L27 52L28 52L28 51ZM60 52L60 53L61 53L61 52ZM29 53L29 56L32 56L32 53ZM33 53L33 54L34 54L34 56L35 56L35 54L36 54L36 56L37 56L37 55L38 55L38 54L36 54L36 53L35 53L35 54L34 54L34 53ZM53 53L53 56L56 56L56 53ZM9 54L9 55L10 55L10 57L9 57L9 58L11 58L11 59L9 59L9 60L11 60L11 59L13 59L13 58L14 58L14 59L16 59L16 60L17 60L17 59L19 59L19 58L18 58L18 57L16 57L16 56L14 56L14 57L13 57L13 58L12 58L12 57L11 57L11 55L10 55L10 54ZM17 54L17 55L18 55L18 54ZM30 54L30 55L31 55L31 54ZM54 54L54 55L55 55L55 54ZM24 55L24 56L26 56L26 55ZM46 55L46 56L47 56L47 55ZM49 55L49 56L50 56L50 55ZM14 57L14 58L15 58L15 57ZM30 57L30 58L31 58L31 57ZM32 57L32 59L34 59L34 58L35 58L35 59L36 59L36 58L37 58L37 57L34 57L34 58L33 58L33 57ZM54 57L54 59L55 59L55 58L56 58L56 57ZM22 58L22 59L23 59L23 58ZM0 0L0 7L7 7L7 0ZM1 1L1 6L6 6L6 1ZM2 2L2 5L5 5L5 2ZM54 0L54 7L61 7L61 0ZM55 1L55 6L60 6L60 1ZM56 2L56 5L59 5L59 2ZM0 54L0 61L7 61L7 54ZM1 55L1 60L6 60L6 55ZM2 56L2 59L5 59L5 56Z" fill="#000000"/></g></g></svg>
