<?xml version="1.0" encoding="UTF-8"?>
<svg xmlns="http://www.w3.org/2000/svg" version="1.1" width="300" height="300" viewBox="0 0 300 300"><rect x="0" y="0" width="300" height="300" fill="#ffffff"/><g transform="scale(4.615)"><g transform="translate(0,0)"><path fill-rule="evenodd" d="M9 0L9 1L8 1L8 2L9 2L9 1L10 1L10 2L11 2L11 3L12 3L12 4L14 4L14 2L15 2L15 1L16 1L16 2L18 2L18 0L17 0L17 1L16 1L16 0L14 0L14 1L13 1L13 2L11 2L11 1L10 1L10 0ZM21 0L21 1L20 1L20 2L21 2L21 3L20 3L20 4L18 4L18 3L15 3L15 4L18 4L18 5L14 5L14 7L15 7L15 9L16 9L16 11L17 11L17 12L16 12L16 14L15 14L15 13L13 13L13 12L15 12L15 11L13 11L13 12L11 12L11 13L10 13L10 14L9 14L9 13L8 13L8 11L9 11L9 12L10 12L10 11L12 11L12 10L14 10L14 9L12 9L12 8L11 8L11 6L10 6L10 9L9 9L9 8L6 8L6 9L9 9L9 10L5 10L5 15L8 15L8 16L6 16L6 17L9 17L9 15L10 15L10 17L11 17L11 18L8 18L8 19L9 19L9 20L6 20L6 19L7 19L7 18L5 18L5 17L4 17L4 16L1 16L1 17L0 17L0 19L2 19L2 22L0 22L0 23L1 23L1 25L2 25L2 26L3 26L3 29L2 29L2 27L1 27L1 28L0 28L0 30L1 30L1 31L0 31L0 34L1 34L1 37L0 37L0 39L1 39L1 40L3 40L3 39L4 39L4 41L3 41L3 42L4 42L4 43L1 43L1 45L2 45L2 44L3 44L3 45L5 45L5 46L4 46L4 47L2 47L2 46L0 46L0 47L2 47L2 48L0 48L0 49L2 49L2 50L0 50L0 54L2 54L2 55L3 55L3 56L1 56L1 55L0 55L0 56L1 56L1 57L3 57L3 56L4 56L4 57L5 57L5 56L4 56L4 53L3 53L3 52L4 52L4 51L5 51L5 49L7 49L7 50L6 50L6 51L7 51L7 52L6 52L6 53L5 53L5 55L7 55L7 54L8 54L8 55L9 55L9 57L8 57L8 59L9 59L9 60L8 60L8 65L13 65L13 64L14 64L14 65L15 65L15 63L16 63L16 65L17 65L17 61L19 61L19 62L18 62L18 65L21 65L21 64L24 64L24 63L23 63L23 62L24 62L24 61L26 61L26 62L27 62L27 63L26 63L26 64L25 64L25 65L26 65L26 64L27 64L27 65L32 65L32 64L31 64L31 63L32 63L32 62L33 62L33 63L36 63L36 62L38 62L38 63L37 63L37 64L34 64L34 65L37 65L37 64L38 64L38 63L39 63L39 65L40 65L40 64L41 64L41 65L43 65L43 63L42 63L42 64L41 64L41 63L40 63L40 60L41 60L41 59L40 59L40 58L41 58L41 57L39 57L39 56L42 56L42 58L44 58L44 59L42 59L42 60L43 60L43 61L41 61L41 62L43 62L43 61L44 61L44 64L45 64L45 65L52 65L52 64L53 64L53 61L54 61L54 62L57 62L57 63L56 63L56 64L57 64L57 63L59 63L59 64L58 64L58 65L59 65L59 64L60 64L60 65L61 65L61 64L62 64L62 65L63 65L63 64L64 64L64 61L65 61L65 59L64 59L64 61L63 61L63 60L62 60L62 59L63 59L63 58L65 58L65 57L63 57L63 56L62 56L62 55L61 55L61 54L62 54L62 53L63 53L63 55L64 55L64 56L65 56L65 55L64 55L64 54L65 54L65 53L64 53L64 52L65 52L65 51L63 51L63 52L62 52L62 49L63 49L63 50L65 50L65 49L64 49L64 48L62 48L62 45L63 45L63 44L64 44L64 45L65 45L65 43L63 43L63 44L62 44L62 43L61 43L61 42L62 42L62 41L63 41L63 42L65 42L65 41L64 41L64 40L65 40L65 39L63 39L63 40L62 40L62 38L63 38L63 37L64 37L64 38L65 38L65 36L64 36L64 35L63 35L63 34L65 34L65 33L64 33L64 32L62 32L62 31L63 31L63 30L62 30L62 31L61 31L61 30L56 30L56 29L57 29L57 28L58 28L58 27L59 27L59 26L58 26L58 27L57 27L57 26L56 26L56 27L57 27L57 28L56 28L56 29L54 29L54 30L53 30L53 31L52 31L52 30L51 30L51 34L50 34L50 33L49 33L49 32L50 32L50 27L51 27L51 29L52 29L52 28L53 28L53 26L55 26L55 25L60 25L60 27L61 27L61 28L59 28L59 29L63 29L63 28L64 28L64 30L65 30L65 27L63 27L63 26L65 26L65 24L64 24L64 25L63 25L63 24L62 24L62 23L61 23L61 22L63 22L63 23L64 23L64 22L65 22L65 21L63 21L63 20L62 20L62 19L63 19L63 18L62 18L62 19L61 19L61 20L60 20L60 19L59 19L59 18L58 18L58 19L59 19L59 21L61 21L61 22L60 22L60 23L61 23L61 24L58 24L58 23L59 23L59 22L58 22L58 20L57 20L57 22L56 22L56 19L57 19L57 18L56 18L56 17L59 17L59 16L58 16L58 15L61 15L61 16L60 16L60 17L64 17L64 18L65 18L65 15L64 15L64 14L65 14L65 13L64 13L64 12L62 12L62 13L61 13L61 12L60 12L60 11L61 11L61 10L65 10L65 9L64 9L64 8L63 8L63 9L62 9L62 8L61 8L61 9L60 9L60 8L59 8L59 10L58 10L58 11L59 11L59 12L56 12L56 13L55 13L55 11L52 11L52 10L55 10L55 9L58 9L58 8L57 8L57 6L56 6L56 7L55 7L55 5L54 5L54 4L56 4L56 5L57 5L57 4L56 4L56 3L57 3L57 1L56 1L56 0L55 0L55 1L56 1L56 3L55 3L55 2L54 2L54 0L53 0L53 2L51 2L51 1L52 1L52 0L51 0L51 1L50 1L50 0L47 0L47 1L46 1L46 2L47 2L47 4L49 4L49 5L48 5L48 7L49 7L49 5L50 5L50 7L51 7L51 8L53 8L53 9L51 9L51 10L50 10L50 8L48 8L48 9L49 9L49 10L48 10L48 11L49 11L49 12L47 12L47 13L49 13L49 15L51 15L51 16L53 16L53 14L52 14L52 12L54 12L54 14L55 14L55 15L54 15L54 18L53 18L53 17L51 17L51 18L50 18L50 16L46 16L46 15L48 15L48 14L46 14L46 12L45 12L45 11L47 11L47 10L46 10L46 8L47 8L47 5L45 5L45 6L44 6L44 7L43 7L43 6L42 6L42 7L41 7L41 6L40 6L40 7L39 7L39 5L38 5L38 4L39 4L39 3L38 3L38 4L37 4L37 3L36 3L36 2L40 2L40 1L41 1L41 3L42 3L42 5L44 5L44 3L45 3L45 2L42 2L42 1L43 1L43 0L42 0L42 1L41 1L41 0L39 0L39 1L38 1L38 0L37 0L37 1L34 1L34 0L33 0L33 2L32 2L32 1L31 1L31 0L29 0L29 2L28 2L28 0L26 0L26 1L25 1L25 0ZM21 1L21 2L22 2L22 1ZM30 1L30 2L29 2L29 4L28 4L28 6L27 6L27 8L26 8L26 9L25 9L25 7L26 7L26 6L25 6L25 5L27 5L27 4L25 4L25 3L26 3L26 2L25 2L25 3L24 3L24 4L25 4L25 5L23 5L23 4L22 4L22 3L21 3L21 4L20 4L20 5L18 5L18 6L17 6L17 8L16 8L16 9L17 9L17 10L19 10L19 12L20 12L20 13L18 13L18 12L17 12L17 14L16 14L16 15L18 15L18 14L20 14L20 15L19 15L19 17L18 17L18 16L17 16L17 17L18 17L18 18L16 18L16 19L18 19L18 18L19 18L19 21L20 21L20 22L19 22L19 23L18 23L18 22L17 22L17 21L18 21L18 20L15 20L15 17L14 17L14 16L15 16L15 14L14 14L14 16L13 16L13 15L12 15L12 16L11 16L11 17L14 17L14 18L13 18L13 19L11 19L11 20L10 20L10 21L9 21L9 22L7 22L7 21L5 21L5 22L3 22L3 23L4 23L4 24L3 24L3 26L4 26L4 27L5 27L5 23L6 23L6 24L7 24L7 25L6 25L6 26L7 26L7 25L8 25L8 26L9 26L9 25L10 25L10 23L11 23L11 22L10 22L10 21L11 21L11 20L13 20L13 19L14 19L14 20L15 20L15 21L16 21L16 22L14 22L14 21L12 21L12 24L11 24L11 26L12 26L12 27L13 27L13 26L12 26L12 25L13 25L13 22L14 22L14 24L15 24L15 23L16 23L16 24L19 24L19 25L16 25L16 27L15 27L15 26L14 26L14 28L13 28L13 30L16 30L16 29L18 29L18 30L17 30L17 33L16 33L16 34L17 34L17 33L18 33L18 35L16 35L16 37L15 37L15 38L16 38L16 39L15 39L15 40L14 40L14 38L13 38L13 34L14 34L14 33L13 33L13 32L11 32L11 33L10 33L10 34L9 34L9 35L8 35L8 36L9 36L9 37L8 37L8 39L6 39L6 40L5 40L5 41L4 41L4 42L5 42L5 41L6 41L6 42L8 42L8 43L6 43L6 44L5 44L5 43L4 43L4 44L5 44L5 45L6 45L6 46L5 46L5 47L6 47L6 48L8 48L8 49L9 49L9 48L13 48L13 45L14 45L14 48L15 48L15 47L16 47L16 48L17 48L17 49L16 49L16 52L15 52L15 51L14 51L14 50L15 50L15 49L12 49L12 50L11 50L11 49L10 49L10 50L8 50L8 51L10 51L10 52L11 52L11 53L12 53L12 54L11 54L11 57L10 57L10 58L9 58L9 59L10 59L10 58L11 58L11 57L12 57L12 56L15 56L15 55L16 55L16 56L17 56L17 55L18 55L18 54L17 54L17 53L18 53L18 52L17 52L17 51L18 51L18 50L19 50L19 51L20 51L20 52L19 52L19 53L20 53L20 54L19 54L19 56L21 56L21 57L20 57L20 58L19 58L19 57L18 57L18 58L17 58L17 57L13 57L13 58L12 58L12 59L13 59L13 61L14 61L14 63L15 63L15 62L16 62L16 61L17 61L17 60L19 60L19 61L24 61L24 59L26 59L26 61L27 61L27 62L28 62L28 61L30 61L30 62L29 62L29 64L30 64L30 63L31 63L31 61L30 61L30 59L28 59L28 61L27 61L27 58L26 58L26 57L27 57L27 56L30 56L30 55L29 55L29 54L30 54L30 53L31 53L31 54L32 54L32 56L33 56L33 55L35 55L35 56L37 56L37 55L38 55L38 54L39 54L39 55L40 55L40 54L42 54L42 56L43 56L43 57L44 57L44 58L46 58L46 60L49 60L49 61L48 61L48 62L47 62L47 61L45 61L45 60L44 60L44 61L45 61L45 62L46 62L46 63L47 63L47 64L49 64L49 63L50 63L50 62L51 62L51 60L52 60L52 61L53 61L53 60L54 60L54 59L55 59L55 60L56 60L56 58L54 58L54 59L53 59L53 58L52 58L52 57L53 57L53 56L55 56L55 57L56 57L56 56L55 56L55 54L54 54L54 53L57 53L57 54L56 54L56 55L59 55L59 54L60 54L60 53L61 53L61 52L60 52L60 51L59 51L59 49L62 49L62 48L57 48L57 45L58 45L58 47L59 47L59 44L58 44L58 43L59 43L59 42L58 42L58 43L57 43L57 42L56 42L56 44L55 44L55 42L52 42L52 43L51 43L51 44L52 44L52 46L51 46L51 45L50 45L50 46L49 46L49 45L48 45L48 47L46 47L46 48L49 48L49 47L50 47L50 51L51 51L51 47L53 47L53 48L52 48L52 49L53 49L53 50L52 50L52 51L53 51L53 52L52 52L52 54L51 54L51 53L50 53L50 54L49 54L49 55L47 55L47 57L45 57L45 56L46 56L46 54L47 54L47 53L46 53L46 54L45 54L45 52L44 52L44 51L46 51L46 52L47 52L47 51L46 51L46 50L48 50L48 49L46 49L46 50L44 50L44 49L45 49L45 48L43 48L43 50L42 50L42 49L41 49L41 48L42 48L42 47L44 47L44 46L42 46L42 44L43 44L43 45L45 45L45 44L44 44L44 43L45 43L45 42L46 42L46 43L47 43L47 44L49 44L49 43L50 43L50 42L51 42L51 37L53 37L53 38L52 38L52 39L53 39L53 40L52 40L52 41L53 41L53 40L54 40L54 39L59 39L59 40L58 40L58 41L59 41L59 40L60 40L60 41L61 41L61 40L60 40L60 39L61 39L61 38L62 38L62 36L63 36L63 35L62 35L62 34L63 34L63 33L62 33L62 32L61 32L61 35L59 35L59 36L58 36L58 35L57 35L57 36L58 36L58 37L57 37L57 38L56 38L56 36L55 36L55 38L54 38L54 36L51 36L51 37L50 37L50 41L48 41L48 40L49 40L49 39L48 39L48 37L47 37L47 36L49 36L49 35L50 35L50 34L49 34L49 35L45 35L45 34L44 34L44 33L45 33L45 32L46 32L46 34L47 34L47 31L46 31L46 30L48 30L48 32L49 32L49 29L46 29L46 30L44 30L44 29L45 29L45 28L44 28L44 25L45 25L45 26L46 26L46 28L49 28L49 27L50 27L50 26L51 26L51 27L52 27L52 26L53 26L53 25L54 25L54 24L55 24L55 23L56 23L56 22L53 22L53 20L55 20L55 18L54 18L54 19L53 19L53 18L52 18L52 19L53 19L53 20L51 20L51 21L50 21L50 20L49 20L49 19L48 19L48 17L45 17L45 16L42 16L42 15L44 15L44 14L45 14L45 12L44 12L44 11L43 11L43 10L44 10L44 9L45 9L45 8L46 8L46 6L45 6L45 8L44 8L44 9L43 9L43 10L41 10L41 8L39 8L39 7L38 7L38 5L37 5L37 4L36 4L36 3L35 3L35 2L33 2L33 3L32 3L32 4L33 4L33 3L34 3L34 4L35 4L35 7L36 7L36 8L37 8L37 7L38 7L38 10L39 10L39 13L38 13L38 14L37 14L37 13L34 13L34 12L35 12L35 11L36 11L36 12L37 12L37 10L35 10L35 9L27 9L27 8L28 8L28 6L29 6L29 7L30 7L30 4L31 4L31 3L30 3L30 2L31 2L31 1ZM47 1L47 2L48 2L48 3L49 3L49 4L50 4L50 5L53 5L53 8L54 8L54 5L53 5L53 3L54 3L54 2L53 2L53 3L51 3L51 2L50 2L50 1L49 1L49 2L48 2L48 1ZM27 2L27 3L28 3L28 2ZM8 3L8 4L9 4L9 3ZM50 3L50 4L51 4L51 3ZM10 4L10 5L11 5L11 4ZM21 4L21 5L22 5L22 4ZM8 5L8 7L9 7L9 5ZM12 5L12 7L13 7L13 5ZM31 5L31 8L34 8L34 5ZM36 5L36 7L37 7L37 5ZM15 6L15 7L16 7L16 6ZM18 6L18 9L19 9L19 8L20 8L20 9L21 9L21 8L22 8L22 7L23 7L23 6L22 6L22 7L21 7L21 6L20 6L20 7L19 7L19 6ZM24 6L24 7L25 7L25 6ZM32 6L32 7L33 7L33 6ZM51 6L51 7L52 7L52 6ZM0 8L0 15L4 15L4 13L2 13L2 12L3 12L3 10L4 10L4 9L5 9L5 8ZM23 8L23 9L22 9L22 10L20 10L20 11L22 11L22 12L21 12L21 14L23 14L23 15L24 15L24 16L23 16L23 17L21 17L21 16L20 16L20 17L21 17L21 18L20 18L20 21L22 21L22 20L21 20L21 19L22 19L22 18L23 18L23 19L24 19L24 20L23 20L23 21L24 21L24 22L25 22L25 23L24 23L24 24L23 24L23 25L22 25L22 26L21 26L21 28L24 28L24 29L19 29L19 28L20 28L20 27L19 27L19 26L18 26L18 27L19 27L19 28L18 28L18 29L19 29L19 30L18 30L18 31L19 31L19 32L18 32L18 33L21 33L21 34L20 34L20 35L21 35L21 36L20 36L20 37L18 37L18 36L17 36L17 37L18 37L18 38L17 38L17 39L18 39L18 38L19 38L19 40L15 40L15 41L14 41L14 40L12 40L12 41L11 41L11 42L10 42L10 45L11 45L11 44L12 44L12 43L11 43L11 42L12 42L12 41L14 41L14 45L15 45L15 46L16 46L16 45L15 45L15 44L17 44L17 43L15 43L15 41L19 41L19 42L20 42L20 41L21 41L21 40L22 40L22 39L21 39L21 40L20 40L20 37L21 37L21 38L22 38L22 37L23 37L23 34L25 34L25 35L24 35L24 36L25 36L25 37L24 37L24 38L23 38L23 41L22 41L22 43L21 43L21 44L22 44L22 43L23 43L23 45L21 45L21 46L23 46L23 47L24 47L24 48L23 48L23 49L21 49L21 48L20 48L20 49L21 49L21 51L22 51L22 50L23 50L23 51L24 51L24 52L26 52L26 51L25 51L25 49L26 49L26 50L27 50L27 49L26 49L26 47L27 47L27 48L28 48L28 49L29 49L29 48L28 48L28 47L27 47L27 46L28 46L28 45L26 45L26 44L25 44L25 43L28 43L28 44L29 44L29 45L31 45L31 47L30 47L30 46L29 46L29 47L30 47L30 49L31 49L31 50L30 50L30 51L32 51L32 53L33 53L33 54L38 54L38 53L39 53L39 54L40 54L40 53L39 53L39 52L41 52L41 53L42 53L42 54L43 54L43 55L44 55L44 56L45 56L45 55L44 55L44 54L43 54L43 53L44 53L44 52L43 52L43 51L42 51L42 50L40 50L40 51L39 51L39 50L38 50L38 49L40 49L40 48L41 48L41 46L40 46L40 44L42 44L42 43L41 43L41 41L39 41L39 39L40 39L40 40L42 40L42 42L43 42L43 40L46 40L46 41L47 41L47 40L48 40L48 39L47 39L47 38L46 38L46 36L45 36L45 35L44 35L44 36L43 36L43 37L42 37L42 38L38 38L38 37L39 37L39 36L41 36L41 35L42 35L42 34L43 34L43 32L45 32L45 31L43 31L43 32L42 32L42 31L40 31L40 30L41 30L41 29L39 29L39 30L38 30L38 28L36 28L36 29L37 29L37 32L35 32L35 30L33 30L33 29L34 29L34 28L33 28L33 26L31 26L31 27L29 27L29 26L30 26L30 24L31 24L31 25L32 25L32 24L33 24L33 25L34 25L34 24L33 24L33 23L32 23L32 22L31 22L31 21L32 21L32 20L33 20L33 22L34 22L34 23L37 23L37 22L38 22L38 23L39 23L39 24L38 24L38 25L37 25L37 24L35 24L35 26L34 26L34 27L37 27L37 26L38 26L38 27L39 27L39 26L38 26L38 25L39 25L39 24L42 24L42 25L41 25L41 26L43 26L43 25L44 25L44 24L45 24L45 25L47 25L47 24L46 24L46 23L47 23L47 22L48 22L48 23L49 23L49 24L48 24L48 25L49 25L49 26L47 26L47 27L49 27L49 26L50 26L50 25L51 25L51 26L52 26L52 24L54 24L54 23L53 23L53 22L52 22L52 21L51 21L51 22L50 22L50 21L49 21L49 20L48 20L48 19L47 19L47 18L46 18L46 19L44 19L44 20L43 20L43 19L42 19L42 20L43 20L43 21L42 21L42 22L41 22L41 23L39 23L39 22L38 22L38 19L39 19L39 18L38 18L38 19L37 19L37 20L36 20L36 21L35 21L35 20L34 20L34 19L35 19L35 18L37 18L37 17L38 17L38 16L39 16L39 17L40 17L40 18L41 18L41 17L40 17L40 16L41 16L41 15L40 15L40 13L39 13L39 14L38 14L38 15L37 15L37 14L36 14L36 15L37 15L37 16L35 16L35 14L34 14L34 15L32 15L32 12L34 12L34 11L35 11L35 10L34 10L34 11L33 11L33 10L27 10L27 9L26 9L26 10L27 10L27 11L26 11L26 12L25 12L25 9L24 9L24 8ZM2 9L2 10L1 10L1 12L2 12L2 10L3 10L3 9ZM11 9L11 10L12 10L12 9ZM9 10L9 11L10 11L10 10ZM23 10L23 11L24 11L24 10ZM40 10L40 12L41 12L41 10ZM49 10L49 11L50 11L50 14L51 14L51 15L52 15L52 14L51 14L51 11L50 11L50 10ZM56 10L56 11L57 11L57 10ZM59 10L59 11L60 11L60 10ZM6 11L6 12L7 12L7 11ZM27 11L27 12L26 12L26 13L28 13L28 14L25 14L25 16L24 16L24 17L25 17L25 19L26 19L26 20L24 20L24 21L26 21L26 22L27 22L27 23L26 23L26 24L24 24L24 25L25 25L25 28L26 28L26 29L24 29L24 30L23 30L23 31L22 31L22 30L21 30L21 33L23 33L23 31L24 31L24 33L25 33L25 34L26 34L26 33L27 33L27 32L28 32L28 31L27 31L27 30L28 30L28 29L30 29L30 30L31 30L31 28L29 28L29 27L28 27L28 29L27 29L27 26L29 26L29 25L27 25L27 24L28 24L28 23L29 23L29 24L30 24L30 22L29 22L29 21L28 21L28 22L27 22L27 18L26 18L26 17L27 17L27 16L26 16L26 15L28 15L28 16L29 16L29 17L28 17L28 18L29 18L29 19L28 19L28 20L29 20L29 19L30 19L30 18L29 18L29 17L30 17L30 15L29 15L29 13L30 13L30 14L31 14L31 12L32 12L32 11L31 11L31 12L28 12L28 11ZM42 11L42 12L43 12L43 13L42 13L42 14L44 14L44 12L43 12L43 11ZM22 12L22 13L23 13L23 14L24 14L24 13L23 13L23 12ZM1 13L1 14L2 14L2 13ZM6 13L6 14L7 14L7 13ZM12 13L12 14L13 14L13 13ZM56 13L56 15L55 15L55 17L56 17L56 15L57 15L57 14L59 14L59 13ZM62 13L62 16L64 16L64 15L63 15L63 13ZM10 14L10 15L11 15L11 14ZM31 15L31 19L32 19L32 17L33 17L33 16L32 16L32 15ZM25 16L25 17L26 17L26 16ZM2 17L2 19L3 19L3 20L5 20L5 19L3 19L3 18L4 18L4 17ZM34 17L34 18L35 18L35 17ZM42 17L42 18L43 18L43 17ZM40 19L40 20L41 20L41 19ZM46 19L46 20L44 20L44 21L45 21L45 23L46 23L46 22L47 22L47 21L46 21L46 20L47 20L47 19ZM0 20L0 21L1 21L1 20ZM30 20L30 21L31 21L31 20ZM34 21L34 22L35 22L35 21ZM6 22L6 23L7 23L7 24L9 24L9 23L7 23L7 22ZM42 22L42 24L44 24L44 22ZM49 22L49 23L50 23L50 24L51 24L51 23L52 23L52 22L51 22L51 23L50 23L50 22ZM19 23L19 24L20 24L20 25L21 25L21 24L22 24L22 23ZM31 23L31 24L32 24L32 23ZM61 24L61 27L62 27L62 28L63 28L63 27L62 27L62 26L63 26L63 25L62 25L62 24ZM26 25L26 26L27 26L27 25ZM36 25L36 26L37 26L37 25ZM22 26L22 27L24 27L24 26ZM6 27L6 28L5 28L5 29L6 29L6 30L7 30L7 29L8 29L8 30L9 30L9 32L10 32L10 30L12 30L12 28L11 28L11 29L10 29L10 30L9 30L9 29L8 29L8 28L7 28L7 27ZM16 27L16 28L15 28L15 29L16 29L16 28L17 28L17 27ZM40 27L40 28L41 28L41 27ZM42 27L42 28L43 28L43 29L42 29L42 30L43 30L43 29L44 29L44 28L43 28L43 27ZM54 27L54 28L55 28L55 27ZM6 28L6 29L7 29L7 28ZM32 28L32 29L33 29L33 28ZM1 29L1 30L2 30L2 33L1 33L1 34L2 34L2 36L3 36L3 38L4 38L4 39L5 39L5 38L7 38L7 37L6 37L6 36L7 36L7 35L6 35L6 36L5 36L5 35L4 35L4 36L3 36L3 34L4 34L4 33L3 33L3 31L4 31L4 29L3 29L3 30L2 30L2 29ZM26 29L26 30L25 30L25 33L26 33L26 30L27 30L27 29ZM19 30L19 31L20 31L20 30ZM54 30L54 31L53 31L53 32L52 32L52 34L51 34L51 35L52 35L52 34L54 34L54 35L56 35L56 32L55 32L55 31L56 31L56 30ZM5 31L5 34L8 34L8 31ZM14 31L14 32L16 32L16 31ZM29 31L29 32L30 32L30 31ZM31 31L31 34L34 34L34 31ZM39 31L39 32L37 32L37 33L35 33L35 36L34 36L34 35L32 35L32 36L34 36L34 37L35 37L35 38L33 38L33 37L31 37L31 36L30 36L30 34L29 34L29 33L28 33L28 34L29 34L29 35L28 35L28 36L27 36L27 37L25 37L25 40L24 40L24 41L27 41L27 40L26 40L26 39L27 39L27 38L30 38L30 39L28 39L28 40L29 40L29 41L28 41L28 43L29 43L29 44L31 44L31 45L32 45L32 48L31 48L31 49L32 49L32 51L36 51L36 52L37 52L37 51L36 51L36 50L33 50L33 49L32 49L32 48L34 48L34 49L35 49L35 48L34 48L34 47L36 47L36 48L37 48L37 49L38 49L38 48L40 48L40 46L39 46L39 45L38 45L38 44L39 44L39 43L40 43L40 42L39 42L39 41L38 41L38 43L36 43L36 44L33 44L33 43L35 43L35 42L33 42L33 41L32 41L32 42L31 42L31 40L37 40L37 39L38 39L38 38L37 38L37 37L38 37L38 36L37 36L37 35L38 35L38 34L40 34L40 35L41 35L41 34L42 34L42 33L41 33L41 32L40 32L40 31ZM57 31L57 34L60 34L60 31ZM6 32L6 33L7 33L7 32ZM32 32L32 33L33 33L33 32ZM39 32L39 33L40 33L40 32ZM58 32L58 33L59 33L59 32ZM2 33L2 34L3 34L3 33ZM54 33L54 34L55 34L55 33ZM11 34L11 35L10 35L10 36L11 36L11 37L9 37L9 39L10 39L10 38L11 38L11 39L12 39L12 34ZM21 34L21 35L22 35L22 34ZM36 34L36 35L37 35L37 34ZM14 35L14 36L15 36L15 35ZM25 35L25 36L26 36L26 35ZM61 35L61 36L62 36L62 35ZM21 36L21 37L22 37L22 36ZM28 36L28 37L29 37L29 36ZM35 36L35 37L37 37L37 36ZM44 36L44 38L42 38L42 40L43 40L43 39L45 39L45 36ZM59 36L59 37L58 37L58 38L59 38L59 37L60 37L60 38L61 38L61 37L60 37L60 36ZM30 37L30 38L31 38L31 37ZM1 38L1 39L2 39L2 38ZM32 38L32 39L33 39L33 38ZM35 38L35 39L37 39L37 38ZM46 39L46 40L47 40L47 39ZM6 40L6 41L8 41L8 42L9 42L9 41L10 41L10 40ZM55 40L55 41L56 41L56 40ZM0 41L0 42L2 42L2 41ZM44 41L44 42L45 42L45 41ZM23 42L23 43L24 43L24 42ZM29 42L29 43L31 43L31 44L32 44L32 45L33 45L33 46L34 46L34 45L33 45L33 44L32 44L32 43L31 43L31 42ZM48 42L48 43L49 43L49 42ZM8 43L8 44L6 44L6 45L7 45L7 46L6 46L6 47L8 47L8 48L9 48L9 47L8 47L8 45L9 45L9 43ZM19 43L19 44L18 44L18 45L20 45L20 43ZM52 43L52 44L53 44L53 43ZM36 44L36 45L37 45L37 46L36 46L36 47L39 47L39 46L38 46L38 45L37 45L37 44ZM60 44L60 45L61 45L61 44ZM23 45L23 46L24 46L24 45ZM25 45L25 46L26 46L26 45ZM46 45L46 46L47 46L47 45ZM54 45L54 46L53 46L53 47L54 47L54 50L53 50L53 51L54 51L54 52L59 52L59 51L56 51L56 49L57 49L57 50L58 50L58 49L57 49L57 48L56 48L56 45ZM19 46L19 47L20 47L20 46ZM50 46L50 47L51 47L51 46ZM54 46L54 47L55 47L55 46ZM4 48L4 49L3 49L3 50L2 50L2 52L3 52L3 50L4 50L4 49L5 49L5 48ZM18 48L18 49L17 49L17 50L18 50L18 49L19 49L19 48ZM24 48L24 49L25 49L25 48ZM55 48L55 49L56 49L56 48ZM10 50L10 51L11 51L11 50ZM12 50L12 52L14 52L14 51L13 51L13 50ZM28 50L28 52L27 52L27 54L26 54L26 53L23 53L23 55L24 55L24 56L23 56L23 57L22 57L22 58L21 58L21 59L23 59L23 58L25 58L25 57L24 57L24 56L25 56L25 55L24 55L24 54L26 54L26 56L27 56L27 55L28 55L28 53L29 53L29 50ZM54 50L54 51L55 51L55 50ZM41 51L41 52L42 52L42 53L43 53L43 52L42 52L42 51ZM48 51L48 52L49 52L49 51ZM7 52L7 53L6 53L6 54L7 54L7 53L8 53L8 54L9 54L9 55L10 55L10 54L9 54L9 52ZM16 52L16 53L13 53L13 54L12 54L12 55L14 55L14 54L16 54L16 55L17 55L17 54L16 54L16 53L17 53L17 52ZM20 52L20 53L22 53L22 52ZM20 54L20 55L21 55L21 56L22 56L22 55L21 55L21 54ZM50 54L50 55L51 55L51 56L50 56L50 57L52 57L52 56L53 56L53 55L54 55L54 54L52 54L52 55L51 55L51 54ZM6 56L6 57L7 57L7 56ZM48 56L48 57L49 57L49 56ZM61 56L61 59L62 59L62 58L63 58L63 57L62 57L62 56ZM28 57L28 58L30 58L30 57ZM31 57L31 60L34 60L34 57ZM35 57L35 61L36 61L36 60L37 60L37 61L38 61L38 62L39 62L39 61L38 61L38 60L39 60L39 59L36 59L36 58L37 58L37 57ZM38 57L38 58L39 58L39 57ZM57 57L57 60L60 60L60 57ZM13 58L13 59L16 59L16 58ZM18 58L18 59L19 59L19 60L20 60L20 59L19 59L19 58ZM32 58L32 59L33 59L33 58ZM49 58L49 60L50 60L50 59L52 59L52 60L53 60L53 59L52 59L52 58ZM58 58L58 59L59 59L59 58ZM9 60L9 62L10 62L10 63L9 63L9 64L11 64L11 63L12 63L12 62L11 62L11 61L10 61L10 60ZM15 60L15 61L16 61L16 60ZM61 60L61 61L59 61L59 62L61 62L61 63L60 63L60 64L61 64L61 63L62 63L62 64L63 64L63 61L62 61L62 60ZM33 61L33 62L34 62L34 61ZM49 61L49 62L48 62L48 63L49 63L49 62L50 62L50 61ZM61 61L61 62L62 62L62 61ZM19 62L19 63L20 63L20 62ZM21 62L21 63L22 63L22 62ZM27 63L27 64L28 64L28 63ZM54 63L54 65L55 65L55 63ZM0 0L0 7L7 7L7 0ZM1 1L1 6L6 6L6 1ZM2 2L2 5L5 5L5 2ZM58 0L58 7L65 7L65 0ZM59 1L59 6L64 6L64 1ZM60 2L60 5L63 5L63 2ZM0 58L0 65L7 65L7 58ZM1 59L1 64L6 64L6 59ZM2 60L2 63L5 63L5 60Z" fill="#000000"/></g></g></svg>
