<?xml version="1.0" encoding="UTF-8"?>
<svg xmlns="http://www.w3.org/2000/svg" version="1.1" width="300" height="300" viewBox="0 0 300 300"><rect x="0" y="0" width="300" height="300" fill="#ffffff"/><g transform="scale(4.918)"><g transform="translate(0,0)"><path fill-rule="evenodd" d="M10 0L10 2L11 2L11 3L10 3L10 4L12 4L12 3L13 3L13 5L10 5L10 8L6 8L6 9L7 9L7 10L6 10L6 11L7 11L7 12L5 12L5 8L0 8L0 9L2 9L2 10L1 10L1 11L0 11L0 12L1 12L1 13L0 13L0 14L1 14L1 15L0 15L0 17L4 17L4 16L2 16L2 15L4 15L4 12L5 12L5 15L9 15L9 14L8 14L8 13L9 13L9 12L8 12L8 11L9 11L9 10L10 10L10 8L11 8L11 10L12 10L12 11L13 11L13 12L11 12L11 11L10 11L10 12L11 12L11 13L10 13L10 15L11 15L11 16L12 16L12 17L8 17L8 16L6 16L6 17L8 17L8 19L7 19L7 18L6 18L6 19L5 19L5 18L2 18L2 19L4 19L4 21L3 21L3 25L5 25L5 26L3 26L3 27L4 27L4 29L2 29L2 27L1 27L1 25L2 25L2 24L1 24L1 23L2 23L2 21L0 21L0 24L1 24L1 25L0 25L0 27L1 27L1 29L0 29L0 31L1 31L1 34L2 34L2 35L1 35L1 36L0 36L0 37L1 37L1 38L2 38L2 39L0 39L0 40L2 40L2 41L0 41L0 46L1 46L1 48L0 48L0 50L2 50L2 51L0 51L0 53L4 53L4 52L5 52L5 51L7 51L7 50L8 50L8 51L9 51L9 53L8 53L8 55L9 55L9 54L11 54L11 53L12 53L12 55L14 55L14 57L15 57L15 56L16 56L16 57L17 57L17 58L13 58L13 57L12 57L12 58L13 58L13 59L11 59L11 55L10 55L10 58L9 58L9 56L8 56L8 61L10 61L10 59L11 59L11 61L12 61L12 60L13 60L13 61L20 61L20 57L21 57L21 58L23 58L23 59L24 59L24 60L25 60L25 57L26 57L26 60L27 60L27 61L28 61L28 60L29 60L29 58L31 58L31 59L30 59L30 60L31 60L31 61L32 61L32 60L33 60L33 61L34 61L34 59L37 59L37 56L35 56L35 54L36 54L36 55L39 55L39 56L38 56L38 57L39 57L39 56L42 56L42 58L43 58L43 59L42 59L42 60L41 60L41 59L40 59L40 60L38 60L38 61L40 61L40 60L41 60L41 61L42 61L42 60L43 60L43 59L44 59L44 60L45 60L45 61L49 61L49 60L50 60L50 59L51 59L51 61L52 61L52 60L53 60L53 61L54 61L54 60L55 60L55 59L56 59L56 61L57 61L57 59L58 59L58 58L57 58L57 53L59 53L59 52L57 52L57 51L58 51L58 50L59 50L59 51L61 51L61 50L59 50L59 49L61 49L61 48L60 48L60 47L61 47L61 46L60 46L60 45L61 45L61 42L60 42L60 41L61 41L61 38L60 38L60 39L59 39L59 38L58 38L58 37L59 37L59 36L60 36L60 37L61 37L61 34L58 34L58 33L61 33L61 30L59 30L59 32L58 32L58 30L57 30L57 29L60 29L60 28L57 28L57 27L61 27L61 26L60 26L60 25L61 25L61 24L60 24L60 25L59 25L59 24L58 24L58 25L57 25L57 27L56 27L56 24L57 24L57 23L59 23L59 22L60 22L60 23L61 23L61 22L60 22L60 21L59 21L59 20L57 20L57 19L61 19L61 18L59 18L59 16L61 16L61 14L59 14L59 16L58 16L58 18L57 18L57 17L56 17L56 16L57 16L57 15L56 15L56 16L52 16L52 15L53 15L53 14L55 14L55 13L56 13L56 14L57 14L57 13L59 13L59 12L60 12L60 11L61 11L61 10L60 10L60 11L59 11L59 9L60 9L60 8L59 8L59 9L58 9L58 8L57 8L57 9L56 9L56 8L55 8L55 9L54 9L54 8L52 8L52 7L53 7L53 6L52 6L52 7L51 7L51 5L52 5L52 4L53 4L53 0L51 0L51 2L50 2L50 3L46 3L46 2L48 2L48 1L50 1L50 0L48 0L48 1L46 1L46 0L44 0L44 1L45 1L45 2L44 2L44 3L45 3L45 4L44 4L44 7L43 7L43 6L42 6L42 5L43 5L43 0L41 0L41 1L40 1L40 0L39 0L39 1L38 1L38 2L39 2L39 3L36 3L36 2L35 2L35 1L37 1L37 0L35 0L35 1L33 1L33 0L32 0L32 1L31 1L31 0L30 0L30 1L29 1L29 2L27 2L27 4L26 4L26 3L25 3L25 2L26 2L26 1L27 1L27 0L26 0L26 1L25 1L25 0L22 0L22 1L20 1L20 3L16 3L16 2L15 2L15 1L16 1L16 0L15 0L15 1L14 1L14 0L13 0L13 1L14 1L14 2L11 2L11 0ZM8 1L8 2L9 2L9 1ZM18 1L18 2L19 2L19 1ZM22 1L22 2L21 2L21 4L20 4L20 6L19 6L19 9L16 9L16 8L15 8L15 7L16 7L16 6L15 6L15 5L19 5L19 4L15 4L15 2L14 2L14 4L15 4L15 5L14 5L14 6L13 6L13 7L12 7L12 6L11 6L11 8L12 8L12 10L13 10L13 11L14 11L14 13L12 13L12 14L14 14L14 13L15 13L15 14L16 14L16 15L15 15L15 16L16 16L16 17L12 17L12 18L14 18L14 19L15 19L15 20L14 20L14 23L15 23L15 22L17 22L17 20L16 20L16 19L15 19L15 18L16 18L16 17L17 17L17 19L19 19L19 21L18 21L18 23L16 23L16 24L19 24L19 25L18 25L18 26L17 26L17 25L16 25L16 27L14 27L14 26L15 26L15 24L14 24L14 26L13 26L13 27L14 27L14 28L16 28L16 27L19 27L19 28L20 28L20 27L21 27L21 29L20 29L20 31L17 31L17 30L19 30L19 29L14 29L14 30L13 30L13 28L11 28L11 27L10 27L10 25L11 25L11 26L12 26L12 25L13 25L13 24L12 24L12 23L13 23L13 19L12 19L12 22L10 22L10 21L11 21L11 20L10 20L10 21L9 21L9 22L8 22L8 20L7 20L7 19L6 19L6 20L5 20L5 21L4 21L4 23L6 23L6 24L7 24L7 25L6 25L6 26L5 26L5 27L6 27L6 28L11 28L11 29L10 29L10 30L9 30L9 33L10 33L10 30L11 30L11 33L12 33L12 32L13 32L13 34L14 34L14 35L12 35L12 34L11 34L11 35L12 35L12 37L9 37L9 36L8 36L8 35L3 35L3 36L2 36L2 37L3 37L3 36L5 36L5 37L6 37L6 38L7 38L7 37L6 37L6 36L8 36L8 37L9 37L9 38L8 38L8 39L6 39L6 40L7 40L7 41L4 41L4 40L5 40L5 38L4 38L4 40L3 40L3 41L4 41L4 42L3 42L3 43L5 43L5 46L4 46L4 44L1 44L1 45L3 45L3 46L2 46L2 48L3 48L3 47L4 47L4 48L7 48L7 47L11 47L11 48L13 48L13 47L15 47L15 48L14 48L14 49L15 49L15 52L13 52L13 53L16 53L16 54L17 54L17 55L16 55L16 56L19 56L19 55L22 55L22 56L21 56L21 57L23 57L23 58L24 58L24 57L25 57L25 56L26 56L26 57L27 57L27 56L28 56L28 53L27 53L27 52L30 52L30 51L29 51L29 50L31 50L31 51L32 51L32 52L33 52L33 54L35 54L35 53L36 53L36 52L37 52L37 54L39 54L39 53L38 53L38 52L40 52L40 55L41 55L41 54L42 54L42 55L43 55L43 54L44 54L44 53L45 53L45 54L46 54L46 55L45 55L45 56L44 56L44 59L45 59L45 60L49 60L49 59L50 59L50 58L51 58L51 59L53 59L53 60L54 60L54 59L55 59L55 58L54 58L54 57L53 57L53 58L52 58L52 57L51 57L51 56L52 56L52 55L50 55L50 56L49 56L49 54L51 54L51 53L50 53L50 52L52 52L52 51L53 51L53 45L54 45L54 44L55 44L55 45L56 45L56 46L57 46L57 45L58 45L58 46L59 46L59 45L60 45L60 44L59 44L59 43L60 43L60 42L59 42L59 41L56 41L56 39L54 39L54 37L52 37L52 38L51 38L51 37L50 37L50 36L52 36L52 35L53 35L53 36L55 36L55 38L57 38L57 37L56 37L56 36L59 36L59 35L58 35L58 34L57 34L57 33L54 33L54 34L55 34L55 35L53 35L53 33L52 33L52 35L50 35L50 34L51 34L51 31L52 31L52 28L53 28L53 27L55 27L55 28L56 28L56 27L55 27L55 26L53 26L53 25L55 25L55 24L53 24L53 23L57 23L57 20L56 20L56 19L57 19L57 18L56 18L56 17L55 17L55 18L53 18L53 17L50 17L50 16L51 16L51 15L46 15L46 14L48 14L48 12L49 12L49 9L50 9L50 14L53 14L53 13L55 13L55 11L57 11L57 10L56 10L56 9L55 9L55 10L54 10L54 12L53 12L53 13L51 13L51 12L52 12L52 11L53 11L53 9L52 9L52 11L51 11L51 9L50 9L50 8L49 8L49 7L50 7L50 5L49 5L49 7L48 7L48 6L47 6L47 7L46 7L46 6L45 6L45 7L46 7L46 8L44 8L44 9L43 9L43 7L42 7L42 6L41 6L41 5L42 5L42 4L41 4L41 3L42 3L42 2L40 2L40 1L39 1L39 2L40 2L40 3L39 3L39 4L35 4L35 2L34 2L34 3L33 3L33 1L32 1L32 3L33 3L33 7L34 7L34 8L35 8L35 9L34 9L34 10L32 10L32 9L31 9L31 10L32 10L32 12L30 12L30 14L28 14L28 15L27 15L27 14L26 14L26 13L27 13L27 12L26 12L26 13L25 13L25 11L24 11L24 10L23 10L23 11L22 11L22 10L21 10L21 9L25 9L25 10L26 10L26 9L27 9L27 10L28 10L28 8L26 8L26 6L27 6L27 7L28 7L28 6L27 6L27 5L28 5L28 4L27 4L27 5L26 5L26 4L25 4L25 3L22 3L22 2L23 2L23 1ZM30 1L30 2L31 2L31 1ZM8 3L8 4L9 4L9 3ZM29 3L29 4L31 4L31 3ZM51 3L51 4L52 4L52 3ZM22 4L22 5L21 5L21 6L20 6L20 7L21 7L21 6L22 6L22 7L23 7L23 5L25 5L25 4ZM39 4L39 5L36 5L36 7L37 7L37 6L38 6L38 8L41 8L41 9L40 9L40 10L38 10L38 9L37 9L37 8L36 8L36 9L35 9L35 10L34 10L34 12L35 12L35 13L37 13L37 14L38 14L38 13L39 13L39 16L38 16L38 17L37 17L37 16L35 16L35 17L36 17L36 18L34 18L34 19L36 19L36 18L37 18L37 20L36 20L36 21L35 21L35 22L33 22L33 21L34 21L34 20L33 20L33 21L32 21L32 22L31 22L31 21L29 21L29 20L32 20L32 18L33 18L33 17L32 17L32 18L31 18L31 17L30 17L30 18L31 18L31 19L29 19L29 18L28 18L28 17L29 17L29 16L31 16L31 15L32 15L32 14L33 14L33 15L36 15L36 14L34 14L34 13L32 13L32 14L30 14L30 15L29 15L29 16L27 16L27 17L26 17L26 18L27 18L27 19L29 19L29 20L27 20L27 21L26 21L26 19L24 19L24 18L25 18L25 17L22 17L22 16L23 16L23 15L26 15L26 14L25 14L25 13L24 13L24 11L23 11L23 13L21 13L21 12L22 12L22 11L21 11L21 12L20 12L20 11L19 11L19 10L20 10L20 9L21 9L21 8L20 8L20 9L19 9L19 10L15 10L15 9L14 9L14 8L13 8L13 10L14 10L14 11L15 11L15 13L19 13L19 14L18 14L18 15L19 15L19 14L20 14L20 15L21 15L21 16L17 16L17 15L16 15L16 16L17 16L17 17L21 17L21 18L20 18L20 19L22 19L22 20L25 20L25 21L24 21L24 23L22 23L22 22L23 22L23 21L21 21L21 20L20 20L20 21L19 21L19 22L20 22L20 23L19 23L19 24L20 24L20 25L19 25L19 27L20 27L20 25L21 25L21 27L23 27L23 26L25 26L25 27L24 27L24 28L26 28L26 27L27 27L27 29L26 29L26 30L27 30L27 31L26 31L26 32L27 32L27 33L22 33L22 34L26 34L26 35L25 35L25 37L24 37L24 38L25 38L25 39L24 39L24 40L25 40L25 41L24 41L24 43L23 43L23 44L24 44L24 45L22 45L22 46L20 46L20 45L21 45L21 44L20 44L20 45L19 45L19 44L18 44L18 42L17 42L17 43L16 43L16 44L15 44L15 43L14 43L14 45L13 45L13 46L11 46L11 47L13 47L13 46L14 46L14 45L19 45L19 46L18 46L18 47L17 47L17 46L15 46L15 47L16 47L16 49L17 49L17 48L18 48L18 49L19 49L19 50L17 50L17 51L16 51L16 53L17 53L17 52L18 52L18 53L19 53L19 52L20 52L20 53L21 53L21 54L22 54L22 55L23 55L23 53L22 53L22 52L23 52L23 51L24 51L24 52L25 52L25 53L24 53L24 54L27 54L27 53L26 53L26 51L25 51L25 50L27 50L27 51L28 51L28 50L27 50L27 49L29 49L29 47L30 47L30 49L31 49L31 50L32 50L32 51L34 51L34 53L35 53L35 52L36 52L36 50L38 50L38 51L40 51L40 52L41 52L41 53L42 53L42 54L43 54L43 53L44 53L44 52L41 52L41 51L42 51L42 50L43 50L43 51L45 51L45 52L46 52L46 53L49 53L49 52L48 52L48 51L52 51L52 50L50 50L50 47L51 47L51 46L50 46L50 44L51 44L51 45L52 45L52 44L51 44L51 43L53 43L53 41L54 41L54 43L55 43L55 42L56 42L56 43L57 43L57 42L56 42L56 41L54 41L54 40L53 40L53 39L52 39L52 40L51 40L51 38L50 38L50 40L47 40L47 39L46 39L46 38L44 38L44 37L43 37L43 35L42 35L42 38L41 38L41 39L40 39L40 36L41 36L41 34L43 34L43 32L45 32L45 31L47 31L47 32L48 32L48 33L49 33L49 34L50 34L50 33L49 33L49 32L50 32L50 31L51 31L51 30L50 30L50 29L51 29L51 28L52 28L52 27L51 27L51 26L52 26L52 25L53 25L53 24L52 24L52 23L51 23L51 22L50 22L50 20L51 20L51 18L50 18L50 17L49 17L49 16L48 16L48 17L49 17L49 18L48 18L48 19L47 19L47 18L46 18L46 20L45 20L45 17L47 17L47 16L46 16L46 15L44 15L44 16L45 16L45 17L44 17L44 19L42 19L42 22L43 22L43 20L45 20L45 21L44 21L44 22L45 22L45 23L42 23L42 24L45 24L45 25L44 25L44 26L45 26L45 27L44 27L44 28L45 28L45 29L44 29L44 31L43 31L43 32L41 32L41 31L42 31L42 30L43 30L43 27L42 27L42 28L41 28L41 26L43 26L43 25L39 25L39 24L41 24L41 23L40 23L40 21L39 21L39 22L36 22L36 21L37 21L37 20L38 20L38 19L39 19L39 20L40 20L40 18L43 18L43 17L40 17L40 16L41 16L41 15L42 15L42 14L43 14L43 13L42 13L42 14L41 14L41 13L40 13L40 12L41 12L41 11L40 11L40 10L41 10L41 9L42 9L42 10L43 10L43 9L42 9L42 8L41 8L41 6L40 6L40 7L39 7L39 5L41 5L41 4ZM46 4L46 5L48 5L48 4ZM8 5L8 7L9 7L9 5ZM29 5L29 8L32 8L32 5ZM34 5L34 7L35 7L35 5ZM14 6L14 7L15 7L15 6ZM17 6L17 7L18 7L18 6ZM24 6L24 8L25 8L25 9L26 9L26 8L25 8L25 6ZM30 6L30 7L31 7L31 6ZM47 8L47 9L49 9L49 8ZM3 9L3 10L2 10L2 11L1 11L1 12L2 12L2 13L1 13L1 14L3 14L3 11L4 11L4 9ZM8 9L8 10L7 10L7 11L8 11L8 10L9 10L9 9ZM29 9L29 10L30 10L30 9ZM44 9L44 11L42 11L42 12L46 12L46 11L48 11L48 10L46 10L46 11L45 11L45 9ZM36 10L36 11L35 11L35 12L40 12L40 11L38 11L38 10ZM16 11L16 12L18 12L18 11ZM28 11L28 12L29 12L29 11ZM58 11L58 12L59 12L59 11ZM56 12L56 13L57 13L57 12ZM6 13L6 14L7 14L7 13ZM20 13L20 14L21 14L21 13ZM44 13L44 14L45 14L45 13ZM22 14L22 15L23 15L23 14ZM40 14L40 15L41 15L41 14ZM12 15L12 16L14 16L14 15ZM38 17L38 18L40 18L40 17ZM0 18L0 20L1 20L1 18ZM9 18L9 19L10 19L10 18ZM22 18L22 19L23 19L23 18ZM49 18L49 19L48 19L48 20L50 20L50 18ZM52 18L52 21L54 21L54 22L56 22L56 20L54 20L54 19L53 19L53 18ZM6 20L6 21L5 21L5 22L6 22L6 23L8 23L8 22L6 22L6 21L7 21L7 20ZM46 20L46 22L47 22L47 23L45 23L45 24L46 24L46 25L45 25L45 26L47 26L47 27L46 27L46 28L47 28L47 27L48 27L48 28L51 28L51 27L50 27L50 26L51 26L51 25L50 25L50 26L47 26L47 24L49 24L49 23L50 23L50 22L49 22L49 21L47 21L47 20ZM20 21L20 22L21 22L21 21ZM25 21L25 22L26 22L26 25L27 25L27 24L29 24L29 25L28 25L28 26L27 26L27 27L28 27L28 28L29 28L29 27L31 27L31 28L32 28L32 27L33 27L33 28L34 28L34 30L35 30L35 31L33 31L33 35L32 35L32 38L31 38L31 37L30 37L30 38L31 38L31 39L32 39L32 40L31 40L31 41L30 41L30 40L29 40L29 39L27 39L27 38L29 38L29 35L31 35L31 33L30 33L30 34L29 34L29 33L27 33L27 34L28 34L28 35L27 35L27 36L26 36L26 37L25 37L25 38L26 38L26 39L25 39L25 40L26 40L26 41L27 41L27 42L25 42L25 43L24 43L24 44L25 44L25 45L27 45L27 46L29 46L29 45L30 45L30 46L31 46L31 47L32 47L32 48L31 48L31 49L32 49L32 48L33 48L33 50L36 50L36 48L37 48L37 49L38 49L38 50L39 50L39 49L38 49L38 48L40 48L40 49L41 49L41 48L40 48L40 47L41 47L41 46L42 46L42 47L43 47L43 48L42 48L42 49L43 49L43 50L44 50L44 49L45 49L45 50L47 50L47 51L46 51L46 52L47 52L47 51L48 51L48 50L49 50L49 49L48 49L48 48L49 48L49 47L50 47L50 46L49 46L49 47L48 47L48 48L47 48L47 47L46 47L46 48L44 48L44 47L45 47L45 46L47 46L47 44L50 44L50 42L51 42L51 40L50 40L50 42L49 42L49 43L47 43L47 44L42 44L42 43L45 43L45 42L48 42L48 41L47 41L47 40L44 40L44 38L42 38L42 39L41 39L41 40L39 40L39 39L36 39L36 38L39 38L39 37L36 37L36 36L39 36L39 35L36 35L36 34L37 34L37 33L38 33L38 34L39 34L39 32L40 32L40 33L41 33L41 32L40 32L40 31L41 31L41 30L42 30L42 29L41 29L41 28L40 28L40 26L39 26L39 25L38 25L38 26L39 26L39 27L38 27L38 28L37 28L37 25L36 25L36 27L35 27L35 28L34 28L34 27L33 27L33 26L32 26L32 25L31 25L31 24L30 24L30 23L27 23L27 22L26 22L26 21ZM28 21L28 22L29 22L29 21ZM58 21L58 22L59 22L59 21ZM9 22L9 24L8 24L8 25L7 25L7 26L6 26L6 27L7 27L7 26L8 26L8 25L9 25L9 24L10 24L10 22ZM32 22L32 23L33 23L33 22ZM35 22L35 24L37 24L37 23L36 23L36 22ZM48 22L48 23L49 23L49 22ZM24 23L24 24L21 24L21 25L25 25L25 23ZM11 24L11 25L12 25L12 24ZM30 25L30 26L31 26L31 27L32 27L32 26L31 26L31 25ZM34 25L34 26L35 26L35 25ZM58 25L58 26L59 26L59 25ZM28 26L28 27L29 27L29 26ZM35 28L35 29L37 29L37 30L36 30L36 31L37 31L37 30L38 30L38 29L40 29L40 28L38 28L38 29L37 29L37 28ZM1 29L1 31L3 31L3 34L5 34L5 33L4 33L4 30L2 30L2 29ZM5 29L5 32L8 32L8 29ZM11 29L11 30L12 30L12 31L13 31L13 32L14 32L14 31L15 31L15 34L16 34L16 31L15 31L15 30L14 30L14 31L13 31L13 30L12 30L12 29ZM21 29L21 32L20 32L20 33L21 33L21 32L22 32L22 30L23 30L23 31L24 31L24 32L25 32L25 31L24 31L24 30L25 30L25 29ZM27 29L27 30L28 30L28 29ZM29 29L29 32L32 32L32 29ZM45 29L45 30L48 30L48 32L49 32L49 31L50 31L50 30L49 30L49 29ZM53 29L53 32L56 32L56 29ZM6 30L6 31L7 31L7 30ZM30 30L30 31L31 31L31 30ZM39 30L39 31L40 31L40 30ZM54 30L54 31L55 31L55 30ZM18 32L18 33L17 33L17 35L16 35L16 36L13 36L13 38L12 38L12 39L8 39L8 41L7 41L7 42L5 42L5 43L7 43L7 42L8 42L8 44L6 44L6 45L7 45L7 46L5 46L5 47L7 47L7 46L8 46L8 45L9 45L9 46L10 46L10 45L11 45L11 44L13 44L13 42L16 42L16 41L17 41L17 39L18 39L18 41L19 41L19 43L21 43L21 42L23 42L23 41L21 41L21 40L20 40L20 41L19 41L19 38L20 38L20 39L21 39L21 38L23 38L23 37L22 37L22 36L20 36L20 34L18 34L18 33L19 33L19 32ZM35 32L35 33L37 33L37 32ZM6 33L6 34L7 34L7 33ZM44 33L44 34L45 34L45 33ZM9 34L9 35L10 35L10 34ZM46 34L46 35L44 35L44 36L45 36L45 37L47 37L47 38L48 38L48 37L49 37L49 36L50 36L50 35L49 35L49 36L48 36L48 37L47 37L47 36L46 36L46 35L47 35L47 34ZM56 34L56 35L57 35L57 34ZM17 35L17 36L19 36L19 37L16 37L16 38L19 38L19 37L20 37L20 38L21 38L21 37L20 37L20 36L19 36L19 35ZM23 35L23 36L24 36L24 35ZM33 35L33 36L36 36L36 35ZM26 37L26 38L27 38L27 37ZM13 38L13 40L14 40L14 41L15 41L15 39L14 39L14 38ZM32 38L32 39L33 39L33 41L31 41L31 42L30 42L30 43L31 43L31 44L30 44L30 45L31 45L31 44L32 44L32 45L35 45L35 44L34 44L34 42L33 42L33 41L37 41L37 40L34 40L34 39L35 39L35 38ZM57 39L57 40L59 40L59 39ZM9 40L9 41L10 41L10 40ZM11 40L11 41L12 41L12 40ZM38 40L38 41L39 41L39 40ZM41 40L41 42L38 42L38 43L40 43L40 44L39 44L39 46L38 46L38 47L40 47L40 46L41 46L41 45L40 45L40 44L41 44L41 42L43 42L43 40ZM52 40L52 41L53 41L53 40ZM20 41L20 42L21 42L21 41ZM44 41L44 42L45 42L45 41ZM10 42L10 44L11 44L11 43L12 43L12 42ZM27 42L27 43L26 43L26 44L29 44L29 43L28 43L28 42ZM31 42L31 43L32 43L32 44L33 44L33 43L32 43L32 42ZM35 42L35 43L36 43L36 42ZM36 44L36 46L34 46L34 49L35 49L35 47L36 47L36 46L37 46L37 45L38 45L38 44ZM56 44L56 45L57 45L57 44ZM58 44L58 45L59 45L59 44ZM42 45L42 46L43 46L43 45ZM44 45L44 46L45 46L45 45ZM22 46L22 47L23 47L23 48L21 48L21 49L20 49L20 48L19 48L19 49L20 49L20 50L19 50L19 51L21 51L21 49L27 49L27 48L26 48L26 46ZM32 46L32 47L33 47L33 46ZM24 47L24 48L25 48L25 47ZM54 47L54 48L57 48L57 49L56 49L56 50L57 50L57 49L58 49L58 48L59 48L59 47L58 47L58 48L57 48L57 47ZM8 48L8 49L9 49L9 51L10 51L10 52L11 52L11 51L13 51L13 49L12 49L12 50L11 50L11 49L9 49L9 48ZM46 48L46 49L47 49L47 48ZM51 48L51 49L52 49L52 48ZM5 49L5 50L7 50L7 49ZM10 50L10 51L11 51L11 50ZM22 50L22 51L23 51L23 50ZM40 50L40 51L41 51L41 50ZM3 51L3 52L4 52L4 51ZM54 51L54 52L55 52L55 51ZM6 52L6 53L7 53L7 52ZM60 52L60 53L61 53L61 52ZM29 53L29 56L32 56L32 53ZM53 53L53 56L56 56L56 53ZM14 54L14 55L15 55L15 54ZM18 54L18 55L19 55L19 54ZM30 54L30 55L31 55L31 54ZM54 54L54 55L55 55L55 54ZM59 54L59 55L60 55L60 56L58 56L58 57L60 57L60 60L58 60L58 61L61 61L61 54ZM24 55L24 56L25 56L25 55ZM26 55L26 56L27 56L27 55ZM33 55L33 57L31 57L31 58L32 58L32 59L31 59L31 60L32 60L32 59L33 59L33 58L35 58L35 56L34 56L34 55ZM46 55L46 57L47 57L47 58L45 58L45 59L47 59L47 58L48 58L48 59L49 59L49 58L48 58L48 57L49 57L49 56L48 56L48 55ZM18 57L18 59L16 59L16 60L19 60L19 57ZM38 58L38 59L39 59L39 58ZM56 58L56 59L57 59L57 58ZM13 59L13 60L14 60L14 59ZM36 60L36 61L37 61L37 60ZM0 0L0 7L7 7L7 0ZM1 1L1 6L6 6L6 1ZM2 2L2 5L5 5L5 2ZM54 0L54 7L61 7L61 0ZM55 1L55 6L60 6L60 1ZM56 2L56 5L59 5L59 2ZM0 54L0 61L7 61L7 54ZM1 55L1 60L6 60L6 55ZM2 56L2 59L5 59L5 56Z" fill="#000000"/></g></g></svg>
