<?xml version="1.0" encoding="UTF-8"?>
<svg xmlns="http://www.w3.org/2000/svg" version="1.1" width="300" height="300" viewBox="0 0 300 300"><rect x="0" y="0" width="300" height="300" fill="#ffffff"/><g transform="scale(4.918)"><g transform="translate(0,0)"><path fill-rule="evenodd" d="M10 0L10 1L8 1L8 2L9 2L9 3L8 3L8 4L9 4L9 3L10 3L10 4L11 4L11 6L10 6L10 8L11 8L11 10L10 10L10 9L9 9L9 8L6 8L6 9L5 9L5 8L0 8L0 10L1 10L1 9L5 9L5 10L4 10L4 11L3 11L3 10L2 10L2 11L3 11L3 12L4 12L4 13L5 13L5 12L6 12L6 13L9 13L9 15L7 15L7 14L6 14L6 15L5 15L5 14L3 14L3 13L1 13L1 12L0 12L0 15L1 15L1 16L0 16L0 17L2 17L2 18L0 18L0 21L2 21L2 22L0 22L0 23L1 23L1 24L0 24L0 25L2 25L2 23L3 23L3 21L5 21L5 22L6 22L6 23L5 23L5 24L3 24L3 26L2 26L2 27L3 27L3 28L4 28L4 29L2 29L2 28L1 28L1 26L0 26L0 29L1 29L1 30L0 30L0 34L1 34L1 35L0 35L0 38L1 38L1 35L2 35L2 38L3 38L3 37L4 37L4 35L5 35L5 34L6 34L6 35L7 35L7 36L5 36L5 38L6 38L6 39L7 39L7 38L8 38L8 39L9 39L9 38L8 38L8 37L10 37L10 36L11 36L11 33L12 33L12 35L13 35L13 36L12 36L12 37L11 37L11 39L10 39L10 41L9 41L9 40L8 40L8 42L10 42L10 43L11 43L11 44L6 44L6 45L5 45L5 42L4 42L4 41L5 41L5 40L4 40L4 41L3 41L3 40L2 40L2 39L0 39L0 41L3 41L3 43L1 43L1 42L0 42L0 43L1 43L1 44L2 44L2 45L1 45L1 46L0 46L0 47L1 47L1 46L2 46L2 48L0 48L0 49L1 49L1 50L2 50L2 51L0 51L0 53L4 53L4 52L5 52L5 51L10 51L10 52L6 52L6 53L8 53L8 55L9 55L9 53L10 53L10 55L13 55L13 54L11 54L11 52L12 52L12 53L14 53L14 52L16 52L16 53L15 53L15 54L14 54L14 55L15 55L15 56L16 56L16 57L18 57L18 58L17 58L17 59L18 59L18 58L19 58L19 59L20 59L20 58L19 58L19 57L20 57L20 55L19 55L19 57L18 57L18 56L16 56L16 55L18 55L18 54L16 54L16 53L17 53L17 52L16 52L16 51L15 51L15 50L16 50L16 49L15 49L15 48L16 48L16 47L15 47L15 45L14 45L14 46L13 46L13 49L10 49L10 50L5 50L5 49L8 49L8 48L9 48L9 45L10 45L10 48L11 48L11 46L12 46L12 45L13 45L13 43L14 43L14 44L16 44L16 45L19 45L19 44L20 44L20 45L21 45L21 44L25 44L25 43L28 43L28 42L30 42L30 41L31 41L31 40L30 40L30 41L28 41L28 42L25 42L25 41L27 41L27 40L29 40L29 38L30 38L30 39L31 39L31 36L32 36L32 37L33 37L33 38L32 38L32 39L33 39L33 40L32 40L32 43L31 43L31 44L30 44L30 45L31 45L31 46L28 46L28 45L29 45L29 44L27 44L27 45L26 45L26 46L27 46L27 49L26 49L26 47L25 47L25 48L24 48L24 47L23 47L23 46L25 46L25 45L22 45L22 47L19 47L19 46L17 46L17 47L18 47L18 48L17 48L17 49L19 49L19 48L20 48L20 49L21 49L21 50L22 50L22 51L21 51L21 52L20 52L20 51L19 51L19 50L17 50L17 51L19 51L19 52L18 52L18 53L19 53L19 54L20 54L20 53L21 53L21 55L25 55L25 56L26 56L26 55L25 55L25 53L26 53L26 54L27 54L27 53L28 53L28 56L27 56L27 59L26 59L26 60L25 60L25 61L26 61L26 60L27 60L27 61L28 61L28 60L29 60L29 59L28 59L28 58L30 58L30 59L31 59L31 60L33 60L33 61L38 61L38 60L34 60L34 59L35 59L35 58L33 58L33 59L31 59L31 58L32 58L32 57L35 57L35 56L36 56L36 57L37 57L37 56L36 56L36 54L38 54L38 55L39 55L39 56L38 56L38 57L39 57L39 58L38 58L38 59L39 59L39 60L41 60L41 61L44 61L44 60L46 60L46 59L47 59L47 61L50 61L50 60L51 60L51 61L53 61L53 60L55 60L55 57L56 57L56 58L57 58L57 51L59 51L59 52L58 52L58 53L59 53L59 52L60 52L60 53L61 53L61 50L60 50L60 49L61 49L61 46L60 46L60 45L61 45L61 41L60 41L60 40L54 40L54 39L55 39L55 38L56 38L56 39L61 39L61 38L58 38L58 37L61 37L61 34L58 34L58 33L59 33L59 32L58 32L58 31L61 31L61 30L59 30L59 29L60 29L60 27L61 27L61 26L60 26L60 25L61 25L61 22L58 22L58 21L59 21L59 20L61 20L61 18L57 18L57 17L59 17L59 16L61 16L61 14L59 14L59 12L60 12L60 11L61 11L61 10L60 10L60 11L59 11L59 12L57 12L57 11L58 11L58 10L59 10L59 9L60 9L60 8L59 8L59 9L58 9L58 8L57 8L57 9L56 9L56 8L55 8L55 9L54 9L54 8L53 8L53 6L52 6L52 7L51 7L51 5L52 5L52 4L53 4L53 0L51 0L51 2L50 2L50 4L49 4L49 3L47 3L47 2L49 2L49 1L50 1L50 0L48 0L48 1L46 1L46 0L45 0L45 2L42 2L42 1L44 1L44 0L40 0L40 1L38 1L38 2L37 2L37 3L35 3L35 1L37 1L37 0L35 0L35 1L33 1L33 0L32 0L32 1L31 1L31 0L30 0L30 1L27 1L27 0L24 0L24 1L23 1L23 2L22 2L22 1L21 1L21 3L20 3L20 4L22 4L22 5L18 5L18 4L19 4L19 2L20 2L20 1L18 1L18 2L17 2L17 0L16 0L16 1L13 1L13 0ZM10 1L10 2L11 2L11 1ZM12 1L12 2L13 2L13 1ZM25 1L25 3L24 3L24 2L23 2L23 3L22 3L22 4L25 4L25 5L26 5L26 4L27 4L27 5L28 5L28 4L27 4L27 3L26 3L26 1ZM30 1L30 2L28 2L28 3L30 3L30 4L31 4L31 3L30 3L30 2L31 2L31 1ZM32 1L32 2L33 2L33 8L34 8L34 10L35 10L35 11L36 11L36 12L37 12L37 11L38 11L38 12L40 12L40 13L43 13L43 14L42 14L42 15L41 15L41 16L40 16L40 15L38 15L38 14L39 14L39 13L38 13L38 14L37 14L37 13L35 13L35 12L34 12L34 11L33 11L33 9L32 9L32 10L31 10L31 9L28 9L28 10L27 10L27 9L25 9L25 8L26 8L26 6L25 6L25 7L24 7L24 5L23 5L23 8L21 8L21 7L22 7L22 6L21 6L21 7L20 7L20 6L19 6L19 7L20 7L20 8L19 8L19 9L21 9L21 13L20 13L20 12L19 12L19 11L20 11L20 10L19 10L19 11L18 11L18 10L17 10L17 9L18 9L18 8L17 8L17 7L18 7L18 5L17 5L17 4L16 4L16 2L15 2L15 3L14 3L14 4L13 4L13 3L11 3L11 4L13 4L13 5L12 5L12 6L11 6L11 7L12 7L12 8L14 8L14 9L12 9L12 10L11 10L11 11L12 11L12 12L14 12L14 13L11 13L11 12L10 12L10 10L9 10L9 9L6 9L6 10L5 10L5 11L6 11L6 12L9 12L9 13L10 13L10 16L12 16L12 17L9 17L9 16L7 16L7 15L6 15L6 16L7 16L7 17L5 17L5 18L8 18L8 17L9 17L9 18L12 18L12 17L14 17L14 18L13 18L13 19L9 19L9 20L11 20L11 21L9 21L9 22L8 22L8 20L7 20L7 19L6 19L6 20L7 20L7 21L6 21L6 22L8 22L8 24L10 24L10 22L11 22L11 21L13 21L13 19L14 19L14 18L15 18L15 19L16 19L16 20L19 20L19 21L16 21L16 22L15 22L15 23L16 23L16 22L18 22L18 23L17 23L17 24L18 24L18 25L15 25L15 26L16 26L16 27L15 27L15 28L17 28L17 29L15 29L15 30L16 30L16 31L14 31L14 32L13 32L13 34L14 34L14 35L15 35L15 36L13 36L13 37L12 37L12 40L11 40L11 43L13 43L13 42L12 42L12 41L14 41L14 43L16 43L16 44L19 44L19 43L20 43L20 42L19 42L19 43L18 43L18 42L17 42L17 41L18 41L18 40L17 40L17 41L16 41L16 40L13 40L13 39L14 39L14 38L17 38L17 39L18 39L18 38L19 38L19 37L20 37L20 38L21 38L21 37L25 37L25 36L24 36L24 35L23 35L23 34L24 34L24 33L23 33L23 30L22 30L22 31L20 31L20 30L21 30L21 29L20 29L20 30L19 30L19 29L18 29L18 27L19 27L19 28L21 28L21 24L22 24L22 25L23 25L23 26L22 26L22 27L24 27L24 25L26 25L26 26L25 26L25 28L22 28L22 29L25 29L25 30L24 30L24 32L26 32L26 33L25 33L25 34L26 34L26 35L27 35L27 36L26 36L26 37L27 37L27 38L29 38L29 37L30 37L30 36L29 36L29 35L30 35L30 34L31 34L31 33L27 33L27 32L28 32L28 29L27 29L27 28L28 28L28 27L31 27L31 28L32 28L32 27L31 27L31 26L33 26L33 28L34 28L34 29L33 29L33 30L35 30L35 31L33 31L33 35L32 35L32 36L33 36L33 37L34 37L34 41L33 41L33 43L32 43L32 47L31 47L31 48L32 48L32 49L30 49L30 48L29 48L29 47L28 47L28 48L29 48L29 49L27 49L27 50L26 50L26 49L24 49L24 48L23 48L23 49L22 49L22 48L21 48L21 49L22 49L22 50L23 50L23 51L24 51L24 52L21 52L21 53L25 53L25 50L26 50L26 53L27 53L27 52L31 52L31 50L36 50L36 51L35 51L35 52L37 52L37 53L38 53L38 54L40 54L40 55L41 55L41 56L40 56L40 57L41 57L41 56L42 56L42 57L43 57L43 56L42 56L42 55L44 55L44 57L45 57L45 58L47 58L47 59L48 59L48 60L50 60L50 58L51 58L51 60L53 60L53 58L51 58L51 56L52 56L52 55L50 55L50 54L51 54L51 53L50 53L50 52L52 52L52 51L53 51L53 52L56 52L56 51L53 51L53 50L52 50L52 49L53 49L53 48L52 48L52 47L53 47L53 45L54 45L54 44L55 44L55 45L56 45L56 46L57 46L57 45L56 45L56 44L59 44L59 45L58 45L58 46L59 46L59 45L60 45L60 44L59 44L59 43L60 43L60 42L59 42L59 41L54 41L54 40L53 40L53 37L52 37L52 38L51 38L51 36L52 36L52 35L53 35L53 36L56 36L56 38L57 38L57 37L58 37L58 36L60 36L60 35L58 35L58 36L57 36L57 35L56 35L56 34L57 34L57 33L56 33L56 34L55 34L55 33L54 33L54 34L55 34L55 35L53 35L53 34L52 34L52 35L51 35L51 36L49 36L49 33L48 33L48 32L49 32L49 31L50 31L50 30L51 30L51 31L52 31L52 29L51 29L51 28L52 28L52 27L51 27L51 28L49 28L49 27L50 27L50 26L53 26L53 28L54 28L54 27L55 27L55 26L53 26L53 25L55 25L55 24L53 24L53 23L52 23L52 24L53 24L53 25L50 25L50 26L49 26L49 25L47 25L47 24L49 24L49 23L50 23L50 22L51 22L51 21L52 21L52 22L53 22L53 21L52 21L52 18L53 18L53 20L54 20L54 19L55 19L55 22L54 22L54 23L56 23L56 21L57 21L57 20L56 20L56 17L57 17L57 16L59 16L59 15L58 15L58 13L57 13L57 12L56 12L56 11L57 11L57 10L58 10L58 9L57 9L57 10L56 10L56 9L55 9L55 10L54 10L54 11L52 11L52 10L53 10L53 9L50 9L50 8L49 8L49 7L50 7L50 6L49 6L49 5L47 5L47 3L46 3L46 2L45 2L45 3L43 3L43 5L42 5L42 4L41 4L41 3L39 3L39 2L38 2L38 3L37 3L37 5L39 5L39 7L40 7L40 6L41 6L41 7L42 7L42 8L39 8L39 9L38 9L38 10L37 10L37 9L36 9L36 8L38 8L38 6L37 6L37 7L36 7L36 6L35 6L35 8L34 8L34 5L35 5L35 3L34 3L34 2L33 2L33 1ZM25 3L25 4L26 4L26 3ZM38 3L38 4L39 4L39 3ZM45 3L45 4L44 4L44 5L45 5L45 6L44 6L44 8L43 8L43 9L41 9L41 10L43 10L43 11L44 11L44 12L43 12L43 13L44 13L44 12L45 12L45 11L46 11L46 13L47 13L47 14L45 14L45 15L44 15L44 14L43 14L43 15L42 15L42 16L43 16L43 17L39 17L39 16L38 16L38 17L37 17L37 16L35 16L35 17L36 17L36 18L34 18L34 20L35 20L35 21L37 21L37 20L35 20L35 19L36 19L36 18L38 18L38 19L39 19L39 20L41 20L41 19L42 19L42 20L43 20L43 19L42 19L42 18L43 18L43 17L44 17L44 16L45 16L45 19L44 19L44 20L45 20L45 21L48 21L48 22L46 22L46 23L49 23L49 20L50 20L50 21L51 21L51 20L50 20L50 19L51 19L51 18L50 18L50 17L49 17L49 16L48 16L48 14L50 14L50 16L51 16L51 17L53 17L53 18L55 18L55 17L56 17L56 16L57 16L57 15L56 15L56 14L55 14L55 13L56 13L56 12L55 12L55 11L54 11L54 12L55 12L55 13L53 13L53 12L52 12L52 11L51 11L51 13L53 13L53 14L52 14L52 15L54 15L54 14L55 14L55 15L56 15L56 16L51 16L51 14L50 14L50 12L48 12L48 13L47 13L47 11L48 11L48 10L49 10L49 11L50 11L50 9L49 9L49 8L47 8L47 5L46 5L46 3ZM51 3L51 4L52 4L52 3ZM14 4L14 5L13 5L13 6L12 6L12 7L13 7L13 6L14 6L14 8L15 8L15 9L14 9L14 10L13 10L13 11L14 11L14 10L15 10L15 9L17 9L17 8L16 8L16 7L17 7L17 5L15 5L15 4ZM8 5L8 7L9 7L9 5ZM29 5L29 8L32 8L32 5ZM15 6L15 7L16 7L16 6ZM27 6L27 8L28 8L28 6ZM30 6L30 7L31 7L31 6ZM42 6L42 7L43 7L43 6ZM45 6L45 7L46 7L46 6ZM48 6L48 7L49 7L49 6ZM23 8L23 9L22 9L22 12L23 12L23 9L24 9L24 10L25 10L25 9L24 9L24 8ZM44 8L44 9L45 9L45 10L48 10L48 9L47 9L47 8ZM35 9L35 10L36 10L36 11L37 11L37 10L36 10L36 9ZM6 10L6 11L8 11L8 10ZM29 10L29 14L30 14L30 12L32 12L32 11L31 11L31 10ZM38 10L38 11L40 11L40 12L41 12L41 11L40 11L40 10ZM15 11L15 13L14 13L14 14L15 14L15 13L17 13L17 11ZM24 11L24 12L26 12L26 11ZM27 11L27 12L28 12L28 11ZM18 12L18 13L19 13L19 14L20 14L20 13L19 13L19 12ZM33 12L33 13L32 13L32 14L31 14L31 15L32 15L32 16L33 16L33 15L35 15L35 14L33 14L33 13L34 13L34 12ZM22 13L22 15L21 15L21 16L20 16L20 15L18 15L18 14L17 14L17 15L15 15L15 16L17 16L17 15L18 15L18 17L21 17L21 18L20 18L20 21L19 21L19 22L20 22L20 23L19 23L19 25L18 25L18 26L17 26L17 27L18 27L18 26L19 26L19 27L20 27L20 26L19 26L19 25L20 25L20 24L21 24L21 23L22 23L22 24L23 24L23 23L24 23L24 24L26 24L26 23L24 23L24 22L25 22L25 21L26 21L26 22L27 22L27 23L29 23L29 24L27 24L27 27L26 27L26 28L27 28L27 27L28 27L28 25L29 25L29 26L31 26L31 25L35 25L35 26L34 26L34 28L35 28L35 26L36 26L36 27L39 27L39 26L40 26L40 25L39 25L39 26L38 26L38 24L36 24L36 23L37 23L37 22L36 22L36 23L35 23L35 22L34 22L34 23L32 23L32 22L33 22L33 21L32 21L32 22L30 22L30 23L29 23L29 21L28 21L28 19L30 19L30 20L31 20L31 19L32 19L32 20L33 20L33 19L32 19L32 18L33 18L33 17L32 17L32 18L30 18L30 17L31 17L31 16L30 16L30 15L29 15L29 16L27 16L27 17L26 17L26 16L24 16L24 15L26 15L26 14L28 14L28 13L26 13L26 14L25 14L25 13L24 13L24 14L23 14L23 13ZM12 14L12 16L14 16L14 15L13 15L13 14ZM32 14L32 15L33 15L33 14ZM36 14L36 15L37 15L37 14ZM43 15L43 16L44 16L44 15ZM45 15L45 16L46 16L46 18L47 18L47 19L46 19L46 20L49 20L49 19L50 19L50 18L49 18L49 19L48 19L48 18L47 18L47 17L48 17L48 16L46 16L46 15ZM2 16L2 17L3 17L3 16ZM21 16L21 17L22 17L22 18L23 18L23 19L24 19L24 20L22 20L22 21L25 21L25 19L26 19L26 21L27 21L27 22L28 22L28 21L27 21L27 19L26 19L26 18L25 18L25 17L24 17L24 16L23 16L23 17L22 17L22 16ZM29 16L29 17L28 17L28 18L29 18L29 17L30 17L30 16ZM15 17L15 18L16 18L16 17ZM23 17L23 18L24 18L24 17ZM38 17L38 18L39 18L39 17ZM3 18L3 20L2 20L2 19L1 19L1 20L2 20L2 21L3 21L3 20L4 20L4 18ZM18 18L18 19L19 19L19 18ZM58 19L58 20L59 20L59 19ZM14 20L14 21L15 21L15 20ZM20 21L20 22L21 22L21 21ZM39 21L39 22L38 22L38 23L39 23L39 24L42 24L42 22L43 22L43 23L44 23L44 24L43 24L43 25L41 25L41 26L45 26L45 25L44 25L44 24L45 24L45 23L44 23L44 21L42 21L42 22L41 22L41 21ZM12 22L12 23L11 23L11 26L8 26L8 25L5 25L5 26L4 26L4 27L5 27L5 28L9 28L9 27L11 27L11 26L12 26L12 25L13 25L13 26L14 26L14 25L13 25L13 22ZM39 22L39 23L40 23L40 22ZM6 23L6 24L7 24L7 23ZM31 23L31 24L32 24L32 23ZM34 23L34 24L35 24L35 25L36 25L36 24L35 24L35 23ZM57 23L57 24L56 24L56 27L57 27L57 30L58 30L58 28L59 28L59 26L57 26L57 25L58 25L58 24L59 24L59 25L60 25L60 24L59 24L59 23ZM29 24L29 25L30 25L30 24ZM5 26L5 27L8 27L8 26ZM46 26L46 28L45 28L45 27L43 27L43 29L42 29L42 28L41 28L41 27L40 27L40 28L39 28L39 30L38 30L38 28L36 28L36 29L35 29L35 30L36 30L36 31L37 31L37 30L38 30L38 32L35 32L35 33L37 33L37 34L36 34L36 35L37 35L37 36L35 36L35 35L34 35L34 36L35 36L35 38L37 38L37 36L41 36L41 35L40 35L40 34L41 34L41 33L40 33L40 32L42 32L42 34L43 34L43 35L44 35L44 36L43 36L43 37L42 37L42 38L45 38L45 39L44 39L44 40L43 40L43 39L41 39L41 41L39 41L39 40L40 40L40 39L39 39L39 38L38 38L38 39L39 39L39 40L38 40L38 41L39 41L39 42L38 42L38 43L37 43L37 44L36 44L36 43L35 43L35 42L34 42L34 43L35 43L35 46L34 46L34 45L33 45L33 47L34 47L34 49L35 49L35 46L38 46L38 47L37 47L37 48L36 48L36 50L37 50L37 48L38 48L38 47L39 47L39 50L38 50L38 51L39 51L39 52L38 52L38 53L39 53L39 52L41 52L41 51L42 51L42 52L43 52L43 53L40 53L40 54L41 54L41 55L42 55L42 54L44 54L44 52L45 52L45 53L46 53L46 52L47 52L47 53L49 53L49 54L50 54L50 53L49 53L49 52L47 52L47 50L45 50L45 51L44 51L44 50L43 50L43 49L44 49L44 48L45 48L45 49L47 49L47 48L48 48L48 49L49 49L49 48L48 48L48 47L49 47L49 46L50 46L50 47L51 47L51 46L52 46L52 45L53 45L53 43L55 43L55 42L53 42L53 41L52 41L52 40L51 40L51 38L50 38L50 40L48 40L48 42L47 42L47 43L46 43L46 44L45 44L45 41L44 41L44 40L45 40L45 39L47 39L47 38L48 38L48 39L49 39L49 36L48 36L48 35L47 35L47 34L45 34L45 35L44 35L44 32L45 32L45 33L47 33L47 32L48 32L48 31L49 31L49 30L50 30L50 29L49 29L49 28L48 28L48 27L49 27L49 26L48 26L48 27L47 27L47 26ZM13 27L13 28L14 28L14 27ZM10 28L10 29L9 29L9 30L11 30L11 28ZM40 28L40 29L41 29L41 30L40 30L40 31L39 31L39 32L38 32L38 34L37 34L37 35L38 35L38 34L39 34L39 32L40 32L40 31L44 31L44 30L47 30L47 31L46 31L46 32L47 32L47 31L48 31L48 30L49 30L49 29L45 29L45 28L44 28L44 30L42 30L42 29L41 29L41 28ZM5 29L5 32L8 32L8 29ZM13 29L13 30L12 30L12 31L13 31L13 30L14 30L14 29ZM26 29L26 30L27 30L27 29ZM29 29L29 32L32 32L32 29ZM36 29L36 30L37 30L37 29ZM53 29L53 32L56 32L56 29ZM3 30L3 31L4 31L4 30ZM6 30L6 31L7 31L7 30ZM18 30L18 31L19 31L19 30ZM30 30L30 31L31 31L31 30ZM54 30L54 31L55 31L55 30ZM9 31L9 32L10 32L10 33L9 33L9 34L8 34L8 33L6 33L6 34L8 34L8 35L10 35L10 33L11 33L11 31ZM26 31L26 32L27 32L27 31ZM3 32L3 35L4 35L4 32ZM15 32L15 33L14 33L14 34L15 34L15 35L16 35L16 37L19 37L19 35L17 35L17 33L22 33L22 32L17 32L17 33L16 33L16 32ZM51 32L51 33L50 33L50 34L51 34L51 33L52 33L52 32ZM60 32L60 33L61 33L61 32ZM15 33L15 34L16 34L16 33ZM26 33L26 34L27 34L27 35L28 35L28 34L27 34L27 33ZM20 34L20 35L21 35L21 36L20 36L20 37L21 37L21 36L23 36L23 35L22 35L22 34ZM46 35L46 37L45 37L45 36L44 36L44 37L45 37L45 38L47 38L47 35ZM7 36L7 37L6 37L6 38L7 38L7 37L8 37L8 36ZM13 37L13 38L14 38L14 37ZM54 37L54 38L55 38L55 37ZM22 38L22 39L24 39L24 41L25 41L25 40L26 40L26 39L25 39L25 38ZM35 39L35 40L36 40L36 41L37 41L37 40L36 40L36 39ZM6 40L6 41L7 41L7 40ZM19 40L19 41L23 41L23 40ZM50 40L50 42L48 42L48 43L47 43L47 45L45 45L45 44L44 44L44 43L43 43L43 42L40 42L40 43L41 43L41 44L40 44L40 46L39 46L39 44L37 44L37 45L38 45L38 46L39 46L39 47L41 47L41 48L40 48L40 50L39 50L39 51L41 51L41 50L42 50L42 51L43 51L43 52L44 52L44 51L43 51L43 50L42 50L42 49L43 49L43 48L44 48L44 47L43 47L43 46L47 46L47 47L48 47L48 46L49 46L49 45L48 45L48 44L50 44L50 46L51 46L51 44L52 44L52 43L53 43L53 42L52 42L52 41L51 41L51 40ZM6 42L6 43L7 43L7 42ZM16 42L16 43L17 43L17 42ZM22 42L22 43L23 43L23 42ZM50 42L50 43L52 43L52 42ZM56 42L56 43L58 43L58 42ZM3 43L3 47L6 47L6 48L7 48L7 47L8 47L8 46L7 46L7 45L6 45L6 46L4 46L4 43ZM42 43L42 44L43 44L43 45L41 45L41 46L43 46L43 45L44 45L44 44L43 44L43 43ZM11 44L11 45L12 45L12 44ZM47 45L47 46L48 46L48 45ZM6 46L6 47L7 47L7 46ZM14 47L14 48L15 48L15 47ZM42 47L42 48L43 48L43 47ZM45 47L45 48L46 48L46 47ZM54 47L54 48L55 48L55 50L57 50L57 49L58 49L58 48L59 48L59 49L60 49L60 48L59 48L59 47L58 47L58 48L57 48L57 47ZM2 48L2 49L3 49L3 50L4 50L4 48ZM50 48L50 49L52 49L52 48ZM56 48L56 49L57 49L57 48ZM13 49L13 51L14 51L14 49ZM23 49L23 50L24 50L24 49ZM10 50L10 51L12 51L12 50ZM27 50L27 51L28 51L28 50ZM29 50L29 51L30 51L30 50ZM48 50L48 51L49 51L49 50ZM50 50L50 51L51 51L51 50ZM3 51L3 52L4 52L4 51ZM32 51L32 52L34 52L34 51ZM45 51L45 52L46 52L46 51ZM19 52L19 53L20 53L20 52ZM29 53L29 56L32 56L32 53ZM33 53L33 54L34 54L34 56L35 56L35 54L36 54L36 53L35 53L35 54L34 54L34 53ZM53 53L53 56L56 56L56 53ZM30 54L30 55L31 55L31 54ZM45 54L45 55L46 55L46 57L47 57L47 55L48 55L48 54ZM54 54L54 55L55 55L55 54ZM59 54L59 55L61 55L61 54ZM49 55L49 56L48 56L48 57L49 57L49 56L50 56L50 55ZM8 56L8 61L10 61L10 60L12 60L12 59L13 59L13 60L15 60L15 61L19 61L19 60L15 60L15 57L14 57L14 56L13 56L13 58L11 58L11 57L12 57L12 56L10 56L10 60L9 60L9 56ZM58 56L58 57L60 57L60 60L58 60L58 59L56 59L56 61L61 61L61 57L60 57L60 56ZM21 57L21 58L22 58L22 59L23 59L23 58L26 58L26 57ZM30 57L30 58L31 58L31 57ZM36 58L36 59L37 59L37 58ZM42 58L42 59L41 59L41 60L44 60L44 59L43 59L43 58ZM48 58L48 59L49 59L49 58ZM20 60L20 61L22 61L22 60ZM0 0L0 7L7 7L7 0ZM1 1L1 6L6 6L6 1ZM2 2L2 5L5 5L5 2ZM54 0L54 7L61 7L61 0ZM55 1L55 6L60 6L60 1ZM56 2L56 5L59 5L59 2ZM0 54L0 61L7 61L7 54ZM1 55L1 60L6 60L6 55ZM2 56L2 59L5 59L5 56Z" fill="#000000"/></g></g></svg>
