<?xml version="1.0" encoding="UTF-8"?>
<svg xmlns="http://www.w3.org/2000/svg" version="1.1" width="300" height="300" viewBox="0 0 300 300"><rect x="0" y="0" width="300" height="300" fill="#ffffff"/><g transform="scale(4.918)"><g transform="translate(0,0)"><path fill-rule="evenodd" d="M9 0L9 1L8 1L8 2L9 2L9 3L8 3L8 4L10 4L10 2L11 2L11 4L14 4L14 8L12 8L12 7L13 7L13 6L12 6L12 5L8 5L8 7L9 7L9 8L6 8L6 9L9 9L9 8L10 8L10 9L14 9L14 10L15 10L15 9L17 9L17 11L18 11L18 10L20 10L20 11L19 11L19 12L16 12L16 11L14 11L14 12L15 12L15 13L14 13L14 14L15 14L15 15L16 15L16 16L17 16L17 18L18 18L18 19L19 19L19 20L18 20L18 21L17 21L17 20L16 20L16 19L15 19L15 18L16 18L16 17L15 17L15 18L14 18L14 17L13 17L13 16L14 16L14 15L13 15L13 16L12 16L12 14L9 14L9 13L7 13L7 12L5 12L5 10L3 10L3 9L5 9L5 8L0 8L0 9L1 9L1 10L2 10L2 11L4 11L4 12L3 12L3 14L4 14L4 12L5 12L5 14L6 14L6 15L2 15L2 14L1 14L1 15L2 15L2 16L3 16L3 17L0 17L0 24L1 24L1 26L0 26L0 27L1 27L1 28L3 28L3 31L4 31L4 32L2 32L2 29L0 29L0 32L1 32L1 34L0 34L0 36L1 36L1 37L0 37L0 39L1 39L1 41L0 41L0 44L1 44L1 45L0 45L0 46L1 46L1 47L2 47L2 45L5 45L5 46L3 46L3 48L4 48L4 50L2 50L2 49L1 49L1 50L2 50L2 51L0 51L0 53L4 53L4 52L5 52L5 51L8 51L8 50L5 50L5 49L10 49L10 51L11 51L11 52L12 52L12 51L11 51L11 50L12 50L12 49L11 49L11 48L6 48L6 47L8 47L8 45L7 45L7 44L9 44L9 45L11 45L11 44L12 44L12 41L11 41L11 39L12 39L12 40L13 40L13 42L14 42L14 40L13 40L13 39L15 39L15 40L16 40L16 41L17 41L17 43L18 43L18 44L15 44L15 45L19 45L19 46L20 46L20 47L21 47L21 48L20 48L20 49L19 49L19 47L18 47L18 46L16 46L16 48L17 48L17 47L18 47L18 49L19 49L19 50L18 50L18 51L19 51L19 50L20 50L20 51L22 51L22 52L24 52L24 51L28 51L28 55L26 55L26 56L25 56L25 55L24 55L24 56L25 56L25 57L22 57L22 56L23 56L23 54L25 54L25 53L21 53L21 52L20 52L20 53L21 53L21 60L19 60L19 59L20 59L20 58L19 58L19 57L20 57L20 54L19 54L19 57L18 57L18 56L16 56L16 57L18 57L18 58L19 58L19 59L17 59L17 58L15 58L15 59L14 59L14 57L15 57L15 55L16 55L16 54L15 54L15 55L14 55L14 54L13 54L13 55L12 55L12 53L10 53L10 55L9 55L9 53L8 53L8 55L9 55L9 56L8 56L8 61L11 61L11 60L10 60L10 59L11 59L11 58L10 58L10 57L11 57L11 55L12 55L12 56L13 56L13 57L12 57L12 58L13 58L13 60L15 60L15 61L21 61L21 60L23 60L23 59L25 59L25 60L26 60L26 59L28 59L28 60L27 60L27 61L28 61L28 60L29 60L29 61L31 61L31 60L33 60L33 61L37 61L37 60L38 60L38 61L40 61L40 60L42 60L42 61L43 61L43 60L45 60L45 61L46 61L46 59L48 59L48 58L46 58L46 57L49 57L49 56L50 56L50 55L52 55L52 56L51 56L51 58L50 58L50 59L49 59L49 60L48 60L48 61L49 61L49 60L51 60L51 61L53 61L53 59L52 59L52 58L54 58L54 60L56 60L56 61L57 61L57 60L56 60L56 58L57 58L57 59L59 59L59 58L58 58L58 57L60 57L60 60L58 60L58 61L61 61L61 57L60 57L60 56L61 56L61 54L59 54L59 55L60 55L60 56L58 56L58 57L57 57L57 52L53 52L53 51L55 51L55 50L56 50L56 51L57 51L57 50L58 50L58 49L59 49L59 52L58 52L58 53L61 53L61 50L60 50L60 49L61 49L61 48L60 48L60 49L59 49L59 48L56 48L56 49L55 49L55 48L54 48L54 47L61 47L61 46L60 46L60 45L61 45L61 42L60 42L60 43L59 43L59 40L61 40L61 38L60 38L60 37L61 37L61 34L60 34L60 36L57 36L57 35L58 35L58 34L57 34L57 35L56 35L56 33L60 33L60 32L61 32L61 30L60 30L60 31L59 31L59 29L60 29L60 27L61 27L61 26L60 26L60 25L61 25L61 22L58 22L58 21L59 21L59 20L58 20L58 21L57 21L57 23L56 23L56 20L57 20L57 19L59 19L59 18L60 18L60 19L61 19L61 18L60 18L60 16L61 16L61 14L60 14L60 16L58 16L58 17L56 17L56 18L57 18L57 19L56 19L56 20L55 20L55 19L54 19L54 18L55 18L55 17L54 17L54 18L52 18L52 20L50 20L50 21L49 21L49 20L48 20L48 19L51 19L51 18L50 18L50 17L53 17L53 16L52 16L52 15L51 15L51 14L50 14L50 12L51 12L51 13L53 13L53 14L55 14L55 16L57 16L57 15L59 15L59 12L60 12L60 11L61 11L61 10L60 10L60 11L59 11L59 12L58 12L58 11L56 11L56 12L57 12L57 13L56 13L56 14L55 14L55 13L53 13L53 12L54 12L54 10L55 10L55 9L56 9L56 10L57 10L57 9L58 9L58 8L57 8L57 9L56 9L56 8L55 8L55 9L54 9L54 8L52 8L52 7L53 7L53 6L52 6L52 7L51 7L51 5L52 5L52 4L53 4L53 0L51 0L51 2L50 2L50 1L49 1L49 0L47 0L47 1L46 1L46 0L39 0L39 1L38 1L38 2L40 2L40 3L41 3L41 5L42 5L42 7L43 7L43 8L45 8L45 6L46 6L46 9L47 9L47 10L45 10L45 9L44 9L44 10L45 10L45 11L47 11L47 10L49 10L49 11L48 11L48 12L47 12L47 13L49 13L49 15L51 15L51 16L48 16L48 14L46 14L46 12L45 12L45 13L44 13L44 12L43 12L43 11L42 11L42 10L43 10L43 9L41 9L41 10L38 10L38 7L39 7L39 8L41 8L41 6L40 6L40 5L37 5L37 3L35 3L35 1L34 1L34 2L32 2L32 1L33 1L33 0L32 0L32 1L31 1L31 0L30 0L30 1L31 1L31 2L29 2L29 3L27 3L27 2L28 2L28 0L26 0L26 1L25 1L25 0L24 0L24 1L23 1L23 2L22 2L22 1L21 1L21 2L22 2L22 3L23 3L23 4L21 4L21 3L20 3L20 2L19 2L19 1L17 1L17 0L16 0L16 1L15 1L15 2L16 2L16 4L17 4L17 3L18 3L18 4L19 4L19 5L18 5L18 7L17 7L17 6L16 6L16 7L15 7L15 4L14 4L14 2L13 2L13 0ZM9 1L9 2L10 2L10 1ZM36 1L36 2L37 2L37 1ZM40 1L40 2L41 2L41 3L42 3L42 4L43 4L43 7L44 7L44 6L45 6L45 5L44 5L44 4L46 4L46 5L47 5L47 8L49 8L49 9L50 9L50 11L49 11L49 12L50 12L50 11L51 11L51 12L53 12L53 9L52 9L52 8L51 8L51 9L50 9L50 8L49 8L49 7L50 7L50 6L49 6L49 7L48 7L48 5L49 5L49 4L48 4L48 3L50 3L50 2L49 2L49 1L47 1L47 2L48 2L48 3L42 3L42 2L44 2L44 1ZM23 2L23 3L24 3L24 4L25 4L25 3L24 3L24 2ZM19 3L19 4L20 4L20 5L19 5L19 9L25 9L25 11L24 11L24 10L21 10L21 13L20 13L20 12L19 12L19 13L15 13L15 14L17 14L17 16L19 16L19 17L18 17L18 18L19 18L19 19L20 19L20 20L19 20L19 21L18 21L18 23L17 23L17 24L18 24L18 25L14 25L14 22L15 22L15 23L16 23L16 22L17 22L17 21L14 21L14 22L13 22L13 21L12 21L12 20L10 20L10 21L9 21L9 20L8 20L8 18L9 18L9 17L8 17L8 18L7 18L7 17L6 17L6 16L7 16L7 15L9 15L9 16L11 16L11 15L9 15L9 14L7 14L7 13L6 13L6 14L7 14L7 15L6 15L6 16L4 16L4 17L3 17L3 19L2 19L2 18L1 18L1 20L2 20L2 21L1 21L1 22L3 22L3 20L4 20L4 22L5 22L5 23L6 23L6 24L5 24L5 25L6 25L6 26L7 26L7 27L6 27L6 28L9 28L9 29L10 29L10 28L11 28L11 29L12 29L12 30L11 30L11 31L9 31L9 33L3 33L3 35L2 35L2 37L1 37L1 39L2 39L2 38L3 38L3 39L4 39L4 41L1 41L1 42L2 42L2 43L1 43L1 44L5 44L5 45L6 45L6 46L7 46L7 45L6 45L6 44L7 44L7 43L8 43L8 41L6 41L6 42L5 42L5 40L8 40L8 39L9 39L9 40L10 40L10 39L9 39L9 38L11 38L11 37L12 37L12 38L15 38L15 39L16 39L16 40L17 40L17 41L18 41L18 40L17 40L17 39L18 39L18 38L19 38L19 41L21 41L21 42L22 42L22 43L21 43L21 45L20 45L20 44L19 44L19 45L20 45L20 46L21 46L21 47L22 47L22 45L23 45L23 48L24 48L24 49L25 49L25 50L26 50L26 49L27 49L27 50L28 50L28 51L29 51L29 50L32 50L32 48L33 48L33 47L32 47L32 46L31 46L31 45L30 45L30 43L29 43L29 42L31 42L31 43L32 43L32 45L34 45L34 46L36 46L36 48L37 48L37 49L38 49L38 50L39 50L39 51L41 51L41 52L40 52L40 54L39 54L39 52L38 52L38 53L37 53L37 54L36 54L36 52L37 52L37 51L34 51L34 52L35 52L35 53L34 53L34 54L33 54L33 55L34 55L34 56L37 56L37 57L33 57L33 58L32 58L32 57L31 57L31 58L28 58L28 59L33 59L33 58L34 58L34 60L37 60L37 59L38 59L38 58L39 58L39 60L40 60L40 58L41 58L41 59L45 59L45 58L41 58L41 56L44 56L44 57L45 57L45 56L44 56L44 55L46 55L46 54L47 54L47 56L49 56L49 55L50 55L50 54L51 54L51 53L50 53L50 52L52 52L52 51L53 51L53 49L52 49L52 51L50 51L50 50L51 50L51 48L52 48L52 47L53 47L53 45L54 45L54 44L55 44L55 45L56 45L56 46L57 46L57 45L56 45L56 44L57 44L57 43L54 43L54 44L52 44L52 43L53 43L53 42L55 42L55 41L56 41L56 42L57 42L57 41L56 41L56 40L59 40L59 39L57 39L57 37L56 37L56 35L53 35L53 34L51 34L51 31L52 31L52 29L48 29L48 30L47 30L47 28L48 28L48 27L46 27L46 30L45 30L45 26L44 26L44 25L45 25L45 24L46 24L46 22L47 22L47 24L49 24L49 23L50 23L50 22L52 22L52 23L51 23L51 24L53 24L53 25L50 25L50 26L49 26L49 28L53 28L53 27L55 27L55 28L56 28L56 27L57 27L57 25L58 25L58 26L59 26L59 25L58 25L58 24L60 24L60 23L57 23L57 24L56 24L56 27L55 27L55 26L53 26L53 25L55 25L55 24L53 24L53 22L54 22L54 23L55 23L55 22L54 22L54 21L55 21L55 20L54 20L54 19L53 19L53 21L50 21L50 22L49 22L49 21L48 21L48 20L47 20L47 19L46 19L46 20L47 20L47 21L46 21L46 22L43 22L43 23L42 23L42 22L41 22L41 24L39 24L39 23L40 23L40 22L39 22L39 21L45 21L45 20L39 20L39 19L38 19L38 18L39 18L39 16L40 16L40 17L41 17L41 16L42 16L42 15L43 15L43 16L44 16L44 18L42 18L42 19L45 19L45 16L46 16L46 18L47 18L47 17L48 17L48 16L46 16L46 15L45 15L45 14L44 14L44 13L43 13L43 14L42 14L42 13L41 13L41 12L42 12L42 11L41 11L41 12L40 12L40 11L38 11L38 12L37 12L37 9L36 9L36 11L34 11L34 12L30 12L30 13L31 13L31 14L32 14L32 16L29 16L29 15L25 15L25 14L26 14L26 13L27 13L27 14L28 14L28 13L29 13L29 11L27 11L27 10L28 10L28 9L27 9L27 7L28 7L28 6L27 6L27 5L25 5L25 7L26 7L26 9L25 9L25 8L23 8L23 7L24 7L24 6L23 6L23 7L22 7L22 5L21 5L21 4L20 4L20 3ZM26 3L26 4L27 4L27 3ZM29 3L29 4L31 4L31 3ZM33 3L33 9L34 9L34 10L35 10L35 8L37 8L37 7L38 7L38 6L37 6L37 5L36 5L36 4L35 4L35 3ZM38 3L38 4L39 4L39 3ZM51 3L51 4L52 4L52 3ZM20 5L20 7L21 7L21 8L22 8L22 7L21 7L21 5ZM29 5L29 8L32 8L32 5ZM34 5L34 8L35 8L35 6L36 6L36 7L37 7L37 6L36 6L36 5ZM9 6L9 7L10 7L10 8L11 8L11 7L12 7L12 6L11 6L11 7L10 7L10 6ZM26 6L26 7L27 7L27 6ZM30 6L30 7L31 7L31 6ZM39 6L39 7L40 7L40 6ZM16 7L16 8L17 8L17 9L18 9L18 8L17 8L17 7ZM14 8L14 9L15 9L15 8ZM59 8L59 9L60 9L60 8ZM26 9L26 10L27 10L27 9ZM31 9L31 10L30 10L30 11L31 11L31 10L32 10L32 11L33 11L33 10L32 10L32 9ZM6 10L6 11L7 11L7 10ZM8 10L8 12L9 12L9 10ZM10 10L10 11L11 11L11 12L10 12L10 13L11 13L11 12L12 12L12 10ZM23 11L23 12L24 12L24 11ZM26 11L26 12L25 12L25 13L23 13L23 14L22 14L22 15L21 15L21 14L20 14L20 13L19 13L19 14L18 14L18 15L19 15L19 16L20 16L20 15L21 15L21 16L22 16L22 17L21 17L21 19L23 19L23 20L24 20L24 19L23 19L23 18L24 18L24 17L25 17L25 15L24 15L24 17L23 17L23 14L25 14L25 13L26 13L26 12L27 12L27 13L28 13L28 12L27 12L27 11ZM35 12L35 13L36 13L36 14L33 14L33 13L32 13L32 14L33 14L33 15L35 15L35 18L34 18L34 16L32 16L32 18L33 18L33 19L31 19L31 18L30 18L30 17L28 17L28 16L27 16L27 17L26 17L26 18L28 18L28 19L26 19L26 20L27 20L27 21L26 21L26 23L25 23L25 21L22 21L22 22L23 22L23 23L25 23L25 25L22 25L22 24L21 24L21 23L19 23L19 25L18 25L18 27L17 27L17 26L15 26L15 28L13 28L13 29L17 29L17 30L15 30L15 31L16 31L16 32L14 32L14 30L12 30L12 31L11 31L11 32L10 32L10 33L11 33L11 34L10 34L10 36L9 36L9 35L7 35L7 34L6 34L6 35L7 35L7 36L6 36L6 37L5 37L5 34L4 34L4 37L3 37L3 38L5 38L5 39L7 39L7 38L6 38L6 37L10 37L10 36L15 36L15 37L17 37L17 33L16 33L16 32L18 32L18 33L22 33L22 32L21 32L21 31L22 31L22 30L23 30L23 29L21 29L21 28L19 28L19 27L20 27L20 26L19 26L19 25L20 25L20 24L21 24L21 26L22 26L22 28L25 28L25 29L24 29L24 30L25 30L25 29L26 29L26 30L27 30L27 31L26 31L26 32L24 32L24 34L23 34L23 35L22 35L22 34L19 34L19 35L22 35L22 36L24 36L24 35L25 35L25 33L26 33L26 34L27 34L27 35L26 35L26 36L27 36L27 37L26 37L26 38L27 38L27 39L25 39L25 37L22 37L22 38L20 38L20 39L21 39L21 41L22 41L22 42L25 42L25 43L24 43L24 44L23 44L23 45L24 45L24 46L25 46L25 47L24 47L24 48L25 48L25 49L26 49L26 48L25 48L25 47L28 47L28 48L27 48L27 49L28 49L28 50L29 50L29 49L31 49L31 47L29 47L29 45L28 45L28 44L27 44L27 43L28 43L28 42L27 42L27 41L26 41L26 42L25 42L25 41L22 41L22 40L24 40L24 39L25 39L25 40L27 40L27 39L28 39L28 38L27 38L27 37L31 37L31 36L32 36L32 38L30 38L30 39L31 39L31 40L29 40L29 41L31 41L31 40L32 40L32 43L37 43L37 44L35 44L35 45L37 45L37 46L38 46L38 47L39 47L39 50L40 50L40 48L41 48L41 47L42 47L42 48L43 48L43 49L42 49L42 50L43 50L43 49L44 49L44 50L45 50L45 49L44 49L44 48L45 48L45 47L44 47L44 48L43 48L43 47L42 47L42 46L43 46L43 45L42 45L42 44L43 44L43 43L44 43L44 44L45 44L45 43L44 43L44 40L45 40L45 42L46 42L46 43L47 43L47 42L48 42L48 44L47 44L47 45L49 45L49 42L50 42L50 43L52 43L52 42L50 42L50 40L51 40L51 41L52 41L52 40L53 40L53 38L54 38L54 39L55 39L55 40L56 40L56 39L55 39L55 38L54 38L54 37L55 37L55 36L54 36L54 37L53 37L53 35L52 35L52 36L51 36L51 34L50 34L50 33L49 33L49 32L50 32L50 31L51 31L51 30L50 30L50 31L49 31L49 30L48 30L48 31L47 31L47 30L46 30L46 31L44 31L44 32L43 32L43 31L42 31L42 30L43 30L43 29L44 29L44 28L43 28L43 27L42 27L42 28L43 28L43 29L42 29L42 30L41 30L41 29L40 29L40 28L41 28L41 26L40 26L40 25L39 25L39 26L40 26L40 28L39 28L39 27L38 27L38 23L39 23L39 22L38 22L38 23L37 23L37 21L39 21L39 20L35 20L35 21L36 21L36 23L37 23L37 24L34 24L34 23L35 23L35 22L33 22L33 21L34 21L34 20L33 20L33 19L35 19L35 18L36 18L36 19L37 19L37 16L39 16L39 15L40 15L40 16L41 16L41 15L42 15L42 14L41 14L41 15L40 15L40 14L38 14L38 13L37 13L37 12ZM39 12L39 13L40 13L40 12ZM19 14L19 15L20 15L20 14ZM36 14L36 16L37 16L37 15L38 15L38 14ZM43 14L43 15L44 15L44 16L45 16L45 15L44 15L44 14ZM56 14L56 15L57 15L57 14ZM4 17L4 18L5 18L5 20L6 20L6 21L7 21L7 22L6 22L6 23L7 23L7 22L8 22L8 23L9 23L9 24L6 24L6 25L7 25L7 26L8 26L8 27L10 27L10 26L11 26L11 25L12 25L12 27L11 27L11 28L12 28L12 27L13 27L13 25L12 25L12 24L13 24L13 23L12 23L12 22L11 22L11 21L10 21L10 22L11 22L11 25L10 25L10 23L9 23L9 21L7 21L7 20L6 20L6 19L7 19L7 18L6 18L6 17ZM11 17L11 18L10 18L10 19L14 19L14 20L15 20L15 19L14 19L14 18L13 18L13 17ZM19 17L19 18L20 18L20 17ZM22 17L22 18L23 18L23 17ZM58 17L58 18L59 18L59 17ZM28 19L28 20L29 20L29 21L28 21L28 22L32 22L32 23L31 23L31 24L29 24L29 23L28 23L28 24L29 24L29 25L28 25L28 26L29 26L29 25L33 25L33 24L32 24L32 23L33 23L33 22L32 22L32 20L29 20L29 19ZM20 20L20 21L21 21L21 20ZM60 20L60 21L61 21L61 20ZM48 22L48 23L49 23L49 22ZM1 23L1 24L4 24L4 23ZM26 23L26 25L27 25L27 23ZM44 23L44 24L45 24L45 23ZM41 24L41 25L42 25L42 26L43 26L43 25L42 25L42 24ZM2 25L2 26L1 26L1 27L4 27L4 28L5 28L5 26L4 26L4 25ZM9 25L9 26L10 26L10 25ZM34 25L34 26L32 26L32 27L31 27L31 28L32 28L32 27L34 27L34 28L33 28L33 30L35 30L35 31L34 31L34 32L37 32L37 33L38 33L38 34L39 34L39 33L38 33L38 32L40 32L40 33L41 33L41 34L40 34L40 35L41 35L41 36L39 36L39 35L36 35L36 33L34 33L34 34L33 34L33 33L29 33L29 34L30 34L30 35L27 35L27 36L31 36L31 35L32 35L32 36L33 36L33 37L34 37L34 38L35 38L35 40L37 40L37 39L36 39L36 38L37 38L37 37L38 37L38 38L39 38L39 37L41 37L41 38L40 38L40 39L41 39L41 40L39 40L39 41L38 41L38 42L37 42L37 43L38 43L38 42L39 42L39 41L43 41L43 40L42 40L42 39L45 39L45 38L44 38L44 37L45 37L45 36L43 36L43 38L42 38L42 37L41 37L41 36L42 36L42 35L43 35L43 34L44 34L44 35L46 35L46 34L47 34L47 37L46 37L46 38L47 38L47 39L46 39L46 40L47 40L47 39L48 39L48 40L50 40L50 38L51 38L51 40L52 40L52 38L53 38L53 37L52 37L52 38L51 38L51 36L50 36L50 34L49 34L49 33L48 33L48 32L49 32L49 31L48 31L48 32L47 32L47 31L46 31L46 32L47 32L47 33L45 33L45 32L44 32L44 33L43 33L43 32L42 32L42 31L41 31L41 30L40 30L40 31L38 31L38 30L39 30L39 28L38 28L38 27L37 27L37 25ZM46 25L46 26L48 26L48 25ZM34 26L34 27L36 27L36 26ZM50 26L50 27L52 27L52 26ZM16 27L16 28L17 28L17 27ZM25 27L25 28L26 28L26 29L28 29L28 28L29 28L29 27L27 27L27 28L26 28L26 27ZM58 27L58 28L57 28L57 29L58 29L58 28L59 28L59 27ZM34 28L34 29L35 29L35 30L36 30L36 31L37 31L37 30L38 30L38 28ZM5 29L5 32L8 32L8 29ZM18 29L18 31L19 31L19 32L20 32L20 31L21 31L21 29L20 29L20 31L19 31L19 29ZM29 29L29 32L32 32L32 29ZM53 29L53 32L56 32L56 29ZM6 30L6 31L7 31L7 30ZM30 30L30 31L31 31L31 30ZM54 30L54 31L55 31L55 30ZM57 30L57 31L58 31L58 32L59 32L59 31L58 31L58 30ZM40 31L40 32L41 32L41 31ZM13 32L13 34L14 34L14 35L15 35L15 36L16 36L16 35L15 35L15 34L16 34L16 33L14 33L14 32ZM26 32L26 33L27 33L27 34L28 34L28 33L27 33L27 32ZM42 33L42 34L43 34L43 33ZM32 34L32 35L33 35L33 34ZM34 34L34 35L35 35L35 37L37 37L37 36L36 36L36 35L35 35L35 34ZM18 36L18 37L19 37L19 36ZM20 36L20 37L21 37L21 36ZM38 36L38 37L39 37L39 36ZM48 36L48 37L49 37L49 38L50 38L50 36ZM58 37L58 38L59 38L59 37ZM22 38L22 39L24 39L24 38ZM32 39L32 40L33 40L33 39ZM9 41L9 43L11 43L11 42L10 42L10 41ZM34 41L34 42L35 42L35 41ZM46 41L46 42L47 42L47 41ZM4 42L4 43L5 43L5 44L6 44L6 43L7 43L7 42L6 42L6 43L5 43L5 42ZM15 42L15 43L16 43L16 42ZM19 42L19 43L20 43L20 42ZM40 42L40 43L39 43L39 44L40 44L40 45L38 45L38 46L40 46L40 47L41 47L41 46L42 46L42 45L41 45L41 44L42 44L42 43L43 43L43 42ZM13 43L13 45L14 45L14 43ZM40 43L40 44L41 44L41 43ZM58 43L58 44L59 44L59 45L58 45L58 46L59 46L59 45L60 45L60 44L59 44L59 43ZM24 44L24 45L25 45L25 46L26 46L26 45L27 45L27 46L28 46L28 45L27 45L27 44L26 44L26 45L25 45L25 44ZM50 44L50 45L52 45L52 44ZM40 45L40 46L41 46L41 45ZM45 45L45 46L46 46L46 47L47 47L47 48L48 48L48 49L49 49L49 50L48 50L48 51L47 51L47 50L46 50L46 51L42 51L42 52L45 52L45 54L46 54L46 53L47 53L47 52L48 52L48 53L49 53L49 52L50 52L50 51L49 51L49 50L50 50L50 48L51 48L51 47L52 47L52 46L50 46L50 48L48 48L48 47L49 47L49 46L48 46L48 47L47 47L47 46L46 46L46 45ZM9 46L9 47L12 47L12 46ZM4 47L4 48L5 48L5 47ZM14 47L14 49L13 49L13 50L14 50L14 52L13 52L13 53L19 53L19 52L16 52L16 51L15 51L15 50L16 50L16 49L15 49L15 47ZM21 48L21 49L20 49L20 50L21 50L21 49L22 49L22 51L23 51L23 49L22 49L22 48ZM28 48L28 49L29 49L29 48ZM34 49L34 50L35 50L35 49ZM54 49L54 50L55 50L55 49ZM56 49L56 50L57 50L57 49ZM3 51L3 52L4 52L4 51ZM32 51L32 52L33 52L33 51ZM46 51L46 52L47 52L47 51ZM48 51L48 52L49 52L49 51ZM6 52L6 53L7 53L7 52ZM26 53L26 54L27 54L27 53ZM29 53L29 56L32 56L32 53ZM42 53L42 54L44 54L44 53ZM53 53L53 56L56 56L56 53ZM17 54L17 55L18 55L18 54ZM30 54L30 55L31 55L31 54ZM34 54L34 55L36 55L36 54ZM38 54L38 55L37 55L37 56L38 56L38 55L39 55L39 58L40 58L40 56L41 56L41 54L40 54L40 55L39 55L39 54ZM48 54L48 55L49 55L49 54ZM54 54L54 55L55 55L55 54ZM13 55L13 56L14 56L14 55ZM9 56L9 57L10 57L10 56ZM26 56L26 57L27 57L27 56ZM37 57L37 58L36 58L36 59L37 59L37 58L38 58L38 57ZM54 57L54 58L56 58L56 57ZM9 58L9 59L10 59L10 58ZM22 58L22 59L23 59L23 58ZM16 59L16 60L17 60L17 59ZM51 59L51 60L52 60L52 59ZM0 0L0 7L7 7L7 0ZM1 1L1 6L6 6L6 1ZM2 2L2 5L5 5L5 2ZM54 0L54 7L61 7L61 0ZM55 1L55 6L60 6L60 1ZM56 2L56 5L59 5L59 2ZM0 54L0 61L7 61L7 54ZM1 55L1 60L6 60L6 55ZM2 56L2 59L5 59L5 56Z" fill="#000000"/></g></g></svg>
