<?xml version="1.0" encoding="UTF-8"?>
<svg xmlns="http://www.w3.org/2000/svg" version="1.1" width="300" height="300" viewBox="0 0 300 300"><rect x="0" y="0" width="300" height="300" fill="#ffffff"/><g transform="scale(4.918)"><g transform="translate(0,0)"><path fill-rule="evenodd" d="M8 0L8 1L9 1L9 2L10 2L10 3L11 3L11 4L12 4L12 3L11 3L11 1L12 1L12 2L15 2L15 3L13 3L13 4L15 4L15 3L17 3L17 2L16 2L16 1L18 1L18 0L14 0L14 1L13 1L13 0ZM19 0L19 1L20 1L20 3L21 3L21 4L19 4L19 3L18 3L18 4L17 4L17 5L18 5L18 4L19 4L19 5L20 5L20 7L19 7L19 6L18 6L18 7L19 7L19 8L21 8L21 9L20 9L20 10L19 10L19 9L18 9L18 8L17 8L17 6L16 6L16 7L15 7L15 6L14 6L14 5L12 5L12 7L13 7L13 8L12 8L12 9L11 9L11 6L10 6L10 5L9 5L9 6L8 6L8 8L10 8L10 9L11 9L11 10L10 10L10 11L9 11L9 12L8 12L8 13L9 13L9 12L10 12L10 13L11 13L11 12L10 12L10 11L12 11L12 9L14 9L14 8L17 8L17 9L15 9L15 10L14 10L14 11L13 11L13 12L14 12L14 13L12 13L12 17L11 17L11 18L10 18L10 16L11 16L11 14L10 14L10 15L9 15L9 18L8 18L8 17L7 17L7 16L8 16L8 15L7 15L7 14L5 14L5 12L6 12L6 13L7 13L7 12L6 12L6 11L8 11L8 10L9 10L9 9L8 9L8 10L5 10L5 11L4 11L4 9L5 9L5 8L3 8L3 10L1 10L1 9L2 9L2 8L0 8L0 13L1 13L1 16L2 16L2 15L3 15L3 17L2 17L2 18L0 18L0 25L1 25L1 26L0 26L0 28L1 28L1 30L2 30L2 33L1 33L1 31L0 31L0 35L1 35L1 34L2 34L2 35L3 35L3 36L2 36L2 37L3 37L3 38L5 38L5 40L6 40L6 41L7 41L7 42L2 42L2 43L1 43L1 44L2 44L2 45L1 45L1 46L2 46L2 47L3 47L3 48L2 48L2 49L3 49L3 48L5 48L5 47L7 47L7 46L8 46L8 47L9 47L9 48L10 48L10 50L9 50L9 51L8 51L8 49L7 49L7 48L6 48L6 49L4 49L4 50L2 50L2 51L0 51L0 53L4 53L4 52L5 52L5 51L8 51L8 54L9 54L9 51L10 51L10 50L12 50L12 52L13 52L13 53L15 53L15 54L17 54L17 56L18 56L18 57L16 57L16 55L15 55L15 56L14 56L14 55L11 55L11 54L10 54L10 55L11 55L11 56L10 56L10 57L11 57L11 58L12 58L12 60L13 60L13 56L14 56L14 61L16 61L16 60L17 60L17 59L18 59L18 61L19 61L19 60L22 60L22 61L24 61L24 60L25 60L25 61L29 61L29 60L28 60L28 58L27 58L27 60L26 60L26 58L25 58L25 57L26 57L26 56L25 56L25 57L23 57L23 54L20 54L20 56L19 56L19 54L18 54L18 53L19 53L19 52L22 52L22 51L23 51L23 50L26 50L26 52L25 52L25 51L24 51L24 52L23 52L23 53L24 53L24 55L27 55L27 54L28 54L28 56L27 56L27 57L29 57L29 59L30 59L30 61L34 61L34 60L36 60L36 61L37 61L37 60L39 60L39 61L51 61L51 59L52 59L52 58L51 58L51 57L53 57L53 59L54 59L54 60L52 60L52 61L54 61L54 60L55 60L55 61L57 61L57 60L60 60L60 61L61 61L61 57L60 57L60 56L61 56L61 54L60 54L60 53L61 53L61 52L59 52L59 50L60 50L60 51L61 51L61 50L60 50L60 48L61 48L61 46L60 46L60 47L58 47L58 46L59 46L59 45L58 45L58 44L57 44L57 43L58 43L58 42L57 42L57 43L55 43L55 42L56 42L56 41L54 41L54 40L53 40L53 39L57 39L57 41L60 41L60 40L61 40L61 38L60 38L60 35L61 35L61 34L60 34L60 31L61 31L61 30L60 30L60 31L59 31L59 30L58 30L58 31L57 31L57 28L55 28L55 27L52 27L52 28L51 28L51 26L52 26L52 25L50 25L50 26L49 26L49 27L48 27L48 25L49 25L49 24L51 24L51 23L54 23L54 24L53 24L53 26L55 26L55 25L54 25L54 24L56 24L56 26L57 26L57 27L58 27L58 29L61 29L61 26L60 26L60 25L61 25L61 22L60 22L60 23L59 23L59 21L58 21L58 22L57 22L57 21L51 21L51 20L53 20L53 19L54 19L54 20L56 20L56 19L57 19L57 20L58 20L58 18L59 18L59 20L60 20L60 19L61 19L61 18L60 18L60 17L61 17L61 16L59 16L59 15L58 15L58 14L57 14L57 13L58 13L58 12L59 12L59 13L60 13L60 12L59 12L59 11L61 11L61 10L59 10L59 9L57 9L57 10L56 10L56 11L55 11L55 12L56 12L56 14L55 14L55 13L54 13L54 12L53 12L53 11L52 11L52 10L55 10L55 8L54 8L54 9L52 9L52 8L53 8L53 6L52 6L52 8L48 8L48 9L49 9L49 11L47 11L47 9L46 9L46 8L45 8L45 9L46 9L46 11L47 11L47 12L48 12L48 13L49 13L49 11L50 11L50 15L51 15L51 14L52 14L52 16L48 16L48 14L47 14L47 17L46 17L46 14L45 14L45 13L46 13L46 12L44 12L44 13L43 13L43 11L41 11L41 10L43 10L43 9L44 9L44 8L43 8L43 9L41 9L41 6L42 6L42 7L43 7L43 4L42 4L42 5L41 5L41 3L43 3L43 2L44 2L44 4L45 4L45 5L46 5L46 4L47 4L47 6L46 6L46 7L47 7L47 6L48 6L48 7L49 7L49 5L50 5L50 7L51 7L51 5L52 5L52 4L53 4L53 0L51 0L51 2L49 2L49 1L48 1L48 0L44 0L44 1L43 1L43 0L42 0L42 1L43 1L43 2L41 2L41 3L40 3L40 2L39 2L39 4L38 4L38 5L37 5L37 3L38 3L38 1L40 1L40 0L36 0L36 1L35 1L35 0L34 0L34 1L32 1L32 0L27 0L27 1L26 1L26 0L25 0L25 3L26 3L26 4L27 4L27 5L25 5L25 4L24 4L24 5L25 5L25 6L24 6L24 7L23 7L23 3L24 3L24 2L23 2L23 3L21 3L21 1L23 1L23 0ZM27 1L27 4L31 4L31 3L32 3L32 4L33 4L33 7L34 7L34 6L35 6L35 8L37 8L37 7L38 7L38 6L37 6L37 5L35 5L35 4L34 4L34 3L37 3L37 2L33 2L33 3L32 3L32 1ZM44 1L44 2L46 2L46 3L47 3L47 4L48 4L48 5L49 5L49 4L50 4L50 3L49 3L49 2L48 2L48 3L47 3L47 2L46 2L46 1ZM29 2L29 3L31 3L31 2ZM48 3L48 4L49 4L49 3ZM51 3L51 4L52 4L52 3ZM27 5L27 8L25 8L25 7L26 7L26 6L25 6L25 7L24 7L24 8L23 8L23 7L22 7L22 6L21 6L21 7L22 7L22 8L23 8L23 9L21 9L21 10L22 10L22 11L23 11L23 12L24 12L24 13L26 13L26 15L25 15L25 14L23 14L23 16L22 16L22 17L23 17L23 16L24 16L24 15L25 15L25 16L28 16L28 15L29 15L29 14L30 14L30 15L31 15L31 16L30 16L30 17L29 17L29 18L28 18L28 17L27 17L27 18L26 18L26 17L25 17L25 19L24 19L24 18L22 18L22 20L21 20L21 21L22 21L22 23L21 23L21 24L24 24L24 25L26 25L26 26L25 26L25 27L24 27L24 26L23 26L23 27L20 27L20 28L19 28L19 29L18 29L18 28L17 28L17 27L18 27L18 26L17 26L17 24L18 24L18 23L17 23L17 22L15 22L15 20L12 20L12 19L11 19L11 20L10 20L10 18L9 18L9 21L5 21L5 20L4 20L4 19L2 19L2 20L1 20L1 21L2 21L2 20L3 20L3 23L4 23L4 24L2 24L2 22L1 22L1 25L3 25L3 26L5 26L5 27L3 27L3 28L2 28L2 26L1 26L1 28L2 28L2 29L3 29L3 30L4 30L4 28L8 28L8 26L9 26L9 24L7 24L7 23L6 23L6 22L9 22L9 23L10 23L10 26L11 26L11 24L12 24L12 23L11 23L11 22L10 22L10 21L14 21L14 22L15 22L15 23L14 23L14 24L13 24L13 25L15 25L15 24L16 24L16 27L15 27L15 26L14 26L14 28L13 28L13 26L12 26L12 27L9 27L9 30L10 30L10 31L9 31L9 33L8 33L8 34L7 34L7 33L5 33L5 34L4 34L4 33L2 33L2 34L4 34L4 36L5 36L5 34L7 34L7 35L6 35L6 36L7 36L7 35L8 35L8 36L9 36L9 35L8 35L8 34L10 34L10 32L12 32L12 33L11 33L11 35L10 35L10 38L9 38L9 37L8 37L8 38L7 38L7 37L6 37L6 38L7 38L7 39L6 39L6 40L7 40L7 41L9 41L9 43L10 43L10 45L11 45L11 44L12 44L12 46L10 46L10 47L11 47L11 49L12 49L12 50L13 50L13 49L12 49L12 48L13 48L13 47L14 47L14 48L15 48L15 47L16 47L16 48L17 48L17 49L18 49L18 50L16 50L16 52L15 52L15 53L16 53L16 52L17 52L17 53L18 53L18 52L17 52L17 51L19 51L19 49L21 49L21 46L22 46L22 47L23 47L23 46L24 46L24 47L26 47L26 48L23 48L23 49L22 49L22 50L23 50L23 49L26 49L26 50L27 50L27 49L26 49L26 48L29 48L29 50L28 50L28 51L29 51L29 52L32 52L32 51L31 51L31 49L30 49L30 47L27 47L27 42L25 42L25 44L24 44L24 45L22 45L22 43L21 43L21 46L19 46L19 45L17 45L17 44L18 44L18 42L17 42L17 43L16 43L16 42L15 42L15 41L14 41L14 40L15 40L15 39L16 39L16 38L18 38L18 39L17 39L17 41L19 41L19 43L20 43L20 42L23 42L23 43L24 43L24 41L25 41L25 40L24 40L24 41L23 41L23 38L22 38L22 39L21 39L21 40L22 40L22 41L19 41L19 40L20 40L20 39L19 39L19 37L18 37L18 36L20 36L20 37L22 37L22 36L23 36L23 37L26 37L26 38L27 38L27 37L26 37L26 34L27 34L27 33L28 33L28 34L29 34L29 36L28 36L28 35L27 35L27 36L28 36L28 38L29 38L29 40L27 40L27 41L30 41L30 42L29 42L29 43L28 43L28 44L29 44L29 45L28 45L28 46L31 46L31 45L32 45L32 47L31 47L31 48L32 48L32 49L33 49L33 48L34 48L34 50L33 50L33 51L35 51L35 52L33 52L33 54L34 54L34 55L33 55L33 56L34 56L34 57L35 57L35 58L34 58L34 59L33 59L33 60L34 60L34 59L35 59L35 58L37 58L37 57L40 57L40 58L38 58L38 59L40 59L40 60L42 60L42 59L44 59L44 58L45 58L45 56L46 56L46 57L47 57L47 59L48 59L48 60L49 60L49 59L51 59L51 58L50 58L50 57L51 57L51 56L50 56L50 55L51 55L51 54L52 54L52 53L50 53L50 54L49 54L49 53L48 53L48 52L50 52L50 48L51 48L51 46L52 46L52 49L51 49L51 50L53 50L53 49L54 49L54 50L56 50L56 49L57 49L57 48L58 48L58 49L59 49L59 48L58 48L58 47L57 47L57 46L56 46L56 47L54 47L54 46L53 46L53 45L54 45L54 44L55 44L55 43L54 43L54 41L53 41L53 40L52 40L52 41L53 41L53 42L52 42L52 43L53 43L53 44L52 44L52 45L51 45L51 46L50 46L50 45L47 45L47 46L49 46L49 47L47 47L47 48L49 48L49 49L46 49L46 48L45 48L45 49L46 49L46 50L45 50L45 51L44 51L44 52L43 52L43 53L44 53L44 54L45 54L45 55L44 55L44 56L43 56L43 54L42 54L42 55L41 55L41 56L43 56L43 57L44 57L44 58L42 58L42 59L40 59L40 58L41 58L41 57L40 57L40 56L38 56L38 55L39 55L39 54L41 54L41 53L42 53L42 51L43 51L43 50L44 50L44 45L45 45L45 47L46 47L46 44L48 44L48 43L49 43L49 42L48 42L48 40L51 40L51 39L53 39L53 38L55 38L55 37L57 37L57 38L58 38L58 39L59 39L59 36L58 36L58 35L60 35L60 34L59 34L59 31L58 31L58 34L57 34L57 35L56 35L56 34L55 34L55 35L54 35L54 34L53 34L53 33L51 33L51 34L49 34L49 33L48 33L48 32L52 32L52 30L51 30L51 28L50 28L50 27L49 27L49 28L50 28L50 29L48 29L48 27L47 27L47 25L48 25L48 24L49 24L49 23L48 23L48 22L49 22L49 21L48 21L48 20L49 20L49 19L48 19L48 18L49 18L49 17L48 17L48 18L46 18L46 17L44 17L44 18L42 18L42 17L43 17L43 16L45 16L45 14L44 14L44 15L43 15L43 14L42 14L42 12L41 12L41 11L40 11L40 9L39 9L39 10L37 10L37 9L36 9L36 10L35 10L35 11L36 11L36 12L35 12L35 13L34 13L34 11L33 11L33 13L32 13L32 15L31 15L31 14L30 14L30 13L28 13L28 12L27 12L27 13L26 13L26 10L27 10L27 8L28 8L28 5ZM29 5L29 8L32 8L32 5ZM40 5L40 6L39 6L39 8L40 8L40 6L41 6L41 5ZM9 6L9 7L10 7L10 6ZM13 6L13 7L14 7L14 6ZM30 6L30 7L31 7L31 6ZM36 6L36 7L37 7L37 6ZM44 6L44 7L45 7L45 6ZM6 8L6 9L7 9L7 8ZM33 8L33 9L32 9L32 10L34 10L34 8ZM60 8L60 9L61 9L61 8ZM17 9L17 10L15 10L15 11L18 11L18 12L16 12L16 19L17 19L17 20L16 20L16 21L17 21L17 20L19 20L19 19L17 19L17 16L18 16L18 15L19 15L19 16L20 16L20 19L21 19L21 16L20 16L20 15L19 15L19 13L22 13L22 12L21 12L21 11L19 11L19 10L18 10L18 9ZM23 9L23 11L25 11L25 9ZM28 9L28 10L30 10L30 11L29 11L29 12L30 12L30 11L31 11L31 12L32 12L32 11L31 11L31 10L30 10L30 9ZM44 10L44 11L45 11L45 10ZM57 10L57 12L58 12L58 11L59 11L59 10ZM39 11L39 12L38 12L38 15L37 15L37 12L36 12L36 13L35 13L35 14L36 14L36 15L37 15L37 16L36 16L36 17L34 17L34 16L35 16L35 15L34 15L34 13L33 13L33 15L34 15L34 16L33 16L33 17L32 17L32 18L30 18L30 19L29 19L29 20L28 20L28 22L26 22L26 23L25 23L25 21L26 21L26 20L27 20L27 19L28 19L28 18L27 18L27 19L25 19L25 20L24 20L24 19L23 19L23 20L22 20L22 21L23 21L23 22L24 22L24 24L26 24L26 25L28 25L28 24L29 24L29 26L30 26L30 27L28 27L28 26L26 26L26 27L27 27L27 28L25 28L25 29L24 29L24 27L23 27L23 31L22 31L22 32L23 32L23 33L22 33L22 34L21 34L21 30L22 30L22 29L21 29L21 30L20 30L20 32L17 32L17 31L19 31L19 30L17 30L17 28L15 28L15 31L14 31L14 30L13 30L13 28L12 28L12 29L11 29L11 28L10 28L10 30L13 30L13 31L14 31L14 32L13 32L13 34L14 34L14 33L15 33L15 32L16 32L16 34L17 34L17 35L16 35L16 36L15 36L15 37L14 37L14 36L12 36L12 35L11 35L11 36L12 36L12 37L11 37L11 39L7 39L7 40L9 40L9 41L10 41L10 43L12 43L12 44L13 44L13 45L14 45L14 47L15 47L15 46L16 46L16 47L17 47L17 48L18 48L18 49L19 49L19 48L20 48L20 47L19 47L19 46L18 46L18 47L17 47L17 45L16 45L16 44L15 44L15 42L14 42L14 41L13 41L13 40L12 40L12 39L13 39L13 37L14 37L14 39L15 39L15 38L16 38L16 36L18 36L18 33L20 33L20 34L19 34L19 35L21 35L21 36L22 36L22 34L24 34L24 35L25 35L25 33L24 33L24 32L23 32L23 31L24 31L24 30L25 30L25 29L26 29L26 30L28 30L28 33L33 33L33 34L34 34L34 35L33 35L33 37L32 37L32 36L31 36L31 35L32 35L32 34L30 34L30 37L31 37L31 38L30 38L30 39L31 39L31 40L30 40L30 41L31 41L31 40L33 40L33 41L32 41L32 42L30 42L30 45L31 45L31 43L32 43L32 44L34 44L34 46L33 46L33 47L34 47L34 48L35 48L35 45L37 45L37 46L39 46L39 47L40 47L40 45L42 45L42 46L43 46L43 45L44 45L44 44L43 44L43 43L42 43L42 42L44 42L44 43L45 43L45 44L46 44L46 43L48 43L48 42L47 42L47 39L46 39L46 38L45 38L45 39L46 39L46 40L44 40L44 37L46 37L46 36L45 36L45 34L46 34L46 35L47 35L47 36L48 36L48 37L47 37L47 38L49 38L49 39L51 39L51 37L52 37L52 35L51 35L51 36L50 36L50 35L49 35L49 36L48 36L48 34L47 34L47 33L46 33L46 32L45 32L45 34L44 34L44 33L42 33L42 32L43 32L43 31L45 31L45 30L43 30L43 29L42 29L42 28L43 28L43 27L44 27L44 25L46 25L46 24L45 24L45 22L44 22L44 20L43 20L43 19L42 19L42 18L41 18L41 19L40 19L40 18L39 18L39 19L38 19L38 18L37 18L37 16L38 16L38 17L40 17L40 15L41 15L41 17L42 17L42 14L40 14L40 13L41 13L41 12L40 12L40 11ZM3 12L3 13L2 13L2 14L3 14L3 15L4 15L4 17L3 17L3 18L4 18L4 17L5 17L5 15L4 15L4 14L3 14L3 13L4 13L4 12ZM18 12L18 13L19 13L19 12ZM52 12L52 14L53 14L53 15L54 15L54 16L55 16L55 18L54 18L54 19L55 19L55 18L56 18L56 16L57 16L57 14L56 14L56 15L55 15L55 14L53 14L53 12ZM14 13L14 14L13 14L13 16L14 16L14 17L12 17L12 18L13 18L13 19L15 19L15 15L14 15L14 14L15 14L15 13ZM17 14L17 15L18 15L18 14ZM27 14L27 15L28 15L28 14ZM60 14L60 15L61 15L61 14ZM6 15L6 16L7 16L7 15ZM38 15L38 16L39 16L39 15ZM6 17L6 18L7 18L7 19L6 19L6 20L7 20L7 19L8 19L8 18L7 18L7 17ZM18 17L18 18L19 18L19 17ZM50 17L50 19L53 19L53 18L51 18L51 17ZM57 17L57 18L58 18L58 17ZM34 18L34 19L31 19L31 20L29 20L29 24L30 24L30 25L31 25L31 24L32 24L32 23L31 23L31 24L30 24L30 22L33 22L33 24L34 24L34 25L32 25L32 27L31 27L31 28L33 28L33 29L34 29L34 27L35 27L35 29L36 29L36 30L34 30L34 31L33 31L33 33L34 33L34 32L37 32L37 29L38 29L38 31L39 31L39 30L41 30L41 32L42 32L42 31L43 31L43 30L41 30L41 28L42 28L42 27L43 27L43 26L42 26L42 25L43 25L43 24L44 24L44 22L43 22L43 23L42 23L42 24L41 24L41 21L40 21L40 19L39 19L39 22L38 22L38 20L37 20L37 19L36 19L36 18ZM44 18L44 19L46 19L46 18ZM34 19L34 21L33 21L33 20L31 20L31 21L33 21L33 22L34 22L34 24L36 24L36 25L38 25L38 26L37 26L37 28L36 28L36 29L37 29L37 28L38 28L38 29L40 29L40 27L41 27L41 24L39 24L39 23L40 23L40 22L39 22L39 23L37 23L37 20L35 20L35 19ZM41 19L41 20L42 20L42 21L43 21L43 20L42 20L42 19ZM45 20L45 21L46 21L46 23L47 23L47 24L48 24L48 23L47 23L47 21L46 21L46 20ZM19 21L19 23L20 23L20 21ZM35 21L35 22L36 22L36 21ZM50 22L50 23L51 23L51 22ZM54 22L54 23L55 23L55 22ZM5 23L5 24L4 24L4 25L5 25L5 24L6 24L6 25L7 25L7 26L6 26L6 27L7 27L7 26L8 26L8 25L7 25L7 24L6 24L6 23ZM26 23L26 24L28 24L28 23ZM36 23L36 24L37 24L37 23ZM57 24L57 26L58 26L58 27L59 27L59 28L60 28L60 27L59 27L59 25L60 25L60 24ZM19 25L19 26L21 26L21 25ZM39 25L39 26L40 26L40 25ZM35 26L35 27L36 27L36 26ZM45 26L45 27L46 27L46 28L44 28L44 29L46 29L46 30L47 30L47 32L48 32L48 31L50 31L50 30L47 30L47 27L46 27L46 26ZM27 28L27 29L28 29L28 28ZM5 29L5 32L8 32L8 29ZM29 29L29 32L32 32L32 29ZM53 29L53 32L56 32L56 29ZM6 30L6 31L7 31L7 30ZM16 30L16 31L17 31L17 30ZM30 30L30 31L31 31L31 30ZM54 30L54 31L55 31L55 30ZM25 31L25 32L27 32L27 31ZM36 33L36 34L35 34L35 37L34 37L34 39L33 39L33 40L35 40L35 42L34 42L34 41L33 41L33 42L32 42L32 43L33 43L33 42L34 42L34 44L37 44L37 45L39 45L39 42L42 42L42 41L43 41L43 40L42 40L42 38L41 38L41 37L39 37L39 36L42 36L42 37L43 37L43 36L42 36L42 35L43 35L43 34L42 34L42 35L41 35L41 33L39 33L39 34L38 34L38 35L37 35L37 33ZM39 34L39 35L40 35L40 34ZM53 35L53 37L55 37L55 36L56 36L56 35L55 35L55 36L54 36L54 35ZM0 36L0 38L1 38L1 36ZM36 36L36 37L38 37L38 39L39 39L39 37L38 37L38 36ZM57 36L57 37L58 37L58 36ZM49 37L49 38L50 38L50 37ZM31 38L31 39L32 39L32 38ZM36 38L36 39L37 39L37 38ZM2 39L2 40L1 40L1 41L2 41L2 40L4 40L4 39ZM36 40L36 43L37 43L37 44L38 44L38 41L40 41L40 40ZM41 40L41 41L42 41L42 40ZM12 41L12 42L13 42L13 44L14 44L14 45L15 45L15 44L14 44L14 42L13 42L13 41ZM44 41L44 42L45 42L45 43L46 43L46 42L45 42L45 41ZM50 41L50 43L51 43L51 41ZM59 42L59 44L60 44L60 45L61 45L61 42ZM2 43L2 44L3 44L3 43ZM4 43L4 45L2 45L2 46L3 46L3 47L4 47L4 45L5 45L5 46L7 46L7 45L8 45L8 44L7 44L7 43L6 43L6 44L7 44L7 45L5 45L5 43ZM41 43L41 44L42 44L42 45L43 45L43 44L42 44L42 43ZM24 45L24 46L25 46L25 45ZM12 46L12 47L13 47L13 46ZM36 47L36 49L35 49L35 51L37 51L37 52L35 52L35 53L34 53L34 54L37 54L37 55L38 55L38 54L37 54L37 53L40 53L40 52L38 52L38 51L39 51L39 49L41 49L41 50L40 50L40 51L41 51L41 50L43 50L43 48L42 48L42 47L41 47L41 48L37 48L37 47ZM0 48L0 50L1 50L1 48ZM54 48L54 49L55 49L55 48ZM6 49L6 50L7 50L7 49ZM14 49L14 50L15 50L15 49ZM37 49L37 51L38 51L38 49ZM29 50L29 51L30 51L30 50ZM48 50L48 51L49 51L49 50ZM3 51L3 52L4 52L4 51ZM46 51L46 52L44 52L44 53L46 53L46 54L47 54L47 55L46 55L46 56L47 56L47 57L48 57L48 59L49 59L49 57L50 57L50 56L47 56L47 55L49 55L49 54L48 54L48 53L47 53L47 51ZM52 51L52 52L56 52L56 51ZM57 51L57 52L58 52L58 51ZM6 52L6 53L7 53L7 52ZM10 52L10 53L11 53L11 52ZM24 52L24 53L25 53L25 54L26 54L26 53L25 53L25 52ZM27 52L27 53L28 53L28 52ZM29 53L29 56L32 56L32 53ZM53 53L53 56L56 56L56 53ZM30 54L30 55L31 55L31 54ZM54 54L54 55L55 55L55 54ZM57 54L57 55L58 55L58 56L57 56L57 57L56 57L56 58L55 58L55 60L56 60L56 58L58 58L58 57L59 57L59 58L60 58L60 57L59 57L59 56L60 56L60 54L59 54L59 55L58 55L58 54ZM21 55L21 56L20 56L20 58L18 58L18 59L21 59L21 58L23 58L23 57L22 57L22 55ZM8 56L8 58L9 58L9 56ZM11 56L11 57L12 57L12 56ZM35 56L35 57L37 57L37 56ZM31 57L31 58L30 58L30 59L31 59L31 58L32 58L32 57ZM24 58L24 59L25 59L25 58ZM8 59L8 61L9 61L9 59ZM10 59L10 60L11 60L11 59ZM15 59L15 60L16 60L16 59ZM36 59L36 60L37 60L37 59ZM45 59L45 60L46 60L46 59ZM0 0L0 7L7 7L7 0ZM1 1L1 6L6 6L6 1ZM2 2L2 5L5 5L5 2ZM54 0L54 7L61 7L61 0ZM55 1L55 6L60 6L60 1ZM56 2L56 5L59 5L59 2ZM0 54L0 61L7 61L7 54ZM1 55L1 60L6 60L6 55ZM2 56L2 59L5 59L5 56Z" fill="#000000"/></g></g></svg>
