<?xml version="1.0" encoding="UTF-8"?>
<svg xmlns="http://www.w3.org/2000/svg" version="1.1" width="300" height="300" viewBox="0 0 300 300"><rect x="0" y="0" width="300" height="300" fill="#ffffff"/><g transform="scale(4.918)"><g transform="translate(0,0)"><path fill-rule="evenodd" d="M9 0L9 1L8 1L8 2L9 2L9 1L10 1L10 3L8 3L8 4L9 4L9 5L8 5L8 7L9 7L9 8L6 8L6 9L7 9L7 10L6 10L6 11L5 11L5 13L8 13L8 14L6 14L6 15L5 15L5 16L3 16L3 14L1 14L1 15L0 15L0 17L1 17L1 20L0 20L0 21L2 21L2 18L3 18L3 21L4 21L4 22L0 22L0 27L4 27L4 28L3 28L3 29L4 29L4 30L3 30L3 31L1 31L1 29L2 29L2 28L1 28L1 29L0 29L0 32L4 32L4 33L5 33L5 34L6 34L6 35L7 35L7 36L5 36L5 35L4 35L4 34L3 34L3 35L4 35L4 36L2 36L2 35L1 35L1 34L2 34L2 33L0 33L0 36L2 36L2 37L3 37L3 38L2 38L2 39L0 39L0 40L4 40L4 39L5 39L5 37L7 37L7 38L6 38L6 39L7 39L7 40L5 40L5 41L4 41L4 42L2 42L2 41L1 41L1 44L0 44L0 45L1 45L1 47L0 47L0 49L1 49L1 47L2 47L2 48L3 48L3 49L2 49L2 51L0 51L0 53L4 53L4 52L5 52L5 51L7 51L7 50L8 50L8 49L9 49L9 51L8 51L8 52L6 52L6 53L8 53L8 55L9 55L9 53L10 53L10 55L11 55L11 56L12 56L12 57L10 57L10 56L8 56L8 61L10 61L10 60L9 60L9 59L11 59L11 58L14 58L14 57L18 57L18 58L17 58L17 59L18 59L18 58L19 58L19 59L20 59L20 58L19 58L19 57L20 57L20 56L19 56L19 57L18 57L18 56L14 56L14 57L13 57L13 55L12 55L12 54L13 54L13 50L16 50L16 49L15 49L15 48L16 48L16 47L15 47L15 48L14 48L14 45L12 45L12 46L13 46L13 47L12 47L12 51L11 51L11 49L10 49L10 47L11 47L11 45L10 45L10 46L9 46L9 48L8 48L8 44L10 44L10 43L12 43L12 42L13 42L13 43L14 43L14 44L15 44L15 45L19 45L19 44L20 44L20 45L21 45L21 43L23 43L23 44L24 44L24 43L25 43L25 41L26 41L26 42L27 42L27 43L26 43L26 44L29 44L29 43L28 43L28 42L27 42L27 41L26 41L26 39L25 39L25 37L26 37L26 38L27 38L27 40L30 40L30 41L32 41L32 42L30 42L30 43L31 43L31 44L30 44L30 45L28 45L28 46L27 46L27 45L22 45L22 47L21 47L21 48L20 48L20 46L18 46L18 47L19 47L19 48L17 48L17 49L19 49L19 48L20 48L20 49L21 49L21 50L17 50L17 52L16 52L16 51L14 51L14 53L17 53L17 55L18 55L18 53L19 53L19 54L20 54L20 55L21 55L21 56L25 56L25 57L23 57L23 58L24 58L24 59L21 59L21 60L20 60L20 61L21 61L21 60L24 60L24 59L25 59L25 58L26 58L26 60L27 60L27 61L28 61L28 60L29 60L29 59L28 59L28 58L31 58L31 57L32 57L32 58L33 58L33 59L32 59L32 60L31 60L31 59L30 59L30 60L31 60L31 61L32 61L32 60L33 60L33 61L38 61L38 60L39 60L39 61L40 61L40 60L41 60L41 61L42 61L42 60L45 60L45 61L46 61L46 59L47 59L47 58L49 58L49 56L50 56L50 55L52 55L52 56L51 56L51 57L52 57L52 58L50 58L50 59L48 59L48 60L47 60L47 61L49 61L49 60L50 60L50 61L52 61L52 60L53 60L53 61L54 61L54 60L55 60L55 58L57 58L57 59L56 59L56 61L61 61L61 54L60 54L60 55L59 55L59 56L58 56L58 58L57 58L57 52L56 52L56 51L55 51L55 50L56 50L56 49L57 49L57 51L61 51L61 50L60 50L60 47L61 47L61 46L60 46L60 45L61 45L61 42L60 42L60 41L61 41L61 40L60 40L60 41L59 41L59 40L56 40L56 41L55 41L55 40L53 40L53 39L56 39L56 38L55 38L55 36L53 36L53 35L56 35L56 33L58 33L58 34L57 34L57 36L56 36L56 37L57 37L57 39L59 39L59 38L60 38L60 39L61 39L61 38L60 38L60 37L59 37L59 36L60 36L60 35L61 35L61 34L60 34L60 35L59 35L59 36L58 36L58 34L59 34L59 32L58 32L58 30L57 30L57 29L59 29L59 28L60 28L60 29L61 29L61 26L60 26L60 25L59 25L59 24L58 24L58 25L57 25L57 26L58 26L58 27L59 27L59 28L57 28L57 27L56 27L56 24L57 24L57 23L59 23L59 22L58 22L58 21L59 21L59 20L58 20L58 19L57 19L57 18L55 18L55 17L53 17L53 16L52 16L52 15L53 15L53 14L55 14L55 13L56 13L56 14L59 14L59 15L61 15L61 14L60 14L60 13L59 13L59 12L60 12L60 11L61 11L61 10L60 10L60 11L59 11L59 10L58 10L58 8L57 8L57 9L56 9L56 8L55 8L55 9L54 9L54 8L52 8L52 7L53 7L53 6L52 6L52 7L51 7L51 5L52 5L52 4L53 4L53 0L51 0L51 2L50 2L50 3L48 3L48 4L49 4L49 6L48 6L48 7L47 7L47 5L46 5L46 4L47 4L47 3L46 3L46 2L49 2L49 1L50 1L50 0L48 0L48 1L46 1L46 0L44 0L44 1L43 1L43 0L41 0L41 1L43 1L43 2L42 2L42 4L39 4L39 5L38 5L38 7L37 7L37 4L38 4L38 3L41 3L41 2L39 2L39 1L40 1L40 0L39 0L39 1L38 1L38 2L37 2L37 0L36 0L36 2L37 2L37 3L36 3L36 4L35 4L35 5L33 5L33 3L34 3L34 2L35 2L35 1L33 1L33 0L32 0L32 1L31 1L31 0L30 0L30 1L31 1L31 2L30 2L30 3L29 3L29 2L28 2L28 1L27 1L27 0L26 0L26 1L25 1L25 0L24 0L24 1L22 1L22 0L21 0L21 1L22 1L22 2L19 2L19 1L18 1L18 2L19 2L19 3L17 3L17 0L16 0L16 1L15 1L15 2L16 2L16 3L15 3L15 4L14 4L14 3L13 3L13 4L14 4L14 5L15 5L15 4L17 4L17 5L16 5L16 7L15 7L15 6L14 6L14 8L15 8L15 9L13 9L13 8L12 8L12 7L13 7L13 6L12 6L12 7L11 7L11 6L10 6L10 5L11 5L11 4L12 4L12 2L11 2L11 1L13 1L13 2L14 2L14 1L13 1L13 0ZM32 1L32 3L33 3L33 1ZM24 2L24 4L25 4L25 7L26 7L26 9L25 9L25 8L24 8L24 6L23 6L23 8L22 8L22 9L23 9L23 10L22 10L22 11L23 11L23 12L21 12L21 13L20 13L20 12L19 12L19 13L16 13L16 12L17 12L17 11L20 11L20 10L17 10L17 9L18 9L18 8L17 8L17 7L18 7L18 5L17 5L17 7L16 7L16 8L17 8L17 9L16 9L16 11L14 11L14 10L13 10L13 9L12 9L12 8L11 8L11 7L10 7L10 6L9 6L9 7L10 7L10 10L9 10L9 9L8 9L8 10L9 10L9 12L8 12L8 11L6 11L6 12L8 12L8 13L9 13L9 14L10 14L10 15L9 15L9 17L11 17L11 15L12 15L12 16L13 16L13 17L12 17L12 18L11 18L11 19L13 19L13 20L12 20L12 21L11 21L11 22L10 22L10 25L9 25L9 24L8 24L8 23L9 23L9 21L10 21L10 20L8 20L8 22L7 22L7 21L6 21L6 22L5 22L5 23L3 23L3 24L8 24L8 25L6 25L6 26L8 26L8 27L5 27L5 28L9 28L9 31L11 31L11 32L10 32L10 33L9 33L9 35L10 35L10 38L11 38L11 37L12 37L12 36L13 36L13 35L11 35L11 34L13 34L13 33L11 33L11 32L14 32L14 33L15 33L15 34L14 34L14 35L15 35L15 36L14 36L14 37L13 37L13 38L12 38L12 39L14 39L14 40L12 40L12 41L13 41L13 42L14 42L14 43L15 43L15 42L17 42L17 41L18 41L18 40L17 40L17 41L14 41L14 40L15 40L15 39L18 39L18 38L19 38L19 39L20 39L20 38L21 38L21 37L20 37L20 36L21 36L21 35L20 35L20 34L22 34L22 35L23 35L23 36L22 36L22 37L23 37L23 36L24 36L24 35L25 35L25 36L26 36L26 37L27 37L27 38L28 38L28 39L29 39L29 38L31 38L31 39L32 39L32 41L33 41L33 39L34 39L34 38L35 38L35 40L37 40L37 39L36 39L36 38L35 38L35 36L37 36L37 37L38 37L38 38L39 38L39 37L38 37L38 36L39 36L39 35L35 35L35 36L33 36L33 35L34 35L34 34L36 34L36 33L27 33L27 32L26 32L26 31L28 31L28 30L26 30L26 29L28 29L28 28L29 28L29 27L26 27L26 28L21 28L21 25L23 25L23 26L22 26L22 27L23 27L23 26L24 26L24 25L25 25L25 26L26 26L26 25L27 25L27 24L30 24L30 25L28 25L28 26L30 26L30 25L31 25L31 24L30 24L30 23L31 23L31 22L32 22L32 25L33 25L33 22L35 22L35 23L34 23L34 24L38 24L38 26L37 26L37 25L34 25L34 26L31 26L31 28L32 28L32 27L34 27L34 26L36 26L36 27L35 27L35 28L38 28L38 30L39 30L39 27L40 27L40 26L41 26L41 28L40 28L40 31L37 31L37 29L33 29L33 31L34 31L34 32L37 32L37 33L38 33L38 34L39 34L39 33L38 33L38 32L40 32L40 33L42 33L42 32L44 32L44 35L46 35L46 34L47 34L47 36L42 36L42 35L43 35L43 34L40 34L40 35L41 35L41 36L40 36L40 37L41 37L41 36L42 36L42 37L43 37L43 39L46 39L46 38L49 38L49 37L48 37L48 36L50 36L50 38L51 38L51 40L50 40L50 39L47 39L47 40L50 40L50 42L49 42L49 41L48 41L48 43L45 43L45 42L47 42L47 41L45 41L45 40L44 40L44 43L45 43L45 44L42 44L42 43L43 43L43 42L40 42L40 43L38 43L38 44L37 44L37 43L35 43L35 44L37 44L37 45L36 45L36 47L32 47L32 46L31 46L31 45L30 45L30 46L28 46L28 47L27 47L27 46L26 46L26 49L25 49L25 48L24 48L24 47L25 47L25 46L23 46L23 49L22 49L22 48L21 48L21 49L22 49L22 50L21 50L21 51L18 51L18 52L19 52L19 53L20 53L20 54L21 54L21 53L20 53L20 52L21 52L21 51L22 51L22 53L23 53L23 52L24 52L24 53L25 53L25 55L26 55L26 57L27 57L27 58L28 58L28 57L27 57L27 55L28 55L28 54L27 54L27 55L26 55L26 53L27 53L27 51L26 51L26 49L27 49L27 50L28 50L28 47L30 47L30 48L32 48L32 50L33 50L33 48L34 48L34 50L35 50L35 48L37 48L37 49L36 49L36 51L31 51L31 52L34 52L34 53L33 53L33 54L36 54L36 55L34 55L34 56L37 56L37 55L38 55L38 59L36 59L36 58L37 58L37 57L33 57L33 58L35 58L35 59L34 59L34 60L38 60L38 59L39 59L39 60L40 60L40 59L41 59L41 60L42 60L42 59L45 59L45 58L47 58L47 56L49 56L49 55L50 55L50 54L51 54L51 53L50 53L50 52L52 52L52 51L53 51L53 52L55 52L55 51L53 51L53 49L54 49L54 48L55 48L55 49L56 49L56 48L57 48L57 49L58 49L58 50L59 50L59 49L58 49L58 48L59 48L59 47L58 47L58 48L57 48L57 47L54 47L54 48L53 48L53 49L52 49L52 50L51 50L51 48L52 48L52 47L51 47L51 46L53 46L53 45L54 45L54 44L55 44L55 45L56 45L56 46L57 46L57 45L56 45L56 44L59 44L59 45L58 45L58 46L59 46L59 45L60 45L60 44L59 44L59 43L60 43L60 42L59 42L59 41L56 41L56 44L55 44L55 43L54 43L54 42L55 42L55 41L53 41L53 40L52 40L52 38L54 38L54 37L52 37L52 38L51 38L51 36L52 36L52 35L53 35L53 34L54 34L54 33L52 33L52 32L51 32L51 30L52 30L52 29L50 29L50 28L53 28L53 27L54 27L54 28L55 28L55 26L53 26L53 25L55 25L55 24L53 24L53 25L50 25L50 26L49 26L49 25L48 25L48 24L49 24L49 23L50 23L50 22L51 22L51 23L52 23L52 22L53 22L53 23L55 23L55 22L53 22L53 21L52 21L52 22L51 22L51 20L52 20L52 18L53 18L53 20L56 20L56 21L57 21L57 20L56 20L56 19L55 19L55 18L53 18L53 17L50 17L50 16L49 16L49 15L50 15L50 14L51 14L51 12L49 12L49 11L48 11L48 10L49 10L49 9L50 9L50 11L53 11L53 12L54 12L54 11L55 11L55 12L56 12L56 13L58 13L58 12L59 12L59 11L57 11L57 10L56 10L56 9L55 9L55 10L54 10L54 11L53 11L53 9L50 9L50 8L49 8L49 7L50 7L50 6L49 6L49 7L48 7L48 8L47 8L47 9L46 9L46 10L47 10L47 11L46 11L46 12L47 12L47 13L46 13L46 14L45 14L45 12L44 12L44 11L45 11L45 10L44 10L44 9L45 9L45 8L43 8L43 7L44 7L44 6L45 6L45 7L46 7L46 5L43 5L43 7L42 7L42 5L40 5L40 6L39 6L39 7L40 7L40 6L41 6L41 8L37 8L37 7L36 7L36 6L35 6L35 8L34 8L34 6L33 6L33 9L34 9L34 10L35 10L35 8L37 8L37 9L36 9L36 11L34 11L34 12L37 12L37 13L34 13L34 14L33 14L33 13L32 13L32 11L33 11L33 10L32 10L32 9L31 9L31 12L29 12L29 11L30 11L30 10L29 10L29 11L27 11L27 12L26 12L26 13L25 13L25 12L24 12L24 11L25 11L25 10L26 10L26 9L27 9L27 10L28 10L28 8L27 8L27 7L28 7L28 6L27 6L27 5L28 5L28 4L27 4L27 3L28 3L28 2ZM10 3L10 4L11 4L11 3ZM19 3L19 4L20 4L20 5L19 5L19 7L20 7L20 8L19 8L19 9L21 9L21 7L22 7L22 6L21 6L21 4L23 4L23 3L21 3L21 4L20 4L20 3ZM30 3L30 4L31 4L31 3ZM43 3L43 4L45 4L45 3ZM51 3L51 4L52 4L52 3ZM26 4L26 5L27 5L27 4ZM29 5L29 8L32 8L32 5ZM20 6L20 7L21 7L21 6ZM26 6L26 7L27 7L27 6ZM30 6L30 7L31 7L31 6ZM0 8L0 12L1 12L1 13L4 13L4 12L3 12L3 11L2 11L2 12L1 12L1 9L2 9L2 10L3 10L3 9L5 9L5 8ZM23 8L23 9L24 9L24 10L25 10L25 9L24 9L24 8ZM48 8L48 9L49 9L49 8ZM59 8L59 9L60 9L60 8ZM37 9L37 10L38 10L38 11L37 11L37 12L38 12L38 13L37 13L37 14L38 14L38 15L37 15L37 16L36 16L36 14L34 14L34 15L32 15L32 14L31 14L31 13L30 13L30 14L31 14L31 15L29 15L29 14L27 14L27 13L26 13L26 15L25 15L25 13L22 13L22 15L21 15L21 14L20 14L20 17L21 17L21 18L22 18L22 17L23 17L23 20L24 20L24 19L25 19L25 17L26 17L26 18L27 18L27 19L26 19L26 20L25 20L25 21L22 21L22 20L21 20L21 19L20 19L20 18L19 18L19 20L16 20L16 19L15 19L15 18L16 18L16 17L15 17L15 18L14 18L14 17L13 17L13 19L15 19L15 21L14 21L14 20L13 20L13 21L12 21L12 22L11 22L11 24L12 24L12 22L13 22L13 23L16 23L16 25L18 25L18 26L17 26L17 28L14 28L14 29L13 29L13 31L14 31L14 30L15 30L15 31L16 31L16 32L15 32L15 33L16 33L16 34L15 34L15 35L16 35L16 36L15 36L15 37L14 37L14 38L15 38L15 37L19 37L19 38L20 38L20 37L19 37L19 35L17 35L17 34L18 34L18 33L19 33L19 34L20 34L20 33L22 33L22 32L19 32L19 30L17 30L17 31L16 31L16 30L15 30L15 29L21 29L21 30L20 30L20 31L22 31L22 30L23 30L23 31L24 31L24 30L25 30L25 29L21 29L21 28L18 28L18 26L19 26L19 27L20 27L20 26L19 26L19 25L20 25L20 24L19 24L19 25L18 25L18 24L17 24L17 23L18 23L18 22L15 22L15 21L19 21L19 23L20 23L20 21L21 21L21 24L24 24L24 22L25 22L25 23L29 23L29 22L28 22L28 21L30 21L30 20L31 20L31 21L32 21L32 22L33 22L33 21L34 21L34 20L35 20L35 22L36 22L36 23L37 23L37 22L36 22L36 21L37 21L37 20L39 20L39 22L38 22L38 24L39 24L39 26L38 26L38 27L39 27L39 26L40 26L40 24L41 24L41 25L42 25L42 26L43 26L43 25L42 25L42 24L41 24L41 22L42 22L42 23L43 23L43 22L44 22L44 21L41 21L41 22L40 22L40 20L45 20L45 22L46 22L46 23L44 23L44 24L45 24L45 25L44 25L44 26L45 26L45 25L47 25L47 24L46 24L46 23L47 23L47 22L46 22L46 19L47 19L47 20L48 20L48 21L49 21L49 22L48 22L48 23L49 23L49 22L50 22L50 21L49 21L49 20L50 20L50 19L51 19L51 18L50 18L50 17L49 17L49 16L48 16L48 15L47 15L47 14L46 14L46 16L45 16L45 15L44 15L44 16L43 16L43 15L42 15L42 14L43 14L43 11L42 11L42 10L43 10L43 9L39 9L39 10L38 10L38 9ZM10 10L10 11L11 11L11 10ZM40 10L40 11L39 11L39 13L38 13L38 14L39 14L39 13L41 13L41 14L40 14L40 15L39 15L39 16L37 16L37 19L35 19L35 20L37 20L37 19L38 19L38 18L39 18L39 16L40 16L40 17L41 17L41 16L42 16L42 17L43 17L43 16L42 16L42 15L41 15L41 14L42 14L42 12L40 12L40 11L41 11L41 10ZM12 11L12 12L13 12L13 13L14 13L14 14L15 14L15 13L14 13L14 12L13 12L13 11ZM56 11L56 12L57 12L57 11ZM28 12L28 13L29 13L29 12ZM48 12L48 13L49 13L49 12ZM52 13L52 14L53 14L53 13ZM12 14L12 15L13 15L13 16L14 16L14 15L13 15L13 14ZM18 14L18 15L19 15L19 14ZM1 15L1 17L2 17L2 15ZM6 15L6 16L5 16L5 20L4 20L4 21L5 21L5 20L7 20L7 19L8 19L8 18L7 18L7 17L6 17L6 16L8 16L8 15ZM15 15L15 16L17 16L17 18L18 18L18 17L19 17L19 16L17 16L17 15ZM23 15L23 16L24 16L24 17L25 17L25 16L24 16L24 15ZM26 15L26 17L27 17L27 15ZM28 15L28 16L29 16L29 15ZM31 15L31 16L30 16L30 19L31 19L31 20L32 20L32 21L33 21L33 20L34 20L34 18L35 18L35 15L34 15L34 16L32 16L32 15ZM40 15L40 16L41 16L41 15ZM54 15L54 16L55 16L55 15ZM56 15L56 16L57 16L57 17L58 17L58 18L59 18L59 19L61 19L61 18L59 18L59 16L57 16L57 15ZM21 16L21 17L22 17L22 16ZM44 16L44 18L41 18L41 19L44 19L44 18L45 18L45 16ZM46 16L46 18L47 18L47 19L48 19L48 20L49 20L49 19L50 19L50 18L49 18L49 17L48 17L48 16ZM60 16L60 17L61 17L61 16ZM3 17L3 18L4 18L4 17ZM28 17L28 18L29 18L29 17ZM32 17L32 18L33 18L33 17ZM6 18L6 19L7 19L7 18ZM48 18L48 19L49 19L49 18ZM27 19L27 20L26 20L26 21L25 21L25 22L26 22L26 21L27 21L27 20L29 20L29 19ZM60 20L60 21L61 21L61 20ZM13 21L13 22L14 22L14 21ZM6 22L6 23L7 23L7 22ZM22 22L22 23L23 23L23 22ZM39 22L39 23L40 23L40 22ZM56 22L56 23L57 23L57 22ZM60 22L60 23L61 23L61 22ZM1 24L1 25L2 25L2 24ZM13 24L13 25L14 25L14 26L15 26L15 25L14 25L14 24ZM25 24L25 25L26 25L26 24ZM11 25L11 27L12 27L12 28L10 28L10 27L9 27L9 28L10 28L10 29L12 29L12 28L13 28L13 26L12 26L12 25ZM58 25L58 26L59 26L59 25ZM47 26L47 28L46 28L46 27L42 27L42 28L41 28L41 29L42 29L42 30L41 30L41 31L40 31L40 32L41 32L41 31L42 31L42 30L43 30L43 28L45 28L45 30L46 30L46 31L44 31L44 32L45 32L45 33L47 33L47 32L48 32L48 33L49 33L49 35L52 35L52 34L50 34L50 32L48 32L48 31L49 31L49 30L50 30L50 29L49 29L49 28L48 28L48 26ZM50 26L50 27L52 27L52 26ZM47 28L47 29L46 29L46 30L47 30L47 31L46 31L46 32L47 32L47 31L48 31L48 30L49 30L49 29L48 29L48 28ZM5 29L5 32L8 32L8 29ZM29 29L29 32L32 32L32 29ZM53 29L53 32L56 32L56 29ZM6 30L6 31L7 31L7 30ZM30 30L30 31L31 31L31 30ZM34 30L34 31L36 31L36 30ZM54 30L54 31L55 31L55 30ZM60 30L60 31L61 31L61 30ZM17 31L17 32L16 32L16 33L17 33L17 32L18 32L18 31ZM23 32L23 34L25 34L25 35L28 35L28 34L27 34L27 33L26 33L26 32L25 32L25 33L24 33L24 32ZM60 32L60 33L61 33L61 32ZM6 33L6 34L7 34L7 35L8 35L8 33ZM10 33L10 34L11 34L11 33ZM25 33L25 34L26 34L26 33ZM30 34L30 35L29 35L29 37L31 37L31 36L30 36L30 35L31 35L31 34ZM32 34L32 35L33 35L33 34ZM7 36L7 37L8 37L8 38L7 38L7 39L8 39L8 38L9 38L9 37L8 37L8 36ZM27 36L27 37L28 37L28 36ZM32 36L32 39L33 39L33 36ZM0 37L0 38L1 38L1 37ZM44 37L44 38L46 38L46 37ZM58 37L58 38L59 38L59 37ZM22 38L22 39L21 39L21 40L19 40L19 41L21 41L21 42L22 42L22 41L25 41L25 40L22 40L22 39L23 39L23 38ZM40 38L40 39L41 39L41 40L40 40L40 41L43 41L43 40L42 40L42 38ZM9 39L9 41L10 41L10 42L8 42L8 43L10 43L10 42L11 42L11 41L10 41L10 40L11 40L11 39ZM38 39L38 42L39 42L39 39ZM21 40L21 41L22 41L22 40ZM51 40L51 41L52 41L52 40ZM5 41L5 42L4 42L4 43L6 43L6 44L7 44L7 43L6 43L6 42L7 42L7 41ZM34 41L34 42L35 42L35 41ZM18 42L18 43L17 43L17 44L19 44L19 43L20 43L20 42ZM23 42L23 43L24 43L24 42ZM50 42L50 43L51 43L51 42ZM52 42L52 44L48 44L48 45L47 45L47 44L45 44L45 47L44 47L44 45L42 45L42 46L41 46L41 47L39 47L39 46L40 46L40 44L41 44L41 43L40 43L40 44L39 44L39 46L38 46L38 45L37 45L37 46L38 46L38 47L39 47L39 50L38 50L38 49L37 49L37 51L39 51L39 53L40 53L40 52L46 52L46 51L47 51L47 50L46 50L46 51L44 51L44 50L45 50L45 49L44 49L44 48L45 48L45 47L47 47L47 48L48 48L48 49L49 49L49 50L48 50L48 51L49 51L49 50L50 50L50 51L51 51L51 50L50 50L50 49L49 49L49 48L50 48L50 47L49 47L49 48L48 48L48 47L47 47L47 46L50 46L50 45L53 45L53 42ZM2 43L2 44L1 44L1 45L3 45L3 46L4 46L4 47L3 47L3 48L4 48L4 49L3 49L3 50L4 50L4 49L5 49L5 50L7 50L7 49L5 49L5 48L7 48L7 47L6 47L6 46L7 46L7 45L5 45L5 44L3 44L3 43ZM32 43L32 44L33 44L33 45L34 45L34 46L35 46L35 45L34 45L34 44L33 44L33 43ZM4 45L4 46L5 46L5 45ZM46 45L46 46L47 46L47 45ZM42 46L42 49L43 49L43 46ZM4 47L4 48L5 48L5 47ZM40 48L40 50L39 50L39 51L41 51L41 48ZM24 49L24 50L22 50L22 51L24 51L24 52L25 52L25 53L26 53L26 51L24 51L24 50L25 50L25 49ZM29 49L29 50L31 50L31 49ZM42 50L42 51L43 51L43 50ZM3 51L3 52L4 52L4 51ZM9 51L9 52L10 52L10 53L11 53L11 54L12 54L12 53L11 53L11 51ZM28 51L28 52L29 52L29 51ZM35 52L35 53L36 53L36 54L38 54L38 55L39 55L39 59L40 59L40 58L45 58L45 57L44 57L44 56L47 56L47 54L50 54L50 53L49 53L49 52L47 52L47 54L46 54L46 53L44 53L44 54L46 54L46 55L44 55L44 56L41 56L41 55L40 55L40 54L38 54L38 53L37 53L37 52ZM58 52L58 53L59 53L59 52ZM29 53L29 56L32 56L32 53ZM41 53L41 54L42 54L42 55L43 55L43 53ZM53 53L53 56L56 56L56 53ZM22 54L22 55L23 55L23 54ZM30 54L30 55L31 55L31 54ZM54 54L54 55L55 55L55 54ZM40 56L40 57L41 57L41 56ZM9 57L9 58L10 58L10 57ZM21 57L21 58L22 58L22 57ZM59 57L59 59L57 59L57 60L60 60L60 57ZM52 58L52 59L53 59L53 58ZM15 59L15 61L19 61L19 60L16 60L16 59ZM11 60L11 61L13 61L13 60ZM0 0L0 7L7 7L7 0ZM1 1L1 6L6 6L6 1ZM2 2L2 5L5 5L5 2ZM54 0L54 7L61 7L61 0ZM55 1L55 6L60 6L60 1ZM56 2L56 5L59 5L59 2ZM0 54L0 61L7 61L7 54ZM1 55L1 60L6 60L6 55ZM2 56L2 59L5 59L5 56Z" fill="#000000"/></g></g></svg>
