<?xml version="1.0" encoding="UTF-8"?>
<svg xmlns="http://www.w3.org/2000/svg" version="1.1" width="300" height="300" viewBox="0 0 300 300"><rect x="0" y="0" width="300" height="300" fill="#ffffff"/><g transform="scale(4.918)"><g transform="translate(0,0)"><path fill-rule="evenodd" d="M9 0L9 1L8 1L8 2L9 2L9 1L10 1L10 5L11 5L11 3L12 3L12 2L11 2L11 1L12 1L12 0ZM13 0L13 2L14 2L14 0ZM15 0L15 1L16 1L16 0ZM21 0L21 1L22 1L22 2L19 2L19 1L18 1L18 2L19 2L19 3L16 3L16 2L15 2L15 4L14 4L14 3L13 3L13 4L12 4L12 5L13 5L13 4L14 4L14 5L16 5L16 4L19 4L19 5L20 5L20 4L21 4L21 6L20 6L20 7L19 7L19 6L18 6L18 5L17 5L17 6L16 6L16 8L15 8L15 6L14 6L14 8L15 8L15 9L12 9L12 10L9 10L9 8L6 8L6 9L5 9L5 8L0 8L0 15L2 15L2 17L0 17L0 18L1 18L1 20L0 20L0 21L2 21L2 20L5 20L5 21L3 21L3 24L4 24L4 23L5 23L5 25L7 25L7 26L5 26L5 28L4 28L4 29L3 29L3 30L2 30L2 31L3 31L3 32L4 32L4 33L5 33L5 34L6 34L6 35L3 35L3 33L2 33L2 32L1 32L1 31L0 31L0 34L1 34L1 35L2 35L2 37L3 37L3 36L6 36L6 37L7 37L7 38L6 38L6 39L8 39L8 41L9 41L9 40L10 40L10 43L11 43L11 44L9 44L9 43L8 43L8 44L5 44L5 42L6 42L6 43L7 43L7 42L6 42L6 41L7 41L7 40L6 40L6 41L5 41L5 42L4 42L4 44L3 44L3 43L0 43L0 45L1 45L1 46L0 46L0 48L1 48L1 49L0 49L0 50L2 50L2 51L0 51L0 53L4 53L4 52L5 52L5 51L7 51L7 50L8 50L8 52L6 52L6 53L8 53L8 55L9 55L9 56L8 56L8 61L9 61L9 59L12 59L12 60L11 60L11 61L19 61L19 60L20 60L20 61L21 61L21 60L24 60L24 59L25 59L25 57L27 57L27 58L26 58L26 60L27 60L27 61L28 61L28 60L29 60L29 59L30 59L30 60L31 60L31 61L32 61L32 60L33 60L33 61L37 61L37 60L38 60L38 59L40 59L40 60L39 60L39 61L40 61L40 60L41 60L41 61L42 61L42 60L43 60L43 61L44 61L44 60L43 60L43 59L42 59L42 60L41 60L41 58L45 58L45 59L47 59L47 58L49 58L49 56L50 56L50 55L52 55L52 56L51 56L51 57L52 57L52 58L53 58L53 61L54 61L54 60L55 60L55 58L57 58L57 59L56 59L56 61L61 61L61 54L60 54L60 55L59 55L59 56L58 56L58 58L57 58L57 53L59 53L59 52L58 52L58 51L61 51L61 50L60 50L60 49L61 49L61 48L60 48L60 49L59 49L59 48L58 48L58 47L61 47L61 46L60 46L60 45L61 45L61 42L60 42L60 43L59 43L59 44L56 44L56 41L59 41L59 40L56 40L56 38L55 38L55 36L53 36L53 35L55 35L55 34L56 34L56 37L57 37L57 39L59 39L59 38L60 38L60 39L61 39L61 38L60 38L60 37L59 37L59 36L60 36L60 35L61 35L61 34L60 34L60 35L59 35L59 36L57 36L57 34L59 34L59 33L61 33L61 30L59 30L59 31L60 31L60 32L58 32L58 30L57 30L57 29L59 29L59 28L57 28L57 27L56 27L56 24L57 24L57 23L59 23L59 22L58 22L58 21L59 21L59 20L57 20L57 19L61 19L61 18L58 18L58 17L59 17L59 16L60 16L60 17L61 17L61 14L60 14L60 13L59 13L59 12L60 12L60 11L61 11L61 10L60 10L60 11L59 11L59 10L58 10L58 8L57 8L57 9L56 9L56 8L55 8L55 9L54 9L54 8L51 8L51 5L52 5L52 4L53 4L53 0L51 0L51 2L50 2L50 4L49 4L49 3L48 3L48 7L47 7L47 5L46 5L46 4L47 4L47 3L46 3L46 2L49 2L49 1L50 1L50 0L49 0L49 1L46 1L46 0L44 0L44 1L45 1L45 2L42 2L42 3L45 3L45 4L39 4L39 5L38 5L38 7L37 7L37 4L38 4L38 3L41 3L41 2L39 2L39 1L40 1L40 0L39 0L39 1L38 1L38 2L37 2L37 3L36 3L36 4L35 4L35 3L34 3L34 2L35 2L35 1L34 1L34 0L32 0L32 1L31 1L31 0L30 0L30 1L31 1L31 2L30 2L30 3L29 3L29 2L28 2L28 1L27 1L27 0L26 0L26 1L25 1L25 2L28 2L28 3L27 3L27 4L26 4L26 5L25 5L25 4L24 4L24 2L23 2L23 1L24 1L24 0L23 0L23 1L22 1L22 0ZM42 0L42 1L43 1L43 0ZM32 1L32 3L33 3L33 1ZM8 3L8 4L9 4L9 3ZM19 3L19 4L20 4L20 3ZM21 3L21 4L23 4L23 3ZM30 3L30 4L31 4L31 3ZM51 3L51 4L52 4L52 3ZM27 4L27 5L28 5L28 4ZM33 4L33 9L34 9L34 10L35 10L35 8L37 8L37 9L36 9L36 11L34 11L34 12L35 12L35 13L34 13L34 14L32 14L32 13L33 13L33 10L32 10L32 9L30 9L30 10L29 10L29 11L28 11L28 8L27 8L27 7L28 7L28 6L27 6L27 7L26 7L26 6L25 6L25 7L26 7L26 8L24 8L24 6L23 6L23 8L22 8L22 9L23 9L23 10L22 10L22 11L23 11L23 12L21 12L21 7L22 7L22 6L21 6L21 7L20 7L20 9L19 9L19 7L18 7L18 6L17 6L17 8L18 8L18 9L16 9L16 11L13 11L13 10L12 10L12 11L11 11L11 12L12 12L12 13L13 13L13 14L12 14L12 15L10 15L10 17L11 17L11 18L10 18L10 20L9 20L9 18L8 18L8 17L9 17L9 16L8 16L8 13L6 13L6 14L7 14L7 15L6 15L6 16L5 16L5 14L2 14L2 15L3 15L3 17L5 17L5 20L7 20L7 19L6 19L6 18L8 18L8 21L10 21L10 23L11 23L11 21L10 21L10 20L11 20L11 18L12 18L12 19L13 19L13 20L15 20L15 22L17 22L17 23L16 23L16 24L15 24L15 23L14 23L14 26L13 26L13 27L15 27L15 28L12 28L12 29L10 29L10 28L11 28L11 26L12 26L12 25L13 25L13 21L12 21L12 25L11 25L11 26L10 26L10 25L8 25L8 24L9 24L9 22L8 22L8 23L6 23L6 22L7 22L7 21L6 21L6 22L5 22L5 23L6 23L6 24L7 24L7 25L8 25L8 26L7 26L7 27L6 27L6 28L7 28L7 27L8 27L8 28L9 28L9 31L10 31L10 32L9 32L9 34L10 34L10 33L11 33L11 34L12 34L12 36L10 36L10 35L6 35L6 36L7 36L7 37L8 37L8 38L9 38L9 39L11 39L11 42L18 42L18 43L17 43L17 44L19 44L19 45L13 45L13 44L15 44L15 43L13 43L13 44L11 44L11 45L13 45L13 46L10 46L10 45L9 45L9 46L8 46L8 45L5 45L5 44L4 44L4 45L5 45L5 46L4 46L4 47L3 47L3 48L7 48L7 49L5 49L5 50L7 50L7 49L8 49L8 48L9 48L9 51L12 51L12 50L14 50L14 49L15 49L15 50L16 50L16 49L17 49L17 51L18 51L18 52L19 52L19 53L16 53L16 51L14 51L14 54L12 54L12 55L11 55L11 57L12 57L12 55L14 55L14 57L13 57L13 58L14 58L14 57L15 57L15 59L13 59L13 60L15 60L15 59L16 59L16 60L19 60L19 59L20 59L20 58L18 58L18 59L17 59L17 57L18 57L18 56L17 56L17 55L18 55L18 54L19 54L19 57L21 57L21 59L24 59L24 58L22 58L22 57L25 57L25 56L26 56L26 55L25 55L25 56L23 56L23 54L22 54L22 55L20 55L20 54L21 54L21 53L20 53L20 51L22 51L22 53L23 53L23 52L24 52L24 53L25 53L25 54L26 54L26 53L28 53L28 51L26 51L26 49L27 49L27 50L28 50L28 49L27 49L27 48L30 48L30 47L32 47L32 50L35 50L35 52L37 52L37 53L38 53L38 54L36 54L36 53L33 53L33 54L36 54L36 55L34 55L34 56L38 56L38 58L41 58L41 56L44 56L44 57L45 57L45 58L47 58L47 56L49 56L49 55L46 55L46 54L47 54L47 53L48 53L48 52L49 52L49 54L51 54L51 53L50 53L50 52L52 52L52 51L53 51L53 52L57 52L57 51L56 51L56 50L59 50L59 49L58 49L58 48L57 48L57 47L54 47L54 48L53 48L53 49L52 49L52 50L51 50L51 48L52 48L52 47L51 47L51 46L53 46L53 45L54 45L54 44L55 44L55 45L56 45L56 46L57 46L57 45L56 45L56 44L55 44L55 43L53 43L53 45L50 45L50 46L47 46L47 45L48 45L48 44L52 44L52 43L50 43L50 42L54 42L54 41L53 41L53 40L55 40L55 41L56 41L56 40L55 40L55 39L53 39L53 38L54 38L54 37L52 37L52 38L51 38L51 37L50 37L50 35L49 35L49 33L48 33L48 32L50 32L50 34L52 34L52 35L51 35L51 36L52 36L52 35L53 35L53 34L54 34L54 33L52 33L52 32L51 32L51 30L52 30L52 29L50 29L50 28L53 28L53 27L54 27L54 28L55 28L55 26L53 26L53 25L55 25L55 24L53 24L53 25L50 25L50 26L49 26L49 25L48 25L48 24L49 24L49 23L48 23L48 20L49 20L49 22L51 22L51 23L53 23L53 21L55 21L55 20L56 20L56 21L57 21L57 20L56 20L56 19L55 19L55 18L57 18L57 16L59 16L59 14L57 14L57 16L56 16L56 14L53 14L53 13L52 13L52 14L53 14L53 15L52 15L52 16L53 16L53 17L50 17L50 16L49 16L49 15L50 15L50 14L51 14L51 12L49 12L49 11L48 11L48 10L49 10L49 9L50 9L50 11L53 11L53 12L54 12L54 11L55 11L55 13L58 13L58 12L59 12L59 11L57 11L57 10L56 10L56 9L55 9L55 10L54 10L54 11L53 11L53 9L50 9L50 8L49 8L49 7L50 7L50 5L49 5L49 7L48 7L48 8L47 8L47 9L46 9L46 10L47 10L47 11L46 11L46 13L45 13L45 12L44 12L44 11L45 11L45 10L44 10L44 9L45 9L45 8L43 8L43 7L44 7L44 6L45 6L45 7L46 7L46 5L41 5L41 8L39 8L39 7L40 7L40 5L39 5L39 7L38 7L38 8L37 8L37 7L36 7L36 6L35 6L35 8L34 8L34 5L35 5L35 4ZM8 5L8 7L9 7L9 5ZM29 5L29 8L32 8L32 5ZM10 6L10 8L11 8L11 6ZM12 6L12 8L13 8L13 6ZM30 6L30 7L31 7L31 6ZM42 6L42 7L43 7L43 6ZM52 6L52 7L53 7L53 6ZM23 8L23 9L24 9L24 10L25 10L25 11L24 11L24 12L25 12L25 13L22 13L22 14L20 14L20 17L22 17L22 16L21 16L21 15L22 15L22 14L23 14L23 15L24 15L24 16L23 16L23 17L24 17L24 18L23 18L23 19L24 19L24 20L25 20L25 21L22 21L22 20L21 20L21 19L20 19L20 18L18 18L18 17L19 17L19 16L17 16L17 15L15 15L15 13L14 13L14 14L13 14L13 15L14 15L14 16L13 16L13 17L12 17L12 16L11 16L11 17L12 17L12 18L13 18L13 17L16 17L16 18L15 18L15 19L16 19L16 21L19 21L19 22L18 22L18 23L17 23L17 24L16 24L16 25L17 25L17 28L15 28L15 29L13 29L13 30L15 30L15 31L16 31L16 32L17 32L17 34L18 34L18 35L17 35L17 36L16 36L16 35L15 35L15 34L16 34L16 33L15 33L15 32L13 32L13 31L11 31L11 33L12 33L12 32L13 32L13 34L14 34L14 37L15 37L15 39L14 39L14 38L12 38L12 37L13 37L13 36L12 36L12 37L11 37L11 39L12 39L12 41L14 41L14 40L15 40L15 41L18 41L18 42L19 42L19 43L20 43L20 42L19 42L19 41L20 41L20 40L21 40L21 41L22 41L22 42L21 42L21 43L23 43L23 44L24 44L24 43L25 43L25 42L26 42L26 41L22 41L22 40L26 40L26 39L25 39L25 37L26 37L26 38L27 38L27 40L30 40L30 41L32 41L32 42L30 42L30 43L28 43L28 42L27 42L27 43L26 43L26 44L30 44L30 45L29 45L29 46L27 46L27 45L22 45L22 46L21 46L21 47L22 47L22 46L25 46L25 47L24 47L24 48L23 48L23 49L24 49L24 50L22 50L22 51L24 51L24 52L25 52L25 53L26 53L26 51L25 51L25 49L26 49L26 46L27 46L27 47L29 47L29 46L30 46L30 45L31 45L31 46L32 46L32 47L33 47L33 48L35 48L35 49L37 49L37 50L36 50L36 51L39 51L39 52L42 52L42 53L41 53L41 54L38 54L38 55L39 55L39 56L41 56L41 54L43 54L43 52L46 52L46 51L47 51L47 52L48 52L48 51L49 51L49 50L50 50L50 51L51 51L51 50L50 50L50 49L49 49L49 48L50 48L50 47L49 47L49 48L48 48L48 47L47 47L47 48L48 48L48 49L49 49L49 50L48 50L48 51L47 51L47 50L46 50L46 51L45 51L45 49L44 49L44 48L45 48L45 47L46 47L46 46L45 46L45 47L44 47L44 48L42 48L42 46L44 46L44 45L42 45L42 46L41 46L41 47L39 47L39 46L40 46L40 44L41 44L41 43L40 43L40 44L39 44L39 42L38 42L38 41L37 41L37 40L35 40L35 38L36 38L36 39L39 39L39 38L38 38L38 37L39 37L39 36L41 36L41 37L40 37L40 40L41 40L41 39L42 39L42 40L43 40L43 41L41 41L41 42L43 42L43 43L42 43L42 44L43 44L43 43L44 43L44 44L46 44L46 45L47 45L47 44L46 44L46 43L48 43L48 41L49 41L49 42L50 42L50 40L51 40L51 41L52 41L52 40L53 40L53 39L52 39L52 40L51 40L51 38L50 38L50 40L47 40L47 42L45 42L45 43L44 43L44 40L45 40L45 41L46 41L46 40L45 40L45 39L42 39L42 38L43 38L43 36L48 36L48 39L49 39L49 36L48 36L48 35L47 35L47 34L46 34L46 35L42 35L42 36L41 36L41 35L40 35L40 34L44 34L44 32L45 32L45 33L47 33L47 32L48 32L48 31L49 31L49 30L50 30L50 29L49 29L49 28L48 28L48 26L45 26L45 25L47 25L47 24L46 24L46 23L47 23L47 22L46 22L46 19L47 19L47 20L48 20L48 19L49 19L49 18L50 18L50 19L51 19L51 18L50 18L50 17L49 17L49 16L48 16L48 15L46 15L46 14L43 14L43 11L42 11L42 10L43 10L43 9L40 9L40 12L42 12L42 14L41 14L41 13L39 13L39 14L38 14L38 12L36 12L36 13L37 13L37 14L38 14L38 15L37 15L37 16L36 16L36 15L35 15L35 14L34 14L34 15L33 15L33 16L32 16L32 14L30 14L30 13L28 13L28 14L27 14L27 13L26 13L26 12L27 12L27 10L25 10L25 9L24 9L24 8ZM48 8L48 9L49 9L49 8ZM59 8L59 9L60 9L60 8ZM4 9L4 10L3 10L3 11L2 11L2 10L1 10L1 11L2 11L2 13L3 13L3 11L4 11L4 10L5 10L5 12L4 12L4 13L5 13L5 12L9 12L9 10L8 10L8 9L6 9L6 10L5 10L5 9ZM18 9L18 10L19 10L19 11L17 11L17 12L16 12L16 13L19 13L19 11L20 11L20 10L19 10L19 9ZM37 9L37 10L38 10L38 11L39 11L39 10L38 10L38 9ZM6 10L6 11L7 11L7 10ZM31 10L31 11L29 11L29 12L32 12L32 10ZM12 11L12 12L13 12L13 11ZM56 11L56 12L57 12L57 11ZM20 12L20 13L21 13L21 12ZM48 12L48 13L49 13L49 12ZM9 13L9 14L10 14L10 13ZM25 13L25 15L26 15L26 17L25 17L25 20L26 20L26 21L25 21L25 22L24 22L24 24L21 24L21 21L20 21L20 23L19 23L19 25L23 25L23 26L22 26L22 27L23 27L23 26L24 26L24 25L25 25L25 26L27 26L27 27L26 27L26 28L21 28L21 29L15 29L15 30L16 30L16 31L17 31L17 32L18 32L18 31L17 31L17 30L19 30L19 32L21 32L21 33L20 33L20 34L19 34L19 33L18 33L18 34L19 34L19 37L16 37L16 38L18 38L18 39L16 39L16 40L18 40L18 41L19 41L19 39L20 39L20 38L21 38L21 39L23 39L23 38L21 38L21 37L20 37L20 36L21 36L21 35L20 35L20 34L21 34L21 33L22 33L22 35L24 35L24 36L26 36L26 37L27 37L27 38L28 38L28 39L29 39L29 38L31 38L31 39L32 39L32 41L33 41L33 39L32 39L32 38L35 38L35 36L37 36L37 37L38 37L38 36L39 36L39 35L32 35L32 34L36 34L36 32L37 32L37 33L38 33L38 34L39 34L39 33L38 33L38 32L40 32L40 33L43 33L43 32L42 32L42 31L45 31L45 30L46 30L46 32L47 32L47 31L48 31L48 30L49 30L49 29L48 29L48 28L47 28L47 27L45 27L45 26L44 26L44 25L45 25L45 24L44 24L44 23L46 23L46 22L45 22L45 20L43 20L43 19L45 19L45 18L44 18L44 17L45 17L45 16L46 16L46 18L48 18L48 16L46 16L46 15L45 15L45 16L44 16L44 15L43 15L43 14L42 14L42 16L40 16L40 15L41 15L41 14L40 14L40 15L39 15L39 16L37 16L37 17L36 17L36 16L35 16L35 15L34 15L34 16L35 16L35 17L33 17L33 18L32 18L32 16L29 16L29 15L30 15L30 14L29 14L29 15L28 15L28 16L29 16L29 17L28 17L28 18L29 18L29 17L30 17L30 19L31 19L31 20L30 20L30 21L28 21L28 22L29 22L29 23L27 23L27 24L30 24L30 25L28 25L28 26L27 26L27 25L25 25L25 24L26 24L26 23L25 23L25 22L26 22L26 21L27 21L27 20L29 20L29 19L27 19L27 18L26 18L26 17L27 17L27 15L26 15L26 13ZM18 14L18 15L19 15L19 14ZM54 15L54 16L55 16L55 15ZM6 16L6 17L7 17L7 16ZM16 16L16 17L17 17L17 16ZM39 16L39 18L38 18L38 19L37 19L37 18L36 18L36 19L37 19L37 20L34 20L34 19L35 19L35 18L34 18L34 19L33 19L33 20L34 20L34 21L35 21L35 22L33 22L33 21L32 21L32 20L31 20L31 21L32 21L32 22L31 22L31 23L30 23L30 24L31 24L31 25L30 25L30 26L28 26L28 27L29 27L29 28L27 28L27 29L26 29L26 30L27 30L27 31L26 31L26 32L24 32L24 33L23 33L23 31L24 31L24 30L25 30L25 29L21 29L21 30L20 30L20 31L21 31L21 32L22 32L22 33L23 33L23 34L24 34L24 33L26 33L26 34L25 34L25 35L28 35L28 34L27 34L27 33L31 33L31 34L30 34L30 35L29 35L29 37L31 37L31 38L32 38L32 35L31 35L31 34L32 34L32 33L35 33L35 30L34 30L34 31L33 31L33 29L35 29L35 28L36 28L36 29L37 29L37 30L36 30L36 31L37 31L37 30L38 30L38 31L40 31L40 32L41 32L41 31L42 31L42 30L43 30L43 27L42 27L42 28L41 28L41 27L39 27L39 26L38 26L38 23L39 23L39 22L40 22L40 23L41 23L41 22L44 22L44 21L39 21L39 22L38 22L38 23L37 23L37 22L36 22L36 21L37 21L37 20L42 20L42 19L41 19L41 17L40 17L40 16ZM42 16L42 18L43 18L43 16ZM53 17L53 18L52 18L52 20L50 20L50 21L53 21L53 18L55 18L55 17ZM3 18L3 19L4 19L4 18ZM17 19L17 20L18 20L18 19ZM26 19L26 20L27 20L27 19ZM54 19L54 20L55 20L55 19ZM60 20L60 21L61 21L61 20ZM0 22L0 23L1 23L1 24L0 24L0 25L1 25L1 26L0 26L0 28L1 28L1 29L2 29L2 28L1 28L1 27L2 27L2 23L1 23L1 22ZM22 22L22 23L23 23L23 22ZM32 22L32 25L31 25L31 26L30 26L30 27L31 27L31 26L32 26L32 27L34 27L34 26L36 26L36 28L37 28L37 29L38 29L38 30L39 30L39 28L37 28L37 25L34 25L34 26L32 26L32 25L33 25L33 22ZM35 22L35 23L34 23L34 24L37 24L37 23L36 23L36 22ZM54 22L54 23L55 23L55 22ZM56 22L56 23L57 23L57 22ZM60 22L60 23L61 23L61 22ZM17 24L17 25L18 25L18 24ZM41 24L41 25L42 25L42 26L43 26L43 25L42 25L42 24ZM58 24L58 25L57 25L57 26L58 26L58 27L61 27L61 26L60 26L60 25L59 25L59 24ZM3 25L3 27L4 27L4 25ZM58 25L58 26L59 26L59 25ZM9 26L9 27L10 27L10 26ZM18 26L18 28L19 28L19 27L20 27L20 26ZM50 26L50 27L52 27L52 26ZM44 27L44 28L45 28L45 29L44 29L44 30L45 30L45 29L47 29L47 28L45 28L45 27ZM40 28L40 31L41 31L41 30L42 30L42 29L41 29L41 28ZM5 29L5 32L8 32L8 29ZM27 29L27 30L28 30L28 29ZM29 29L29 32L32 32L32 29ZM53 29L53 32L56 32L56 29ZM3 30L3 31L4 31L4 30ZM6 30L6 31L7 31L7 30ZM21 30L21 31L22 31L22 30ZM30 30L30 31L31 31L31 30ZM54 30L54 31L55 31L55 30ZM26 32L26 33L27 33L27 32ZM6 33L6 34L7 34L7 33ZM56 33L56 34L57 34L57 33ZM22 36L22 37L23 37L23 36ZM27 36L27 37L28 37L28 36ZM4 37L4 38L5 38L5 37ZM9 37L9 38L10 38L10 37ZM19 37L19 38L20 38L20 37ZM44 37L44 38L46 38L46 39L47 39L47 38L46 38L46 37ZM58 37L58 38L59 38L59 37ZM0 38L0 42L1 42L1 40L2 40L2 41L3 41L3 40L5 40L5 39L3 39L3 38ZM60 40L60 41L61 41L61 40ZM34 41L34 42L35 42L35 41ZM23 42L23 43L24 43L24 42ZM37 42L37 43L35 43L35 45L34 45L34 44L33 44L33 43L32 43L32 44L33 44L33 45L34 45L34 46L35 46L35 45L36 45L36 44L38 44L38 46L39 46L39 44L38 44L38 42ZM20 44L20 45L21 45L21 44ZM59 44L59 45L58 45L58 46L59 46L59 45L60 45L60 44ZM1 46L1 47L2 47L2 46ZM6 46L6 47L7 47L7 48L8 48L8 47L7 47L7 46ZM9 46L9 47L10 47L10 46ZM13 46L13 47L11 47L11 48L10 48L10 50L12 50L12 49L13 49L13 48L14 48L14 46ZM18 46L18 47L19 47L19 48L17 48L17 49L19 49L19 48L20 48L20 49L22 49L22 48L20 48L20 46ZM15 47L15 49L16 49L16 47ZM36 47L36 48L37 48L37 49L38 49L38 50L39 50L39 51L44 51L44 50L41 50L41 49L42 49L42 48L40 48L40 50L39 50L39 47ZM11 48L11 49L12 49L12 48ZM54 48L54 49L53 49L53 51L55 51L55 49L57 49L57 48ZM2 49L2 50L4 50L4 49ZM29 49L29 51L31 51L31 49ZM3 51L3 52L4 52L4 51ZM32 51L32 52L34 52L34 51ZM8 52L8 53L9 53L9 54L11 54L11 52ZM12 52L12 53L13 53L13 52ZM19 53L19 54L20 54L20 53ZM29 53L29 56L32 56L32 53ZM44 53L44 54L46 54L46 53ZM53 53L53 56L56 56L56 53ZM27 54L27 55L28 55L28 54ZM30 54L30 55L31 55L31 54ZM54 54L54 55L55 55L55 54ZM15 55L15 57L17 57L17 56L16 56L16 55ZM44 55L44 56L46 56L46 55ZM9 56L9 57L10 57L10 56ZM21 56L21 57L22 57L22 56ZM28 57L28 58L29 58L29 57ZM33 57L33 58L32 58L32 59L31 59L31 58L30 58L30 59L31 59L31 60L32 60L32 59L33 59L33 58L35 58L35 59L34 59L34 60L37 60L37 59L36 59L36 58L37 58L37 57ZM59 57L59 59L57 59L57 60L60 60L60 57ZM50 58L50 59L48 59L48 60L45 60L45 61L49 61L49 60L50 60L50 61L52 61L52 60L51 60L51 58ZM0 0L0 7L7 7L7 0ZM1 1L1 6L6 6L6 1ZM2 2L2 5L5 5L5 2ZM54 0L54 7L61 7L61 0ZM55 1L55 6L60 6L60 1ZM56 2L56 5L59 5L59 2ZM0 54L0 61L7 61L7 54ZM1 55L1 60L6 60L6 55ZM2 56L2 59L5 59L5 56Z" fill="#000000"/></g></g></svg>
