<?xml version="1.0" encoding="UTF-8"?>
<svg xmlns="http://www.w3.org/2000/svg" version="1.1" width="300" height="300" viewBox="0 0 300 300"><rect x="0" y="0" width="300" height="300" fill="#ffffff"/><g transform="scale(4.918)"><g transform="translate(0,0)"><path fill-rule="evenodd" d="M11 0L11 3L13 3L13 4L12 4L12 5L13 5L13 6L12 6L12 7L11 7L11 6L10 6L10 5L11 5L11 4L10 4L10 5L8 5L8 7L9 7L9 8L6 8L6 9L5 9L5 8L0 8L0 9L1 9L1 10L2 10L2 9L4 9L4 12L3 12L3 15L2 15L2 13L1 13L1 12L2 12L2 11L1 11L1 12L0 12L0 13L1 13L1 16L0 16L0 17L1 17L1 18L0 18L0 21L1 21L1 22L2 22L2 23L1 23L1 24L0 24L0 25L3 25L3 26L0 26L0 27L1 27L1 28L0 28L0 29L2 29L2 28L3 28L3 30L4 30L4 31L3 31L3 32L4 32L4 33L9 33L9 34L10 34L10 36L9 36L9 37L8 37L8 39L7 39L7 38L6 38L6 37L7 37L7 36L6 36L6 37L5 37L5 40L4 40L4 41L3 41L3 40L2 40L2 39L1 39L1 41L2 41L2 42L0 42L0 43L1 43L1 44L0 44L0 45L2 45L2 44L4 44L4 45L3 45L3 46L5 46L5 47L3 47L3 49L1 49L1 47L0 47L0 50L2 50L2 51L0 51L0 53L4 53L4 52L5 52L5 51L7 51L7 52L6 52L6 53L7 53L7 52L10 52L10 53L8 53L8 55L9 55L9 56L8 56L8 61L9 61L9 56L11 56L11 53L13 53L13 55L12 55L12 56L14 56L14 57L15 57L15 56L16 56L16 55L17 55L17 56L18 56L18 57L17 57L17 58L15 58L15 59L14 59L14 58L13 58L13 59L14 59L14 61L17 61L17 60L16 60L16 59L18 59L18 61L19 61L19 60L20 60L20 61L21 61L21 60L22 60L22 59L21 59L21 58L23 58L23 57L24 57L24 59L23 59L23 60L25 60L25 57L27 57L27 59L26 59L26 60L28 60L28 59L30 59L30 61L32 61L32 60L33 60L33 61L34 61L34 58L33 58L33 59L32 59L32 57L37 57L37 58L36 58L36 59L40 59L40 60L39 60L39 61L40 61L40 60L41 60L41 61L42 61L42 60L43 60L43 61L44 61L44 60L46 60L46 59L49 59L49 60L47 60L47 61L49 61L49 60L55 60L55 61L56 61L56 60L55 60L55 58L53 58L53 59L51 59L51 58L52 58L52 57L56 57L56 58L59 58L59 56L61 56L61 54L59 54L59 56L58 56L58 57L57 57L57 53L59 53L59 52L58 52L58 51L61 51L61 50L60 50L60 49L61 49L61 48L58 48L58 49L59 49L59 50L57 50L57 52L54 52L54 51L55 51L55 50L53 50L53 51L52 51L52 50L50 50L50 49L53 49L53 48L54 48L54 49L57 49L57 48L54 48L54 47L57 47L57 46L56 46L56 45L59 45L59 44L60 44L60 45L61 45L61 41L60 41L60 39L61 39L61 38L58 38L58 37L61 37L61 34L60 34L60 33L61 33L61 32L60 32L60 33L59 33L59 32L57 32L57 31L59 31L59 30L60 30L60 31L61 31L61 30L60 30L60 28L57 28L57 27L56 27L56 24L57 24L57 23L61 23L61 22L58 22L58 21L59 21L59 20L58 20L58 19L61 19L61 18L58 18L58 17L59 17L59 16L57 16L57 15L55 15L55 17L54 17L54 16L53 16L53 15L54 15L54 14L55 14L55 13L54 13L54 14L50 14L50 9L51 9L51 13L53 13L53 11L54 11L54 12L57 12L57 14L58 14L58 13L59 13L59 12L60 12L60 11L61 11L61 10L60 10L60 11L59 11L59 9L60 9L60 8L59 8L59 9L58 9L58 8L57 8L57 9L56 9L56 8L55 8L55 9L54 9L54 8L52 8L52 7L53 7L53 6L52 6L52 7L51 7L51 5L52 5L52 4L53 4L53 0L51 0L51 2L50 2L50 1L49 1L49 0L48 0L48 1L49 1L49 2L50 2L50 4L49 4L49 3L46 3L46 2L47 2L47 1L46 1L46 0L44 0L44 1L45 1L45 2L44 2L44 3L45 3L45 4L44 4L44 7L43 7L43 6L42 6L42 7L43 7L43 8L47 8L47 9L48 9L48 10L45 10L45 9L44 9L44 10L45 10L45 11L44 11L44 12L43 12L43 11L42 11L42 10L43 10L43 9L41 9L41 10L38 10L38 9L39 9L39 8L41 8L41 6L40 6L40 7L39 7L39 5L36 5L36 7L37 7L37 8L35 8L35 5L34 5L34 8L35 8L35 10L34 10L34 9L33 9L33 4L32 4L32 1L33 1L33 2L34 2L34 3L35 3L35 4L37 4L37 3L36 3L36 2L37 2L37 1L36 1L36 2L35 2L35 1L33 1L33 0L30 0L30 1L29 1L29 2L27 2L27 0L26 0L26 3L27 3L27 4L26 4L26 5L27 5L27 6L26 6L26 7L25 7L25 6L24 6L24 8L26 8L26 7L27 7L27 6L28 6L28 8L27 8L27 9L29 9L29 11L28 11L28 10L26 10L26 9L21 9L21 10L22 10L22 11L23 11L23 10L25 10L25 11L24 11L24 12L25 12L25 13L22 13L22 12L20 12L20 13L19 13L19 12L18 12L18 11L20 11L20 10L19 10L19 9L20 9L20 8L19 8L19 9L18 9L18 8L16 8L16 7L17 7L17 6L18 6L18 7L19 7L19 6L20 6L20 7L21 7L21 8L22 8L22 7L23 7L23 5L25 5L25 4L24 4L24 2L23 2L23 1L24 1L24 0L23 0L23 1L22 1L22 0L21 0L21 1L20 1L20 2L21 2L21 1L22 1L22 3L23 3L23 4L21 4L21 3L18 3L18 4L19 4L19 6L18 6L18 5L15 5L15 4L17 4L17 3L16 3L16 2L15 2L15 4L14 4L14 3L13 3L13 2L14 2L14 0L13 0L13 1L12 1L12 0ZM15 0L15 1L16 1L16 0ZM17 0L17 2L19 2L19 1L18 1L18 0ZM39 0L39 1L38 1L38 3L41 3L41 4L42 4L42 5L43 5L43 2L42 2L42 1L43 1L43 0L42 0L42 1L41 1L41 0ZM8 1L8 2L10 2L10 1ZM30 1L30 2L31 2L31 1ZM40 1L40 2L41 2L41 1ZM8 3L8 4L9 4L9 3ZM29 3L29 4L31 4L31 3ZM51 3L51 4L52 4L52 3ZM13 4L13 5L14 5L14 4ZM20 4L20 5L21 5L21 7L22 7L22 5L21 5L21 4ZM27 4L27 5L28 5L28 4ZM46 4L46 5L47 5L47 8L49 8L49 9L50 9L50 8L49 8L49 7L50 7L50 5L47 5L47 4ZM29 5L29 8L32 8L32 5ZM9 6L9 7L10 7L10 9L11 9L11 7L10 7L10 6ZM13 6L13 9L12 9L12 10L8 10L8 9L6 9L6 10L7 10L7 11L5 11L5 12L4 12L4 13L5 13L5 14L4 14L4 15L5 15L5 16L7 16L7 17L4 17L4 18L5 18L5 19L6 19L6 20L5 20L5 21L6 21L6 22L4 22L4 19L3 19L3 21L2 21L2 19L1 19L1 21L2 21L2 22L4 22L4 23L6 23L6 24L7 24L7 23L6 23L6 22L7 22L7 21L8 21L8 24L9 24L9 23L10 23L10 24L12 24L12 25L13 25L13 23L14 23L14 22L13 22L13 21L15 21L15 23L16 23L16 24L15 24L15 25L14 25L14 26L13 26L13 27L12 27L12 26L11 26L11 25L10 25L10 30L9 30L9 31L10 31L10 32L9 32L9 33L11 33L11 31L13 31L13 28L14 28L14 30L17 30L17 32L16 32L16 31L15 31L15 32L13 32L13 33L12 33L12 34L14 34L14 35L11 35L11 36L14 36L14 37L13 37L13 38L12 38L12 37L11 37L11 38L10 38L10 37L9 37L9 38L10 38L10 39L8 39L8 41L6 41L6 40L7 40L7 39L6 39L6 40L5 40L5 41L4 41L4 42L3 42L3 43L4 43L4 44L5 44L5 46L7 46L7 47L6 47L6 48L7 48L7 49L6 49L6 50L7 50L7 49L8 49L8 47L9 47L9 49L10 49L10 47L9 47L9 46L10 46L10 45L11 45L11 46L12 46L12 45L11 45L11 44L10 44L10 43L12 43L12 44L13 44L13 45L15 45L15 46L14 46L14 47L13 47L13 49L12 49L12 47L11 47L11 49L12 49L12 50L11 50L11 51L12 51L12 52L13 52L13 51L15 51L15 53L14 53L14 56L15 56L15 54L17 54L17 55L18 55L18 54L19 54L19 57L23 57L23 56L24 56L24 57L25 57L25 56L26 56L26 55L25 55L25 54L26 54L26 53L27 53L27 56L28 56L28 53L27 53L27 52L29 52L29 51L30 51L30 50L31 50L31 49L32 49L32 48L31 48L31 49L30 49L30 50L28 50L28 47L30 47L30 46L31 46L31 47L33 47L33 50L32 50L32 52L33 52L33 53L34 53L34 54L33 54L33 55L34 55L34 56L37 56L37 54L40 54L40 55L41 55L41 56L39 56L39 57L38 57L38 58L41 58L41 60L42 60L42 59L43 59L43 60L44 60L44 59L45 59L45 58L48 58L48 57L47 57L47 56L49 56L49 59L50 59L50 58L51 58L51 56L52 56L52 55L50 55L50 54L51 54L51 53L50 53L50 52L52 52L52 51L50 51L50 50L49 50L49 49L50 49L50 48L52 48L52 47L53 47L53 46L52 46L52 47L50 47L50 46L51 46L51 44L52 44L52 45L54 45L54 43L53 43L53 42L54 42L54 40L55 40L55 41L56 41L56 42L55 42L55 43L56 43L56 44L55 44L55 45L56 45L56 44L59 44L59 43L60 43L60 42L58 42L58 41L56 41L56 40L59 40L59 39L56 39L56 38L57 38L57 37L58 37L58 36L60 36L60 35L58 35L58 36L57 36L57 33L53 33L53 34L52 34L52 35L51 35L51 36L49 36L49 35L50 35L50 34L51 34L51 33L52 33L52 32L49 32L49 31L50 31L50 30L51 30L51 31L52 31L52 29L50 29L50 30L47 30L47 29L45 29L45 28L46 28L46 27L45 27L45 26L47 26L47 27L48 27L48 28L49 28L49 27L50 27L50 28L51 28L51 27L50 27L50 26L51 26L51 25L52 25L52 26L53 26L53 27L52 27L52 28L55 28L55 26L53 26L53 25L55 25L55 24L53 24L53 23L55 23L55 22L54 22L54 19L55 19L55 21L56 21L56 23L57 23L57 21L58 21L58 20L56 20L56 17L57 17L57 16L56 16L56 17L55 17L55 18L54 18L54 17L51 17L51 16L52 16L52 15L50 15L50 14L49 14L49 13L48 13L48 12L49 12L49 11L47 11L47 13L46 13L46 11L45 11L45 12L44 12L44 13L43 13L43 12L42 12L42 11L41 11L41 12L40 12L40 11L38 11L38 10L37 10L37 9L38 9L38 8L37 8L37 9L36 9L36 12L37 12L37 11L38 11L38 12L40 12L40 13L41 13L41 14L40 14L40 15L39 15L39 16L37 16L37 15L38 15L38 14L39 14L39 13L38 13L38 14L37 14L37 13L35 13L35 12L34 12L34 11L33 11L33 13L34 13L34 14L35 14L35 16L34 16L34 15L33 15L33 14L32 14L32 13L31 13L31 12L32 12L32 11L31 11L31 12L30 12L30 13L29 13L29 14L30 14L30 13L31 13L31 14L32 14L32 15L31 15L31 16L32 16L32 17L28 17L28 18L32 18L32 20L29 20L29 19L27 19L27 18L26 18L26 17L27 17L27 15L28 15L28 16L30 16L30 15L28 15L28 13L27 13L27 12L28 12L28 11L26 11L26 13L25 13L25 14L22 14L22 15L21 15L21 13L20 13L20 15L19 15L19 13L16 13L16 11L18 11L18 9L16 9L16 10L15 10L15 11L14 11L14 9L15 9L15 7L16 7L16 6L15 6L15 7L14 7L14 6ZM30 6L30 7L31 7L31 6ZM37 6L37 7L38 7L38 6ZM45 6L45 7L46 7L46 6ZM48 6L48 7L49 7L49 6ZM51 8L51 9L52 9L52 10L53 10L53 9L52 9L52 8ZM31 9L31 10L33 10L33 9ZM55 9L55 10L54 10L54 11L57 11L57 12L59 12L59 11L57 11L57 10L58 10L58 9L57 9L57 10L56 10L56 9ZM12 10L12 11L11 11L11 12L12 12L12 14L11 14L11 13L9 13L9 11L8 11L8 12L5 12L5 13L7 13L7 14L6 14L6 15L8 15L8 16L11 16L11 15L14 15L14 16L13 16L13 17L11 17L11 18L10 18L10 17L9 17L9 18L10 18L10 20L11 20L11 18L12 18L12 20L15 20L15 19L16 19L16 21L17 21L17 22L18 22L18 23L17 23L17 24L16 24L16 25L17 25L17 26L14 26L14 27L15 27L15 29L17 29L17 28L18 28L18 29L19 29L19 30L18 30L18 31L19 31L19 30L20 30L20 31L21 31L21 32L20 32L20 33L19 33L19 32L17 32L17 33L19 33L19 34L20 34L20 33L21 33L21 35L19 35L19 36L16 36L16 35L14 35L14 36L15 36L15 37L17 37L17 39L18 39L18 37L19 37L19 39L21 39L21 40L23 40L23 39L24 39L24 40L26 40L26 39L25 39L25 37L26 37L26 38L27 38L27 39L29 39L29 40L30 40L30 41L31 41L31 42L30 42L30 43L31 43L31 44L30 44L30 45L28 45L28 44L27 44L27 45L26 45L26 48L27 48L27 46L30 46L30 45L31 45L31 46L33 46L33 45L35 45L35 46L34 46L34 47L35 47L35 46L38 46L38 47L39 47L39 50L38 50L38 49L37 49L37 48L36 48L36 49L37 49L37 50L36 50L36 51L35 51L35 50L34 50L34 51L33 51L33 52L34 52L34 51L35 51L35 52L36 52L36 53L35 53L35 54L37 54L37 52L36 52L36 51L39 51L39 52L41 52L41 51L39 51L39 50L40 50L40 48L41 48L41 47L42 47L42 46L43 46L43 47L44 47L44 48L43 48L43 49L41 49L41 50L44 50L44 51L45 51L45 52L46 52L46 53L49 53L49 54L50 54L50 53L49 53L49 52L46 52L46 51L47 51L47 50L46 50L46 51L45 51L45 50L44 50L44 48L45 48L45 47L47 47L47 48L48 48L48 49L49 49L49 48L48 48L48 47L49 47L49 46L50 46L50 44L47 44L47 43L49 43L49 42L50 42L50 43L52 43L52 42L50 42L50 40L51 40L51 41L53 41L53 39L55 39L55 38L53 38L53 39L51 39L51 38L52 38L52 37L53 37L53 35L52 35L52 36L51 36L51 38L50 38L50 40L48 40L48 39L49 39L49 36L48 36L48 35L47 35L47 34L46 34L46 35L45 35L45 33L47 33L47 32L48 32L48 33L49 33L49 32L48 32L48 31L47 31L47 30L44 30L44 28L45 28L45 27L43 27L43 28L42 28L42 30L41 30L41 31L40 31L40 30L38 30L38 28L36 28L36 29L35 29L35 30L34 30L34 28L35 28L35 27L36 27L36 26L34 26L34 25L37 25L37 26L38 26L38 27L39 27L39 26L38 26L38 25L39 25L39 24L41 24L41 25L42 25L42 26L43 26L43 25L42 25L42 24L41 24L41 23L42 23L42 22L43 22L43 21L42 21L42 22L41 22L41 21L39 21L39 20L41 20L41 17L40 17L40 16L41 16L41 15L42 15L42 14L43 14L43 15L44 15L44 16L45 16L45 17L44 17L44 18L43 18L43 17L42 17L42 18L43 18L43 19L42 19L42 20L45 20L45 21L44 21L44 22L45 22L45 23L44 23L44 24L45 24L45 25L44 25L44 26L45 26L45 25L47 25L47 26L48 26L48 27L49 27L49 26L50 26L50 25L51 25L51 23L53 23L53 22L50 22L50 23L49 23L49 20L47 20L47 18L46 18L46 16L48 16L48 17L50 17L50 16L48 16L48 15L49 15L49 14L48 14L48 13L47 13L47 14L45 14L45 15L44 15L44 14L43 14L43 13L42 13L42 14L41 14L41 15L40 15L40 16L39 16L39 18L38 18L38 19L37 19L37 20L36 20L36 22L35 22L35 23L39 23L39 24L34 24L34 21L32 21L32 22L31 22L31 21L29 21L29 20L27 20L27 19L26 19L26 20L25 20L25 16L24 16L24 15L23 15L23 17L24 17L24 18L22 18L22 19L24 19L24 20L25 20L25 21L24 21L24 22L25 22L25 23L24 23L24 24L25 24L25 25L24 25L24 27L23 27L23 25L19 25L19 23L20 23L20 24L21 24L21 23L23 23L23 21L22 21L22 20L20 20L20 18L18 18L18 19L19 19L19 20L18 20L18 21L17 21L17 17L16 17L16 15L15 15L15 13L14 13L14 11L13 11L13 10ZM12 11L12 12L13 12L13 11ZM8 13L8 14L9 14L9 15L11 15L11 14L9 14L9 13ZM13 13L13 14L14 14L14 13ZM26 13L26 14L25 14L25 15L26 15L26 14L27 14L27 13ZM36 14L36 15L37 15L37 14ZM47 14L47 15L48 15L48 14ZM60 14L60 15L61 15L61 14ZM20 15L20 17L22 17L22 16L21 16L21 15ZM45 15L45 16L46 16L46 15ZM1 16L1 17L2 17L2 18L3 18L3 17L2 17L2 16ZM18 16L18 17L19 17L19 16ZM33 16L33 17L32 17L32 18L33 18L33 19L34 19L34 20L35 20L35 19L36 19L36 18L37 18L37 16L36 16L36 18L33 18L33 17L34 17L34 16ZM13 17L13 18L14 18L14 19L15 19L15 18L16 18L16 17ZM6 18L6 19L7 19L7 20L6 20L6 21L7 21L7 20L8 20L8 21L9 21L9 22L10 22L10 21L9 21L9 19L8 19L8 18ZM48 18L48 19L49 19L49 18ZM50 18L50 19L51 19L51 18ZM52 18L52 20L50 20L50 21L52 21L52 20L53 20L53 18ZM38 19L38 20L39 20L39 19ZM45 19L45 20L46 20L46 22L48 22L48 21L47 21L47 20L46 20L46 19ZM26 20L26 21L25 21L25 22L27 22L27 25L25 25L25 27L24 27L24 28L23 28L23 27L22 27L22 26L21 26L21 27L22 27L22 29L25 29L25 30L23 30L23 33L22 33L22 32L21 32L21 33L22 33L22 35L24 35L24 37L25 37L25 36L26 36L26 37L27 37L27 38L30 38L30 37L31 37L31 35L32 35L32 36L34 36L34 35L32 35L32 34L35 34L35 35L36 35L36 36L35 36L35 38L34 38L34 37L33 37L33 38L34 38L34 39L35 39L35 40L37 40L37 41L38 41L38 42L37 42L37 43L36 43L36 44L37 44L37 45L38 45L38 46L39 46L39 44L40 44L40 47L41 47L41 46L42 46L42 45L43 45L43 46L47 46L47 47L48 47L48 46L47 46L47 45L45 45L45 44L46 44L46 42L47 42L47 39L48 39L48 38L47 38L47 37L45 37L45 36L44 36L44 35L41 35L41 34L40 34L40 35L41 35L41 36L39 36L39 35L36 35L36 34L37 34L37 33L38 33L38 34L39 34L39 33L38 33L38 32L40 32L40 33L43 33L43 32L44 32L44 33L45 33L45 32L44 32L44 30L42 30L42 31L41 31L41 32L40 32L40 31L38 31L38 30L37 30L37 29L36 29L36 30L35 30L35 32L33 32L33 33L27 33L27 32L26 32L26 31L27 31L27 30L26 30L26 29L28 29L28 28L29 28L29 27L30 27L30 25L31 25L31 24L32 24L32 26L31 26L31 27L32 27L32 28L34 28L34 26L33 26L33 22L32 22L32 23L31 23L31 24L30 24L30 23L28 23L28 22L29 22L29 21L28 21L28 22L27 22L27 20ZM60 20L60 21L61 21L61 20ZM11 21L11 22L12 22L12 21ZM18 21L18 22L19 22L19 21ZM20 21L20 23L21 23L21 21ZM37 21L37 22L39 22L39 23L40 23L40 22L39 22L39 21ZM25 23L25 24L26 24L26 23ZM45 23L45 24L46 24L46 23ZM48 23L48 24L49 24L49 23ZM4 24L4 26L5 26L5 27L3 27L3 28L5 28L5 27L6 27L6 28L8 28L8 27L6 27L6 26L9 26L9 25L5 25L5 24ZM17 24L17 25L18 25L18 24ZM28 24L28 26L29 26L29 24ZM52 24L52 25L53 25L53 24ZM58 24L58 25L57 25L57 26L58 26L58 25L59 25L59 27L61 27L61 26L60 26L60 24ZM48 25L48 26L49 26L49 25ZM19 26L19 27L20 27L20 26ZM11 27L11 30L12 30L12 27ZM16 27L16 28L17 28L17 27ZM26 27L26 28L25 28L25 29L26 29L26 28L28 28L28 27ZM40 27L40 28L39 28L39 29L40 29L40 28L41 28L41 27ZM19 28L19 29L20 29L20 30L21 30L21 31L22 31L22 30L21 30L21 29L20 29L20 28ZM5 29L5 32L8 32L8 29ZM29 29L29 32L32 32L32 29ZM53 29L53 32L56 32L56 29ZM1 30L1 33L0 33L0 36L1 36L1 37L0 37L0 38L1 38L1 37L3 37L3 39L4 39L4 37L3 37L3 36L1 36L1 35L2 35L2 30ZM6 30L6 31L7 31L7 30ZM30 30L30 31L31 31L31 30ZM36 30L36 31L37 31L37 30ZM54 30L54 31L55 31L55 30ZM24 31L24 33L23 33L23 34L24 34L24 33L25 33L25 35L26 35L26 34L27 34L27 37L28 37L28 36L29 36L29 37L30 37L30 36L29 36L29 35L30 35L30 34L29 34L29 35L28 35L28 34L27 34L27 33L25 33L25 31ZM42 31L42 32L43 32L43 31ZM46 31L46 32L47 32L47 31ZM36 32L36 33L37 33L37 32ZM14 33L14 34L16 34L16 33ZM58 33L58 34L59 34L59 33ZM4 34L4 36L5 36L5 35L8 35L8 34ZM54 34L54 35L55 35L55 36L54 36L54 37L57 37L57 36L56 36L56 34ZM46 35L46 36L47 36L47 35ZM19 36L19 37L20 37L20 38L22 38L22 39L23 39L23 38L22 38L22 37L23 37L23 36L22 36L22 37L20 37L20 36ZM36 36L36 38L37 38L37 39L38 39L38 40L39 40L39 38L37 38L37 37L39 37L39 36ZM42 37L42 38L44 38L44 39L42 39L42 40L43 40L43 41L40 41L40 42L43 42L43 43L40 43L40 44L41 44L41 45L42 45L42 44L43 44L43 45L44 45L44 44L45 44L45 43L44 43L44 40L46 40L46 38L44 38L44 37ZM15 38L15 39L16 39L16 38ZM31 38L31 39L32 39L32 40L31 40L31 41L33 41L33 39L32 39L32 38ZM10 39L10 40L9 40L9 41L11 41L11 42L12 42L12 43L13 43L13 42L14 42L14 44L15 44L15 45L17 45L17 44L15 44L15 43L16 43L16 41L18 41L18 43L20 43L20 42L19 42L19 41L20 41L20 40L19 40L19 41L18 41L18 40L15 40L15 41L13 41L13 40L14 40L14 39L13 39L13 40L11 40L11 39ZM40 39L40 40L41 40L41 39ZM21 41L21 44L18 44L18 45L19 45L19 46L18 46L18 47L17 47L17 46L15 46L15 47L14 47L14 50L15 50L15 51L16 51L16 53L17 53L17 52L18 52L18 53L19 53L19 54L20 54L20 55L21 55L21 54L23 54L23 55L24 55L24 54L25 54L25 53L26 53L26 51L25 51L25 50L27 50L27 51L28 51L28 50L27 50L27 49L25 49L25 48L24 48L24 47L25 47L25 45L24 45L24 47L23 47L23 49L24 49L24 50L21 50L21 51L19 51L19 52L18 52L18 51L17 51L17 50L18 50L18 49L19 49L19 50L20 50L20 49L22 49L22 48L20 48L20 49L19 49L19 48L18 48L18 47L20 47L20 45L21 45L21 44L23 44L23 43L22 43L22 42L23 42L23 41ZM24 41L24 44L26 44L26 43L25 43L25 42L26 42L26 41ZM28 41L28 42L27 42L27 43L29 43L29 41ZM34 41L34 42L35 42L35 41ZM4 42L4 43L5 43L5 42ZM6 42L6 43L8 43L8 44L6 44L6 45L7 45L7 46L8 46L8 44L9 44L9 42ZM31 42L31 43L32 43L32 44L31 44L31 45L32 45L32 44L33 44L33 43L32 43L32 42ZM38 42L38 43L37 43L37 44L39 44L39 42ZM57 42L57 43L58 43L58 42ZM34 43L34 44L35 44L35 43ZM43 43L43 44L44 44L44 43ZM22 45L22 46L21 46L21 47L22 47L22 46L23 46L23 45ZM60 46L60 47L61 47L61 46ZM16 47L16 49L15 49L15 50L16 50L16 49L18 49L18 48L17 48L17 47ZM4 48L4 49L3 49L3 50L4 50L4 49L5 49L5 48ZM9 50L9 51L10 51L10 50ZM48 50L48 51L49 51L49 50ZM3 51L3 52L4 52L4 51ZM23 51L23 52L22 52L22 53L25 53L25 52L24 52L24 51ZM42 51L42 52L43 52L43 53L40 53L40 54L41 54L41 55L42 55L42 54L43 54L43 55L44 55L44 56L41 56L41 58L45 58L45 57L46 57L46 56L45 56L45 55L46 55L46 54L45 54L45 53L44 53L44 52L43 52L43 51ZM19 52L19 53L20 53L20 54L21 54L21 52ZM60 52L60 53L61 53L61 52ZM29 53L29 56L32 56L32 53ZM43 53L43 54L44 54L44 53ZM53 53L53 56L56 56L56 53ZM9 54L9 55L10 55L10 54ZM30 54L30 55L31 55L31 54ZM47 54L47 55L48 55L48 54ZM54 54L54 55L55 55L55 54ZM49 55L49 56L50 56L50 55ZM44 56L44 57L45 57L45 56ZM10 57L10 59L11 59L11 57ZM29 57L29 58L30 58L30 57ZM60 57L60 60L58 60L58 61L61 61L61 57ZM18 58L18 59L20 59L20 58ZM31 59L31 60L32 60L32 59ZM12 60L12 61L13 61L13 60ZM35 60L35 61L38 61L38 60ZM0 0L0 7L7 7L7 0ZM1 1L1 6L6 6L6 1ZM2 2L2 5L5 5L5 2ZM54 0L54 7L61 7L61 0ZM55 1L55 6L60 6L60 1ZM56 2L56 5L59 5L59 2ZM0 54L0 61L7 61L7 54ZM1 55L1 60L6 60L6 55ZM2 56L2 59L5 59L5 56Z" fill="#000000"/></g></g></svg>
