<?xml version="1.0" encoding="UTF-8"?>
<svg xmlns="http://www.w3.org/2000/svg" version="1.1" width="300" height="300" viewBox="0 0 300 300"><rect x="0" y="0" width="300" height="300" fill="#ffffff"/><g transform="scale(4.918)"><g transform="translate(0,0)"><path fill-rule="evenodd" d="M9 0L9 1L8 1L8 2L9 2L9 3L8 3L8 4L9 4L9 5L8 5L8 7L9 7L9 8L6 8L6 9L9 9L9 8L10 8L10 9L11 9L11 10L12 10L12 9L11 9L11 6L12 6L12 7L13 7L13 5L10 5L10 4L12 4L12 3L13 3L13 4L14 4L14 8L16 8L16 9L14 9L14 10L15 10L15 13L19 13L19 15L20 15L20 17L19 17L19 16L17 16L17 15L18 15L18 14L16 14L16 16L17 16L17 17L19 17L19 18L18 18L18 19L19 19L19 20L18 20L18 21L17 21L17 20L16 20L16 19L15 19L15 20L14 20L14 19L13 19L13 18L14 18L14 17L13 17L13 18L12 18L12 19L11 19L11 18L9 18L9 19L10 19L10 20L8 20L8 19L7 19L7 18L6 18L6 19L7 19L7 20L5 20L5 17L8 17L8 16L9 16L9 15L7 15L7 14L6 14L6 15L7 15L7 16L5 16L5 17L4 17L4 18L2 18L2 16L1 16L1 12L0 12L0 17L1 17L1 18L0 18L0 19L2 19L2 21L3 21L3 19L4 19L4 20L5 20L5 22L6 22L6 23L7 23L7 24L6 24L6 25L7 25L7 24L8 24L8 25L9 25L9 26L10 26L10 25L9 25L9 23L10 23L10 24L14 24L14 25L13 25L13 26L12 26L12 28L10 28L10 29L12 29L12 31L13 31L13 30L14 30L14 31L15 31L15 32L13 32L13 33L16 33L16 34L14 34L14 35L13 35L13 36L14 36L14 37L13 37L13 38L15 38L15 40L14 40L14 39L13 39L13 40L12 40L12 37L11 37L11 38L10 38L10 37L9 37L9 35L8 35L8 37L9 37L9 39L8 39L8 40L10 40L10 41L7 41L7 40L6 40L6 39L7 39L7 38L6 38L6 37L7 37L7 36L6 36L6 37L3 37L3 38L2 38L2 37L1 37L1 36L3 36L3 35L7 35L7 34L9 34L9 32L10 32L10 36L12 36L12 35L11 35L11 33L12 33L12 32L10 32L10 31L9 31L9 28L8 28L8 27L7 27L7 26L3 26L3 27L2 27L2 25L1 25L1 24L0 24L0 25L1 25L1 27L2 27L2 28L0 28L0 29L2 29L2 28L3 28L3 29L4 29L4 31L3 31L3 32L2 32L2 31L1 31L1 30L0 30L0 32L2 32L2 35L1 35L1 34L0 34L0 35L1 35L1 36L0 36L0 37L1 37L1 38L0 38L0 42L1 42L1 43L0 43L0 48L1 48L1 49L0 49L0 50L1 50L1 49L2 49L2 51L0 51L0 53L4 53L4 52L5 52L5 51L7 51L7 50L5 50L5 47L7 47L7 48L6 48L6 49L8 49L8 52L6 52L6 53L8 53L8 55L12 55L12 56L13 56L13 57L11 57L11 58L13 58L13 61L15 61L15 60L16 60L16 61L19 61L19 59L20 59L20 58L19 58L19 57L20 57L20 54L19 54L19 57L18 57L18 56L13 56L13 55L14 55L14 54L16 54L16 53L17 53L17 55L18 55L18 53L19 53L19 52L20 52L20 53L21 53L21 54L28 54L28 56L27 56L27 58L26 58L26 57L21 57L21 58L23 58L23 59L25 59L25 60L26 60L26 59L28 59L28 60L27 60L27 61L28 61L28 60L29 60L29 61L31 61L31 58L30 58L30 57L32 57L32 60L33 60L33 59L34 59L34 60L36 60L36 61L38 61L38 60L37 60L37 58L38 58L38 59L39 59L39 60L41 60L41 59L40 59L40 58L45 58L45 57L44 57L44 56L45 56L45 55L47 55L47 56L46 56L46 57L49 57L49 56L50 56L50 55L52 55L52 56L51 56L51 58L50 58L50 59L49 59L49 58L48 58L48 59L49 59L49 60L47 60L47 61L49 61L49 60L51 60L51 58L53 58L53 59L52 59L52 61L54 61L54 60L55 60L55 57L56 57L56 58L57 58L57 53L59 53L59 52L58 52L58 50L59 50L59 51L61 51L61 50L59 50L59 49L61 49L61 48L58 48L58 47L61 47L61 40L60 40L60 41L59 41L59 40L57 40L57 39L59 39L59 38L60 38L60 39L61 39L61 38L60 38L60 37L61 37L61 34L58 34L58 33L59 33L59 32L60 32L60 33L61 33L61 32L60 32L60 31L61 31L61 28L60 28L60 27L61 27L61 26L60 26L60 25L59 25L59 24L58 24L58 25L59 25L59 26L58 26L58 27L56 27L56 24L57 24L57 23L59 23L59 22L58 22L58 21L59 21L59 20L60 20L60 21L61 21L61 18L59 18L59 20L58 20L58 19L53 19L53 18L55 18L55 17L56 17L56 18L58 18L58 17L61 17L61 16L57 16L57 15L56 15L56 16L54 16L54 14L56 14L56 12L58 12L58 13L57 13L57 14L58 14L58 15L61 15L61 13L60 13L60 14L59 14L59 12L60 12L60 11L61 11L61 10L60 10L60 11L59 11L59 10L58 10L58 8L57 8L57 9L56 9L56 8L55 8L55 9L54 9L54 8L52 8L52 7L53 7L53 6L52 6L52 7L51 7L51 5L52 5L52 4L53 4L53 0L51 0L51 2L50 2L50 1L46 1L46 0L39 0L39 1L38 1L38 2L37 2L37 3L36 3L36 2L35 2L35 1L37 1L37 0L35 0L35 1L34 1L34 2L32 2L32 1L33 1L33 0L32 0L32 1L31 1L31 0L29 0L29 1L28 1L28 0L24 0L24 1L23 1L23 2L22 2L22 1L21 1L21 2L20 2L20 0L19 0L19 1L17 1L17 0L16 0L16 1L13 1L13 0ZM12 1L12 2L13 2L13 3L14 3L14 4L15 4L15 3L16 3L16 2L15 2L15 3L14 3L14 2L13 2L13 1ZM29 1L29 2L28 2L28 3L29 3L29 2L30 2L30 1ZM40 1L40 2L38 2L38 5L37 5L37 4L36 4L36 3L35 3L35 2L34 2L34 3L33 3L33 4L34 4L34 5L33 5L33 9L32 9L32 10L31 10L31 11L32 11L32 12L29 12L29 10L30 10L30 9L29 9L29 10L28 10L28 9L25 9L25 8L26 8L26 6L25 6L25 5L26 5L26 4L27 4L27 2L25 2L25 3L24 3L24 2L23 2L23 3L22 3L22 2L21 2L21 4L20 4L20 5L19 5L19 4L18 4L18 3L20 3L20 2L17 2L17 4L16 4L16 6L15 6L15 7L16 7L16 8L17 8L17 9L16 9L16 10L17 10L17 9L18 9L18 8L17 8L17 7L18 7L18 5L19 5L19 9L21 9L21 8L22 8L22 9L23 9L23 12L21 12L21 13L20 13L20 12L19 12L19 13L20 13L20 15L22 15L22 13L25 13L25 14L23 14L23 17L22 17L22 16L21 16L21 17L20 17L20 18L19 18L19 19L20 19L20 20L19 20L19 21L18 21L18 23L17 23L17 21L16 21L16 20L15 20L15 21L14 21L14 20L13 20L13 19L12 19L12 20L11 20L11 21L14 21L14 22L15 22L15 21L16 21L16 24L18 24L18 25L16 25L16 26L18 26L18 25L19 25L19 26L20 26L20 27L19 27L19 29L15 29L15 28L16 28L16 27L14 27L14 26L15 26L15 25L14 25L14 26L13 26L13 28L12 28L12 29L13 29L13 28L14 28L14 29L15 29L15 30L16 30L16 31L18 31L18 30L19 30L19 32L22 32L22 33L20 33L20 34L22 34L22 35L19 35L19 33L18 33L18 34L17 34L17 37L16 37L16 35L15 35L15 37L16 37L16 40L17 40L17 41L14 41L14 43L13 43L13 41L11 41L11 42L10 42L10 44L11 44L11 45L10 45L10 47L9 47L9 46L7 46L7 45L6 45L6 44L8 44L8 43L9 43L9 42L8 42L8 43L6 43L6 42L7 42L7 41L5 41L5 42L4 42L4 43L6 43L6 44L2 44L2 43L1 43L1 46L3 46L3 45L5 45L5 46L4 46L4 47L5 47L5 46L7 46L7 47L9 47L9 48L8 48L8 49L10 49L10 47L11 47L11 49L12 49L12 50L11 50L11 51L12 51L12 52L13 52L13 53L16 53L16 52L17 52L17 53L18 53L18 52L19 52L19 51L18 51L18 50L19 50L19 49L17 49L17 48L18 48L18 47L17 47L17 46L19 46L19 45L14 45L14 48L15 48L15 49L14 49L14 50L13 50L13 48L12 48L12 47L11 47L11 45L12 45L12 46L13 46L13 45L12 45L12 44L16 44L16 42L17 42L17 41L18 41L18 40L17 40L17 39L18 39L18 38L19 38L19 41L23 41L23 42L22 42L22 43L24 43L24 41L25 41L25 42L28 42L28 43L27 43L27 44L26 44L26 45L25 45L25 44L24 44L24 45L23 45L23 44L21 44L21 45L20 45L20 47L19 47L19 48L21 48L21 49L20 49L20 52L21 52L21 53L25 53L25 51L26 51L26 53L27 53L27 52L34 52L34 50L35 50L35 51L36 51L36 52L35 52L35 54L34 54L34 53L33 53L33 54L34 54L34 56L37 56L37 55L38 55L38 54L39 54L39 55L40 55L40 54L41 54L41 53L43 53L43 52L44 52L44 54L42 54L42 55L41 55L41 56L40 56L40 57L41 57L41 56L44 56L44 54L47 54L47 53L48 53L48 52L49 52L49 53L50 53L50 54L49 54L49 55L48 55L48 56L49 56L49 55L50 55L50 54L51 54L51 52L52 52L52 51L54 51L54 52L57 52L57 51L56 51L56 50L58 50L58 49L56 49L56 48L57 48L57 47L54 47L54 48L53 48L53 46L52 46L52 47L50 47L50 46L51 46L51 43L52 43L52 41L55 41L55 42L56 42L56 44L55 44L55 43L53 43L53 45L54 45L54 44L55 44L55 45L56 45L56 46L57 46L57 45L58 45L58 46L60 46L60 44L59 44L59 43L60 43L60 42L59 42L59 41L55 41L55 39L57 39L57 37L56 37L56 36L55 36L55 35L56 35L56 34L57 34L57 33L58 33L58 32L59 32L59 30L60 30L60 28L59 28L59 27L58 27L58 28L57 28L57 29L58 29L58 30L57 30L57 33L56 33L56 34L55 34L55 33L54 33L54 34L53 34L53 33L51 33L51 31L52 31L52 26L53 26L53 27L55 27L55 28L56 28L56 27L55 27L55 26L53 26L53 25L55 25L55 24L53 24L53 25L50 25L50 26L49 26L49 25L48 25L48 24L49 24L49 23L50 23L50 22L53 22L53 23L57 23L57 20L55 20L55 22L53 22L53 21L54 21L54 20L53 20L53 21L51 21L51 20L52 20L52 18L53 18L53 17L54 17L54 16L53 16L53 17L51 17L51 16L52 16L52 15L53 15L53 14L54 14L54 11L57 11L57 10L56 10L56 9L55 9L55 10L54 10L54 11L53 11L53 9L50 9L50 8L49 8L49 7L50 7L50 5L49 5L49 4L46 4L46 5L45 5L45 7L46 7L46 8L47 8L47 9L45 9L45 8L43 8L43 7L44 7L44 4L45 4L45 3L43 3L43 5L41 5L41 3L42 3L42 2L45 2L45 1ZM46 2L46 3L47 3L47 2ZM48 2L48 3L50 3L50 2ZM23 3L23 4L21 4L21 5L20 5L20 7L21 7L21 6L22 6L22 8L23 8L23 9L24 9L24 10L25 10L25 9L24 9L24 8L25 8L25 6L24 6L24 8L23 8L23 6L22 6L22 5L23 5L23 4L24 4L24 5L25 5L25 4L24 4L24 3ZM30 3L30 4L31 4L31 3ZM39 3L39 4L40 4L40 3ZM51 3L51 4L52 4L52 3ZM9 5L9 7L10 7L10 5ZM29 5L29 8L32 8L32 5ZM35 5L35 6L34 6L34 8L35 8L35 10L34 10L34 9L33 9L33 13L32 13L32 14L31 14L31 15L32 15L32 14L34 14L34 15L36 15L36 14L34 14L34 13L36 13L36 12L38 12L38 13L37 13L37 14L39 14L39 15L37 15L37 16L33 16L33 17L32 17L32 16L30 16L30 15L29 15L29 14L30 14L30 13L29 13L29 14L28 14L28 13L26 13L26 12L28 12L28 11L26 11L26 12L25 12L25 13L26 13L26 16L25 16L25 15L24 15L24 17L23 17L23 18L22 18L22 17L21 17L21 19L23 19L23 20L24 20L24 19L23 19L23 18L24 18L24 17L25 17L25 18L27 18L27 19L26 19L26 20L25 20L25 21L24 21L24 22L27 22L27 26L26 26L26 25L24 25L24 24L26 24L26 23L23 23L23 21L22 21L22 23L19 23L19 25L20 25L20 24L21 24L21 27L22 27L22 28L20 28L20 29L19 29L19 30L20 30L20 31L22 31L22 30L23 30L23 29L22 29L22 28L23 28L23 25L24 25L24 26L25 26L25 27L24 27L24 28L25 28L25 29L24 29L24 30L25 30L25 29L26 29L26 31L25 31L25 32L23 32L23 33L24 33L24 34L23 34L23 35L22 35L22 36L23 36L23 35L24 35L24 36L25 36L25 37L22 37L22 38L20 38L20 39L21 39L21 40L23 40L23 39L26 39L26 40L25 40L25 41L28 41L28 40L29 40L29 41L31 41L31 42L30 42L30 43L29 43L29 44L27 44L27 45L26 45L26 46L27 46L27 47L26 47L26 48L25 48L25 47L24 47L24 49L23 49L23 45L22 45L22 47L21 47L21 48L22 48L22 49L21 49L21 51L22 51L22 52L24 52L24 51L22 51L22 49L23 49L23 50L24 50L24 49L26 49L26 50L27 50L27 51L28 51L28 50L27 50L27 49L28 49L28 47L29 47L29 51L30 51L30 49L32 49L32 48L31 48L31 47L32 47L32 46L33 46L33 45L36 45L36 44L38 44L38 45L37 45L37 46L40 46L40 47L39 47L39 50L38 50L38 49L37 49L37 48L36 48L36 46L34 46L34 47L33 47L33 50L32 50L32 51L33 51L33 50L34 50L34 49L35 49L35 50L36 50L36 51L37 51L37 52L36 52L36 53L38 53L38 51L39 51L39 50L40 50L40 48L41 48L41 46L40 46L40 45L39 45L39 44L42 44L42 46L43 46L43 47L42 47L42 48L43 48L43 49L42 49L42 50L43 50L43 51L42 51L42 52L43 52L43 51L44 51L44 52L45 52L45 53L47 53L47 52L46 52L46 51L47 51L47 50L46 50L46 51L44 51L44 48L45 48L45 47L47 47L47 48L48 48L48 49L49 49L49 50L48 50L48 51L49 51L49 52L50 52L50 51L51 51L51 50L52 50L52 49L53 49L53 48L51 48L51 50L50 50L50 48L48 48L48 47L49 47L49 46L50 46L50 45L49 45L49 44L47 44L47 43L49 43L49 42L50 42L50 43L51 43L51 42L50 42L50 40L51 40L51 41L52 41L52 40L53 40L53 39L55 39L55 37L53 37L53 36L54 36L54 35L55 35L55 34L54 34L54 35L52 35L52 34L50 34L50 33L49 33L49 32L48 32L48 31L51 31L51 30L50 30L50 29L51 29L51 28L50 28L50 29L49 29L49 28L47 28L47 30L45 30L45 31L44 31L44 32L43 32L43 33L42 33L42 31L41 31L41 30L39 30L39 31L40 31L40 32L38 32L38 33L37 33L37 32L36 32L36 31L38 31L38 30L37 30L37 29L38 29L38 28L37 28L37 27L39 27L39 28L41 28L41 27L40 27L40 26L41 26L41 25L42 25L42 26L43 26L43 25L42 25L42 24L41 24L41 23L42 23L42 22L43 22L43 20L45 20L45 21L44 21L44 22L45 22L45 21L47 21L47 19L49 19L49 20L48 20L48 21L49 21L49 22L50 22L50 21L49 21L49 20L51 20L51 18L50 18L50 15L51 15L51 14L52 14L52 13L53 13L53 12L51 12L51 11L52 11L52 10L51 10L51 11L50 11L50 9L49 9L49 8L48 8L48 9L49 9L49 12L48 12L48 13L47 13L47 12L46 12L46 11L47 11L47 10L46 10L46 11L44 11L44 12L43 12L43 11L42 11L42 10L43 10L43 9L41 9L41 10L40 10L40 9L39 9L39 10L38 10L38 8L41 8L41 6L40 6L40 5L38 5L38 8L35 8L35 6L36 6L36 7L37 7L37 5ZM46 5L46 7L47 7L47 5ZM48 5L48 7L49 7L49 5ZM16 6L16 7L17 7L17 6ZM27 6L27 7L28 7L28 6ZM30 6L30 7L31 7L31 6ZM39 6L39 7L40 7L40 6ZM42 6L42 7L43 7L43 6ZM0 8L0 9L1 9L1 11L3 11L3 12L2 12L2 14L3 14L3 12L5 12L5 13L8 13L8 14L9 14L9 13L11 13L11 14L12 14L12 15L13 15L13 16L14 16L14 15L13 15L13 13L14 13L14 12L13 12L13 13L12 13L12 11L10 11L10 12L9 12L9 10L6 10L6 11L8 11L8 12L5 12L5 10L4 10L4 9L5 9L5 8ZM59 8L59 9L60 9L60 8ZM2 9L2 10L3 10L3 11L4 11L4 10L3 10L3 9ZM36 9L36 11L34 11L34 12L36 12L36 11L38 11L38 10L37 10L37 9ZM44 9L44 10L45 10L45 9ZM19 10L19 11L20 11L20 10ZM39 10L39 11L40 11L40 10ZM16 11L16 12L18 12L18 11ZM58 11L58 12L59 12L59 11ZM8 12L8 13L9 13L9 12ZM39 12L39 13L41 13L41 14L40 14L40 15L39 15L39 16L37 16L37 17L33 17L33 18L32 18L32 19L31 19L31 20L29 20L29 19L28 19L28 21L27 21L27 20L26 20L26 21L27 21L27 22L29 22L29 23L28 23L28 24L29 24L29 25L28 25L28 27L27 27L27 28L26 28L26 27L25 27L25 28L26 28L26 29L27 29L27 32L25 32L25 34L26 34L26 35L25 35L25 36L26 36L26 37L25 37L25 38L26 38L26 37L27 37L27 38L28 38L28 37L27 37L27 36L29 36L29 37L30 37L30 36L29 36L29 35L30 35L30 34L31 34L31 35L32 35L32 36L31 36L31 39L30 39L30 38L29 38L29 40L31 40L31 41L33 41L33 39L35 39L35 40L37 40L37 39L38 39L38 43L40 43L40 42L41 42L41 43L42 43L42 44L44 44L44 45L45 45L45 46L44 46L44 47L43 47L43 48L44 48L44 47L45 47L45 46L47 46L47 47L48 47L48 46L47 46L47 45L45 45L45 44L46 44L46 43L45 43L45 42L48 42L48 40L50 40L50 39L48 39L48 38L49 38L49 37L48 37L48 36L50 36L50 38L51 38L51 40L52 40L52 39L53 39L53 37L52 37L52 38L51 38L51 36L52 36L52 35L51 35L51 36L50 36L50 34L49 34L49 33L48 33L48 32L47 32L47 31L48 31L48 30L49 30L49 29L48 29L48 30L47 30L47 31L46 31L46 32L47 32L47 33L45 33L45 32L44 32L44 34L42 34L42 35L41 35L41 34L40 34L40 37L39 37L39 36L37 36L37 35L36 35L36 34L37 34L37 33L35 33L35 31L36 31L36 30L35 30L35 29L36 29L36 28L35 28L35 27L34 27L34 26L36 26L36 27L37 27L37 25L34 25L34 26L33 26L33 24L32 24L32 23L33 23L33 22L34 22L34 24L37 24L37 23L38 23L38 26L39 26L39 25L41 25L41 24L39 24L39 23L40 23L40 22L39 22L39 21L40 21L40 20L43 20L43 18L44 18L44 17L45 17L45 16L46 16L46 18L47 18L47 17L48 17L48 16L49 16L49 15L50 15L50 14L51 14L51 12L49 12L49 15L48 15L48 16L46 16L46 15L45 15L45 16L44 16L44 15L43 15L43 14L47 14L47 13L46 13L46 12L44 12L44 13L43 13L43 14L42 14L42 13L41 13L41 12ZM41 14L41 15L40 15L40 16L39 16L39 18L38 18L38 19L37 19L37 18L36 18L36 19L37 19L37 20L35 20L35 18L33 18L33 19L32 19L32 20L33 20L33 21L32 21L32 22L31 22L31 21L30 21L30 22L31 22L31 23L29 23L29 24L31 24L31 23L32 23L32 22L33 22L33 21L34 21L34 22L35 22L35 21L37 21L37 22L36 22L36 23L37 23L37 22L38 22L38 23L39 23L39 22L38 22L38 21L37 21L37 20L40 20L40 19L41 19L41 18L43 18L43 17L44 17L44 16L42 16L42 17L40 17L40 16L41 16L41 15L42 15L42 14ZM10 15L10 17L11 17L11 15ZM28 15L28 16L26 16L26 17L27 17L27 18L28 18L28 17L30 17L30 18L31 18L31 17L30 17L30 16L29 16L29 15ZM56 16L56 17L57 17L57 16ZM15 17L15 18L16 18L16 17ZM33 19L33 20L34 20L34 19ZM0 20L0 22L1 22L1 20ZM20 20L20 21L21 21L21 20ZM6 21L6 22L7 22L7 23L8 23L8 22L9 22L9 21ZM2 22L2 23L3 23L3 22ZM11 22L11 23L12 23L12 22ZM46 22L46 23L44 23L44 24L45 24L45 25L44 25L44 26L45 26L45 27L44 27L44 28L43 28L43 27L42 27L42 30L44 30L44 28L45 28L45 27L47 27L47 26L45 26L45 25L47 25L47 24L48 24L48 23L47 23L47 22ZM60 22L60 23L61 23L61 22ZM4 23L4 24L3 24L3 25L4 25L4 24L5 24L5 23ZM22 23L22 25L23 25L23 23ZM51 23L51 24L52 24L52 23ZM29 26L29 27L28 27L28 28L27 28L27 29L28 29L28 34L27 34L27 33L26 33L26 34L27 34L27 35L28 35L28 34L29 34L29 33L31 33L31 34L32 34L32 35L33 35L33 36L32 36L32 37L33 37L33 38L32 38L32 39L33 39L33 38L34 38L34 37L33 37L33 36L34 36L34 35L35 35L35 34L34 34L34 33L33 33L33 31L35 31L35 30L34 30L34 27L33 27L33 26L31 26L31 27L30 27L30 26ZM48 26L48 27L49 27L49 26ZM50 26L50 27L51 27L51 26ZM4 27L4 28L7 28L7 27ZM31 27L31 28L32 28L32 27ZM58 28L58 29L59 29L59 28ZM5 29L5 32L8 32L8 29ZM20 29L20 30L21 30L21 29ZM29 29L29 32L32 32L32 29ZM53 29L53 32L56 32L56 29ZM6 30L6 31L7 31L7 30ZM30 30L30 31L31 31L31 30ZM54 30L54 31L55 31L55 30ZM3 32L3 34L7 34L7 33L4 33L4 32ZM16 32L16 33L17 33L17 32ZM40 32L40 33L41 33L41 32ZM38 33L38 34L39 34L39 33ZM44 34L44 36L46 36L46 37L45 37L45 39L44 39L44 38L43 38L43 37L42 37L42 36L43 36L43 35L42 35L42 36L41 36L41 37L42 37L42 38L43 38L43 39L42 39L42 40L43 40L43 41L41 41L41 42L43 42L43 43L44 43L44 44L45 44L45 43L44 43L44 40L47 40L47 38L46 38L46 37L47 37L47 36L48 36L48 35L47 35L47 34L46 34L46 35L45 35L45 34ZM58 35L58 36L60 36L60 35ZM18 36L18 37L19 37L19 36ZM20 36L20 37L21 37L21 36ZM36 36L36 37L37 37L37 38L38 38L38 39L39 39L39 42L40 42L40 40L41 40L41 38L40 38L40 39L39 39L39 38L38 38L38 37L37 37L37 36ZM58 37L58 38L59 38L59 37ZM1 38L1 40L2 40L2 38ZM5 38L5 39L6 39L6 38ZM22 38L22 39L23 39L23 38ZM3 39L3 41L4 41L4 39ZM34 41L34 42L35 42L35 41ZM18 42L18 43L17 43L17 44L18 44L18 43L20 43L20 42ZM31 42L31 43L32 43L32 45L33 45L33 43L32 43L32 42ZM58 42L58 43L57 43L57 44L56 44L56 45L57 45L57 44L58 44L58 45L59 45L59 44L58 44L58 43L59 43L59 42ZM11 43L11 44L12 44L12 43ZM34 43L34 44L36 44L36 43ZM24 45L24 46L25 46L25 45ZM28 45L28 46L29 46L29 47L30 47L30 46L31 46L31 45ZM15 46L15 48L16 48L16 46ZM1 47L1 48L2 48L2 47ZM34 47L34 48L35 48L35 47ZM26 48L26 49L27 49L27 48ZM54 48L54 49L55 49L55 50L54 50L54 51L55 51L55 50L56 50L56 49L55 49L55 48ZM3 49L3 50L4 50L4 49ZM15 49L15 50L14 50L14 51L13 51L13 50L12 50L12 51L13 51L13 52L14 52L14 51L15 51L15 52L16 52L16 51L15 51L15 50L16 50L16 49ZM3 51L3 52L4 52L4 51ZM9 51L9 52L8 52L8 53L9 53L9 52L10 52L10 54L11 54L11 52L10 52L10 51ZM40 51L40 52L41 52L41 51ZM60 52L60 53L61 53L61 52ZM29 53L29 56L32 56L32 53ZM53 53L53 56L56 56L56 53ZM30 54L30 55L31 55L31 54ZM36 54L36 55L37 55L37 54ZM54 54L54 55L55 55L55 54ZM60 54L60 55L59 55L59 56L58 56L58 57L60 57L60 60L58 60L58 59L56 59L56 60L58 60L58 61L61 61L61 54ZM21 55L21 56L22 56L22 55ZM24 55L24 56L26 56L26 55ZM8 56L8 61L9 61L9 60L10 60L10 61L11 61L11 60L12 60L12 59L11 59L11 60L10 60L10 59L9 59L9 58L10 58L10 56ZM15 57L15 58L14 58L14 59L17 59L17 58L18 58L18 57ZM33 57L33 58L34 58L34 59L36 59L36 58L37 58L37 57ZM38 57L38 58L39 58L39 57ZM29 58L29 59L30 59L30 58ZM46 58L46 59L47 59L47 58ZM21 59L21 60L20 60L20 61L21 61L21 60L22 60L22 59ZM42 59L42 60L43 60L43 61L44 61L44 60L45 60L45 59L44 59L44 60L43 60L43 59ZM0 0L0 7L7 7L7 0ZM1 1L1 6L6 6L6 1ZM2 2L2 5L5 5L5 2ZM54 0L54 7L61 7L61 0ZM55 1L55 6L60 6L60 1ZM56 2L56 5L59 5L59 2ZM0 54L0 61L7 61L7 54ZM1 55L1 60L6 60L6 55ZM2 56L2 59L5 59L5 56Z" fill="#000000"/></g></g></svg>
