<?xml version="1.0" encoding="UTF-8"?>
<svg xmlns="http://www.w3.org/2000/svg" version="1.1" width="300" height="300" viewBox="0 0 300 300"><rect x="0" y="0" width="300" height="300" fill="#ffffff"/><g transform="scale(4.918)"><g transform="translate(0,0)"><path fill-rule="evenodd" d="M9 0L9 1L8 1L8 3L9 3L9 2L10 2L10 0ZM11 0L11 1L13 1L13 2L14 2L14 3L16 3L16 4L15 4L15 5L14 5L14 4L13 4L13 3L10 3L10 4L8 4L8 8L6 8L6 9L8 9L8 10L5 10L5 9L4 9L4 8L3 8L3 14L2 14L2 12L0 12L0 13L1 13L1 14L0 14L0 16L1 16L1 18L0 18L0 20L1 20L1 18L3 18L3 21L2 21L2 25L3 25L3 26L5 26L5 25L7 25L7 26L6 26L6 27L7 27L7 28L5 28L5 27L3 27L3 28L1 28L1 27L0 27L0 28L1 28L1 29L3 29L3 30L2 30L2 32L1 32L1 31L0 31L0 33L1 33L1 35L0 35L0 36L1 36L1 37L0 37L0 38L1 38L1 39L0 39L0 40L1 40L1 41L2 41L2 40L3 40L3 42L2 42L2 43L1 43L1 42L0 42L0 43L1 43L1 45L0 45L0 48L1 48L1 49L0 49L0 50L1 50L1 49L2 49L2 47L3 47L3 50L2 50L2 51L0 51L0 53L4 53L4 52L5 52L5 51L7 51L7 50L8 50L8 47L9 47L9 48L10 48L10 47L12 47L12 46L10 46L10 47L9 47L9 46L8 46L8 45L7 45L7 44L8 44L8 43L10 43L10 44L9 44L9 45L12 45L12 44L13 44L13 45L14 45L14 46L15 46L15 51L14 51L14 50L11 50L11 49L9 49L9 50L10 50L10 51L11 51L11 55L12 55L12 56L13 56L13 57L11 57L11 56L9 56L9 57L8 57L8 58L9 58L9 59L8 59L8 61L9 61L9 59L10 59L10 60L13 60L13 61L14 61L14 59L15 59L15 58L16 58L16 57L15 57L15 58L14 58L14 56L22 56L22 58L23 58L23 57L24 57L24 56L25 56L25 58L24 58L24 59L23 59L23 60L21 60L21 61L23 61L23 60L25 60L25 61L31 61L31 60L32 60L32 61L37 61L37 60L39 60L39 59L40 59L40 61L41 61L41 57L42 57L42 55L41 55L41 54L40 54L40 51L39 51L39 50L38 50L38 51L34 51L34 50L36 50L36 49L37 49L37 47L38 47L38 45L37 45L37 44L39 44L39 43L37 43L37 42L39 42L39 41L40 41L40 43L41 43L41 44L40 44L40 45L39 45L39 46L40 46L40 45L41 45L41 47L39 47L39 48L38 48L38 49L40 49L40 50L41 50L41 52L42 52L42 53L43 53L43 54L44 54L44 55L43 55L43 57L44 57L44 56L48 56L48 57L49 57L49 59L48 59L48 61L49 61L49 60L51 60L51 59L52 59L52 58L54 58L54 57L55 57L55 58L56 58L56 59L55 59L55 60L56 60L56 61L57 61L57 60L58 60L58 59L59 59L59 58L60 58L60 59L61 59L61 58L60 58L60 57L61 57L61 56L59 56L59 55L61 55L61 53L60 53L60 54L57 54L57 52L58 52L58 53L59 53L59 52L61 52L61 49L57 49L57 50L56 50L56 48L58 48L58 47L59 47L59 48L60 48L60 47L61 47L61 44L59 44L59 43L57 43L57 44L56 44L56 45L57 45L57 47L55 47L55 46L53 46L53 45L55 45L55 42L52 42L52 45L51 45L51 44L49 44L49 43L48 43L48 42L49 42L49 40L50 40L50 42L51 42L51 39L52 39L52 40L53 40L53 41L55 41L55 40L57 40L57 39L56 39L56 37L51 37L51 38L50 38L50 37L49 37L49 36L50 36L50 35L48 35L48 36L47 36L47 37L45 37L45 36L46 36L46 35L47 35L47 34L49 34L49 33L51 33L51 34L52 34L52 33L53 33L53 35L52 35L52 36L53 36L53 35L54 35L54 36L55 36L55 34L56 34L56 35L59 35L59 37L58 37L58 36L57 36L57 38L60 38L60 39L59 39L59 40L58 40L58 41L56 41L56 42L58 42L58 41L59 41L59 42L60 42L60 43L61 43L61 41L60 41L60 39L61 39L61 36L60 36L60 35L61 35L61 33L60 33L60 34L59 34L59 33L58 33L58 32L61 32L61 28L58 28L58 27L59 27L59 25L58 25L58 24L55 24L55 27L54 27L54 26L53 26L53 25L52 25L52 26L53 26L53 27L54 27L54 28L52 28L52 27L51 27L51 26L50 26L50 24L49 24L49 22L50 22L50 21L51 21L51 20L50 20L50 21L49 21L49 19L50 19L50 18L51 18L51 19L52 19L52 18L51 18L51 16L50 16L50 18L48 18L48 17L49 17L49 14L50 14L50 15L51 15L51 14L50 14L50 13L51 13L51 10L50 10L50 11L49 11L49 10L48 10L48 9L49 9L49 8L50 8L50 9L51 9L51 5L52 5L52 4L53 4L53 0L51 0L51 2L50 2L50 3L49 3L49 4L50 4L50 5L49 5L49 6L48 6L48 7L47 7L47 6L46 6L46 4L47 4L47 3L48 3L48 1L50 1L50 0L48 0L48 1L47 1L47 0L46 0L46 1L47 1L47 3L46 3L46 2L45 2L45 0L41 0L41 2L40 2L40 1L39 1L39 0L38 0L38 1L37 1L37 0L33 0L33 1L34 1L34 2L35 2L35 3L36 3L36 2L35 2L35 1L37 1L37 3L38 3L38 4L36 4L36 5L39 5L39 3L38 3L38 2L40 2L40 3L41 3L41 4L40 4L40 5L41 5L41 6L40 6L40 7L41 7L41 8L38 8L38 9L37 9L37 6L36 6L36 7L35 7L35 5L34 5L34 4L32 4L32 3L33 3L33 2L32 2L32 1L30 1L30 2L29 2L29 0L28 0L28 3L27 3L27 1L26 1L26 0L23 0L23 1L22 1L22 0L18 0L18 1L20 1L20 2L23 2L23 4L21 4L21 3L19 3L19 6L18 6L18 7L19 7L19 8L17 8L17 5L16 5L16 4L17 4L17 3L18 3L18 2L17 2L17 3L16 3L16 0L14 0L14 1L13 1L13 0ZM23 1L23 2L24 2L24 3L25 3L25 4L26 4L26 5L24 5L24 6L23 6L23 7L24 7L24 6L25 6L25 7L26 7L26 9L27 9L27 7L28 7L28 6L27 6L27 7L26 7L26 5L28 5L28 4L27 4L27 3L25 3L25 2L26 2L26 1ZM43 1L43 2L44 2L44 1ZM42 3L42 4L41 4L41 5L42 5L42 4L43 4L43 5L45 5L45 3L44 3L44 4L43 4L43 3ZM51 3L51 4L52 4L52 3ZM12 4L12 5L13 5L13 4ZM15 5L15 7L14 7L14 6L13 6L13 7L12 7L12 6L11 6L11 7L10 7L10 6L9 6L9 8L8 8L8 9L9 9L9 8L11 8L11 9L12 9L12 11L10 11L10 10L9 10L9 12L8 12L8 11L6 11L6 12L7 12L7 13L6 13L6 14L7 14L7 13L9 13L9 14L8 14L8 15L5 15L5 16L4 16L4 14L5 14L5 12L4 12L4 14L3 14L3 16L4 16L4 18L5 18L5 21L4 21L4 22L5 22L5 23L3 23L3 24L4 24L4 25L5 25L5 24L7 24L7 25L8 25L8 23L6 23L6 22L8 22L8 21L9 21L9 26L10 26L10 27L8 27L8 28L10 28L10 29L14 29L14 30L13 30L13 31L12 31L12 32L13 32L13 31L14 31L14 32L15 32L15 33L14 33L14 34L13 34L13 33L8 33L8 34L7 34L7 33L5 33L5 34L4 34L4 35L5 35L5 34L7 34L7 35L6 35L6 36L8 36L8 38L7 38L7 37L5 37L5 36L4 36L4 38L3 38L3 36L2 36L2 35L3 35L3 34L2 34L2 35L1 35L1 36L2 36L2 38L3 38L3 39L4 39L4 38L7 38L7 39L5 39L5 40L4 40L4 41L5 41L5 42L4 42L4 43L2 43L2 45L4 45L4 44L5 44L5 46L3 46L3 47L4 47L4 50L7 50L7 49L5 49L5 48L7 48L7 47L8 47L8 46L7 46L7 45L6 45L6 44L7 44L7 43L6 43L6 42L7 42L7 41L6 41L6 40L7 40L7 39L8 39L8 38L10 38L10 37L11 37L11 36L12 36L12 37L13 37L13 36L14 36L14 39L13 39L13 38L12 38L12 39L13 39L13 40L12 40L12 41L11 41L11 40L10 40L10 39L9 39L9 40L8 40L8 42L10 42L10 43L11 43L11 44L12 44L12 43L13 43L13 41L15 41L15 43L14 43L14 44L15 44L15 46L16 46L16 47L17 47L17 46L18 46L18 48L17 48L17 49L18 49L18 48L19 48L19 50L18 50L18 51L20 51L20 50L22 50L22 53L23 53L23 55L22 55L22 54L21 54L21 55L22 55L22 56L24 56L24 54L25 54L25 51L27 51L27 53L26 53L26 54L27 54L27 53L28 53L28 52L29 52L29 51L28 51L28 50L29 50L29 49L30 49L30 47L31 47L31 48L32 48L32 47L33 47L33 48L36 48L36 47L37 47L37 46L36 46L36 47L34 47L34 46L35 46L35 45L36 45L36 44L34 44L34 45L33 45L33 46L32 46L32 47L31 47L31 46L29 46L29 45L30 45L30 44L31 44L31 45L32 45L32 44L33 44L33 43L36 43L36 42L37 42L37 41L35 41L35 40L36 40L36 39L37 39L37 40L38 40L38 38L39 38L39 37L36 37L36 35L37 35L37 36L38 36L38 35L39 35L39 33L40 33L40 36L41 36L41 37L40 37L40 38L41 38L41 39L44 39L44 38L45 38L45 37L44 37L44 36L45 36L45 35L46 35L46 34L47 34L47 33L46 33L46 32L48 32L48 29L46 29L46 28L47 28L47 26L49 26L49 27L48 27L48 28L49 28L49 30L50 30L50 31L49 31L49 32L51 32L51 30L52 30L52 28L51 28L51 30L50 30L50 28L49 28L49 27L50 27L50 26L49 26L49 25L47 25L47 24L46 24L46 22L47 22L47 23L48 23L48 22L49 22L49 21L48 21L48 18L47 18L47 17L48 17L48 15L47 15L47 14L48 14L48 13L47 13L47 14L46 14L46 13L45 13L45 14L44 14L44 12L45 12L45 11L46 11L46 10L47 10L47 9L48 9L48 8L47 8L47 7L46 7L46 6L45 6L45 7L46 7L46 8L47 8L47 9L45 9L45 8L44 8L44 6L43 6L43 7L42 7L42 6L41 6L41 7L42 7L42 12L41 12L41 13L42 13L42 14L39 14L39 13L40 13L40 11L39 11L39 10L40 10L40 9L38 9L38 11L39 11L39 13L36 13L36 14L34 14L34 10L37 10L37 9L36 9L36 8L35 8L35 7L34 7L34 6L33 6L33 12L32 12L32 9L28 9L28 10L25 10L25 8L24 8L24 9L23 9L23 10L22 10L22 11L21 11L21 10L20 10L20 9L21 9L21 8L19 8L19 9L17 9L17 8L16 8L16 5ZM21 5L21 7L22 7L22 5ZM29 5L29 8L32 8L32 5ZM19 6L19 7L20 7L20 6ZM30 6L30 7L31 7L31 6ZM38 6L38 7L39 7L39 6ZM49 6L49 7L50 7L50 6ZM52 6L52 8L53 8L53 6ZM11 7L11 8L12 8L12 7ZM13 7L13 10L14 10L14 12L13 12L13 11L12 11L12 12L11 12L11 13L10 13L10 14L9 14L9 16L6 16L6 17L5 17L5 18L6 18L6 19L7 19L7 18L8 18L8 19L9 19L9 16L10 16L10 19L11 19L11 17L12 17L12 16L13 16L13 17L14 17L14 18L15 18L15 19L14 19L14 20L10 20L10 21L11 21L11 22L10 22L10 23L12 23L12 21L13 21L13 22L14 22L14 24L13 24L13 25L14 25L14 28L15 28L15 25L16 25L16 27L17 27L17 28L16 28L16 29L18 29L18 31L17 31L17 32L16 32L16 36L17 36L17 32L18 32L18 38L17 38L17 37L16 37L16 38L17 38L17 39L14 39L14 40L15 40L15 41L17 41L17 42L18 42L18 43L19 43L19 44L18 44L18 46L19 46L19 48L21 48L21 49L23 49L23 48L25 48L25 49L26 49L26 50L28 50L28 49L29 49L29 48L26 48L26 47L27 47L27 45L29 45L29 44L27 44L27 43L26 43L26 41L27 41L27 40L26 40L26 41L25 41L25 42L24 42L24 41L21 41L21 40L20 40L20 38L19 38L19 36L21 36L21 39L23 39L23 40L24 40L24 38L22 38L22 37L23 37L23 36L26 36L26 38L25 38L25 39L26 39L26 38L27 38L27 36L30 36L30 37L28 37L28 39L29 39L29 40L28 40L28 42L29 42L29 41L30 41L30 42L34 42L34 40L35 40L35 39L34 39L34 40L33 40L33 41L32 41L32 39L33 39L33 38L31 38L31 37L33 37L33 35L32 35L32 36L30 36L30 35L31 35L31 33L32 33L32 34L33 34L33 29L34 29L34 27L33 27L33 28L32 28L32 26L33 26L33 25L34 25L34 26L35 26L35 27L36 27L36 28L35 28L35 30L36 30L36 31L34 31L34 33L35 33L35 32L36 32L36 33L37 33L37 35L38 35L38 32L40 32L40 33L41 33L41 32L40 32L40 31L38 31L38 32L37 32L37 30L39 30L39 29L38 29L38 27L39 27L39 26L41 26L41 23L42 23L42 24L43 24L43 27L44 27L44 28L41 28L41 27L40 27L40 28L41 28L41 29L43 29L43 30L44 30L44 31L43 31L43 32L42 32L42 33L43 33L43 35L45 35L45 34L46 34L46 33L44 33L44 31L45 31L45 30L46 30L46 29L45 29L45 27L44 27L44 25L46 25L46 26L47 26L47 25L46 25L46 24L43 24L43 23L42 23L42 21L43 21L43 20L45 20L45 21L44 21L44 23L45 23L45 22L46 22L46 21L47 21L47 20L46 20L46 19L43 19L43 20L42 20L42 21L41 21L41 19L42 19L42 16L41 16L41 15L40 15L40 16L41 16L41 17L38 17L38 15L39 15L39 14L38 14L38 15L37 15L37 14L36 14L36 16L35 16L35 15L34 15L34 16L33 16L33 15L32 15L32 14L33 14L33 13L31 13L31 14L29 14L29 13L28 13L28 12L27 12L27 11L25 11L25 10L23 10L23 12L21 12L21 13L23 13L23 14L22 14L22 16L25 16L25 18L24 18L24 17L19 17L19 16L21 16L21 15L20 15L20 12L19 12L19 11L20 11L20 10L18 10L18 12L17 12L17 13L16 13L16 14L17 14L17 15L16 15L16 16L13 16L13 15L11 15L11 14L13 14L13 13L14 13L14 14L15 14L15 12L16 12L16 11L17 11L17 10L16 10L16 11L15 11L15 9L14 9L14 7ZM0 8L0 9L1 9L1 10L0 10L0 11L1 11L1 10L2 10L2 8ZM54 8L54 9L55 9L55 12L54 12L54 10L53 10L53 13L52 13L52 17L53 17L53 16L54 16L54 14L53 14L53 13L55 13L55 12L56 12L56 13L57 13L57 14L55 14L55 19L56 19L56 20L55 20L55 21L56 21L56 22L55 22L55 23L57 23L57 22L58 22L58 23L59 23L59 24L60 24L60 23L61 23L61 20L60 20L60 19L61 19L61 13L57 13L57 12L56 12L56 11L57 11L57 8ZM58 8L58 9L59 9L59 10L60 10L60 11L59 11L59 12L61 12L61 9L60 9L60 8ZM43 9L43 12L42 12L42 13L43 13L43 12L44 12L44 11L45 11L45 9ZM4 10L4 11L5 11L5 10ZM28 10L28 11L29 11L29 10ZM30 10L30 11L31 11L31 10ZM24 11L24 12L23 12L23 13L24 13L24 15L25 15L25 16L28 16L28 19L29 19L29 20L27 20L27 19L26 19L26 18L27 18L27 17L26 17L26 18L25 18L25 19L24 19L24 21L23 21L23 23L22 23L22 24L23 24L23 25L22 25L22 26L24 26L24 29L23 29L23 27L21 27L21 25L19 25L19 24L18 24L18 23L19 23L19 22L18 22L18 23L17 23L17 20L19 20L19 21L20 21L20 23L21 23L21 21L20 21L20 20L21 20L21 18L20 18L20 19L17 19L17 20L15 20L15 21L14 21L14 22L16 22L16 23L17 23L17 24L16 24L16 25L17 25L17 24L18 24L18 26L17 26L17 27L19 27L19 26L20 26L20 29L19 29L19 34L20 34L20 35L21 35L21 36L23 36L23 35L24 35L24 34L25 34L25 33L27 33L27 35L26 35L26 36L27 36L27 35L29 35L29 34L30 34L30 33L29 33L29 34L28 34L28 32L27 32L27 31L28 31L28 28L29 28L29 26L28 26L28 25L27 25L27 26L26 26L26 25L25 25L25 24L23 24L23 23L24 23L24 22L25 22L25 23L26 23L26 24L27 24L27 23L28 23L28 24L29 24L29 25L30 25L30 28L31 28L31 26L32 26L32 24L34 24L34 25L35 25L35 24L36 24L36 22L35 22L35 21L36 21L36 19L35 19L35 17L31 17L31 15L29 15L29 14L26 14L26 12L25 12L25 11ZM35 11L35 12L36 12L36 11ZM47 11L47 12L49 12L49 11ZM43 14L43 16L44 16L44 17L43 17L43 18L44 18L44 17L45 17L45 18L46 18L46 16L45 16L45 15L44 15L44 14ZM57 14L57 15L58 15L58 16L59 16L59 19L60 19L60 14ZM1 15L1 16L2 16L2 15ZM17 15L17 16L16 16L16 18L18 18L18 16L19 16L19 15ZM6 17L6 18L7 18L7 17ZM36 17L36 18L37 18L37 17ZM12 18L12 19L13 19L13 18ZM29 18L29 19L32 19L32 23L31 23L31 24L32 24L32 23L33 23L33 21L34 21L34 20L33 20L33 18ZM38 18L38 20L37 20L37 21L38 21L38 22L37 22L37 23L41 23L41 22L40 22L40 21L39 21L39 19L40 19L40 18ZM53 18L53 21L54 21L54 18ZM57 18L57 20L56 20L56 21L58 21L58 22L60 22L60 20L58 20L58 18ZM25 19L25 21L26 21L26 22L28 22L28 23L29 23L29 24L30 24L30 23L29 23L29 22L30 22L30 20L29 20L29 21L26 21L26 19ZM6 20L6 21L7 21L7 20ZM0 21L0 22L1 22L1 21ZM34 22L34 24L35 24L35 22ZM51 22L51 24L54 24L54 22L53 22L53 23L52 23L52 22ZM0 23L0 24L1 24L1 23ZM14 24L14 25L15 25L15 24ZM37 24L37 27L38 27L38 26L39 26L39 24ZM0 25L0 26L1 26L1 25ZM10 25L10 26L12 26L12 27L11 27L11 28L12 28L12 27L13 27L13 26L12 26L12 25ZM56 25L56 27L57 27L57 26L58 26L58 25ZM60 25L60 27L61 27L61 25ZM27 26L27 27L25 27L25 28L26 28L26 29L25 29L25 31L26 31L26 29L27 29L27 27L28 27L28 26ZM21 28L21 29L20 29L20 30L21 30L21 29L22 29L22 28ZM57 28L57 29L58 29L58 28ZM5 29L5 32L8 32L8 29ZM29 29L29 32L32 32L32 29ZM36 29L36 30L37 30L37 29ZM44 29L44 30L45 30L45 29ZM53 29L53 32L56 32L56 29ZM59 29L59 30L57 30L57 32L58 32L58 31L59 31L59 30L60 30L60 29ZM6 30L6 31L7 31L7 30ZM15 30L15 31L16 31L16 30ZM22 30L22 31L21 31L21 32L20 32L20 33L22 33L22 34L23 34L23 33L24 33L24 31L23 31L23 30ZM30 30L30 31L31 31L31 30ZM41 30L41 31L42 31L42 30ZM54 30L54 31L55 31L55 30ZM3 31L3 32L2 32L2 33L4 33L4 31ZM22 31L22 32L23 32L23 31ZM56 33L56 34L58 34L58 33ZM8 34L8 35L9 35L9 36L10 36L10 35L9 35L9 34ZM12 34L12 36L13 36L13 34ZM34 34L34 36L35 36L35 34ZM14 35L14 36L15 36L15 35ZM42 36L42 37L41 37L41 38L42 38L42 37L43 37L43 36ZM34 37L34 38L36 38L36 37ZM48 37L48 38L46 38L46 39L45 39L45 41L44 41L44 40L42 40L42 41L41 41L41 40L40 40L40 41L41 41L41 43L42 43L42 44L41 44L41 45L42 45L42 47L41 47L41 48L42 48L42 47L43 47L43 45L46 45L46 46L47 46L47 44L43 44L43 43L44 43L44 42L45 42L45 43L47 43L47 42L48 42L48 41L46 41L46 39L48 39L48 38L49 38L49 37ZM29 38L29 39L30 39L30 40L31 40L31 38ZM1 39L1 40L2 40L2 39ZM17 39L17 41L18 41L18 42L19 42L19 43L21 43L21 44L23 44L23 42L22 42L22 43L21 43L21 41L18 41L18 40L19 40L19 39ZM53 39L53 40L54 40L54 39ZM10 41L10 42L11 42L11 43L12 43L12 42L11 42L11 41ZM45 41L45 42L46 42L46 41ZM5 43L5 44L6 44L6 43ZM15 43L15 44L17 44L17 43ZM25 43L25 44L24 44L24 46L25 46L25 44L26 44L26 45L27 45L27 44L26 44L26 43ZM42 44L42 45L43 45L43 44ZM58 44L58 45L59 45L59 44ZM19 45L19 46L20 46L20 47L21 47L21 48L23 48L23 47L21 47L21 45ZM48 45L48 47L49 47L49 49L50 49L50 50L49 50L49 51L50 51L50 50L51 50L51 52L49 52L49 53L52 53L52 50L53 50L53 51L54 51L54 50L55 50L55 51L56 51L56 52L57 52L57 51L58 51L58 52L59 52L59 51L60 51L60 50L57 50L57 51L56 51L56 50L55 50L55 49L53 49L53 48L52 48L52 47L53 47L53 46L52 46L52 47L51 47L51 45L50 45L50 47L49 47L49 45ZM1 46L1 47L2 47L2 46ZM5 46L5 47L7 47L7 46ZM13 47L13 48L14 48L14 47ZM44 47L44 48L43 48L43 49L41 49L41 50L42 50L42 52L44 52L44 48L45 48L45 50L46 50L46 51L47 51L47 52L48 52L48 51L47 51L47 50L46 50L46 49L48 49L48 48L47 48L47 47L46 47L46 48L45 48L45 47ZM50 47L50 49L51 49L51 47ZM31 49L31 52L33 52L33 55L35 55L35 56L33 56L33 57L32 57L32 58L33 58L33 57L34 57L34 58L35 58L35 59L32 59L32 60L36 60L36 58L35 58L35 57L36 57L36 55L37 55L37 58L38 58L38 59L39 59L39 57L38 57L38 56L39 56L39 55L40 55L40 56L41 56L41 55L40 55L40 54L38 54L38 53L39 53L39 51L38 51L38 53L36 53L36 52L35 52L35 53L34 53L34 51L32 51L32 50L34 50L34 49ZM24 50L24 51L23 51L23 52L24 52L24 51L25 51L25 50ZM3 51L3 52L4 52L4 51ZM8 51L8 52L6 52L6 53L8 53L8 55L10 55L10 53L8 53L8 52L9 52L9 51ZM16 51L16 53L15 53L15 55L17 55L17 54L18 54L18 55L20 55L20 53L21 53L21 52L20 52L20 53L19 53L19 54L18 54L18 52L17 52L17 51ZM12 52L12 55L13 55L13 56L14 56L14 52ZM45 52L45 53L44 53L44 54L45 54L45 55L48 55L48 53L46 53L46 52ZM29 53L29 56L32 56L32 53ZM35 53L35 55L36 55L36 53ZM45 53L45 54L46 54L46 53ZM53 53L53 56L56 56L56 53ZM30 54L30 55L31 55L31 54ZM37 54L37 55L38 55L38 54ZM49 54L49 55L50 55L50 56L49 56L49 57L50 57L50 59L51 59L51 58L52 58L52 54ZM54 54L54 55L55 55L55 54ZM57 55L57 56L58 56L58 57L59 57L59 56L58 56L58 55ZM26 56L26 57L28 57L28 59L29 59L29 60L30 60L30 59L31 59L31 57L30 57L30 59L29 59L29 57L28 57L28 56ZM9 57L9 58L10 58L10 59L14 59L14 58L11 58L11 57ZM17 57L17 59L16 59L16 60L17 60L17 61L20 61L20 60L17 60L17 59L19 59L19 58L20 58L20 59L21 59L21 58L20 58L20 57L19 57L19 58L18 58L18 57ZM45 57L45 58L44 58L44 59L43 59L43 60L44 60L44 61L45 61L45 60L47 60L47 58L46 58L46 57ZM25 58L25 60L27 60L27 58ZM57 58L57 59L56 59L56 60L57 60L57 59L58 59L58 58ZM44 59L44 60L45 60L45 59ZM52 60L52 61L53 61L53 60ZM59 60L59 61L61 61L61 60ZM0 0L0 7L7 7L7 0ZM1 1L1 6L6 6L6 1ZM2 2L2 5L5 5L5 2ZM54 0L54 7L61 7L61 0ZM55 1L55 6L60 6L60 1ZM56 2L56 5L59 5L59 2ZM0 54L0 61L7 61L7 54ZM1 55L1 60L6 60L6 55ZM2 56L2 59L5 59L5 56Z" fill="#000000"/></g></g></svg>
