<?xml version="1.0" encoding="UTF-8"?>
<svg xmlns="http://www.w3.org/2000/svg" version="1.1" width="300" height="300" viewBox="0 0 300 300"><rect x="0" y="0" width="300" height="300" fill="#ffffff"/><g transform="scale(5.263)"><g transform="translate(0,0)"><path fill-rule="evenodd" d="M11 0L11 2L10 2L10 1L9 1L9 3L8 3L8 5L9 5L9 3L10 3L10 4L12 4L12 5L11 5L11 6L10 6L10 8L11 8L11 6L12 6L12 7L13 7L13 6L12 6L12 5L13 5L13 3L12 3L12 0ZM13 0L13 1L14 1L14 0ZM15 0L15 2L14 2L14 5L15 5L15 6L14 6L14 8L15 8L15 9L16 9L16 10L11 10L11 11L10 11L10 9L9 9L9 11L8 11L8 8L5 8L5 9L7 9L7 10L6 10L6 11L5 11L5 10L4 10L4 11L3 11L3 12L6 12L6 13L5 13L5 14L4 14L4 13L1 13L1 12L0 12L0 13L1 13L1 14L0 14L0 16L1 16L1 14L2 14L2 17L1 17L1 18L0 18L0 22L1 22L1 25L2 25L2 27L1 27L1 28L3 28L3 27L4 27L4 31L5 31L5 32L4 32L4 33L7 33L7 34L4 34L4 35L9 35L9 36L8 36L8 37L7 37L7 36L6 36L6 37L7 37L7 38L5 38L5 36L4 36L4 38L2 38L2 37L0 37L0 38L1 38L1 39L0 39L0 48L5 48L5 47L9 47L9 48L10 48L10 49L8 49L8 52L9 52L9 53L10 53L10 56L9 56L9 55L8 55L8 57L12 57L12 56L14 56L14 57L21 57L21 56L22 56L22 55L23 55L23 56L24 56L24 53L25 53L25 57L26 57L26 54L27 54L27 56L28 56L28 55L29 55L29 56L30 56L30 57L32 57L32 56L34 56L34 55L33 55L33 54L34 54L34 53L37 53L37 55L38 55L38 53L39 53L39 52L38 52L38 51L40 51L40 50L41 50L41 51L42 51L42 52L41 52L41 53L40 53L40 54L39 54L39 56L41 56L41 57L42 57L42 55L41 55L41 54L43 54L43 55L44 55L44 56L43 56L43 57L44 57L44 56L45 56L45 55L44 55L44 52L43 52L43 51L46 51L46 52L45 52L45 53L47 53L47 50L48 50L48 53L51 53L51 54L52 54L52 55L51 55L51 56L47 56L47 55L46 55L46 56L47 56L47 57L51 57L51 56L52 56L52 55L53 55L53 56L55 56L55 57L56 57L56 56L55 56L55 55L57 55L57 54L55 54L55 55L53 55L53 54L54 54L54 53L53 53L53 52L55 52L55 51L53 51L53 49L54 49L54 50L57 50L57 47L56 47L56 45L55 45L55 46L54 46L54 45L53 45L53 44L55 44L55 43L54 43L54 42L55 42L55 39L56 39L56 40L57 40L57 37L56 37L56 36L57 36L57 35L56 35L56 36L55 36L55 33L57 33L57 32L56 32L56 31L57 31L57 27L56 27L56 26L57 26L57 23L56 23L56 21L54 21L54 20L55 20L55 19L54 19L54 18L55 18L55 17L56 17L56 20L57 20L57 15L56 15L56 16L55 16L55 15L53 15L53 16L55 16L55 17L54 17L54 18L53 18L53 17L52 17L52 18L51 18L51 19L52 19L52 20L53 20L53 22L51 22L51 20L50 20L50 21L48 21L48 22L47 22L47 21L45 21L45 23L44 23L44 25L41 25L41 22L43 22L43 20L45 20L45 19L46 19L46 20L47 20L47 19L48 19L48 20L49 20L49 19L50 19L50 17L51 17L51 16L52 16L52 15L51 15L51 14L52 14L52 13L53 13L53 14L54 14L54 12L55 12L55 13L56 13L56 14L57 14L57 13L56 13L56 10L55 10L55 11L54 11L54 10L53 10L53 11L52 11L52 10L51 10L51 9L47 9L47 5L48 5L48 0L46 0L46 1L47 1L47 2L44 2L44 1L45 1L45 0L44 0L44 1L43 1L43 0L40 0L40 1L39 1L39 0L38 0L38 2L39 2L39 3L36 3L36 5L35 5L35 6L34 6L34 5L33 5L33 3L34 3L34 2L35 2L35 1L36 1L36 2L37 2L37 1L36 1L36 0L34 0L34 1L33 1L33 2L30 2L30 3L29 3L29 0L23 0L23 1L21 1L21 0L20 0L20 1L19 1L19 2L18 2L18 0ZM30 0L30 1L31 1L31 0ZM16 1L16 2L15 2L15 3L16 3L16 2L17 2L17 3L18 3L18 2L17 2L17 1ZM23 1L23 2L22 2L22 3L21 3L21 4L22 4L22 3L24 3L24 2L25 2L25 3L27 3L27 2L26 2L26 1ZM40 1L40 2L41 2L41 4L43 4L43 5L41 5L41 7L42 7L42 8L40 8L40 6L39 6L39 8L37 8L37 7L38 7L38 6L37 6L37 7L36 7L36 6L35 6L35 7L34 7L34 6L33 6L33 5L32 5L32 3L30 3L30 4L31 4L31 9L33 9L33 12L34 12L34 13L33 13L33 15L30 15L30 14L32 14L32 11L31 11L31 10L29 10L29 9L27 9L27 10L26 10L26 9L25 9L25 8L26 8L26 4L25 4L25 8L24 8L24 6L23 6L23 5L24 5L24 4L23 4L23 5L22 5L22 6L21 6L21 11L20 11L20 9L18 9L18 8L19 8L19 7L20 7L20 5L19 5L19 4L20 4L20 3L19 3L19 4L16 4L16 6L15 6L15 8L17 8L17 11L15 11L15 12L14 12L14 11L13 11L13 12L12 12L12 13L11 13L11 12L10 12L10 13L9 13L9 12L8 12L8 14L7 14L7 13L6 13L6 14L5 14L5 15L4 15L4 14L3 14L3 15L4 15L4 16L5 16L5 17L3 17L3 18L2 18L2 19L3 19L3 18L4 18L4 19L6 19L6 20L5 20L5 22L3 22L3 21L2 21L2 20L1 20L1 22L2 22L2 25L3 25L3 26L5 26L5 25L4 25L4 24L7 24L7 23L8 23L8 25L6 25L6 26L8 26L8 25L9 25L9 26L10 26L10 27L11 27L11 29L12 29L12 31L10 31L10 33L13 33L13 34L14 34L14 35L13 35L13 36L12 36L12 35L10 35L10 34L9 34L9 33L8 33L8 34L9 34L9 35L10 35L10 36L9 36L9 37L8 37L8 38L11 38L11 37L10 37L10 36L12 36L12 38L13 38L13 36L14 36L14 37L15 37L15 40L14 40L14 39L12 39L12 40L13 40L13 41L10 41L10 40L11 40L11 39L9 39L9 41L6 41L6 40L8 40L8 39L5 39L5 38L4 38L4 39L3 39L3 40L2 40L2 39L1 39L1 41L2 41L2 42L3 42L3 44L1 44L1 47L2 47L2 45L3 45L3 44L7 44L7 45L5 45L5 46L3 46L3 47L5 47L5 46L8 46L8 43L6 43L6 42L9 42L9 44L10 44L10 45L11 45L11 44L16 44L16 43L17 43L17 42L19 42L19 41L16 41L16 42L15 42L15 40L16 40L16 39L17 39L17 40L18 40L18 39L17 39L17 37L16 37L16 36L14 36L14 35L15 35L15 34L14 34L14 29L13 29L13 27L14 27L14 28L15 28L15 32L17 32L17 36L19 36L19 35L18 35L18 34L19 34L19 33L20 33L20 32L21 32L21 33L22 33L22 34L20 34L20 36L21 36L21 38L22 38L22 39L20 39L20 38L19 38L19 37L18 37L18 38L19 38L19 39L20 39L20 40L21 40L21 41L20 41L20 43L19 43L19 45L20 45L20 44L21 44L21 46L22 46L22 47L20 47L20 46L18 46L18 47L15 47L15 45L14 45L14 46L13 46L13 47L11 47L11 46L9 46L9 47L10 47L10 48L11 48L11 49L13 49L13 51L11 51L11 50L9 50L9 51L11 51L11 52L10 52L10 53L11 53L11 55L13 55L13 54L12 54L12 52L14 52L14 51L15 51L15 52L16 52L16 53L17 53L17 54L16 54L16 55L17 55L17 54L19 54L19 56L21 56L21 55L20 55L20 54L22 54L22 53L24 53L24 52L25 52L25 53L26 53L26 50L23 50L23 51L24 51L24 52L20 52L20 50L21 50L21 49L22 49L22 48L24 48L24 49L25 49L25 48L28 48L28 47L25 47L25 46L27 46L27 45L28 45L28 44L29 44L29 42L31 42L31 43L30 43L30 46L31 46L31 44L32 44L32 45L33 45L33 46L32 46L32 47L30 47L30 48L31 48L31 52L32 52L32 53L30 53L30 56L32 56L32 55L31 55L31 54L32 54L32 53L34 53L34 52L33 52L33 51L34 51L34 50L35 50L35 52L37 52L37 51L38 51L38 50L39 50L39 49L40 49L40 47L41 47L41 48L42 48L42 49L43 49L43 50L42 50L42 51L43 51L43 50L45 50L45 49L46 49L46 50L47 50L47 49L46 49L46 48L47 48L47 47L48 47L48 48L49 48L49 45L51 45L51 46L50 46L50 47L51 47L51 48L54 48L54 49L55 49L55 48L56 48L56 47L55 47L55 48L54 48L54 47L51 47L51 46L52 46L52 45L51 45L51 44L53 44L53 43L52 43L52 42L54 42L54 41L52 41L52 42L51 42L51 44L50 44L50 41L51 41L51 40L52 40L52 39L53 39L53 37L55 37L55 36L53 36L53 35L54 35L54 34L53 34L53 35L52 35L52 34L50 34L50 33L51 33L51 32L50 32L50 31L48 31L48 32L47 32L47 35L46 35L46 36L47 36L47 35L48 35L48 34L49 34L49 36L48 36L48 37L43 37L43 38L42 38L42 39L40 39L40 35L43 35L43 36L44 36L44 34L42 34L42 33L43 33L43 30L42 30L42 29L44 29L44 30L45 30L45 31L46 31L46 30L47 30L47 29L48 29L48 27L47 27L47 24L48 24L48 25L49 25L49 22L48 22L48 23L45 23L45 24L46 24L46 26L45 26L45 25L44 25L44 27L43 27L43 26L40 26L40 24L39 24L39 23L40 23L40 22L41 22L41 21L42 21L42 20L41 20L41 19L44 19L44 18L45 18L45 15L43 15L43 14L45 14L45 13L46 13L46 14L47 14L47 12L45 12L45 13L43 13L43 12L44 12L44 10L41 10L41 14L42 14L42 15L40 15L40 10L39 10L39 11L38 11L38 9L39 9L39 8L40 8L40 9L43 9L43 8L44 8L44 9L45 9L45 10L46 10L46 9L45 9L45 8L46 8L46 5L47 5L47 3L46 3L46 4L45 4L45 8L44 8L44 3L42 3L42 2L43 2L43 1ZM38 4L38 5L40 5L40 4ZM27 5L27 8L30 8L30 5ZM8 6L8 7L9 7L9 6ZM16 6L16 7L17 7L17 6ZM18 6L18 7L19 7L19 6ZM22 6L22 7L23 7L23 6ZM28 6L28 7L29 7L29 6ZM32 6L32 7L33 7L33 6ZM42 6L42 7L43 7L43 6ZM48 6L48 8L49 8L49 6ZM0 8L0 9L1 9L1 10L0 10L0 11L2 11L2 8ZM12 8L12 9L13 9L13 8ZM33 8L33 9L34 9L34 11L37 11L37 10L35 10L35 8ZM36 8L36 9L37 9L37 8ZM52 8L52 9L54 9L54 8ZM23 9L23 10L22 10L22 12L23 12L23 13L24 13L24 15L25 15L25 16L26 16L26 17L27 17L27 15L28 15L28 18L29 18L29 15L28 15L28 14L30 14L30 11L28 11L28 10L27 10L27 12L28 12L28 14L27 14L27 13L26 13L26 14L25 14L25 13L24 13L24 10L25 10L25 9ZM18 10L18 11L17 11L17 12L16 12L16 13L15 13L15 14L13 14L13 13L12 13L12 15L11 15L11 17L9 17L9 19L8 19L8 17L7 17L7 16L6 16L6 15L7 15L7 14L6 14L6 15L5 15L5 16L6 16L6 17L7 17L7 18L6 18L6 19L7 19L7 20L6 20L6 21L7 21L7 20L9 20L9 19L11 19L11 17L12 17L12 19L13 19L13 20L14 20L14 19L15 19L15 21L12 21L12 23L11 23L11 24L10 24L10 23L9 23L9 25L10 25L10 26L11 26L11 24L12 24L12 25L13 25L13 26L12 26L12 27L13 27L13 26L16 26L16 25L15 25L15 24L17 24L17 22L16 22L16 20L18 20L18 21L20 21L20 22L18 22L18 23L20 23L20 22L21 22L21 21L20 21L20 20L21 20L21 19L22 19L22 20L24 20L24 21L23 21L23 22L24 22L24 21L25 21L25 22L26 22L26 23L25 23L25 24L24 24L24 23L23 23L23 24L22 24L22 23L21 23L21 24L22 24L22 25L21 25L21 27L19 27L19 28L20 28L20 29L18 29L18 28L17 28L17 27L18 27L18 26L19 26L19 25L20 25L20 24L18 24L18 26L17 26L17 27L16 27L16 29L18 29L18 30L17 30L17 31L19 31L19 32L18 32L18 33L19 33L19 32L20 32L20 31L22 31L22 32L23 32L23 30L22 30L22 28L23 28L23 29L24 29L24 30L26 30L26 31L28 31L28 32L26 32L26 34L25 34L25 33L23 33L23 34L22 34L22 35L23 35L23 36L22 36L22 38L23 38L23 39L22 39L22 40L23 40L23 41L22 41L22 42L24 42L24 43L22 43L22 46L23 46L23 45L24 45L24 46L25 46L25 45L24 45L24 44L25 44L25 43L26 43L26 45L27 45L27 43L28 43L28 42L27 42L27 41L29 41L29 40L30 40L30 41L32 41L32 40L30 40L30 39L31 39L31 38L32 38L32 39L33 39L33 42L34 42L34 41L37 41L37 42L35 42L35 43L34 43L34 46L33 46L33 47L32 47L32 49L33 49L33 50L34 50L34 48L33 48L33 47L36 47L36 46L35 46L35 43L37 43L37 44L36 44L36 45L37 45L37 46L38 46L38 47L37 47L37 48L36 48L36 49L35 49L35 50L36 50L36 51L37 51L37 50L38 50L38 49L39 49L39 43L40 43L40 44L42 44L42 46L43 46L43 44L46 44L46 45L45 45L45 46L44 46L44 49L45 49L45 47L47 47L47 44L48 44L48 45L49 45L49 44L48 44L48 43L49 43L49 41L50 41L50 36L51 36L51 35L50 35L50 36L49 36L49 40L48 40L48 39L47 39L47 38L45 38L45 39L47 39L47 40L45 40L45 41L44 41L44 38L43 38L43 40L42 40L42 41L40 41L40 40L39 40L39 38L38 38L38 37L39 37L39 34L41 34L41 33L38 33L38 32L36 32L36 31L38 31L38 29L39 29L39 31L40 31L40 32L41 32L41 31L42 31L42 30L41 30L41 31L40 31L40 29L39 29L39 28L38 28L38 27L40 27L40 26L38 26L38 24L36 24L36 25L35 25L35 26L34 26L34 24L35 24L35 22L36 22L36 23L37 23L37 22L38 22L38 23L39 23L39 22L40 22L40 21L37 21L37 20L38 20L38 17L39 17L39 14L38 14L38 13L37 13L37 12L35 12L35 13L37 13L37 14L38 14L38 15L37 15L37 16L36 16L36 17L35 17L35 19L34 19L34 18L32 18L32 16L31 16L31 17L30 17L30 18L31 18L31 19L28 19L28 20L26 20L26 18L25 18L25 17L24 17L24 19L23 19L23 17L22 17L22 16L20 16L20 15L18 15L18 14L20 14L20 12L19 12L19 10ZM48 10L48 13L50 13L50 14L51 14L51 13L52 13L52 12L51 12L51 11L50 11L50 10ZM6 11L6 12L7 12L7 11ZM25 11L25 12L26 12L26 11ZM42 11L42 12L43 12L43 11ZM49 11L49 12L50 12L50 13L51 13L51 12L50 12L50 11ZM53 11L53 12L54 12L54 11ZM10 13L10 14L9 14L9 15L10 15L10 14L11 14L11 13ZM16 13L16 14L17 14L17 13ZM42 13L42 14L43 14L43 13ZM21 14L21 15L23 15L23 14ZM26 14L26 15L27 15L27 14ZM34 14L34 15L33 15L33 16L34 16L34 15L35 15L35 14ZM12 15L12 16L13 16L13 18L14 18L14 17L15 17L15 16L16 16L16 15L15 15L15 16L14 16L14 15ZM42 15L42 16L43 16L43 17L42 17L42 18L43 18L43 17L44 17L44 16L43 16L43 15ZM46 15L46 16L48 16L48 17L46 17L46 19L47 19L47 18L48 18L48 19L49 19L49 18L48 18L48 17L50 17L50 15ZM17 16L17 17L16 17L16 18L15 18L15 19L18 19L18 18L19 18L19 17L20 17L20 19L21 19L21 18L22 18L22 17L20 17L20 16L19 16L19 17L18 17L18 16ZM36 17L36 18L37 18L37 17ZM40 17L40 18L41 18L41 17ZM24 19L24 20L25 20L25 21L26 21L26 22L28 22L28 23L27 23L27 24L28 24L28 23L29 23L29 24L31 24L31 26L33 26L33 25L32 25L32 24L31 24L31 22L32 22L32 23L33 23L33 24L34 24L34 23L33 23L33 22L32 22L32 21L33 21L33 20L34 20L34 19L33 19L33 20L32 20L32 19L31 19L31 22L30 22L30 21L29 21L29 20L28 20L28 21L26 21L26 20L25 20L25 19ZM36 19L36 20L37 20L37 19ZM39 19L39 20L40 20L40 19ZM10 21L10 22L11 22L11 21ZM36 21L36 22L37 22L37 21ZM6 22L6 23L7 23L7 22ZM13 22L13 23L12 23L12 24L13 24L13 23L15 23L15 22ZM42 23L42 24L43 24L43 23ZM51 23L51 24L50 24L50 26L53 26L53 27L55 27L55 28L54 28L54 30L53 30L53 31L55 31L55 30L56 30L56 29L55 29L55 28L56 28L56 27L55 27L55 26L56 26L56 25L55 25L55 24L53 24L53 25L51 25L51 24L52 24L52 23ZM23 24L23 25L24 25L24 24ZM25 25L25 26L27 26L27 25ZM54 25L54 26L55 26L55 25ZM22 26L22 27L23 27L23 26ZM35 26L35 27L31 27L31 28L32 28L32 31L29 31L29 33L30 33L30 32L32 32L32 33L31 33L31 34L32 34L32 33L33 33L33 34L34 34L34 33L35 33L35 32L34 32L34 33L33 33L33 32L32 32L32 31L35 31L35 30L37 30L37 29L36 29L36 28L37 28L37 26ZM5 27L5 30L8 30L8 27ZM25 27L25 28L24 28L24 29L26 29L26 27ZM27 27L27 30L30 30L30 27ZM35 27L35 28L33 28L33 30L34 30L34 29L35 29L35 28L36 28L36 27ZM41 27L41 28L43 28L43 27ZM45 27L45 30L46 30L46 29L47 29L47 28L46 28L46 27ZM49 27L49 30L52 30L52 27ZM6 28L6 29L7 29L7 28ZM28 28L28 29L29 29L29 28ZM50 28L50 29L51 29L51 28ZM1 29L1 30L3 30L3 29ZM9 29L9 30L10 30L10 29ZM20 29L20 30L19 30L19 31L20 31L20 30L21 30L21 29ZM0 31L0 34L1 34L1 35L2 35L2 36L3 36L3 34L1 34L1 32L2 32L2 31ZM6 31L6 32L7 32L7 31ZM12 31L12 32L13 32L13 31ZM24 31L24 32L25 32L25 31ZM44 32L44 33L45 33L45 32ZM48 32L48 33L50 33L50 32ZM53 32L53 33L55 33L55 32ZM27 33L27 34L26 34L26 37L25 37L25 38L27 38L27 40L26 40L26 39L25 39L25 40L24 40L24 39L23 39L23 40L24 40L24 41L25 41L25 42L26 42L26 41L27 41L27 40L28 40L28 39L30 39L30 38L31 38L31 37L32 37L32 38L33 38L33 37L34 37L34 38L35 38L35 37L36 37L36 36L37 36L37 37L38 37L38 34L35 34L35 37L34 37L34 35L33 35L33 37L32 37L32 35L31 35L31 37L28 37L28 36L27 36L27 34L28 34L28 35L30 35L30 34L28 34L28 33ZM24 34L24 36L23 36L23 38L24 38L24 36L25 36L25 34ZM41 36L41 37L42 37L42 36ZM51 37L51 38L52 38L52 37ZM37 38L37 39L34 39L34 40L37 40L37 41L38 41L38 43L39 43L39 42L40 42L40 41L39 41L39 40L37 40L37 39L38 39L38 38ZM47 40L47 41L46 41L46 43L48 43L48 42L47 42L47 41L48 41L48 40ZM4 41L4 43L5 43L5 41ZM13 41L13 43L14 43L14 41ZM56 41L56 44L57 44L57 41ZM10 42L10 43L12 43L12 42ZM42 42L42 44L43 44L43 43L44 43L44 42ZM32 43L32 44L33 44L33 43ZM17 44L17 45L18 45L18 44ZM37 44L37 45L38 45L38 44ZM40 45L40 46L41 46L41 45ZM13 47L13 48L14 48L14 50L15 50L15 51L16 51L16 52L17 52L17 50L16 50L16 48L14 48L14 47ZM18 47L18 48L17 48L17 49L19 49L19 50L20 50L20 48L19 48L19 47ZM42 47L42 48L43 48L43 47ZM6 48L6 49L7 49L7 48ZM27 49L27 52L30 52L30 49ZM49 49L49 52L52 52L52 49ZM28 50L28 51L29 51L29 50ZM50 50L50 51L51 51L51 50ZM18 52L18 53L20 53L20 52ZM42 52L42 53L43 53L43 52ZM27 53L27 54L28 54L28 53ZM14 54L14 56L15 56L15 54ZM48 54L48 55L50 55L50 54ZM35 55L35 57L38 57L38 56L36 56L36 55ZM0 0L0 7L7 7L7 0ZM1 1L1 6L6 6L6 1ZM2 2L2 5L5 5L5 2ZM50 0L50 7L57 7L57 0ZM51 1L51 6L56 6L56 1ZM52 2L52 5L55 5L55 2ZM0 50L0 57L7 57L7 50ZM1 51L1 56L6 56L6 51ZM2 52L2 55L5 55L5 52Z" fill="#000000"/></g></g></svg>
