<?xml version="1.0" encoding="UTF-8"?>
<svg xmlns="http://www.w3.org/2000/svg" version="1.1" width="300" height="300" viewBox="0 0 300 300"><rect x="0" y="0" width="300" height="300" fill="#ffffff"/><g transform="scale(4.918)"><g transform="translate(0,0)"><path fill-rule="evenodd" d="M8 0L8 4L9 4L9 2L10 2L10 3L11 3L11 4L10 4L10 5L12 5L12 4L13 4L13 2L14 2L14 3L15 3L15 5L16 5L16 3L18 3L18 2L19 2L19 3L20 3L20 9L18 9L18 8L19 8L19 6L18 6L18 5L17 5L17 6L16 6L16 8L15 8L15 6L14 6L14 5L13 5L13 6L12 6L12 7L13 7L13 6L14 6L14 8L12 8L12 9L10 9L10 12L11 12L11 13L9 13L9 9L7 9L7 8L4 8L4 10L3 10L3 9L2 9L2 8L0 8L0 14L1 14L1 13L2 13L2 14L4 14L4 15L5 15L5 14L4 14L4 13L3 13L3 12L4 12L4 11L5 11L5 13L7 13L7 14L6 14L6 15L7 15L7 16L6 16L6 17L7 17L7 18L5 18L5 19L4 19L4 16L3 16L3 15L2 15L2 17L1 17L1 16L0 16L0 17L1 17L1 20L0 20L0 21L1 21L1 20L2 20L2 19L3 19L3 21L4 21L4 23L3 23L3 22L0 22L0 27L2 27L2 28L4 28L4 29L2 29L2 30L3 30L3 31L1 31L1 28L0 28L0 31L1 31L1 32L0 32L0 34L1 34L1 36L2 36L2 35L3 35L3 36L4 36L4 35L5 35L5 37L7 37L7 36L9 36L9 35L10 35L10 36L11 36L11 35L10 35L10 34L13 34L13 35L14 35L14 36L13 36L13 37L11 37L11 39L12 39L12 40L11 40L11 41L10 41L10 38L9 38L9 37L8 37L8 38L5 38L5 39L4 39L4 40L3 40L3 38L2 38L2 37L1 37L1 38L0 38L0 39L1 39L1 38L2 38L2 40L1 40L1 41L0 41L0 42L1 42L1 43L0 43L0 44L2 44L2 45L0 45L0 49L2 49L2 51L0 51L0 53L4 53L4 52L5 52L5 51L7 51L7 50L9 50L9 51L10 51L10 52L9 52L9 53L8 53L8 52L6 52L6 53L8 53L8 54L9 54L9 53L12 53L12 52L11 52L11 50L12 50L12 51L13 51L13 49L11 49L11 48L13 48L13 47L14 47L14 45L13 45L13 44L14 44L14 43L13 43L13 44L10 44L10 46L9 46L9 47L10 47L10 49L9 49L9 48L8 48L8 47L7 47L7 46L8 46L8 45L9 45L9 42L10 42L10 43L12 43L12 42L11 42L11 41L14 41L14 42L16 42L16 43L15 43L15 46L16 46L16 47L15 47L15 48L14 48L14 52L13 52L13 54L11 54L11 55L13 55L13 56L12 56L12 57L10 57L10 56L9 56L9 55L8 55L8 57L10 57L10 58L9 58L9 59L8 59L8 61L9 61L9 59L10 59L10 58L12 58L12 59L11 59L11 61L15 61L15 60L16 60L16 61L19 61L19 60L20 60L20 61L22 61L22 60L23 60L23 57L22 57L22 56L24 56L24 55L26 55L26 56L27 56L27 54L25 54L25 53L24 53L24 54L23 54L23 53L22 53L22 51L23 51L23 52L24 52L24 51L23 51L23 50L22 50L22 49L20 49L20 48L21 48L21 47L22 47L22 48L23 48L23 49L24 49L24 50L25 50L25 52L26 52L26 53L27 53L27 51L28 51L28 50L29 50L29 51L31 51L31 50L29 50L29 49L31 49L31 48L32 48L32 51L34 51L34 49L36 49L36 50L37 50L37 49L38 49L38 51L35 51L35 52L34 52L34 53L33 53L33 52L28 52L28 57L24 57L24 58L28 58L28 59L25 59L25 60L26 60L26 61L28 61L28 59L29 59L29 60L30 60L30 59L32 59L32 61L33 61L33 59L34 59L34 57L35 57L35 58L36 58L36 60L34 60L34 61L39 61L39 60L40 60L40 59L41 59L41 57L40 57L40 58L39 58L39 57L38 57L38 58L36 58L36 57L37 57L37 55L38 55L38 54L39 54L39 53L40 53L40 50L41 50L41 54L40 54L40 55L41 55L41 56L42 56L42 55L43 55L43 56L44 56L44 58L43 58L43 57L42 57L42 59L43 59L43 61L46 61L46 60L47 60L47 59L46 59L46 60L45 60L45 59L44 59L44 58L46 58L46 56L48 56L48 57L47 57L47 58L48 58L48 61L50 61L50 60L49 60L49 58L50 58L50 59L51 59L51 61L52 61L52 59L53 59L53 61L54 61L54 59L56 59L56 60L55 60L55 61L57 61L57 59L56 59L56 57L57 57L57 58L58 58L58 57L59 57L59 56L61 56L61 55L60 55L60 54L58 54L58 53L59 53L59 51L60 51L60 49L59 49L59 43L60 43L60 42L58 42L58 41L59 41L59 40L60 40L60 41L61 41L61 39L58 39L58 38L57 38L57 37L56 37L56 35L54 35L54 36L52 36L52 37L53 37L53 39L52 39L52 40L55 40L55 41L53 41L53 42L52 42L52 41L51 41L51 32L52 32L52 35L53 35L53 34L55 34L55 33L56 33L56 34L58 34L58 35L57 35L57 36L58 36L58 37L59 37L59 38L60 38L60 37L59 37L59 36L60 36L60 34L59 34L59 30L60 30L60 29L59 29L59 28L61 28L61 27L58 27L58 26L60 26L60 25L61 25L61 23L60 23L60 25L59 25L59 23L58 23L58 22L57 22L57 21L60 21L60 18L59 18L59 19L58 19L58 18L57 18L57 15L58 15L58 17L59 17L59 16L60 16L60 17L61 17L61 15L60 15L60 14L59 14L59 15L58 15L58 14L57 14L57 11L55 11L55 10L56 10L56 8L55 8L55 9L53 9L53 8L52 8L52 7L53 7L53 6L52 6L52 7L51 7L51 5L52 5L52 4L53 4L53 0L51 0L51 2L50 2L50 5L49 5L49 6L48 6L48 5L45 5L45 4L42 4L42 3L45 3L45 2L44 2L44 1L43 1L43 0L42 0L42 1L43 1L43 2L42 2L42 3L40 3L40 2L39 2L39 3L40 3L40 5L39 5L39 4L38 4L38 5L37 5L37 4L35 4L35 5L34 5L34 3L35 3L35 1L36 1L36 3L38 3L38 2L37 2L37 0L35 0L35 1L34 1L34 0L33 0L33 1L32 1L32 0L30 0L30 1L31 1L31 3L30 3L30 2L29 2L29 3L30 3L30 4L28 4L28 3L27 3L27 2L26 2L26 3L25 3L25 2L24 2L24 3L23 3L23 2L22 2L22 1L21 1L21 0L19 0L19 1L18 1L18 2L16 2L16 1L15 1L15 0L14 0L14 1L13 1L13 2L11 2L11 0L10 0L10 1L9 1L9 0ZM23 0L23 1L24 1L24 0ZM25 0L25 1L26 1L26 0ZM38 0L38 1L39 1L39 0ZM19 1L19 2L20 2L20 3L22 3L22 2L20 2L20 1ZM46 1L46 3L47 3L47 2L48 2L48 3L49 3L49 1ZM32 2L32 4L33 4L33 2ZM26 3L26 5L23 5L23 7L24 7L24 9L25 9L25 7L26 7L26 8L27 8L27 9L28 9L28 4L27 4L27 3ZM51 3L51 4L52 4L52 3ZM21 4L21 5L22 5L22 4ZM41 4L41 7L40 7L40 6L39 6L39 5L38 5L38 6L37 6L37 5L35 5L35 7L36 7L36 6L37 6L37 8L38 8L38 9L36 9L36 8L35 8L35 9L34 9L34 8L33 8L33 9L32 9L32 12L33 12L33 9L34 9L34 10L37 10L37 13L36 13L36 12L35 12L35 13L34 13L34 14L33 14L33 13L32 13L32 14L31 14L31 13L30 13L30 15L29 15L29 14L28 14L28 15L27 15L27 13L25 13L25 12L26 12L26 11L27 11L27 12L28 12L28 13L29 13L29 12L31 12L31 11L29 11L29 10L30 10L30 9L29 9L29 10L24 10L24 12L22 12L22 13L21 13L21 11L23 11L23 10L22 10L22 9L23 9L23 8L22 8L22 6L21 6L21 10L20 10L20 11L19 11L19 13L16 13L16 12L15 12L15 10L16 10L16 11L17 11L17 12L18 12L18 9L13 9L13 11L12 11L12 10L11 10L11 11L12 11L12 13L11 13L11 14L9 14L9 15L10 15L10 16L11 16L11 18L10 18L10 17L9 17L9 16L8 16L8 17L9 17L9 18L8 18L8 19L6 19L6 20L7 20L7 21L6 21L6 22L5 22L5 23L6 23L6 24L7 24L7 25L6 25L6 26L5 26L5 25L4 25L4 24L2 24L2 23L1 23L1 26L2 26L2 27L3 27L3 26L5 26L5 27L4 27L4 28L5 28L5 27L6 27L6 28L8 28L8 27L9 27L9 28L10 28L10 29L9 29L9 33L8 33L8 34L7 34L7 33L5 33L5 35L6 35L6 36L7 36L7 35L8 35L8 34L9 34L9 33L10 33L10 30L11 30L11 28L14 28L14 27L15 27L15 28L16 28L16 27L15 27L15 26L17 26L17 27L18 27L18 26L17 26L17 25L18 25L18 24L19 24L19 23L20 23L20 24L21 24L21 25L19 25L19 27L20 27L20 26L22 26L22 27L21 27L21 28L20 28L20 29L16 29L16 30L19 30L19 31L20 31L20 33L18 33L18 35L19 35L19 37L18 37L18 38L17 38L17 37L16 37L16 36L14 36L14 37L13 37L13 38L14 38L14 39L13 39L13 40L14 40L14 41L16 41L16 42L18 42L18 43L16 43L16 44L20 44L20 45L16 45L16 46L20 46L20 45L21 45L21 44L22 44L22 45L23 45L23 44L22 44L22 42L20 42L20 43L19 43L19 42L18 42L18 41L20 41L20 40L21 40L21 38L22 38L22 37L23 37L23 38L24 38L24 37L26 37L26 38L25 38L25 39L24 39L24 41L23 41L23 39L22 39L22 41L23 41L23 42L24 42L24 41L25 41L25 43L24 43L24 45L26 45L26 43L27 43L27 44L28 44L28 47L27 47L27 46L26 46L26 47L27 47L27 49L26 49L26 48L25 48L25 49L26 49L26 50L27 50L27 49L28 49L28 47L29 47L29 48L31 48L31 47L32 47L32 48L35 48L35 45L36 45L36 44L34 44L34 47L32 47L32 46L33 46L33 45L32 45L32 44L33 44L33 43L32 43L32 42L31 42L31 41L34 41L34 43L36 43L36 42L35 42L35 41L36 41L36 40L35 40L35 41L34 41L34 40L33 40L33 39L32 39L32 38L31 38L31 37L29 37L29 36L32 36L32 37L33 37L33 36L34 36L34 39L36 39L36 38L37 38L37 39L38 39L38 40L37 40L37 42L38 42L38 40L39 40L39 42L40 42L40 44L39 44L39 46L40 46L40 45L41 45L41 47L39 47L39 48L38 48L38 49L39 49L39 50L40 50L40 49L41 49L41 50L42 50L42 48L44 48L44 47L47 47L47 48L45 48L45 49L46 49L46 51L47 51L47 52L45 52L45 56L46 56L46 55L48 55L48 54L49 54L49 55L50 55L50 56L51 56L51 58L52 58L52 55L50 55L50 53L51 53L51 54L52 54L52 52L53 52L53 51L51 51L51 52L49 52L49 53L47 53L47 52L48 52L48 51L49 51L49 50L50 50L50 49L52 49L52 50L53 50L53 49L54 49L54 51L55 51L55 52L57 52L57 53L58 53L58 52L57 52L57 51L56 51L56 49L58 49L58 42L56 42L56 41L58 41L58 39L57 39L57 38L56 38L56 37L55 37L55 38L54 38L54 39L55 39L55 38L56 38L56 41L55 41L55 42L53 42L53 43L55 43L55 44L56 44L56 45L55 45L55 46L53 46L53 45L54 45L54 44L52 44L52 43L51 43L51 45L52 45L52 46L51 46L51 47L50 47L50 46L49 46L49 45L50 45L50 36L49 36L49 38L48 38L48 37L47 37L47 34L49 34L49 35L50 35L50 34L49 34L49 33L48 33L48 31L49 31L49 32L50 32L50 31L51 31L51 30L50 30L50 29L52 29L52 28L50 28L50 29L48 29L48 27L50 27L50 25L52 25L52 27L53 27L53 25L55 25L55 26L56 26L56 27L55 27L55 28L56 28L56 27L57 27L57 29L58 29L58 27L57 27L57 26L56 26L56 24L55 24L55 23L53 23L53 21L56 21L56 19L54 19L54 20L53 20L53 17L54 17L54 15L53 15L53 12L52 12L52 11L54 11L54 12L55 12L55 17L56 17L56 15L57 15L57 14L56 14L56 12L55 12L55 11L54 11L54 10L53 10L53 9L51 9L51 8L50 8L50 9L49 9L49 10L48 10L48 9L46 9L46 8L45 8L45 9L44 9L44 6L45 6L45 7L46 7L46 6L45 6L45 5L44 5L44 6L43 6L43 5L42 5L42 4ZM8 5L8 7L9 7L9 8L11 8L11 6L10 6L10 7L9 7L9 5ZM29 5L29 8L32 8L32 5ZM17 6L17 7L18 7L18 6ZM24 6L24 7L25 7L25 6ZM26 6L26 7L27 7L27 6ZM30 6L30 7L31 7L31 6ZM33 6L33 7L34 7L34 6ZM38 6L38 7L39 7L39 8L40 8L40 7L39 7L39 6ZM42 6L42 8L43 8L43 6ZM47 6L47 8L48 8L48 6ZM49 6L49 7L50 7L50 6ZM57 8L57 10L58 10L58 13L59 13L59 11L60 11L60 12L61 12L61 11L60 11L60 10L58 10L58 9L61 9L61 8ZM1 9L1 10L2 10L2 11L1 11L1 12L2 12L2 11L3 11L3 10L2 10L2 9ZM5 9L5 10L7 10L7 9ZM38 9L38 11L39 11L39 12L38 12L38 15L41 15L41 16L42 16L42 15L43 15L43 16L44 16L44 17L40 17L40 16L39 16L39 17L38 17L38 16L37 16L37 14L35 14L35 15L34 15L34 16L35 16L35 17L38 17L38 19L39 19L39 20L38 20L38 22L37 22L37 18L36 18L36 19L34 19L34 17L33 17L33 20L32 20L32 19L31 19L31 18L32 18L32 16L33 16L33 15L32 15L32 16L31 16L31 17L30 17L30 18L29 18L29 17L28 17L28 16L29 16L29 15L28 15L28 16L27 16L27 15L26 15L26 17L25 17L25 16L24 16L24 15L25 15L25 13L22 13L22 14L21 14L21 13L20 13L20 14L19 14L19 15L18 15L18 14L16 14L16 15L15 15L15 14L14 14L14 13L15 13L15 12L14 12L14 11L13 11L13 12L14 12L14 13L12 13L12 15L14 15L14 16L16 16L16 15L17 15L17 16L18 16L18 17L13 17L13 16L12 16L12 17L13 17L13 18L12 18L12 19L11 19L11 20L10 20L10 22L9 22L9 23L11 23L11 24L9 24L9 25L10 25L10 26L9 26L9 27L10 27L10 28L11 28L11 25L12 25L12 26L14 26L14 25L12 25L12 23L13 23L13 21L14 21L14 23L15 23L15 24L16 24L16 25L17 25L17 23L18 23L18 21L20 21L20 22L21 22L21 21L20 21L20 20L17 20L17 23L16 23L16 21L14 21L14 20L12 20L12 19L16 19L16 18L17 18L17 19L18 19L18 17L20 17L20 18L19 18L19 19L21 19L21 20L22 20L22 19L23 19L23 20L24 20L24 19L23 19L23 18L22 18L22 17L20 17L20 14L21 14L21 15L22 15L22 16L23 16L23 17L24 17L24 18L26 18L26 17L28 17L28 18L27 18L27 19L25 19L25 20L26 20L26 21L24 21L24 22L23 22L23 21L22 21L22 22L23 22L23 23L21 23L21 24L23 24L23 25L22 25L22 26L23 26L23 27L22 27L22 28L21 28L21 29L20 29L20 30L21 30L21 29L22 29L22 30L24 30L24 31L23 31L23 32L22 32L22 31L21 31L21 33L20 33L20 34L19 34L19 35L20 35L20 34L21 34L21 33L23 33L23 35L21 35L21 36L23 36L23 35L24 35L24 36L25 36L25 34L26 34L26 35L27 35L27 36L26 36L26 37L27 37L27 40L26 40L26 39L25 39L25 41L26 41L26 42L27 42L27 43L29 43L29 47L31 47L31 46L30 46L30 45L31 45L31 44L32 44L32 43L31 43L31 42L30 42L30 43L29 43L29 41L28 41L28 39L29 39L29 40L30 40L30 41L31 41L31 40L32 40L32 39L31 39L31 38L30 38L30 39L29 39L29 37L27 37L27 36L28 36L28 34L29 34L29 35L30 35L30 34L29 34L29 33L32 33L32 34L31 34L31 35L34 35L34 36L35 36L35 37L38 37L38 39L40 39L40 34L41 34L41 35L42 35L42 36L43 36L43 37L41 37L41 39L43 39L43 40L41 40L41 41L40 41L40 42L41 42L41 43L43 43L43 45L42 45L42 44L41 44L41 45L42 45L42 47L43 47L43 46L45 46L45 44L46 44L46 45L47 45L47 44L48 44L48 45L49 45L49 39L47 39L47 40L46 40L46 39L45 39L45 37L46 37L46 35L43 35L43 34L44 34L44 33L45 33L45 34L46 34L46 33L47 33L47 31L48 31L48 30L47 30L47 31L43 31L43 30L45 30L45 28L46 28L46 29L47 29L47 27L48 27L48 26L47 26L47 27L46 27L46 24L47 24L47 25L49 25L49 24L52 24L52 25L53 25L53 24L52 24L52 21L53 21L53 20L51 20L51 21L50 21L50 20L49 20L49 19L51 19L51 18L52 18L52 17L53 17L53 15L52 15L52 13L50 13L50 14L51 14L51 16L50 16L50 17L49 17L49 15L48 15L48 18L49 18L49 19L47 19L47 23L44 23L44 22L43 22L43 21L45 21L45 20L46 20L46 18L44 18L44 17L45 17L45 15L46 15L46 14L45 14L45 11L46 11L46 12L47 12L47 11L46 11L46 9L45 9L45 10L43 10L43 9L41 9L41 13L40 13L40 11L39 11L39 9ZM50 9L50 10L49 10L49 11L48 11L48 13L49 13L49 11L50 11L50 10L51 10L51 11L52 11L52 10L51 10L51 9ZM6 11L6 12L7 12L7 11ZM28 11L28 12L29 12L29 11ZM43 11L43 12L44 12L44 11ZM39 13L39 14L40 14L40 13ZM41 13L41 15L42 15L42 13ZM7 14L7 15L8 15L8 14ZM23 14L23 15L24 15L24 14ZM43 14L43 15L45 15L45 14ZM51 16L51 17L52 17L52 16ZM39 17L39 18L40 18L40 17ZM28 18L28 19L29 19L29 18ZM43 18L43 19L42 19L42 20L41 20L41 19L40 19L40 21L43 21L43 19L44 19L44 18ZM8 19L8 21L7 21L7 22L6 22L6 23L7 23L7 24L8 24L8 23L7 23L7 22L8 22L8 21L9 21L9 19ZM30 19L30 20L27 20L27 21L26 21L26 22L27 22L27 21L29 21L29 22L28 22L28 23L27 23L27 24L26 24L26 23L25 23L25 22L24 22L24 23L23 23L23 24L24 24L24 25L23 25L23 26L24 26L24 25L27 25L27 24L28 24L28 23L29 23L29 26L27 26L27 29L26 29L26 30L25 30L25 31L24 31L24 32L23 32L23 33L24 33L24 34L25 34L25 33L26 33L26 34L27 34L27 33L28 33L28 32L27 32L27 29L28 29L28 27L29 27L29 28L31 28L31 27L29 27L29 26L31 26L31 24L32 24L32 23L33 23L33 24L34 24L34 27L35 27L35 29L34 29L34 35L35 35L35 30L36 30L36 31L38 31L38 32L37 32L37 35L38 35L38 36L39 36L39 35L38 35L38 32L39 32L39 33L41 33L41 31L42 31L42 28L41 28L41 27L40 27L40 28L39 28L39 31L38 31L38 29L36 29L36 27L38 27L38 25L36 25L36 23L37 23L37 22L36 22L36 23L35 23L35 21L34 21L34 23L33 23L33 21L32 21L32 20L31 20L31 19ZM57 19L57 20L58 20L58 19ZM4 20L4 21L5 21L5 20ZM31 21L31 22L29 22L29 23L32 23L32 21ZM49 21L49 22L48 22L48 23L47 23L47 24L48 24L48 23L50 23L50 21ZM39 22L39 23L38 23L38 24L39 24L39 25L40 25L40 26L41 26L41 25L43 25L43 27L45 27L45 25L44 25L44 23L43 23L43 24L42 24L42 23L41 23L41 22ZM24 23L24 24L25 24L25 23ZM39 23L39 24L40 24L40 23ZM57 23L57 24L58 24L58 23ZM2 25L2 26L3 26L3 25ZM32 25L32 27L33 27L33 25ZM6 26L6 27L8 27L8 26ZM25 26L25 28L24 28L24 29L25 29L25 28L26 28L26 26ZM35 26L35 27L36 27L36 26ZM22 28L22 29L23 29L23 28ZM5 29L5 32L8 32L8 29ZM12 29L12 31L11 31L11 32L12 32L12 33L13 33L13 34L14 34L14 32L16 32L16 33L15 33L15 35L16 35L16 34L17 34L17 32L16 32L16 31L14 31L14 30L13 30L13 29ZM29 29L29 32L32 32L32 29ZM53 29L53 32L56 32L56 29ZM6 30L6 31L7 31L7 30ZM30 30L30 31L31 31L31 30ZM54 30L54 31L55 31L55 30ZM3 31L3 33L1 33L1 34L3 34L3 35L4 35L4 34L3 34L3 33L4 33L4 31ZM25 31L25 32L24 32L24 33L25 33L25 32L26 32L26 33L27 33L27 32L26 32L26 31ZM39 31L39 32L40 32L40 31ZM57 31L57 33L58 33L58 31ZM45 32L45 33L46 33L46 32ZM60 32L60 33L61 33L61 32ZM6 34L6 35L7 35L7 34ZM20 37L20 38L18 38L18 39L17 39L17 40L16 40L16 38L15 38L15 40L16 40L16 41L18 41L18 40L19 40L19 39L20 39L20 38L21 38L21 37ZM43 38L43 39L44 39L44 38ZM6 39L6 40L5 40L5 41L4 41L4 43L6 43L6 44L8 44L8 42L7 42L7 41L6 41L6 40L8 40L8 41L9 41L9 39ZM30 39L30 40L31 40L31 39ZM43 40L43 41L44 41L44 42L43 42L43 43L45 43L45 41L46 41L46 44L47 44L47 43L48 43L48 40L47 40L47 41L46 41L46 40L45 40L45 41L44 41L44 40ZM1 41L1 42L3 42L3 41ZM41 41L41 42L42 42L42 41ZM6 42L6 43L7 43L7 42ZM55 42L55 43L56 43L56 42ZM37 43L37 46L38 46L38 43ZM4 44L4 45L3 45L3 46L2 46L2 48L3 48L3 50L7 50L7 49L6 49L6 48L7 48L7 47L6 47L6 48L5 48L5 49L4 49L4 48L3 48L3 46L7 46L7 45L5 45L5 44ZM60 44L60 45L61 45L61 44ZM11 45L11 46L10 46L10 47L11 47L11 46L12 46L12 47L13 47L13 46L12 46L12 45ZM56 45L56 46L55 46L55 47L54 47L54 49L55 49L55 47L57 47L57 45ZM23 46L23 47L25 47L25 46ZM47 46L47 47L48 47L48 49L50 49L50 48L49 48L49 46ZM52 46L52 48L53 48L53 46ZM16 47L16 48L15 48L15 49L17 49L17 50L16 50L16 51L15 51L15 52L17 52L17 53L15 53L15 54L13 54L13 55L15 55L15 54L16 54L16 55L17 55L17 57L16 57L16 56L15 56L15 57L16 57L16 59L18 59L18 60L19 60L19 59L20 59L20 58L21 58L21 60L22 60L22 57L19 57L19 59L18 59L18 58L17 58L17 57L18 57L18 56L19 56L19 55L20 55L20 53L21 53L21 54L22 54L22 53L21 53L21 52L20 52L20 53L18 53L18 52L19 52L19 51L21 51L21 50L20 50L20 49L18 49L18 47ZM60 47L60 48L61 48L61 47ZM39 48L39 49L40 49L40 48ZM10 49L10 50L11 50L11 49ZM44 50L44 51L45 51L45 50ZM47 50L47 51L48 51L48 50ZM3 51L3 52L4 52L4 51ZM17 51L17 52L18 52L18 51ZM38 51L38 52L37 52L37 53L36 53L36 54L35 54L35 53L34 53L34 55L33 55L33 56L35 56L35 55L36 55L36 54L38 54L38 52L39 52L39 51ZM42 51L42 52L43 52L43 51ZM60 52L60 53L61 53L61 52ZM29 53L29 56L32 56L32 53ZM43 53L43 55L44 55L44 53ZM53 53L53 56L56 56L56 53ZM17 54L17 55L18 55L18 54ZM30 54L30 55L31 55L31 54ZM41 54L41 55L42 55L42 54ZM54 54L54 55L55 55L55 54ZM57 54L57 56L58 56L58 54ZM13 56L13 57L14 57L14 56ZM28 57L28 58L29 58L29 59L30 59L30 58L29 58L29 57ZM32 57L32 58L33 58L33 57ZM53 57L53 58L54 58L54 57ZM60 57L60 58L59 58L59 59L58 59L58 61L61 61L61 60L60 60L60 58L61 58L61 57ZM12 59L12 60L14 60L14 59ZM38 59L38 60L39 60L39 59ZM0 0L0 7L7 7L7 0ZM1 1L1 6L6 6L6 1ZM2 2L2 5L5 5L5 2ZM54 0L54 7L61 7L61 0ZM55 1L55 6L60 6L60 1ZM56 2L56 5L59 5L59 2ZM0 54L0 61L7 61L7 54ZM1 55L1 60L6 60L6 55ZM2 56L2 59L5 59L5 56Z" fill="#000000"/></g></g></svg>
