<?xml version="1.0" encoding="UTF-8"?>
<svg xmlns="http://www.w3.org/2000/svg" version="1.1" width="300" height="300" viewBox="0 0 300 300"><rect x="0" y="0" width="300" height="300" fill="#ffffff"/><g transform="scale(5.263)"><g transform="translate(0,0)"><path fill-rule="evenodd" d="M9 0L9 1L8 1L8 2L9 2L9 3L8 3L8 4L9 4L9 5L8 5L8 7L9 7L9 8L6 8L6 9L5 9L5 8L0 8L0 9L5 9L5 10L4 10L4 12L5 12L5 11L7 11L7 12L6 12L6 13L3 13L3 14L1 14L1 13L0 13L0 19L1 19L1 17L2 17L2 18L3 18L3 20L1 20L1 21L0 21L0 22L2 22L2 23L1 23L1 25L2 25L2 26L3 26L3 27L2 27L2 28L0 28L0 30L1 30L1 29L2 29L2 28L4 28L4 30L2 30L2 31L1 31L1 32L3 32L3 31L4 31L4 32L6 32L6 33L5 33L5 34L4 34L4 33L3 33L3 34L4 34L4 35L5 35L5 36L4 36L4 39L3 39L3 41L1 41L1 44L0 44L0 45L1 45L1 46L0 46L0 48L5 48L5 47L7 47L7 48L6 48L6 49L8 49L8 51L10 51L10 52L11 52L11 53L12 53L12 52L13 52L13 54L16 54L16 53L15 53L15 52L16 52L16 51L18 51L18 53L19 53L19 54L18 54L18 57L19 57L19 56L20 56L20 57L21 57L21 55L24 55L24 56L23 56L23 57L24 57L24 56L25 56L25 51L26 51L26 54L29 54L29 55L28 55L28 57L31 57L31 56L32 56L32 55L33 55L33 56L34 56L34 55L35 55L35 57L38 57L38 56L41 56L41 57L42 57L42 56L45 56L45 57L48 57L48 56L46 56L46 55L49 55L49 56L50 56L50 57L51 57L51 56L50 56L50 55L51 55L51 53L52 53L52 54L53 54L53 57L54 57L54 56L55 56L55 57L56 57L56 56L55 56L55 53L57 53L57 52L56 52L56 51L55 51L55 50L53 50L53 48L55 48L55 47L56 47L56 48L57 48L57 47L56 47L56 46L57 46L57 45L56 45L56 46L55 46L55 47L50 47L50 46L51 46L51 45L53 45L53 44L56 44L56 43L53 43L53 42L51 42L51 41L53 41L53 40L55 40L55 39L57 39L57 35L56 35L56 34L57 34L57 33L56 33L56 32L55 32L55 31L56 31L56 30L57 30L57 29L56 29L56 30L55 30L55 29L54 29L54 28L55 28L55 27L53 27L53 25L52 25L52 24L55 24L55 23L56 23L56 26L57 26L57 23L56 23L56 22L57 22L57 21L54 21L54 20L57 20L57 19L54 19L54 18L57 18L57 17L56 17L56 14L57 14L57 12L55 12L55 11L54 11L54 10L53 10L53 9L54 9L54 8L53 8L53 9L52 9L52 8L51 8L51 10L50 10L50 8L49 8L49 9L48 9L48 8L47 8L47 5L48 5L48 0L46 0L46 1L45 1L45 2L42 2L42 3L45 3L45 4L44 4L44 8L43 8L43 6L42 6L42 7L41 7L41 6L40 6L40 7L39 7L39 5L37 5L37 3L36 3L36 5L34 5L34 4L32 4L32 3L33 3L33 2L34 2L34 3L35 3L35 2L36 2L36 1L37 1L37 0L36 0L36 1L34 1L34 0L33 0L33 1L31 1L31 0L27 0L27 1L26 1L26 0L21 0L21 2L20 2L20 0L19 0L19 3L18 3L18 2L17 2L17 1L15 1L15 0L14 0L14 1L13 1L13 0L12 0L12 1L13 1L13 2L11 2L11 3L10 3L10 1L11 1L11 0ZM40 0L40 1L38 1L38 2L40 2L40 3L41 3L41 1L43 1L43 0ZM22 1L22 2L23 2L23 3L20 3L20 4L18 4L18 3L16 3L16 2L13 2L13 3L12 3L12 4L11 4L11 5L10 5L10 6L9 6L9 7L10 7L10 8L11 8L11 9L10 9L10 10L7 10L7 9L6 9L6 10L7 10L7 11L9 11L9 12L8 12L8 13L6 13L6 14L7 14L7 15L4 15L4 14L3 14L3 15L1 15L1 16L2 16L2 17L3 17L3 18L7 18L7 19L4 19L4 22L3 22L3 23L2 23L2 24L4 24L4 25L3 25L3 26L7 26L7 25L5 25L5 24L7 24L7 23L5 23L5 22L7 22L7 21L8 21L8 22L10 22L10 18L11 18L11 15L10 15L10 17L9 17L9 16L7 16L7 15L8 15L8 14L10 14L10 12L11 12L11 13L12 13L12 12L11 12L11 11L14 11L14 12L13 12L13 13L14 13L14 15L13 15L13 16L14 16L14 17L12 17L12 19L11 19L11 24L8 24L8 25L11 25L11 26L10 26L10 30L9 30L9 31L8 31L8 32L9 32L9 33L8 33L8 40L7 40L7 39L6 39L6 38L7 38L7 37L6 37L6 36L7 36L7 35L6 35L6 36L5 36L5 37L6 37L6 38L5 38L5 39L6 39L6 40L5 40L5 43L3 43L3 42L2 42L2 44L1 44L1 45L2 45L2 46L1 46L1 47L2 47L2 46L3 46L3 47L5 47L5 46L3 46L3 45L2 45L2 44L4 44L4 45L6 45L6 46L7 46L7 45L6 45L6 44L7 44L7 43L6 43L6 42L7 42L7 41L8 41L8 42L9 42L9 41L10 41L10 42L11 42L11 43L10 43L10 45L9 45L9 46L8 46L8 48L9 48L9 50L10 50L10 49L11 49L11 52L12 52L12 49L13 49L13 48L12 48L12 47L13 47L13 46L15 46L15 45L16 45L16 46L18 46L18 47L16 47L16 48L15 48L15 49L16 49L16 50L19 50L19 51L21 51L21 52L19 52L19 53L21 53L21 54L22 54L22 53L23 53L23 54L24 54L24 53L23 53L23 52L24 52L24 51L25 51L25 50L26 50L26 49L25 49L25 47L24 47L24 45L25 45L25 46L26 46L26 44L29 44L29 45L28 45L28 46L31 46L31 47L30 47L30 48L32 48L32 49L31 49L31 54L33 54L33 55L34 55L34 54L35 54L35 55L36 55L36 56L37 56L37 54L39 54L39 53L42 53L42 52L40 52L40 51L43 51L43 52L44 52L44 54L40 54L40 55L44 55L44 54L49 54L49 53L48 53L48 50L47 50L47 49L48 49L48 48L50 48L50 47L49 47L49 46L50 46L50 45L49 45L49 44L50 44L50 43L51 43L51 44L52 44L52 43L51 43L51 42L50 42L50 41L51 41L51 40L53 40L53 39L55 39L55 38L56 38L56 37L55 37L55 36L56 36L56 35L55 35L55 36L53 36L53 35L54 35L54 34L53 34L53 33L50 33L50 31L48 31L48 29L45 29L45 28L46 28L46 27L45 27L45 26L47 26L47 27L48 27L48 25L49 25L49 24L48 24L48 23L49 23L49 22L48 22L48 21L50 21L50 22L52 22L52 23L55 23L55 22L54 22L54 21L53 21L53 20L52 20L52 19L50 19L50 18L54 18L54 16L51 16L51 17L50 17L50 18L49 18L49 19L48 19L48 18L47 18L47 17L49 17L49 15L50 15L50 14L51 14L51 15L55 15L55 14L54 14L54 13L55 13L55 12L54 12L54 11L53 11L53 12L52 12L52 10L51 10L51 11L50 11L50 12L49 12L49 10L47 10L47 8L44 8L44 9L45 9L45 10L41 10L41 8L38 8L38 6L37 6L37 8L38 8L38 10L40 10L40 11L43 11L43 14L42 14L42 13L41 13L41 12L40 12L40 13L38 13L38 12L39 12L39 11L36 11L36 10L34 10L34 9L33 9L33 10L34 10L34 12L35 12L35 13L34 13L34 14L32 14L32 13L33 13L33 12L32 12L32 13L31 13L31 16L32 16L32 17L31 17L31 18L29 18L29 14L30 14L30 13L29 13L29 12L30 12L30 11L31 11L31 10L32 10L32 9L31 9L31 10L30 10L30 9L29 9L29 10L27 10L27 11L26 11L26 6L25 6L25 4L26 4L26 3L25 3L25 4L24 4L24 2L26 2L26 1ZM28 1L28 2L27 2L27 3L28 3L28 4L29 4L29 3L28 3L28 2L30 2L30 3L32 3L32 2L31 2L31 1ZM46 1L46 2L47 2L47 1ZM9 3L9 4L10 4L10 3ZM15 3L15 4L14 4L14 5L15 5L15 6L14 6L14 7L13 7L13 4L12 4L12 5L11 5L11 6L10 6L10 7L11 7L11 8L12 8L12 10L13 10L13 9L14 9L14 8L15 8L15 9L16 9L16 8L17 8L17 4L16 4L16 3ZM38 3L38 4L39 4L39 3ZM46 3L46 4L45 4L45 5L47 5L47 3ZM15 4L15 5L16 5L16 4ZM21 4L21 5L24 5L24 4ZM31 4L31 8L34 8L34 5L32 5L32 4ZM42 4L42 5L43 5L43 4ZM18 5L18 7L19 7L19 6L20 6L20 7L21 7L21 8L20 8L20 9L21 9L21 10L20 10L20 12L19 12L19 13L18 13L18 12L15 12L15 14L16 14L16 15L14 15L14 16L15 16L15 17L19 17L19 18L18 18L18 19L19 19L19 20L17 20L17 21L19 21L19 22L17 22L17 24L18 24L18 25L17 25L17 26L18 26L18 27L17 27L17 28L16 28L16 26L15 26L15 25L16 25L16 23L15 23L15 22L16 22L16 21L15 21L15 20L16 20L16 19L17 19L17 18L13 18L13 19L14 19L14 20L13 20L13 21L15 21L15 22L14 22L14 25L12 25L12 26L11 26L11 30L14 30L14 33L15 33L15 35L13 35L13 33L11 33L11 32L13 32L13 31L11 31L11 32L10 32L10 33L11 33L11 34L10 34L10 35L9 35L9 39L11 39L11 41L12 41L12 38L10 38L10 37L11 37L11 36L12 36L12 37L14 37L14 38L13 38L13 40L15 40L15 41L13 41L13 42L15 42L15 44L16 44L16 45L18 45L18 46L19 46L19 45L18 45L18 44L16 44L16 41L17 41L17 43L18 43L18 41L19 41L19 39L20 39L20 38L18 38L18 41L17 41L17 37L20 37L20 36L19 36L19 35L17 35L17 34L16 34L16 33L19 33L19 34L20 34L20 35L21 35L21 36L24 36L24 37L21 37L21 40L20 40L20 41L21 41L21 42L20 42L20 43L19 43L19 44L20 44L20 45L22 45L22 44L20 44L20 43L22 43L22 42L26 42L26 43L25 43L25 44L26 44L26 43L28 43L28 42L26 42L26 41L29 41L29 39L31 39L31 38L29 38L29 37L30 37L30 36L31 36L31 37L32 37L32 38L33 38L33 39L34 39L34 40L30 40L30 41L32 41L32 42L30 42L30 43L29 43L29 44L30 44L30 45L31 45L31 46L32 46L32 45L31 45L31 44L33 44L33 47L32 47L32 48L36 48L36 49L37 49L37 48L38 48L38 47L39 47L39 49L40 49L40 48L41 48L41 50L43 50L43 51L44 51L44 52L46 52L46 51L47 51L47 50L46 50L46 51L45 51L45 50L44 50L44 49L42 49L42 48L43 48L43 47L42 47L42 48L41 48L41 47L40 47L40 46L38 46L38 45L39 45L39 43L40 43L40 44L42 44L42 46L44 46L44 48L45 48L45 49L47 49L47 48L48 48L48 46L49 46L49 45L48 45L48 46L45 46L45 45L44 45L44 44L45 44L45 43L46 43L46 45L47 45L47 44L48 44L48 41L50 41L50 40L51 40L51 39L52 39L52 38L51 38L51 37L53 37L53 38L54 38L54 37L53 37L53 36L52 36L52 35L53 35L53 34L52 34L52 35L50 35L50 33L49 33L49 32L48 32L48 31L46 31L46 32L45 32L45 31L44 31L44 32L45 32L45 34L43 34L43 31L42 31L42 32L41 32L41 31L40 31L40 32L39 32L39 30L40 30L40 29L39 29L39 28L41 28L41 29L42 29L42 30L44 30L44 28L45 28L45 27L41 27L41 26L43 26L43 25L44 25L44 26L45 26L45 25L46 25L46 24L45 24L45 23L47 23L47 22L45 22L45 21L48 21L48 19L47 19L47 18L45 18L45 17L44 17L44 16L46 16L46 17L47 17L47 16L46 16L46 15L49 15L49 14L50 14L50 13L47 13L47 12L48 12L48 11L47 11L47 10L46 10L46 13L47 13L47 14L45 14L45 13L44 13L44 14L45 14L45 15L43 15L43 16L42 16L42 14L41 14L41 15L40 15L40 16L42 16L42 17L39 17L39 16L38 16L38 17L37 17L37 16L36 16L36 18L31 18L31 19L28 19L28 18L27 18L27 17L28 17L28 16L26 16L26 18L25 18L25 17L22 17L22 16L21 16L21 14L20 14L20 13L22 13L22 12L21 12L21 11L22 11L22 10L25 10L25 9L24 9L24 7L25 7L25 6L24 6L24 7L23 7L23 6L22 6L22 7L21 7L21 6L20 6L20 5ZM27 5L27 8L30 8L30 5ZM11 6L11 7L12 7L12 6ZM15 6L15 8L16 8L16 6ZM28 6L28 7L29 7L29 6ZM32 6L32 7L33 7L33 6ZM35 6L35 7L36 7L36 6ZM45 6L45 7L46 7L46 6ZM48 6L48 7L49 7L49 6ZM22 7L22 8L21 8L21 9L23 9L23 7ZM18 8L18 9L17 9L17 10L15 10L15 11L18 11L18 9L19 9L19 8ZM35 8L35 9L36 9L36 8ZM55 8L55 9L56 9L56 10L57 10L57 9L56 9L56 8ZM0 10L0 12L3 12L3 11L2 11L2 10ZM10 10L10 11L11 11L11 10ZM24 11L24 12L23 12L23 14L24 14L24 15L23 15L23 16L25 16L25 14L26 14L26 13L27 13L27 15L28 15L28 14L29 14L29 13L28 13L28 12L29 12L29 11L28 11L28 12L26 12L26 13L24 13L24 12L25 12L25 11ZM44 11L44 12L45 12L45 11ZM36 12L36 14L34 14L34 15L32 15L32 16L33 16L33 17L35 17L35 16L34 16L34 15L37 15L37 12ZM16 13L16 14L17 14L17 15L16 15L16 16L17 16L17 15L18 15L18 13ZM19 14L19 17L20 17L20 20L19 20L19 21L23 21L23 22L22 22L22 23L21 23L21 25L18 25L18 26L19 26L19 28L21 28L21 29L19 29L19 30L17 30L17 29L18 29L18 28L17 28L17 29L16 29L16 28L15 28L15 26L12 26L12 27L14 27L14 28L12 28L12 29L14 29L14 30L15 30L15 29L16 29L16 30L17 30L17 31L19 31L19 33L20 33L20 34L21 34L21 33L20 33L20 32L21 32L21 31L20 31L20 30L21 30L21 29L22 29L22 31L23 31L23 32L22 32L22 33L25 33L25 34L24 34L24 36L26 36L26 35L25 35L25 34L27 34L27 36L28 36L28 37L24 37L24 38L22 38L22 39L24 39L24 41L25 41L25 38L26 38L26 40L28 40L28 39L27 39L27 38L28 38L28 37L29 37L29 36L30 36L30 35L31 35L31 32L32 32L32 35L33 35L33 34L35 34L35 36L32 36L32 37L34 37L34 38L35 38L35 41L36 41L36 38L39 38L39 39L37 39L37 41L38 41L38 42L40 42L40 43L42 43L42 44L44 44L44 41L46 41L46 42L47 42L47 41L48 41L48 40L47 40L47 39L48 39L48 37L49 37L49 38L50 38L50 39L49 39L49 40L50 40L50 39L51 39L51 38L50 38L50 37L49 37L49 36L50 36L50 35L48 35L48 34L49 34L49 33L48 33L48 32L47 32L47 33L46 33L46 34L47 34L47 35L45 35L45 36L44 36L44 35L43 35L43 34L40 34L40 35L38 35L38 34L39 34L39 32L38 32L38 31L36 31L36 30L39 30L39 29L38 29L38 28L39 28L39 27L40 27L40 26L41 26L41 25L43 25L43 23L45 23L45 22L44 22L44 21L45 21L45 20L43 20L43 19L45 19L45 18L44 18L44 17L43 17L43 18L41 18L41 19L42 19L42 20L39 20L39 21L38 21L38 18L39 18L39 17L38 17L38 18L37 18L37 19L34 19L34 22L33 22L33 20L32 20L32 21L31 21L31 22L30 22L30 21L29 21L29 20L28 20L28 19L27 19L27 18L26 18L26 20L25 20L25 19L24 19L24 20L25 20L25 22L26 22L26 23L25 23L25 24L24 24L24 23L23 23L23 22L24 22L24 21L23 21L23 18L22 18L22 17L20 17L20 14ZM38 14L38 15L39 15L39 14ZM3 16L3 17L4 17L4 16ZM6 16L6 17L7 17L7 18L8 18L8 19L7 19L7 20L6 20L6 21L7 21L7 20L8 20L8 21L9 21L9 20L8 20L8 19L9 19L9 17L7 17L7 16ZM21 18L21 19L22 19L22 18ZM46 19L46 20L47 20L47 19ZM26 20L26 21L27 21L27 20ZM35 20L35 22L34 22L34 23L33 23L33 24L34 24L34 23L35 23L35 22L37 22L37 20ZM42 20L42 22L43 22L43 20ZM50 20L50 21L51 21L51 20ZM40 21L40 22L38 22L38 23L39 23L39 24L37 24L37 23L36 23L36 24L35 24L35 25L36 25L36 24L37 24L37 25L39 25L39 26L38 26L38 27L39 27L39 26L40 26L40 25L39 25L39 24L42 24L42 23L40 23L40 22L41 22L41 21ZM19 22L19 23L20 23L20 22ZM27 22L27 24L30 24L30 26L29 26L29 25L27 25L27 26L25 26L25 25L26 25L26 24L25 24L25 25L24 25L24 26L23 26L23 25L22 25L22 27L21 27L21 26L20 26L20 27L21 27L21 28L22 28L22 29L23 29L23 30L26 30L26 31L27 31L27 34L28 34L28 33L30 33L30 32L28 32L28 31L32 31L32 32L33 32L33 33L34 33L34 32L36 32L36 33L37 33L37 34L38 34L38 32L36 32L36 31L35 31L35 30L34 30L34 29L35 29L35 28L36 28L36 29L37 29L37 28L36 28L36 26L35 26L35 27L32 27L32 28L33 28L33 30L34 30L34 32L33 32L33 31L32 31L32 29L31 29L31 26L32 26L32 25L31 25L31 24L32 24L32 23L31 23L31 24L30 24L30 23L28 23L28 22ZM4 23L4 24L5 24L5 23ZM50 23L50 26L52 26L52 25L51 25L51 23ZM44 24L44 25L45 25L45 24ZM33 25L33 26L34 26L34 25ZM54 25L54 26L55 26L55 25ZM0 26L0 27L1 27L1 26ZM24 26L24 27L23 27L23 28L24 28L24 29L26 29L26 27L25 27L25 26ZM5 27L5 30L8 30L8 27ZM27 27L27 30L30 30L30 27ZM49 27L49 30L52 30L52 27ZM56 27L56 28L57 28L57 27ZM6 28L6 29L7 29L7 28ZM14 28L14 29L15 29L15 28ZM28 28L28 29L29 29L29 28ZM50 28L50 29L51 29L51 28ZM53 29L53 31L51 31L51 32L53 32L53 31L54 31L54 29ZM6 31L6 32L7 32L7 31ZM24 31L24 32L25 32L25 33L26 33L26 32L25 32L25 31ZM40 32L40 33L41 33L41 32ZM54 32L54 33L55 33L55 34L56 34L56 33L55 33L55 32ZM0 33L0 37L2 37L2 38L3 38L3 37L2 37L2 33ZM6 33L6 34L7 34L7 33ZM11 34L11 35L10 35L10 36L11 36L11 35L12 35L12 34ZM29 34L29 35L28 35L28 36L29 36L29 35L30 35L30 34ZM40 35L40 36L41 36L41 35ZM42 35L42 36L43 36L43 35ZM47 35L47 36L48 36L48 35ZM16 36L16 37L15 37L15 38L14 38L14 39L15 39L15 40L16 40L16 39L15 39L15 38L16 38L16 37L17 37L17 36ZM35 36L35 37L37 37L37 36ZM38 36L38 37L39 37L39 36ZM45 36L45 37L46 37L46 36ZM41 37L41 38L43 38L43 39L39 39L39 40L38 40L38 41L39 41L39 40L41 40L41 42L43 42L43 39L44 39L44 40L45 40L45 39L47 39L47 38L45 38L45 39L44 39L44 38L43 38L43 37ZM0 38L0 39L1 39L1 40L2 40L2 39L1 39L1 38ZM6 40L6 41L7 41L7 40ZM8 40L8 41L9 41L9 40ZM21 40L21 41L23 41L23 40ZM33 41L33 42L34 42L34 44L35 44L35 45L34 45L34 46L35 46L35 47L36 47L36 48L37 48L37 47L36 47L36 44L37 44L37 45L38 45L38 43L37 43L37 42L36 42L36 44L35 44L35 42L34 42L34 41ZM54 41L54 42L55 42L55 41ZM56 41L56 42L57 42L57 41ZM49 42L49 43L50 43L50 42ZM5 43L5 44L6 44L6 43ZM8 43L8 44L9 44L9 43ZM11 43L11 47L12 47L12 46L13 46L13 45L12 45L12 44L14 44L14 43ZM30 43L30 44L31 44L31 43ZM21 46L21 48L20 48L20 47L18 47L18 49L19 49L19 48L20 48L20 49L21 49L21 50L25 50L25 49L22 49L22 48L24 48L24 47L22 47L22 46ZM26 47L26 48L27 48L27 47ZM46 47L46 48L47 48L47 47ZM16 48L16 49L17 49L17 48ZM27 49L27 52L30 52L30 49ZM32 49L32 50L33 50L33 51L32 51L32 52L33 52L33 51L34 51L34 52L35 52L35 50L33 50L33 49ZM49 49L49 52L52 52L52 49ZM56 49L56 50L57 50L57 49ZM13 50L13 52L15 52L15 50ZM28 50L28 51L29 51L29 50ZM36 50L36 51L37 51L37 50ZM38 50L38 51L39 51L39 50ZM50 50L50 51L51 51L51 50ZM8 52L8 57L9 57L9 55L11 55L11 56L12 56L12 55L11 55L11 54L9 54L9 52ZM36 52L36 53L35 53L35 54L36 54L36 53L37 53L37 52ZM38 52L38 53L39 53L39 52ZM53 52L53 54L54 54L54 53L55 53L55 52ZM29 53L29 54L30 54L30 53ZM33 53L33 54L34 54L34 53ZM19 54L19 55L20 55L20 54ZM14 55L14 56L16 56L16 57L17 57L17 56L16 56L16 55ZM26 55L26 56L27 56L27 55ZM29 55L29 56L30 56L30 55ZM0 0L0 7L7 7L7 0ZM1 1L1 6L6 6L6 1ZM2 2L2 5L5 5L5 2ZM50 0L50 7L57 7L57 0ZM51 1L51 6L56 6L56 1ZM52 2L52 5L55 5L55 2ZM0 50L0 57L7 57L7 50ZM1 51L1 56L6 56L6 51ZM2 52L2 55L5 55L5 52Z" fill="#000000"/></g></g></svg>
