<?xml version="1.0" encoding="UTF-8"?>
<svg xmlns="http://www.w3.org/2000/svg" version="1.1" width="300" height="300" viewBox="0 0 300 300"><rect x="0" y="0" width="300" height="300" fill="#ffffff"/><g transform="scale(4.918)"><g transform="translate(0,0)"><path fill-rule="evenodd" d="M9 0L9 1L8 1L8 2L9 2L9 3L8 3L8 4L10 4L10 7L11 7L11 6L12 6L12 7L13 7L13 8L11 8L11 9L12 9L12 11L11 11L11 10L10 10L10 8L6 8L6 9L5 9L5 8L0 8L0 9L1 9L1 10L0 10L0 14L2 14L2 15L1 15L1 16L2 16L2 18L0 18L0 19L2 19L2 21L5 21L5 23L2 23L2 22L0 22L0 23L1 23L1 24L0 24L0 27L1 27L1 26L2 26L2 25L3 25L3 24L5 24L5 23L9 23L9 24L8 24L8 25L7 25L7 24L6 24L6 25L7 25L7 26L5 26L5 27L7 27L7 26L9 26L9 27L8 27L8 28L4 28L4 31L3 31L3 32L2 32L2 30L0 30L0 32L1 32L1 33L0 33L0 36L1 36L1 34L2 34L2 35L5 35L5 33L9 33L9 34L10 34L10 33L9 33L9 32L13 32L13 30L15 30L15 28L16 28L16 29L17 29L17 27L15 27L15 26L14 26L14 25L18 25L18 27L20 27L20 26L19 26L19 25L20 25L20 24L23 24L23 25L21 25L21 28L20 28L20 29L19 29L19 28L18 28L18 29L19 29L19 30L17 30L17 31L18 31L18 32L17 32L17 33L16 33L16 31L15 31L15 32L14 32L14 33L13 33L13 34L14 34L14 36L13 36L13 37L14 37L14 38L16 38L16 39L14 39L14 40L13 40L13 39L10 39L10 36L12 36L12 35L9 35L9 36L8 36L8 37L7 37L7 36L5 36L5 37L4 37L4 38L3 38L3 37L2 37L2 38L1 38L1 39L4 39L4 38L5 38L5 40L6 40L6 41L9 41L9 40L10 40L10 41L12 41L12 40L13 40L13 42L14 42L14 43L16 43L16 42L15 42L15 41L17 41L17 43L18 43L18 45L19 45L19 46L15 46L15 45L17 45L17 44L13 44L13 45L12 45L12 47L11 47L11 46L10 46L10 48L9 48L9 47L7 47L7 46L6 46L6 45L7 45L7 44L8 44L8 45L9 45L9 44L10 44L10 45L11 45L11 44L12 44L12 42L9 42L9 43L7 43L7 42L6 42L6 43L7 43L7 44L5 44L5 46L6 46L6 47L4 47L4 45L2 45L2 44L1 44L1 43L2 43L2 42L3 42L3 44L4 44L4 43L5 43L5 41L4 41L4 40L3 40L3 41L2 41L2 42L1 42L1 40L0 40L0 44L1 44L1 45L2 45L2 46L1 46L1 47L0 47L0 49L2 49L2 48L6 48L6 49L7 49L7 50L5 50L5 49L4 49L4 50L2 50L2 51L0 51L0 53L4 53L4 52L5 52L5 51L7 51L7 52L6 52L6 53L7 53L7 52L8 52L8 55L9 55L9 56L8 56L8 61L9 61L9 59L11 59L11 60L10 60L10 61L11 61L11 60L13 60L13 59L12 59L12 56L14 56L14 57L13 57L13 58L14 58L14 57L15 57L15 56L16 56L16 57L18 57L18 59L20 59L20 58L19 58L19 57L20 57L20 56L21 56L21 58L22 58L22 59L21 59L21 60L20 60L20 61L22 61L22 59L23 59L23 60L26 60L26 59L27 59L27 61L28 61L28 60L29 60L29 58L30 58L30 59L31 59L31 60L33 60L33 61L38 61L38 60L34 60L34 59L35 59L35 58L33 58L33 57L35 57L35 56L36 56L36 57L37 57L37 56L40 56L40 55L42 55L42 56L41 56L41 57L39 57L39 58L38 58L38 59L39 59L39 60L41 60L41 59L42 59L42 60L43 60L43 61L44 61L44 60L45 60L45 61L50 61L50 60L47 60L47 59L48 59L48 58L49 58L49 56L50 56L50 55L52 55L52 56L51 56L51 58L50 58L50 59L51 59L51 60L55 60L55 59L56 59L56 60L57 60L57 61L61 61L61 57L60 57L60 55L61 55L61 54L59 54L59 56L58 56L58 57L60 57L60 60L57 60L57 59L58 59L58 58L57 58L57 59L56 59L56 57L57 57L57 53L61 53L61 50L59 50L59 48L58 48L58 47L61 47L61 46L59 46L59 44L60 44L60 45L61 45L61 42L60 42L60 43L59 43L59 44L58 44L58 45L57 45L57 44L56 44L56 42L55 42L55 41L53 41L53 43L52 43L52 42L50 42L50 40L51 40L51 41L52 41L52 40L51 40L51 38L52 38L52 39L55 39L55 38L56 38L56 41L57 41L57 42L59 42L59 41L60 41L60 40L57 40L57 39L61 39L61 38L58 38L58 37L59 37L59 36L61 36L61 34L59 34L59 32L61 32L61 30L58 30L58 29L59 29L59 28L60 28L60 29L61 29L61 26L60 26L60 24L58 24L58 26L57 26L57 27L56 27L56 24L57 24L57 23L61 23L61 22L58 22L58 21L60 21L60 19L61 19L61 18L58 18L58 17L61 17L61 16L58 16L58 15L59 15L59 12L60 12L60 11L61 11L61 10L60 10L60 11L59 11L59 12L57 12L57 11L55 11L55 13L54 13L54 14L56 14L56 12L57 12L57 13L58 13L58 14L57 14L57 15L56 15L56 16L55 16L55 15L53 15L53 16L51 16L51 14L50 14L50 13L53 13L53 11L54 11L54 10L55 10L55 9L56 9L56 10L58 10L58 8L57 8L57 9L56 9L56 8L55 8L55 9L54 9L54 8L52 8L52 7L53 7L53 6L52 6L52 7L51 7L51 5L52 5L52 4L53 4L53 0L51 0L51 2L50 2L50 4L49 4L49 3L48 3L48 2L47 2L47 1L50 1L50 0L47 0L47 1L46 1L46 0L44 0L44 1L45 1L45 2L44 2L44 3L45 3L45 2L46 2L46 3L47 3L47 5L46 5L46 4L45 4L45 6L44 6L44 4L43 4L43 3L41 3L41 2L42 2L42 1L43 1L43 0L40 0L40 1L38 1L38 4L39 4L39 3L41 3L41 6L40 6L40 7L39 7L39 5L37 5L37 3L34 3L34 2L37 2L37 0L35 0L35 1L34 1L34 2L32 2L32 1L33 1L33 0L32 0L32 1L31 1L31 0L29 0L29 1L31 1L31 2L30 2L30 3L27 3L27 4L26 4L26 2L28 2L28 1L27 1L27 0L24 0L24 1L22 1L22 2L19 2L19 1L18 1L18 2L19 2L19 3L17 3L17 0L16 0L16 1L14 1L14 2L13 2L13 1L11 1L11 2L10 2L10 0ZM25 1L25 2L26 2L26 1ZM14 2L14 4L13 4L13 3L12 3L12 4L11 4L11 3L10 3L10 4L11 4L11 5L12 5L12 4L13 4L13 7L14 7L14 9L15 9L15 10L13 10L13 11L12 11L12 12L13 12L13 11L14 11L14 13L15 13L15 14L10 14L10 13L9 13L9 15L10 15L10 16L8 16L8 14L7 14L7 13L8 13L8 12L9 12L9 11L8 11L8 10L9 10L9 9L6 9L6 10L7 10L7 11L5 11L5 10L4 10L4 9L2 9L2 10L1 10L1 11L2 11L2 12L1 12L1 13L2 13L2 14L4 14L4 13L2 13L2 12L7 12L7 13L6 13L6 14L7 14L7 15L5 15L5 16L4 16L4 17L3 17L3 18L4 18L4 19L6 19L6 20L8 20L8 19L6 19L6 18L9 18L9 19L10 19L10 18L11 18L11 19L12 19L12 23L11 23L11 20L10 20L10 21L9 21L9 23L10 23L10 24L12 24L12 23L13 23L13 25L9 25L9 26L11 26L11 27L10 27L10 28L9 28L9 29L10 29L10 28L11 28L11 29L12 29L12 30L9 30L9 31L12 31L12 30L13 30L13 29L14 29L14 28L15 28L15 27L14 27L14 26L13 26L13 25L14 25L14 23L15 23L15 22L18 22L18 23L16 23L16 24L18 24L18 25L19 25L19 23L20 23L20 22L21 22L21 21L25 21L25 18L26 18L26 19L27 19L27 20L26 20L26 21L27 21L27 20L29 20L29 21L28 21L28 22L25 22L25 23L24 23L24 22L22 22L22 23L23 23L23 24L24 24L24 25L23 25L23 26L22 26L22 27L23 27L23 28L21 28L21 29L20 29L20 30L19 30L19 31L20 31L20 32L22 32L22 33L17 33L17 34L19 34L19 35L17 35L17 37L16 37L16 38L17 38L17 39L18 39L18 38L19 38L19 41L23 41L23 43L22 43L22 42L21 42L21 44L22 44L22 45L23 45L23 49L22 49L22 48L21 48L21 47L22 47L22 46L21 46L21 45L20 45L20 46L19 46L19 48L21 48L21 49L18 49L18 50L17 50L17 48L16 48L16 47L12 47L12 48L11 48L11 49L10 49L10 52L9 52L9 54L10 54L10 52L11 52L11 53L12 53L12 52L11 52L11 51L12 51L12 49L13 49L13 51L16 51L16 52L15 52L15 54L14 54L14 52L13 52L13 54L12 54L12 55L11 55L11 56L9 56L9 57L10 57L10 58L11 58L11 56L12 56L12 55L14 55L14 56L15 56L15 54L17 54L17 53L18 53L18 55L17 55L17 56L18 56L18 57L19 57L19 56L20 56L20 54L21 54L21 55L22 55L22 57L23 57L23 55L24 55L24 57L26 57L26 58L27 58L27 59L28 59L28 58L29 58L29 57L27 57L27 55L28 55L28 54L26 54L26 53L28 53L28 52L31 52L31 49L30 49L30 48L32 48L32 49L33 49L33 51L32 51L32 52L33 52L33 55L34 55L34 56L35 56L35 55L34 55L34 54L36 54L36 56L37 56L37 55L38 55L38 54L39 54L39 53L38 53L38 52L39 52L39 51L41 51L41 52L40 52L40 53L41 53L41 54L42 54L42 55L43 55L43 54L48 54L48 55L44 55L44 57L45 57L45 58L48 58L48 56L49 56L49 55L50 55L50 54L51 54L51 52L52 52L52 51L53 51L53 52L57 52L57 51L58 51L58 52L60 52L60 51L58 51L58 50L57 50L57 49L56 49L56 50L55 50L55 49L54 49L54 48L57 48L57 47L54 47L54 48L53 48L53 49L54 49L54 50L55 50L55 51L53 51L53 50L52 50L52 51L50 51L50 50L51 50L51 49L50 49L50 48L52 48L52 47L53 47L53 46L52 46L52 45L54 45L54 44L55 44L55 45L56 45L56 46L57 46L57 45L56 45L56 44L55 44L55 43L53 43L53 44L52 44L52 43L51 43L51 44L49 44L49 43L50 43L50 42L49 42L49 41L46 41L46 38L47 38L47 40L50 40L50 39L48 39L48 38L51 38L51 36L52 36L52 35L53 35L53 34L55 34L55 35L54 35L54 36L55 36L55 37L56 37L56 38L57 38L57 37L58 37L58 36L59 36L59 35L57 35L57 33L58 33L58 32L59 32L59 31L58 31L58 32L57 32L57 33L56 33L56 34L55 34L55 33L53 33L53 34L52 34L52 33L50 33L50 32L51 32L51 31L52 31L52 29L51 29L51 27L52 27L52 28L54 28L54 27L55 27L55 28L56 28L56 27L55 27L55 26L53 26L53 25L55 25L55 24L53 24L53 25L50 25L50 26L48 26L48 25L47 25L47 24L49 24L49 22L51 22L51 21L52 21L52 22L53 22L53 23L57 23L57 22L56 22L56 21L58 21L58 20L59 20L59 19L58 19L58 20L54 20L54 19L56 19L56 18L57 18L57 16L56 16L56 18L54 18L54 19L53 19L53 21L52 21L52 18L53 18L53 17L50 17L50 18L51 18L51 19L50 19L50 21L47 21L47 20L49 20L49 19L48 19L48 18L49 18L49 17L48 17L48 16L49 16L49 15L50 15L50 14L49 14L49 13L47 13L47 11L48 11L48 12L49 12L49 10L47 10L47 8L49 8L49 9L50 9L50 12L51 12L51 10L52 10L52 11L53 11L53 9L50 9L50 8L49 8L49 7L50 7L50 6L49 6L49 7L48 7L48 5L47 5L47 7L46 7L46 6L45 6L45 8L44 8L44 6L43 6L43 5L42 5L42 6L41 6L41 7L42 7L42 8L39 8L39 7L38 7L38 6L37 6L37 7L36 7L36 6L35 6L35 8L34 8L34 6L33 6L33 8L34 8L34 10L35 10L35 11L36 11L36 12L37 12L37 13L38 13L38 14L35 14L35 12L34 12L34 11L33 11L33 9L32 9L32 10L29 10L29 9L28 9L28 8L27 8L27 9L25 9L25 8L26 8L26 6L25 6L25 5L26 5L26 4L25 4L25 3L24 3L24 2L23 2L23 3L21 3L21 4L20 4L20 3L19 3L19 4L15 4L15 3L16 3L16 2ZM23 3L23 4L21 4L21 5L20 5L20 4L19 4L19 5L18 5L18 7L17 7L17 6L16 6L16 5L15 5L15 4L14 4L14 5L15 5L15 6L14 6L14 7L15 7L15 6L16 6L16 7L17 7L17 8L15 8L15 9L17 9L17 10L15 10L15 11L16 11L16 12L15 12L15 13L17 13L17 12L18 12L18 13L19 13L19 14L18 14L18 15L20 15L20 13L21 13L21 14L22 14L22 15L21 15L21 16L20 16L20 17L21 17L21 18L22 18L22 20L24 20L24 19L23 19L23 18L24 18L24 17L26 17L26 18L28 18L28 19L30 19L30 20L31 20L31 19L32 19L32 20L33 20L33 21L32 21L32 22L30 22L30 24L31 24L31 25L29 25L29 27L28 27L28 24L27 24L27 26L26 26L26 25L24 25L24 26L25 26L25 27L24 27L24 28L25 28L25 29L24 29L24 31L23 31L23 33L24 33L24 34L22 34L22 35L24 35L24 36L25 36L25 37L22 37L22 36L21 36L21 34L20 34L20 37L19 37L19 36L18 36L18 37L19 37L19 38L20 38L20 39L24 39L24 40L25 40L25 41L24 41L24 43L23 43L23 44L25 44L25 45L24 45L24 46L25 46L25 45L26 45L26 48L25 48L25 47L24 47L24 49L23 49L23 50L24 50L24 49L26 49L26 51L25 51L25 53L22 53L22 52L24 52L24 51L22 51L22 49L21 49L21 50L20 50L20 51L21 51L21 52L20 52L20 53L22 53L22 54L25 54L25 53L26 53L26 51L28 51L28 50L27 50L27 49L28 49L28 47L29 47L29 46L30 46L30 47L31 47L31 46L32 46L32 43L33 43L33 41L34 41L34 39L35 39L35 40L36 40L36 41L37 41L37 40L36 40L36 39L35 39L35 38L37 38L37 36L39 36L39 35L40 35L40 36L41 36L41 37L39 37L39 38L38 38L38 39L39 39L39 40L38 40L38 41L39 41L39 42L38 42L38 43L37 43L37 44L35 44L35 45L36 45L36 46L34 46L34 45L33 45L33 48L34 48L34 47L36 47L36 46L38 46L38 47L37 47L37 48L35 48L35 49L37 49L37 48L38 48L38 47L39 47L39 50L38 50L38 51L39 51L39 50L40 50L40 48L41 48L41 46L38 46L38 45L39 45L39 44L41 44L41 45L42 45L42 46L43 46L43 49L42 49L42 50L43 50L43 51L42 51L42 52L43 52L43 53L42 53L42 54L43 54L43 53L44 53L44 52L45 52L45 53L46 53L46 51L47 51L47 50L45 50L45 51L44 51L44 48L45 48L45 49L47 49L47 48L48 48L48 49L49 49L49 48L48 48L48 47L47 47L47 46L50 46L50 47L51 47L51 46L50 46L50 45L49 45L49 44L48 44L48 43L49 43L49 42L48 42L48 43L47 43L47 42L45 42L45 41L44 41L44 40L45 40L45 39L44 39L44 40L43 40L43 39L40 39L40 38L41 38L41 37L42 37L42 38L44 38L44 36L45 36L45 37L49 37L49 36L46 36L46 35L47 35L47 34L45 34L45 35L44 35L44 36L43 36L43 35L42 35L42 34L43 34L43 33L44 33L44 32L45 32L45 33L47 33L47 32L48 32L48 33L49 33L49 32L48 32L48 31L49 31L49 30L50 30L50 31L51 31L51 30L50 30L50 28L48 28L48 29L47 29L47 30L45 30L45 31L44 31L44 32L43 32L43 31L42 31L42 30L44 30L44 28L47 28L47 27L48 27L48 26L47 26L47 27L44 27L44 28L43 28L43 29L41 29L41 31L40 31L40 32L39 32L39 30L40 30L40 28L41 28L41 27L40 27L40 26L38 26L38 27L37 27L37 24L36 24L36 23L37 23L37 22L36 22L36 23L35 23L35 22L34 22L34 23L32 23L32 22L33 22L33 21L37 21L37 20L34 20L34 19L32 19L32 18L33 18L33 16L32 16L32 14L33 14L33 15L35 15L35 14L33 14L33 13L34 13L34 12L33 12L33 13L31 13L31 16L30 16L30 15L29 15L29 14L30 14L30 13L29 13L29 14L28 14L28 13L26 13L26 10L25 10L25 9L24 9L24 7L25 7L25 6L24 6L24 5L25 5L25 4L24 4L24 3ZM30 3L30 4L31 4L31 3ZM33 3L33 4L34 4L34 5L35 5L35 4L34 4L34 3ZM51 3L51 4L52 4L52 3ZM27 4L27 5L28 5L28 4ZM8 5L8 7L9 7L9 5ZM29 5L29 8L32 8L32 5ZM19 6L19 7L20 7L20 6ZM21 6L21 8L19 8L19 9L21 9L21 8L22 8L22 9L23 9L23 8L22 8L22 6ZM23 6L23 7L24 7L24 6ZM27 6L27 7L28 7L28 6ZM30 6L30 7L31 7L31 6ZM42 6L42 7L43 7L43 6ZM17 8L17 9L18 9L18 8ZM36 8L36 10L37 10L37 12L38 12L38 13L39 13L39 14L38 14L38 15L40 15L40 16L42 16L42 18L44 18L44 16L45 16L45 19L44 19L44 20L43 20L43 19L41 19L41 17L39 17L39 16L38 16L38 17L37 17L37 16L35 16L35 18L38 18L38 20L42 20L42 21L40 21L40 22L38 22L38 23L39 23L39 24L38 24L38 25L39 25L39 24L42 24L42 23L40 23L40 22L45 22L45 23L44 23L44 24L43 24L43 25L41 25L41 26L45 26L45 25L44 25L44 24L45 24L45 23L48 23L48 22L46 22L46 20L47 20L47 18L46 18L46 16L48 16L48 15L49 15L49 14L48 14L48 15L47 15L47 14L43 14L43 13L44 13L44 12L45 12L45 13L46 13L46 12L45 12L45 9L44 9L44 8L43 8L43 9L40 9L40 10L38 10L38 8ZM59 8L59 9L60 9L60 8ZM27 9L27 10L28 10L28 9ZM2 10L2 11L3 11L3 10ZM18 10L18 11L20 11L20 10ZM22 10L22 11L23 11L23 12L22 12L22 13L25 13L25 14L23 14L23 17L22 17L22 16L21 16L21 17L22 17L22 18L23 18L23 17L24 17L24 15L25 15L25 16L26 16L26 17L27 17L27 16L29 16L29 17L30 17L30 18L32 18L32 16L31 16L31 17L30 17L30 16L29 16L29 15L27 15L27 14L26 14L26 13L25 13L25 10ZM41 10L41 12L40 12L40 11L39 11L39 12L40 12L40 13L41 13L41 14L40 14L40 15L41 15L41 14L42 14L42 15L43 15L43 14L42 14L42 13L43 13L43 12L44 12L44 11L43 11L43 10ZM46 10L46 11L47 11L47 10ZM7 11L7 12L8 12L8 11ZM10 11L10 12L11 12L11 11ZM27 11L27 12L28 12L28 11ZM29 11L29 12L32 12L32 11ZM42 11L42 12L43 12L43 11ZM15 14L15 15L16 15L16 14ZM60 14L60 15L61 15L61 14ZM2 15L2 16L3 16L3 15ZM11 15L11 16L10 16L10 17L11 17L11 16L12 16L12 18L13 18L13 19L14 19L14 17L13 17L13 16L14 16L14 15ZM26 15L26 16L27 16L27 15ZM45 15L45 16L46 16L46 15ZM6 16L6 17L7 17L7 16ZM17 16L17 17L19 17L19 16ZM54 16L54 17L55 17L55 16ZM15 17L15 18L16 18L16 17ZM38 17L38 18L39 18L39 17ZM19 18L19 19L17 19L17 20L16 20L16 19L15 19L15 20L16 20L16 21L19 21L19 22L20 22L20 21L21 21L21 20L20 20L20 21L19 21L19 19L20 19L20 18ZM45 19L45 20L44 20L44 21L45 21L45 20L46 20L46 19ZM13 20L13 23L14 23L14 22L15 22L15 21L14 21L14 20ZM6 21L6 22L7 22L7 21ZM53 21L53 22L55 22L55 21ZM28 22L28 23L29 23L29 22ZM25 23L25 24L26 24L26 23ZM31 23L31 24L32 24L32 23ZM34 23L34 24L35 24L35 25L31 25L31 26L33 26L33 28L34 28L34 29L33 29L33 30L35 30L35 32L38 32L38 34L36 34L36 33L34 33L34 31L33 31L33 34L36 34L36 35L35 35L35 36L34 36L34 35L32 35L32 34L31 34L31 33L29 33L29 34L28 34L28 35L27 35L27 34L26 34L26 33L28 33L28 29L27 29L27 28L28 28L28 27L27 27L27 28L26 28L26 27L25 27L25 28L26 28L26 29L25 29L25 31L24 31L24 32L25 32L25 31L26 31L26 33L25 33L25 34L26 34L26 37L25 37L25 38L24 38L24 39L25 39L25 40L26 40L26 39L25 39L25 38L26 38L26 37L27 37L27 38L28 38L28 39L29 39L29 41L30 41L30 42L28 42L28 40L27 40L27 41L25 41L25 42L28 42L28 43L27 43L27 44L26 44L26 45L27 45L27 44L31 44L31 43L32 43L32 40L33 40L33 39L34 39L34 38L35 38L35 36L37 36L37 35L38 35L38 34L39 34L39 32L38 32L38 30L39 30L39 27L38 27L38 30L37 30L37 31L36 31L36 30L35 30L35 28L37 28L37 27L36 27L36 26L35 26L35 25L36 25L36 24L35 24L35 23ZM1 24L1 25L2 25L2 24ZM12 26L12 29L13 29L13 26ZM34 26L34 28L35 28L35 26ZM50 26L50 27L51 27L51 26ZM52 26L52 27L53 27L53 26ZM58 26L58 27L57 27L57 28L59 28L59 26ZM2 27L2 28L3 28L3 27ZM29 27L29 28L30 28L30 27ZM31 27L31 28L32 28L32 27ZM5 29L5 32L8 32L8 29ZM22 29L22 30L21 30L21 31L22 31L22 30L23 30L23 29ZM26 29L26 30L27 30L27 29ZM29 29L29 32L32 32L32 29ZM48 29L48 30L47 30L47 31L46 31L46 32L47 32L47 31L48 31L48 30L49 30L49 29ZM53 29L53 32L56 32L56 29ZM6 30L6 31L7 31L7 30ZM30 30L30 31L31 31L31 30ZM54 30L54 31L55 31L55 30ZM41 31L41 32L40 32L40 33L41 33L41 34L40 34L40 35L41 35L41 34L42 34L42 33L43 33L43 32L42 32L42 31ZM3 32L3 34L4 34L4 32ZM14 33L14 34L16 34L16 33ZM6 34L6 35L7 35L7 34ZM30 34L30 35L29 35L29 36L30 36L30 37L29 37L29 38L30 38L30 39L31 39L31 36L32 36L32 37L33 37L33 36L32 36L32 35L31 35L31 34ZM50 34L50 35L51 35L51 34ZM15 35L15 36L16 36L16 35ZM55 35L55 36L56 36L56 37L57 37L57 36L56 36L56 35ZM27 36L27 37L28 37L28 36ZM6 37L6 38L7 38L7 39L6 39L6 40L7 40L7 39L8 39L8 40L9 40L9 39L8 39L8 38L7 38L7 37ZM20 37L20 38L21 38L21 37ZM52 37L52 38L53 38L53 37ZM32 38L32 39L33 39L33 38ZM17 40L17 41L18 41L18 40ZM30 40L30 41L31 41L31 40ZM39 40L39 41L40 41L40 42L39 42L39 43L38 43L38 44L39 44L39 43L41 43L41 44L42 44L42 45L43 45L43 46L44 46L44 45L45 45L45 46L47 46L47 45L46 45L46 43L45 43L45 44L44 44L44 43L43 43L43 42L41 42L41 40ZM18 42L18 43L20 43L20 42ZM30 42L30 43L31 43L31 42ZM34 42L34 43L35 43L35 42ZM43 44L43 45L44 45L44 44ZM51 44L51 45L52 45L52 44ZM13 45L13 46L14 46L14 45ZM28 45L28 46L29 46L29 45ZM30 45L30 46L31 46L31 45ZM20 46L20 47L21 47L21 46ZM1 47L1 48L2 48L2 47ZM6 47L6 48L7 48L7 49L8 49L8 48L7 48L7 47ZM45 47L45 48L46 48L46 47ZM13 48L13 49L15 49L15 50L16 50L16 49L15 49L15 48ZM26 48L26 49L27 49L27 48ZM60 48L60 49L61 49L61 48ZM29 49L29 51L30 51L30 49ZM7 50L7 51L8 51L8 50ZM18 50L18 51L19 51L19 50ZM34 50L34 52L35 52L35 53L36 53L36 54L38 54L38 53L37 53L37 52L35 52L35 50ZM36 50L36 51L37 51L37 50ZM48 50L48 51L49 51L49 50ZM56 50L56 51L57 51L57 50ZM3 51L3 52L4 52L4 51ZM43 51L43 52L44 52L44 51ZM16 52L16 53L17 53L17 52ZM18 52L18 53L19 53L19 52ZM48 52L48 54L49 54L49 52ZM29 53L29 56L32 56L32 53ZM53 53L53 56L56 56L56 53ZM30 54L30 55L31 55L31 54ZM54 54L54 55L55 55L55 54ZM25 55L25 56L26 56L26 55ZM42 56L42 57L43 57L43 56ZM45 56L45 57L46 57L46 56ZM30 57L30 58L31 58L31 59L33 59L33 58L32 58L32 57ZM53 57L53 58L52 58L52 59L53 59L53 58L55 58L55 57ZM16 58L16 59L14 59L14 61L19 61L19 60L16 60L16 59L17 59L17 58ZM36 58L36 59L37 59L37 58ZM40 58L40 59L41 59L41 58ZM42 58L42 59L43 59L43 60L44 60L44 59L43 59L43 58ZM45 59L45 60L46 60L46 59ZM0 0L0 7L7 7L7 0ZM1 1L1 6L6 6L6 1ZM2 2L2 5L5 5L5 2ZM54 0L54 7L61 7L61 0ZM55 1L55 6L60 6L60 1ZM56 2L56 5L59 5L59 2ZM0 54L0 61L7 61L7 54ZM1 55L1 60L6 60L6 55ZM2 56L2 59L5 59L5 56Z" fill="#000000"/></g></g></svg>
