<?xml version="1.0" encoding="UTF-8"?>
<svg xmlns="http://www.w3.org/2000/svg" version="1.1" width="300" height="300" viewBox="0 0 300 300"><rect x="0" y="0" width="300" height="300" fill="#ffffff"/><g transform="scale(4.918)"><g transform="translate(0,0)"><path fill-rule="evenodd" d="M12 0L12 1L14 1L14 0ZM15 0L15 1L16 1L16 0ZM22 0L22 1L21 1L21 2L20 2L20 4L19 4L19 1L17 1L17 3L16 3L16 2L15 2L15 4L14 4L14 2L13 2L13 4L11 4L11 3L10 3L10 2L11 2L11 1L10 1L10 2L9 2L9 1L8 1L8 2L9 2L9 3L8 3L8 4L11 4L11 5L13 5L13 4L14 4L14 8L13 8L13 6L12 6L12 9L14 9L14 11L13 11L13 10L10 10L10 11L9 11L9 10L6 10L6 11L7 11L7 12L6 12L6 13L7 13L7 14L5 14L5 13L4 13L4 12L5 12L5 11L4 11L4 12L3 12L3 10L2 10L2 9L5 9L5 8L0 8L0 11L1 11L1 10L2 10L2 12L3 12L3 13L4 13L4 14L5 14L5 15L2 15L2 16L1 16L1 15L0 15L0 16L1 16L1 17L2 17L2 16L3 16L3 17L5 17L5 18L4 18L4 19L1 19L1 18L0 18L0 19L1 19L1 20L0 20L0 21L1 21L1 20L2 20L2 22L1 22L1 23L0 23L0 27L1 27L1 26L3 26L3 27L4 27L4 30L2 30L2 29L3 29L3 28L0 28L0 30L2 30L2 31L0 31L0 32L2 32L2 33L3 33L3 34L4 34L4 35L5 35L5 36L4 36L4 38L3 38L3 37L2 37L2 38L0 38L0 39L1 39L1 41L0 41L0 42L2 42L2 44L0 44L0 45L2 45L2 48L0 48L0 50L2 50L2 51L0 51L0 53L4 53L4 52L5 52L5 51L7 51L7 52L6 52L6 53L8 53L8 55L9 55L9 56L8 56L8 61L9 61L9 58L10 58L10 59L12 59L12 60L11 60L11 61L21 61L21 60L23 60L23 59L25 59L25 60L26 60L26 59L28 59L28 60L27 60L27 61L28 61L28 60L29 60L29 61L31 61L31 60L33 60L33 61L37 61L37 60L38 60L38 59L40 59L40 60L39 60L39 61L40 61L40 60L42 60L42 61L43 61L43 60L45 60L45 61L47 61L47 60L46 60L46 59L48 59L48 58L46 58L46 57L49 57L49 56L50 56L50 55L52 55L52 56L51 56L51 58L50 58L50 59L49 59L49 60L48 60L48 61L49 61L49 60L51 60L51 61L52 61L52 60L53 60L53 59L51 59L51 58L54 58L54 60L56 60L56 61L57 61L57 60L56 60L56 58L57 58L57 59L59 59L59 58L58 58L58 57L60 57L60 60L58 60L58 61L61 61L61 57L60 57L60 56L61 56L61 54L59 54L59 55L60 55L60 56L58 56L58 57L57 57L57 51L59 51L59 52L58 52L58 53L61 53L61 50L60 50L60 48L56 48L56 49L57 49L57 51L56 51L56 50L54 50L54 49L55 49L55 48L54 48L54 47L61 47L61 46L58 46L58 45L59 45L59 44L60 44L60 45L61 45L61 42L60 42L60 41L59 41L59 40L61 40L61 38L60 38L60 37L61 37L61 34L60 34L60 36L58 36L58 35L59 35L59 34L58 34L58 33L59 33L59 32L60 32L60 33L61 33L61 32L60 32L60 31L61 31L61 30L59 30L59 28L58 28L58 27L61 27L61 26L60 26L60 25L61 25L61 22L58 22L58 21L59 21L59 20L58 20L58 21L57 21L57 23L56 23L56 20L57 20L57 19L56 19L56 20L55 20L55 19L54 19L54 18L55 18L55 17L54 17L54 18L52 18L52 20L51 20L51 18L50 18L50 17L53 17L53 16L52 16L52 15L51 15L51 14L50 14L50 12L51 12L51 13L53 13L53 14L55 14L55 13L56 13L56 14L57 14L57 15L55 15L55 16L57 16L57 15L60 15L60 16L61 16L61 14L59 14L59 12L60 12L60 11L61 11L61 10L60 10L60 11L59 11L59 12L58 12L58 11L55 11L55 13L53 13L53 12L54 12L54 10L55 10L55 9L56 9L56 10L57 10L57 9L58 9L58 8L57 8L57 9L56 9L56 8L55 8L55 9L54 9L54 8L52 8L52 7L53 7L53 6L52 6L52 7L51 7L51 5L52 5L52 4L53 4L53 0L51 0L51 2L50 2L50 4L49 4L49 3L47 3L47 1L46 1L46 0L39 0L39 1L38 1L38 2L39 2L39 3L38 3L38 4L39 4L39 5L37 5L37 3L35 3L35 2L36 2L36 0L35 0L35 1L33 1L33 0L32 0L32 1L31 1L31 0L30 0L30 1L31 1L31 2L28 2L28 0L26 0L26 1L27 1L27 4L26 4L26 2L25 2L25 0ZM49 0L49 1L48 1L48 2L49 2L49 1L50 1L50 0ZM22 1L22 2L21 2L21 4L20 4L20 5L19 5L19 4L18 4L18 3L17 3L17 4L15 4L15 8L14 8L14 9L15 9L15 11L14 11L14 13L12 13L12 12L13 12L13 11L12 11L12 12L10 12L10 13L9 13L9 11L8 11L8 12L7 12L7 13L8 13L8 14L7 14L7 15L5 15L5 16L8 16L8 17L6 17L6 18L7 18L7 19L6 19L6 20L5 20L5 22L4 22L4 20L3 20L3 22L2 22L2 23L3 23L3 24L2 24L2 25L4 25L4 24L5 24L5 26L7 26L7 27L6 27L6 28L8 28L8 27L9 27L9 25L10 25L10 24L9 24L9 22L10 22L10 23L11 23L11 24L12 24L12 23L13 23L13 25L14 25L14 26L17 26L17 27L16 27L16 28L17 28L17 27L18 27L18 26L17 26L17 25L18 25L18 24L17 24L17 23L18 23L18 22L19 22L19 23L21 23L21 24L19 24L19 25L21 25L21 24L22 24L22 25L25 25L25 26L26 26L26 25L27 25L27 22L32 22L32 23L31 23L31 24L29 24L29 23L28 23L28 24L29 24L29 25L28 25L28 26L29 26L29 27L27 27L27 28L26 28L26 27L25 27L25 28L22 28L22 26L21 26L21 29L20 29L20 31L19 31L19 29L18 29L18 31L19 31L19 32L20 32L20 31L22 31L22 30L21 30L21 29L23 29L23 33L22 33L22 32L21 32L21 33L18 33L18 32L16 32L16 31L15 31L15 30L17 30L17 29L14 29L14 28L15 28L15 27L13 27L13 26L10 26L10 29L9 29L9 30L10 30L10 31L11 31L11 32L12 32L12 34L13 34L13 33L16 33L16 34L14 34L14 36L15 36L15 35L16 35L16 36L17 36L17 37L13 37L13 35L12 35L12 37L11 37L11 35L10 35L10 34L11 34L11 33L9 33L9 36L8 36L8 35L6 35L6 34L8 34L8 33L4 33L4 31L3 31L3 33L4 33L4 34L5 34L5 35L6 35L6 36L7 36L7 37L6 37L6 38L4 38L4 40L3 40L3 41L5 41L5 42L3 42L3 44L4 44L4 49L5 49L5 47L6 47L6 48L7 48L7 47L6 47L6 46L7 46L7 45L9 45L9 44L7 44L7 43L10 43L10 44L11 44L11 47L10 47L10 46L8 46L8 48L10 48L10 49L11 49L11 53L12 53L12 55L11 55L11 56L9 56L9 57L11 57L11 58L12 58L12 59L13 59L13 60L14 60L14 57L15 57L15 58L17 58L17 59L16 59L16 60L17 60L17 59L20 59L20 58L17 58L17 57L18 57L18 56L17 56L17 57L16 57L16 56L14 56L14 57L12 57L12 56L13 56L13 55L15 55L15 54L17 54L17 55L18 55L18 54L17 54L17 53L14 53L14 51L15 51L15 52L16 52L16 51L15 51L15 50L16 50L16 49L17 49L17 52L19 52L19 54L20 54L20 56L19 56L19 57L21 57L21 53L25 53L25 54L23 54L23 56L22 56L22 57L25 57L25 58L26 58L26 57L27 57L27 55L28 55L28 53L27 53L27 51L23 51L23 48L24 48L24 49L25 49L25 50L26 50L26 49L27 49L27 50L28 50L28 51L30 51L30 52L31 52L31 51L30 51L30 49L29 49L29 48L31 48L31 49L32 49L32 50L35 50L35 52L33 52L33 51L32 51L32 52L33 52L33 55L34 55L34 56L37 56L37 57L32 57L32 58L28 58L28 59L33 59L33 58L34 58L34 60L37 60L37 59L38 59L38 58L40 58L40 59L45 59L45 58L40 58L40 57L41 57L41 56L44 56L44 57L45 57L45 56L44 56L44 55L46 55L46 54L48 54L48 53L46 53L46 54L45 54L45 52L42 52L42 51L46 51L46 52L49 52L49 53L50 53L50 54L51 54L51 53L50 53L50 52L52 52L52 51L53 51L53 52L55 52L55 51L53 51L53 49L52 49L52 51L50 51L50 50L51 50L51 48L52 48L52 47L53 47L53 45L54 45L54 44L55 44L55 45L56 45L56 46L57 46L57 45L56 45L56 44L57 44L57 43L54 43L54 44L52 44L52 43L53 43L53 41L54 41L54 40L55 40L55 41L56 41L56 42L57 42L57 41L56 41L56 40L59 40L59 39L57 39L57 37L56 37L56 36L55 36L55 35L57 35L57 33L55 33L55 35L53 35L53 34L51 34L51 31L52 31L52 29L48 29L48 30L47 30L47 29L46 29L46 30L45 30L45 28L42 28L42 27L45 27L45 26L44 26L44 25L45 25L45 24L46 24L46 22L47 22L47 24L49 24L49 23L48 23L48 22L49 22L49 21L50 21L50 22L51 22L51 21L50 21L50 19L46 19L46 20L49 20L49 21L46 21L46 22L43 22L43 23L42 23L42 22L40 22L40 23L39 23L39 24L37 24L37 23L38 23L38 22L39 22L39 21L37 21L37 23L36 23L36 21L35 21L35 20L39 20L39 19L38 19L38 18L39 18L39 16L40 16L40 17L41 17L41 16L40 16L40 15L41 15L41 14L42 14L42 15L43 15L43 16L44 16L44 18L41 18L41 20L40 20L40 21L42 21L42 19L44 19L44 18L45 18L45 16L46 16L46 18L47 18L47 17L48 17L48 18L49 18L49 17L48 17L48 16L51 16L51 15L49 15L49 13L46 13L46 14L48 14L48 16L46 16L46 15L45 15L45 12L48 12L48 11L49 11L49 12L50 12L50 11L51 11L51 12L53 12L53 9L52 9L52 8L51 8L51 9L50 9L50 8L49 8L49 7L50 7L50 6L49 6L49 5L47 5L47 3L43 3L43 5L42 5L42 2L43 2L43 1L42 1L42 2L41 2L41 1L40 1L40 2L41 2L41 3L40 3L40 5L39 5L39 7L38 7L38 6L37 6L37 5L36 5L36 4L33 4L33 5L36 5L36 6L35 6L35 8L34 8L34 6L33 6L33 9L34 9L34 10L35 10L35 8L37 8L37 9L36 9L36 11L34 11L34 12L32 12L32 11L33 11L33 10L30 10L30 9L29 9L29 11L27 11L27 10L28 10L28 9L27 9L27 8L26 8L26 9L25 9L25 8L23 8L23 7L24 7L24 6L23 6L23 7L22 7L22 5L21 5L21 4L23 4L23 3L22 3L22 2L23 2L23 1ZM32 1L32 2L33 2L33 3L34 3L34 2L33 2L33 1ZM44 1L44 2L45 2L45 1ZM24 2L24 4L25 4L25 2ZM29 3L29 4L31 4L31 3ZM51 3L51 4L52 4L52 3ZM44 4L44 5L45 5L45 6L44 6L44 7L43 7L43 6L42 6L42 7L43 7L43 8L45 8L45 6L46 6L46 9L47 9L47 10L45 10L45 9L44 9L44 10L45 10L45 11L42 11L42 10L43 10L43 9L40 9L40 8L41 8L41 5L40 5L40 7L39 7L39 8L38 8L38 9L39 9L39 10L38 10L38 11L40 11L40 12L38 12L38 13L37 13L37 12L35 12L35 13L37 13L37 14L38 14L38 15L36 15L36 14L33 14L33 13L32 13L32 14L33 14L33 15L35 15L35 18L33 18L33 17L34 17L34 16L33 16L33 17L32 17L32 16L31 16L31 15L30 15L30 16L31 16L31 17L32 17L32 18L33 18L33 19L31 19L31 18L30 18L30 17L29 17L29 16L28 16L28 17L26 17L26 18L28 18L28 19L26 19L26 20L27 20L27 21L26 21L26 22L27 22L27 21L28 21L28 19L29 19L29 20L32 20L32 22L33 22L33 23L32 23L32 24L33 24L33 25L32 25L32 26L34 26L34 27L33 27L33 28L32 28L32 27L30 27L30 28L27 28L27 29L26 29L26 28L25 28L25 29L24 29L24 30L25 30L25 29L26 29L26 30L27 30L27 29L28 29L28 32L27 32L27 31L26 31L26 32L25 32L25 33L24 33L24 34L23 34L23 35L22 35L22 33L21 33L21 34L20 34L20 35L19 35L19 36L18 36L18 37L19 37L19 36L20 36L20 37L21 37L21 36L20 36L20 35L22 35L22 36L23 36L23 35L24 35L24 36L25 36L25 35L24 35L24 34L25 34L25 33L26 33L26 34L27 34L27 35L26 35L26 36L27 36L27 37L26 37L26 38L25 38L25 37L22 37L22 38L20 38L20 39L21 39L21 41L22 41L22 42L21 42L21 43L22 43L22 42L25 42L25 43L24 43L24 44L23 44L23 45L22 45L22 46L20 46L20 45L21 45L21 44L20 44L20 45L19 45L19 43L20 43L20 42L19 42L19 41L20 41L20 40L19 40L19 41L18 41L18 40L17 40L17 39L18 39L18 38L17 38L17 39L15 39L15 38L14 38L14 39L13 39L13 38L12 38L12 39L13 39L13 42L10 42L10 41L9 41L9 40L11 40L11 39L10 39L10 36L9 36L9 37L8 37L8 38L6 38L6 39L5 39L5 40L6 40L6 41L7 41L7 40L8 40L8 41L9 41L9 42L10 42L10 43L12 43L12 44L13 44L13 45L12 45L12 46L14 46L14 47L15 47L15 45L19 45L19 46L20 46L20 47L22 47L22 46L23 46L23 45L24 45L24 46L25 46L25 47L24 47L24 48L25 48L25 49L26 49L26 48L25 48L25 47L27 47L27 49L28 49L28 50L29 50L29 49L28 49L28 48L29 48L29 45L28 45L28 44L27 44L27 43L28 43L28 42L27 42L27 41L26 41L26 40L25 40L25 41L22 41L22 40L24 40L24 39L28 39L28 38L27 38L27 37L29 37L29 38L30 38L30 39L31 39L31 40L29 40L29 41L31 41L31 40L32 40L32 43L31 43L31 42L29 42L29 43L30 43L30 45L31 45L31 46L30 46L30 47L31 47L31 48L32 48L32 47L33 47L33 49L34 49L34 47L35 47L35 46L37 46L37 47L39 47L39 50L38 50L38 49L37 49L37 48L35 48L35 50L37 50L37 52L36 52L36 54L34 54L34 55L36 55L36 54L37 54L37 53L38 53L38 52L40 52L40 51L39 51L39 50L40 50L40 48L42 48L42 46L43 46L43 49L41 49L41 50L43 50L43 49L44 49L44 50L45 50L45 49L44 49L44 45L42 45L42 44L45 44L45 47L47 47L47 48L48 48L48 49L49 49L49 50L48 50L48 51L49 51L49 50L50 50L50 48L51 48L51 47L52 47L52 46L50 46L50 48L48 48L48 47L49 47L49 46L48 46L48 47L47 47L47 46L46 46L46 45L49 45L49 42L50 42L50 43L51 43L51 42L52 42L52 41L53 41L53 39L52 39L52 40L51 40L51 38L52 38L52 37L53 37L53 35L52 35L52 36L51 36L51 34L50 34L50 33L49 33L49 32L50 32L50 31L51 31L51 30L50 30L50 31L49 31L49 30L48 30L48 31L47 31L47 30L46 30L46 31L44 31L44 32L41 32L41 31L42 31L42 30L43 30L43 29L42 29L42 30L41 30L41 29L40 29L40 28L41 28L41 25L42 25L42 26L43 26L43 25L42 25L42 24L41 24L41 23L40 23L40 24L41 24L41 25L40 25L40 28L39 28L39 26L38 26L38 27L37 27L37 28L34 28L34 27L36 27L36 26L34 26L34 25L37 25L37 24L34 24L34 23L35 23L35 22L33 22L33 20L34 20L34 19L37 19L37 16L39 16L39 15L40 15L40 14L38 14L38 13L40 13L40 12L41 12L41 13L42 13L42 14L43 14L43 12L45 12L45 11L47 11L47 10L49 10L49 11L50 11L50 9L49 9L49 8L47 8L47 5L46 5L46 4ZM8 5L8 7L9 7L9 8L6 8L6 9L10 9L10 7L11 7L11 6L10 6L10 7L9 7L9 5ZM17 5L17 6L16 6L16 7L17 7L17 6L18 6L18 7L19 7L19 6L18 6L18 5ZM20 5L20 7L21 7L21 8L22 8L22 7L21 7L21 5ZM26 5L26 6L25 6L25 7L26 7L26 6L27 6L27 7L28 7L28 6L27 6L27 5ZM29 5L29 8L32 8L32 5ZM30 6L30 7L31 7L31 6ZM36 6L36 7L37 7L37 6ZM48 6L48 7L49 7L49 6ZM15 8L15 9L18 9L18 10L17 10L17 11L18 11L18 10L19 10L19 11L20 11L20 10L19 10L19 9L20 9L20 8L19 8L19 9L18 9L18 8ZM59 8L59 9L60 9L60 8ZM21 9L21 10L24 10L24 11L23 11L23 12L24 12L24 11L25 11L25 9ZM26 9L26 10L27 10L27 9ZM40 10L40 11L41 11L41 12L42 12L42 11L41 11L41 10ZM15 11L15 13L14 13L14 14L13 14L13 15L14 15L14 16L12 16L12 13L11 13L11 16L10 16L10 15L9 15L9 14L8 14L8 15L9 15L9 16L10 16L10 17L9 17L9 19L10 19L10 20L12 20L12 22L13 22L13 20L14 20L14 24L15 24L15 25L17 25L17 24L15 24L15 19L16 19L16 21L17 21L17 22L16 22L16 23L17 23L17 22L18 22L18 21L19 21L19 20L18 20L18 21L17 21L17 18L18 18L18 19L20 19L20 18L18 18L18 17L21 17L21 19L23 19L23 18L25 18L25 17L24 17L24 16L25 16L25 15L29 15L29 14L27 14L27 13L26 13L26 12L27 12L27 11L26 11L26 12L25 12L25 13L23 13L23 14L22 14L22 15L23 15L23 14L25 14L25 15L24 15L24 16L23 16L23 18L22 18L22 16L20 16L20 15L21 15L21 14L20 14L20 13L21 13L21 12L20 12L20 13L19 13L19 12L16 12L16 11ZM30 11L30 12L29 12L29 13L30 13L30 12L31 12L31 11ZM0 12L0 14L1 14L1 12ZM56 12L56 13L57 13L57 12ZM15 13L15 14L17 14L17 16L16 16L16 15L15 15L15 16L16 16L16 17L13 17L13 18L12 18L12 16L11 16L11 18L10 18L10 19L12 19L12 20L13 20L13 18L16 18L16 17L17 17L17 16L19 16L19 15L20 15L20 14L19 14L19 13ZM25 13L25 14L26 14L26 13ZM18 14L18 15L19 15L19 14ZM44 15L44 16L45 16L45 15ZM58 16L58 19L59 19L59 18L60 18L60 19L61 19L61 18L60 18L60 17L59 17L59 16ZM56 17L56 18L57 18L57 17ZM24 19L24 20L25 20L25 19ZM6 20L6 21L8 21L8 20ZM20 20L20 21L21 21L21 20ZM43 20L43 21L45 21L45 20ZM53 20L53 21L52 21L52 22L53 22L53 23L51 23L51 24L53 24L53 25L50 25L50 26L49 26L49 28L53 28L53 27L55 27L55 28L56 28L56 27L57 27L57 25L58 25L58 26L59 26L59 25L58 25L58 24L60 24L60 23L57 23L57 24L56 24L56 27L55 27L55 26L53 26L53 25L55 25L55 24L53 24L53 23L55 23L55 22L53 22L53 21L54 21L54 20ZM60 20L60 21L61 21L61 20ZM10 21L10 22L11 22L11 21ZM22 21L22 22L23 22L23 23L25 23L25 25L26 25L26 23L25 23L25 21ZM6 22L6 23L5 23L5 24L6 24L6 25L9 25L9 24L6 24L6 23L7 23L7 22ZM44 23L44 24L45 24L45 23ZM46 25L46 26L48 26L48 25ZM19 26L19 27L20 27L20 26ZM50 26L50 27L52 27L52 26ZM46 27L46 28L48 28L48 27ZM33 28L33 30L35 30L35 29L34 29L34 28ZM37 28L37 29L36 29L36 32L37 32L37 33L38 33L38 34L39 34L39 33L38 33L38 32L40 32L40 33L41 33L41 32L40 32L40 31L41 31L41 30L40 30L40 31L38 31L38 30L39 30L39 29L38 29L38 28ZM57 28L57 29L58 29L58 28ZM60 28L60 29L61 29L61 28ZM5 29L5 32L8 32L8 29ZM10 29L10 30L11 30L11 29ZM29 29L29 32L32 32L32 29ZM37 29L37 30L38 30L38 29ZM53 29L53 32L56 32L56 29ZM6 30L6 31L7 31L7 30ZM30 30L30 31L31 31L31 30ZM54 30L54 31L55 31L55 30ZM57 30L57 31L58 31L58 32L59 32L59 31L58 31L58 30ZM12 31L12 32L15 32L15 31ZM33 31L33 33L32 33L32 34L33 34L33 35L32 35L32 36L31 36L31 35L30 35L30 34L31 34L31 33L29 33L29 35L28 35L28 36L31 36L31 37L30 37L30 38L35 38L35 40L37 40L37 41L38 41L38 42L37 42L37 43L32 43L32 45L34 45L34 46L35 46L35 44L38 44L38 46L40 46L40 47L41 47L41 46L42 46L42 45L41 45L41 44L42 44L42 43L43 43L43 42L41 42L41 41L43 41L43 40L42 40L42 38L41 38L41 37L43 37L43 39L45 39L45 38L44 38L44 37L45 37L45 36L40 36L40 37L38 37L38 36L39 36L39 35L36 35L36 36L37 36L37 37L35 37L35 36L34 36L34 34L35 34L35 31ZM46 31L46 32L47 32L47 33L45 33L45 32L44 32L44 33L43 33L43 34L40 34L40 35L44 35L44 33L45 33L45 35L46 35L46 34L47 34L47 35L48 35L48 36L50 36L50 34L49 34L49 33L48 33L48 32L49 32L49 31L48 31L48 32L47 32L47 31ZM26 32L26 33L27 33L27 34L28 34L28 33L27 33L27 32ZM0 33L0 34L1 34L1 35L0 35L0 36L3 36L3 35L2 35L2 34L1 34L1 33ZM32 36L32 37L34 37L34 36ZM54 36L54 37L55 37L55 36ZM37 37L37 38L36 38L36 39L39 39L39 40L38 40L38 41L39 41L39 42L38 42L38 43L40 43L40 44L39 44L39 45L40 45L40 46L41 46L41 45L40 45L40 44L41 44L41 42L40 42L40 41L39 41L39 40L41 40L41 39L40 39L40 38L38 38L38 37ZM46 37L46 38L47 38L47 39L46 39L46 40L47 40L47 39L48 39L48 40L50 40L50 42L51 42L51 40L50 40L50 38L51 38L51 37L49 37L49 39L48 39L48 38L47 38L47 37ZM58 37L58 38L59 38L59 37ZM2 38L2 39L3 39L3 38ZM8 38L8 39L9 39L9 38ZM22 38L22 39L24 39L24 38ZM54 38L54 39L55 39L55 40L56 40L56 39L55 39L55 38ZM6 39L6 40L7 40L7 39ZM32 39L32 40L33 40L33 39ZM15 40L15 42L16 42L16 43L13 43L13 44L14 44L14 45L15 45L15 44L18 44L18 43L17 43L17 42L18 42L18 41L16 41L16 40ZM44 40L44 43L46 43L46 42L47 42L47 44L48 44L48 42L47 42L47 41L46 41L46 42L45 42L45 40ZM25 41L25 42L26 42L26 41ZM34 41L34 42L35 42L35 41ZM6 42L6 43L7 43L7 42ZM59 42L59 43L58 43L58 44L59 44L59 43L60 43L60 42ZM6 44L6 45L7 45L7 44ZM24 44L24 45L25 45L25 46L26 46L26 45L27 45L27 46L28 46L28 45L27 45L27 44L26 44L26 45L25 45L25 44ZM50 44L50 45L52 45L52 44ZM16 46L16 48L14 48L14 49L13 49L13 47L12 47L12 48L11 48L11 49L13 49L13 50L14 50L14 49L16 49L16 48L17 48L17 47L18 47L18 49L19 49L19 50L18 50L18 51L19 51L19 50L20 50L20 51L22 51L22 52L23 52L23 51L22 51L22 50L20 50L20 49L22 49L22 48L20 48L20 49L19 49L19 47L18 47L18 46ZM31 46L31 47L32 47L32 46ZM6 49L6 50L7 50L7 51L9 51L9 52L8 52L8 53L10 53L10 50L7 50L7 49ZM58 49L58 50L59 50L59 49ZM46 50L46 51L47 51L47 50ZM3 51L3 52L4 52L4 51ZM12 52L12 53L13 53L13 54L14 54L14 53L13 53L13 52ZM20 52L20 53L21 53L21 52ZM41 52L41 53L39 53L39 54L38 54L38 55L37 55L37 56L41 56L41 55L39 55L39 54L42 54L42 55L43 55L43 54L44 54L44 53L42 53L42 52ZM26 53L26 54L27 54L27 53ZM29 53L29 56L32 56L32 53ZM53 53L53 56L56 56L56 53ZM9 54L9 55L10 55L10 54ZM30 54L30 55L31 55L31 54ZM54 54L54 55L55 55L55 54ZM24 55L24 56L25 56L25 57L26 57L26 55ZM47 55L47 56L49 56L49 55ZM37 57L37 58L36 58L36 59L37 59L37 58L38 58L38 57ZM54 57L54 58L56 58L56 57ZM22 58L22 59L23 59L23 58ZM0 0L0 7L7 7L7 0ZM1 1L1 6L6 6L6 1ZM2 2L2 5L5 5L5 2ZM54 0L54 7L61 7L61 0ZM55 1L55 6L60 6L60 1ZM56 2L56 5L59 5L59 2ZM0 54L0 61L7 61L7 54ZM1 55L1 60L6 60L6 55ZM2 56L2 59L5 59L5 56Z" fill="#000000"/></g></g></svg>
