<?xml version="1.0" encoding="UTF-8"?>
<svg xmlns="http://www.w3.org/2000/svg" version="1.1" width="300" height="300" viewBox="0 0 300 300"><rect x="0" y="0" width="300" height="300" fill="#ffffff"/><g transform="scale(4.918)"><g transform="translate(0,0)"><path fill-rule="evenodd" d="M9 0L9 1L8 1L8 2L9 2L9 3L8 3L8 4L9 4L9 5L8 5L8 7L9 7L9 8L6 8L6 9L5 9L5 8L0 8L0 11L2 11L2 10L1 10L1 9L4 9L4 10L3 10L3 11L4 11L4 12L3 12L3 13L2 13L2 14L3 14L3 15L4 15L4 16L2 16L2 15L0 15L0 19L1 19L1 17L3 17L3 18L2 18L2 19L3 19L3 21L2 21L2 22L3 22L3 23L2 23L2 24L1 24L1 20L0 20L0 25L3 25L3 24L5 24L5 25L4 25L4 26L5 26L5 25L7 25L7 26L6 26L6 27L3 27L3 26L2 26L2 29L1 29L1 28L0 28L0 29L1 29L1 30L0 30L0 31L1 31L1 33L0 33L0 36L4 36L4 37L8 37L8 36L9 36L9 39L8 39L8 38L2 38L2 37L0 37L0 41L1 41L1 43L2 43L2 41L1 41L1 40L4 40L4 39L5 39L5 40L6 40L6 41L3 41L3 42L4 42L4 43L3 43L3 44L1 44L1 45L0 45L0 46L1 46L1 47L0 47L0 50L2 50L2 51L0 51L0 53L4 53L4 52L5 52L5 51L8 51L8 52L9 52L9 51L10 51L10 53L8 53L8 55L11 55L11 54L12 54L12 51L14 51L14 52L15 52L15 56L14 56L14 55L13 55L13 56L14 56L14 57L13 57L13 58L15 58L15 61L19 61L19 60L17 60L17 59L18 59L18 58L19 58L19 59L20 59L20 58L19 58L19 57L20 57L20 56L21 56L21 58L24 58L24 59L23 59L23 60L24 60L24 59L25 59L25 58L26 58L26 60L27 60L27 61L28 61L28 60L29 60L29 59L27 59L27 58L26 58L26 57L22 57L22 56L21 56L21 55L19 55L19 57L18 57L18 56L16 56L16 55L18 55L18 53L19 53L19 50L20 50L20 51L21 51L21 52L20 52L20 53L21 53L21 54L23 54L23 56L26 56L26 55L25 55L25 54L28 54L28 55L27 55L27 57L30 57L30 58L31 58L31 59L30 59L30 60L31 60L31 59L32 59L32 60L34 60L34 61L35 61L35 58L34 58L34 57L37 57L37 58L36 58L36 59L37 59L37 60L36 60L36 61L38 61L38 59L39 59L39 58L38 58L38 57L39 57L39 56L38 56L38 57L37 57L37 56L36 56L36 55L39 55L39 54L38 54L38 53L39 53L39 52L41 52L41 53L40 53L40 56L41 56L41 54L46 54L46 55L42 55L42 56L43 56L43 57L41 57L41 58L43 58L43 59L42 59L42 61L43 61L43 59L44 59L44 60L46 60L46 59L48 59L48 60L47 60L47 61L52 61L52 60L53 60L53 61L54 61L54 60L57 60L57 61L61 61L61 54L59 54L59 55L60 55L60 56L58 56L58 57L60 57L60 60L57 60L57 59L54 59L54 58L55 58L55 57L56 57L56 58L57 58L57 52L58 52L58 53L59 53L59 52L60 52L60 51L61 51L61 50L60 50L60 51L59 51L59 50L58 50L58 49L61 49L61 46L59 46L59 44L60 44L60 45L61 45L61 42L60 42L60 43L59 43L59 42L58 42L58 41L61 41L61 38L60 38L60 39L59 39L59 38L58 38L58 37L59 37L59 36L58 36L58 35L61 35L61 34L55 34L55 33L57 33L57 32L58 32L58 33L59 33L59 32L60 32L60 33L61 33L61 30L60 30L60 29L59 29L59 28L61 28L61 26L60 26L60 25L61 25L61 24L60 24L60 25L59 25L59 24L58 24L58 25L57 25L57 27L56 27L56 24L57 24L57 23L59 23L59 22L60 22L60 23L61 23L61 22L60 22L60 21L59 21L59 20L61 20L61 18L59 18L59 16L58 16L58 14L57 14L57 13L59 13L59 12L60 12L60 11L61 11L61 10L60 10L60 11L59 11L59 9L60 9L60 8L59 8L59 9L58 9L58 8L57 8L57 9L56 9L56 8L55 8L55 9L54 9L54 8L52 8L52 7L53 7L53 6L52 6L52 7L51 7L51 5L52 5L52 4L53 4L53 0L51 0L51 2L50 2L50 4L49 4L49 1L50 1L50 0L48 0L48 3L47 3L47 1L46 1L46 0L45 0L45 1L43 1L43 0L42 0L42 1L43 1L43 3L45 3L45 4L44 4L44 5L43 5L43 4L41 4L41 5L43 5L43 6L42 6L42 8L43 8L43 6L44 6L44 8L45 8L45 9L44 9L44 10L45 10L45 11L44 11L44 12L43 12L43 11L42 11L42 10L43 10L43 9L42 9L42 10L41 10L41 11L39 11L39 10L40 10L40 9L39 9L39 10L38 10L38 7L39 7L39 8L41 8L41 6L40 6L40 5L38 5L38 4L39 4L39 3L42 3L42 2L41 2L41 0L39 0L39 1L36 1L36 2L39 2L39 3L38 3L38 4L37 4L37 3L34 3L34 2L35 2L35 1L34 1L34 2L32 2L32 1L31 1L31 0L29 0L29 1L30 1L30 3L31 3L31 4L29 4L29 2L28 2L28 1L27 1L27 0L26 0L26 1L27 1L27 2L26 2L26 3L25 3L25 0L24 0L24 1L23 1L23 2L22 2L22 1L20 1L20 0L19 0L19 1L18 1L18 0L16 0L16 1L14 1L14 2L13 2L13 1L10 1L10 0ZM9 1L9 2L10 2L10 4L11 4L11 2L10 2L10 1ZM19 1L19 3L21 3L21 4L20 4L20 6L19 6L19 9L21 9L21 7L22 7L22 6L21 6L21 5L22 5L22 4L23 4L23 3L24 3L24 4L25 4L25 5L23 5L23 8L22 8L22 9L23 9L23 10L22 10L22 11L23 11L23 12L21 12L21 13L20 13L20 12L19 12L19 13L15 13L15 12L14 12L14 11L15 11L15 10L13 10L13 8L14 8L14 9L16 9L16 10L17 10L17 9L18 9L18 8L17 8L17 9L16 9L16 6L17 6L17 7L18 7L18 5L19 5L19 4L16 4L16 6L15 6L15 8L14 8L14 5L10 5L10 6L9 6L9 7L10 7L10 8L9 8L9 9L8 9L8 10L7 10L7 9L6 9L6 10L4 10L4 11L6 11L6 12L7 12L7 13L3 13L3 14L4 14L4 15L5 15L5 16L7 16L7 17L6 17L6 18L3 18L3 19L4 19L4 20L5 20L5 19L6 19L6 20L7 20L7 21L5 21L5 23L6 23L6 24L7 24L7 23L6 23L6 22L8 22L8 24L9 24L9 26L8 26L8 28L10 28L10 29L13 29L13 30L14 30L14 29L15 29L15 31L16 31L16 33L14 33L14 31L13 31L13 33L12 33L12 30L11 30L11 32L9 32L9 34L11 34L11 33L12 33L12 34L13 34L13 33L14 33L14 34L16 34L16 33L17 33L17 35L18 35L18 36L19 36L19 37L16 37L16 35L13 35L13 36L11 36L11 35L10 35L10 36L11 36L11 37L10 37L10 41L9 41L9 40L8 40L8 41L6 41L6 42L7 42L7 43L6 43L6 44L7 44L7 45L4 45L4 46L3 46L3 45L1 45L1 46L2 46L2 47L3 47L3 49L2 49L2 48L1 48L1 49L2 49L2 50L4 50L4 46L5 46L5 47L6 47L6 48L5 48L5 50L7 50L7 49L8 49L8 48L9 48L9 47L8 47L8 48L7 48L7 47L6 47L6 46L8 46L8 41L9 41L9 43L10 43L10 44L9 44L9 46L10 46L10 47L12 47L12 48L11 48L11 49L9 49L9 50L8 50L8 51L9 51L9 50L10 50L10 51L11 51L11 49L12 49L12 48L13 48L13 50L14 50L14 44L17 44L17 41L18 41L18 40L17 40L17 39L18 39L18 38L19 38L19 41L21 41L21 43L24 43L24 44L21 44L21 45L15 45L15 46L17 46L17 47L18 47L18 46L19 46L19 48L21 48L21 49L20 49L20 50L21 50L21 49L22 49L22 51L24 51L24 52L25 52L25 50L26 50L26 53L27 53L27 52L29 52L29 51L30 51L30 52L31 52L31 51L32 51L32 52L33 52L33 54L35 54L35 55L34 55L34 56L35 56L35 55L36 55L36 53L35 53L35 52L37 52L37 53L38 53L38 52L39 52L39 51L38 51L38 50L41 50L41 52L43 52L43 53L45 53L45 52L43 52L43 51L46 51L46 52L47 52L47 53L46 53L46 54L47 54L47 56L49 56L49 57L48 57L48 59L49 59L49 60L51 60L51 59L53 59L53 58L54 58L54 57L53 57L53 58L51 58L51 56L52 56L52 55L50 55L50 56L49 56L49 55L48 55L48 52L49 52L49 51L50 51L50 53L49 53L49 54L51 54L51 52L52 52L52 51L53 51L53 52L56 52L56 50L57 50L57 49L58 49L58 48L60 48L60 47L58 47L58 48L57 48L57 47L54 47L54 49L52 49L52 51L50 51L50 50L51 50L51 48L52 48L52 47L53 47L53 46L52 46L52 47L51 47L51 45L50 45L50 44L52 44L52 45L54 45L54 44L55 44L55 45L56 45L56 46L57 46L57 45L56 45L56 44L55 44L55 43L56 43L56 42L57 42L57 44L59 44L59 43L58 43L58 42L57 42L57 41L56 41L56 40L55 40L55 39L57 39L57 40L59 40L59 39L57 39L57 37L56 37L56 35L53 35L53 33L52 33L52 32L51 32L51 31L52 31L52 28L49 28L49 27L50 27L50 26L51 26L51 27L53 27L53 28L54 28L54 27L55 27L55 28L56 28L56 27L55 27L55 26L53 26L53 25L55 25L55 24L53 24L53 23L55 23L55 22L53 22L53 21L54 21L54 20L53 20L53 21L52 21L52 22L53 22L53 23L51 23L51 24L53 24L53 25L50 25L50 26L49 26L49 25L48 25L48 24L49 24L49 23L50 23L50 22L51 22L51 21L50 21L50 19L48 19L48 18L47 18L47 17L48 17L48 16L50 16L50 18L51 18L51 20L52 20L52 18L53 18L53 19L55 19L55 20L56 20L56 23L57 23L57 20L59 20L59 18L56 18L56 17L57 17L57 16L56 16L56 15L57 15L57 14L56 14L56 13L57 13L57 12L56 12L56 13L55 13L55 12L54 12L54 13L55 13L55 14L53 14L53 13L52 13L52 14L51 14L51 13L50 13L50 12L52 12L52 11L51 11L51 10L53 10L53 9L50 9L50 8L49 8L49 7L50 7L50 6L49 6L49 7L48 7L48 4L46 4L46 5L47 5L47 7L46 7L46 6L45 6L45 5L44 5L44 6L45 6L45 7L46 7L46 8L47 8L47 9L45 9L45 10L47 10L47 11L45 11L45 12L44 12L44 13L43 13L43 12L42 12L42 13L41 13L41 12L40 12L40 13L41 13L41 14L39 14L39 12L37 12L37 11L36 11L36 12L37 12L37 13L35 13L35 11L33 11L33 10L35 10L35 9L33 9L33 10L32 10L32 9L31 9L31 10L30 10L30 9L29 9L29 10L28 10L28 8L27 8L27 9L25 9L25 8L26 8L26 6L25 6L25 5L26 5L26 4L27 4L27 5L28 5L28 4L27 4L27 3L28 3L28 2L27 2L27 3L26 3L26 4L25 4L25 3L24 3L24 2L23 2L23 3L22 3L22 2L20 2L20 1ZM45 1L45 2L46 2L46 1ZM14 2L14 4L15 4L15 3L16 3L16 2ZM17 2L17 3L18 3L18 2ZM31 2L31 3L32 3L32 2ZM12 3L12 4L13 4L13 3ZM33 3L33 5L35 5L35 8L37 8L37 7L38 7L38 6L37 6L37 7L36 7L36 5L37 5L37 4L36 4L36 5L35 5L35 4L34 4L34 3ZM51 3L51 4L52 4L52 3ZM29 5L29 8L32 8L32 5ZM10 6L10 7L11 7L11 6ZM12 6L12 7L13 7L13 6ZM20 6L20 7L21 7L21 6ZM24 6L24 8L23 8L23 9L24 9L24 10L25 10L25 11L24 11L24 12L23 12L23 13L21 13L21 14L20 14L20 13L19 13L19 14L17 14L17 15L16 15L16 14L15 14L15 13L14 13L14 12L13 12L13 10L12 10L12 11L9 11L9 10L10 10L10 9L9 9L9 10L8 10L8 12L9 12L9 13L7 13L7 14L5 14L5 15L7 15L7 16L9 16L9 17L10 17L10 18L14 18L14 19L13 19L13 20L14 20L14 22L16 22L16 21L19 21L19 22L20 22L20 23L19 23L19 25L18 25L18 24L17 24L17 23L18 23L18 22L17 22L17 23L16 23L16 24L15 24L15 23L13 23L13 24L12 24L12 25L10 25L10 26L9 26L9 27L11 27L11 28L12 28L12 27L13 27L13 28L14 28L14 27L13 27L13 24L14 24L14 26L15 26L15 27L16 27L16 25L18 25L18 26L19 26L19 27L17 27L17 28L15 28L15 29L19 29L19 27L20 27L20 26L19 26L19 25L20 25L20 24L23 24L23 23L24 23L24 24L26 24L26 23L25 23L25 21L26 21L26 22L27 22L27 23L29 23L29 22L28 22L28 21L29 21L29 20L30 20L30 22L31 22L31 23L30 23L30 24L27 24L27 26L26 26L26 25L24 25L24 26L23 26L23 25L21 25L21 27L23 27L23 28L26 28L26 27L27 27L27 26L28 26L28 27L29 27L29 28L28 28L28 29L26 29L26 30L28 30L28 32L27 32L27 31L26 31L26 32L25 32L25 31L24 31L24 30L25 30L25 29L22 29L22 30L20 30L20 33L22 33L22 32L21 32L21 31L22 31L22 30L23 30L23 31L24 31L24 32L23 32L23 33L24 33L24 34L23 34L23 35L24 35L24 36L25 36L25 37L22 37L22 36L21 36L21 35L20 35L20 34L19 34L19 36L20 36L20 37L19 37L19 38L20 38L20 39L21 39L21 41L22 41L22 42L24 42L24 43L25 43L25 41L27 41L27 40L30 40L30 41L31 41L31 40L32 40L32 41L33 41L33 42L32 42L32 43L33 43L33 44L32 44L32 47L31 47L31 48L30 48L30 45L31 45L31 44L30 44L30 45L29 45L29 43L28 43L28 42L27 42L27 43L26 43L26 44L28 44L28 46L27 46L27 45L25 45L25 44L24 44L24 45L21 45L21 46L20 46L20 47L21 47L21 48L22 48L22 49L23 49L23 50L24 50L24 49L26 49L26 50L27 50L27 51L28 51L28 50L27 50L27 49L28 49L28 48L27 48L27 49L26 49L26 46L27 46L27 47L28 47L28 46L29 46L29 50L30 50L30 51L31 51L31 50L32 50L32 51L33 51L33 50L32 50L32 49L33 49L33 48L32 48L32 47L33 47L33 45L35 45L35 44L36 44L36 45L37 45L37 46L36 46L36 47L37 47L37 48L36 48L36 50L34 50L34 51L37 51L37 48L41 48L41 50L44 50L44 48L45 48L45 49L47 49L47 48L48 48L48 49L49 49L49 50L48 50L48 51L47 51L47 50L46 50L46 51L47 51L47 52L48 52L48 51L49 51L49 50L50 50L50 48L51 48L51 47L50 47L50 48L48 48L48 46L47 46L47 48L46 48L46 46L45 46L45 45L49 45L49 46L50 46L50 45L49 45L49 43L48 43L48 42L45 42L45 41L44 41L44 40L46 40L46 39L47 39L47 38L46 38L46 37L45 37L45 38L46 38L46 39L44 39L44 38L43 38L43 36L46 36L46 35L47 35L47 36L48 36L48 39L50 39L50 40L48 40L48 41L49 41L49 42L50 42L50 43L51 43L51 42L52 42L52 41L53 41L53 43L52 43L52 44L54 44L54 43L55 43L55 42L56 42L56 41L55 41L55 40L54 40L54 39L55 39L55 36L53 36L53 35L52 35L52 36L50 36L50 37L51 37L51 38L49 38L49 36L48 36L48 35L47 35L47 34L46 34L46 32L48 32L48 33L49 33L49 34L50 34L50 35L51 35L51 34L52 34L52 33L51 33L51 34L50 34L50 33L49 33L49 32L50 32L50 31L51 31L51 30L50 30L50 31L49 31L49 32L48 32L48 31L46 31L46 30L43 30L43 28L42 28L42 30L41 30L41 29L40 29L40 28L41 28L41 27L42 27L42 26L43 26L43 27L44 27L44 28L46 28L46 29L47 29L47 30L49 30L49 28L48 28L48 29L47 29L47 28L46 28L46 27L47 27L47 26L45 26L45 27L44 27L44 24L45 24L45 25L46 25L46 24L45 24L45 23L44 23L44 21L43 21L43 20L45 20L45 22L46 22L46 23L47 23L47 24L48 24L48 23L49 23L49 20L48 20L48 23L47 23L47 22L46 22L46 21L47 21L47 20L46 20L46 19L47 19L47 18L46 18L46 17L47 17L47 16L48 16L48 15L49 15L49 14L48 14L48 15L47 15L47 16L46 16L46 14L45 14L45 13L47 13L47 12L48 12L48 13L49 13L49 12L48 12L48 11L47 11L47 12L45 12L45 13L44 13L44 14L45 14L45 15L44 15L44 16L46 16L46 17L44 17L44 18L45 18L45 19L42 19L42 20L41 20L41 19L40 19L40 18L43 18L43 17L40 17L40 16L41 16L41 15L42 15L42 16L43 16L43 15L42 15L42 14L43 14L43 13L42 13L42 14L41 14L41 15L40 15L40 16L39 16L39 18L37 18L37 20L35 20L35 22L33 22L33 23L32 23L32 22L31 22L31 20L32 20L32 21L33 21L33 20L32 20L32 18L33 18L33 19L35 19L35 18L33 18L33 17L35 17L35 14L34 14L34 13L33 13L33 12L31 12L31 11L32 11L32 10L31 10L31 11L30 11L30 10L29 10L29 12L31 12L31 13L30 13L30 14L29 14L29 13L28 13L28 14L27 14L27 13L26 13L26 12L28 12L28 10L25 10L25 9L24 9L24 8L25 8L25 6ZM27 6L27 7L28 7L28 6ZM30 6L30 7L31 7L31 6ZM33 6L33 8L34 8L34 6ZM39 6L39 7L40 7L40 6ZM11 8L11 9L12 9L12 8ZM48 8L48 9L49 9L49 11L50 11L50 9L49 9L49 8ZM55 9L55 10L54 10L54 11L57 11L57 10L56 10L56 9ZM6 10L6 11L7 11L7 10ZM19 10L19 11L20 11L20 10ZM16 11L16 12L18 12L18 11ZM58 11L58 12L59 12L59 11ZM0 12L0 13L1 13L1 12ZM10 12L10 13L9 13L9 14L8 14L8 15L9 15L9 16L10 16L10 17L12 17L12 14L13 14L13 15L14 15L14 16L13 16L13 17L14 17L14 18L15 18L15 19L16 19L16 20L17 20L17 19L18 19L18 18L19 18L19 19L21 19L21 21L20 21L20 20L19 20L19 21L20 21L20 22L21 22L21 21L23 21L23 20L22 20L22 19L24 19L24 21L25 21L25 20L26 20L26 21L27 21L27 20L29 20L29 19L25 19L25 18L26 18L26 17L27 17L27 18L28 18L28 17L30 17L30 18L32 18L32 17L31 17L31 16L32 16L32 15L33 15L33 14L32 14L32 13L31 13L31 14L32 14L32 15L31 15L31 16L29 16L29 15L28 15L28 17L27 17L27 15L26 15L26 13L25 13L25 12L24 12L24 13L25 13L25 15L23 15L23 17L22 17L22 16L21 16L21 15L22 15L22 14L21 14L21 15L20 15L20 14L19 14L19 17L18 17L18 18L17 18L17 16L18 16L18 15L17 15L17 16L16 16L16 15L15 15L15 14L13 14L13 13L11 13L11 12ZM37 13L37 14L36 14L36 15L37 15L37 14L38 14L38 15L39 15L39 14L38 14L38 13ZM9 14L9 15L10 15L10 14ZM50 14L50 15L51 15L51 17L53 17L53 18L55 18L55 17L56 17L56 16L55 16L55 15L53 15L53 14L52 14L52 15L51 15L51 14ZM59 14L59 15L61 15L61 14ZM25 15L25 16L24 16L24 17L23 17L23 18L24 18L24 17L26 17L26 15ZM52 15L52 16L53 16L53 17L54 17L54 16L53 16L53 15ZM20 16L20 17L21 17L21 19L22 19L22 17L21 17L21 16ZM36 16L36 17L38 17L38 16ZM60 16L60 17L61 17L61 16ZM7 17L7 18L6 18L6 19L7 19L7 18L8 18L8 19L9 19L9 18L8 18L8 17ZM15 17L15 18L16 18L16 17ZM11 19L11 20L12 20L12 19ZM56 19L56 20L57 20L57 19ZM8 20L8 21L9 21L9 22L10 22L10 21L9 21L9 20ZM38 20L38 21L37 21L37 23L36 23L36 22L35 22L35 24L37 24L37 25L34 25L34 23L33 23L33 24L32 24L32 23L31 23L31 24L30 24L30 25L28 25L28 26L29 26L29 27L30 27L30 26L32 26L32 28L33 28L33 26L35 26L35 27L34 27L34 28L35 28L35 29L34 29L34 30L33 30L33 31L34 31L34 30L35 30L35 31L36 31L36 32L33 32L33 33L27 33L27 32L26 32L26 33L25 33L25 35L26 35L26 37L25 37L25 38L24 38L24 40L22 40L22 41L25 41L25 40L26 40L26 39L25 39L25 38L26 38L26 37L27 37L27 38L28 38L28 39L30 39L30 40L31 40L31 39L32 39L32 40L33 40L33 41L34 41L34 42L35 42L35 43L36 43L36 44L37 44L37 45L38 45L38 46L37 46L37 47L38 47L38 46L39 46L39 44L40 44L40 46L42 46L42 47L41 47L41 48L43 48L43 47L45 47L45 46L44 46L44 45L45 45L45 44L48 44L48 43L45 43L45 42L42 42L42 41L43 41L43 40L44 40L44 39L43 39L43 38L41 38L41 39L40 39L40 38L39 38L39 37L42 37L42 36L37 36L37 35L38 35L38 34L39 34L39 35L45 35L45 34L44 34L44 33L45 33L45 32L46 32L46 31L45 31L45 32L44 32L44 31L43 31L43 30L42 30L42 32L40 32L40 34L39 34L39 31L41 31L41 30L40 30L40 29L39 29L39 28L40 28L40 25L43 25L43 22L42 22L42 23L41 23L41 24L39 24L39 23L40 23L40 22L39 22L39 21L41 21L41 20ZM12 21L12 22L11 22L11 23L10 23L10 24L11 24L11 23L12 23L12 22L13 22L13 21ZM58 21L58 22L59 22L59 21ZM22 22L22 23L23 23L23 22ZM38 22L38 23L39 23L39 22ZM32 25L32 26L33 26L33 25ZM37 25L37 26L36 26L36 27L37 27L37 26L38 26L38 28L36 28L36 29L37 29L37 31L39 31L39 30L38 30L38 28L39 28L39 26L38 26L38 25ZM58 25L58 26L59 26L59 25ZM48 26L48 27L49 27L49 26ZM6 27L6 28L7 28L7 27ZM57 27L57 29L58 29L58 30L59 30L59 29L58 29L58 28L59 28L59 27ZM20 28L20 29L21 29L21 28ZM3 29L3 30L1 30L1 31L2 31L2 32L3 32L3 33L4 33L4 31L3 31L3 30L4 30L4 29ZM5 29L5 32L8 32L8 29ZM29 29L29 32L32 32L32 29ZM53 29L53 32L56 32L56 29ZM6 30L6 31L7 31L7 30ZM9 30L9 31L10 31L10 30ZM18 30L18 31L19 31L19 30ZM30 30L30 31L31 31L31 30ZM54 30L54 31L55 31L55 30ZM58 31L58 32L59 32L59 31ZM17 32L17 33L19 33L19 32ZM36 32L36 33L38 33L38 32ZM42 32L42 33L41 33L41 34L43 34L43 32ZM6 33L6 34L3 34L3 35L4 35L4 36L5 36L5 35L6 35L6 36L8 36L8 35L6 35L6 34L8 34L8 33ZM26 33L26 35L28 35L28 34L27 34L27 33ZM1 34L1 35L2 35L2 34ZM32 34L32 35L29 35L29 38L30 38L30 39L31 39L31 38L30 38L30 37L32 37L32 39L34 39L34 40L35 40L35 41L36 41L36 43L37 43L37 44L38 44L38 43L39 43L39 42L38 42L38 40L36 40L36 38L37 38L37 36L35 36L35 34ZM36 34L36 35L37 35L37 34ZM32 35L32 37L33 37L33 38L36 38L36 37L33 37L33 36L34 36L34 35ZM27 36L27 37L28 37L28 36ZM60 36L60 37L61 37L61 36ZM11 37L11 42L10 42L10 43L12 43L12 44L10 44L10 45L13 45L13 44L14 44L14 43L15 43L15 40L16 40L16 41L17 41L17 40L16 40L16 39L17 39L17 38L12 38L12 37ZM20 37L20 38L21 38L21 39L23 39L23 38L21 38L21 37ZM52 37L52 38L51 38L51 40L50 40L50 42L51 42L51 40L52 40L52 39L53 39L53 37ZM1 38L1 39L2 39L2 38ZM38 38L38 39L39 39L39 38ZM6 39L6 40L7 40L7 39ZM14 39L14 40L12 40L12 41L14 41L14 40L15 40L15 39ZM41 40L41 41L42 41L42 40ZM53 40L53 41L54 41L54 40ZM18 42L18 44L19 44L19 43L20 43L20 42ZM40 43L40 44L41 44L41 45L42 45L42 46L43 46L43 44L41 44L41 43ZM44 43L44 44L45 44L45 43ZM21 46L21 47L22 47L22 46ZM23 46L23 49L24 49L24 47L25 47L25 46ZM34 46L34 47L35 47L35 46ZM15 47L15 49L16 49L16 50L15 50L15 51L16 51L16 52L17 52L17 51L18 51L18 50L19 50L19 49L17 49L17 48L16 48L16 47ZM6 48L6 49L7 49L7 48ZM34 48L34 49L35 49L35 48ZM55 48L55 49L54 49L54 50L53 50L53 51L55 51L55 50L56 50L56 49L57 49L57 48ZM30 49L30 50L31 50L31 49ZM3 51L3 52L4 52L4 51ZM58 51L58 52L59 52L59 51ZM6 52L6 53L7 53L7 52ZM22 52L22 53L23 53L23 52ZM10 53L10 54L11 54L11 53ZM13 53L13 54L14 54L14 53ZM16 53L16 54L17 54L17 53ZM29 53L29 56L32 56L32 53ZM53 53L53 56L56 56L56 53ZM30 54L30 55L31 55L31 54ZM54 54L54 55L55 55L55 54ZM8 56L8 61L9 61L9 56ZM10 56L10 58L12 58L12 56ZM44 56L44 59L45 59L45 58L47 58L47 57L46 57L46 56ZM15 57L15 58L18 58L18 57ZM32 57L32 59L34 59L34 58L33 58L33 57ZM50 58L50 59L51 59L51 58ZM10 59L10 60L11 60L11 61L12 61L12 60L11 60L11 59ZM40 59L40 60L39 60L39 61L40 61L40 60L41 60L41 59ZM20 60L20 61L22 61L22 60ZM0 0L0 7L7 7L7 0ZM1 1L1 6L6 6L6 1ZM2 2L2 5L5 5L5 2ZM54 0L54 7L61 7L61 0ZM55 1L55 6L60 6L60 1ZM56 2L56 5L59 5L59 2ZM0 54L0 61L7 61L7 54ZM1 55L1 60L6 60L6 55ZM2 56L2 59L5 59L5 56Z" fill="#000000"/></g></g></svg>
