<?xml version="1.0" encoding="UTF-8"?>
<svg xmlns="http://www.w3.org/2000/svg" version="1.1" width="300" height="300" viewBox="0 0 300 300"><rect x="0" y="0" width="300" height="300" fill="#ffffff"/><g transform="scale(6.122)"><g transform="translate(0,0)"><path fill-rule="evenodd" d="M9 0L9 1L8 1L8 2L9 2L9 1L11 1L11 3L8 3L8 4L10 4L10 5L8 5L8 7L9 7L9 6L10 6L10 8L6 8L6 9L5 9L5 8L0 8L0 13L1 13L1 14L0 14L0 17L1 17L1 18L2 18L2 19L1 19L1 20L2 20L2 21L3 21L3 22L2 22L2 23L3 23L3 25L4 25L4 26L3 26L3 27L1 27L1 28L0 28L0 31L2 31L2 29L3 29L3 30L6 30L6 31L7 31L7 30L6 30L6 29L8 29L8 30L9 30L9 31L8 31L8 32L5 32L5 31L3 31L3 32L2 32L2 33L3 33L3 35L2 35L2 34L1 34L1 35L2 35L2 36L0 36L0 38L1 38L1 40L0 40L0 41L3 41L3 40L4 40L4 39L2 39L2 38L1 38L1 37L3 37L3 38L5 38L5 39L7 39L7 40L6 40L6 41L8 41L8 43L9 43L9 42L10 42L10 41L11 41L11 42L13 42L13 43L14 43L14 44L12 44L12 43L10 43L10 44L8 44L8 49L11 49L11 48L10 48L10 47L12 47L12 48L13 48L13 49L14 49L14 48L15 48L15 49L17 49L17 48L18 48L18 49L19 49L19 48L20 48L20 49L21 49L21 48L23 48L23 49L24 49L24 48L25 48L25 46L27 46L27 44L29 44L29 46L28 46L28 48L29 48L29 49L31 49L31 47L30 47L30 48L29 48L29 46L32 46L32 44L33 44L33 45L35 45L35 44L36 44L36 45L37 45L37 44L36 44L36 43L37 43L37 40L39 40L39 42L38 42L38 43L39 43L39 44L38 44L38 45L39 45L39 46L38 46L38 47L39 47L39 46L42 46L42 48L44 48L44 46L45 46L45 49L49 49L49 47L48 47L48 48L46 48L46 46L47 46L47 44L48 44L48 45L49 45L49 42L45 42L45 41L47 41L47 40L48 40L48 39L49 39L49 38L48 38L48 36L49 36L49 34L46 34L46 33L47 33L47 32L48 32L48 31L49 31L49 30L48 30L48 31L47 31L47 32L45 32L45 31L46 31L46 30L47 30L47 29L49 29L49 26L48 26L48 27L47 27L47 28L46 28L46 30L45 30L45 31L43 31L43 30L44 30L44 29L45 29L45 25L47 25L47 24L45 24L45 22L44 22L44 20L45 20L45 21L47 21L47 23L49 23L49 22L48 22L48 21L49 21L49 20L48 20L48 21L47 21L47 20L45 20L45 18L46 18L46 19L47 19L47 18L48 18L48 19L49 19L49 18L48 18L48 17L49 17L49 16L48 16L48 17L47 17L47 16L46 16L46 17L44 17L44 16L45 16L45 15L49 15L49 14L47 14L47 12L46 12L46 14L45 14L45 13L44 13L44 12L45 12L45 11L44 11L44 12L43 12L43 13L41 13L41 12L42 12L42 11L41 11L41 10L45 10L45 9L46 9L46 8L45 8L45 9L44 9L44 8L43 8L43 9L42 9L42 8L41 8L41 6L40 6L40 9L41 9L41 10L38 10L38 7L39 7L39 5L38 5L38 4L37 4L37 3L36 3L36 5L34 5L34 4L35 4L35 3L34 3L34 2L37 2L37 0L36 0L36 1L34 1L34 0L33 0L33 2L32 2L32 1L31 1L31 0L27 0L27 1L26 1L26 0L25 0L25 1L24 1L24 0L23 0L23 1L21 1L21 2L19 2L19 1L18 1L18 2L17 2L17 3L18 3L18 4L16 4L16 3L15 3L15 4L16 4L16 5L15 5L15 6L14 6L14 8L15 8L15 9L13 9L13 8L12 8L12 7L13 7L13 5L14 5L14 4L12 4L12 0ZM14 0L14 1L15 1L15 2L16 2L16 0ZM40 0L40 1L38 1L38 2L39 2L39 4L40 4L40 3L41 3L41 0ZM25 1L25 2L24 2L24 3L25 3L25 4L26 4L26 3L27 3L27 2L26 2L26 1ZM29 1L29 2L31 2L31 1ZM13 2L13 3L14 3L14 2ZM21 2L21 3L19 3L19 4L21 4L21 3L22 3L22 4L23 4L23 2ZM28 3L28 4L29 4L29 3ZM32 3L32 4L31 4L31 5L29 5L29 7L30 7L30 6L31 6L31 8L32 8L32 9L31 9L31 10L30 10L30 12L28 12L28 11L29 11L29 10L28 10L28 11L27 11L27 12L28 12L28 13L30 13L30 12L32 12L32 13L31 13L31 14L28 14L28 15L29 15L29 16L28 16L28 17L29 17L29 16L30 16L30 17L31 17L31 18L30 18L30 20L28 20L28 22L27 22L27 19L28 19L28 18L27 18L27 16L26 16L26 18L25 18L25 19L26 19L26 22L27 22L27 23L28 23L28 22L29 22L29 23L31 23L31 25L32 25L32 26L29 26L29 27L30 27L30 28L27 28L27 30L26 30L26 31L27 31L27 30L29 30L29 32L27 32L27 33L25 33L25 32L24 32L24 31L25 31L25 30L23 30L23 31L22 31L22 30L21 30L21 29L20 29L20 30L19 30L19 31L21 31L21 33L20 33L20 32L19 32L19 33L16 33L16 32L17 32L17 31L18 31L18 29L19 29L19 26L20 26L20 27L21 27L21 28L22 28L22 29L25 29L25 28L26 28L26 27L25 27L25 28L22 28L22 26L21 26L21 25L20 25L20 24L19 24L19 25L16 25L16 26L15 26L15 27L16 27L16 26L18 26L18 27L17 27L17 28L15 28L15 29L13 29L13 28L14 28L14 27L12 27L12 26L13 26L13 25L15 25L15 24L16 24L16 23L15 23L15 22L16 22L16 21L18 21L18 20L17 20L17 19L18 19L18 18L19 18L19 20L24 20L24 19L23 19L23 18L24 18L24 17L22 17L22 18L21 18L21 17L20 17L20 18L19 18L19 17L15 17L15 16L14 16L14 14L15 14L15 15L16 15L16 16L18 16L18 13L19 13L19 14L20 14L20 15L22 15L22 16L25 16L25 15L24 15L24 13L21 13L21 12L25 12L25 13L26 13L26 14L27 14L27 13L26 13L26 12L25 12L25 11L26 11L26 10L27 10L27 9L26 9L26 10L25 10L25 11L24 11L24 10L22 10L22 9L20 9L20 8L19 8L19 7L20 7L20 5L19 5L19 7L18 7L18 5L17 5L17 8L19 8L19 9L18 9L18 11L17 11L17 9L15 9L15 11L17 11L17 12L15 12L15 13L13 13L13 12L14 12L14 11L12 11L12 12L11 12L11 11L10 11L10 13L9 13L9 11L8 11L8 10L7 10L7 9L6 9L6 10L5 10L5 9L1 9L1 10L3 10L3 11L1 11L1 12L3 12L3 13L2 13L2 14L3 14L3 15L1 15L1 16L3 16L3 15L4 15L4 14L5 14L5 13L6 13L6 14L7 14L7 15L5 15L5 16L7 16L7 17L6 17L6 18L4 18L4 17L2 17L2 18L4 18L4 19L2 19L2 20L3 20L3 21L5 21L5 22L7 22L7 21L8 21L8 20L9 20L9 23L10 23L10 21L11 21L11 23L13 23L13 25L12 25L12 26L10 26L10 25L9 25L9 28L8 28L8 29L11 29L11 28L12 28L12 29L13 29L13 30L10 30L10 32L8 32L8 33L6 33L6 34L5 34L5 33L4 33L4 35L6 35L6 36L8 36L8 38L7 38L7 37L6 37L6 38L7 38L7 39L8 39L8 40L9 40L9 37L10 37L10 38L11 38L11 39L10 39L10 40L11 40L11 41L13 41L13 42L14 42L14 41L16 41L16 42L18 42L18 43L16 43L16 44L15 44L15 45L13 45L13 48L14 48L14 47L16 47L16 48L17 48L17 46L18 46L18 45L20 45L20 48L21 48L21 47L22 47L22 44L21 44L21 43L19 43L19 41L20 41L20 42L22 42L22 40L23 40L23 39L24 39L24 40L26 40L26 39L27 39L27 38L28 38L28 39L30 39L30 40L27 40L27 41L28 41L28 42L27 42L27 43L31 43L31 44L32 44L32 43L33 43L33 44L34 44L34 43L33 43L33 42L36 42L36 41L35 41L35 40L31 40L31 38L29 38L29 37L31 37L31 36L32 36L32 38L35 38L35 39L36 39L36 40L37 40L37 37L33 37L33 36L32 36L32 33L33 33L33 34L35 34L35 35L34 35L34 36L35 36L35 35L36 35L36 36L37 36L37 35L38 35L38 38L39 38L39 40L45 40L45 39L44 39L44 38L46 38L46 40L47 40L47 38L46 38L46 36L47 36L47 35L45 35L45 33L44 33L44 32L43 32L43 31L39 31L39 32L38 32L38 33L33 33L33 32L31 32L31 30L30 30L30 28L31 28L31 29L32 29L32 31L33 31L33 28L34 28L34 30L35 30L35 31L34 31L34 32L37 32L37 31L38 31L38 30L42 30L42 29L41 29L41 28L43 28L43 29L44 29L44 27L40 27L40 26L39 26L39 24L40 24L40 22L41 22L41 21L40 21L40 20L39 20L39 19L38 19L38 18L41 18L41 17L39 17L39 16L37 16L37 14L35 14L35 13L34 13L34 14L33 14L33 15L34 15L34 14L35 14L35 16L37 16L37 17L33 17L33 16L32 16L32 13L33 13L33 12L32 12L32 11L34 11L34 10L35 10L35 9L34 9L34 10L32 10L32 9L33 9L33 8L32 8L32 6L31 6L31 5L32 5L32 4L33 4L33 3ZM10 5L10 6L11 6L11 7L12 7L12 6L11 6L11 5ZM21 5L21 8L22 8L22 5ZM23 5L23 8L26 8L26 5ZM33 5L33 7L34 7L34 8L35 8L35 7L36 7L36 8L37 8L37 7L38 7L38 5L37 5L37 7L36 7L36 6L35 6L35 7L34 7L34 5ZM15 6L15 8L16 8L16 6ZM24 6L24 7L25 7L25 6ZM27 6L27 8L28 8L28 9L29 9L29 8L28 8L28 6ZM11 8L11 9L9 9L9 10L13 10L13 9L12 9L12 8ZM47 8L47 9L48 9L48 8ZM6 10L6 11L7 11L7 10ZM19 10L19 12L21 12L21 11L20 11L20 10ZM37 10L37 11L35 11L35 12L37 12L37 13L38 13L38 14L39 14L39 13L38 13L38 12L40 12L40 11L38 11L38 10ZM47 10L47 11L49 11L49 10ZM4 11L4 13L3 13L3 14L4 14L4 13L5 13L5 11ZM6 12L6 13L8 13L8 12ZM17 12L17 13L18 13L18 12ZM10 13L10 15L9 15L9 14L8 14L8 15L7 15L7 16L9 16L9 20L11 20L11 21L12 21L12 22L13 22L13 23L14 23L14 21L13 21L13 20L14 20L14 19L13 19L13 18L15 18L15 21L16 21L16 19L17 19L17 18L15 18L15 17L13 17L13 16L12 16L12 15L13 15L13 13L12 13L12 14L11 14L11 13ZM15 13L15 14L16 14L16 13ZM40 13L40 15L41 15L41 16L42 16L42 15L41 15L41 13ZM30 15L30 16L31 16L31 15ZM43 15L43 16L44 16L44 15ZM11 16L11 17L10 17L10 18L11 18L11 19L12 19L12 16ZM7 17L7 18L6 18L6 19L7 19L7 18L8 18L8 17ZM37 17L37 18L38 18L38 17ZM46 17L46 18L47 18L47 17ZM20 18L20 19L21 19L21 18ZM26 18L26 19L27 19L27 18ZM31 18L31 20L30 20L30 22L31 22L31 20L34 20L34 19L35 19L35 18L34 18L34 19L33 19L33 18ZM42 18L42 21L43 21L43 20L44 20L44 19L43 19L43 18ZM37 19L37 20L35 20L35 21L37 21L37 22L36 22L36 23L37 23L37 24L35 24L35 22L34 22L34 21L32 21L32 22L33 22L33 23L32 23L32 24L34 24L34 25L33 25L33 27L32 27L32 28L33 28L33 27L34 27L34 28L35 28L35 26L36 26L36 27L39 27L39 26L38 26L38 25L37 25L37 24L39 24L39 22L40 22L40 21L39 21L39 22L38 22L38 19ZM6 20L6 21L7 21L7 20ZM20 21L20 23L22 23L22 22L23 22L23 21L22 21L22 22L21 22L21 21ZM0 22L0 23L1 23L1 22ZM3 22L3 23L4 23L4 22ZM18 22L18 23L17 23L17 24L18 24L18 23L19 23L19 22ZM5 23L5 26L8 26L8 23ZM23 23L23 26L26 26L26 23ZM41 23L41 26L44 26L44 23ZM0 24L0 26L1 26L1 25L2 25L2 24ZM6 24L6 25L7 25L7 24ZM24 24L24 25L25 25L25 24ZM27 24L27 27L28 27L28 25L30 25L30 24ZM42 24L42 25L43 25L43 24ZM48 24L48 25L49 25L49 24ZM34 25L34 26L35 26L35 25ZM3 27L3 28L5 28L5 29L6 29L6 28L7 28L7 27L6 27L6 28L5 28L5 27ZM10 27L10 28L11 28L11 27ZM17 28L17 29L18 29L18 28ZM36 28L36 29L35 29L35 30L36 30L36 29L37 29L37 30L38 30L38 29L40 29L40 28ZM15 29L15 30L16 30L16 29ZM13 30L13 31L12 31L12 32L11 32L11 33L10 33L10 37L11 37L11 38L12 38L12 37L13 37L13 39L16 39L16 41L19 41L19 40L20 40L20 41L21 41L21 39L19 39L19 38L20 38L20 37L21 37L21 38L22 38L22 37L23 37L23 36L24 36L24 34L25 34L25 35L26 35L26 36L25 36L25 37L24 37L24 39L26 39L26 36L29 36L29 34L31 34L31 32L29 32L29 34L27 34L27 35L26 35L26 34L25 34L25 33L24 33L24 32L23 32L23 34L22 34L22 33L21 33L21 34L20 34L20 33L19 33L19 34L18 34L18 35L17 35L17 34L15 34L15 33L14 33L14 34L15 34L15 37L16 37L16 38L14 38L14 37L13 37L13 36L14 36L14 35L13 35L13 33L12 33L12 32L16 32L16 31L14 31L14 30ZM0 32L0 33L1 33L1 32ZM39 32L39 33L40 33L40 32ZM11 33L11 37L12 37L12 33ZM41 33L41 35L43 35L43 36L44 36L44 37L40 37L40 36L39 36L39 37L40 37L40 39L43 39L43 38L44 38L44 37L45 37L45 36L44 36L44 35L43 35L43 34L44 34L44 33ZM6 34L6 35L7 35L7 34ZM21 34L21 36L23 36L23 35L22 35L22 34ZM36 34L36 35L37 35L37 34ZM38 34L38 35L39 35L39 34ZM30 35L30 36L31 36L31 35ZM3 36L3 37L5 37L5 36ZM16 36L16 37L18 37L18 36ZM19 36L19 37L20 37L20 36ZM17 38L17 39L18 39L18 40L19 40L19 39L18 39L18 38ZM11 39L11 40L12 40L12 39ZM23 41L23 44L26 44L26 41ZM29 41L29 42L31 42L31 41ZM32 41L32 42L33 42L33 41ZM41 41L41 44L44 44L44 41ZM24 42L24 43L25 43L25 42ZM39 42L39 43L40 43L40 42ZM42 42L42 43L43 43L43 42ZM45 43L45 44L47 44L47 43ZM17 44L17 45L18 45L18 44ZM20 44L20 45L21 45L21 44ZM9 45L9 46L12 46L12 45ZM15 45L15 46L16 46L16 45ZM23 45L23 46L25 46L25 45ZM45 45L45 46L46 46L46 45ZM33 46L33 47L32 47L32 48L33 48L33 49L34 49L34 48L33 48L33 47L35 47L35 49L37 49L37 48L36 48L36 47L37 47L37 46L36 46L36 47L35 47L35 46ZM40 47L40 49L41 49L41 47ZM26 48L26 49L27 49L27 48ZM38 48L38 49L39 49L39 48ZM0 0L0 7L7 7L7 0ZM1 1L1 6L6 6L6 1ZM2 2L2 5L5 5L5 2ZM42 0L42 7L49 7L49 0ZM43 1L43 6L48 6L48 1ZM44 2L44 5L47 5L47 2ZM0 42L0 49L7 49L7 42ZM1 43L1 48L6 48L6 43ZM2 44L2 47L5 47L5 44Z" fill="#000000"/></g></g></svg>
