<?xml version="1.0" encoding="UTF-8"?>
<svg xmlns="http://www.w3.org/2000/svg" version="1.1" width="300" height="300" viewBox="0 0 300 300"><rect x="0" y="0" width="300" height="300" fill="#ffffff"/><g transform="scale(4.918)"><g transform="translate(0,0)"><path fill-rule="evenodd" d="M11 0L11 1L8 1L8 2L9 2L9 3L8 3L8 4L9 4L9 5L8 5L8 7L9 7L9 8L6 8L6 9L7 9L7 10L4 10L4 11L2 11L2 12L3 12L3 13L0 13L0 19L1 19L1 20L0 20L0 25L1 25L1 24L2 24L2 26L0 26L0 28L1 28L1 29L0 29L0 30L2 30L2 31L1 31L1 32L0 32L0 33L2 33L2 34L0 34L0 35L2 35L2 36L5 36L5 37L8 37L8 36L9 36L9 38L10 38L10 39L9 39L9 40L5 40L5 39L4 39L4 37L0 37L0 39L2 39L2 41L1 41L1 40L0 40L0 43L1 43L1 44L0 44L0 48L1 48L1 49L0 49L0 50L1 50L1 49L2 49L2 51L0 51L0 53L4 53L4 52L5 52L5 51L7 51L7 52L6 52L6 53L7 53L7 52L11 52L11 53L12 53L12 54L13 54L13 53L15 53L15 52L13 52L13 51L12 51L12 50L14 50L14 48L15 48L15 47L16 47L16 49L19 49L19 50L18 50L18 51L19 51L19 52L17 52L17 50L15 50L15 51L16 51L16 53L19 53L19 52L20 52L20 53L21 53L21 54L20 54L20 55L21 55L21 56L20 56L20 57L21 57L21 58L20 58L20 59L21 59L21 60L20 60L20 61L21 61L21 60L22 60L22 59L23 59L23 57L24 57L24 58L25 58L25 57L26 57L26 58L27 58L27 59L26 59L26 60L27 60L27 61L28 61L28 60L29 60L29 61L32 61L32 60L33 60L33 61L40 61L40 60L41 60L41 58L45 58L45 57L44 57L44 56L46 56L46 54L45 54L45 53L47 53L47 54L50 54L50 55L49 55L49 56L47 56L47 57L49 57L49 56L50 56L50 55L52 55L52 56L51 56L51 57L52 57L52 58L53 58L53 57L54 57L54 58L55 58L55 59L51 59L51 58L50 58L50 60L47 60L47 61L50 61L50 60L51 60L51 61L52 61L52 60L55 60L55 61L56 61L56 58L57 58L57 53L59 53L59 56L58 56L58 57L59 57L59 56L61 56L61 54L60 54L60 52L61 52L61 50L60 50L60 52L57 52L57 50L59 50L59 48L56 48L56 49L55 49L55 48L54 48L54 47L61 47L61 38L58 38L58 37L59 37L59 36L56 36L56 37L57 37L57 39L60 39L60 40L56 40L56 39L55 39L55 38L54 38L54 37L53 37L53 35L57 35L57 34L56 34L56 33L59 33L59 35L61 35L61 34L60 34L60 33L59 33L59 32L57 32L57 30L58 30L58 29L59 29L59 28L60 28L60 29L61 29L61 26L60 26L60 25L61 25L61 22L60 22L60 23L59 23L59 22L58 22L58 21L61 21L61 18L60 18L60 17L59 17L59 16L61 16L61 14L58 14L58 13L59 13L59 12L60 12L60 11L61 11L61 10L60 10L60 11L59 11L59 10L58 10L58 8L57 8L57 9L56 9L56 8L55 8L55 9L54 9L54 8L52 8L52 7L53 7L53 6L52 6L52 7L51 7L51 5L52 5L52 4L53 4L53 0L51 0L51 2L50 2L50 3L48 3L48 2L49 2L49 1L50 1L50 0L47 0L47 1L46 1L46 0L44 0L44 1L43 1L43 0L42 0L42 1L43 1L43 2L42 2L42 3L45 3L45 4L44 4L44 5L45 5L45 6L44 6L44 7L43 7L43 6L42 6L42 5L43 5L43 4L42 4L42 5L41 5L41 6L40 6L40 3L41 3L41 2L40 2L40 1L41 1L41 0L40 0L40 1L38 1L38 2L40 2L40 3L38 3L38 4L39 4L39 5L36 5L36 4L37 4L37 3L36 3L36 4L35 4L35 5L34 5L34 3L35 3L35 2L36 2L36 1L37 1L37 0L36 0L36 1L34 1L34 0L32 0L32 1L31 1L31 0L30 0L30 1L27 1L27 0L26 0L26 1L27 1L27 2L26 2L26 3L27 3L27 4L24 4L24 5L25 5L25 6L24 6L24 8L26 8L26 7L27 7L27 8L28 8L28 9L26 9L26 10L25 10L25 9L24 9L24 11L22 11L22 10L23 10L23 9L21 9L21 8L23 8L23 6L22 6L22 5L23 5L23 4L22 4L22 5L20 5L20 4L21 4L21 3L20 3L20 1L19 1L19 3L18 3L18 1L17 1L17 2L16 2L16 4L14 4L14 3L13 3L13 2L15 2L15 0ZM21 0L21 2L24 2L24 3L25 3L25 0ZM11 1L11 2L13 2L13 1ZM32 1L32 2L33 2L33 3L34 3L34 2L33 2L33 1ZM47 1L47 2L45 2L45 3L46 3L46 5L47 5L47 7L46 7L46 6L45 6L45 8L43 8L43 7L42 7L42 6L41 6L41 8L38 8L38 6L37 6L37 7L36 7L36 5L35 5L35 8L34 8L34 6L33 6L33 9L34 9L34 10L35 10L35 8L38 8L38 10L37 10L37 9L36 9L36 11L34 11L34 12L35 12L35 13L33 13L33 14L32 14L32 13L31 13L31 12L29 12L29 11L30 11L30 10L29 10L29 9L28 9L28 10L29 10L29 11L27 11L27 12L26 12L26 11L24 11L24 12L22 12L22 13L25 13L25 14L24 14L24 15L23 15L23 16L21 16L21 15L22 15L22 14L21 14L21 9L20 9L20 16L19 16L19 15L18 15L18 14L19 14L19 13L18 13L18 14L17 14L17 13L15 13L15 12L14 12L14 9L15 9L15 10L17 10L17 11L16 11L16 12L17 12L17 11L18 11L18 10L19 10L19 9L16 9L16 8L17 8L17 7L18 7L18 8L19 8L19 7L20 7L20 5L19 5L19 4L20 4L20 3L19 3L19 4L16 4L16 5L17 5L17 7L16 7L16 6L15 6L15 7L14 7L14 6L13 6L13 7L12 7L12 5L14 5L14 4L12 4L12 3L9 3L9 4L10 4L10 6L9 6L9 7L10 7L10 6L11 6L11 7L12 7L12 8L11 8L11 9L10 9L10 10L9 10L9 11L8 11L8 12L11 12L11 11L12 11L12 12L13 12L13 14L14 14L14 13L15 13L15 15L14 15L14 16L13 16L13 17L12 17L12 18L11 18L11 17L10 17L10 16L9 16L9 15L10 15L10 14L9 14L9 13L6 13L6 12L7 12L7 11L6 11L6 12L5 12L5 11L4 11L4 13L3 13L3 14L2 14L2 15L3 15L3 16L1 16L1 18L2 18L2 17L3 17L3 16L4 16L4 18L3 18L3 19L2 19L2 21L4 21L4 20L5 20L5 21L6 21L6 22L5 22L5 23L4 23L4 24L5 24L5 25L4 25L4 28L5 28L5 27L6 27L6 28L9 28L9 31L10 31L10 33L9 33L9 35L10 35L10 36L11 36L11 34L12 34L12 37L13 37L13 35L14 35L14 34L15 34L15 32L16 32L16 31L15 31L15 32L14 32L14 29L15 29L15 30L17 30L17 33L16 33L16 35L15 35L15 36L14 36L14 38L12 38L12 39L10 39L10 40L9 40L9 41L8 41L8 42L7 42L7 41L6 41L6 42L5 42L5 41L4 41L4 42L5 42L5 44L10 44L10 43L11 43L11 45L10 45L10 46L9 46L9 45L4 45L4 46L3 46L3 41L2 41L2 42L1 42L1 43L2 43L2 44L1 44L1 48L3 48L3 50L4 50L4 46L5 46L5 47L6 47L6 48L7 48L7 49L5 49L5 50L12 50L12 49L13 49L13 48L14 48L14 47L13 47L13 46L17 46L17 48L19 48L19 49L20 49L20 52L22 52L22 53L25 53L25 56L24 56L24 55L23 55L23 54L22 54L22 55L23 55L23 56L21 56L21 57L23 57L23 56L24 56L24 57L25 57L25 56L26 56L26 57L27 57L27 56L26 56L26 55L28 55L28 53L27 53L27 50L28 50L28 48L26 48L26 47L27 47L27 46L28 46L28 47L29 47L29 48L30 48L30 46L31 46L31 47L32 47L32 48L31 48L31 49L29 49L29 51L28 51L28 52L29 52L29 51L30 51L30 50L31 50L31 49L32 49L32 50L35 50L35 48L33 48L33 47L32 47L32 46L31 46L31 45L30 45L30 44L29 44L29 42L31 42L31 43L32 43L32 45L33 45L33 44L34 44L34 46L37 46L37 47L36 47L36 48L37 48L37 49L36 49L36 52L35 52L35 51L34 51L34 52L33 52L33 51L32 51L32 52L33 52L33 55L34 55L34 56L37 56L37 57L32 57L32 59L33 59L33 58L34 58L34 60L36 60L36 58L37 58L37 60L40 60L40 59L38 59L38 58L39 58L39 57L41 57L41 56L44 56L44 55L45 55L45 54L42 54L42 53L41 53L41 52L42 52L42 51L41 51L41 49L43 49L43 50L44 50L44 51L43 51L43 52L44 52L44 53L45 53L45 51L46 51L46 52L49 52L49 53L50 53L50 54L51 54L51 53L50 53L50 52L52 52L52 51L53 51L53 52L55 52L55 51L56 51L56 50L57 50L57 49L56 49L56 50L55 50L55 49L54 49L54 50L55 50L55 51L53 51L53 50L52 50L52 51L50 51L50 50L51 50L51 48L52 48L52 46L53 46L53 45L54 45L54 44L55 44L55 45L56 45L56 46L57 46L57 45L56 45L56 44L59 44L59 45L60 45L60 44L59 44L59 43L57 43L57 41L56 41L56 42L55 42L55 41L54 41L54 40L55 40L55 39L54 39L54 38L53 38L53 37L52 37L52 38L51 38L51 36L52 36L52 35L53 35L53 34L55 34L55 33L51 33L51 31L48 31L48 32L47 32L47 31L46 31L46 30L47 30L47 29L45 29L45 28L44 28L44 27L45 27L45 26L47 26L47 24L44 24L44 22L45 22L45 20L44 20L44 19L43 19L43 18L42 18L42 17L43 17L43 16L44 16L44 17L45 17L45 16L46 16L46 18L47 18L47 19L46 19L46 20L47 20L47 21L46 21L46 22L47 22L47 23L48 23L48 24L49 24L49 23L50 23L50 22L51 22L51 20L52 20L52 18L53 18L53 17L55 17L55 18L54 18L54 21L55 21L55 22L54 22L54 23L57 23L57 24L56 24L56 27L55 27L55 26L53 26L53 25L55 25L55 24L53 24L53 25L52 25L52 27L50 27L50 26L51 26L51 25L50 25L50 26L49 26L49 27L46 27L46 28L49 28L49 27L50 27L50 30L52 30L52 29L51 29L51 28L53 28L53 27L54 27L54 28L56 28L56 27L57 27L57 25L58 25L58 24L59 24L59 23L57 23L57 22L56 22L56 21L58 21L58 20L60 20L60 19L58 19L58 18L59 18L59 17L57 17L57 16L59 16L59 15L57 15L57 16L55 16L55 15L56 15L56 14L57 14L57 13L58 13L58 12L59 12L59 11L58 11L58 12L56 12L56 11L57 11L57 10L56 10L56 9L55 9L55 10L54 10L54 11L52 11L52 12L51 12L51 9L52 9L52 10L53 10L53 9L52 9L52 8L51 8L51 9L50 9L50 8L49 8L49 7L50 7L50 6L49 6L49 4L47 4L47 2L48 2L48 1ZM28 2L28 3L29 3L29 4L31 4L31 3L29 3L29 2ZM51 3L51 4L52 4L52 3ZM11 4L11 5L12 5L12 4ZM27 4L27 5L26 5L26 6L25 6L25 7L26 7L26 6L27 6L27 7L28 7L28 6L27 6L27 5L28 5L28 4ZM18 5L18 7L19 7L19 5ZM29 5L29 8L32 8L32 5ZM21 6L21 7L22 7L22 6ZM30 6L30 7L31 7L31 6ZM39 6L39 7L40 7L40 6ZM48 6L48 7L47 7L47 10L45 10L45 9L46 9L46 8L45 8L45 9L44 9L44 10L45 10L45 11L44 11L44 12L46 12L46 13L44 13L44 14L43 14L43 13L42 13L42 14L43 14L43 15L42 15L42 16L43 16L43 15L44 15L44 16L45 16L45 15L46 15L46 16L48 16L48 17L47 17L47 18L48 18L48 19L47 19L47 20L48 20L48 21L49 21L49 22L48 22L48 23L49 23L49 22L50 22L50 21L49 21L49 20L50 20L50 19L51 19L51 18L49 18L49 16L48 16L48 14L46 14L46 13L49 13L49 14L50 14L50 17L53 17L53 16L52 16L52 14L50 14L50 13L51 13L51 12L50 12L50 13L49 13L49 12L48 12L48 11L50 11L50 9L49 9L49 8L48 8L48 7L49 7L49 6ZM13 7L13 8L14 8L14 7ZM15 7L15 8L16 8L16 7ZM0 8L0 10L3 10L3 9L5 9L5 8ZM59 8L59 9L60 9L60 8ZM11 9L11 10L10 10L10 11L11 11L11 10L12 10L12 11L13 11L13 9ZM31 9L31 10L32 10L32 11L33 11L33 10L32 10L32 9ZM41 9L41 11L40 11L40 12L39 12L39 13L40 13L40 12L41 12L41 11L42 11L42 10L43 10L43 9ZM48 9L48 10L47 10L47 11L48 11L48 10L49 10L49 9ZM38 10L38 11L39 11L39 10ZM0 11L0 12L1 12L1 11ZM54 11L54 12L52 12L52 13L53 13L53 14L55 14L55 13L56 13L56 12L55 12L55 11ZM25 12L25 13L26 13L26 15L24 15L24 16L25 16L25 17L21 17L21 16L20 16L20 17L19 17L19 16L18 16L18 17L17 17L17 16L16 16L16 15L15 15L15 16L16 16L16 17L17 17L17 18L14 18L14 20L15 20L15 22L16 22L16 21L17 21L17 22L18 22L18 21L19 21L19 22L20 22L20 23L21 23L21 24L20 24L20 25L19 25L19 23L17 23L17 24L15 24L15 23L14 23L14 22L13 22L13 21L11 21L11 22L9 22L9 20L11 20L11 19L9 19L9 18L6 18L6 19L9 19L9 20L6 20L6 21L7 21L7 22L6 22L6 23L8 23L8 22L9 22L9 23L10 23L10 24L9 24L9 25L10 25L10 24L11 24L11 25L12 25L12 29L10 29L10 31L12 31L12 33L13 33L13 31L12 31L12 30L13 30L13 26L14 26L14 27L16 27L16 25L19 25L19 26L17 26L17 27L18 27L18 28L15 28L15 29L19 29L19 32L18 32L18 33L19 33L19 34L18 34L18 35L19 35L19 36L15 36L15 37L17 37L17 38L15 38L15 39L14 39L14 40L13 40L13 41L15 41L15 42L13 42L13 43L15 43L15 44L12 44L12 46L11 46L11 47L9 47L9 46L6 46L6 47L7 47L7 48L8 48L8 49L10 49L10 48L11 48L11 49L12 49L12 48L11 48L11 47L12 47L12 46L13 46L13 45L19 45L19 46L18 46L18 47L20 47L20 49L21 49L21 47L20 47L20 45L21 45L21 46L23 46L23 45L21 45L21 44L23 44L23 43L24 43L24 44L26 44L26 43L28 43L28 42L27 42L27 41L26 41L26 42L25 42L25 41L24 41L24 40L23 40L23 41L21 41L21 39L24 39L24 38L25 38L25 37L26 37L26 36L27 36L27 37L28 37L28 38L26 38L26 40L27 40L27 39L28 39L28 38L29 38L29 37L31 37L31 38L30 38L30 39L31 39L31 40L29 40L29 41L31 41L31 40L32 40L32 39L33 39L33 42L32 42L32 43L34 43L34 44L35 44L35 45L37 45L37 46L38 46L38 45L40 45L40 46L39 46L39 50L38 50L38 49L37 49L37 51L39 51L39 52L36 52L36 53L39 53L39 54L36 54L36 55L38 55L38 56L41 56L41 55L42 55L42 54L41 54L41 55L40 55L40 52L41 52L41 51L39 51L39 50L40 50L40 48L41 48L41 47L42 47L42 48L43 48L43 49L44 49L44 48L45 48L45 47L47 47L47 48L48 48L48 49L49 49L49 48L51 48L51 46L52 46L52 45L53 45L53 43L52 43L52 44L47 44L47 45L48 45L48 46L45 46L45 45L46 45L46 44L45 44L45 43L49 43L49 42L50 42L50 43L51 43L51 42L53 42L53 40L51 40L51 38L50 38L50 36L48 36L48 37L49 37L49 38L46 38L46 36L47 36L47 34L46 34L46 36L45 36L45 37L44 37L44 36L43 36L43 35L42 35L42 36L43 36L43 37L42 37L42 38L41 38L41 39L40 39L40 36L41 36L41 35L40 35L40 34L41 34L41 33L40 33L40 32L41 32L41 31L42 31L42 30L44 30L44 32L43 32L43 33L42 33L42 34L44 34L44 35L45 35L45 34L44 34L44 32L45 32L45 33L47 33L47 32L46 32L46 31L45 31L45 30L44 30L44 28L43 28L43 27L42 27L42 28L43 28L43 29L42 29L42 30L41 30L41 29L40 29L40 28L41 28L41 27L40 27L40 28L39 28L39 31L40 31L40 32L38 32L38 33L37 33L37 32L36 32L36 33L37 33L37 34L36 34L36 35L35 35L35 34L33 34L33 33L34 33L34 32L35 32L35 30L36 30L36 31L37 31L37 30L38 30L38 29L37 29L37 28L36 28L36 29L35 29L35 30L34 30L34 29L33 29L33 28L32 28L32 26L34 26L34 28L35 28L35 27L36 27L36 26L34 26L34 25L37 25L37 26L38 26L38 27L39 27L39 26L38 26L38 25L39 25L39 23L40 23L40 24L41 24L41 25L40 25L40 26L41 26L41 25L42 25L42 26L43 26L43 25L42 25L42 24L41 24L41 22L36 22L36 23L37 23L37 24L34 24L34 23L35 23L35 22L33 22L33 21L35 21L35 20L36 20L36 21L40 21L40 20L41 20L41 19L42 19L42 18L41 18L41 17L40 17L40 16L41 16L41 15L40 15L40 14L38 14L38 15L37 15L37 14L36 14L36 15L37 15L37 16L36 16L36 17L37 17L37 16L39 16L39 18L38 18L38 19L40 19L40 20L36 20L36 19L37 19L37 18L36 18L36 19L35 19L35 18L33 18L33 17L35 17L35 16L34 16L34 15L35 15L35 14L34 14L34 15L32 15L32 14L31 14L31 15L29 15L29 14L30 14L30 13L29 13L29 14L27 14L27 13L28 13L28 12L27 12L27 13L26 13L26 12ZM36 12L36 13L37 13L37 12ZM4 14L4 16L5 16L5 15L7 15L7 16L6 16L6 17L7 17L7 16L8 16L8 15L7 15L7 14ZM44 14L44 15L45 15L45 14ZM26 15L26 17L25 17L25 18L22 18L22 19L21 19L21 17L20 17L20 18L19 18L19 17L18 17L18 18L17 18L17 19L16 19L16 20L17 20L17 19L18 19L18 18L19 18L19 19L21 19L21 21L20 21L20 20L19 20L19 21L20 21L20 22L21 22L21 23L22 23L22 24L21 24L21 25L20 25L20 26L19 26L19 28L21 28L21 27L22 27L22 29L24 29L24 28L23 28L23 27L24 27L24 25L27 25L27 28L26 28L26 29L25 29L25 30L21 30L21 29L20 29L20 32L19 32L19 33L20 33L20 34L19 34L19 35L21 35L21 37L20 37L20 36L19 36L19 37L18 37L18 38L19 38L19 39L21 39L21 37L25 37L25 36L26 36L26 35L27 35L27 36L31 36L31 34L32 34L32 38L31 38L31 39L32 39L32 38L35 38L35 40L39 40L39 41L38 41L38 42L37 42L37 43L38 43L38 44L37 44L37 45L38 45L38 44L40 44L40 45L41 45L41 46L40 46L40 47L41 47L41 46L42 46L42 47L43 47L43 48L44 48L44 47L45 47L45 46L44 46L44 45L45 45L45 44L44 44L44 43L45 43L45 42L48 42L48 41L45 41L45 40L46 40L46 39L45 39L45 40L44 40L44 43L43 43L43 42L41 42L41 41L43 41L43 40L42 40L42 39L43 39L43 38L44 38L44 37L43 37L43 38L42 38L42 39L41 39L41 40L39 40L39 39L36 39L36 38L35 38L35 37L36 37L36 36L37 36L37 38L39 38L39 36L40 36L40 35L38 35L38 36L37 36L37 35L36 35L36 36L35 36L35 37L33 37L33 36L34 36L34 35L33 35L33 34L32 34L32 33L30 33L30 35L29 35L29 34L28 34L28 31L27 31L27 30L26 30L26 29L28 29L28 28L29 28L29 27L28 27L28 25L31 25L31 26L32 26L32 25L33 25L33 24L32 24L32 23L33 23L33 22L32 22L32 21L31 21L31 20L33 20L33 18L32 18L32 17L31 17L31 16L29 16L29 15L28 15L28 17L27 17L27 15ZM39 15L39 16L40 16L40 15ZM26 17L26 20L28 20L28 21L26 21L26 22L27 22L27 23L26 23L26 24L27 24L27 25L28 25L28 23L29 23L29 24L31 24L31 23L32 23L32 22L31 22L31 21L30 21L30 22L29 22L29 20L31 20L31 19L32 19L32 18L30 18L30 17L29 17L29 18L27 18L27 17ZM56 17L56 18L57 18L57 17ZM4 18L4 19L3 19L3 20L4 20L4 19L5 19L5 18ZM12 19L12 20L13 20L13 19ZM22 19L22 20L23 20L23 21L22 21L22 23L24 23L24 24L25 24L25 21L24 21L24 20L25 20L25 19L24 19L24 20L23 20L23 19ZM28 19L28 20L29 20L29 19ZM34 19L34 20L35 20L35 19ZM48 19L48 20L49 20L49 19ZM56 19L56 20L55 20L55 21L56 21L56 20L57 20L57 19ZM42 21L42 22L44 22L44 21ZM52 21L52 23L51 23L51 24L52 24L52 23L53 23L53 21ZM1 22L1 23L2 23L2 24L3 24L3 22ZM11 22L11 23L12 23L12 24L13 24L13 25L14 25L14 26L15 26L15 24L14 24L14 23L13 23L13 22ZM30 22L30 23L31 23L31 22ZM6 24L6 25L8 25L8 24ZM37 24L37 25L38 25L38 24ZM21 25L21 26L20 26L20 27L21 27L21 26L22 26L22 27L23 27L23 25ZM44 25L44 26L45 26L45 25ZM6 26L6 27L10 27L10 26ZM1 27L1 28L2 28L2 29L3 29L3 30L4 30L4 29L3 29L3 28L2 28L2 27ZM58 27L58 28L59 28L59 27ZM5 29L5 32L8 32L8 29ZM29 29L29 32L32 32L32 29ZM53 29L53 32L56 32L56 29ZM6 30L6 31L7 31L7 30ZM25 30L25 31L24 31L24 32L23 32L23 31L22 31L22 32L23 32L23 33L21 33L21 32L20 32L20 33L21 33L21 35L22 35L22 36L25 36L25 33L24 33L24 32L25 32L25 31L26 31L26 30ZM30 30L30 31L31 31L31 30ZM40 30L40 31L41 31L41 30ZM54 30L54 31L55 31L55 30ZM59 30L59 31L61 31L61 30ZM2 31L2 33L3 33L3 34L2 34L2 35L3 35L3 34L4 34L4 32L3 32L3 31ZM33 31L33 32L34 32L34 31ZM48 32L48 33L50 33L50 32ZM5 33L5 34L8 34L8 33ZM10 33L10 34L11 34L11 33ZM26 33L26 34L27 34L27 35L28 35L28 34L27 34L27 33ZM38 33L38 34L39 34L39 33ZM22 34L22 35L24 35L24 34ZM50 34L50 35L52 35L52 34ZM6 35L6 36L8 36L8 35ZM60 36L60 37L61 37L61 36ZM6 38L6 39L7 39L7 38ZM15 39L15 41L16 41L16 42L15 42L15 43L16 43L16 44L17 44L17 43L19 43L19 45L20 45L20 44L21 44L21 41L20 41L20 42L19 42L19 41L16 41L16 40L18 40L18 39ZM47 39L47 40L50 40L50 42L51 42L51 40L50 40L50 39ZM11 40L11 41L9 41L9 42L8 42L8 43L9 43L9 42L11 42L11 41L12 41L12 40ZM23 41L23 42L22 42L22 43L23 43L23 42L24 42L24 41ZM34 41L34 42L35 42L35 41ZM58 41L58 42L60 42L60 41ZM6 42L6 43L7 43L7 42ZM38 42L38 43L40 43L40 44L41 44L41 45L42 45L42 46L43 46L43 45L44 45L44 44L43 44L43 43L42 43L42 44L41 44L41 42ZM54 42L54 43L55 43L55 44L56 44L56 43L55 43L55 42ZM35 43L35 44L36 44L36 43ZM27 44L27 45L26 45L26 46L27 46L27 45L28 45L28 46L29 46L29 45L28 45L28 44ZM24 45L24 46L25 46L25 45ZM50 45L50 46L49 46L49 47L48 47L48 48L49 48L49 47L50 47L50 46L51 46L51 45ZM2 46L2 47L3 47L3 46ZM23 48L23 49L22 49L22 50L23 50L23 52L25 52L25 53L26 53L26 54L27 54L27 53L26 53L26 52L25 52L25 51L26 51L26 50L27 50L27 49L24 49L24 48ZM60 48L60 49L61 49L61 48ZM46 50L46 51L47 51L47 50ZM48 50L48 51L49 51L49 50ZM3 51L3 52L4 52L4 51ZM11 51L11 52L12 52L12 51ZM8 53L8 55L10 55L10 57L9 57L9 56L8 56L8 61L19 61L19 60L18 60L18 58L16 58L16 57L19 57L19 54L17 54L17 55L14 55L14 56L16 56L16 57L14 57L14 58L13 58L13 60L10 60L10 58L11 58L11 59L12 59L12 57L13 57L13 56L12 56L12 55L11 55L11 54L9 54L9 53ZM29 53L29 56L32 56L32 53ZM53 53L53 56L56 56L56 53ZM30 54L30 55L31 55L31 54ZM34 54L34 55L35 55L35 54ZM54 54L54 55L55 55L55 54ZM11 56L11 57L12 57L12 56ZM37 57L37 58L38 58L38 57ZM60 57L60 60L58 60L58 61L61 61L61 57ZM21 58L21 59L22 59L22 58ZM28 58L28 59L31 59L31 58ZM46 58L46 59L42 59L42 60L43 60L43 61L44 61L44 60L46 60L46 59L47 59L47 58ZM48 58L48 59L49 59L49 58ZM14 59L14 60L17 60L17 59ZM23 60L23 61L24 61L24 60ZM0 0L0 7L7 7L7 0ZM1 1L1 6L6 6L6 1ZM2 2L2 5L5 5L5 2ZM54 0L54 7L61 7L61 0ZM55 1L55 6L60 6L60 1ZM56 2L56 5L59 5L59 2ZM0 54L0 61L7 61L7 54ZM1 55L1 60L6 60L6 55ZM2 56L2 59L5 59L5 56Z" fill="#000000"/></g></g></svg>
