<?xml version="1.0" encoding="UTF-8"?>
<svg xmlns="http://www.w3.org/2000/svg" version="1.1" width="300" height="300" viewBox="0 0 300 300"><rect x="0" y="0" width="300" height="300" fill="#ffffff"/><g transform="scale(4.918)"><g transform="translate(0,0)"><path fill-rule="evenodd" d="M12 0L12 1L13 1L13 2L15 2L15 0ZM19 0L19 1L18 1L18 2L19 2L19 1L20 1L20 2L21 2L21 1L22 1L22 2L23 2L23 3L21 3L21 4L22 4L22 5L20 5L20 4L19 4L19 3L17 3L17 1L16 1L16 3L12 3L12 2L10 2L10 1L9 1L9 3L8 3L8 5L10 5L10 7L9 7L9 6L8 6L8 7L9 7L9 10L6 10L6 9L8 9L8 8L5 8L5 9L4 9L4 10L1 10L1 9L2 9L2 8L0 8L0 10L1 10L1 12L0 12L0 13L1 13L1 15L0 15L0 16L2 16L2 18L1 18L1 17L0 17L0 19L1 19L1 20L2 20L2 18L3 18L3 16L2 16L2 13L4 13L4 11L5 11L5 12L6 12L6 13L7 13L7 14L6 14L6 15L5 15L5 14L3 14L3 15L4 15L4 16L6 16L6 17L8 17L8 18L5 18L5 17L4 17L4 18L5 18L5 20L4 20L4 21L3 21L3 22L2 22L2 21L1 21L1 22L0 22L0 25L3 25L3 26L0 26L0 29L1 29L1 30L0 30L0 36L1 36L1 38L0 38L0 40L1 40L1 39L2 39L2 42L3 42L3 41L5 41L5 42L4 42L4 43L3 43L3 45L2 45L2 46L3 46L3 47L2 47L2 49L3 49L3 50L2 50L2 51L0 51L0 53L4 53L4 52L5 52L5 51L7 51L7 52L6 52L6 53L7 53L7 52L8 52L8 56L9 56L9 57L10 57L10 58L9 58L9 59L8 59L8 61L10 61L10 60L9 60L9 59L11 59L11 61L12 61L12 58L13 58L13 57L14 57L14 59L15 59L15 61L16 61L16 58L17 58L17 60L18 60L18 61L19 61L19 60L18 60L18 58L17 58L17 56L16 56L16 55L17 55L17 54L16 54L16 55L15 55L15 54L14 54L14 55L12 55L12 54L13 54L13 53L12 53L12 52L13 52L13 51L14 51L14 53L19 53L19 52L20 52L20 53L22 53L22 55L21 55L21 56L20 56L20 57L19 57L19 55L20 55L20 54L18 54L18 57L19 57L19 58L20 58L20 59L21 59L21 60L22 60L22 61L23 61L23 60L22 60L22 59L21 59L21 56L22 56L22 55L23 55L23 54L24 54L24 56L23 56L23 57L24 57L24 58L26 58L26 56L25 56L25 53L26 53L26 55L27 55L27 54L28 54L28 56L27 56L27 57L29 57L29 59L28 59L28 58L27 58L27 59L26 59L26 60L25 60L25 61L29 61L29 60L30 60L30 61L31 61L31 60L32 60L32 61L34 61L34 60L33 60L33 59L34 59L34 58L35 58L35 57L37 57L37 56L33 56L33 55L34 55L34 53L33 53L33 50L34 50L34 49L37 49L37 50L36 50L36 51L35 51L35 52L36 52L36 53L39 53L39 56L38 56L38 59L39 59L39 60L38 60L38 61L42 61L42 60L43 60L43 59L42 59L42 60L41 60L41 59L39 59L39 58L40 58L40 57L39 57L39 56L41 56L41 58L44 58L44 56L45 56L45 55L46 55L46 56L47 56L47 57L45 57L45 59L44 59L44 61L45 61L45 59L46 59L46 61L47 61L47 59L49 59L49 56L50 56L50 54L46 54L46 53L47 53L47 52L48 52L48 53L49 53L49 52L50 52L50 53L52 53L52 54L51 54L51 57L50 57L50 61L51 61L51 59L52 59L52 58L51 58L51 57L53 57L53 58L54 58L54 60L53 60L53 61L54 61L54 60L55 60L55 61L57 61L57 60L58 60L58 59L56 59L56 60L55 60L55 58L56 58L56 57L57 57L57 58L59 58L59 56L61 56L61 54L60 54L60 53L61 53L61 50L60 50L60 48L61 48L61 46L59 46L59 44L60 44L60 45L61 45L61 42L60 42L60 41L61 41L61 38L56 38L56 37L54 37L54 36L53 36L53 35L55 35L55 36L57 36L57 37L58 37L58 35L61 35L61 34L58 34L58 33L61 33L61 32L60 32L60 31L61 31L61 30L60 30L60 27L61 27L61 26L60 26L60 25L61 25L61 22L60 22L60 23L59 23L59 20L60 20L60 21L61 21L61 18L60 18L60 19L59 19L59 17L61 17L61 14L59 14L59 13L60 13L60 11L61 11L61 10L60 10L60 11L59 11L59 9L58 9L58 8L56 8L56 9L58 9L58 10L57 10L57 11L56 11L56 12L55 12L55 11L54 11L54 10L55 10L55 9L53 9L53 8L51 8L51 5L52 5L52 4L53 4L53 0L51 0L51 2L50 2L50 0L45 0L45 1L44 1L44 0L41 0L41 1L44 1L44 2L42 2L42 3L44 3L44 5L46 5L46 7L45 7L45 6L44 6L44 7L43 7L43 6L42 6L42 5L43 5L43 4L42 4L42 5L41 5L41 6L40 6L40 8L41 8L41 6L42 6L42 7L43 7L43 8L45 8L45 11L44 11L44 12L43 12L43 13L42 13L42 12L41 12L41 11L42 11L42 10L43 10L43 9L41 9L41 10L40 10L40 11L39 11L39 8L35 8L35 5L36 5L36 7L37 7L37 6L38 6L38 7L39 7L39 5L40 5L40 4L41 4L41 3L40 3L40 2L39 2L39 0L34 0L34 3L35 3L35 2L36 2L36 1L38 1L38 2L39 2L39 5L36 5L36 4L37 4L37 3L36 3L36 4L35 4L35 5L34 5L34 7L33 7L33 4L32 4L32 3L33 3L33 2L32 2L32 0L28 0L28 2L26 2L26 3L25 3L25 2L24 2L24 1L26 1L26 0L24 0L24 1L22 1L22 0ZM45 1L45 4L46 4L46 5L47 5L47 8L49 8L49 9L50 9L50 8L49 8L49 7L50 7L50 6L49 6L49 7L48 7L48 5L49 5L49 4L46 4L46 3L47 3L47 2L48 2L48 3L50 3L50 2L49 2L49 1L47 1L47 2L46 2L46 1ZM28 2L28 3L27 3L27 4L25 4L25 3L23 3L23 7L22 7L22 6L21 6L21 10L20 10L20 11L19 11L19 13L18 13L18 12L16 12L16 14L14 14L14 10L16 10L16 11L18 11L18 10L19 10L19 9L20 9L20 8L19 8L19 9L17 9L17 10L16 10L16 9L15 9L15 8L18 8L18 6L17 6L17 7L16 7L16 5L17 5L17 4L15 4L15 5L14 5L14 4L12 4L12 3L9 3L9 4L10 4L10 5L13 5L13 8L14 8L14 10L11 10L11 9L12 9L12 6L11 6L11 9L10 9L10 10L9 10L9 11L10 11L10 10L11 10L11 12L10 12L10 13L8 13L8 11L6 11L6 12L7 12L7 13L8 13L8 14L9 14L9 17L10 17L10 18L9 18L9 19L11 19L11 23L13 23L13 20L14 20L14 23L15 23L15 24L11 24L11 26L12 26L12 27L10 27L10 24L9 24L9 23L8 23L8 24L9 24L9 25L6 25L6 24L7 24L7 23L6 23L6 22L8 22L8 21L9 21L9 22L10 22L10 21L9 21L9 20L8 20L8 21L4 21L4 23L5 23L5 24L3 24L3 25L5 25L5 26L3 26L3 27L4 27L4 28L7 28L7 27L8 27L8 28L11 28L11 29L9 29L9 30L13 30L13 29L14 29L14 28L15 28L15 27L16 27L16 28L18 28L18 27L17 27L17 26L19 26L19 25L18 25L18 24L16 24L16 23L15 23L15 22L16 22L16 21L15 21L15 20L14 20L14 18L15 18L15 19L16 19L16 18L19 18L19 19L17 19L17 20L19 20L19 21L17 21L17 22L19 22L19 24L20 24L20 26L21 26L21 29L20 29L20 27L19 27L19 29L16 29L16 31L17 31L17 32L19 32L19 33L17 33L17 34L15 34L15 35L21 35L21 34L22 34L22 35L23 35L23 36L24 36L24 37L23 37L23 38L22 38L22 36L20 36L20 37L18 37L18 36L14 36L14 34L12 34L12 32L13 32L13 33L16 33L16 32L14 32L14 31L15 31L15 30L14 30L14 31L9 31L9 33L5 33L5 34L7 34L7 35L2 35L2 32L1 32L1 35L2 35L2 39L4 39L4 40L5 40L5 41L6 41L6 42L9 42L9 43L5 43L5 44L4 44L4 45L3 45L3 46L4 46L4 48L3 48L3 49L4 49L4 48L7 48L7 49L6 49L6 50L7 50L7 51L8 51L8 50L10 50L10 51L11 51L11 52L9 52L9 53L11 53L11 54L12 54L12 53L11 53L11 52L12 52L12 50L13 50L13 49L14 49L14 48L13 48L13 46L14 46L14 45L15 45L15 44L17 44L17 41L16 41L16 39L15 39L15 38L17 38L17 37L18 37L18 39L17 39L17 40L19 40L19 39L20 39L20 40L21 40L21 41L20 41L20 42L19 42L19 41L18 41L18 43L20 43L20 45L21 45L21 46L20 46L20 50L19 50L19 49L18 49L18 50L19 50L19 51L17 51L17 52L19 52L19 51L20 51L20 52L21 52L21 51L23 51L23 52L22 52L22 53L23 53L23 52L24 52L24 53L25 53L25 52L24 52L24 51L26 51L26 53L27 53L27 52L29 52L29 51L32 51L32 50L31 50L31 49L34 49L34 48L40 48L40 47L41 47L41 49L38 49L38 50L39 50L39 51L40 51L40 55L41 55L41 56L44 56L44 55L43 55L43 54L42 54L42 51L43 51L43 52L44 52L44 53L45 53L45 52L46 52L46 50L47 50L47 51L48 51L48 52L49 52L49 51L50 51L50 50L52 50L52 52L57 52L57 51L58 51L58 50L59 50L59 46L58 46L58 47L54 47L54 48L52 48L52 49L50 49L50 50L49 50L49 49L46 49L46 48L47 48L47 47L46 47L46 48L45 48L45 49L46 49L46 50L45 50L45 52L44 52L44 51L43 51L43 50L41 50L41 49L42 49L42 48L43 48L43 49L44 49L44 47L45 47L45 44L51 44L51 39L52 39L52 45L54 45L54 44L55 44L55 45L56 45L56 44L57 44L57 43L56 43L56 44L55 44L55 43L53 43L53 40L54 40L54 41L55 41L55 40L57 40L57 39L56 39L56 38L55 38L55 39L52 39L52 38L53 38L53 36L52 36L52 37L50 37L50 34L49 34L49 33L50 33L50 32L52 32L52 31L51 31L51 28L53 28L53 27L54 27L54 28L55 28L55 26L53 26L53 22L52 22L52 24L49 24L49 23L50 23L50 22L49 22L49 21L50 21L50 20L51 20L51 19L53 19L53 21L55 21L55 22L54 22L54 23L57 23L57 22L58 22L58 21L57 21L57 20L56 20L56 19L58 19L58 20L59 20L59 19L58 19L58 17L57 17L57 14L58 14L58 13L59 13L59 11L57 11L57 14L56 14L56 13L55 13L55 14L53 14L53 13L54 13L54 11L53 11L53 10L52 10L52 9L51 9L51 10L50 10L50 11L49 11L49 10L47 10L47 11L46 11L46 12L47 12L47 13L46 13L46 14L48 14L48 16L47 16L47 15L46 15L46 17L45 17L45 15L44 15L44 13L43 13L43 14L42 14L42 13L40 13L40 17L39 17L39 11L38 11L38 10L37 10L37 9L36 9L36 11L33 11L33 10L34 10L34 9L35 9L35 8L33 8L33 9L31 9L31 10L32 10L32 11L31 11L31 12L30 12L30 13L29 13L29 11L30 11L30 9L29 9L29 11L28 11L28 4L31 4L31 3L29 3L29 2ZM51 3L51 4L52 4L52 3ZM18 4L18 5L19 5L19 7L20 7L20 5L19 5L19 4ZM24 4L24 7L23 7L23 8L24 8L24 7L25 7L25 4ZM26 5L26 8L27 8L27 5ZM29 5L29 8L32 8L32 5ZM14 6L14 8L15 8L15 6ZM30 6L30 7L31 7L31 6ZM52 6L52 7L53 7L53 6ZM23 9L23 10L25 10L25 11L24 11L24 12L23 12L23 11L22 11L22 10L21 10L21 11L20 11L20 12L21 12L21 11L22 11L22 14L23 14L23 15L20 15L20 13L19 13L19 15L20 15L20 17L21 17L21 18L20 18L20 19L19 19L19 20L20 20L20 21L19 21L19 22L20 22L20 23L21 23L21 24L22 24L22 28L24 28L24 29L22 29L22 30L21 30L21 31L19 31L19 30L20 30L20 29L19 29L19 30L17 30L17 31L19 31L19 32L20 32L20 33L19 33L19 34L21 34L21 33L22 33L22 32L23 32L23 31L24 31L24 32L25 32L25 31L24 31L24 30L25 30L25 29L26 29L26 31L27 31L27 29L26 29L26 27L28 27L28 33L27 33L27 36L26 36L26 35L25 35L25 33L23 33L23 35L24 35L24 36L26 36L26 38L25 38L25 37L24 37L24 38L25 38L25 39L24 39L24 40L25 40L25 41L24 41L24 42L23 42L23 41L22 41L22 42L20 42L20 43L21 43L21 44L22 44L22 42L23 42L23 44L26 44L26 43L25 43L25 42L27 42L27 47L26 47L26 48L25 48L25 49L24 49L24 48L22 48L22 49L21 49L21 50L26 50L26 51L28 51L28 49L29 49L29 50L30 50L30 49L31 49L31 48L32 48L32 47L33 47L33 48L34 48L34 47L35 47L35 45L34 45L34 44L35 44L35 43L34 43L34 42L33 42L33 45L34 45L34 46L32 46L32 42L30 42L30 43L29 43L29 42L28 42L28 41L26 41L26 40L29 40L29 41L31 41L31 40L33 40L33 41L35 41L35 42L36 42L36 43L37 43L37 44L36 44L36 45L37 45L37 46L36 46L36 47L37 47L37 46L39 46L39 47L40 47L40 44L41 44L41 45L42 45L42 46L41 46L41 47L42 47L42 46L43 46L43 47L44 47L44 46L43 46L43 43L42 43L42 42L44 42L44 44L45 44L45 43L46 43L46 40L47 40L47 43L50 43L50 40L48 40L48 39L47 39L47 38L45 38L45 37L47 37L47 36L48 36L48 37L49 37L49 38L50 38L50 39L51 39L51 38L50 38L50 37L49 37L49 36L48 36L48 35L47 35L47 32L48 32L48 33L49 33L49 32L48 32L48 31L49 31L49 30L50 30L50 28L51 28L51 27L53 27L53 26L50 26L50 25L49 25L49 24L48 24L48 26L46 26L46 25L47 25L47 24L46 24L46 25L45 25L45 23L47 23L47 22L48 22L48 21L49 21L49 20L48 20L48 21L47 21L47 20L45 20L45 19L46 19L46 18L45 18L45 17L44 17L44 18L43 18L43 17L40 17L40 18L39 18L39 19L40 19L40 20L36 20L36 19L38 19L38 18L35 18L35 20L36 20L36 21L38 21L38 22L36 22L36 23L38 23L38 24L36 24L36 25L37 25L37 26L38 26L38 28L36 28L36 30L37 30L37 31L39 31L39 32L38 32L38 33L37 33L37 32L36 32L36 34L35 34L35 33L33 33L33 32L34 32L34 30L33 30L33 28L34 28L34 27L36 27L36 26L34 26L34 27L33 27L33 28L31 28L31 27L32 27L32 26L33 26L33 25L34 25L34 24L33 24L33 23L32 23L32 22L31 22L31 21L33 21L33 22L34 22L34 23L35 23L35 21L33 21L33 20L31 20L31 18L30 18L30 17L29 17L29 16L31 16L31 17L32 17L32 19L34 19L34 17L32 17L32 16L33 16L33 15L32 15L32 14L34 14L34 15L35 15L35 14L34 14L34 12L33 12L33 11L32 11L32 12L33 12L33 13L30 13L30 14L27 14L27 13L28 13L28 12L27 12L27 10L25 10L25 9ZM2 11L2 12L3 12L3 11ZM12 11L12 12L11 12L11 13L10 13L10 14L12 14L12 12L13 12L13 11ZM25 11L25 12L24 12L24 13L25 13L25 14L24 14L24 15L23 15L23 16L21 16L21 17L25 17L25 18L24 18L24 20L21 20L21 19L20 19L20 20L21 20L21 21L22 21L22 22L23 22L23 23L22 23L22 24L24 24L24 25L23 25L23 27L24 27L24 28L25 28L25 27L24 27L24 25L25 25L25 26L26 26L26 23L27 23L27 24L29 24L29 23L27 23L27 22L30 22L30 23L31 23L31 24L30 24L30 25L29 25L29 26L30 26L30 25L31 25L31 26L32 26L32 25L31 25L31 24L32 24L32 23L31 23L31 22L30 22L30 21L31 21L31 20L29 20L29 19L30 19L30 18L28 18L28 17L27 17L27 16L28 16L28 15L27 15L27 16L26 16L26 17L25 17L25 16L24 16L24 15L26 15L26 11ZM37 11L37 12L36 12L36 13L37 13L37 14L36 14L36 15L37 15L37 16L35 16L35 17L37 17L37 16L38 16L38 15L37 15L37 14L38 14L38 11ZM47 11L47 12L48 12L48 13L49 13L49 14L50 14L50 15L49 15L49 16L48 16L48 17L49 17L49 16L50 16L50 15L52 15L52 16L51 16L51 18L52 18L52 17L53 17L53 19L54 19L54 20L55 20L55 21L56 21L56 20L55 20L55 19L56 19L56 18L57 18L57 17L53 17L53 15L52 15L52 13L51 13L51 14L50 14L50 12L48 12L48 11ZM17 13L17 14L18 14L18 13ZM6 15L6 16L7 16L7 15ZM12 15L12 16L10 16L10 17L13 17L13 18L14 18L14 17L13 17L13 16L15 16L15 17L16 17L16 16L17 16L17 15L16 15L16 16L15 16L15 15ZM42 15L42 16L44 16L44 15ZM54 15L54 16L55 16L55 15ZM18 16L18 17L19 17L19 16ZM26 17L26 19L28 19L28 18L27 18L27 17ZM11 18L11 19L12 19L12 20L13 20L13 19L12 19L12 18ZM40 18L40 19L41 19L41 20L40 20L40 21L39 21L39 22L40 22L40 23L39 23L39 25L38 25L38 26L39 26L39 25L40 25L40 26L41 26L41 27L40 27L40 29L38 29L38 30L40 30L40 29L41 29L41 32L40 32L40 33L39 33L39 34L40 34L40 35L41 35L41 36L42 36L42 35L43 35L43 38L42 38L42 37L37 37L37 38L40 38L40 39L38 39L38 40L39 40L39 41L38 41L38 42L37 42L37 43L38 43L38 44L37 44L37 45L38 45L38 44L39 44L39 43L40 43L40 42L41 42L41 41L43 41L43 40L42 40L42 39L43 39L43 38L44 38L44 36L45 36L45 35L46 35L46 34L45 34L45 32L47 32L47 31L48 31L48 30L47 30L47 28L49 28L49 27L50 27L50 26L49 26L49 27L47 27L47 28L46 28L46 26L44 26L44 25L43 25L43 24L44 24L44 22L42 22L42 21L41 21L41 20L42 20L42 18ZM48 18L48 19L50 19L50 18ZM54 18L54 19L55 19L55 18ZM6 19L6 20L7 20L7 19ZM43 19L43 21L45 21L45 22L46 22L46 21L45 21L45 20L44 20L44 19ZM25 20L25 21L24 21L24 22L25 22L25 21L26 21L26 20ZM28 20L28 21L29 21L29 20ZM40 21L40 22L41 22L41 23L40 23L40 25L41 25L41 23L42 23L42 22L41 22L41 21ZM1 23L1 24L2 24L2 23ZM24 23L24 24L25 24L25 23ZM58 23L58 24L57 24L57 25L56 25L56 24L54 24L54 25L56 25L56 28L58 28L58 27L57 27L57 26L58 26L58 25L60 25L60 24L59 24L59 23ZM15 24L15 25L16 25L16 24ZM13 25L13 26L14 26L14 25ZM42 25L42 26L43 26L43 25ZM5 26L5 27L7 27L7 26ZM1 27L1 28L2 28L2 29L3 29L3 28L2 28L2 27ZM12 27L12 29L13 29L13 27ZM42 27L42 28L44 28L44 27ZM5 29L5 32L8 32L8 29ZM29 29L29 32L32 32L32 29ZM42 29L42 30L43 30L43 31L44 31L44 32L45 32L45 30L46 30L46 29L44 29L44 30L43 30L43 29ZM53 29L53 32L56 32L56 29ZM58 29L58 30L57 30L57 31L58 31L58 32L57 32L57 33L58 33L58 32L59 32L59 31L60 31L60 30L59 30L59 29ZM2 30L2 31L3 31L3 32L4 32L4 31L3 31L3 30ZM6 30L6 31L7 31L7 30ZM30 30L30 31L31 31L31 30ZM54 30L54 31L55 31L55 30ZM58 30L58 31L59 31L59 30ZM21 31L21 32L22 32L22 31ZM9 33L9 34L8 34L8 35L7 35L7 36L5 36L5 37L7 37L7 38L6 38L6 39L7 39L7 40L6 40L6 41L8 41L8 37L9 37L9 40L10 40L10 39L12 39L12 38L13 38L13 40L12 40L12 41L10 41L10 42L11 42L11 43L9 43L9 44L10 44L10 45L9 45L9 46L8 46L8 45L7 45L7 44L5 44L5 45L4 45L4 46L5 46L5 47L7 47L7 48L10 48L10 47L9 47L9 46L11 46L11 49L10 49L10 50L12 50L12 45L14 45L14 43L13 43L13 42L14 42L14 41L13 41L13 40L14 40L14 38L13 38L13 37L14 37L14 36L13 36L13 35L11 35L11 36L10 36L10 33ZM30 33L30 35L29 35L29 34L28 34L28 37L29 37L29 38L28 38L28 39L29 39L29 40L31 40L31 39L32 39L32 38L33 38L33 37L32 37L32 38L31 38L31 37L30 37L30 35L32 35L32 36L33 36L33 35L34 35L34 36L35 36L35 35L34 35L34 34L33 34L33 33L32 33L32 34L31 34L31 33ZM41 33L41 34L43 34L43 35L45 35L45 34L43 34L43 33ZM53 33L53 34L52 34L52 35L53 35L53 34L55 34L55 33ZM32 34L32 35L33 35L33 34ZM36 34L36 36L37 36L37 34ZM8 35L8 36L9 36L9 35ZM38 35L38 36L39 36L39 35ZM11 36L11 37L10 37L10 38L11 38L11 37L12 37L12 36ZM59 36L59 37L61 37L61 36ZM34 37L34 38L35 38L35 39L33 39L33 40L37 40L37 39L36 39L36 38L35 38L35 37ZM4 38L4 39L5 39L5 38ZM21 38L21 39L22 39L22 38ZM26 38L26 39L27 39L27 38ZM30 38L30 39L31 39L31 38ZM44 39L44 42L45 42L45 39ZM59 39L59 40L60 40L60 39ZM15 41L15 43L16 43L16 41ZM39 41L39 42L40 42L40 41ZM48 41L48 42L49 42L49 41ZM56 41L56 42L58 42L58 44L59 44L59 41ZM0 43L0 45L1 45L1 44L2 44L2 43ZM12 43L12 44L11 44L11 45L12 45L12 44L13 44L13 43ZM28 43L28 47L27 47L27 48L28 48L28 47L29 47L29 49L30 49L30 48L31 48L31 47L32 47L32 46L31 46L31 45L30 45L30 44L29 44L29 43ZM41 43L41 44L42 44L42 43ZM5 45L5 46L7 46L7 45ZM17 45L17 46L19 46L19 45ZM24 45L24 46L25 46L25 45ZM47 45L47 46L48 46L48 45ZM0 46L0 49L1 49L1 46ZM21 46L21 47L22 47L22 46ZM30 46L30 47L31 47L31 46ZM49 46L49 47L48 47L48 48L49 48L49 47L50 47L50 48L51 48L51 47L50 47L50 46ZM17 47L17 48L15 48L15 49L16 49L16 50L17 50L17 48L19 48L19 47ZM54 48L54 49L52 49L52 50L53 50L53 51L55 51L55 50L56 50L56 48ZM57 48L57 49L58 49L58 48ZM54 49L54 50L55 50L55 49ZM14 50L14 51L15 51L15 52L16 52L16 51L15 51L15 50ZM48 50L48 51L49 51L49 50ZM3 51L3 52L4 52L4 51ZM36 51L36 52L38 52L38 51ZM59 51L59 52L60 52L60 51ZM29 53L29 56L32 56L32 53ZM53 53L53 56L56 56L56 53ZM58 53L58 54L57 54L57 55L58 55L58 56L57 56L57 57L58 57L58 56L59 56L59 55L60 55L60 54L59 54L59 53ZM30 54L30 55L31 55L31 54ZM35 54L35 55L37 55L37 54ZM54 54L54 55L55 55L55 54ZM58 54L58 55L59 55L59 54ZM10 55L10 56L11 56L11 55ZM48 55L48 56L49 56L49 55ZM24 56L24 57L25 57L25 56ZM11 57L11 58L12 58L12 57ZM15 57L15 58L16 58L16 57ZM32 57L32 58L33 58L33 57ZM60 57L60 61L61 61L61 57ZM30 58L30 59L31 59L31 58ZM36 58L36 59L37 59L37 58ZM27 59L27 60L28 60L28 59ZM35 60L35 61L37 61L37 60ZM48 60L48 61L49 61L49 60ZM0 0L0 7L7 7L7 0ZM1 1L1 6L6 6L6 1ZM2 2L2 5L5 5L5 2ZM54 0L54 7L61 7L61 0ZM55 1L55 6L60 6L60 1ZM56 2L56 5L59 5L59 2ZM0 54L0 61L7 61L7 54ZM1 55L1 60L6 60L6 55ZM2 56L2 59L5 59L5 56Z" fill="#000000"/></g></g></svg>
