<?xml version="1.0" encoding="UTF-8"?>
<svg xmlns="http://www.w3.org/2000/svg" version="1.1" width="300" height="300" viewBox="0 0 300 300"><rect x="0" y="0" width="300" height="300" fill="#ffffff"/><g transform="scale(4.918)"><g transform="translate(0,0)"><path fill-rule="evenodd" d="M11 0L11 1L10 1L10 2L9 2L9 1L8 1L8 2L9 2L9 3L8 3L8 4L9 4L9 5L8 5L8 7L9 7L9 8L6 8L6 9L5 9L5 8L0 8L0 9L3 9L3 13L5 13L5 15L7 15L7 14L6 14L6 13L8 13L8 12L9 12L9 11L10 11L10 13L9 13L9 15L8 15L8 16L6 16L6 17L5 17L5 16L4 16L4 15L3 15L3 16L2 16L2 15L1 15L1 16L2 16L2 18L1 18L1 21L0 21L0 22L1 22L1 21L2 21L2 25L1 25L1 24L0 24L0 28L1 28L1 29L2 29L2 30L0 30L0 32L1 32L1 34L2 34L2 30L3 30L3 34L4 34L4 35L5 35L5 34L4 34L4 33L10 33L10 35L8 35L8 34L6 34L6 35L8 35L8 37L9 37L9 36L10 36L10 40L11 40L11 41L12 41L12 42L10 42L10 44L9 44L9 38L6 38L6 39L5 39L5 38L3 38L3 40L4 40L4 42L2 42L2 39L1 39L1 42L0 42L0 43L1 43L1 42L2 42L2 44L3 44L3 45L2 45L2 46L1 46L1 45L0 45L0 46L1 46L1 47L2 47L2 48L3 48L3 47L5 47L5 41L8 41L8 42L6 42L6 43L7 43L7 44L6 44L6 45L7 45L7 46L6 46L6 47L7 47L7 48L5 48L5 49L7 49L7 50L4 50L4 49L3 49L3 50L2 50L2 49L1 49L1 50L2 50L2 51L0 51L0 53L4 53L4 52L5 52L5 51L8 51L8 50L10 50L10 51L9 51L9 53L8 53L8 55L9 55L9 54L10 54L10 55L12 55L12 56L10 56L10 57L9 57L9 56L8 56L8 61L9 61L9 60L12 60L12 61L13 61L13 60L14 60L14 59L15 59L15 61L17 61L17 60L18 60L18 61L19 61L19 60L20 60L20 61L21 61L21 60L23 60L23 59L22 59L22 58L23 58L23 57L24 57L24 58L25 58L25 57L26 57L26 58L27 58L27 57L30 57L30 58L31 58L31 59L32 59L32 60L33 60L33 61L34 61L34 60L35 60L35 58L34 58L34 57L37 57L37 56L41 56L41 55L42 55L42 56L43 56L43 57L39 57L39 58L38 58L38 59L37 59L37 58L36 58L36 59L37 59L37 60L36 60L36 61L37 61L37 60L39 60L39 61L40 61L40 60L41 60L41 61L43 61L43 60L45 60L45 61L51 61L51 60L52 60L52 59L51 59L51 58L53 58L53 59L54 59L54 60L55 60L55 59L56 59L56 61L61 61L61 54L60 54L60 52L61 52L61 50L60 50L60 51L59 51L59 52L58 52L58 53L59 53L59 56L58 56L58 57L57 57L57 52L54 52L54 51L55 51L55 50L54 50L54 51L52 51L52 52L51 52L51 50L50 50L50 53L49 53L49 52L48 52L48 53L47 53L47 54L46 54L46 52L47 52L47 50L46 50L46 52L45 52L45 53L44 53L44 52L43 52L43 51L42 51L42 54L41 54L41 55L40 55L40 52L41 52L41 50L38 50L38 52L39 52L39 54L37 54L37 52L36 52L36 51L37 51L37 50L36 50L36 51L35 51L35 50L33 50L33 49L34 49L34 48L32 48L32 47L35 47L35 46L34 46L34 45L33 45L33 44L32 44L32 47L31 47L31 46L30 46L30 47L31 47L31 48L30 48L30 49L29 49L29 52L28 52L28 53L26 53L26 51L28 51L28 50L27 50L27 49L28 49L28 48L27 48L27 49L26 49L26 51L24 51L24 50L25 50L25 49L22 49L22 51L23 51L23 52L25 52L25 53L22 53L22 52L17 52L17 49L16 49L16 47L17 47L17 46L16 46L16 45L19 45L19 46L20 46L20 45L21 45L21 47L19 47L19 48L18 48L18 49L19 49L19 50L18 50L18 51L19 51L19 50L20 50L20 51L21 51L21 50L20 50L20 49L21 49L21 48L25 48L25 47L26 47L26 46L27 46L27 47L28 47L28 46L27 46L27 45L31 45L31 44L30 44L30 43L31 43L31 42L30 42L30 41L31 41L31 40L32 40L32 41L33 41L33 42L32 42L32 43L34 43L34 44L35 44L35 45L37 45L37 44L35 44L35 42L34 42L34 41L33 41L33 40L32 40L32 39L34 39L34 40L35 40L35 41L36 41L36 43L37 43L37 40L36 40L36 39L39 39L39 40L38 40L38 41L39 41L39 42L38 42L38 43L39 43L39 42L40 42L40 41L39 41L39 40L41 40L41 41L42 41L42 42L45 42L45 43L44 43L44 44L45 44L45 45L44 45L44 47L43 47L43 49L42 49L42 50L44 50L44 48L45 48L45 49L47 49L47 48L48 48L48 49L52 49L52 48L48 48L48 47L49 47L49 46L50 46L50 47L52 47L52 46L50 46L50 43L52 43L52 44L51 44L51 45L52 45L52 44L54 44L54 45L53 45L53 48L54 48L54 49L55 49L55 48L54 48L54 47L57 47L57 46L58 46L58 45L59 45L59 44L60 44L60 45L61 45L61 42L60 42L60 41L61 41L61 38L58 38L58 37L60 37L60 36L61 36L61 34L60 34L60 36L55 36L55 38L52 38L52 37L53 37L53 35L52 35L52 34L49 34L49 35L52 35L52 36L50 36L50 37L51 37L51 38L48 38L48 39L50 39L50 40L47 40L47 38L46 38L46 37L49 37L49 36L48 36L48 35L47 35L47 34L46 34L46 32L48 32L48 33L49 33L49 32L48 32L48 30L50 30L50 33L53 33L53 34L54 34L54 35L55 35L55 34L56 34L56 35L57 35L57 34L58 34L58 35L59 35L59 32L57 32L57 31L61 31L61 30L58 30L58 29L61 29L61 28L57 28L57 27L61 27L61 26L60 26L60 25L59 25L59 24L61 24L61 22L58 22L58 21L59 21L59 20L57 20L57 19L56 19L56 18L55 18L55 17L54 17L54 18L52 18L52 20L50 20L50 19L51 19L51 18L49 18L49 16L48 16L48 15L49 15L49 14L50 14L50 15L51 15L51 16L50 16L50 17L53 17L53 16L52 16L52 15L53 15L53 14L55 14L55 15L54 15L54 16L55 16L55 15L56 15L56 16L57 16L57 15L58 15L58 14L56 14L56 13L55 13L55 11L54 11L54 10L55 10L55 9L56 9L56 10L57 10L57 9L58 9L58 11L59 11L59 12L57 12L57 11L56 11L56 12L57 12L57 13L59 13L59 12L60 12L60 11L61 11L61 10L60 10L60 11L59 11L59 9L60 9L60 8L59 8L59 9L58 9L58 8L57 8L57 9L56 9L56 8L55 8L55 9L54 9L54 8L53 8L53 6L52 6L52 7L51 7L51 5L52 5L52 4L53 4L53 0L51 0L51 2L50 2L50 1L49 1L49 0L48 0L48 2L47 2L47 1L46 1L46 0L39 0L39 1L37 1L37 0L35 0L35 1L34 1L34 2L35 2L35 3L36 3L36 4L35 4L35 5L33 5L33 4L34 4L34 3L33 3L33 2L32 2L32 1L33 1L33 0L32 0L32 1L30 1L30 0L29 0L29 1L28 1L28 0L26 0L26 2L25 2L25 0L21 0L21 2L19 2L19 1L20 1L20 0L19 0L19 1L17 1L17 3L16 3L16 2L15 2L15 1L16 1L16 0L15 0L15 1L14 1L14 0ZM11 1L11 2L10 2L10 3L9 3L9 4L10 4L10 5L9 5L9 7L10 7L10 8L9 8L9 9L6 9L6 10L7 10L7 11L6 11L6 12L8 12L8 11L9 11L9 9L11 9L11 10L10 10L10 11L11 11L11 10L12 10L12 9L13 9L13 8L14 8L14 9L15 9L15 8L18 8L18 9L16 9L16 10L13 10L13 11L12 11L12 13L15 13L15 14L17 14L17 13L15 13L15 12L14 12L14 11L19 11L19 12L21 12L21 7L22 7L22 9L23 9L23 10L22 10L22 11L23 11L23 12L22 12L22 13L23 13L23 15L21 15L21 13L20 13L20 16L19 16L19 17L18 17L18 16L17 16L17 15L16 15L16 17L13 17L13 20L12 20L12 17L10 17L10 16L11 16L11 14L10 14L10 15L9 15L9 16L8 16L8 17L6 17L6 18L5 18L5 17L4 17L4 16L3 16L3 18L4 18L4 19L3 19L3 20L2 20L2 21L3 21L3 20L4 20L4 21L5 21L5 19L6 19L6 20L7 20L7 19L8 19L8 17L9 17L9 18L10 18L10 19L9 19L9 20L11 20L11 22L10 22L10 23L8 23L8 22L9 22L9 21L6 21L6 22L7 22L7 23L6 23L6 24L7 24L7 25L6 25L6 26L5 26L5 25L2 25L2 26L1 26L1 28L2 28L2 29L3 29L3 30L4 30L4 29L3 29L3 28L4 28L4 27L6 27L6 28L9 28L9 27L8 27L8 26L9 26L9 25L8 25L8 24L10 24L10 26L12 26L12 30L10 30L10 29L11 29L11 27L10 27L10 29L9 29L9 30L10 30L10 31L9 31L9 32L11 32L11 31L12 31L12 32L13 32L13 33L14 33L14 34L12 34L12 35L16 35L16 36L15 36L15 37L14 37L14 36L13 36L13 37L12 37L12 39L11 39L11 40L12 40L12 41L13 41L13 44L12 44L12 43L11 43L11 45L13 45L13 46L14 46L14 47L12 47L12 46L11 46L11 47L12 47L12 49L15 49L15 50L11 50L11 48L9 48L9 46L10 46L10 45L9 45L9 44L7 44L7 45L8 45L8 46L7 46L7 47L8 47L8 48L7 48L7 49L8 49L8 48L9 48L9 49L10 49L10 50L11 50L11 51L12 51L12 52L13 52L13 53L14 53L14 52L16 52L16 51L15 51L15 50L16 50L16 49L15 49L15 45L13 45L13 44L14 44L14 43L16 43L16 44L17 44L17 43L18 43L18 44L19 44L19 45L20 45L20 44L19 44L19 43L18 43L18 41L19 41L19 42L20 42L20 43L22 43L22 45L23 45L23 46L22 46L22 47L23 47L23 46L24 46L24 45L25 45L25 46L26 46L26 45L27 45L27 43L26 43L26 45L25 45L25 42L26 42L26 41L27 41L27 42L29 42L29 43L30 43L30 42L29 42L29 38L35 38L35 39L36 39L36 36L37 36L37 35L38 35L38 36L39 36L39 37L37 37L37 38L39 38L39 37L40 37L40 39L41 39L41 40L42 40L42 41L43 41L43 40L44 40L44 41L45 41L45 42L47 42L47 43L45 43L45 44L49 44L49 43L50 43L50 42L51 42L51 40L52 40L52 38L51 38L51 40L50 40L50 42L49 42L49 41L47 41L47 40L44 40L44 39L45 39L45 38L42 38L42 37L41 37L41 34L42 34L42 35L43 35L43 36L44 36L44 37L45 37L45 32L46 32L46 31L45 31L45 30L48 30L48 29L47 29L47 28L49 28L49 29L50 29L50 30L51 30L51 31L52 31L52 28L51 28L51 29L50 29L50 28L49 28L49 27L50 27L50 26L51 26L51 27L55 27L55 26L53 26L53 25L55 25L55 24L53 24L53 23L56 23L56 22L57 22L57 20L56 20L56 22L54 22L54 20L55 20L55 18L54 18L54 20L53 20L53 21L50 21L50 20L49 20L49 19L48 19L48 18L47 18L47 17L48 17L48 16L47 16L47 15L48 15L48 14L47 14L47 13L45 13L45 12L42 12L42 11L46 11L46 12L49 12L49 11L46 11L46 10L47 10L47 9L46 9L46 8L47 8L47 7L48 7L48 8L49 8L49 9L50 9L50 14L51 14L51 15L52 15L52 14L53 14L53 13L54 13L54 12L53 12L53 9L52 9L52 11L51 11L51 9L50 9L50 8L49 8L49 7L50 7L50 5L49 5L49 7L48 7L48 5L47 5L47 3L44 3L44 2L43 2L43 1L41 1L41 2L40 2L40 3L39 3L39 2L38 2L38 4L36 4L36 5L40 5L40 6L39 6L39 7L38 7L38 6L37 6L37 7L36 7L36 6L35 6L35 8L38 8L38 10L40 10L40 9L41 9L41 10L42 10L42 11L41 11L41 12L40 12L40 11L38 11L38 12L37 12L37 11L36 11L36 12L37 12L37 13L38 13L38 14L37 14L37 15L36 15L36 14L35 14L35 13L34 13L34 14L35 14L35 15L33 15L33 14L32 14L32 16L30 16L30 17L31 17L31 18L32 18L32 19L31 19L31 20L29 20L29 19L30 19L30 18L29 18L29 19L28 19L28 18L26 18L26 17L27 17L27 16L29 16L29 15L27 15L27 14L26 14L26 13L27 13L27 12L29 12L29 11L31 11L31 12L30 12L30 13L28 13L28 14L31 14L31 12L35 12L35 11L33 11L33 10L35 10L35 9L33 9L33 10L32 10L32 9L31 9L31 10L30 10L30 9L29 9L29 11L28 11L28 9L27 9L27 8L28 8L28 6L27 6L27 5L28 5L28 4L27 4L27 2L28 2L28 1L27 1L27 2L26 2L26 4L25 4L25 3L24 3L24 2L23 2L23 1L22 1L22 2L23 2L23 3L21 3L21 4L20 4L20 3L19 3L19 4L20 4L20 5L21 5L21 7L20 7L20 6L19 6L19 5L18 5L18 6L17 6L17 4L16 4L16 5L14 5L14 4L15 4L15 3L14 3L14 2L13 2L13 1ZM29 1L29 2L30 2L30 1ZM45 1L45 2L46 2L46 1ZM12 2L12 3L10 3L10 4L12 4L12 5L10 5L10 7L11 7L11 6L12 6L12 8L13 8L13 4L14 4L14 3L13 3L13 2ZM31 2L31 3L29 3L29 4L31 4L31 3L32 3L32 2ZM36 2L36 3L37 3L37 2ZM42 2L42 3L43 3L43 2ZM48 2L48 3L50 3L50 2ZM23 3L23 4L21 4L21 5L22 5L22 7L23 7L23 8L24 8L24 7L25 7L25 9L24 9L24 10L23 10L23 11L25 11L25 9L26 9L26 10L27 10L27 9L26 9L26 8L27 8L27 6L26 6L26 7L25 7L25 6L24 6L24 5L25 5L25 4L24 4L24 3ZM51 3L51 4L52 4L52 3ZM26 4L26 5L27 5L27 4ZM40 4L40 5L41 5L41 4ZM42 4L42 5L44 5L44 8L46 8L46 7L47 7L47 5L46 5L46 7L45 7L45 5L44 5L44 4ZM29 5L29 8L32 8L32 5ZM14 6L14 8L15 8L15 6ZM16 6L16 7L17 7L17 6ZM18 6L18 7L19 7L19 6ZM23 6L23 7L24 7L24 6ZM30 6L30 7L31 7L31 6ZM33 6L33 8L34 8L34 6ZM40 6L40 7L39 7L39 8L41 8L41 6ZM42 6L42 8L43 8L43 6ZM19 8L19 9L18 9L18 10L19 10L19 11L20 11L20 10L19 10L19 9L20 9L20 8ZM4 9L4 12L5 12L5 9ZM42 9L42 10L43 10L43 9ZM44 9L44 10L45 10L45 9ZM0 10L0 11L1 11L1 10ZM31 10L31 11L32 11L32 10ZM26 11L26 12L25 12L25 13L24 13L24 15L23 15L23 16L24 16L24 15L25 15L25 13L26 13L26 12L27 12L27 11ZM0 12L0 14L1 14L1 13L2 13L2 12ZM38 12L38 13L39 13L39 14L40 14L40 12ZM51 12L51 13L53 13L53 12ZM18 13L18 14L19 14L19 13ZM42 13L42 14L41 14L41 15L40 15L40 16L39 16L39 18L37 18L37 17L38 17L38 16L35 16L35 18L37 18L37 20L36 20L36 19L33 19L33 20L36 20L36 22L37 22L37 23L39 23L39 24L38 24L38 25L39 25L39 24L41 24L41 23L42 23L42 22L43 22L43 25L41 25L41 27L40 27L40 26L38 26L38 27L40 27L40 28L39 28L39 29L40 29L40 30L38 30L38 31L39 31L39 34L38 34L38 35L39 35L39 36L40 36L40 35L39 35L39 34L40 34L40 32L41 32L41 31L40 31L40 30L41 30L41 29L40 29L40 28L41 28L41 27L42 27L42 26L43 26L43 28L47 28L47 27L49 27L49 26L50 26L50 25L53 25L53 24L52 24L52 23L53 23L53 22L50 22L50 23L49 23L49 20L46 20L46 19L47 19L47 18L46 18L46 15L47 15L47 14L45 14L45 15L44 15L44 16L43 16L43 17L42 17L42 18L44 18L44 19L45 19L45 20L46 20L46 21L44 21L44 20L43 20L43 19L42 19L42 22L41 22L41 21L39 21L39 20L40 20L40 18L41 18L41 17L40 17L40 16L42 16L42 14L44 14L44 13ZM12 14L12 16L14 16L14 15L13 15L13 14ZM59 14L59 15L60 15L60 16L58 16L58 17L57 17L57 18L58 18L58 17L59 17L59 19L61 19L61 18L60 18L60 17L61 17L61 14ZM26 15L26 16L25 16L25 17L22 17L22 19L19 19L19 20L18 20L18 18L17 18L17 17L16 17L16 18L15 18L15 19L14 19L14 20L15 20L15 21L19 21L19 22L18 22L18 23L17 23L17 22L14 22L14 21L12 21L12 24L11 24L11 23L10 23L10 24L11 24L11 25L12 25L12 26L13 26L13 27L14 27L14 28L15 28L15 31L16 31L16 32L17 32L17 31L16 31L16 29L17 29L17 30L18 30L18 31L20 31L20 33L19 33L19 32L18 32L18 33L17 33L17 34L18 34L18 35L17 35L17 36L16 36L16 37L17 37L17 39L14 39L14 40L16 40L16 41L14 41L14 42L16 42L16 43L17 43L17 42L16 42L16 41L18 41L18 40L17 40L17 39L18 39L18 37L19 37L19 36L20 36L20 37L21 37L21 38L20 38L20 40L22 40L22 39L24 39L24 40L23 40L23 41L21 41L21 42L22 42L22 43L23 43L23 41L24 41L24 42L25 42L25 41L26 41L26 40L27 40L27 41L28 41L28 40L27 40L27 39L28 39L28 38L27 38L27 37L31 37L31 36L32 36L32 35L34 35L34 37L35 37L35 36L36 36L36 34L37 34L37 33L38 33L38 32L35 32L35 31L36 31L36 30L34 30L34 33L36 33L36 34L32 34L32 35L31 35L31 34L29 34L29 33L33 33L33 29L38 29L38 28L34 28L34 27L35 27L35 26L33 26L33 25L32 25L32 26L31 26L31 25L29 25L29 26L28 26L28 24L27 24L27 25L26 25L26 22L27 22L27 23L28 23L28 22L29 22L29 24L31 24L31 23L32 23L32 24L33 24L33 23L34 23L34 25L37 25L37 24L35 24L35 22L33 22L33 23L32 23L32 22L31 22L31 21L30 21L30 22L29 22L29 20L27 20L27 19L26 19L26 18L25 18L25 17L26 17L26 16L27 16L27 15ZM20 16L20 17L19 17L19 18L20 18L20 17L21 17L21 16ZM44 16L44 18L45 18L45 16ZM32 17L32 18L33 18L33 17ZM6 18L6 19L7 19L7 18ZM23 18L23 19L24 19L24 20L19 20L19 21L20 21L20 22L19 22L19 25L23 25L23 26L22 26L22 27L23 27L23 28L22 28L22 29L23 29L23 30L22 30L22 31L21 31L21 29L20 29L20 28L19 28L19 27L20 27L20 26L19 26L19 27L18 27L18 26L17 26L17 25L18 25L18 24L17 24L17 23L14 23L14 24L16 24L16 25L13 25L13 26L16 26L16 27L18 27L18 28L19 28L19 29L18 29L18 30L19 30L19 29L20 29L20 31L21 31L21 32L22 32L22 33L25 33L25 34L26 34L26 37L25 37L25 36L24 36L24 35L23 35L23 36L22 36L22 34L21 34L21 33L20 33L20 36L21 36L21 37L25 37L25 38L24 38L24 39L25 39L25 40L24 40L24 41L25 41L25 40L26 40L26 39L25 39L25 38L26 38L26 37L27 37L27 36L30 36L30 35L29 35L29 34L28 34L28 31L26 31L26 29L27 29L27 30L28 30L28 29L27 29L27 28L26 28L26 29L25 29L25 28L24 28L24 27L25 27L25 26L26 26L26 25L25 25L25 23L24 23L24 22L22 22L22 23L23 23L23 24L21 24L21 23L20 23L20 22L21 22L21 21L25 21L25 19L24 19L24 18ZM15 19L15 20L16 20L16 19ZM38 19L38 20L37 20L37 22L39 22L39 23L41 23L41 22L39 22L39 21L38 21L38 20L39 20L39 19ZM26 20L26 21L27 21L27 20ZM60 20L60 21L61 21L61 20ZM43 21L43 22L44 22L44 21ZM46 21L46 22L48 22L48 21ZM3 22L3 24L5 24L5 22ZM7 23L7 24L8 24L8 23ZM45 23L45 24L44 24L44 27L45 27L45 26L48 26L48 25L47 25L47 24L49 24L49 23ZM57 23L57 24L56 24L56 27L57 27L57 26L58 26L58 24L59 24L59 23ZM23 24L23 25L24 25L24 26L23 26L23 27L24 27L24 26L25 26L25 25L24 25L24 24ZM45 24L45 25L46 25L46 24ZM2 26L2 27L4 27L4 26ZM6 26L6 27L7 27L7 26ZM29 26L29 27L28 27L28 28L30 28L30 26ZM32 26L32 28L33 28L33 26ZM36 26L36 27L37 27L37 26ZM5 29L5 32L8 32L8 29ZM24 29L24 30L25 30L25 29ZM29 29L29 32L32 32L32 29ZM42 29L42 30L43 30L43 29ZM44 29L44 30L45 30L45 29ZM53 29L53 32L56 32L56 29ZM6 30L6 31L7 31L7 30ZM30 30L30 31L31 31L31 30ZM54 30L54 31L55 31L55 30ZM13 31L13 32L14 32L14 33L15 33L15 34L16 34L16 33L15 33L15 32L14 32L14 31ZM22 31L22 32L23 32L23 31ZM24 31L24 32L25 32L25 33L26 33L26 34L27 34L27 35L28 35L28 34L27 34L27 33L26 33L26 31ZM42 31L42 32L43 32L43 33L42 33L42 34L43 34L43 35L44 35L44 34L43 34L43 33L44 33L44 32L45 32L45 31L44 31L44 32L43 32L43 31ZM60 32L60 33L61 33L61 32ZM18 33L18 34L19 34L19 33ZM56 33L56 34L57 34L57 33ZM1 35L1 37L2 37L2 35ZM46 35L46 36L47 36L47 35ZM6 36L6 37L7 37L7 36ZM13 37L13 38L14 38L14 37ZM56 37L56 40L55 40L55 39L54 39L54 40L53 40L53 41L52 41L52 43L53 43L53 42L55 42L55 43L54 43L54 44L55 44L55 45L56 45L56 46L57 46L57 45L56 45L56 44L55 44L55 43L57 43L57 44L59 44L59 43L60 43L60 42L59 42L59 43L57 43L57 42L58 42L58 41L56 41L56 40L60 40L60 39L57 39L57 37ZM21 38L21 39L22 39L22 38ZM41 38L41 39L42 39L42 38ZM4 39L4 40L5 40L5 39ZM6 39L6 40L7 40L7 39ZM12 39L12 40L13 40L13 39ZM54 40L54 41L55 41L55 42L56 42L56 41L55 41L55 40ZM48 42L48 43L49 43L49 42ZM40 43L40 44L38 44L38 45L39 45L39 46L38 46L38 47L37 47L37 46L36 46L36 47L37 47L37 48L35 48L35 49L37 49L37 48L41 48L41 47L42 47L42 46L43 46L43 45L42 45L42 46L41 46L41 45L40 45L40 44L41 44L41 43ZM42 43L42 44L43 44L43 43ZM46 45L46 46L47 46L47 47L46 47L46 48L47 48L47 47L48 47L48 46L47 46L47 45ZM2 46L2 47L3 47L3 46ZM40 46L40 47L41 47L41 46ZM60 46L60 47L61 47L61 46ZM19 48L19 49L20 49L20 48ZM31 48L31 49L30 49L30 50L31 50L31 49L32 49L32 48ZM56 48L56 49L57 49L57 50L56 50L56 51L57 51L57 50L58 50L58 49L59 49L59 48ZM48 50L48 51L49 51L49 50ZM3 51L3 52L4 52L4 51ZM13 51L13 52L14 52L14 51ZM32 51L32 52L34 52L34 51ZM6 52L6 53L7 53L7 52ZM35 52L35 53L33 53L33 54L35 54L35 55L34 55L34 56L35 56L35 55L36 55L36 56L37 56L37 54L35 54L35 53L36 53L36 52ZM10 53L10 54L12 54L12 53ZM15 53L15 54L13 54L13 56L12 56L12 57L11 57L11 58L9 58L9 59L12 59L12 60L13 60L13 59L14 59L14 58L17 58L17 57L18 57L18 56L17 56L17 55L18 55L18 54L19 54L19 56L21 56L21 57L20 57L20 59L21 59L21 57L23 57L23 55L24 55L24 57L25 57L25 54L26 54L26 57L27 57L27 55L28 55L28 54L26 54L26 53L25 53L25 54L23 54L23 55L20 55L20 54L21 54L21 53L18 53L18 54L17 54L17 53ZM29 53L29 56L32 56L32 53ZM43 53L43 54L42 54L42 55L45 55L45 56L44 56L44 59L45 59L45 58L48 58L48 59L46 59L46 60L49 60L49 59L50 59L50 60L51 60L51 59L50 59L50 58L51 58L51 56L52 56L52 55L50 55L50 56L49 56L49 53L48 53L48 54L47 54L47 57L45 57L45 56L46 56L46 55L45 55L45 54L44 54L44 53ZM50 53L50 54L51 54L51 53ZM53 53L53 56L56 56L56 53ZM15 54L15 55L14 55L14 56L13 56L13 58L14 58L14 56L15 56L15 57L17 57L17 56L16 56L16 55L17 55L17 54ZM30 54L30 55L31 55L31 54ZM54 54L54 55L55 55L55 54ZM48 56L48 58L49 58L49 56ZM59 56L59 57L58 57L58 58L56 58L56 57L53 57L53 58L54 58L54 59L55 59L55 58L56 58L56 59L57 59L57 60L60 60L60 56ZM32 57L32 59L33 59L33 60L34 60L34 58L33 58L33 57ZM40 58L40 59L39 59L39 60L40 60L40 59L41 59L41 60L42 60L42 59L43 59L43 58ZM16 59L16 60L17 60L17 59ZM24 59L24 60L25 60L25 61L26 61L26 60L29 60L29 61L31 61L31 60L29 60L29 59L26 59L26 60L25 60L25 59ZM0 0L0 7L7 7L7 0ZM1 1L1 6L6 6L6 1ZM2 2L2 5L5 5L5 2ZM54 0L54 7L61 7L61 0ZM55 1L55 6L60 6L60 1ZM56 2L56 5L59 5L59 2ZM0 54L0 61L7 61L7 54ZM1 55L1 60L6 60L6 55ZM2 56L2 59L5 59L5 56Z" fill="#000000"/></g></g></svg>
