<?xml version="1.0" encoding="UTF-8"?>
<svg xmlns="http://www.w3.org/2000/svg" version="1.1" width="300" height="300" viewBox="0 0 300 300"><rect x="0" y="0" width="300" height="300" fill="#ffffff"/><g transform="scale(4.918)"><g transform="translate(0,0)"><path fill-rule="evenodd" d="M9 0L9 1L8 1L8 2L9 2L9 1L10 1L10 3L8 3L8 4L9 4L9 5L8 5L8 7L9 7L9 6L10 6L10 8L11 8L11 9L10 9L10 10L8 10L8 9L9 9L9 8L6 8L6 9L7 9L7 10L6 10L6 11L8 11L8 12L4 12L4 13L3 13L3 11L4 11L4 10L3 10L3 9L5 9L5 8L0 8L0 12L1 12L1 13L2 13L2 16L0 16L0 17L2 17L2 19L1 19L1 20L3 20L3 21L4 21L4 22L2 22L2 23L1 23L1 22L0 22L0 23L1 23L1 24L0 24L0 27L2 27L2 28L1 28L1 29L0 29L0 30L1 30L1 29L2 29L2 31L1 31L1 32L0 32L0 33L3 33L3 34L2 34L2 35L3 35L3 36L2 36L2 37L3 37L3 38L2 38L2 39L0 39L0 40L2 40L2 41L4 41L4 42L3 42L3 43L2 43L2 42L1 42L1 44L0 44L0 45L1 45L1 46L0 46L0 47L1 47L1 48L0 48L0 50L1 50L1 49L3 49L3 50L2 50L2 51L0 51L0 53L4 53L4 52L5 52L5 51L7 51L7 50L6 50L6 49L8 49L8 52L9 52L9 53L8 53L8 55L9 55L9 56L8 56L8 61L10 61L10 59L11 59L11 58L13 58L13 56L14 56L14 57L18 57L18 58L17 58L17 60L16 60L16 59L15 59L15 61L19 61L19 60L18 60L18 58L19 58L19 59L20 59L20 58L19 58L19 57L20 57L20 56L19 56L19 57L18 57L18 56L15 56L15 55L14 55L14 52L15 52L15 53L17 53L17 55L18 55L18 53L19 53L19 52L20 52L20 53L21 53L21 54L20 54L20 55L21 55L21 57L22 57L22 58L23 58L23 59L21 59L21 60L20 60L20 61L21 61L21 60L23 60L23 61L24 61L24 60L25 60L25 58L27 58L27 59L26 59L26 60L27 60L27 61L28 61L28 60L29 60L29 61L32 61L32 60L33 60L33 61L37 61L37 60L38 60L38 61L40 61L40 60L41 60L41 61L42 61L42 60L45 60L45 61L46 61L46 59L47 59L47 58L49 58L49 56L50 56L50 55L52 55L52 56L51 56L51 57L52 57L52 58L50 58L50 59L51 59L51 60L50 60L50 61L52 61L52 60L53 60L53 61L54 61L54 60L55 60L55 58L58 58L58 59L59 59L59 58L58 58L58 57L59 57L59 56L61 56L61 54L60 54L60 53L59 53L59 52L58 52L58 53L59 53L59 56L58 56L58 57L57 57L57 52L56 52L56 51L55 51L55 50L56 50L56 49L57 49L57 51L61 51L61 50L60 50L60 47L61 47L61 46L60 46L60 45L61 45L61 42L60 42L60 43L59 43L59 42L58 42L58 41L61 41L61 38L58 38L58 37L59 37L59 36L60 36L60 35L61 35L61 34L60 34L60 35L59 35L59 36L58 36L58 34L59 34L59 32L58 32L58 30L57 30L57 29L60 29L60 27L61 27L61 26L60 26L60 25L61 25L61 22L60 22L60 23L59 23L59 22L58 22L58 21L59 21L59 20L58 20L58 19L57 19L57 18L55 18L55 17L53 17L53 15L51 15L51 14L50 14L50 15L49 15L49 16L48 16L48 15L47 15L47 14L49 14L49 13L51 13L51 12L52 12L52 13L53 13L53 14L55 14L55 13L56 13L56 14L59 14L59 15L61 15L61 14L60 14L60 13L59 13L59 12L60 12L60 11L61 11L61 10L60 10L60 11L59 11L59 10L58 10L58 8L57 8L57 9L56 9L56 8L55 8L55 9L54 9L54 8L52 8L52 7L53 7L53 6L52 6L52 7L51 7L51 5L52 5L52 4L53 4L53 0L51 0L51 2L50 2L50 3L48 3L48 4L49 4L49 6L48 6L48 7L47 7L47 5L46 5L46 4L47 4L47 3L46 3L46 2L49 2L49 1L50 1L50 0L49 0L49 1L48 1L48 0L47 0L47 1L46 1L46 0L44 0L44 1L43 1L43 0L39 0L39 1L38 1L38 2L39 2L39 1L43 1L43 2L42 2L42 3L41 3L41 2L40 2L40 3L41 3L41 5L42 5L42 7L43 7L43 8L45 8L45 9L44 9L44 10L45 10L45 13L44 13L44 12L43 12L43 11L42 11L42 10L43 10L43 9L39 9L39 10L38 10L38 9L37 9L37 8L41 8L41 6L40 6L40 5L38 5L38 7L37 7L37 4L39 4L39 3L35 3L35 1L33 1L33 0L32 0L32 1L27 1L27 0L26 0L26 1L25 1L25 0L24 0L24 1L21 1L21 2L19 2L19 1L18 1L18 2L19 2L19 3L17 3L17 0L16 0L16 1L13 1L13 0L12 0L12 1L10 1L10 0ZM36 0L36 2L37 2L37 0ZM12 1L12 3L10 3L10 4L12 4L12 6L11 6L11 5L10 5L10 6L11 6L11 8L12 8L12 9L11 9L11 11L12 11L12 10L13 10L13 12L11 12L11 13L9 13L9 12L10 12L10 11L9 11L9 12L8 12L8 13L9 13L9 14L11 14L11 15L12 15L12 16L11 16L11 18L12 18L12 19L11 19L11 20L13 20L13 22L12 22L12 21L11 21L11 22L10 22L10 23L9 23L9 24L8 24L8 23L5 23L5 22L9 22L9 21L10 21L10 20L8 20L8 18L10 18L10 17L9 17L9 16L10 16L10 15L5 15L5 13L4 13L4 15L3 15L3 16L2 16L2 17L3 17L3 16L4 16L4 15L5 15L5 16L8 16L8 17L6 17L6 18L7 18L7 19L5 19L5 18L3 18L3 20L5 20L5 22L4 22L4 23L3 23L3 24L2 24L2 27L3 27L3 29L4 29L4 24L8 24L8 25L6 25L6 26L8 26L8 27L9 27L9 28L10 28L10 29L9 29L9 30L10 30L10 31L9 31L9 32L10 32L10 33L15 33L15 34L14 34L14 35L15 35L15 36L14 36L14 37L12 37L12 36L11 36L11 34L8 34L8 33L6 33L6 34L4 34L4 35L6 35L6 36L7 36L7 35L10 35L10 39L12 39L12 40L10 40L10 41L9 41L9 42L8 42L8 40L9 40L9 38L7 38L7 37L6 37L6 38L7 38L7 39L5 39L5 37L4 37L4 39L5 39L5 40L4 40L4 41L5 41L5 40L7 40L7 41L6 41L6 42L5 42L5 43L6 43L6 44L7 44L7 43L6 43L6 42L8 42L8 49L9 49L9 50L11 50L11 49L10 49L10 47L9 47L9 45L10 45L10 46L11 46L11 48L12 48L12 47L13 47L13 46L12 46L12 45L14 45L14 47L15 47L15 48L14 48L14 49L12 49L12 51L9 51L9 52L10 52L10 53L9 53L9 55L11 55L11 56L13 56L13 55L12 55L12 54L13 54L13 52L12 52L12 51L16 51L16 52L17 52L17 50L20 50L20 52L22 52L22 53L23 53L23 49L22 49L22 48L21 48L21 47L22 47L22 45L23 45L23 48L24 48L24 49L25 49L25 51L24 51L24 53L25 53L25 56L22 56L22 57L25 57L25 56L26 56L26 57L27 57L27 56L26 56L26 55L28 55L28 53L27 53L27 51L26 51L26 49L27 49L27 50L28 50L28 49L27 49L27 48L28 48L28 47L27 47L27 46L28 46L28 45L30 45L30 46L29 46L29 47L30 47L30 48L31 48L31 49L29 49L29 50L32 50L32 48L34 48L34 50L35 50L35 48L37 48L37 49L36 49L36 52L37 52L37 53L34 53L34 54L33 54L33 55L34 55L34 56L37 56L37 55L38 55L38 59L39 59L39 60L40 60L40 59L41 59L41 60L42 60L42 59L45 59L45 58L47 58L47 56L49 56L49 55L50 55L50 54L51 54L51 53L50 53L50 52L52 52L52 51L53 51L53 52L55 52L55 51L53 51L53 50L51 50L51 48L52 48L52 49L54 49L54 48L55 48L55 49L56 49L56 48L57 48L57 49L58 49L58 50L59 50L59 49L58 49L58 48L59 48L59 47L58 47L58 48L57 48L57 47L54 47L54 48L52 48L52 47L53 47L53 45L54 45L54 44L55 44L55 45L56 45L56 46L57 46L57 45L58 45L58 46L59 46L59 45L60 45L60 44L59 44L59 43L57 43L57 41L56 41L56 40L60 40L60 39L57 39L57 37L56 37L56 36L57 36L57 34L58 34L58 33L56 33L56 35L53 35L53 33L52 33L52 32L51 32L51 31L52 31L52 29L50 29L50 28L53 28L53 27L55 27L55 26L53 26L53 25L55 25L55 24L53 24L53 25L50 25L50 26L49 26L49 25L48 25L48 24L49 24L49 23L50 23L50 22L51 22L51 23L52 23L52 22L53 22L53 23L55 23L55 22L56 22L56 21L57 21L57 20L56 20L56 19L55 19L55 18L53 18L53 17L50 17L50 16L49 16L49 17L50 17L50 18L49 18L49 19L48 19L48 18L47 18L47 17L48 17L48 16L46 16L46 14L47 14L47 13L48 13L48 12L51 12L51 11L53 11L53 9L50 9L50 8L49 8L49 7L50 7L50 6L49 6L49 7L48 7L48 8L47 8L47 9L46 9L46 10L47 10L47 11L46 11L46 12L47 12L47 13L46 13L46 14L44 14L44 13L43 13L43 12L42 12L42 11L41 11L41 10L40 10L40 11L38 11L38 10L37 10L37 9L36 9L36 11L34 11L34 12L29 12L29 11L30 11L30 10L29 10L29 9L28 9L28 8L27 8L27 7L28 7L28 6L27 6L27 5L28 5L28 4L27 4L27 2L25 2L25 3L24 3L24 2L21 2L21 4L20 4L20 3L19 3L19 4L20 4L20 5L19 5L19 7L20 7L20 5L22 5L22 6L21 6L21 7L22 7L22 6L23 6L23 8L22 8L22 9L21 9L21 8L19 8L19 9L21 9L21 10L22 10L22 11L23 11L23 10L24 10L24 9L25 9L25 10L26 10L26 9L28 9L28 10L29 10L29 11L27 11L27 12L26 12L26 11L25 11L25 12L21 12L21 13L20 13L20 12L19 12L19 13L18 13L18 14L17 14L17 13L15 13L15 12L17 12L17 11L18 11L18 10L17 10L17 9L18 9L18 8L17 8L17 7L18 7L18 5L17 5L17 4L15 4L15 3L16 3L16 2L13 2L13 1ZM32 1L32 2L33 2L33 1ZM28 2L28 3L29 3L29 4L31 4L31 3L29 3L29 2ZM12 3L12 4L14 4L14 5L15 5L15 4L14 4L14 3ZM23 3L23 4L22 4L22 5L23 5L23 6L24 6L24 8L25 8L25 9L26 9L26 7L27 7L27 6L26 6L26 7L25 7L25 4L24 4L24 3ZM33 3L33 9L34 9L34 10L35 10L35 8L37 8L37 7L36 7L36 5L35 5L35 3ZM42 3L42 4L44 4L44 5L43 5L43 7L44 7L44 6L45 6L45 7L46 7L46 5L45 5L45 3ZM51 3L51 4L52 4L52 3ZM26 4L26 5L27 5L27 4ZM16 5L16 7L15 7L15 6L14 6L14 8L15 8L15 9L13 9L13 10L14 10L14 11L16 11L16 9L17 9L17 8L16 8L16 7L17 7L17 5ZM29 5L29 8L32 8L32 5ZM34 5L34 8L35 8L35 5ZM12 6L12 8L13 8L13 6ZM30 6L30 7L31 7L31 6ZM39 6L39 7L40 7L40 6ZM48 8L48 9L49 9L49 10L48 10L48 11L50 11L50 9L49 9L49 8ZM59 8L59 9L60 9L60 8ZM22 9L22 10L23 10L23 9ZM31 9L31 10L32 10L32 11L33 11L33 10L32 10L32 9ZM55 9L55 10L54 10L54 11L55 11L55 12L56 12L56 13L58 13L58 12L59 12L59 11L58 11L58 12L56 12L56 11L57 11L57 10L56 10L56 9ZM1 10L1 12L2 12L2 11L3 11L3 10ZM19 10L19 11L20 11L20 10ZM37 11L37 12L34 12L34 13L36 13L36 14L33 14L33 15L32 15L32 14L31 14L31 13L28 13L28 12L27 12L27 13L26 13L26 12L25 12L25 13L22 13L22 15L21 15L21 14L20 14L20 17L21 17L21 19L20 19L20 18L19 18L19 20L16 20L16 19L15 19L15 21L19 21L19 22L20 22L20 23L21 23L21 28L19 28L19 27L20 27L20 26L19 26L19 25L20 25L20 24L19 24L19 25L18 25L18 24L17 24L17 23L18 23L18 22L15 22L15 23L14 23L14 22L13 22L13 23L12 23L12 22L11 22L11 23L12 23L12 25L11 25L11 24L9 24L9 25L11 25L11 26L10 26L10 27L11 27L11 29L12 29L12 28L13 28L13 26L12 26L12 25L14 25L14 26L15 26L15 23L16 23L16 25L18 25L18 26L17 26L17 27L18 27L18 28L14 28L14 29L13 29L13 32L14 32L14 31L16 31L16 32L15 32L15 33L16 33L16 34L15 34L15 35L16 35L16 36L15 36L15 37L19 37L19 35L17 35L17 34L18 34L18 33L19 33L19 34L20 34L20 35L22 35L22 36L23 36L23 37L21 37L21 36L20 36L20 37L21 37L21 39L19 39L19 38L18 38L18 39L15 39L15 40L14 40L14 41L12 41L12 42L9 42L9 44L10 44L10 43L11 43L11 44L13 44L13 43L14 43L14 44L15 44L15 45L19 45L19 44L20 44L20 45L21 45L21 43L23 43L23 44L24 44L24 43L25 43L25 44L26 44L26 43L28 43L28 42L27 42L27 41L28 41L28 40L29 40L29 41L32 41L32 43L31 43L31 42L30 42L30 43L31 43L31 44L30 44L30 45L31 45L31 46L32 46L32 47L33 47L33 46L34 46L34 47L36 47L36 46L34 46L34 45L37 45L37 46L38 46L38 47L39 47L39 50L38 50L38 49L37 49L37 52L39 52L39 54L38 54L38 55L39 55L39 59L40 59L40 58L45 58L45 57L44 57L44 56L47 56L47 54L50 54L50 53L49 53L49 52L47 52L47 54L46 54L46 53L44 53L44 54L46 54L46 55L44 55L44 56L41 56L41 54L40 54L40 52L41 52L41 51L42 51L42 52L46 52L46 51L47 51L47 50L46 50L46 51L44 51L44 50L45 50L45 49L44 49L44 48L45 48L45 47L43 47L43 49L42 49L42 46L43 46L43 43L44 43L44 44L45 44L45 46L46 46L46 47L47 47L47 48L48 48L48 49L49 49L49 50L48 50L48 51L49 51L49 50L50 50L50 51L51 51L51 50L50 50L50 49L49 49L49 48L50 48L50 47L52 47L52 46L50 46L50 47L49 47L49 46L48 46L48 45L49 45L49 44L51 44L51 45L53 45L53 42L52 42L52 44L51 44L51 42L50 42L50 40L51 40L51 41L52 41L52 40L53 40L53 41L55 41L55 42L54 42L54 43L55 43L55 44L56 44L56 45L57 45L57 44L56 44L56 41L55 41L55 40L53 40L53 39L56 39L56 38L55 38L55 36L53 36L53 35L52 35L52 33L51 33L51 34L50 34L50 32L48 32L48 30L46 30L46 29L45 29L45 30L46 30L46 31L44 31L44 32L42 32L42 33L40 33L40 32L41 32L41 31L42 31L42 30L43 30L43 29L44 29L44 28L43 28L43 27L42 27L42 28L41 28L41 26L40 26L40 24L41 24L41 25L42 25L42 26L43 26L43 25L42 25L42 24L41 24L41 22L42 22L42 23L43 23L43 21L39 21L39 20L45 20L45 21L44 21L44 22L45 22L45 23L44 23L44 24L45 24L45 25L44 25L44 26L45 26L45 25L47 25L47 24L46 24L46 23L47 23L47 22L46 22L46 21L47 21L47 20L48 20L48 21L49 21L49 22L48 22L48 23L49 23L49 22L50 22L50 21L49 21L49 20L50 20L50 19L51 19L51 18L50 18L50 19L49 19L49 20L48 20L48 19L47 19L47 18L46 18L46 16L45 16L45 15L44 15L44 14L43 14L43 13L42 13L42 14L41 14L41 13L40 13L40 12L41 12L41 11L40 11L40 12L39 12L39 14L38 14L38 13L37 13L37 12L38 12L38 11ZM13 12L13 13L14 13L14 14L15 14L15 13L14 13L14 12ZM6 13L6 14L7 14L7 13ZM25 13L25 14L24 14L24 15L23 15L23 17L22 17L22 16L21 16L21 17L22 17L22 19L21 19L21 21L20 21L20 20L19 20L19 21L20 21L20 22L22 22L22 21L25 21L25 22L24 22L24 24L22 24L22 25L25 25L25 23L26 23L26 25L27 25L27 26L28 26L28 25L29 25L29 26L30 26L30 25L33 25L33 24L32 24L32 23L33 23L33 22L36 22L36 23L34 23L34 24L38 24L38 26L37 26L37 25L34 25L34 26L32 26L32 27L31 27L31 28L32 28L32 27L33 27L33 29L34 29L34 30L35 30L35 31L34 31L34 32L37 32L37 33L38 33L38 34L39 34L39 33L38 33L38 32L40 32L40 31L41 31L41 30L42 30L42 29L43 29L43 28L42 28L42 29L41 29L41 28L40 28L40 26L39 26L39 24L38 24L38 23L37 23L37 22L36 22L36 21L35 21L35 20L37 20L37 21L38 21L38 22L39 22L39 23L40 23L40 22L39 22L39 21L38 21L38 20L39 20L39 19L38 19L38 18L39 18L39 16L40 16L40 17L41 17L41 16L42 16L42 17L43 17L43 16L44 16L44 18L41 18L41 19L44 19L44 18L45 18L45 16L44 16L44 15L43 15L43 14L42 14L42 15L41 15L41 14L40 14L40 15L39 15L39 16L37 16L37 15L38 15L38 14L36 14L36 16L37 16L37 19L34 19L34 18L35 18L35 15L34 15L34 16L32 16L32 15L31 15L31 16L29 16L29 15L28 15L28 16L29 16L29 17L28 17L28 18L29 18L29 17L30 17L30 18L32 18L32 19L31 19L31 20L29 20L29 19L28 19L28 21L27 21L27 20L26 20L26 19L27 19L27 18L26 18L26 17L27 17L27 15L25 15L25 14L26 14L26 13ZM27 13L27 14L28 14L28 13ZM12 14L12 15L13 15L13 16L14 16L14 15L13 15L13 14ZM18 14L18 15L19 15L19 14ZM15 15L15 16L16 16L16 15ZM24 15L24 17L23 17L23 18L24 18L24 17L26 17L26 16L25 16L25 15ZM40 15L40 16L41 16L41 15ZM42 15L42 16L43 16L43 15ZM54 15L54 16L55 16L55 15ZM56 15L56 16L57 16L57 17L58 17L58 18L59 18L59 19L61 19L61 18L59 18L59 16L57 16L57 15ZM17 16L17 18L18 18L18 17L19 17L19 16ZM60 16L60 17L61 17L61 16ZM12 17L12 18L14 18L14 17ZM15 17L15 18L16 18L16 17ZM32 17L32 18L33 18L33 17ZM52 18L52 20L51 20L51 22L52 22L52 21L53 21L53 22L55 22L55 21L56 21L56 20L53 20L53 18ZM13 19L13 20L14 20L14 19ZM22 19L22 20L24 20L24 19ZM32 19L32 20L33 20L33 21L32 21L32 22L31 22L31 21L28 21L28 22L27 22L27 21L26 21L26 20L25 20L25 21L26 21L26 23L27 23L27 25L28 25L28 23L29 23L29 22L30 22L30 24L31 24L31 23L32 23L32 22L33 22L33 21L34 21L34 20L33 20L33 19ZM6 20L6 21L7 21L7 20ZM60 20L60 21L61 21L61 20ZM57 23L57 24L56 24L56 27L57 27L57 25L58 25L58 24L59 24L59 23ZM22 26L22 27L24 27L24 28L21 28L21 29L15 29L15 30L19 30L19 32L22 32L22 33L20 33L20 34L22 34L22 35L23 35L23 34L24 34L24 31L26 31L26 33L25 33L25 34L26 34L26 33L27 33L27 34L28 34L28 35L24 35L24 36L26 36L26 37L25 37L25 39L27 39L27 38L29 38L29 40L33 40L33 39L32 39L32 36L33 36L33 37L34 37L34 38L35 38L35 40L37 40L37 39L38 39L38 42L39 42L39 39L38 39L38 38L39 38L39 37L41 37L41 38L40 38L40 39L41 39L41 40L40 40L40 41L43 41L43 40L42 40L42 39L46 39L46 38L49 38L49 37L48 37L48 36L50 36L50 38L51 38L51 40L52 40L52 38L54 38L54 37L52 37L52 38L51 38L51 36L52 36L52 35L49 35L49 33L48 33L48 32L47 32L47 31L46 31L46 32L47 32L47 33L45 33L45 32L44 32L44 35L46 35L46 36L47 36L47 37L46 37L46 38L42 38L42 37L41 37L41 36L42 36L42 35L43 35L43 34L40 34L40 35L41 35L41 36L38 36L38 37L37 37L37 39L36 39L36 37L35 37L35 36L37 36L37 35L34 35L34 34L36 34L36 33L27 33L27 31L26 31L26 29L28 29L28 28L29 28L29 27L27 27L27 28L26 28L26 29L25 29L25 30L22 30L22 31L20 31L20 30L21 30L21 29L24 29L24 28L25 28L25 27L24 27L24 26ZM34 26L34 27L36 27L36 26ZM38 26L38 28L35 28L35 30L36 30L36 31L37 31L37 30L38 30L38 31L40 31L40 30L38 30L38 28L39 28L39 29L40 29L40 28L39 28L39 26ZM47 26L47 27L48 27L48 28L47 28L47 29L49 29L49 27L48 27L48 26ZM50 26L50 27L52 27L52 26ZM6 27L6 28L7 28L7 27ZM58 27L58 28L59 28L59 27ZM5 29L5 32L8 32L8 29ZM29 29L29 32L32 32L32 29ZM53 29L53 32L56 32L56 29ZM3 30L3 33L4 33L4 30ZM6 30L6 31L7 31L7 30ZM30 30L30 31L31 31L31 30ZM50 30L50 31L51 31L51 30ZM54 30L54 31L55 31L55 30ZM60 30L60 31L61 31L61 30ZM10 31L10 32L11 32L11 31ZM17 31L17 32L16 32L16 33L17 33L17 32L18 32L18 31ZM60 32L60 33L61 33L61 32ZM54 33L54 34L55 34L55 33ZM6 34L6 35L7 35L7 34ZM12 34L12 35L13 35L13 34ZM29 34L29 35L30 35L30 34ZM32 34L32 35L33 35L33 34ZM46 34L46 35L47 35L47 34ZM27 36L27 37L26 37L26 38L27 38L27 37L28 37L28 36ZM29 36L29 37L31 37L31 36ZM43 36L43 37L45 37L45 36ZM11 37L11 38L12 38L12 39L14 39L14 38L12 38L12 37ZM22 38L22 39L23 39L23 38ZM30 38L30 39L31 39L31 38ZM47 39L47 40L50 40L50 39ZM17 40L17 41L14 41L14 43L15 43L15 42L17 42L17 43L20 43L20 42L17 42L17 41L18 41L18 40ZM19 40L19 41L25 41L25 42L26 42L26 41L27 41L27 40ZM44 40L44 43L45 43L45 42L47 42L47 41L45 41L45 40ZM34 41L34 42L35 42L35 41ZM48 41L48 43L46 43L46 46L47 46L47 47L48 47L48 48L49 48L49 47L48 47L48 46L47 46L47 44L48 44L48 43L50 43L50 42L49 42L49 41ZM23 42L23 43L24 43L24 42ZM40 42L40 43L39 43L39 44L40 44L40 45L41 45L41 46L40 46L40 47L41 47L41 46L42 46L42 44L40 44L40 43L43 43L43 42ZM3 43L3 44L4 44L4 45L3 45L3 46L1 46L1 47L3 47L3 46L4 46L4 47L5 47L5 49L6 49L6 48L7 48L7 47L6 47L6 46L7 46L7 45L5 45L5 44L4 44L4 43ZM32 43L32 45L33 45L33 43ZM34 43L34 44L37 44L37 43ZM1 44L1 45L2 45L2 44ZM27 44L27 45L26 45L26 46L27 46L27 45L28 45L28 44ZM58 44L58 45L59 45L59 44ZM4 45L4 46L5 46L5 45ZM24 45L24 46L25 46L25 45ZM38 45L38 46L39 46L39 45ZM15 46L15 47L16 47L16 48L17 48L17 49L19 49L19 48L20 48L20 49L21 49L21 50L22 50L22 49L21 49L21 48L20 48L20 46L18 46L18 47L19 47L19 48L17 48L17 46ZM26 47L26 48L25 48L25 49L26 49L26 48L27 48L27 47ZM3 48L3 49L4 49L4 48ZM40 48L40 50L39 50L39 51L41 51L41 48ZM15 49L15 50L16 50L16 49ZM42 50L42 51L43 51L43 50ZM3 51L3 52L4 52L4 51ZM18 51L18 52L19 52L19 51ZM25 51L25 53L26 53L26 54L27 54L27 53L26 53L26 51ZM28 51L28 52L29 52L29 51ZM31 51L31 52L33 52L33 51ZM34 51L34 52L35 52L35 51ZM6 52L6 53L7 53L7 52ZM11 52L11 53L10 53L10 54L12 54L12 52ZM29 53L29 56L32 56L32 53ZM42 53L42 54L43 54L43 53ZM53 53L53 56L56 56L56 53ZM21 54L21 55L23 55L23 54ZM30 54L30 55L31 55L31 54ZM34 54L34 55L35 55L35 54ZM36 54L36 55L37 55L37 54ZM39 54L39 55L40 55L40 54ZM54 54L54 55L55 55L55 54ZM9 56L9 57L10 57L10 58L9 58L9 59L10 59L10 58L11 58L11 57L10 57L10 56ZM40 56L40 57L41 57L41 56ZM31 57L31 58L29 58L29 59L33 59L33 58L34 58L34 59L35 59L35 60L37 60L37 59L36 59L36 58L37 58L37 57L33 57L33 58L32 58L32 57ZM60 57L60 60L57 60L57 59L56 59L56 61L61 61L61 57ZM52 58L52 59L53 59L53 58ZM48 59L48 60L47 60L47 61L49 61L49 59ZM11 60L11 61L13 61L13 60ZM0 0L0 7L7 7L7 0ZM1 1L1 6L6 6L6 1ZM2 2L2 5L5 5L5 2ZM54 0L54 7L61 7L61 0ZM55 1L55 6L60 6L60 1ZM56 2L56 5L59 5L59 2ZM0 54L0 61L7 61L7 54ZM1 55L1 60L6 60L6 55ZM2 56L2 59L5 59L5 56Z" fill="#000000"/></g></g></svg>
