<?xml version="1.0" encoding="UTF-8"?>
<svg xmlns="http://www.w3.org/2000/svg" version="1.1" width="300" height="300" viewBox="0 0 300 300"><rect x="0" y="0" width="300" height="300" fill="#ffffff"/><g transform="scale(4.615)"><g transform="translate(0,0)"><path fill-rule="evenodd" d="M9 0L9 1L8 1L8 2L9 2L9 3L8 3L8 4L9 4L9 5L8 5L8 7L9 7L9 6L10 6L10 7L11 7L11 6L12 6L12 7L13 7L13 6L14 6L14 7L15 7L15 5L16 5L16 7L17 7L17 6L18 6L18 8L15 8L15 9L14 9L14 8L12 8L12 9L14 9L14 13L15 13L15 14L14 14L14 15L16 15L16 17L15 17L15 16L14 16L14 17L13 17L13 13L12 13L12 14L11 14L11 15L10 15L10 17L11 17L11 18L12 18L12 17L13 17L13 18L14 18L14 19L15 19L15 20L14 20L14 21L12 21L12 20L13 20L13 19L11 19L11 20L10 20L10 21L7 21L7 20L8 20L8 18L9 18L9 17L8 17L8 16L5 16L5 14L6 14L6 15L7 15L7 14L8 14L8 15L9 15L9 14L8 14L8 13L10 13L10 12L11 12L11 11L13 11L13 10L11 10L11 8L6 8L6 9L8 9L8 11L10 11L10 12L8 12L8 13L7 13L7 12L6 12L6 11L7 11L7 10L6 10L6 11L5 11L5 14L4 14L4 15L3 15L3 17L2 17L2 15L0 15L0 16L1 16L1 17L0 17L0 19L1 19L1 20L0 20L0 22L1 22L1 21L2 21L2 19L3 19L3 17L4 17L4 16L5 16L5 18L6 18L6 19L5 19L5 20L3 20L3 23L1 23L1 24L0 24L0 25L1 25L1 24L4 24L4 25L3 25L3 26L2 26L2 27L1 27L1 26L0 26L0 27L1 27L1 29L2 29L2 30L4 30L4 31L3 31L3 33L1 33L1 35L2 35L2 36L0 36L0 37L1 37L1 38L0 38L0 40L1 40L1 41L4 41L4 42L3 42L3 43L2 43L2 42L0 42L0 43L2 43L2 44L1 44L1 45L0 45L0 46L2 46L2 47L3 47L3 48L4 48L4 50L6 50L6 51L7 51L7 52L5 52L5 51L4 51L4 53L3 53L3 54L2 54L2 52L3 52L3 49L2 49L2 48L0 48L0 51L1 51L1 54L2 54L2 55L3 55L3 56L1 56L1 55L0 55L0 56L1 56L1 57L3 57L3 56L4 56L4 57L5 57L5 56L4 56L4 54L5 54L5 55L7 55L7 56L6 56L6 57L8 57L8 59L9 59L9 57L10 57L10 58L11 58L11 59L10 59L10 61L9 61L9 60L8 60L8 65L12 65L12 62L14 62L14 60L15 60L15 61L16 61L16 62L15 62L15 63L13 63L13 64L14 64L14 65L15 65L15 63L16 63L16 65L21 65L21 62L24 62L24 61L25 61L25 62L27 62L27 63L26 63L26 64L27 64L27 65L31 65L31 64L32 64L32 63L30 63L30 62L29 62L29 61L32 61L32 62L34 62L34 61L35 61L35 63L36 63L36 64L35 64L35 65L36 65L36 64L38 64L38 65L39 65L39 64L41 64L41 63L43 63L43 61L44 61L44 64L45 64L45 65L46 65L46 64L48 64L48 65L50 65L50 64L51 64L51 65L52 65L52 64L54 64L54 65L56 65L56 61L58 61L58 63L59 63L59 64L57 64L57 65L59 65L59 64L60 64L60 65L61 65L61 64L60 64L60 63L61 63L61 62L59 62L59 61L61 61L61 58L65 58L65 57L64 57L64 56L65 56L65 55L63 55L63 56L62 56L62 54L61 54L61 53L63 53L63 54L65 54L65 53L64 53L64 52L65 52L65 51L64 51L64 50L65 50L65 49L64 49L64 48L62 48L62 49L59 49L59 50L61 50L61 51L60 51L60 52L59 52L59 51L54 51L54 50L55 50L55 49L52 49L52 48L53 48L53 47L52 47L52 48L50 48L50 49L51 49L51 50L50 50L50 51L49 51L49 48L48 48L48 45L49 45L49 44L47 44L47 43L48 43L48 42L50 42L50 43L52 43L52 44L50 44L50 45L51 45L51 46L50 46L50 47L51 47L51 46L52 46L52 44L54 44L54 46L55 46L55 47L54 47L54 48L60 48L60 47L61 47L61 45L60 45L60 47L56 47L56 46L58 46L58 45L57 45L57 43L56 43L56 42L57 42L57 40L59 40L59 44L61 44L61 43L62 43L62 42L61 42L61 41L60 41L60 40L62 40L62 41L63 41L63 42L65 42L65 40L62 40L62 39L60 39L60 38L65 38L65 37L64 37L64 36L65 36L65 35L64 35L64 34L65 34L65 33L64 33L64 32L65 32L65 31L64 31L64 32L61 32L61 29L63 29L63 28L59 28L59 29L60 29L60 30L56 30L56 29L57 29L57 28L58 28L58 27L59 27L59 26L58 26L58 27L57 27L57 28L56 28L56 27L54 27L54 26L56 26L56 25L57 25L57 24L58 24L58 23L59 23L59 22L58 22L58 23L57 23L57 22L56 22L56 20L53 20L53 19L52 19L52 18L55 18L55 17L57 17L57 18L56 18L56 19L59 19L59 21L63 21L63 24L62 24L62 22L60 22L60 23L61 23L61 24L59 24L59 25L61 25L61 24L62 24L62 27L63 27L63 26L65 26L65 25L63 25L63 24L64 24L64 22L65 22L65 21L64 21L64 18L65 18L65 15L64 15L64 14L65 14L65 13L63 13L63 12L56 12L56 9L58 9L58 8L57 8L57 6L56 6L56 7L55 7L55 5L54 5L54 4L56 4L56 5L57 5L57 4L56 4L56 3L57 3L57 1L56 1L56 0L55 0L55 1L56 1L56 3L55 3L55 2L54 2L54 0L51 0L51 1L49 1L49 0L47 0L47 1L46 1L46 0L44 0L44 1L46 1L46 2L47 2L47 1L48 1L48 2L51 2L51 3L50 3L50 4L49 4L49 3L47 3L47 5L45 5L45 4L44 4L44 3L45 3L45 2L44 2L44 3L43 3L43 2L41 2L41 1L43 1L43 0L41 0L41 1L40 1L40 0L39 0L39 1L38 1L38 0L37 0L37 2L39 2L39 3L38 3L38 4L37 4L37 3L36 3L36 5L35 5L35 3L34 3L34 1L35 1L35 2L36 2L36 1L35 1L35 0L34 0L34 1L33 1L33 0L32 0L32 1L33 1L33 3L31 3L31 2L30 2L30 3L31 3L31 4L30 4L30 7L29 7L29 6L28 6L28 7L29 7L29 8L27 8L27 9L26 9L26 7L27 7L27 6L26 6L26 5L25 5L25 4L29 4L29 3L28 3L28 2L29 2L29 1L31 1L31 0L29 0L29 1L28 1L28 0L24 0L24 1L25 1L25 2L24 2L24 4L23 4L23 0L21 0L21 1L22 1L22 2L21 2L21 3L20 3L20 2L19 2L19 3L20 3L20 4L18 4L18 3L15 3L15 4L13 4L13 3L12 3L12 2L15 2L15 1L16 1L16 2L18 2L18 1L17 1L17 0L13 0L13 1L12 1L12 2L10 2L10 0ZM19 0L19 1L20 1L20 0ZM39 1L39 2L40 2L40 1ZM52 1L52 2L53 2L53 3L51 3L51 4L50 4L50 5L47 5L47 7L46 7L46 6L45 6L45 5L44 5L44 4L43 4L43 5L42 5L42 3L39 3L39 4L38 4L38 5L36 5L36 6L35 6L35 9L33 9L33 10L36 10L36 12L38 12L38 14L37 14L37 13L33 13L33 12L32 12L32 13L31 13L31 12L30 12L30 13L29 13L29 11L28 11L28 10L30 10L30 9L27 9L27 11L25 11L25 12L26 12L26 13L25 13L25 16L24 16L24 15L22 15L22 14L21 14L21 12L22 12L22 13L23 13L23 14L24 14L24 13L23 13L23 12L24 12L24 11L23 11L23 10L21 10L21 9L23 9L23 8L24 8L24 9L25 9L25 10L26 10L26 9L25 9L25 8L24 8L24 6L25 6L25 7L26 7L26 6L25 6L25 5L23 5L23 4L22 4L22 3L21 3L21 4L20 4L20 6L19 6L19 8L21 8L21 9L20 9L20 11L19 11L19 9L17 9L17 10L16 10L16 9L15 9L15 10L16 10L16 11L15 11L15 13L16 13L16 11L17 11L17 12L20 12L20 13L17 13L17 14L20 14L20 15L19 15L19 17L18 17L18 18L17 18L17 19L16 19L16 20L15 20L15 21L14 21L14 22L15 22L15 23L16 23L16 24L17 24L17 25L16 25L16 26L19 26L19 27L21 27L21 25L25 25L25 26L22 26L22 27L24 27L24 28L19 28L19 29L18 29L18 30L17 30L17 32L18 32L18 30L19 30L19 31L20 31L20 30L19 30L19 29L21 29L21 30L22 30L22 31L24 31L24 33L23 33L23 32L21 32L21 33L20 33L20 32L19 32L19 33L16 33L16 31L15 31L15 30L16 30L16 29L17 29L17 28L16 28L16 29L15 29L15 28L14 28L14 29L12 29L12 28L11 28L11 27L13 27L13 26L11 26L11 24L12 24L12 23L11 23L11 22L12 22L12 21L11 21L11 22L10 22L10 23L4 23L4 24L7 24L7 25L6 25L6 26L3 26L3 27L2 27L2 29L4 29L4 30L5 30L5 29L6 29L6 30L8 30L8 28L9 28L9 29L10 29L10 30L11 30L11 29L12 29L12 30L13 30L13 33L12 33L12 35L11 35L11 31L10 31L10 33L9 33L9 35L8 35L8 36L9 36L9 37L8 37L8 38L7 38L7 37L6 37L6 36L7 36L7 35L5 35L5 36L3 36L3 38L2 38L2 39L3 39L3 40L4 40L4 39L5 39L5 37L6 37L6 38L7 38L7 39L6 39L6 40L7 40L7 41L6 41L6 42L8 42L8 44L7 44L7 43L6 43L6 44L7 44L7 45L6 45L6 46L7 46L7 47L5 47L5 49L6 49L6 50L8 50L8 51L9 51L9 56L10 56L10 57L11 57L11 56L12 56L12 57L13 57L13 58L12 58L12 59L11 59L11 61L10 61L10 62L9 62L9 64L10 64L10 62L11 62L11 61L12 61L12 60L14 60L14 59L15 59L15 58L17 58L17 59L16 59L16 61L18 61L18 62L17 62L17 64L19 64L19 63L20 63L20 62L19 62L19 61L21 61L21 60L19 60L19 59L20 59L20 58L21 58L21 59L22 59L22 61L24 61L24 60L25 60L25 61L27 61L27 62L28 62L28 61L29 61L29 60L30 60L30 58L29 58L29 57L30 57L30 55L29 55L29 54L31 54L31 53L32 53L32 55L31 55L31 56L33 56L33 55L35 55L35 56L37 56L37 55L38 55L38 58L36 58L36 57L35 57L35 58L36 58L36 59L35 59L35 61L36 61L36 60L37 60L37 61L38 61L38 62L36 62L36 63L38 63L38 62L39 62L39 60L38 60L38 58L40 58L40 59L41 59L41 60L40 60L40 62L41 62L41 61L43 61L43 60L42 60L42 59L43 59L43 58L42 58L42 59L41 59L41 58L40 58L40 57L41 57L41 56L43 56L43 55L45 55L45 56L44 56L44 59L45 59L45 58L47 58L47 56L49 56L49 57L50 57L50 58L51 58L51 59L46 59L46 60L44 60L44 61L45 61L45 64L46 64L46 62L47 62L47 63L48 63L48 64L49 64L49 63L50 63L50 62L51 62L51 61L50 61L50 60L52 60L52 61L53 61L53 62L54 62L54 63L55 63L55 62L54 62L54 61L55 61L55 60L56 60L56 58L54 58L54 57L56 57L56 56L54 56L54 55L59 55L59 56L61 56L61 57L62 57L62 56L61 56L61 55L59 55L59 52L58 52L58 53L57 53L57 54L54 54L54 53L56 53L56 52L54 52L54 51L53 51L53 50L52 50L52 51L53 51L53 52L52 52L52 53L53 53L53 54L54 54L54 55L53 55L53 56L52 56L52 58L51 58L51 57L50 57L50 56L49 56L49 55L50 55L50 54L51 54L51 53L50 53L50 54L48 54L48 52L49 52L49 51L48 51L48 50L47 50L47 49L48 49L48 48L46 48L46 47L45 47L45 48L44 48L44 49L43 49L43 48L42 48L42 47L44 47L44 46L42 46L42 45L45 45L45 46L47 46L47 45L46 45L46 43L45 43L45 42L48 42L48 41L47 41L47 40L49 40L49 41L50 41L50 42L51 42L51 41L53 41L53 42L52 42L52 43L55 43L55 42L54 42L54 41L53 41L53 39L59 39L59 40L60 40L60 39L59 39L59 38L60 38L60 37L62 37L62 36L63 36L63 35L62 35L62 34L64 34L64 33L61 33L61 35L60 35L60 36L58 36L58 35L56 35L56 33L55 33L55 34L54 34L54 35L56 35L56 36L55 36L55 38L54 38L54 36L53 36L53 35L52 35L52 36L51 36L51 37L50 37L50 39L48 39L48 38L49 38L49 37L47 37L47 36L49 36L49 35L48 35L48 34L47 34L47 33L48 33L48 32L49 32L49 34L51 34L51 31L53 31L53 32L52 32L52 33L53 33L53 32L54 32L54 31L55 31L55 32L56 32L56 31L55 31L55 30L54 30L54 31L53 31L53 30L52 30L52 29L55 29L55 28L54 28L54 27L53 27L53 26L54 26L54 25L56 25L56 24L54 24L54 23L56 23L56 22L53 22L53 20L51 20L51 21L50 21L50 20L49 20L49 18L51 18L51 16L52 16L52 17L54 17L54 15L55 15L55 16L58 16L58 18L59 18L59 19L60 19L60 20L61 20L61 19L62 19L62 20L63 20L63 19L62 19L62 18L64 18L64 17L60 17L60 16L64 16L64 15L62 15L62 13L61 13L61 14L59 14L59 13L56 13L56 12L55 12L55 13L56 13L56 14L54 14L54 15L53 15L53 16L52 16L52 14L53 14L53 12L54 12L54 11L55 11L55 10L54 10L54 9L55 9L55 7L54 7L54 5L53 5L53 3L54 3L54 2L53 2L53 1ZM25 2L25 3L26 3L26 2ZM11 3L11 5L10 5L10 6L11 6L11 5L12 5L12 6L13 6L13 4L12 4L12 3ZM33 3L33 4L34 4L34 3ZM17 4L17 5L18 5L18 4ZM21 4L21 5L22 5L22 4ZM31 5L31 8L34 8L34 5ZM38 5L38 7L39 7L39 8L38 8L38 9L40 9L40 8L41 8L41 6L40 6L40 7L39 7L39 5ZM43 5L43 6L42 6L42 8L43 8L43 9L41 9L41 10L43 10L43 11L40 11L40 12L41 12L41 13L42 13L42 14L44 14L44 15L43 15L43 16L41 16L41 15L40 15L40 13L39 13L39 14L38 14L38 15L37 15L37 14L36 14L36 15L35 15L35 14L34 14L34 15L32 15L32 16L33 16L33 17L35 17L35 18L33 18L33 19L32 19L32 17L31 17L31 13L30 13L30 14L29 14L29 15L30 15L30 16L28 16L28 15L27 15L27 14L28 14L28 13L26 13L26 16L27 16L27 17L26 17L26 18L27 18L27 19L28 19L28 17L29 17L29 18L30 18L30 17L31 17L31 19L29 19L29 20L27 20L27 21L29 21L29 20L31 20L31 19L32 19L32 20L34 20L34 19L35 19L35 18L36 18L36 19L37 19L37 20L36 20L36 21L37 21L37 22L36 22L36 23L37 23L37 22L38 22L38 25L37 25L37 24L36 24L36 25L35 25L35 26L34 26L34 27L31 27L31 26L32 26L32 25L30 25L30 24L32 24L32 23L33 23L33 24L34 24L34 23L33 23L33 22L34 22L34 21L33 21L33 22L31 22L31 23L29 23L29 22L27 22L27 23L24 23L24 22L26 22L26 21L24 21L24 20L26 20L26 19L25 19L25 17L24 17L24 20L23 20L23 21L24 21L24 22L20 22L20 21L22 21L22 20L20 20L20 17L21 17L21 19L22 19L22 18L23 18L23 17L22 17L22 15L21 15L21 16L20 16L20 17L19 17L19 18L18 18L18 19L17 19L17 20L18 20L18 21L17 21L17 24L18 24L18 25L19 25L19 26L20 26L20 25L21 25L21 24L20 24L20 25L19 25L19 22L20 22L20 23L24 23L24 24L25 24L25 25L26 25L26 26L25 26L25 27L27 27L27 29L26 29L26 28L24 28L24 29L22 29L22 30L24 30L24 29L26 29L26 30L27 30L27 31L26 31L26 32L27 32L27 31L28 31L28 33L29 33L29 34L27 34L27 33L24 33L24 36L25 36L25 37L23 37L23 33L21 33L21 34L20 34L20 33L19 33L19 34L20 34L20 35L21 35L21 36L19 36L19 37L18 37L18 36L16 36L16 35L18 35L18 34L16 34L16 33L15 33L15 32L14 32L14 33L13 33L13 35L12 35L12 36L11 36L11 35L10 35L10 36L11 36L11 37L10 37L10 38L12 38L12 40L11 40L11 41L10 41L10 42L9 42L9 41L8 41L8 42L9 42L9 43L11 43L11 41L12 41L12 40L13 40L13 42L14 42L14 43L15 43L15 44L16 44L16 43L18 43L18 45L20 45L20 44L19 44L19 43L20 43L20 41L21 41L21 42L22 42L22 43L23 43L23 42L25 42L25 43L24 43L24 44L23 44L23 45L22 45L22 44L21 44L21 48L19 48L19 47L20 47L20 46L18 46L18 47L17 47L17 48L16 48L16 47L15 47L15 46L16 46L16 45L14 45L14 44L13 44L13 43L12 43L12 44L11 44L11 45L12 45L12 47L11 47L11 46L10 46L10 45L9 45L9 46L8 46L8 48L6 48L6 49L8 49L8 48L9 48L9 47L10 47L10 49L11 49L11 50L9 50L9 51L10 51L10 52L12 52L12 53L11 53L11 54L10 54L10 55L11 55L11 54L12 54L12 56L13 56L13 57L15 57L15 56L16 56L16 57L17 57L17 54L20 54L20 55L21 55L21 56L20 56L20 57L19 57L19 56L18 56L18 57L19 57L19 58L18 58L18 59L19 59L19 58L20 58L20 57L21 57L21 58L22 58L22 59L23 59L23 60L24 60L24 59L25 59L25 57L24 57L24 59L23 59L23 57L21 57L21 56L23 56L23 54L22 54L22 55L21 55L21 54L20 54L20 53L22 53L22 52L20 52L20 49L21 49L21 51L22 51L22 50L23 50L23 49L24 49L24 50L27 50L27 49L29 49L29 48L28 48L28 47L27 47L27 49L24 49L24 48L26 48L26 47L25 47L25 44L26 44L26 42L27 42L27 44L29 44L29 43L30 43L30 44L31 44L31 42L28 42L28 41L31 41L31 39L33 39L33 40L32 40L32 41L33 41L33 42L32 42L32 43L33 43L33 45L31 45L31 46L32 46L32 47L30 47L30 46L29 46L29 47L30 47L30 49L31 49L31 50L30 50L30 51L29 51L29 52L27 52L27 53L29 53L29 52L30 52L30 51L31 51L31 50L32 50L32 51L33 51L33 52L32 52L32 53L33 53L33 52L34 52L34 53L35 53L35 55L36 55L36 53L37 53L37 54L38 54L38 55L40 55L40 56L41 56L41 55L42 55L42 54L43 54L43 53L44 53L44 54L46 54L46 56L47 56L47 55L48 55L48 54L46 54L46 53L47 53L47 52L46 52L46 51L47 51L47 50L46 50L46 49L44 49L44 50L45 50L45 51L42 51L42 50L43 50L43 49L42 49L42 50L41 50L41 49L39 49L39 50L40 50L40 51L38 51L38 50L37 50L37 49L38 49L38 48L37 48L37 46L38 46L38 47L39 47L39 46L40 46L40 48L41 48L41 46L40 46L40 44L41 44L41 43L39 43L39 42L40 42L40 41L39 41L39 39L40 39L40 40L41 40L41 42L43 42L43 41L44 41L44 42L45 42L45 41L44 41L44 40L45 40L45 39L47 39L47 38L46 38L46 36L45 36L45 35L44 35L44 34L43 34L43 33L44 33L44 32L45 32L45 33L47 33L47 32L46 32L46 31L44 31L44 32L43 32L43 31L42 31L42 30L43 30L43 29L44 29L44 30L45 30L45 29L44 29L44 28L45 28L45 25L47 25L47 23L48 23L48 22L50 22L50 23L51 23L51 24L50 24L50 25L51 25L51 24L52 24L52 23L51 23L51 22L52 22L52 21L51 21L51 22L50 22L50 21L49 21L49 20L46 20L46 19L48 19L48 18L49 18L49 16L48 16L48 14L46 14L46 15L47 15L47 16L46 16L46 17L45 17L45 19L42 19L42 20L43 20L43 21L42 21L42 22L41 22L41 21L40 21L40 22L41 22L41 23L39 23L39 22L38 22L38 19L37 19L37 17L38 17L38 16L41 16L41 18L40 18L40 17L39 17L39 18L40 18L40 20L41 20L41 18L44 18L44 16L45 16L45 14L44 14L44 12L45 12L45 11L48 11L48 10L49 10L49 9L50 9L50 8L52 8L52 7L53 7L53 6L52 6L52 5L50 5L50 8L48 8L48 10L45 10L45 9L47 9L47 8L46 8L46 7L45 7L45 6L44 6L44 5ZM20 6L20 7L21 7L21 8L22 8L22 7L23 7L23 6L22 6L22 7L21 7L21 6ZM32 6L32 7L33 7L33 6ZM36 6L36 7L37 7L37 6ZM43 6L43 7L44 7L44 6ZM48 6L48 7L49 7L49 6ZM51 6L51 7L52 7L52 6ZM0 8L0 9L4 9L4 10L2 10L2 14L3 14L3 13L4 13L4 12L3 12L3 11L4 11L4 10L5 10L5 8ZM36 8L36 10L37 10L37 11L38 11L38 12L39 12L39 10L37 10L37 8ZM44 8L44 9L45 9L45 8ZM59 8L59 9L60 9L60 10L57 10L57 11L61 11L61 9L62 9L62 8L61 8L61 9L60 9L60 8ZM63 8L63 10L62 10L62 11L63 11L63 10L65 10L65 9L64 9L64 8ZM31 9L31 10L32 10L32 9ZM51 9L51 10L50 10L50 12L47 12L47 13L49 13L49 14L50 14L50 15L51 15L51 14L52 14L52 12L53 12L53 9ZM10 10L10 11L11 11L11 10ZM51 10L51 11L52 11L52 10ZM0 11L0 14L1 14L1 11ZM20 11L20 12L21 12L21 11ZM22 11L22 12L23 12L23 11ZM27 11L27 12L28 12L28 11ZM34 11L34 12L35 12L35 11ZM43 11L43 12L44 12L44 11ZM64 11L64 12L65 12L65 11ZM6 13L6 14L7 14L7 13ZM32 13L32 14L33 14L33 13ZM50 13L50 14L51 14L51 13ZM57 14L57 15L58 15L58 16L59 16L59 14ZM34 15L34 16L35 16L35 17L36 17L36 16L35 16L35 15ZM11 16L11 17L12 17L12 16ZM47 16L47 17L46 17L46 18L47 18L47 17L48 17L48 16ZM6 17L6 18L8 18L8 17ZM14 17L14 18L15 18L15 17ZM60 18L60 19L61 19L61 18ZM6 19L6 20L5 20L5 21L6 21L6 22L7 22L7 21L6 21L6 20L7 20L7 19ZM19 20L19 21L20 21L20 20ZM44 20L44 22L42 22L42 23L44 23L44 25L45 25L45 24L46 24L46 22L48 22L48 21L46 21L46 20ZM15 21L15 22L16 22L16 21ZM44 22L44 23L45 23L45 22ZM28 23L28 24L26 24L26 25L27 25L27 26L29 26L29 25L28 25L28 24L29 24L29 23ZM8 24L8 25L9 25L9 26L6 26L6 27L9 27L9 26L10 26L10 24ZM13 24L13 25L14 25L14 27L15 27L15 24ZM39 24L39 25L38 25L38 26L36 26L36 27L34 27L34 29L33 29L33 28L32 28L32 30L35 30L35 32L36 32L36 33L35 33L35 34L36 34L36 35L35 35L35 36L33 36L33 35L31 35L31 36L30 36L30 37L25 37L25 38L23 38L23 37L22 37L22 36L21 36L21 37L20 37L20 38L19 38L19 39L18 39L18 37L16 37L16 38L15 38L15 39L13 39L13 40L14 40L14 42L15 42L15 43L16 43L16 42L17 42L17 41L18 41L18 42L19 42L19 41L20 41L20 40L21 40L21 41L25 41L25 42L26 42L26 41L27 41L27 40L24 40L24 39L26 39L26 38L27 38L27 39L29 39L29 38L30 38L30 39L31 39L31 37L32 37L32 38L33 38L33 39L36 39L36 40L37 40L37 41L38 41L38 42L39 42L39 41L38 41L38 40L37 40L37 39L38 39L38 38L42 38L42 39L43 39L43 40L42 40L42 41L43 41L43 40L44 40L44 39L45 39L45 38L44 38L44 37L45 37L45 36L44 36L44 35L43 35L43 34L42 34L42 33L43 33L43 32L39 32L39 34L37 34L37 33L38 33L38 32L36 32L36 31L38 31L38 30L39 30L39 29L41 29L41 30L40 30L40 31L41 31L41 30L42 30L42 29L43 29L43 28L44 28L44 27L43 27L43 26L40 26L40 27L39 27L39 29L38 29L38 28L37 28L37 27L38 27L38 26L39 26L39 25L41 25L41 24ZM48 24L48 26L46 26L46 27L48 27L48 26L49 26L49 27L51 27L51 29L52 29L52 28L53 28L53 27L52 27L52 26L53 26L53 25L52 25L52 26L49 26L49 24ZM60 26L60 27L61 27L61 26ZM28 27L28 29L27 29L27 30L28 30L28 29L30 29L30 30L31 30L31 28L29 28L29 27ZM40 27L40 28L41 28L41 27ZM42 27L42 28L43 28L43 27ZM6 28L6 29L7 29L7 28ZM10 28L10 29L11 29L11 28ZM36 28L36 29L37 29L37 30L38 30L38 29L37 29L37 28ZM47 28L47 29L49 29L49 31L51 31L51 30L50 30L50 28ZM64 29L64 30L65 30L65 29ZM0 30L0 31L1 31L1 32L2 32L2 31L1 31L1 30ZM47 30L47 31L48 31L48 30ZM5 31L5 34L8 34L8 31ZM29 31L29 32L30 32L30 31ZM31 31L31 34L34 34L34 31ZM57 31L57 34L60 34L60 31ZM6 32L6 33L7 33L7 32ZM32 32L32 33L33 33L33 32ZM58 32L58 33L59 33L59 32ZM3 33L3 35L4 35L4 33ZM14 33L14 34L15 34L15 33ZM21 34L21 35L22 35L22 34ZM29 34L29 35L30 35L30 34ZM46 34L46 35L47 35L47 34ZM13 35L13 36L12 36L12 37L13 37L13 36L15 36L15 35ZM25 35L25 36L26 36L26 35ZM27 35L27 36L28 36L28 35ZM37 35L37 36L36 36L36 37L37 37L37 38L36 38L36 39L37 39L37 38L38 38L38 37L39 37L39 36L41 36L41 35ZM61 35L61 36L62 36L62 35ZM32 36L32 37L33 37L33 36ZM37 36L37 37L38 37L38 36ZM43 36L43 37L42 37L42 38L43 38L43 37L44 37L44 36ZM56 36L56 38L59 38L59 37L58 37L58 36ZM21 37L21 38L22 38L22 40L23 40L23 38L22 38L22 37ZM51 37L51 39L50 39L50 41L51 41L51 40L52 40L52 38L53 38L53 37ZM8 38L8 39L7 39L7 40L9 40L9 38ZM16 38L16 39L15 39L15 41L17 41L17 38ZM19 39L19 40L18 40L18 41L19 41L19 40L20 40L20 39ZM33 40L33 41L34 41L34 40ZM55 40L55 41L56 41L56 40ZM35 41L35 42L36 42L36 44L35 44L35 43L34 43L34 42L33 42L33 43L34 43L34 45L33 45L33 47L36 47L36 46L37 46L37 45L36 45L36 44L39 44L39 43L37 43L37 42L36 42L36 41ZM4 43L4 44L5 44L5 43ZM44 43L44 44L45 44L45 43ZM63 43L63 44L62 44L62 45L63 45L63 46L64 46L64 45L65 45L65 43ZM2 44L2 46L3 46L3 47L4 47L4 45L3 45L3 44ZM55 44L55 45L56 45L56 44ZM63 44L63 45L64 45L64 44ZM23 45L23 46L24 46L24 45ZM26 45L26 46L28 46L28 45ZM34 45L34 46L35 46L35 45ZM38 45L38 46L39 46L39 45ZM13 46L13 49L12 49L12 48L11 48L11 49L12 49L12 50L13 50L13 52L14 52L14 55L13 55L13 56L14 56L14 55L15 55L15 54L17 54L17 53L18 53L18 52L17 52L17 51L18 51L18 50L19 50L19 49L18 49L18 50L17 50L17 49L16 49L16 51L15 51L15 50L14 50L14 49L15 49L15 47L14 47L14 46ZM22 47L22 48L21 48L21 49L23 49L23 48L24 48L24 47ZM31 48L31 49L32 49L32 50L33 50L33 51L36 51L36 52L37 52L37 51L36 51L36 50L35 50L35 49L36 49L36 48L35 48L35 49L34 49L34 48L33 48L33 49L32 49L32 48ZM33 49L33 50L34 50L34 49ZM56 49L56 50L58 50L58 49ZM62 49L62 52L63 52L63 50L64 50L64 49ZM1 50L1 51L2 51L2 50ZM14 51L14 52L15 52L15 51ZM25 51L25 52L26 52L26 51ZM41 51L41 52L39 52L39 53L38 53L38 54L39 54L39 53L41 53L41 54L42 54L42 53L43 53L43 52L42 52L42 51ZM7 52L7 53L6 53L6 54L7 54L7 55L8 55L8 54L7 54L7 53L8 53L8 52ZM16 52L16 53L17 53L17 52ZM41 52L41 53L42 53L42 52ZM44 52L44 53L45 53L45 52ZM60 52L60 53L61 53L61 52ZM12 53L12 54L13 54L13 53ZM24 53L24 54L26 54L26 53ZM27 54L27 55L26 55L26 56L27 56L27 55L28 55L28 57L26 57L26 58L27 58L27 59L26 59L26 60L27 60L27 61L28 61L28 59L29 59L29 58L28 58L28 57L29 57L29 55L28 55L28 54ZM31 57L31 60L34 60L34 57ZM57 57L57 60L60 60L60 57ZM13 58L13 59L14 59L14 58ZM32 58L32 59L33 59L33 58ZM52 58L52 60L53 60L53 58ZM58 58L58 59L59 59L59 58ZM54 59L54 60L55 60L55 59ZM18 60L18 61L19 61L19 60ZM47 60L47 62L48 62L48 63L49 63L49 62L48 62L48 61L49 61L49 60ZM62 60L62 61L63 61L63 62L62 62L62 63L63 63L63 64L62 64L62 65L63 65L63 64L64 64L64 61L63 61L63 60ZM18 62L18 63L19 63L19 62ZM23 63L23 65L24 65L24 63ZM27 63L27 64L28 64L28 63ZM33 63L33 64L34 64L34 63ZM0 0L0 7L7 7L7 0ZM1 1L1 6L6 6L6 1ZM2 2L2 5L5 5L5 2ZM58 0L58 7L65 7L65 0ZM59 1L59 6L64 6L64 1ZM60 2L60 5L63 5L63 2ZM0 58L0 65L7 65L7 58ZM1 59L1 64L6 64L6 59ZM2 60L2 63L5 63L5 60Z" fill="#000000"/></g></g></svg>
