<?xml version="1.0" encoding="UTF-8"?>
<svg xmlns="http://www.w3.org/2000/svg" version="1.1" width="300" height="300" viewBox="0 0 300 300"><rect x="0" y="0" width="300" height="300" fill="#ffffff"/><g transform="scale(4.918)"><g transform="translate(0,0)"><path fill-rule="evenodd" d="M9 0L9 1L8 1L8 2L10 2L10 0ZM16 0L16 1L11 1L11 4L10 4L10 3L8 3L8 4L10 4L10 5L8 5L8 7L9 7L9 6L10 6L10 8L6 8L6 9L5 9L5 8L0 8L0 9L2 9L2 10L0 10L0 11L2 11L2 10L3 10L3 11L4 11L4 9L5 9L5 11L7 11L7 12L6 12L6 13L7 13L7 14L5 14L5 13L4 13L4 14L3 14L3 13L2 13L2 12L0 12L0 18L1 18L1 20L0 20L0 21L1 21L1 20L2 20L2 21L3 21L3 22L0 22L0 23L1 23L1 29L0 29L0 30L1 30L1 29L2 29L2 28L3 28L3 30L2 30L2 31L1 31L1 34L0 34L0 39L1 39L1 41L2 41L2 42L5 42L5 43L2 43L2 44L1 44L1 43L0 43L0 44L1 44L1 45L0 45L0 46L2 46L2 45L3 45L3 44L6 44L6 45L4 45L4 48L3 48L3 49L2 49L2 48L0 48L0 50L1 50L1 49L2 49L2 51L0 51L0 53L4 53L4 52L5 52L5 51L7 51L7 50L8 50L8 49L7 49L7 48L6 48L6 49L5 49L5 50L4 50L4 48L5 48L5 46L6 46L6 47L8 47L8 48L11 48L11 47L13 47L13 49L14 49L14 50L16 50L16 49L14 49L14 46L15 46L15 47L16 47L16 48L17 48L17 50L18 50L18 49L21 49L21 50L19 50L19 51L24 51L24 52L25 52L25 53L22 53L22 52L20 52L20 53L21 53L21 54L20 54L20 55L21 55L21 56L24 56L24 55L27 55L27 57L26 57L26 56L25 56L25 57L21 57L21 60L20 60L20 61L21 61L21 60L23 60L23 61L24 61L24 60L25 60L25 59L24 59L24 60L23 60L23 59L22 59L22 58L25 58L25 57L26 57L26 58L27 58L27 59L26 59L26 60L27 60L27 61L28 61L28 60L29 60L29 61L32 61L32 60L33 60L33 61L38 61L38 60L36 60L36 59L37 59L37 58L38 58L38 59L40 59L40 60L39 60L39 61L40 61L40 60L41 60L41 58L45 58L45 57L47 57L47 58L48 58L48 60L46 60L46 59L42 59L42 61L43 61L43 60L45 60L45 61L49 61L49 56L50 56L50 55L52 55L52 56L51 56L51 58L50 58L50 59L51 59L51 58L53 58L53 57L54 57L54 58L55 58L55 57L56 57L56 58L58 58L58 59L59 59L59 58L58 58L58 57L59 57L59 56L61 56L61 54L60 54L60 53L61 53L61 50L60 50L60 52L58 52L58 51L55 51L55 48L54 48L54 47L57 47L57 46L59 46L59 48L56 48L56 49L58 49L58 50L59 50L59 48L60 48L60 49L61 49L61 48L60 48L60 47L61 47L61 46L59 46L59 44L60 44L60 45L61 45L61 42L60 42L60 41L61 41L61 38L58 38L58 37L59 37L59 36L58 36L58 37L57 37L57 36L55 36L55 37L54 37L54 36L53 36L53 35L55 35L55 34L56 34L56 35L59 35L59 34L60 34L60 35L61 35L61 34L60 34L60 33L59 33L59 32L57 32L57 31L60 31L60 32L61 32L61 30L58 30L58 29L59 29L59 28L60 28L60 29L61 29L61 28L60 28L60 27L61 27L61 26L60 26L60 25L61 25L61 22L60 22L60 23L59 23L59 22L58 22L58 21L59 21L59 20L58 20L58 19L61 19L61 18L60 18L60 15L61 15L61 14L60 14L60 13L59 13L59 12L60 12L60 11L61 11L61 10L60 10L60 11L59 11L59 10L58 10L58 8L57 8L57 9L56 9L56 8L55 8L55 9L54 9L54 8L53 8L53 6L52 6L52 7L51 7L51 5L52 5L52 4L53 4L53 0L51 0L51 2L50 2L50 3L48 3L48 4L49 4L49 5L46 5L46 4L47 4L47 3L46 3L46 2L49 2L49 1L50 1L50 0L49 0L49 1L48 1L48 0L47 0L47 1L46 1L46 0L45 0L45 2L44 2L44 0L41 0L41 1L43 1L43 2L42 2L42 5L41 5L41 4L40 4L40 3L41 3L41 2L40 2L40 1L38 1L38 2L37 2L37 0L36 0L36 1L33 1L33 0L32 0L32 1L29 1L29 2L28 2L28 0L26 0L26 1L27 1L27 2L26 2L26 3L27 3L27 4L26 4L26 5L25 5L25 2L24 2L24 3L23 3L23 4L21 4L21 3L20 3L20 4L19 4L19 3L18 3L18 4L17 4L17 1L18 1L18 2L19 2L19 1L20 1L20 2L21 2L21 1L20 1L20 0L19 0L19 1L18 1L18 0ZM22 0L22 1L25 1L25 0ZM32 1L32 2L31 2L31 3L29 3L29 4L31 4L31 3L34 3L34 2L33 2L33 1ZM13 2L13 3L12 3L12 4L11 4L11 5L14 5L14 6L13 6L13 7L12 7L12 6L11 6L11 7L12 7L12 8L11 8L11 9L8 9L8 10L11 10L11 9L12 9L12 8L13 8L13 7L14 7L14 9L15 9L15 10L17 10L17 11L18 11L18 10L17 10L17 9L18 9L18 8L17 8L17 9L15 9L15 7L16 7L16 6L17 6L17 7L18 7L18 5L19 5L19 7L20 7L20 5L21 5L21 8L19 8L19 9L21 9L21 8L22 8L22 9L25 9L25 10L26 10L26 9L28 9L28 10L29 10L29 11L27 11L27 12L26 12L26 11L24 11L24 10L23 10L23 11L24 11L24 12L22 12L22 10L21 10L21 13L20 13L20 12L19 12L19 13L18 13L18 15L19 15L19 14L20 14L20 16L19 16L19 17L18 17L18 16L17 16L17 13L15 13L15 12L14 12L14 11L8 11L8 12L7 12L7 13L9 13L9 14L10 14L10 15L9 15L9 16L12 16L12 15L14 15L14 16L13 16L13 17L12 17L12 20L9 20L9 21L8 21L8 20L7 20L7 19L11 19L11 17L9 17L9 18L8 18L8 15L6 15L6 16L5 16L5 15L3 15L3 14L2 14L2 13L1 13L1 14L2 14L2 16L1 16L1 18L2 18L2 16L4 16L4 17L3 17L3 19L5 19L5 21L4 21L4 20L3 20L3 21L4 21L4 23L2 23L2 25L4 25L4 24L5 24L5 26L7 26L7 25L8 25L8 26L9 26L9 27L6 27L6 28L9 28L9 30L10 30L10 31L9 31L9 33L8 33L8 34L9 34L9 33L10 33L10 35L11 35L11 36L12 36L12 37L10 37L10 36L7 36L7 35L6 35L6 34L7 34L7 33L6 33L6 34L5 34L5 33L2 33L2 34L1 34L1 36L2 36L2 37L3 37L3 36L5 36L5 37L4 37L4 38L3 38L3 39L4 39L4 38L5 38L5 40L4 40L4 41L6 41L6 42L7 42L7 43L6 43L6 44L7 44L7 45L6 45L6 46L8 46L8 47L9 47L9 46L10 46L10 44L12 44L12 41L10 41L10 42L9 42L9 40L12 40L12 39L11 39L11 38L13 38L13 37L14 37L14 36L15 36L15 38L14 38L14 39L15 39L15 40L13 40L13 42L14 42L14 44L13 44L13 46L14 46L14 45L15 45L15 46L17 46L17 48L20 48L20 47L22 47L22 45L23 45L23 49L22 49L22 48L21 48L21 49L22 49L22 50L23 50L23 49L25 49L25 52L26 52L26 53L25 53L25 54L26 54L26 53L27 53L27 55L28 55L28 53L27 53L27 52L26 52L26 51L27 51L27 50L28 50L28 49L29 49L29 51L28 51L28 52L31 52L31 51L30 51L30 50L32 50L32 49L33 49L33 51L32 51L32 52L34 52L34 53L33 53L33 54L35 54L35 55L34 55L34 56L38 56L38 58L39 58L39 57L40 57L40 58L41 58L41 56L44 56L44 57L45 57L45 56L44 56L44 54L45 54L45 55L46 55L46 56L47 56L47 55L48 55L48 56L49 56L49 55L50 55L50 54L51 54L51 52L52 52L52 51L53 51L53 52L55 52L55 51L53 51L53 50L51 50L51 49L50 49L50 48L49 48L49 47L50 47L50 46L51 46L51 44L52 44L52 45L54 45L54 44L55 44L55 45L56 45L56 46L57 46L57 45L58 45L58 44L59 44L59 43L60 43L60 42L59 42L59 41L58 41L58 42L59 42L59 43L57 43L57 41L56 41L56 40L60 40L60 39L56 39L56 38L57 38L57 37L55 37L55 39L54 39L54 37L52 37L52 38L51 38L51 37L50 37L50 36L52 36L52 35L53 35L53 33L52 33L52 32L50 32L50 30L51 30L51 31L52 31L52 29L50 29L50 28L53 28L53 27L55 27L55 26L53 26L53 25L55 25L55 24L53 24L53 23L52 23L52 24L51 24L51 25L50 25L50 26L47 26L47 25L46 25L46 26L44 26L44 25L45 25L45 24L44 24L44 22L45 22L45 20L43 20L43 21L44 21L44 22L42 22L42 19L43 19L43 18L41 18L41 20L40 20L40 21L38 21L38 20L39 20L39 19L38 19L38 18L39 18L39 16L40 16L40 17L41 17L41 16L43 16L43 14L42 14L42 11L45 11L45 10L44 10L44 9L45 9L45 8L46 8L46 5L45 5L45 3L43 3L43 5L42 5L42 6L41 6L41 5L40 5L40 6L39 6L39 7L40 7L40 6L41 6L41 8L40 8L40 9L43 9L43 10L42 10L42 11L41 11L41 10L40 10L40 11L39 11L39 12L37 12L37 11L38 11L38 10L39 10L39 8L37 8L37 7L38 7L38 5L39 5L39 4L38 4L38 3L39 3L39 2L38 2L38 3L37 3L37 2L35 2L35 3L37 3L37 7L36 7L36 5L35 5L35 4L33 4L33 5L35 5L35 8L34 8L34 6L33 6L33 9L34 9L34 10L35 10L35 8L37 8L37 9L36 9L36 11L34 11L34 12L33 12L33 10L32 10L32 9L28 9L28 8L27 8L27 7L28 7L28 6L27 6L27 5L28 5L28 4L27 4L27 5L26 5L26 6L25 6L25 7L26 7L26 9L25 9L25 8L23 8L23 7L24 7L24 6L23 6L23 5L21 5L21 4L20 4L20 5L19 5L19 4L18 4L18 5L17 5L17 4L15 4L15 3L16 3L16 2ZM27 2L27 3L28 3L28 2ZM13 3L13 4L14 4L14 5L15 5L15 4L14 4L14 3ZM51 3L51 4L52 4L52 3ZM29 5L29 8L32 8L32 5ZM44 5L44 7L43 7L43 6L42 6L42 7L43 7L43 8L45 8L45 5ZM14 6L14 7L15 7L15 6ZM22 6L22 7L23 7L23 6ZM26 6L26 7L27 7L27 6ZM30 6L30 7L31 7L31 6ZM47 6L47 8L49 8L49 9L48 9L48 11L46 11L46 12L47 12L47 13L46 13L46 14L45 14L45 12L43 12L43 13L44 13L44 15L45 15L45 16L44 16L44 17L45 17L45 16L46 16L46 18L47 18L47 20L50 20L50 18L51 18L51 21L49 21L49 22L47 22L47 21L46 21L46 22L47 22L47 23L46 23L46 24L49 24L49 23L50 23L50 22L51 22L51 21L52 21L52 22L53 22L53 21L52 21L52 18L53 18L53 20L54 20L54 19L55 19L55 20L56 20L56 21L55 21L55 22L54 22L54 23L55 23L55 22L56 22L56 21L57 21L57 20L56 20L56 17L57 17L57 16L55 16L55 18L54 18L54 17L51 17L51 15L53 15L53 16L54 16L54 15L55 15L55 14L56 14L56 15L58 15L58 16L59 16L59 15L58 15L58 14L57 14L57 13L58 13L58 12L59 12L59 11L58 11L58 12L56 12L56 11L57 11L57 10L56 10L56 9L55 9L55 10L54 10L54 11L55 11L55 12L56 12L56 13L55 13L55 14L53 14L53 13L52 13L52 12L53 12L53 11L52 11L52 10L53 10L53 9L52 9L52 8L51 8L51 9L50 9L50 8L49 8L49 7L50 7L50 6L49 6L49 7L48 7L48 6ZM59 8L59 9L60 9L60 8ZM6 9L6 10L7 10L7 9ZM46 9L46 10L47 10L47 9ZM49 9L49 11L50 11L50 9ZM19 10L19 11L20 11L20 10ZM30 11L30 12L31 12L31 13L30 13L30 14L33 14L33 15L32 15L32 16L33 16L33 15L36 15L36 13L37 13L37 12L34 12L34 13L35 13L35 14L33 14L33 13L32 13L32 11ZM40 11L40 12L39 12L39 13L40 13L40 14L41 14L41 15L40 15L40 16L41 16L41 15L42 15L42 14L41 14L41 13L40 13L40 12L41 12L41 11ZM51 11L51 12L48 12L48 13L47 13L47 14L46 14L46 16L48 16L48 18L50 18L50 17L49 17L49 16L50 16L50 15L51 15L51 14L50 14L50 15L49 15L49 16L48 16L48 15L47 15L47 14L49 14L49 13L51 13L51 12L52 12L52 11ZM9 12L9 13L10 13L10 12ZM11 12L11 15L12 15L12 13L14 13L14 14L15 14L15 13L14 13L14 12ZM25 12L25 13L21 13L21 14L22 14L22 15L23 15L23 16L24 16L24 15L25 15L25 13L26 13L26 14L27 14L27 13L28 13L28 15L29 15L29 12L27 12L27 13L26 13L26 12ZM38 14L38 15L37 15L37 16L35 16L35 18L34 18L34 20L33 20L33 19L32 19L32 18L33 18L33 17L32 17L32 18L28 18L28 17L26 17L26 16L27 16L27 15L26 15L26 16L25 16L25 17L24 17L24 18L23 18L23 17L22 17L22 19L21 19L21 20L20 20L20 19L19 19L19 20L18 20L18 21L19 21L19 22L20 22L20 23L21 23L21 25L22 25L22 26L21 26L21 27L22 27L22 26L24 26L24 27L23 27L23 28L24 28L24 29L22 29L22 31L23 31L23 30L25 30L25 31L24 31L24 32L23 32L23 35L29 35L29 33L30 33L30 34L32 34L32 35L33 35L33 36L34 36L34 35L37 35L37 36L35 36L35 37L36 37L36 39L37 39L37 40L35 40L35 38L32 38L32 37L31 37L31 36L30 36L30 37L31 37L31 38L32 38L32 39L33 39L33 40L29 40L29 41L32 41L32 43L31 43L31 42L30 42L30 43L31 43L31 44L30 44L30 45L28 45L28 44L27 44L27 45L26 45L26 47L25 47L25 49L26 49L26 50L27 50L27 49L28 49L28 48L27 48L27 49L26 49L26 47L30 47L30 48L29 48L29 49L32 49L32 47L33 47L33 48L34 48L34 47L35 47L35 50L34 50L34 52L35 52L35 53L37 53L37 52L40 52L40 51L39 51L39 50L40 50L40 48L41 48L41 50L43 50L43 49L44 49L44 51L41 51L41 52L45 52L45 54L46 54L46 55L47 55L47 54L48 54L48 55L49 55L49 54L50 54L50 53L49 53L49 52L50 52L50 51L51 51L51 50L50 50L50 49L49 49L49 48L48 48L48 47L49 47L49 46L48 46L48 45L49 45L49 44L51 44L51 43L52 43L52 44L53 44L53 43L55 43L55 44L56 44L56 45L57 45L57 44L56 44L56 41L55 41L55 40L54 40L54 41L55 41L55 42L53 42L53 41L52 41L52 40L51 40L51 38L50 38L50 37L49 37L49 36L46 36L46 35L47 35L47 34L46 34L46 35L45 35L45 34L44 34L44 32L45 32L45 33L47 33L47 32L48 32L48 33L49 33L49 34L50 34L50 35L52 35L52 33L51 33L51 34L50 34L50 32L48 32L48 30L46 30L46 29L49 29L49 27L48 27L48 28L47 28L47 26L46 26L46 27L43 27L43 28L41 28L41 27L40 27L40 26L41 26L41 25L42 25L42 26L43 26L43 25L42 25L42 24L41 24L41 23L40 23L40 22L38 22L38 21L37 21L37 20L35 20L35 19L36 19L36 17L37 17L37 16L39 16L39 14ZM15 15L15 16L16 16L16 15ZM30 15L30 16L29 16L29 17L30 17L30 16L31 16L31 15ZM6 16L6 17L7 17L7 16ZM20 16L20 17L21 17L21 16ZM4 17L4 18L5 18L5 19L7 19L7 18L5 18L5 17ZM13 17L13 18L14 18L14 17ZM15 17L15 18L16 18L16 17ZM25 17L25 18L24 18L24 19L23 19L23 20L21 20L21 21L20 21L20 20L19 20L19 21L20 21L20 22L21 22L21 21L23 21L23 20L24 20L24 21L25 21L25 22L26 22L26 23L27 23L27 22L29 22L29 23L28 23L28 25L27 25L27 24L26 24L26 25L25 25L25 24L22 24L22 25L25 25L25 26L26 26L26 25L27 25L27 26L28 26L28 25L29 25L29 27L27 27L27 28L26 28L26 29L25 29L25 30L26 30L26 29L28 29L28 28L29 28L29 27L31 27L31 28L33 28L33 29L34 29L34 30L35 30L35 31L34 31L34 33L32 33L32 34L35 34L35 31L37 31L37 33L38 33L38 34L39 34L39 33L38 33L38 32L40 32L40 33L43 33L43 32L44 32L44 31L45 31L45 28L43 28L43 30L42 30L42 29L41 29L41 28L40 28L40 27L38 27L38 26L39 26L39 25L38 25L38 24L39 24L39 23L37 23L37 22L36 22L36 21L33 21L33 20L32 20L32 19L31 19L31 20L29 20L29 19L28 19L28 21L27 21L27 20L26 20L26 19L27 19L27 18L26 18L26 17ZM58 17L58 18L59 18L59 17ZM44 18L44 19L45 19L45 18ZM13 19L13 20L12 20L12 23L13 23L13 21L17 21L17 20L16 20L16 19L15 19L15 20L14 20L14 19ZM24 19L24 20L25 20L25 19ZM6 20L6 21L7 21L7 22L6 22L6 23L5 23L5 24L6 24L6 25L7 25L7 24L8 24L8 25L10 25L10 26L13 26L13 25L18 25L18 26L17 26L17 27L18 27L18 28L16 28L16 27L15 27L15 26L14 26L14 27L9 27L9 28L14 28L14 29L13 29L13 30L12 30L12 31L10 31L10 33L12 33L12 34L11 34L11 35L12 35L12 36L14 36L14 35L12 35L12 34L13 34L13 33L14 33L14 34L15 34L15 35L16 35L16 37L17 37L17 38L16 38L16 39L17 39L17 40L15 40L15 41L17 41L17 42L15 42L15 45L19 45L19 46L18 46L18 47L20 47L20 45L21 45L21 44L26 44L26 43L28 43L28 42L27 42L27 41L28 41L28 40L27 40L27 41L26 41L26 39L25 39L25 37L22 37L22 38L21 38L21 39L19 39L19 36L17 36L17 33L16 33L16 32L17 32L17 31L18 31L18 33L19 33L19 34L18 34L18 35L19 35L19 34L20 34L20 35L21 35L21 36L20 36L20 37L21 37L21 36L22 36L22 35L21 35L21 34L22 34L22 32L21 32L21 34L20 34L20 33L19 33L19 32L20 32L20 31L21 31L21 30L20 30L20 29L21 29L21 28L20 28L20 29L19 29L19 27L20 27L20 26L19 26L19 25L20 25L20 24L19 24L19 25L18 25L18 24L13 24L13 25L12 25L12 24L11 24L11 25L10 25L10 24L8 24L8 23L9 23L9 22L10 22L10 21L9 21L9 22L8 22L8 21L7 21L7 20ZM26 21L26 22L27 22L27 21ZM29 21L29 22L30 22L30 24L31 24L31 25L30 25L30 26L31 26L31 27L32 27L32 26L34 26L34 27L36 27L36 26L34 26L34 25L37 25L37 26L38 26L38 25L37 25L37 24L34 24L34 23L36 23L36 22L33 22L33 21L32 21L32 22L31 22L31 21ZM17 22L17 23L18 23L18 22ZM22 22L22 23L23 23L23 22ZM32 22L32 25L31 25L31 26L32 26L32 25L33 25L33 22ZM6 23L6 24L7 24L7 23ZM57 23L57 24L56 24L56 27L57 27L57 25L58 25L58 24L59 24L59 23ZM40 24L40 25L41 25L41 24ZM52 24L52 25L53 25L53 24ZM3 26L3 28L4 28L4 26ZM50 26L50 27L51 27L51 26ZM24 27L24 28L25 28L25 27ZM58 27L58 28L59 28L59 27ZM35 28L35 30L38 30L38 31L40 31L40 32L42 32L42 30L40 30L40 28L38 28L38 29L37 29L37 28ZM5 29L5 32L8 32L8 29ZM14 29L14 31L13 31L13 32L12 32L12 33L13 33L13 32L14 32L14 33L15 33L15 34L16 34L16 33L15 33L15 32L16 32L16 31L15 31L15 30L18 30L18 31L20 31L20 30L19 30L19 29ZM29 29L29 32L32 32L32 29ZM38 29L38 30L39 30L39 29ZM53 29L53 32L56 32L56 29ZM3 30L3 32L4 32L4 30ZM6 30L6 31L7 31L7 30ZM27 30L27 31L25 31L25 32L24 32L24 33L25 33L25 34L26 34L26 33L27 33L27 34L28 34L28 33L27 33L27 31L28 31L28 30ZM30 30L30 31L31 31L31 30ZM54 30L54 31L55 31L55 30ZM46 31L46 32L47 32L47 31ZM25 32L25 33L26 33L26 32ZM54 33L54 34L55 34L55 33ZM56 33L56 34L57 34L57 33ZM58 33L58 34L59 34L59 33ZM2 34L2 36L3 36L3 35L4 35L4 34ZM40 34L40 36L38 36L38 37L37 37L37 39L38 39L38 38L39 38L39 40L37 40L37 41L38 41L38 42L37 42L37 43L34 43L34 44L37 44L37 45L38 45L38 46L37 46L37 47L36 47L36 48L37 48L37 49L38 49L38 50L39 50L39 47L38 47L38 46L39 46L39 45L38 45L38 44L37 44L37 43L38 43L38 42L39 42L39 44L40 44L40 47L41 47L41 48L42 48L42 49L43 49L43 48L44 48L44 49L45 49L45 51L46 51L46 54L47 54L47 51L48 51L48 52L49 52L49 51L50 51L50 50L49 50L49 49L48 49L48 48L47 48L47 47L48 47L48 46L47 46L47 45L46 45L46 46L44 46L44 45L45 45L45 44L44 44L44 43L45 43L45 40L44 40L44 43L43 43L43 42L41 42L41 44L40 44L40 41L43 41L43 40L42 40L42 38L39 38L39 37L42 37L42 35L44 35L44 34ZM6 36L6 37L7 37L7 38L6 38L6 39L7 39L7 40L6 40L6 41L7 41L7 42L8 42L8 43L9 43L9 44L8 44L8 46L9 46L9 44L10 44L10 43L11 43L11 42L10 42L10 43L9 43L9 42L8 42L8 41L7 41L7 40L9 40L9 39L10 39L10 37L9 37L9 39L7 39L7 38L8 38L8 37L7 37L7 36ZM28 36L28 37L29 37L29 36ZM43 36L43 37L44 37L44 38L43 38L43 39L44 39L44 38L45 38L45 39L46 39L46 38L47 38L47 40L50 40L50 42L49 42L49 43L50 43L50 42L52 42L52 43L53 43L53 42L52 42L52 41L51 41L51 40L50 40L50 39L48 39L48 38L49 38L49 37L46 37L46 38L45 38L45 36ZM60 36L60 37L61 37L61 36ZM26 37L26 38L27 38L27 39L28 39L28 38L27 38L27 37ZM1 38L1 39L2 39L2 38ZM17 38L17 39L18 39L18 38ZM29 38L29 39L30 39L30 38ZM23 39L23 40L22 40L22 41L25 41L25 42L26 42L26 41L25 41L25 39ZM40 39L40 40L41 40L41 39ZM17 40L17 41L18 41L18 40ZM19 40L19 41L21 41L21 40ZM34 41L34 42L35 42L35 41ZM46 41L46 42L48 42L48 41ZM17 42L17 43L16 43L16 44L17 44L17 43L20 43L20 42ZM22 42L22 43L23 43L23 42ZM32 43L32 44L33 44L33 43ZM46 43L46 44L48 44L48 43ZM42 44L42 46L41 46L41 47L42 47L42 48L43 48L43 47L44 47L44 48L45 48L45 47L44 47L44 46L43 46L43 44ZM11 45L11 46L12 46L12 45ZM24 45L24 46L25 46L25 45ZM27 45L27 46L28 46L28 45ZM30 45L30 46L33 46L33 47L34 47L34 46L36 46L36 45L34 45L34 46L33 46L33 45ZM42 46L42 47L43 47L43 46ZM46 46L46 47L47 47L47 46ZM52 46L52 47L51 47L51 48L52 48L52 49L54 49L54 48L52 48L52 47L53 47L53 46ZM6 49L6 50L7 50L7 49ZM46 50L46 51L47 51L47 50ZM48 50L48 51L49 51L49 50ZM3 51L3 52L4 52L4 51ZM8 51L8 55L9 55L9 56L8 56L8 61L9 61L9 60L10 60L10 59L11 59L11 60L12 60L12 61L14 61L14 60L15 60L15 61L19 61L19 60L18 60L18 58L19 58L19 59L20 59L20 58L19 58L19 57L20 57L20 56L19 56L19 57L18 57L18 56L17 56L17 55L18 55L18 54L17 54L17 55L15 55L15 56L14 56L14 54L15 54L15 53L19 53L19 52L16 52L16 51L14 51L14 52L13 52L13 51ZM36 51L36 52L37 52L37 51ZM6 52L6 53L7 53L7 52ZM9 52L9 53L10 53L10 54L9 54L9 55L10 55L10 56L9 56L9 57L10 57L10 56L11 56L11 53L12 53L12 56L13 56L13 53L12 53L12 52ZM14 52L14 53L15 53L15 52ZM29 53L29 56L32 56L32 53ZM40 53L40 54L38 54L38 56L41 56L41 55L40 55L40 54L42 54L42 55L43 55L43 54L44 54L44 53ZM53 53L53 56L56 56L56 53ZM57 53L57 57L58 57L58 56L59 56L59 53ZM22 54L22 55L24 55L24 54ZM30 54L30 55L31 55L31 54ZM36 54L36 55L37 55L37 54ZM54 54L54 55L55 55L55 54ZM15 56L15 57L14 57L14 58L13 58L13 57L11 57L11 59L12 59L12 58L13 58L13 59L15 59L15 60L17 60L17 58L18 58L18 57L16 57L16 56ZM31 57L31 58L30 58L30 59L33 59L33 58L34 58L34 59L36 59L36 58L37 58L37 57L33 57L33 58L32 58L32 57ZM60 57L60 60L57 60L57 61L61 61L61 57ZM15 58L15 59L16 59L16 58ZM53 59L53 60L50 60L50 61L53 61L53 60L55 60L55 61L56 61L56 60L55 60L55 59ZM0 0L0 7L7 7L7 0ZM1 1L1 6L6 6L6 1ZM2 2L2 5L5 5L5 2ZM54 0L54 7L61 7L61 0ZM55 1L55 6L60 6L60 1ZM56 2L56 5L59 5L59 2ZM0 54L0 61L7 61L7 54ZM1 55L1 60L6 60L6 55ZM2 56L2 59L5 59L5 56Z" fill="#000000"/></g></g></svg>
