<?xml version="1.0" encoding="UTF-8"?>
<svg xmlns="http://www.w3.org/2000/svg" version="1.1" width="300" height="300" viewBox="0 0 300 300"><rect x="0" y="0" width="300" height="300" fill="#ffffff"/><g transform="scale(4.918)"><g transform="translate(0,0)"><path fill-rule="evenodd" d="M9 0L9 1L8 1L8 2L9 2L9 1L13 1L13 4L14 4L14 5L13 5L13 6L12 6L12 4L11 4L11 3L8 3L8 4L9 4L9 5L8 5L8 7L9 7L9 5L10 5L10 7L11 7L11 9L10 9L10 8L6 8L6 9L7 9L7 10L6 10L6 11L7 11L7 12L6 12L6 13L3 13L3 12L0 12L0 13L2 13L2 14L1 14L1 15L3 15L3 17L4 17L4 14L5 14L5 15L7 15L7 14L8 14L8 13L9 13L9 12L10 12L10 13L11 13L11 12L10 12L10 11L12 11L12 10L15 10L15 13L14 13L14 11L13 11L13 12L12 12L12 13L14 13L14 14L13 14L13 15L14 15L14 16L12 16L12 14L9 14L9 15L11 15L11 17L16 17L16 18L14 18L14 19L16 19L16 20L15 20L15 21L17 21L17 22L13 22L13 21L12 21L12 22L11 22L11 19L12 19L12 18L11 18L11 19L10 19L10 18L9 18L9 19L10 19L10 20L9 20L9 21L10 21L10 22L11 22L11 23L14 23L14 24L15 24L15 27L16 27L16 28L15 28L15 29L14 29L14 30L12 30L12 31L11 31L11 32L13 32L13 31L14 31L14 30L15 30L15 31L16 31L16 30L15 30L15 29L17 29L17 27L18 27L18 29L19 29L19 30L18 30L18 31L20 31L20 29L21 29L21 30L22 30L22 31L21 31L21 32L17 32L17 35L19 35L19 33L21 33L21 34L20 34L20 35L21 35L21 36L16 36L16 35L15 35L15 36L14 36L14 33L15 33L15 34L16 34L16 33L15 33L15 32L14 32L14 33L13 33L13 34L12 34L12 33L11 33L11 34L12 34L12 35L11 35L11 36L10 36L10 38L9 38L9 37L7 37L7 36L9 36L9 34L10 34L10 30L9 30L9 29L11 29L11 28L13 28L13 26L14 26L14 25L12 25L12 24L10 24L10 25L8 25L8 26L6 26L6 25L7 25L7 24L9 24L9 23L7 23L7 22L8 22L8 20L5 20L5 19L7 19L7 18L6 18L6 17L7 17L7 16L6 16L6 17L5 17L5 18L4 18L4 20L5 20L5 21L7 21L7 22L6 22L6 23L7 23L7 24L5 24L5 23L4 23L4 22L2 22L2 21L1 21L1 22L2 22L2 25L1 25L1 24L0 24L0 25L1 25L1 26L2 26L2 27L0 27L0 29L1 29L1 28L4 28L4 29L3 29L3 30L2 30L2 32L4 32L4 33L5 33L5 35L7 35L7 36L5 36L5 37L7 37L7 38L6 38L6 39L7 39L7 40L4 40L4 41L7 41L7 42L4 42L4 43L3 43L3 42L2 42L2 40L3 40L3 37L4 37L4 36L3 36L3 37L2 37L2 36L1 36L1 35L4 35L4 34L0 34L0 39L2 39L2 40L0 40L0 42L2 42L2 43L3 43L3 45L2 45L2 44L0 44L0 46L1 46L1 45L2 45L2 47L1 47L1 48L2 48L2 49L0 49L0 50L2 50L2 51L0 51L0 53L4 53L4 52L5 52L5 51L7 51L7 52L6 52L6 53L7 53L7 52L8 52L8 49L7 49L7 48L9 48L9 51L11 51L11 53L10 53L10 52L9 52L9 53L8 53L8 55L9 55L9 53L10 53L10 55L11 55L11 58L14 58L14 59L15 59L15 60L13 60L13 59L12 59L12 61L20 61L20 60L21 60L21 58L23 58L23 57L19 57L19 55L20 55L20 56L22 56L22 55L23 55L23 53L21 53L21 52L20 52L20 50L17 50L17 49L16 49L16 47L15 47L15 48L14 48L14 49L13 49L13 51L16 51L16 53L15 53L15 52L14 52L14 53L13 53L13 52L12 52L12 48L11 48L11 46L12 46L12 47L14 47L14 46L15 46L15 45L13 45L13 46L12 46L12 41L14 41L14 42L13 42L13 43L14 43L14 44L15 44L15 43L14 43L14 42L16 42L16 41L18 41L18 43L20 43L20 42L19 42L19 41L20 41L20 40L19 40L19 41L18 41L18 40L17 40L17 39L18 39L18 38L16 38L16 37L19 37L19 39L21 39L21 40L22 40L22 39L23 39L23 37L21 37L21 36L23 36L23 35L24 35L24 36L25 36L25 37L24 37L24 38L25 38L25 39L24 39L24 40L25 40L25 41L21 41L21 42L25 42L25 43L24 43L24 44L25 44L25 43L28 43L28 44L27 44L27 45L26 45L26 46L25 46L25 45L22 45L22 46L20 46L20 45L21 45L21 44L20 44L20 45L19 45L19 44L17 44L17 43L16 43L16 45L19 45L19 46L18 46L18 49L19 49L19 48L20 48L20 49L22 49L22 48L21 48L21 47L22 47L22 46L25 46L25 47L26 47L26 48L27 48L27 49L26 49L26 50L25 50L25 49L24 49L24 47L23 47L23 51L22 51L22 50L21 50L21 51L22 51L22 52L23 52L23 51L25 51L25 53L24 53L24 54L28 54L28 56L27 56L27 57L26 57L26 55L24 55L24 56L25 56L25 57L24 57L24 59L23 59L23 60L24 60L24 59L25 59L25 57L26 57L26 58L27 58L27 59L26 59L26 60L25 60L25 61L26 61L26 60L27 60L27 59L28 59L28 60L29 60L29 61L32 61L32 60L34 60L34 59L35 59L35 58L34 58L34 57L37 57L37 58L36 58L36 59L37 59L37 60L35 60L35 61L37 61L37 60L38 60L38 59L40 59L40 60L39 60L39 61L40 61L40 60L41 60L41 59L40 59L40 58L38 58L38 55L39 55L39 54L42 54L42 56L43 56L43 57L41 57L41 58L43 58L43 59L44 59L44 60L45 60L45 61L50 61L50 60L53 60L53 61L54 61L54 60L55 60L55 59L56 59L56 61L61 61L61 57L60 57L60 56L58 56L58 57L60 57L60 60L58 60L58 59L56 59L56 58L57 58L57 53L59 53L59 52L58 52L58 50L59 50L59 51L61 51L61 50L59 50L59 48L60 48L60 47L61 47L61 46L58 46L58 45L59 45L59 44L60 44L60 45L61 45L61 42L60 42L60 40L57 40L57 39L61 39L61 38L58 38L58 37L59 37L59 36L60 36L60 37L61 37L61 34L59 34L59 32L60 32L60 33L61 33L61 30L60 30L60 29L61 29L61 28L60 28L60 29L59 29L59 28L58 28L58 29L59 29L59 32L58 32L58 30L57 30L57 27L56 27L56 24L57 24L57 23L59 23L59 24L58 24L58 25L57 25L57 26L59 26L59 27L61 27L61 26L60 26L60 25L61 25L61 22L58 22L58 21L59 21L59 20L58 20L58 21L56 21L56 23L53 23L53 22L55 22L55 21L53 21L53 18L55 18L55 17L56 17L56 18L57 18L57 19L56 19L56 20L57 20L57 19L61 19L61 18L58 18L58 17L59 17L59 16L58 16L58 17L56 17L56 16L57 16L57 15L56 15L56 16L50 16L50 17L49 17L49 16L48 16L48 14L50 14L50 15L51 15L51 14L50 14L50 12L48 12L48 14L46 14L46 13L47 13L47 11L48 11L48 10L46 10L46 11L42 11L42 10L43 10L43 9L42 9L42 10L40 10L40 8L41 8L41 5L40 5L40 3L41 3L41 1L43 1L43 0L39 0L39 1L37 1L37 0L35 0L35 1L34 1L34 3L32 3L32 1L33 1L33 0L32 0L32 1L31 1L31 0L30 0L30 1L31 1L31 2L30 2L30 3L28 3L28 2L29 2L29 1L28 1L28 0L22 0L22 1L20 1L20 0L19 0L19 1L18 1L18 2L19 2L19 1L20 1L20 2L21 2L21 3L20 3L20 4L22 4L22 5L21 5L21 6L20 6L20 5L19 5L19 6L18 6L18 5L17 5L17 6L16 6L16 5L15 5L15 4L19 4L19 3L16 3L16 2L15 2L15 1L16 1L16 0L15 0L15 1L14 1L14 0ZM44 0L44 1L46 1L46 2L42 2L42 5L43 5L43 3L45 3L45 4L44 4L44 5L45 5L45 6L44 6L44 8L46 8L46 7L47 7L47 6L46 6L46 5L45 5L45 4L47 4L47 3L48 3L48 4L49 4L49 5L48 5L48 7L49 7L49 8L47 8L47 9L49 9L49 11L50 11L50 9L51 9L51 11L52 11L52 12L51 12L51 13L53 13L53 14L52 14L52 15L54 15L54 14L56 14L56 12L57 12L57 13L59 13L59 12L60 12L60 11L61 11L61 10L60 10L60 11L59 11L59 12L57 12L57 11L58 11L58 10L59 10L59 9L60 9L60 8L59 8L59 9L58 9L58 8L57 8L57 9L56 9L56 8L55 8L55 9L54 9L54 8L53 8L53 6L52 6L52 7L51 7L51 5L52 5L52 4L53 4L53 0L51 0L51 2L50 2L50 0L48 0L48 2L47 2L47 1L46 1L46 0ZM22 1L22 2L23 2L23 1ZM24 2L24 3L22 3L22 4L25 4L25 5L22 5L22 6L21 6L21 7L20 7L20 6L19 6L19 7L18 7L18 6L17 6L17 7L16 7L16 6L15 6L15 5L14 5L14 6L13 6L13 7L12 7L12 6L11 6L11 7L12 7L12 9L13 9L13 8L14 8L14 9L15 9L15 10L17 10L17 11L16 11L16 12L17 12L17 13L15 13L15 15L18 15L18 16L16 16L16 17L18 17L18 18L17 18L17 19L19 19L19 21L18 21L18 22L17 22L17 23L16 23L16 24L17 24L17 25L16 25L16 27L17 27L17 25L18 25L18 24L17 24L17 23L18 23L18 22L19 22L19 21L20 21L20 22L21 22L21 23L19 23L19 25L25 25L25 27L24 27L24 26L23 26L23 27L21 27L21 29L25 29L25 30L24 30L24 32L23 32L23 33L22 33L22 32L21 32L21 33L22 33L22 35L23 35L23 34L24 34L24 35L25 35L25 36L26 36L26 37L25 37L25 38L26 38L26 37L27 37L27 38L28 38L28 37L29 37L29 36L31 36L31 37L30 37L30 39L32 39L32 40L33 40L33 41L29 41L29 39L28 39L28 40L27 40L27 39L25 39L25 40L26 40L26 41L25 41L25 42L26 42L26 41L27 41L27 42L28 42L28 41L29 41L29 43L30 43L30 44L28 44L28 45L27 45L27 46L26 46L26 47L27 47L27 46L28 46L28 45L29 45L29 47L32 47L32 48L31 48L31 49L29 49L29 51L30 51L30 52L33 52L33 55L34 55L34 56L35 56L35 55L36 55L36 56L37 56L37 54L39 54L39 53L41 53L41 52L42 52L42 53L43 53L43 55L45 55L45 56L44 56L44 59L45 59L45 60L47 60L47 59L48 59L48 60L50 60L50 58L51 58L51 56L52 56L52 55L50 55L50 56L49 56L49 55L48 55L48 54L49 54L49 53L47 53L47 52L50 52L50 54L51 54L51 52L52 52L52 51L53 51L53 52L57 52L57 51L56 51L56 50L58 50L58 48L59 48L59 47L58 47L58 48L57 48L57 47L54 47L54 48L57 48L57 49L56 49L56 50L55 50L55 51L53 51L53 50L52 50L52 49L53 49L53 48L52 48L52 47L53 47L53 45L54 45L54 44L55 44L55 45L56 45L56 46L57 46L57 45L56 45L56 44L59 44L59 43L60 43L60 42L59 42L59 41L55 41L55 40L56 40L56 39L54 39L54 37L52 37L52 38L51 38L51 36L52 36L52 35L53 35L53 36L55 36L55 38L57 38L57 37L56 37L56 36L57 36L57 35L58 35L58 36L59 36L59 34L58 34L58 33L56 33L56 34L55 34L55 33L54 33L54 34L55 34L55 35L53 35L53 34L52 34L52 35L50 35L50 34L51 34L51 33L52 33L52 32L51 32L51 31L52 31L52 29L51 29L51 28L49 28L49 27L50 27L50 26L51 26L51 27L52 27L52 28L54 28L54 27L55 27L55 28L56 28L56 27L55 27L55 26L53 26L53 25L55 25L55 24L53 24L53 25L52 25L52 26L51 26L51 25L50 25L50 26L47 26L47 24L49 24L49 23L47 23L47 22L49 22L49 21L50 21L50 22L53 22L53 21L52 21L52 18L53 18L53 17L50 17L50 18L49 18L49 19L48 19L48 18L47 18L47 17L48 17L48 16L47 16L47 15L45 15L45 12L43 12L43 14L42 14L42 13L41 13L41 12L42 12L42 11L41 11L41 12L40 12L40 10L39 10L39 9L38 9L38 8L39 8L39 7L40 7L40 5L39 5L39 2L38 2L38 4L37 4L37 5L36 5L36 3L37 3L37 2L35 2L35 4L33 4L33 5L36 5L36 6L35 6L35 8L37 8L37 9L38 9L38 10L37 10L37 11L34 11L34 12L37 12L37 13L33 13L33 12L32 12L32 11L33 11L33 10L35 10L35 9L33 9L33 10L30 10L30 9L27 9L27 8L26 8L26 9L25 9L25 8L24 8L24 6L25 6L25 7L26 7L26 6L27 6L27 7L28 7L28 6L27 6L27 5L28 5L28 4L27 4L27 3L26 3L26 2ZM46 2L46 3L47 3L47 2ZM48 2L48 3L49 3L49 4L50 4L50 2ZM14 3L14 4L15 4L15 3ZM25 3L25 4L26 4L26 5L25 5L25 6L26 6L26 5L27 5L27 4L26 4L26 3ZM30 3L30 4L31 4L31 3ZM51 3L51 4L52 4L52 3ZM10 4L10 5L11 5L11 4ZM29 5L29 8L32 8L32 5ZM37 5L37 6L36 6L36 7L37 7L37 6L38 6L38 7L39 7L39 5ZM49 5L49 7L50 7L50 5ZM14 6L14 7L15 7L15 6ZM22 6L22 7L21 7L21 8L23 8L23 6ZM30 6L30 7L31 7L31 6ZM33 6L33 8L34 8L34 6ZM42 6L42 8L43 8L43 6ZM45 6L45 7L46 7L46 6ZM19 7L19 9L18 9L18 8L16 8L16 9L18 9L18 11L20 11L20 10L19 10L19 9L20 9L20 7ZM0 8L0 11L4 11L4 9L5 9L5 8ZM49 8L49 9L50 9L50 8ZM1 9L1 10L2 10L2 9ZM8 9L8 10L9 10L9 11L8 11L8 12L9 12L9 11L10 11L10 9ZM21 9L21 10L22 10L22 11L21 11L21 12L18 12L18 13L19 13L19 14L18 14L18 15L19 15L19 14L20 14L20 15L21 15L21 14L22 14L22 15L23 15L23 18L22 18L22 16L20 16L20 17L21 17L21 18L20 18L20 21L21 21L21 22L23 22L23 21L22 21L22 20L23 20L23 18L27 18L27 19L24 19L24 20L25 20L25 21L24 21L24 23L23 23L23 24L24 24L24 23L25 23L25 25L26 25L26 26L27 26L27 27L26 27L26 28L27 28L27 29L26 29L26 30L25 30L25 32L26 32L26 30L27 30L27 29L28 29L28 32L27 32L27 33L24 33L24 34L26 34L26 35L27 35L27 37L28 37L28 36L29 36L29 33L31 33L31 34L30 34L30 35L33 35L33 34L32 34L32 33L33 33L33 32L34 32L34 31L36 31L36 29L37 29L37 30L38 30L38 31L39 31L39 34L38 34L38 35L37 35L37 36L36 36L36 33L37 33L37 32L35 32L35 34L34 34L34 36L32 36L32 37L34 37L34 36L35 36L35 37L40 37L40 36L43 36L43 35L39 35L39 34L40 34L40 32L41 32L41 34L43 34L43 32L45 32L45 33L44 33L44 34L45 34L45 35L44 35L44 36L45 36L45 37L44 37L44 40L43 40L43 41L42 41L42 40L41 40L41 39L40 39L40 38L36 38L36 39L35 39L35 38L32 38L32 39L34 39L34 40L35 40L35 41L36 41L36 43L37 43L37 42L38 42L38 43L40 43L40 44L39 44L39 45L40 45L40 46L41 46L41 47L39 47L39 46L38 46L38 44L35 44L35 42L34 42L34 41L33 41L33 42L32 42L32 43L34 43L34 44L32 44L32 47L33 47L33 49L35 49L35 50L34 50L34 51L33 51L33 50L32 50L32 49L31 49L31 50L30 50L30 51L31 51L31 50L32 50L32 51L33 51L33 52L35 52L35 51L37 51L37 48L41 48L41 50L38 50L38 52L40 52L40 51L41 51L41 50L43 50L43 51L42 51L42 52L47 52L47 50L46 50L46 51L45 51L45 49L47 49L47 48L48 48L48 49L49 49L49 50L48 50L48 51L51 51L51 50L50 50L50 47L51 47L51 46L50 46L50 44L48 44L48 45L47 45L47 44L46 44L46 43L49 43L49 42L50 42L50 43L55 43L55 41L53 41L53 42L50 42L50 40L51 40L51 41L52 41L52 40L51 40L51 38L50 38L50 37L49 37L49 36L50 36L50 35L49 35L49 36L47 36L47 34L46 34L46 32L48 32L48 33L49 33L49 34L50 34L50 33L49 33L49 32L50 32L50 31L51 31L51 30L50 30L50 29L49 29L49 28L48 28L48 29L49 29L49 30L48 30L48 31L47 31L47 30L46 30L46 29L47 29L47 28L46 28L46 27L47 27L47 26L45 26L45 27L44 27L44 24L45 24L45 25L46 25L46 24L45 24L45 23L46 23L46 22L45 22L45 21L44 21L44 22L45 22L45 23L43 23L43 20L46 20L46 21L47 21L47 20L46 20L46 19L47 19L47 18L46 18L46 17L47 17L47 16L45 16L45 15L44 15L44 16L45 16L45 17L44 17L44 19L42 19L42 21L40 21L40 20L41 20L41 19L40 19L40 18L43 18L43 15L42 15L42 14L41 14L41 15L40 15L40 16L35 16L35 17L36 17L36 18L33 18L33 17L34 17L34 15L36 15L36 14L34 14L34 15L32 15L32 18L33 18L33 20L34 20L34 19L37 19L37 20L36 20L36 21L35 21L35 22L33 22L33 23L32 23L32 22L31 22L31 23L29 23L29 22L28 22L28 23L29 23L29 25L30 25L30 24L31 24L31 23L32 23L32 24L33 24L33 23L34 23L34 25L37 25L37 26L36 26L36 27L37 27L37 28L35 28L35 30L33 30L33 29L34 29L34 27L35 27L35 26L33 26L33 25L32 25L32 26L33 26L33 28L32 28L32 27L29 27L29 26L28 26L28 25L26 25L26 23L25 23L25 21L26 21L26 22L27 22L27 21L28 21L28 19L29 19L29 20L31 20L31 21L32 21L32 19L31 19L31 17L30 17L30 18L29 18L29 17L24 17L24 15L25 15L25 13L24 13L24 14L23 14L23 13L21 13L21 12L22 12L22 11L25 11L25 12L26 12L26 11L25 11L25 9ZM26 9L26 10L27 10L27 11L29 11L29 13L30 13L30 12L31 12L31 11L29 11L29 10L27 10L27 9ZM44 9L44 10L45 10L45 9ZM52 9L52 11L53 11L53 13L55 13L55 12L54 12L54 11L57 11L57 10L58 10L58 9L57 9L57 10L56 10L56 9L55 9L55 10L54 10L54 11L53 11L53 9ZM38 10L38 11L39 11L39 10ZM38 12L38 13L37 13L37 14L38 14L38 15L39 15L39 14L40 14L40 12ZM6 13L6 14L7 14L7 13ZM20 13L20 14L21 14L21 13ZM26 13L26 16L27 16L27 15L29 15L29 14L27 14L27 13ZM32 13L32 14L33 14L33 13ZM38 13L38 14L39 14L39 13ZM60 14L60 15L61 15L61 14ZM30 15L30 16L31 16L31 15ZM1 16L1 17L0 17L0 18L1 18L1 19L0 19L0 20L2 20L2 19L3 19L3 18L2 18L2 16ZM8 16L8 17L10 17L10 16ZM18 16L18 17L19 17L19 16ZM40 16L40 17L42 17L42 16ZM60 16L60 17L61 17L61 16ZM37 17L37 18L39 18L39 17ZM50 18L50 19L51 19L51 18ZM38 19L38 20L37 20L37 22L36 22L36 23L35 23L35 24L37 24L37 25L38 25L38 26L37 26L37 27L38 27L38 26L39 26L39 24L37 24L37 22L39 22L39 21L38 21L38 20L39 20L39 19ZM54 19L54 20L55 20L55 19ZM26 20L26 21L27 21L27 20ZM48 20L48 21L49 21L49 20ZM50 20L50 21L51 21L51 20ZM40 22L40 23L41 23L41 24L40 24L40 25L43 25L43 23L42 23L42 22ZM4 24L4 25L5 25L5 24ZM59 24L59 25L60 25L60 24ZM11 25L11 26L10 26L10 27L11 27L11 26L12 26L12 25ZM3 26L3 27L4 27L4 28L5 28L5 27L6 27L6 28L7 28L7 27L6 27L6 26ZM18 26L18 27L20 27L20 26ZM40 26L40 27L39 27L39 28L40 28L40 29L38 29L38 28L37 28L37 29L38 29L38 30L40 30L40 31L41 31L41 32L42 32L42 31L43 31L43 30L42 30L42 27L43 27L43 26L42 26L42 27L41 27L41 26ZM52 26L52 27L53 27L53 26ZM23 27L23 28L24 28L24 27ZM27 27L27 28L29 28L29 27ZM40 27L40 28L41 28L41 27ZM43 28L43 29L44 29L44 31L45 31L45 32L46 32L46 30L45 30L45 28ZM5 29L5 32L8 32L8 29ZM29 29L29 32L32 32L32 29ZM40 29L40 30L41 30L41 31L42 31L42 30L41 30L41 29ZM53 29L53 32L56 32L56 29ZM0 30L0 32L1 32L1 30ZM3 30L3 31L4 31L4 30ZM6 30L6 31L7 31L7 30ZM30 30L30 31L31 31L31 30ZM49 30L49 31L48 31L48 32L49 32L49 31L50 31L50 30ZM54 30L54 31L55 31L55 30ZM6 33L6 34L7 34L7 33ZM27 33L27 34L28 34L28 33ZM12 35L12 36L11 36L11 38L12 38L12 39L11 39L11 40L9 40L9 39L8 39L8 38L7 38L7 39L8 39L8 41L10 41L10 42L11 42L11 40L12 40L12 39L13 39L13 40L14 40L14 41L15 41L15 37L14 37L14 36L13 36L13 35ZM38 35L38 36L39 36L39 35ZM45 35L45 36L46 36L46 35ZM55 35L55 36L56 36L56 35ZM13 37L13 38L14 38L14 37ZM20 37L20 38L21 38L21 39L22 39L22 38L21 38L21 37ZM41 37L41 38L42 38L42 39L43 39L43 37ZM45 37L45 38L46 38L46 39L47 39L47 40L44 40L44 41L45 41L45 42L42 42L42 41L41 41L41 40L40 40L40 41L41 41L41 42L40 42L40 43L41 43L41 44L40 44L40 45L41 45L41 46L42 46L42 47L41 47L41 48L42 48L42 49L43 49L43 50L44 50L44 49L45 49L45 48L44 48L44 47L46 47L46 48L47 48L47 47L48 47L48 48L49 48L49 47L50 47L50 46L49 46L49 45L48 45L48 46L47 46L47 45L46 45L46 46L45 46L45 44L43 44L43 43L45 43L45 42L48 42L48 41L47 41L47 40L50 40L50 38L47 38L47 37ZM52 38L52 39L53 39L53 38ZM36 39L36 40L38 40L38 42L39 42L39 40L38 40L38 39ZM56 42L56 43L58 43L58 42ZM4 43L4 44L5 44L5 43ZM6 43L6 44L8 44L8 45L6 45L6 46L7 46L7 47L2 47L2 48L7 48L7 47L8 47L8 45L9 45L9 48L10 48L10 49L11 49L11 48L10 48L10 45L11 45L11 44L10 44L10 45L9 45L9 43ZM30 44L30 45L31 45L31 44ZM34 44L34 45L33 45L33 46L35 46L35 47L34 47L34 48L35 48L35 47L37 47L37 46L35 46L35 44ZM41 44L41 45L42 45L42 46L43 46L43 44ZM51 44L51 45L52 45L52 44ZM4 45L4 46L5 46L5 45ZM46 46L46 47L47 47L47 46ZM48 46L48 47L49 47L49 46ZM51 48L51 49L52 49L52 48ZM4 49L4 50L7 50L7 49ZM14 49L14 50L16 50L16 49ZM27 49L27 50L28 50L28 49ZM3 51L3 52L4 52L4 51ZM27 51L27 52L26 52L26 53L27 53L27 52L28 52L28 51ZM17 52L17 53L16 53L16 54L17 54L17 55L16 55L16 56L14 56L14 55L15 55L15 54L14 54L14 55L13 55L13 54L12 54L12 53L11 53L11 54L12 54L12 55L13 55L13 56L12 56L12 57L15 57L15 58L17 58L17 57L18 57L18 56L17 56L17 55L18 55L18 54L19 54L19 53L18 53L18 52ZM36 52L36 53L35 53L35 54L34 54L34 55L35 55L35 54L37 54L37 52ZM60 52L60 53L61 53L61 52ZM20 53L20 55L22 55L22 54L21 54L21 53ZM29 53L29 56L32 56L32 53ZM44 53L44 54L45 54L45 55L46 55L46 57L47 57L47 58L45 58L45 59L47 59L47 58L48 58L48 59L49 59L49 58L48 58L48 57L49 57L49 56L48 56L48 55L47 55L47 54L46 54L46 53ZM53 53L53 56L56 56L56 53ZM30 54L30 55L31 55L31 54ZM54 54L54 55L55 55L55 54ZM59 54L59 55L61 55L61 54ZM40 55L40 56L41 56L41 55ZM8 56L8 61L10 61L10 60L11 60L11 59L10 59L10 56ZM16 56L16 57L17 57L17 56ZM31 57L31 58L28 58L28 59L29 59L29 60L32 60L32 59L34 59L34 58L33 58L33 57ZM53 57L53 58L52 58L52 59L53 59L53 60L54 60L54 59L55 59L55 58L54 58L54 57ZM18 58L18 59L16 59L16 60L19 60L19 59L20 59L20 58ZM31 58L31 59L32 59L32 58ZM9 59L9 60L10 60L10 59ZM42 60L42 61L43 61L43 60ZM0 0L0 7L7 7L7 0ZM1 1L1 6L6 6L6 1ZM2 2L2 5L5 5L5 2ZM54 0L54 7L61 7L61 0ZM55 1L55 6L60 6L60 1ZM56 2L56 5L59 5L59 2ZM0 54L0 61L7 61L7 54ZM1 55L1 60L6 60L6 55ZM2 56L2 59L5 59L5 56Z" fill="#000000"/></g></g></svg>
