<?xml version="1.0" encoding="UTF-8"?>
<svg xmlns="http://www.w3.org/2000/svg" version="1.1" width="300" height="300" viewBox="0 0 300 300"><rect x="0" y="0" width="300" height="300" fill="#ffffff"/><g transform="scale(4.615)"><g transform="translate(0,0)"><path fill-rule="evenodd" d="M9 0L9 1L8 1L8 2L11 2L11 3L10 3L10 4L9 4L9 3L8 3L8 4L9 4L9 5L8 5L8 7L9 7L9 8L6 8L6 9L8 9L8 10L6 10L6 11L9 11L9 12L8 12L8 13L7 13L7 12L5 12L5 13L4 13L4 12L3 12L3 11L2 11L2 13L0 13L0 14L1 14L1 16L2 16L2 15L3 15L3 17L1 17L1 18L2 18L2 19L0 19L0 20L1 20L1 22L2 22L2 20L3 20L3 17L4 17L4 21L7 21L7 22L6 22L6 23L5 23L5 24L6 24L6 25L7 25L7 26L5 26L5 27L2 27L2 25L0 25L0 26L1 26L1 27L0 27L0 31L1 31L1 29L2 29L2 30L3 30L3 31L2 31L2 32L4 32L4 34L3 34L3 33L0 33L0 35L1 35L1 36L2 36L2 37L1 37L1 39L0 39L0 41L2 41L2 42L1 42L1 43L3 43L3 44L2 44L2 45L1 45L1 48L0 48L0 49L1 49L1 50L0 50L0 51L1 51L1 52L0 52L0 54L2 54L2 55L3 55L3 56L1 56L1 55L0 55L0 56L1 56L1 57L3 57L3 56L4 56L4 57L5 57L5 56L4 56L4 54L3 54L3 52L2 52L2 51L4 51L4 53L7 53L7 52L9 52L9 53L8 53L8 54L5 54L5 55L8 55L8 56L6 56L6 57L8 57L8 59L9 59L9 60L8 60L8 65L10 65L10 64L11 64L11 65L12 65L12 64L11 64L11 63L12 63L12 62L13 62L13 65L21 65L21 63L22 63L22 62L24 62L24 61L25 61L25 60L26 60L26 59L27 59L27 61L26 61L26 63L28 63L28 64L29 64L29 65L33 65L33 64L34 64L34 63L32 63L32 62L34 62L34 61L36 61L36 62L35 62L35 63L36 63L36 62L38 62L38 63L37 63L37 64L35 64L35 65L38 65L38 63L39 63L39 64L41 64L41 65L42 65L42 63L43 63L43 61L41 61L41 62L42 62L42 63L39 63L39 62L38 62L38 61L39 61L39 60L41 60L41 59L42 59L42 60L45 60L45 61L44 61L44 62L45 62L45 63L44 63L44 64L43 64L43 65L44 65L44 64L45 64L45 65L50 65L50 64L51 64L51 63L52 63L52 64L53 64L53 65L55 65L55 64L57 64L57 65L59 65L59 64L60 64L60 65L63 65L63 64L64 64L64 60L62 60L62 59L61 59L61 58L62 58L62 57L63 57L63 58L65 58L65 57L64 57L64 56L65 56L65 55L64 55L64 54L65 54L65 53L63 53L63 52L65 52L65 51L64 51L64 50L65 50L65 49L64 49L64 48L62 48L62 49L59 49L59 51L56 51L56 50L58 50L58 49L53 49L53 50L55 50L55 51L54 51L54 52L56 52L56 53L58 53L58 54L59 54L59 55L56 55L56 54L55 54L55 53L54 53L54 54L53 54L53 56L54 56L54 58L56 58L56 60L55 60L55 59L52 59L52 58L53 58L53 57L51 57L51 58L49 58L49 57L50 57L50 56L48 56L48 54L50 54L50 55L51 55L51 56L52 56L52 55L51 55L51 54L50 54L50 53L51 53L51 52L53 52L53 51L51 51L51 50L52 50L52 49L51 49L51 50L50 50L50 49L49 49L49 48L54 48L54 47L52 47L52 46L50 46L50 47L49 47L49 46L48 46L48 47L49 47L49 48L47 48L47 49L48 49L48 50L46 50L46 51L49 51L49 50L50 50L50 51L51 51L51 52L48 52L48 54L46 54L46 52L45 52L45 51L42 51L42 52L43 52L43 53L41 53L41 54L43 54L43 55L42 55L42 56L45 56L45 55L47 55L47 56L48 56L48 59L47 59L47 58L46 58L46 57L41 57L41 59L40 59L40 57L39 57L39 56L41 56L41 55L39 55L39 54L40 54L40 53L39 53L39 54L38 54L38 52L35 52L35 51L36 51L36 50L35 50L35 49L37 49L37 50L38 50L38 51L39 51L39 52L41 52L41 50L44 50L44 48L45 48L45 49L46 49L46 48L45 48L45 47L47 47L47 46L45 46L45 45L44 45L44 48L43 48L43 49L40 49L40 48L42 48L42 47L41 47L41 45L39 45L39 46L38 46L38 47L37 47L37 44L41 44L41 42L40 42L40 41L39 41L39 40L42 40L42 42L43 42L43 44L45 44L45 43L44 43L44 42L46 42L46 45L47 45L47 42L49 42L49 43L52 43L52 44L50 44L50 45L52 45L52 44L53 44L53 46L59 46L59 47L61 47L61 45L63 45L63 46L64 46L64 45L65 45L65 43L63 43L63 42L65 42L65 40L64 40L64 38L65 38L65 37L64 37L64 36L65 36L65 35L64 35L64 34L65 34L65 31L64 31L64 32L61 32L61 31L63 31L63 30L56 30L56 31L54 31L54 32L56 32L56 35L53 35L53 34L55 34L55 33L53 33L53 34L50 34L50 32L48 32L48 33L47 33L47 34L46 34L46 35L45 35L45 33L44 33L44 32L45 32L45 31L44 31L44 32L43 32L43 31L42 31L42 30L45 30L45 29L42 29L42 30L41 30L41 29L40 29L40 32L41 32L41 31L42 31L42 33L41 33L41 34L43 34L43 35L42 35L42 37L41 37L41 39L40 39L40 38L38 38L38 37L39 37L39 36L41 36L41 35L40 35L40 33L39 33L39 34L38 34L38 32L39 32L39 30L38 30L38 32L36 32L36 34L35 34L35 30L34 30L34 29L33 29L33 30L32 30L32 28L33 28L33 27L39 27L39 28L38 28L38 29L39 29L39 28L41 28L41 27L40 27L40 26L37 26L37 24L36 24L36 26L34 26L34 24L35 24L35 23L37 23L37 20L36 20L36 19L37 19L37 18L38 18L38 21L39 21L39 20L41 20L41 19L40 19L40 18L41 18L41 17L39 17L39 16L41 16L41 14L40 14L40 15L39 15L39 14L38 14L38 15L39 15L39 16L36 16L36 15L37 15L37 12L36 12L36 13L35 13L35 10L34 10L34 9L35 9L35 8L36 8L36 9L38 9L38 7L39 7L39 8L41 8L41 6L40 6L40 5L37 5L37 2L39 2L39 1L38 1L38 0L35 0L35 1L34 1L34 2L33 2L33 3L27 3L27 0L26 0L26 1L25 1L25 0L24 0L24 1L23 1L23 0L21 0L21 1L20 1L20 2L21 2L21 3L19 3L19 4L18 4L18 3L17 3L17 2L18 2L18 0L14 0L14 2L15 2L15 6L14 6L14 4L13 4L13 3L12 3L12 0L11 0L11 1L10 1L10 0ZM30 0L30 1L29 1L29 2L30 2L30 1L31 1L31 0ZM32 0L32 1L33 1L33 0ZM41 0L41 2L40 2L40 3L42 3L42 5L43 5L43 4L44 4L44 5L45 5L45 6L44 6L44 8L45 8L45 10L44 10L44 9L40 9L40 10L38 10L38 11L39 11L39 12L38 12L38 13L40 13L40 12L42 12L42 14L43 14L43 15L42 15L42 16L43 16L43 17L42 17L42 18L43 18L43 19L42 19L42 20L43 20L43 21L40 21L40 22L38 22L38 23L39 23L39 24L38 24L38 25L39 25L39 24L41 24L41 25L42 25L42 26L43 26L43 24L45 24L45 26L44 26L44 27L42 27L42 28L45 28L45 26L46 26L46 27L47 27L47 28L48 28L48 29L49 29L49 30L48 30L48 31L51 31L51 32L53 32L53 31L52 31L52 28L53 28L53 25L51 25L51 24L52 24L52 23L53 23L53 24L54 24L54 26L55 26L55 27L56 27L56 26L55 26L55 24L56 24L56 25L58 25L58 23L59 23L59 24L60 24L60 27L61 27L61 28L59 28L59 29L63 29L63 28L62 28L62 25L63 25L63 26L65 26L65 25L64 25L64 24L65 24L65 23L63 23L63 22L65 22L65 19L64 19L64 18L65 18L65 15L64 15L64 14L65 14L65 13L63 13L63 12L62 12L62 11L61 11L61 10L62 10L62 8L61 8L61 9L60 9L60 8L59 8L59 9L60 9L60 11L59 11L59 10L58 10L58 8L57 8L57 6L56 6L56 7L55 7L55 5L54 5L54 4L56 4L56 5L57 5L57 4L56 4L56 3L57 3L57 1L56 1L56 0L55 0L55 1L56 1L56 3L55 3L55 2L54 2L54 0L51 0L51 1L50 1L50 0L49 0L49 1L50 1L50 2L49 2L49 3L47 3L47 1L46 1L46 0L45 0L45 2L44 2L44 0ZM16 1L16 2L17 2L17 1ZM21 1L21 2L22 2L22 1ZM36 1L36 2L37 2L37 1ZM42 1L42 3L43 3L43 1ZM51 1L51 2L52 2L52 1ZM24 2L24 4L25 4L25 5L23 5L23 4L22 4L22 3L21 3L21 4L20 4L20 5L19 5L19 7L18 7L18 4L17 4L17 5L16 5L16 6L15 6L15 9L14 9L14 8L13 8L13 9L12 9L12 5L11 5L11 4L10 4L10 5L9 5L9 7L10 7L10 5L11 5L11 9L10 9L10 10L9 10L9 11L10 11L10 12L11 12L11 13L13 13L13 15L14 15L14 16L15 16L15 17L17 17L17 16L19 16L19 17L18 17L18 18L17 18L17 19L15 19L15 18L13 18L13 19L15 19L15 21L16 21L16 22L15 22L15 23L14 23L14 24L15 24L15 23L16 23L16 24L17 24L17 25L15 25L15 27L14 27L14 26L13 26L13 25L12 25L12 28L13 28L13 27L14 27L14 28L15 28L15 27L17 27L17 28L16 28L16 29L15 29L15 30L16 30L16 29L17 29L17 31L18 31L18 32L17 32L17 33L15 33L15 32L16 32L16 31L14 31L14 30L13 30L13 29L12 29L12 30L9 30L9 31L10 31L10 33L9 33L9 34L11 34L11 35L9 35L9 36L7 36L7 35L4 35L4 36L3 36L3 37L2 37L2 38L3 38L3 37L5 37L5 38L4 38L4 39L3 39L3 40L2 40L2 39L1 39L1 40L2 40L2 41L3 41L3 42L4 42L4 41L5 41L5 42L7 42L7 43L6 43L6 44L7 44L7 45L6 45L6 46L7 46L7 47L6 47L6 48L5 48L5 47L3 47L3 48L4 48L4 49L3 49L3 50L4 50L4 51L5 51L5 52L7 52L7 51L6 51L6 50L7 50L7 49L9 49L9 50L8 50L8 51L9 51L9 52L10 52L10 51L9 51L9 50L10 50L10 46L11 46L11 51L12 51L12 50L13 50L13 52L14 52L14 50L15 50L15 51L16 51L16 52L15 52L15 53L16 53L16 54L17 54L17 53L18 53L18 52L17 52L17 51L18 51L18 50L19 50L19 52L22 52L22 53L20 53L20 56L19 56L19 57L18 57L18 58L19 58L19 59L21 59L21 57L25 57L25 58L23 58L23 59L24 59L24 60L19 60L19 61L18 61L18 59L17 59L17 57L16 57L16 56L17 56L17 55L16 55L16 56L15 56L15 58L16 58L16 59L14 59L14 58L13 58L13 57L12 57L12 58L11 58L11 57L10 57L10 55L11 55L11 54L10 54L10 53L9 53L9 56L8 56L8 57L10 57L10 58L11 58L11 61L10 61L10 60L9 60L9 62L10 62L10 63L9 63L9 64L10 64L10 63L11 63L11 61L12 61L12 60L13 60L13 62L16 62L16 61L17 61L17 62L19 62L19 63L20 63L20 62L19 62L19 61L24 61L24 60L25 60L25 58L26 58L26 57L27 57L27 59L29 59L29 60L28 60L28 61L27 61L27 62L28 62L28 61L29 61L29 64L32 64L32 63L30 63L30 62L32 62L32 61L29 61L29 60L30 60L30 57L27 57L27 56L28 56L28 55L29 55L29 54L30 54L30 55L33 55L33 56L34 56L34 55L35 55L35 56L38 56L38 54L36 54L36 53L35 53L35 52L34 52L34 53L35 53L35 54L33 54L33 53L32 53L32 52L33 52L33 51L32 51L32 50L34 50L34 51L35 51L35 50L34 50L34 49L35 49L35 48L34 48L34 49L32 49L32 48L31 48L31 49L30 49L30 47L29 47L29 46L30 46L30 45L29 45L29 42L30 42L30 43L31 43L31 41L32 41L32 42L33 42L33 43L34 43L34 45L35 45L35 46L33 46L33 47L36 47L36 48L37 48L37 49L38 49L38 50L39 50L39 51L40 51L40 50L39 50L39 47L40 47L40 46L39 46L39 47L38 47L38 48L37 48L37 47L36 47L36 45L35 45L35 44L37 44L37 42L35 42L35 43L34 43L34 42L33 42L33 41L34 41L34 39L35 39L35 40L37 40L37 41L38 41L38 42L39 42L39 43L40 43L40 42L39 42L39 41L38 41L38 38L35 38L35 36L37 36L37 37L38 37L38 36L39 36L39 35L38 35L38 34L37 34L37 35L35 35L35 36L34 36L34 35L33 35L33 36L34 36L34 37L32 37L32 35L31 35L31 37L32 37L32 38L30 38L30 37L28 37L28 38L27 38L27 37L25 37L25 36L26 36L26 35L25 35L25 34L26 34L26 33L27 33L27 35L29 35L29 36L30 36L30 34L29 34L29 33L27 33L27 32L28 32L28 31L27 31L27 32L26 32L26 31L25 31L25 29L27 29L27 30L28 30L28 29L29 29L29 28L30 28L30 30L31 30L31 28L30 28L30 27L33 27L33 24L34 24L34 23L35 23L35 20L34 20L34 19L33 19L33 20L32 20L32 19L31 19L31 18L35 18L35 19L36 19L36 18L37 18L37 17L34 17L34 14L35 14L35 15L36 15L36 14L35 14L35 13L34 13L34 14L32 14L32 13L33 13L33 12L32 12L32 11L31 11L31 12L30 12L30 11L29 11L29 9L30 9L30 8L29 8L29 9L27 9L27 8L24 8L24 6L25 6L25 7L26 7L26 6L25 6L25 5L27 5L27 4L25 4L25 3L26 3L26 2ZM34 2L34 3L35 3L35 2ZM53 2L53 3L49 3L49 5L47 5L47 4L46 4L46 3L44 3L44 4L46 4L46 5L47 5L47 7L48 7L48 8L46 8L46 10L45 10L45 12L44 12L44 10L42 10L42 11L43 11L43 13L45 13L45 14L44 14L44 15L43 15L43 16L44 16L44 17L45 17L45 18L44 18L44 19L45 19L45 18L47 18L47 19L46 19L46 20L49 20L49 21L50 21L50 22L51 22L51 23L52 23L52 22L51 22L51 21L53 21L53 20L55 20L55 18L54 18L54 16L55 16L55 17L56 17L56 22L53 22L53 23L56 23L56 22L59 22L59 23L60 23L60 24L61 24L61 25L62 25L62 24L63 24L63 23L62 23L62 22L63 22L63 21L59 21L59 19L60 19L60 20L61 20L61 19L62 19L62 20L63 20L63 19L62 19L62 18L63 18L63 17L61 17L61 19L60 19L60 17L56 17L56 14L59 14L59 15L58 15L58 16L59 16L59 15L60 15L60 16L64 16L64 15L62 15L62 14L63 14L63 13L62 13L62 12L61 12L61 11L60 11L60 12L61 12L61 15L60 15L60 14L59 14L59 13L56 13L56 12L59 12L59 11L56 11L56 10L57 10L57 9L56 9L56 8L55 8L55 7L54 7L54 5L52 5L52 4L53 4L53 3L54 3L54 2ZM38 3L38 4L39 4L39 3ZM21 4L21 5L20 5L20 9L21 9L21 10L23 10L23 11L25 11L25 9L21 9L21 5L22 5L22 8L23 8L23 5L22 5L22 4ZM28 4L28 5L30 5L30 4ZM31 5L31 8L34 8L34 5ZM50 5L50 7L51 7L51 8L50 8L50 9L52 9L52 8L54 8L54 7L53 7L53 6L52 6L52 5ZM13 6L13 7L14 7L14 6ZM16 6L16 7L17 7L17 6ZM27 6L27 7L28 7L28 6ZM29 6L29 7L30 7L30 6ZM32 6L32 7L33 7L33 6ZM35 6L35 7L36 7L36 8L37 8L37 7L38 7L38 6L37 6L37 7L36 7L36 6ZM39 6L39 7L40 7L40 6ZM42 6L42 8L43 8L43 6ZM45 6L45 7L46 7L46 6ZM48 6L48 7L49 7L49 6ZM51 6L51 7L52 7L52 6ZM0 8L0 12L1 12L1 10L4 10L4 9L5 9L5 8ZM16 8L16 10L15 10L15 11L16 11L16 13L15 13L15 14L14 14L14 15L15 15L15 16L17 16L17 15L16 15L16 14L17 14L17 12L18 12L18 13L20 13L20 10L19 10L19 12L18 12L18 11L16 11L16 10L18 10L18 9L19 9L19 8L18 8L18 9L17 9L17 8ZM48 8L48 9L47 9L47 10L46 10L46 11L47 11L47 13L49 13L49 14L50 14L50 15L49 15L49 16L48 16L48 15L47 15L47 14L46 14L46 15L44 15L44 16L45 16L45 17L47 17L47 16L48 16L48 17L49 17L49 18L48 18L48 19L49 19L49 18L50 18L50 19L51 19L51 20L50 20L50 21L51 21L51 20L53 20L53 17L52 17L52 19L51 19L51 18L50 18L50 17L51 17L51 16L54 16L54 15L55 15L55 13L53 13L53 14L50 14L50 13L49 13L49 12L48 12L48 11L50 11L50 12L51 12L51 13L52 13L52 12L53 12L53 11L54 11L54 12L55 12L55 11L54 11L54 10L55 10L55 9L53 9L53 10L48 10L48 9L49 9L49 8ZM63 8L63 9L64 9L64 10L65 10L65 9L64 9L64 8ZM13 9L13 10L12 10L12 11L11 11L11 12L12 12L12 11L13 11L13 12L14 12L14 11L13 11L13 10L14 10L14 9ZM26 9L26 10L27 10L27 11L26 11L26 12L23 12L23 13L22 13L22 15L21 15L21 16L20 16L20 17L21 17L21 18L20 18L20 19L19 19L19 18L18 18L18 19L17 19L17 20L18 20L18 21L17 21L17 22L19 22L19 21L22 21L22 20L20 20L20 19L22 19L22 18L25 18L25 17L26 17L26 18L27 18L27 17L26 17L26 15L27 15L27 16L28 16L28 17L32 17L32 16L33 16L33 15L32 15L32 14L31 14L31 13L32 13L32 12L31 12L31 13L30 13L30 14L29 14L29 15L30 15L30 16L28 16L28 15L27 15L27 14L28 14L28 13L26 13L26 12L27 12L27 11L28 11L28 12L29 12L29 11L28 11L28 10L27 10L27 9ZM31 9L31 10L32 10L32 9ZM36 10L36 11L37 11L37 10ZM40 10L40 11L41 11L41 10ZM47 10L47 11L48 11L48 10ZM21 11L21 12L22 12L22 11ZM3 13L3 14L4 14L4 15L5 15L5 14L7 14L7 15L6 15L6 16L4 16L4 17L5 17L5 20L7 20L7 21L8 21L8 20L7 20L7 19L11 19L11 20L9 20L9 21L10 21L10 22L11 22L11 23L12 23L12 22L11 22L11 21L13 21L13 22L14 22L14 20L12 20L12 18L11 18L11 17L13 17L13 16L11 16L11 15L9 15L9 16L10 16L10 18L9 18L9 17L8 17L8 16L7 16L7 15L8 15L8 14L7 14L7 13L5 13L5 14L4 14L4 13ZM23 13L23 14L24 14L24 13ZM25 13L25 15L26 15L26 13ZM19 14L19 15L20 15L20 14ZM22 15L22 17L23 17L23 16L24 16L24 17L25 17L25 16L24 16L24 15ZM31 15L31 16L32 16L32 15ZM46 15L46 16L47 16L47 15ZM6 16L6 17L7 17L7 16ZM49 16L49 17L50 17L50 16ZM38 17L38 18L39 18L39 17ZM6 18L6 19L7 19L7 18ZM28 18L28 19L29 19L29 18ZM57 18L57 19L59 19L59 18ZM24 19L24 20L26 20L26 19ZM30 19L30 20L31 20L31 19ZM28 20L28 21L27 21L27 23L26 23L26 24L27 24L27 25L26 25L26 26L27 26L27 27L25 27L25 25L21 25L21 24L24 24L24 23L25 23L25 22L26 22L26 21L24 21L24 23L23 23L23 22L22 22L22 23L21 23L21 22L20 22L20 23L21 23L21 24L20 24L20 25L19 25L19 24L18 24L18 25L19 25L19 26L18 26L18 27L19 27L19 28L17 28L17 29L19 29L19 30L20 30L20 31L19 31L19 32L18 32L18 33L19 33L19 35L20 35L20 37L21 37L21 38L22 38L22 39L21 39L21 40L20 40L20 39L19 39L19 37L18 37L18 36L16 36L16 35L18 35L18 34L12 34L12 35L11 35L11 36L10 36L10 37L12 37L12 38L11 38L11 40L8 40L8 39L7 39L7 38L5 38L5 39L4 39L4 40L5 40L5 39L7 39L7 40L6 40L6 41L7 41L7 42L8 42L8 43L7 43L7 44L10 44L10 43L11 43L11 44L13 44L13 45L15 45L15 46L13 46L13 48L12 48L12 49L13 49L13 50L14 50L14 49L15 49L15 48L16 48L16 49L17 49L17 50L18 50L18 49L19 49L19 50L20 50L20 51L22 51L22 50L23 50L23 54L26 54L26 53L24 53L24 50L25 50L25 49L26 49L26 50L27 50L27 53L29 53L29 50L27 50L27 49L29 49L29 48L28 48L28 47L25 47L25 45L26 45L26 44L28 44L28 43L26 43L26 44L25 44L25 41L24 41L24 39L27 39L27 38L25 38L25 37L24 37L24 38L22 38L22 37L23 37L23 33L22 33L22 35L20 35L20 33L21 33L21 32L24 32L24 31L22 31L22 30L24 30L24 29L25 29L25 28L27 28L27 29L28 29L28 28L29 28L29 27L28 27L28 26L27 26L27 25L29 25L29 24L32 24L32 23L34 23L34 21L33 21L33 22L32 22L32 21L30 21L30 22L31 22L31 23L29 23L29 22L28 22L28 21L29 21L29 20ZM44 20L44 22L42 22L42 24L43 24L43 23L45 23L45 24L46 24L46 26L47 26L47 27L48 27L48 28L49 28L49 27L50 27L50 26L51 26L51 28L52 28L52 26L51 26L51 25L50 25L50 23L49 23L49 22L48 22L48 21L45 21L45 20ZM57 20L57 21L58 21L58 20ZM3 22L3 23L4 23L4 22ZM8 22L8 26L7 26L7 27L5 27L5 28L4 28L4 29L5 29L5 30L8 30L8 29L5 29L5 28L9 28L9 29L11 29L11 28L9 28L9 27L8 27L8 26L10 26L10 25L11 25L11 24L10 24L10 25L9 25L9 22ZM45 22L45 23L47 23L47 24L48 24L48 25L49 25L49 24L48 24L48 22ZM60 22L60 23L61 23L61 22ZM1 23L1 24L2 24L2 23ZM6 23L6 24L7 24L7 23ZM28 23L28 24L29 24L29 23ZM20 25L20 26L19 26L19 27L20 27L20 28L19 28L19 29L24 29L24 28L21 28L21 25ZM30 25L30 26L32 26L32 25ZM22 26L22 27L24 27L24 26ZM48 26L48 27L49 27L49 26ZM57 26L57 28L55 28L55 29L53 29L53 30L55 30L55 29L57 29L57 28L58 28L58 26ZM1 27L1 28L2 28L2 29L3 29L3 28L2 28L2 27ZM27 27L27 28L28 28L28 27ZM64 27L64 28L65 28L65 27ZM35 28L35 29L36 29L36 30L37 30L37 28ZM50 29L50 30L51 30L51 29ZM64 29L64 30L65 30L65 29ZM12 30L12 31L11 31L11 33L12 33L12 32L13 32L13 33L14 33L14 32L13 32L13 30ZM5 31L5 34L8 34L8 31ZM29 31L29 32L30 32L30 31ZM31 31L31 34L34 34L34 31ZM57 31L57 34L60 34L60 31ZM6 32L6 33L7 33L7 32ZM19 32L19 33L20 33L20 32ZM25 32L25 33L24 33L24 34L25 34L25 33L26 33L26 32ZM32 32L32 33L33 33L33 32ZM58 32L58 33L59 33L59 32ZM43 33L43 34L44 34L44 33ZM61 33L61 35L60 35L60 36L58 36L58 35L57 35L57 36L55 36L55 38L54 38L54 36L51 36L51 35L50 35L50 34L49 34L49 35L47 35L47 36L44 36L44 35L43 35L43 36L44 36L44 37L43 37L43 38L42 38L42 40L43 40L43 42L44 42L44 41L45 41L45 40L43 40L43 39L45 39L45 38L47 38L47 39L48 39L48 40L46 40L46 42L47 42L47 41L48 41L48 40L49 40L49 42L52 42L52 43L53 43L53 44L55 44L55 45L59 45L59 46L60 46L60 45L61 45L61 44L60 44L60 45L59 45L59 44L56 44L56 43L59 43L59 41L57 41L57 42L56 42L56 43L55 43L55 42L54 42L54 41L56 41L56 40L54 40L54 39L57 39L57 40L58 40L58 39L60 39L60 41L61 41L61 42L63 42L63 41L64 41L64 40L63 40L63 37L62 37L62 36L63 36L63 35L62 35L62 34L64 34L64 33ZM1 34L1 35L3 35L3 34ZM13 35L13 36L15 36L15 37L13 37L13 38L15 38L15 37L16 37L16 38L17 38L17 40L19 40L19 39L18 39L18 37L16 37L16 36L15 36L15 35ZM24 35L24 36L25 36L25 35ZM49 35L49 36L47 36L47 37L49 37L49 38L48 38L48 39L51 39L51 40L50 40L50 41L51 41L51 40L52 40L52 39L53 39L53 38L50 38L50 35ZM61 35L61 36L62 36L62 35ZM6 36L6 37L7 37L7 36ZM21 36L21 37L22 37L22 36ZM8 37L8 38L9 38L9 37ZM56 37L56 38L57 38L57 37ZM60 37L60 38L61 38L61 37ZM29 38L29 39L30 39L30 40L31 40L31 39L30 39L30 38ZM32 38L32 39L33 39L33 38ZM12 39L12 40L13 40L13 41L9 41L9 42L11 42L11 43L13 43L13 44L15 44L15 45L16 45L16 46L15 46L15 47L14 47L14 48L15 48L15 47L16 47L16 48L19 48L19 49L20 49L20 50L21 50L21 49L23 49L23 48L24 48L24 49L25 49L25 48L24 48L24 47L23 47L23 46L24 46L24 45L23 45L23 44L24 44L24 43L23 43L23 42L22 42L22 43L21 43L21 41L23 41L23 40L21 40L21 41L20 41L20 43L19 43L19 41L15 41L15 39L14 39L14 40L13 40L13 39ZM61 39L61 40L62 40L62 41L63 41L63 40L62 40L62 39ZM7 40L7 41L8 41L8 40ZM27 40L27 41L26 41L26 42L27 42L27 41L29 41L29 40ZM32 40L32 41L33 41L33 40ZM14 41L14 43L15 43L15 44L16 44L16 43L17 43L17 45L20 45L20 44L21 44L21 43L20 43L20 44L19 44L19 43L17 43L17 42L15 42L15 41ZM52 41L52 42L53 42L53 41ZM4 43L4 45L5 45L5 43ZM62 43L62 44L63 44L63 45L64 45L64 44L63 44L63 43ZM31 44L31 45L33 45L33 44ZM48 44L48 45L49 45L49 44ZM2 45L2 46L3 46L3 45ZM7 45L7 46L8 46L8 45ZM9 45L9 46L10 46L10 45ZM21 45L21 46L23 46L23 45ZM27 45L27 46L28 46L28 45ZM42 45L42 46L43 46L43 45ZM18 46L18 47L20 47L20 46ZM31 46L31 47L32 47L32 46ZM8 47L8 48L9 48L9 47ZM21 47L21 48L20 48L20 49L21 49L21 48L22 48L22 47ZM55 47L55 48L56 48L56 47ZM57 47L57 48L58 48L58 47ZM1 48L1 49L2 49L2 48ZM6 48L6 49L7 49L7 48ZM26 48L26 49L27 49L27 48ZM4 49L4 50L5 50L5 49ZM31 49L31 50L30 50L30 51L31 51L31 50L32 50L32 49ZM62 49L62 52L63 52L63 49ZM25 51L25 52L26 52L26 51ZM59 51L59 52L58 52L58 53L61 53L61 51ZM11 52L11 53L12 53L12 56L13 56L13 55L15 55L15 54L14 54L14 53L12 53L12 52ZM16 52L16 53L17 53L17 52ZM44 52L44 55L45 55L45 52ZM30 53L30 54L31 54L31 53ZM21 54L21 55L22 55L22 54ZM27 54L27 55L26 55L26 56L25 56L25 55L24 55L24 56L25 56L25 57L26 57L26 56L27 56L27 55L28 55L28 54ZM35 54L35 55L36 55L36 54ZM54 54L54 56L55 56L55 57L56 57L56 56L55 56L55 54ZM60 54L60 56L61 56L61 57L62 57L62 56L63 56L63 55L62 55L62 54ZM61 55L61 56L62 56L62 55ZM20 56L20 57L19 57L19 58L20 58L20 57L21 57L21 56ZM31 57L31 60L34 60L34 57ZM35 57L35 59L36 59L36 60L37 60L37 61L38 61L38 60L39 60L39 59L38 59L38 58L39 58L39 57ZM57 57L57 60L60 60L60 57ZM32 58L32 59L33 59L33 58ZM36 58L36 59L37 59L37 58ZM42 58L42 59L43 59L43 58ZM44 58L44 59L45 59L45 60L46 60L46 61L45 61L45 62L47 62L47 59L46 59L46 58ZM58 58L58 59L59 59L59 58ZM13 59L13 60L14 60L14 59ZM48 59L48 60L49 60L49 63L48 63L48 64L50 64L50 62L51 62L51 61L50 61L50 60L52 60L52 61L53 61L53 60L52 60L52 59ZM15 60L15 61L16 61L16 60ZM54 60L54 61L55 61L55 62L54 62L54 63L53 63L53 64L54 64L54 63L55 63L55 62L56 62L56 63L57 63L57 64L59 64L59 63L58 63L58 61L55 61L55 60ZM61 60L61 61L59 61L59 62L61 62L61 63L60 63L60 64L63 64L63 61L62 61L62 60ZM15 63L15 64L16 64L16 63ZM17 63L17 64L18 64L18 63ZM23 63L23 64L24 64L24 63ZM46 63L46 64L47 64L47 63ZM25 64L25 65L26 65L26 64ZM0 0L0 7L7 7L7 0ZM1 1L1 6L6 6L6 1ZM2 2L2 5L5 5L5 2ZM58 0L58 7L65 7L65 0ZM59 1L59 6L64 6L64 1ZM60 2L60 5L63 5L63 2ZM0 58L0 65L7 65L7 58ZM1 59L1 64L6 64L6 59ZM2 60L2 63L5 63L5 60Z" fill="#000000"/></g></g></svg>
