<?xml version="1.0" encoding="UTF-8"?>
<svg xmlns="http://www.w3.org/2000/svg" version="1.1" width="300" height="300" viewBox="0 0 300 300"><rect x="0" y="0" width="300" height="300" fill="#ffffff"/><g transform="scale(4.348)"><g transform="translate(0,0)"><path fill-rule="evenodd" d="M9 0L9 1L8 1L8 2L12 2L12 3L11 3L11 4L10 4L10 3L8 3L8 4L9 4L9 5L8 5L8 7L9 7L9 5L10 5L10 7L11 7L11 4L12 4L12 3L13 3L13 2L14 2L14 1L16 1L16 0L13 0L13 2L12 2L12 1L10 1L10 0ZM18 0L18 2L17 2L17 4L21 4L21 5L22 5L22 7L21 7L21 6L20 6L20 5L17 5L17 6L16 6L16 10L15 10L15 13L14 13L14 12L12 12L12 13L13 13L13 16L12 16L12 18L11 18L11 17L10 17L10 19L9 19L9 17L8 17L8 16L10 16L10 14L11 14L11 15L12 15L12 14L11 14L11 13L10 13L10 14L9 14L9 15L8 15L8 14L5 14L5 13L4 13L4 12L3 12L3 11L4 11L4 9L5 9L5 8L0 8L0 11L2 11L2 12L0 12L0 13L4 13L4 14L2 14L2 15L1 15L1 14L0 14L0 16L1 16L1 17L2 17L2 16L3 16L3 15L4 15L4 14L5 14L5 18L4 18L4 19L5 19L5 18L6 18L6 19L8 19L8 20L5 20L5 22L3 22L3 21L4 21L4 20L3 20L3 18L2 18L2 20L3 20L3 21L2 21L2 22L0 22L0 23L2 23L2 26L6 26L6 27L8 27L8 28L6 28L6 29L5 29L5 27L4 27L4 28L2 28L2 30L1 30L1 29L0 29L0 33L1 33L1 31L2 31L2 32L3 32L3 33L4 33L4 36L3 36L3 35L2 35L2 34L1 34L1 36L0 36L0 37L3 37L3 39L2 39L2 40L1 40L1 38L0 38L0 41L1 41L1 43L2 43L2 45L4 45L4 42L5 42L5 41L7 41L7 42L6 42L6 43L5 43L5 46L3 46L3 47L4 47L4 48L5 48L5 47L7 47L7 48L6 48L6 49L2 49L2 48L1 48L1 49L2 49L2 50L1 50L1 51L0 51L0 53L2 53L2 50L3 50L3 52L5 52L5 51L8 51L8 49L7 49L7 48L10 48L10 45L13 45L13 44L14 44L14 46L13 46L13 49L9 49L9 52L6 52L6 53L5 53L5 54L3 54L3 55L2 55L2 54L0 54L0 55L2 55L2 56L1 56L1 57L2 57L2 59L3 59L3 55L4 55L4 59L7 59L7 60L6 60L6 61L7 61L7 60L9 60L9 61L8 61L8 63L9 63L9 64L8 64L8 69L9 69L9 67L11 67L11 69L14 69L14 68L15 68L15 69L22 69L22 68L23 68L23 67L26 67L26 65L18 65L18 64L15 64L15 63L13 63L13 62L12 62L12 63L9 63L9 62L11 62L11 61L10 61L10 60L13 60L13 59L12 59L12 58L13 58L13 57L14 57L14 56L13 56L13 55L15 55L15 56L16 56L16 55L15 55L15 53L22 53L22 54L21 54L21 55L22 55L22 54L23 54L23 55L25 55L25 54L27 54L27 55L26 55L26 56L24 56L24 57L23 57L23 58L24 58L24 57L26 57L26 58L25 58L25 59L26 59L26 58L27 58L27 57L30 57L30 58L29 58L29 59L30 59L30 60L28 60L28 59L27 59L27 60L28 60L28 61L29 61L29 62L30 62L30 63L31 63L31 62L32 62L32 65L31 65L31 64L29 64L29 65L31 65L31 66L30 66L30 67L31 67L31 68L30 68L30 69L31 69L31 68L33 68L33 69L36 69L36 68L38 68L38 69L40 69L40 68L41 68L41 69L43 69L43 67L42 67L42 66L43 66L43 65L44 65L44 64L45 64L45 65L49 65L49 66L48 66L48 67L47 67L47 66L46 66L46 67L44 67L44 68L45 68L45 69L51 69L51 68L48 68L48 67L49 67L49 66L50 66L50 67L51 67L51 66L52 66L52 67L53 67L53 66L55 66L55 65L54 65L54 64L55 64L55 63L54 63L54 64L53 64L53 63L51 63L51 62L49 62L49 61L50 61L50 60L48 60L48 62L43 62L43 61L44 61L44 60L45 60L45 61L46 61L46 60L47 60L47 58L50 58L50 59L52 59L52 60L53 60L53 62L55 62L55 60L57 60L57 62L58 62L58 63L56 63L56 64L58 64L58 65L56 65L56 67L54 67L54 68L53 68L53 69L56 69L56 68L57 68L57 69L61 69L61 68L62 68L62 69L63 69L63 68L64 68L64 69L65 69L65 68L67 68L67 69L68 69L68 68L67 68L67 67L66 67L66 66L67 66L67 65L65 65L65 64L68 64L68 62L69 62L69 61L68 61L68 62L67 62L67 61L66 61L66 62L65 62L65 60L67 60L67 59L68 59L68 60L69 60L69 59L68 59L68 58L67 58L67 57L66 57L66 58L67 58L67 59L65 59L65 60L63 60L63 59L62 59L62 60L60 60L60 59L61 59L61 58L58 58L58 57L59 57L59 56L60 56L60 57L61 57L61 55L62 55L62 56L63 56L63 55L62 55L62 53L63 53L63 51L62 51L62 49L60 49L60 50L58 50L58 49L59 49L59 48L60 48L60 47L61 47L61 48L62 48L62 44L63 44L63 45L65 45L65 46L63 46L63 50L64 50L64 49L66 49L66 50L65 50L65 52L64 52L64 53L65 53L65 52L68 52L68 50L69 50L69 48L68 48L68 46L69 46L69 45L68 45L68 44L67 44L67 43L68 43L68 42L69 42L69 41L68 41L68 40L67 40L67 39L68 39L68 38L69 38L69 36L68 36L68 34L69 34L69 33L66 33L66 34L67 34L67 35L65 35L65 32L69 32L69 31L64 31L64 30L65 30L65 29L66 29L66 30L67 30L67 28L68 28L68 26L69 26L69 25L68 25L68 26L67 26L67 25L66 25L66 24L68 24L68 22L69 22L69 19L67 19L67 18L66 18L66 16L67 16L67 15L65 15L65 13L64 13L64 12L68 12L68 14L69 14L69 11L68 11L68 10L69 10L69 9L68 9L68 8L67 8L67 9L66 9L66 8L65 8L65 10L62 10L62 8L61 8L61 9L59 9L59 10L58 10L58 11L57 11L57 9L56 9L56 8L60 8L60 7L61 7L61 6L60 6L60 7L59 7L59 4L57 4L57 5L55 5L55 2L56 2L56 3L59 3L59 2L58 2L58 1L61 1L61 0L58 0L58 1L57 1L57 0L53 0L53 2L52 2L52 3L50 3L50 4L49 4L49 3L48 3L48 2L49 2L49 0L47 0L47 1L45 1L45 0L41 0L41 1L40 1L40 0L39 0L39 1L38 1L38 0L37 0L37 1L36 1L36 3L34 3L34 2L35 2L35 1L34 1L34 0L33 0L33 2L32 2L32 1L30 1L30 4L29 4L29 3L28 3L28 2L27 2L27 1L28 1L28 0L27 0L27 1L26 1L26 0L24 0L24 1L23 1L23 0ZM51 0L51 1L50 1L50 2L51 2L51 1L52 1L52 0ZM19 1L19 2L18 2L18 3L19 3L19 2L20 2L20 1ZM21 1L21 2L22 2L22 4L25 4L25 5L23 5L23 7L24 7L24 8L25 8L25 9L27 9L27 8L26 8L26 6L27 6L27 7L28 7L28 8L29 8L29 9L28 9L28 11L27 11L27 10L26 10L26 11L25 11L25 12L24 12L24 11L23 11L23 10L24 10L24 9L22 9L22 8L21 8L21 9L20 9L20 8L19 8L19 9L18 9L18 10L16 10L16 11L18 11L18 10L19 10L19 11L20 11L20 12L21 12L21 13L20 13L20 14L19 14L19 13L18 13L18 12L16 12L16 13L18 13L18 14L17 14L17 15L15 15L15 14L14 14L14 15L15 15L15 19L14 19L14 18L12 18L12 20L11 20L11 19L10 19L10 20L8 20L8 22L7 22L7 21L6 21L6 22L7 22L7 23L6 23L6 24L5 24L5 23L3 23L3 22L2 22L2 23L3 23L3 24L4 24L4 25L6 25L6 26L8 26L8 27L9 27L9 28L10 28L10 29L11 29L11 28L12 28L12 26L11 26L11 25L13 25L13 24L15 24L15 25L14 25L14 26L15 26L15 27L16 27L16 28L17 28L17 29L16 29L16 31L14 31L14 29L15 29L15 28L14 28L14 27L13 27L13 30L12 30L12 31L13 31L13 32L14 32L14 34L15 34L15 32L16 32L16 31L17 31L17 32L18 32L18 33L16 33L16 34L18 34L18 35L17 35L17 36L19 36L19 35L20 35L20 34L18 34L18 33L23 33L23 36L22 36L22 37L25 37L25 38L24 38L24 40L25 40L25 42L26 42L26 41L27 41L27 42L29 42L29 41L30 41L30 40L29 40L29 39L30 39L30 38L31 38L31 40L33 40L33 41L32 41L32 42L31 42L31 43L32 43L32 44L31 44L31 45L30 45L30 46L32 46L32 47L34 47L34 49L35 49L35 51L38 51L38 50L39 50L39 49L38 49L38 48L39 48L39 47L38 47L38 46L39 46L39 45L38 45L38 44L40 44L40 45L44 45L44 46L48 46L48 48L50 48L50 47L49 47L49 46L51 46L51 45L53 45L53 44L51 44L51 45L50 45L50 42L51 42L51 43L52 43L52 41L53 41L53 40L54 40L54 41L55 41L55 42L53 42L53 43L55 43L55 42L57 42L57 41L58 41L58 42L59 42L59 43L58 43L58 44L59 44L59 45L58 45L58 46L56 46L56 45L57 45L57 44L55 44L55 46L52 46L52 47L54 47L54 48L51 48L51 49L49 49L49 51L48 51L48 50L47 50L47 47L45 47L45 48L44 48L44 47L43 47L43 46L40 46L40 47L41 47L41 48L40 48L40 49L41 49L41 50L40 50L40 51L39 51L39 52L38 52L38 53L37 53L37 54L35 54L35 53L36 53L36 52L35 52L35 53L34 53L34 52L33 52L33 51L34 51L34 50L33 50L33 48L32 48L32 50L31 50L31 49L30 49L30 50L29 50L29 53L28 53L28 55L27 55L27 56L26 56L26 57L27 57L27 56L28 56L28 55L29 55L29 56L30 56L30 57L32 57L32 58L31 58L31 60L32 60L32 58L33 58L33 57L36 57L36 59L37 59L37 57L38 57L38 58L39 58L39 59L38 59L38 62L37 62L37 63L38 63L38 66L37 66L37 67L38 67L38 66L39 66L39 63L41 63L41 64L40 64L40 67L41 67L41 65L43 65L43 64L42 64L42 63L43 63L43 62L39 62L39 59L41 59L41 60L40 60L40 61L41 61L41 60L43 60L43 58L44 58L44 59L45 59L45 60L46 60L46 58L47 58L47 57L45 57L45 56L44 56L44 55L46 55L46 56L49 56L49 55L47 55L47 54L48 54L48 53L47 53L47 51L48 51L48 52L50 52L50 54L51 54L51 55L53 55L53 54L54 54L54 57L55 57L55 58L53 58L53 56L50 56L50 58L51 58L51 57L52 57L52 58L53 58L53 59L54 59L54 60L55 60L55 59L56 59L56 58L57 58L57 59L58 59L58 60L59 60L59 61L58 61L58 62L59 62L59 61L60 61L60 60L59 60L59 59L58 59L58 58L57 58L57 56L56 56L56 55L57 55L57 54L59 54L59 55L58 55L58 56L59 56L59 55L60 55L60 53L62 53L62 52L61 52L61 50L60 50L60 52L59 52L59 53L57 53L57 52L56 52L56 51L58 51L58 50L56 50L56 49L57 49L57 47L58 47L58 46L59 46L59 45L60 45L60 46L61 46L61 45L60 45L60 44L62 44L62 43L64 43L64 44L65 44L65 43L64 43L64 42L65 42L65 41L66 41L66 43L67 43L67 42L68 42L68 41L67 41L67 40L66 40L66 39L67 39L67 38L68 38L68 37L67 37L67 36L65 36L65 37L61 37L61 38L62 38L62 39L60 39L60 38L59 38L59 37L60 37L60 35L58 35L58 34L59 34L59 33L58 33L58 34L57 34L57 35L58 35L58 36L59 36L59 37L58 37L58 38L57 38L57 36L56 36L56 33L57 33L57 32L56 32L56 31L57 31L57 28L56 28L56 27L57 27L57 26L59 26L59 25L61 25L61 24L60 24L60 23L61 23L61 22L63 22L63 23L62 23L62 26L63 26L63 27L62 27L62 28L61 28L61 26L60 26L60 28L59 28L59 29L58 29L58 30L59 30L59 29L62 29L62 30L60 30L60 32L61 32L61 31L62 31L62 32L64 32L64 31L62 31L62 30L63 30L63 29L62 29L62 28L64 28L64 29L65 29L65 28L64 28L64 26L65 26L65 24L63 24L63 23L65 23L65 22L66 22L66 21L68 21L68 20L66 20L66 18L63 18L63 17L65 17L65 16L63 16L63 15L61 15L61 14L60 14L60 13L62 13L62 14L63 14L63 13L62 13L62 12L63 12L63 11L62 11L62 10L61 10L61 11L58 11L58 12L59 12L59 13L58 13L58 14L57 14L57 12L54 12L54 11L53 11L53 10L52 10L52 11L50 11L50 10L51 10L51 8L49 8L49 7L50 7L50 5L51 5L51 4L50 4L50 5L49 5L49 4L48 4L48 3L47 3L47 2L46 2L46 5L44 5L44 4L45 4L45 3L44 3L44 4L43 4L43 5L40 5L40 6L39 6L39 7L38 7L38 5L39 5L39 4L42 4L42 2L43 2L43 1L41 1L41 3L39 3L39 2L38 2L38 1L37 1L37 2L38 2L38 5L37 5L37 7L38 7L38 8L37 8L37 9L38 9L38 10L39 10L39 12L37 12L37 13L36 13L36 12L35 12L35 11L36 11L36 10L35 10L35 9L34 9L34 10L33 10L33 9L31 9L31 11L33 11L33 14L34 14L34 12L35 12L35 14L37 14L37 15L38 15L38 18L39 18L39 17L41 17L41 18L40 18L40 19L42 19L42 20L40 20L40 21L39 21L39 20L37 20L37 21L35 21L35 23L34 23L34 24L35 24L35 25L34 25L34 26L36 26L36 27L33 27L33 26L32 26L32 24L33 24L33 23L32 23L32 22L33 22L33 21L32 21L32 20L35 20L35 19L36 19L36 18L37 18L37 17L36 17L36 15L35 15L35 16L34 16L34 15L31 15L31 13L32 13L32 12L31 12L31 13L30 13L30 15L28 15L28 17L25 17L25 16L26 16L26 15L25 15L25 14L26 14L26 13L27 13L27 12L30 12L30 11L29 11L29 9L30 9L30 8L29 8L29 7L30 7L30 5L31 5L31 8L32 8L32 5L31 5L31 4L30 4L30 5L29 5L29 4L28 4L28 3L27 3L27 2L25 2L25 3L24 3L24 2L23 2L23 1ZM54 1L54 2L53 2L53 3L52 3L52 4L53 4L53 5L54 5L54 6L53 6L53 7L54 7L54 9L55 9L55 10L56 10L56 9L55 9L55 8L56 8L56 6L55 6L55 5L54 5L54 4L53 4L53 3L54 3L54 2L55 2L55 1ZM56 1L56 2L57 2L57 1ZM15 3L15 4L14 4L14 5L12 5L12 8L13 8L13 6L14 6L14 7L15 7L15 6L14 6L14 5L15 5L15 4L16 4L16 3ZM33 3L33 4L34 4L34 3ZM36 3L36 4L37 4L37 3ZM60 3L60 5L61 5L61 3ZM26 4L26 5L27 5L27 4ZM33 5L33 8L36 8L36 5ZM46 5L46 7L45 7L45 6L44 6L44 7L43 7L43 6L42 6L42 8L41 8L41 6L40 6L40 8L41 8L41 9L42 9L42 10L41 10L41 11L40 11L40 12L42 12L42 13L39 13L39 14L38 14L38 13L37 13L37 14L38 14L38 15L39 15L39 16L41 16L41 17L42 17L42 18L43 18L43 19L44 19L44 20L45 20L45 22L43 22L43 20L42 20L42 21L40 21L40 22L38 22L38 21L37 21L37 22L36 22L36 23L37 23L37 24L36 24L36 26L37 26L37 27L38 27L38 28L37 28L37 30L36 30L36 28L34 28L34 29L33 29L33 30L30 30L30 29L32 29L32 28L31 28L31 27L32 27L32 26L31 26L31 25L30 25L30 24L28 24L28 25L30 25L30 26L29 26L29 27L30 27L30 28L27 28L27 31L28 31L28 29L29 29L29 30L30 30L30 31L33 31L33 32L32 32L32 33L31 33L31 32L29 32L29 34L30 34L30 37L29 37L29 36L28 36L28 35L27 35L27 34L28 34L28 33L27 33L27 34L26 34L26 33L24 33L24 32L26 32L26 31L25 31L25 30L26 30L26 26L27 26L27 25L26 25L26 24L27 24L27 23L28 23L28 22L27 22L27 21L29 21L29 23L30 23L30 21L31 21L31 20L32 20L32 19L35 19L35 18L34 18L34 16L32 16L32 17L33 17L33 18L31 18L31 20L30 20L30 21L29 21L29 17L28 17L28 18L27 18L27 19L26 19L26 20L25 20L25 21L22 21L22 20L23 20L23 19L22 19L22 18L23 18L23 17L24 17L24 18L25 18L25 17L24 17L24 16L25 16L25 15L24 15L24 16L23 16L23 17L22 17L22 15L23 15L23 14L25 14L25 13L26 13L26 12L25 12L25 13L24 13L24 12L23 12L23 13L21 13L21 14L20 14L20 15L21 15L21 20L20 20L20 21L22 21L22 22L20 22L20 23L22 23L22 22L25 22L25 21L26 21L26 24L24 24L24 23L23 23L23 24L24 24L24 25L23 25L23 26L22 26L22 27L21 27L21 26L20 26L20 25L22 25L22 24L20 24L20 25L19 25L19 22L18 22L18 24L17 24L17 25L19 25L19 26L18 26L18 27L17 27L17 28L18 28L18 29L19 29L19 28L20 28L20 29L21 29L21 30L20 30L20 32L23 32L23 33L24 33L24 34L25 34L25 35L24 35L24 36L25 36L25 37L26 37L26 39L25 39L25 40L27 40L27 41L29 41L29 40L28 40L28 39L29 39L29 38L30 38L30 37L31 37L31 38L32 38L32 37L35 37L35 38L34 38L34 39L33 39L33 40L36 40L36 41L33 41L33 44L35 44L35 43L34 43L34 42L36 42L36 41L37 41L37 43L36 43L36 45L32 45L32 46L35 46L35 47L36 47L36 48L35 48L35 49L36 49L36 50L38 50L38 49L37 49L37 46L38 46L38 45L37 45L37 43L39 43L39 42L40 42L40 41L39 41L39 42L38 42L38 41L37 41L37 40L38 40L38 39L40 39L40 40L41 40L41 38L43 38L43 40L45 40L45 41L44 41L44 42L45 42L45 43L44 43L44 44L45 44L45 43L47 43L47 44L48 44L48 45L49 45L49 44L48 44L48 43L49 43L49 42L50 42L50 39L52 39L52 40L53 40L53 39L54 39L54 40L55 40L55 39L56 39L56 40L57 40L57 38L55 38L55 37L56 37L56 36L54 36L54 35L52 35L52 36L50 36L50 35L51 35L51 34L50 34L50 33L51 33L51 32L53 32L53 34L55 34L55 33L56 33L56 32L53 32L53 31L54 31L54 30L55 30L55 31L56 31L56 30L55 30L55 29L52 29L52 31L51 31L51 30L49 30L49 28L50 28L50 27L52 27L52 26L55 26L55 25L56 25L56 26L57 26L57 25L59 25L59 24L57 24L57 23L60 23L60 22L61 22L61 19L63 19L63 18L62 18L62 16L61 16L61 17L59 17L59 18L58 18L58 16L57 16L57 14L56 14L56 13L52 13L52 16L53 16L53 17L52 17L52 18L49 18L49 16L48 16L48 15L51 15L51 14L49 14L49 12L48 12L48 11L47 11L47 10L46 10L46 9L47 9L47 8L48 8L48 9L49 9L49 8L48 8L48 7L49 7L49 5L48 5L48 7L47 7L47 5ZM17 6L17 7L18 7L18 6ZM19 6L19 7L20 7L20 6ZM24 6L24 7L25 7L25 6ZM28 6L28 7L29 7L29 6ZM34 6L34 7L35 7L35 6ZM51 6L51 7L52 7L52 6ZM54 6L54 7L55 7L55 6ZM57 6L57 7L58 7L58 6ZM46 7L46 8L47 8L47 7ZM6 8L6 9L7 9L7 10L6 10L6 11L5 11L5 12L6 12L6 13L7 13L7 12L6 12L6 11L8 11L8 9L9 9L9 8ZM10 8L10 12L11 12L11 11L12 11L12 10L13 10L13 11L14 11L14 10L13 10L13 9L11 9L11 8ZM43 8L43 10L42 10L42 11L46 11L46 10L44 10L44 9L45 9L45 8ZM52 8L52 9L53 9L53 8ZM63 8L63 9L64 9L64 8ZM19 9L19 10L20 10L20 9ZM21 9L21 11L22 11L22 9ZM39 9L39 10L40 10L40 9ZM67 9L67 10L68 10L68 9ZM65 10L65 11L66 11L66 10ZM52 11L52 12L53 12L53 11ZM8 12L8 13L9 13L9 12ZM44 12L44 13L43 13L43 14L41 14L41 15L42 15L42 16L44 16L44 17L43 17L43 18L44 18L44 17L45 17L45 18L47 18L47 19L46 19L46 22L45 22L45 24L44 24L44 23L43 23L43 22L41 22L41 24L40 24L40 23L38 23L38 22L37 22L37 23L38 23L38 24L37 24L37 25L38 25L38 26L39 26L39 27L41 27L41 28L38 28L38 30L37 30L37 31L38 31L38 34L39 34L39 36L37 36L37 37L38 37L38 38L39 38L39 37L41 37L41 36L42 36L42 35L43 35L43 37L44 37L44 38L45 38L45 40L46 40L46 42L48 42L48 40L49 40L49 39L50 39L50 38L52 38L52 39L53 39L53 38L54 38L54 39L55 39L55 38L54 38L54 37L53 37L53 36L52 36L52 37L50 37L50 38L49 38L49 37L47 37L47 36L49 36L49 35L48 35L48 34L49 34L49 33L50 33L50 31L48 31L48 28L49 28L49 27L50 27L50 26L51 26L51 25L50 25L50 24L51 24L51 23L54 23L54 25L55 25L55 24L56 24L56 25L57 25L57 24L56 24L56 23L55 23L55 22L57 22L57 21L58 21L58 22L59 22L59 21L60 21L60 19L61 19L61 18L59 18L59 20L56 20L56 18L57 18L57 16L56 16L56 15L55 15L55 14L53 14L53 15L55 15L55 16L56 16L56 18L52 18L52 19L50 19L50 22L49 22L49 23L48 23L48 24L47 24L47 23L46 23L46 22L47 22L47 21L48 21L48 20L49 20L49 19L48 19L48 18L47 18L47 15L48 15L48 12L47 12L47 13L45 13L45 12ZM50 12L50 13L51 13L51 12ZM28 13L28 14L29 14L29 13ZM44 13L44 14L45 14L45 15L44 15L44 16L45 16L45 15L47 15L47 14L45 14L45 13ZM66 13L66 14L67 14L67 13ZM18 14L18 15L17 15L17 16L16 16L16 18L17 18L17 19L16 19L16 20L17 20L17 21L19 21L19 19L20 19L20 18L19 18L19 17L20 17L20 16L19 16L19 14ZM21 14L21 15L22 15L22 14ZM39 14L39 15L40 15L40 14ZM58 14L58 15L59 15L59 16L60 16L60 15L59 15L59 14ZM6 15L6 16L7 16L7 15ZM30 15L30 17L31 17L31 15ZM68 15L68 16L69 16L69 15ZM13 16L13 17L14 17L14 16ZM17 16L17 17L18 17L18 16ZM50 16L50 17L51 17L51 16ZM6 17L6 18L8 18L8 17ZM68 17L68 18L69 18L69 17ZM0 18L0 19L1 19L1 18ZM13 19L13 21L14 21L14 22L13 22L13 23L15 23L15 24L16 24L16 23L17 23L17 22L16 22L16 21L15 21L15 20L14 20L14 19ZM27 19L27 20L26 20L26 21L27 21L27 20L28 20L28 19ZM52 19L52 20L51 20L51 22L50 22L50 23L51 23L51 22L53 22L53 21L54 21L54 22L55 22L55 19L54 19L54 20L53 20L53 19ZM64 19L64 20L65 20L65 19ZM10 20L10 21L11 21L11 20ZM52 20L52 21L53 21L53 20ZM62 20L62 21L63 21L63 20ZM8 22L8 23L7 23L7 24L6 24L6 25L7 25L7 24L9 24L9 23L10 23L10 25L11 25L11 24L12 24L12 23L10 23L10 22ZM42 23L42 24L43 24L43 23ZM46 24L46 25L44 25L44 28L45 28L45 29L47 29L47 28L48 28L48 27L49 27L49 26L50 26L50 25L49 25L49 24L48 24L48 25L49 25L49 26L48 26L48 27L47 27L47 26L46 26L46 25L47 25L47 24ZM52 24L52 25L53 25L53 24ZM0 25L0 28L1 28L1 25ZM8 25L8 26L9 26L9 27L10 27L10 28L11 28L11 27L10 27L10 26L9 26L9 25ZM15 25L15 26L16 26L16 25ZM24 25L24 26L23 26L23 27L22 27L22 28L21 28L21 29L23 29L23 27L24 27L24 29L25 29L25 25ZM39 25L39 26L40 26L40 25ZM42 25L42 26L41 26L41 27L42 27L42 28L41 28L41 29L39 29L39 30L38 30L38 31L39 31L39 34L40 34L40 36L41 36L41 35L42 35L42 34L43 34L43 35L44 35L44 36L45 36L45 38L46 38L46 40L47 40L47 38L46 38L46 35L47 35L47 34L45 34L45 35L44 35L44 32L45 32L45 30L43 30L43 27L42 27L42 26L43 26L43 25ZM63 25L63 26L64 26L64 25ZM45 27L45 28L46 28L46 27ZM53 27L53 28L54 28L54 27ZM6 29L6 30L7 30L7 31L6 31L6 32L8 32L8 30L7 30L7 29ZM34 29L34 30L33 30L33 31L34 31L34 32L35 32L35 29ZM68 29L68 30L69 30L69 29ZM2 30L2 31L3 31L3 32L4 32L4 31L3 31L3 30ZM9 30L9 31L10 31L10 32L9 32L9 33L10 33L10 34L9 34L9 36L10 36L10 37L11 37L11 35L10 35L10 34L12 34L12 33L10 33L10 32L11 32L11 31L10 31L10 30ZM17 30L17 31L18 31L18 30ZM22 30L22 31L23 31L23 32L24 32L24 31L23 31L23 30ZM42 30L42 31L41 31L41 32L40 32L40 34L42 34L42 33L43 33L43 32L44 32L44 31L43 31L43 30ZM46 30L46 32L47 32L47 33L49 33L49 32L48 32L48 31L47 31L47 30ZM42 31L42 32L43 32L43 31ZM58 31L58 32L59 32L59 31ZM5 33L5 36L8 36L8 33ZM30 33L30 34L31 34L31 37L32 37L32 34L31 34L31 33ZM33 33L33 36L36 36L36 33ZM61 33L61 36L64 36L64 33ZM6 34L6 35L7 35L7 34ZM34 34L34 35L35 35L35 34ZM62 34L62 35L63 35L63 34ZM13 35L13 36L12 36L12 38L10 38L10 39L11 39L11 40L10 40L10 42L11 42L11 40L12 40L12 42L13 42L13 43L12 43L12 44L13 44L13 43L15 43L15 44L16 44L16 43L15 43L15 42L16 42L16 41L17 41L17 40L16 40L16 39L18 39L18 38L19 38L19 40L20 40L20 44L21 44L21 45L18 45L18 44L17 44L17 45L16 45L16 46L17 46L17 47L16 47L16 48L15 48L15 46L14 46L14 48L15 48L15 49L16 49L16 50L17 50L17 49L18 49L18 48L17 48L17 47L18 47L18 46L19 46L19 48L20 48L20 49L19 49L19 50L20 50L20 51L19 51L19 52L21 52L21 49L23 49L23 50L22 50L22 51L24 51L24 49L25 49L25 51L26 51L26 53L27 53L27 52L28 52L28 51L27 51L27 50L28 50L28 49L29 49L29 48L30 48L30 47L29 47L29 45L28 45L28 44L26 44L26 45L25 45L25 44L24 44L24 43L21 43L21 41L22 41L22 42L24 42L24 41L22 41L22 40L21 40L21 39L22 39L22 38L21 38L21 37L14 37L14 36L15 36L15 35ZM25 35L25 36L26 36L26 37L27 37L27 38L29 38L29 37L27 37L27 36L26 36L26 35ZM5 37L5 39L4 39L4 40L2 40L2 42L3 42L3 41L5 41L5 40L7 40L7 39L6 39L6 38L7 38L7 37ZM66 37L66 38L67 38L67 37ZM8 38L8 40L9 40L9 38ZM13 38L13 41L16 41L16 40L14 40L14 39L16 39L16 38ZM35 38L35 39L37 39L37 38ZM48 38L48 39L49 39L49 38ZM58 38L58 39L59 39L59 38ZM63 38L63 39L62 39L62 40L60 40L60 41L59 41L59 42L61 42L61 41L62 41L62 42L63 42L63 41L65 41L65 40L64 40L64 39L65 39L65 38ZM62 40L62 41L63 41L63 40ZM18 41L18 43L19 43L19 41ZM42 41L42 42L41 42L41 43L40 43L40 44L41 44L41 43L42 43L42 44L43 44L43 43L42 43L42 42L43 42L43 41ZM7 42L7 43L6 43L6 44L7 44L7 45L6 45L6 46L7 46L7 45L8 45L8 46L9 46L9 43L8 43L8 42ZM10 43L10 44L11 44L11 43ZM29 43L29 44L30 44L30 43ZM66 44L66 45L67 45L67 44ZM17 45L17 46L18 46L18 45ZM22 45L22 47L21 47L21 46L20 46L20 47L21 47L21 48L22 48L22 47L23 47L23 46L24 46L24 48L25 48L25 49L28 49L28 48L27 48L27 47L28 47L28 46L27 46L27 45L26 45L26 46L25 46L25 45ZM0 46L0 47L2 47L2 46ZM11 47L11 48L12 48L12 47ZM25 47L25 48L26 48L26 47ZM55 47L55 49L51 49L51 50L50 50L50 52L51 52L51 54L52 54L52 52L53 52L53 53L54 53L54 54L55 54L55 55L56 55L56 52L55 52L55 51L54 51L54 52L53 52L53 50L55 50L55 49L56 49L56 47ZM64 47L64 48L65 48L65 47ZM16 48L16 49L17 49L17 48ZM43 48L43 49L42 49L42 50L43 50L43 49L44 49L44 50L45 50L45 51L42 51L42 52L41 52L41 51L40 51L40 52L39 52L39 55L40 55L40 56L41 56L41 55L40 55L40 54L43 54L43 53L44 53L44 54L45 54L45 53L46 53L46 51L47 51L47 50L45 50L45 49L44 49L44 48ZM66 48L66 49L68 49L68 48ZM6 49L6 50L7 50L7 49ZM10 50L10 51L11 51L11 52L10 52L10 53L9 53L9 54L8 54L8 53L6 53L6 54L5 54L5 56L7 56L7 55L8 55L8 56L9 56L9 58L12 58L12 57L13 57L13 56L12 56L12 55L13 55L13 54L14 54L14 53L13 53L13 52L14 52L14 51L15 51L15 50L14 50L14 51L13 51L13 52L12 52L12 51L11 51L11 50ZM30 50L30 53L32 53L32 54L34 54L34 56L36 56L36 57L37 57L37 56L38 56L38 55L35 55L35 54L34 54L34 53L32 53L32 51L31 51L31 50ZM51 50L51 52L52 52L52 50ZM16 51L16 52L17 52L17 51ZM11 52L11 54L9 54L9 56L11 56L11 55L12 55L12 52ZM22 52L22 53L25 53L25 52ZM40 52L40 53L41 53L41 52ZM42 52L42 53L43 53L43 52ZM44 52L44 53L45 53L45 52ZM66 53L66 54L67 54L67 55L66 55L66 56L67 56L67 55L68 55L68 56L69 56L69 55L68 55L68 54L69 54L69 53L68 53L68 54L67 54L67 53ZM6 54L6 55L7 55L7 54ZM18 54L18 55L19 55L19 54ZM29 54L29 55L30 55L30 54ZM32 55L32 56L33 56L33 55ZM42 55L42 58L41 58L41 59L42 59L42 58L43 58L43 55ZM17 56L17 58L18 58L18 59L17 59L17 60L16 60L16 59L15 59L15 58L16 58L16 57L15 57L15 58L14 58L14 60L15 60L15 62L16 62L16 63L18 63L18 61L19 61L19 60L20 60L20 61L21 61L21 63L23 63L23 64L26 64L26 63L25 63L25 61L26 61L26 62L27 62L27 63L28 63L28 62L27 62L27 61L26 61L26 60L25 60L25 61L24 61L24 59L23 59L23 61L21 61L21 60L22 60L22 59L21 59L21 60L20 60L20 57L22 57L22 56ZM64 56L64 57L65 57L65 56ZM5 57L5 58L7 58L7 59L8 59L8 58L7 58L7 57ZM18 57L18 58L19 58L19 57ZM39 57L39 58L40 58L40 57ZM62 57L62 58L63 58L63 57ZM0 58L0 61L1 61L1 58ZM34 58L34 59L33 59L33 60L34 60L34 59L35 59L35 58ZM3 60L3 61L5 61L5 60ZM17 60L17 61L16 61L16 62L17 62L17 61L18 61L18 60ZM30 61L30 62L31 62L31 61ZM33 61L33 64L36 64L36 61ZM61 61L61 64L64 64L64 61ZM19 62L19 64L20 64L20 62ZM34 62L34 63L35 63L35 62ZM38 62L38 63L39 63L39 62ZM62 62L62 63L63 63L63 62ZM66 62L66 63L67 63L67 62ZM12 63L12 64L13 64L13 65L11 65L11 64L10 64L10 66L13 66L13 68L14 68L14 67L15 67L15 68L17 68L17 66L18 66L18 65L16 65L16 67L15 67L15 66L14 66L14 65L15 65L15 64L13 64L13 63ZM45 63L45 64L46 64L46 63ZM47 63L47 64L49 64L49 65L50 65L50 66L51 66L51 65L53 65L53 64L51 64L51 63ZM58 63L58 64L59 64L59 63ZM50 64L50 65L51 65L51 64ZM27 65L27 66L28 66L28 65ZM32 65L32 66L31 66L31 67L34 67L34 68L36 68L36 67L34 67L34 66L36 66L36 65L34 65L34 66L33 66L33 65ZM58 65L58 66L57 66L57 68L58 68L58 66L61 66L61 65ZM19 66L19 67L18 67L18 68L19 68L19 67L20 67L20 66ZM22 66L22 67L23 67L23 66ZM64 66L64 68L65 68L65 66ZM27 67L27 69L29 69L29 68L28 68L28 67ZM59 67L59 68L60 68L60 67ZM62 67L62 68L63 68L63 67ZM25 68L25 69L26 69L26 68ZM0 0L0 7L7 7L7 0ZM1 1L1 6L6 6L6 1ZM2 2L2 5L5 5L5 2ZM62 0L62 7L69 7L69 0ZM63 1L63 6L68 6L68 1ZM64 2L64 5L67 5L67 2ZM0 62L0 69L7 69L7 62ZM1 63L1 68L6 68L6 63ZM2 64L2 67L5 67L5 64Z" fill="#000000"/></g></g></svg>
