<?xml version="1.0" encoding="UTF-8"?>
<svg xmlns="http://www.w3.org/2000/svg" version="1.1" width="300" height="300" viewBox="0 0 300 300"><rect x="0" y="0" width="300" height="300" fill="#ffffff"/><g transform="scale(4.918)"><g transform="translate(0,0)"><path fill-rule="evenodd" d="M9 0L9 1L8 1L8 2L11 2L11 0ZM12 0L12 1L14 1L14 0ZM15 0L15 1L16 1L16 0ZM21 0L21 1L22 1L22 3L24 3L24 2L23 2L23 1L24 1L24 0L23 0L23 1L22 1L22 0ZM25 0L25 1L27 1L27 2L26 2L26 3L28 3L28 5L27 5L27 4L21 4L21 3L20 3L20 2L18 2L18 1L17 1L17 2L18 2L18 4L19 4L19 6L18 6L18 5L16 5L16 4L17 4L17 3L16 3L16 2L15 2L15 3L16 3L16 4L14 4L14 2L12 2L12 3L11 3L11 4L12 4L12 3L13 3L13 5L15 5L15 6L14 6L14 7L13 7L13 6L12 6L12 5L11 5L11 6L10 6L10 5L8 5L8 7L9 7L9 8L6 8L6 9L5 9L5 8L0 8L0 10L1 10L1 9L2 9L2 10L3 10L3 11L1 11L1 13L2 13L2 15L1 15L1 14L0 14L0 19L2 19L2 18L3 18L3 20L2 20L2 21L0 21L0 24L1 24L1 22L2 22L2 25L0 25L0 26L2 26L2 27L3 27L3 28L2 28L2 29L1 29L1 30L3 30L3 31L4 31L4 33L3 33L3 32L1 32L1 33L0 33L0 36L1 36L1 37L2 37L2 36L3 36L3 35L4 35L4 33L5 33L5 35L7 35L7 34L8 34L8 33L9 33L9 34L10 34L10 35L8 35L8 36L4 36L4 37L7 37L7 38L6 38L6 39L7 39L7 40L5 40L5 38L4 38L4 39L3 39L3 38L2 38L2 39L0 39L0 40L1 40L1 42L0 42L0 44L1 44L1 42L2 42L2 45L1 45L1 46L2 46L2 45L3 45L3 47L2 47L2 48L1 48L1 47L0 47L0 49L1 49L1 50L2 50L2 51L0 51L0 53L4 53L4 52L5 52L5 51L8 51L8 52L6 52L6 53L8 53L8 55L9 55L9 56L8 56L8 61L13 61L13 60L15 60L15 61L17 61L17 59L16 59L16 57L17 57L17 58L18 58L18 59L19 59L19 60L18 60L18 61L21 61L21 57L19 57L19 54L20 54L20 55L21 55L21 56L23 56L23 57L22 57L22 60L25 60L25 57L28 57L28 58L27 58L27 59L26 59L26 60L27 60L27 61L28 61L28 60L29 60L29 59L32 59L32 60L31 60L31 61L32 61L32 60L33 60L33 61L34 61L34 60L35 60L35 61L36 61L36 60L38 60L38 61L39 61L39 59L40 59L40 60L41 60L41 59L42 59L42 58L43 58L43 59L44 59L44 60L45 60L45 61L50 61L50 60L47 60L47 58L45 58L45 57L44 57L44 55L42 55L42 56L41 56L41 54L43 54L43 53L44 53L44 54L45 54L45 56L47 56L47 57L48 57L48 58L49 58L49 56L50 56L50 55L52 55L52 56L51 56L51 58L50 58L50 59L51 59L51 61L52 61L52 60L55 60L55 61L61 61L61 54L59 54L59 55L60 55L60 56L58 56L58 58L57 58L57 53L61 53L61 50L59 50L59 48L60 48L60 47L61 47L61 46L60 46L60 47L59 47L59 48L56 48L56 49L57 49L57 50L56 50L56 51L55 51L55 50L54 50L54 51L55 51L55 52L53 52L53 51L52 51L52 50L50 50L50 49L52 49L52 48L54 48L54 47L57 47L57 46L59 46L59 44L60 44L60 45L61 45L61 41L59 41L59 40L61 40L61 38L58 38L58 37L59 37L59 36L61 36L61 34L58 34L58 33L59 33L59 32L57 32L57 31L58 31L58 30L57 30L57 29L59 29L59 31L61 31L61 30L60 30L60 29L59 29L59 28L57 28L57 27L60 27L60 28L61 28L61 26L60 26L60 23L61 23L61 22L58 22L58 21L60 21L60 20L58 20L58 21L57 21L57 23L56 23L56 22L55 22L55 21L56 21L56 20L57 20L57 19L56 19L56 20L55 20L55 19L53 19L53 18L52 18L52 21L53 21L53 20L55 20L55 21L54 21L54 22L55 22L55 23L53 23L53 24L52 24L52 23L51 23L51 22L50 22L50 20L51 20L51 18L50 18L50 16L51 16L51 17L53 17L53 16L51 16L51 14L50 14L50 13L54 13L54 14L55 14L55 12L57 12L57 13L56 13L56 15L55 15L55 16L57 16L57 14L58 14L58 13L59 13L59 12L60 12L60 11L61 11L61 10L60 10L60 11L59 11L59 9L60 9L60 8L59 8L59 9L58 9L58 8L57 8L57 9L56 9L56 8L55 8L55 9L54 9L54 8L51 8L51 5L52 5L52 4L53 4L53 0L51 0L51 2L50 2L50 3L48 3L48 2L49 2L49 0L47 0L47 1L46 1L46 0L45 0L45 2L44 2L44 1L43 1L43 0L40 0L40 1L38 1L38 2L37 2L37 3L35 3L35 2L36 2L36 1L37 1L37 0L36 0L36 1L34 1L34 0L32 0L32 1L31 1L31 0L30 0L30 1L31 1L31 2L30 2L30 3L28 3L28 2L29 2L29 1L27 1L27 0ZM32 1L32 2L33 2L33 3L34 3L34 2L33 2L33 1ZM41 1L41 2L42 2L42 3L40 3L40 4L39 4L39 2L38 2L38 3L37 3L37 5L36 5L36 4L35 4L35 5L34 5L34 4L33 4L33 5L34 5L34 6L33 6L33 8L34 8L34 10L35 10L35 11L36 11L36 10L35 10L35 9L36 9L36 8L37 8L37 9L38 9L38 10L37 10L37 13L38 13L38 14L41 14L41 15L43 15L43 16L44 16L44 17L45 17L45 16L46 16L46 18L47 18L47 19L46 19L46 20L50 20L50 18L49 18L49 19L48 19L48 18L47 18L47 17L48 17L48 16L50 16L50 14L47 14L47 11L48 11L48 12L49 12L49 13L50 13L50 12L49 12L49 11L48 11L48 10L49 10L49 9L50 9L50 11L51 11L51 12L53 12L53 9L50 9L50 8L49 8L49 7L50 7L50 5L47 5L47 4L46 4L46 3L47 3L47 2L48 2L48 1L47 1L47 2L46 2L46 3L44 3L44 2L43 2L43 1ZM8 3L8 4L10 4L10 3ZM30 3L30 4L31 4L31 3ZM43 3L43 4L40 4L40 5L38 5L38 7L39 7L39 8L38 8L38 9L39 9L39 12L38 12L38 13L39 13L39 12L41 12L41 14L43 14L43 15L44 15L44 16L45 16L45 15L46 15L46 16L48 16L48 15L47 15L47 14L45 14L45 15L44 15L44 12L45 12L45 13L46 13L46 12L45 12L45 11L47 11L47 10L46 10L46 8L47 8L47 5L46 5L46 4L45 4L45 6L44 6L44 8L43 8L43 9L40 9L40 8L42 8L42 7L43 7L43 6L42 6L42 7L41 7L41 6L40 6L40 5L44 5L44 3ZM51 3L51 4L52 4L52 3ZM20 4L20 5L21 5L21 7L20 7L20 6L19 6L19 7L18 7L18 6L17 6L17 7L16 7L16 6L15 6L15 7L16 7L16 8L14 8L14 9L15 9L15 12L14 12L14 10L11 10L11 11L9 11L9 9L8 9L8 11L3 11L3 12L2 12L2 13L3 13L3 16L2 16L2 17L3 17L3 18L4 18L4 20L8 20L8 21L6 21L6 22L7 22L7 23L6 23L6 24L4 24L4 23L5 23L5 21L4 21L4 22L3 22L3 25L2 25L2 26L5 26L5 28L9 28L9 29L10 29L10 30L9 30L9 31L10 31L10 32L9 32L9 33L11 33L11 34L13 34L13 33L16 33L16 34L15 34L15 35L10 35L10 36L9 36L9 37L11 37L11 38L10 38L10 39L8 39L8 40L7 40L7 41L4 41L4 40L3 40L3 39L2 39L2 42L3 42L3 43L4 43L4 44L5 44L5 47L4 47L4 48L5 48L5 49L6 49L6 50L8 50L8 51L9 51L9 50L10 50L10 49L11 49L11 50L12 50L12 49L13 49L13 48L16 48L16 49L14 49L14 50L13 50L13 53L12 53L12 52L11 52L11 53L10 53L10 52L8 52L8 53L9 53L9 54L10 54L10 58L12 58L12 59L9 59L9 60L13 60L13 59L14 59L14 57L15 57L15 55L14 55L14 54L17 54L17 55L16 55L16 56L17 56L17 57L18 57L18 56L17 56L17 55L18 55L18 54L19 54L19 53L18 53L18 54L17 54L17 53L15 53L15 52L16 52L16 51L15 51L15 50L16 50L16 49L17 49L17 51L18 51L18 50L24 50L24 49L23 49L23 47L24 47L24 48L26 48L26 49L27 49L27 50L28 50L28 47L29 47L29 48L31 48L31 49L29 49L29 51L28 51L28 52L26 52L26 50L25 50L25 52L24 52L24 51L23 51L23 52L22 52L22 53L25 53L25 54L26 54L26 53L27 53L27 55L28 55L28 52L29 52L29 51L30 51L30 50L31 50L31 49L32 49L32 48L31 48L31 47L33 47L33 46L35 46L35 47L36 47L36 48L37 48L37 51L36 51L36 50L35 50L35 48L33 48L33 50L35 50L35 51L34 51L34 52L33 52L33 51L32 51L32 52L33 52L33 53L34 53L34 54L33 54L33 55L34 55L34 56L35 56L35 57L32 57L32 59L33 59L33 60L34 60L34 59L33 59L33 58L35 58L35 60L36 60L36 58L37 58L37 59L38 59L38 58L39 58L39 57L41 57L41 56L40 56L40 54L41 54L41 52L42 52L42 51L43 51L43 50L42 50L42 51L41 51L41 48L42 48L42 47L45 47L45 48L44 48L44 51L45 51L45 52L44 52L44 53L45 53L45 52L46 52L46 54L48 54L48 55L47 55L47 56L49 56L49 55L50 55L50 54L51 54L51 53L50 53L50 52L49 52L49 51L50 51L50 50L49 50L49 49L48 49L48 48L52 48L52 46L53 46L53 45L54 45L54 44L55 44L55 45L56 45L56 46L57 46L57 45L56 45L56 43L57 43L57 44L59 44L59 43L60 43L60 42L59 42L59 41L58 41L58 42L57 42L57 41L56 41L56 43L54 43L54 41L55 41L55 40L54 40L54 41L53 41L53 40L52 40L52 39L53 39L53 38L55 38L55 39L56 39L56 38L57 38L57 37L56 37L56 36L59 36L59 35L56 35L56 34L57 34L57 33L52 33L52 32L51 32L51 33L50 33L50 32L49 32L49 31L50 31L50 30L51 30L51 31L52 31L52 29L51 29L51 28L54 28L54 27L55 27L55 26L53 26L53 25L55 25L55 24L53 24L53 25L52 25L52 24L51 24L51 25L50 25L50 26L49 26L49 25L48 25L48 24L49 24L49 23L50 23L50 22L48 22L48 21L45 21L45 20L44 20L44 19L43 19L43 18L42 18L42 19L43 19L43 20L44 20L44 21L43 21L43 22L41 22L41 20L40 20L40 19L38 19L38 18L39 18L39 17L41 17L41 16L40 16L40 15L36 15L36 14L35 14L35 13L36 13L36 12L33 12L33 14L32 14L32 13L31 13L31 12L32 12L32 11L31 11L31 12L30 12L30 13L29 13L29 14L30 14L30 13L31 13L31 14L32 14L32 15L33 15L33 14L35 14L35 15L34 15L34 16L35 16L35 17L33 17L33 18L32 18L32 17L30 17L30 18L31 18L31 19L32 19L32 21L31 21L31 20L30 20L30 19L28 19L28 20L26 20L26 17L27 17L27 18L29 18L29 16L30 16L30 15L28 15L28 16L27 16L27 15L26 15L26 16L25 16L25 14L22 14L22 15L21 15L21 13L25 13L25 12L26 12L26 13L27 13L27 14L28 14L28 13L27 13L27 12L28 12L28 11L29 11L29 10L30 10L30 9L28 9L28 8L27 8L27 7L28 7L28 6L27 6L27 5L25 5L25 7L24 7L24 6L23 6L23 5L21 5L21 4ZM29 5L29 8L32 8L32 5ZM35 5L35 6L34 6L34 8L35 8L35 6L36 6L36 7L37 7L37 6L36 6L36 5ZM9 6L9 7L10 7L10 9L11 9L11 8L13 8L13 7L12 7L12 6L11 6L11 7L10 7L10 6ZM22 6L22 7L23 7L23 6ZM26 6L26 7L25 7L25 8L26 8L26 7L27 7L27 6ZM30 6L30 7L31 7L31 6ZM39 6L39 7L40 7L40 6ZM45 6L45 8L44 8L44 9L45 9L45 8L46 8L46 6ZM48 6L48 7L49 7L49 6ZM52 6L52 7L53 7L53 6ZM16 8L16 9L18 9L18 11L17 11L17 12L15 12L15 13L14 13L14 12L13 12L13 11L11 11L11 12L10 12L10 13L8 13L8 12L6 12L6 13L5 13L5 12L4 12L4 13L5 13L5 14L6 14L6 15L7 15L7 16L6 16L6 17L7 17L7 18L5 18L5 16L3 16L3 17L4 17L4 18L5 18L5 19L7 19L7 18L9 18L9 17L12 17L12 19L13 19L13 20L11 20L11 22L12 22L12 25L14 25L14 26L13 26L13 29L12 29L12 28L11 28L11 29L12 29L12 30L13 30L13 31L14 31L14 32L16 32L16 31L17 31L17 30L18 30L18 29L19 29L19 30L20 30L20 31L21 31L21 32L20 32L20 33L19 33L19 32L18 32L18 33L17 33L17 35L18 35L18 36L16 36L16 35L15 35L15 36L11 36L11 37L12 37L12 38L11 38L11 40L9 40L9 42L5 42L5 43L7 43L7 44L6 44L6 45L7 45L7 46L6 46L6 47L7 47L7 48L6 48L6 49L8 49L8 47L9 47L9 49L10 49L10 47L9 47L9 45L7 45L7 44L9 44L9 43L11 43L11 44L10 44L10 46L11 46L11 44L12 44L12 46L13 46L13 47L11 47L11 49L12 49L12 48L13 48L13 47L14 47L14 46L15 46L15 47L16 47L16 48L18 48L18 49L19 49L19 46L18 46L18 47L16 47L16 45L17 45L17 44L18 44L18 45L19 45L19 44L18 44L18 43L20 43L20 42L19 42L19 41L20 41L20 40L19 40L19 41L18 41L18 40L17 40L17 39L18 39L18 38L17 38L17 39L15 39L15 37L19 37L19 39L21 39L21 41L22 41L22 42L21 42L21 44L20 44L20 45L21 45L21 46L20 46L20 47L22 47L22 46L23 46L23 45L21 45L21 44L22 44L22 43L23 43L23 42L26 42L26 41L22 41L22 40L26 40L26 39L24 39L24 38L26 38L26 36L27 36L27 40L28 40L28 42L27 42L27 43L26 43L26 44L27 44L27 45L26 45L26 46L29 46L29 45L31 45L31 46L30 46L30 47L31 47L31 46L32 46L32 43L33 43L33 41L34 41L34 38L35 38L35 40L36 40L36 41L37 41L37 42L38 42L38 43L35 43L35 42L34 42L34 43L35 43L35 44L36 44L36 45L35 45L35 46L36 46L36 47L37 47L37 48L38 48L38 47L37 47L37 45L38 45L38 44L39 44L39 45L40 45L40 46L39 46L39 50L38 50L38 51L37 51L37 52L36 52L36 53L35 53L35 56L36 56L36 57L37 57L37 58L38 58L38 57L39 57L39 54L40 54L40 53L39 53L39 54L37 54L37 53L38 53L38 51L39 51L39 52L41 52L41 51L39 51L39 50L40 50L40 48L41 48L41 47L42 47L42 46L43 46L43 45L44 45L44 46L46 46L46 48L45 48L45 49L47 49L47 48L48 48L48 46L50 46L50 47L51 47L51 46L52 46L52 45L53 45L53 43L52 43L52 44L50 44L50 43L51 43L51 42L50 42L50 40L51 40L51 41L52 41L52 42L53 42L53 41L52 41L52 40L51 40L51 38L52 38L52 37L53 37L53 36L54 36L54 37L55 37L55 36L54 36L54 35L55 35L55 34L54 34L54 35L52 35L52 34L50 34L50 33L49 33L49 32L48 32L48 31L49 31L49 30L50 30L50 27L51 27L51 26L50 26L50 27L49 27L49 26L48 26L48 27L49 27L49 28L47 28L47 30L46 30L46 29L44 29L44 28L45 28L45 27L47 27L47 26L45 26L45 25L47 25L47 24L46 24L46 23L48 23L48 22L46 22L46 23L45 23L45 22L43 22L43 23L44 23L44 24L43 24L43 25L40 25L40 24L42 24L42 23L41 23L41 22L36 22L36 23L35 23L35 24L34 24L34 23L32 23L32 22L34 22L34 21L32 21L32 22L31 22L31 23L30 23L30 24L31 24L31 25L30 25L30 26L32 26L32 25L35 25L35 26L34 26L34 27L33 27L33 28L32 28L32 27L29 27L29 28L28 28L28 27L26 27L26 28L25 28L25 25L27 25L27 26L28 26L28 25L29 25L29 24L27 24L27 21L26 21L26 22L25 22L25 21L22 21L22 20L21 20L21 19L20 19L20 17L22 17L22 16L21 16L21 15L20 15L20 14L18 14L18 13L19 13L19 12L18 12L18 11L20 11L20 10L19 10L19 9L20 9L20 8L19 8L19 9L18 9L18 8ZM48 8L48 9L49 9L49 8ZM4 9L4 10L5 10L5 9ZM6 9L6 10L7 10L7 9ZM22 9L22 11L21 11L21 12L20 12L20 13L21 13L21 12L23 12L23 10L26 10L26 9ZM27 9L27 11L26 11L26 12L27 12L27 11L28 11L28 9ZM31 9L31 10L33 10L33 9ZM55 9L55 10L54 10L54 11L57 11L57 12L59 12L59 11L57 11L57 10L58 10L58 9L57 9L57 10L56 10L56 9ZM41 10L41 12L42 12L42 13L43 13L43 12L44 12L44 11L43 11L43 10ZM42 11L42 12L43 12L43 11ZM11 12L11 14L7 14L7 13L6 13L6 14L7 14L7 15L8 15L8 16L9 16L9 15L11 15L11 16L14 16L14 15L11 15L11 14L13 14L13 13L12 13L12 12ZM15 13L15 14L17 14L17 16L16 16L16 15L15 15L15 16L16 16L16 17L13 17L13 19L14 19L14 20L13 20L13 21L14 21L14 22L15 22L15 21L14 21L14 20L16 20L16 19L14 19L14 18L16 18L16 17L18 17L18 18L17 18L17 20L20 20L20 19L18 19L18 18L19 18L19 17L20 17L20 16L19 16L19 15L18 15L18 14L17 14L17 13ZM59 14L59 15L60 15L60 16L58 16L58 17L56 17L56 18L58 18L58 17L61 17L61 14ZM23 15L23 17L24 17L24 18L22 18L22 19L24 19L24 20L25 20L25 16L24 16L24 15ZM18 16L18 17L19 17L19 16ZM36 16L36 17L37 17L37 18L36 18L36 19L37 19L37 18L38 18L38 17L39 17L39 16L38 16L38 17L37 17L37 16ZM54 17L54 18L55 18L55 17ZM10 18L10 19L11 19L11 18ZM33 18L33 20L34 20L34 19L35 19L35 18ZM59 18L59 19L61 19L61 18ZM8 19L8 20L9 20L9 21L8 21L8 23L7 23L7 24L6 24L6 25L8 25L8 26L9 26L9 27L11 27L11 26L10 26L10 24L11 24L11 23L10 23L10 22L9 22L9 21L10 21L10 20L9 20L9 19ZM35 20L35 21L37 21L37 20ZM38 20L38 21L39 21L39 20ZM16 21L16 22L17 22L17 23L15 23L15 24L17 24L17 25L15 25L15 26L16 26L16 27L15 27L15 28L17 28L17 27L18 27L18 28L19 28L19 27L20 27L20 26L19 26L19 27L18 27L18 26L17 26L17 25L18 25L18 24L17 24L17 23L18 23L18 22L19 22L19 21L18 21L18 22L17 22L17 21ZM20 21L20 22L21 22L21 23L19 23L19 25L21 25L21 23L22 23L22 25L25 25L25 24L26 24L26 23L25 23L25 24L23 24L23 22L21 22L21 21ZM28 22L28 23L29 23L29 22ZM31 23L31 24L32 24L32 23ZM36 23L36 24L35 24L35 25L36 25L36 24L37 24L37 25L38 25L38 26L37 26L37 27L38 27L38 26L39 26L39 24L40 24L40 23L38 23L38 24L37 24L37 23ZM57 23L57 24L56 24L56 27L57 27L57 26L58 26L58 24L59 24L59 23ZM44 24L44 25L45 25L45 24ZM6 26L6 27L7 27L7 26ZM22 26L22 27L21 27L21 29L20 29L20 30L21 30L21 31L22 31L22 30L21 30L21 29L25 29L25 28L24 28L24 27L23 27L23 26ZM35 26L35 27L34 27L34 28L36 28L36 29L33 29L33 30L36 30L36 31L35 31L35 32L34 32L34 31L33 31L33 32L34 32L34 33L30 33L30 35L29 35L29 34L28 34L28 33L27 33L27 31L25 31L25 30L23 30L23 33L22 33L22 32L21 32L21 33L20 33L20 34L19 34L19 33L18 33L18 34L19 34L19 36L21 36L21 35L20 35L20 34L21 34L21 33L22 33L22 35L24 35L24 37L25 37L25 36L26 36L26 35L27 35L27 36L28 36L28 37L29 37L29 38L28 38L28 40L29 40L29 41L30 41L30 42L28 42L28 43L27 43L27 44L28 44L28 45L29 45L29 44L31 44L31 43L32 43L32 42L31 42L31 41L33 41L33 39L32 39L32 38L34 38L34 37L33 37L33 36L34 36L34 35L33 35L33 34L35 34L35 38L36 38L36 40L38 40L38 42L39 42L39 43L41 43L41 44L40 44L40 45L41 45L41 46L42 46L42 45L43 45L43 44L42 44L42 43L43 43L43 42L41 42L41 40L40 40L40 42L39 42L39 39L37 39L37 38L40 38L40 39L43 39L43 40L44 40L44 41L45 41L45 42L47 42L47 40L46 40L46 39L45 39L45 37L46 37L46 38L47 38L47 39L48 39L48 40L50 40L50 38L51 38L51 37L50 37L50 38L49 38L49 39L48 39L48 38L47 38L47 36L49 36L49 35L50 35L50 34L49 34L49 33L48 33L48 32L47 32L47 31L48 31L48 30L47 30L47 31L46 31L46 32L47 32L47 33L45 33L45 30L42 30L42 29L41 29L41 28L38 28L38 30L39 30L39 29L41 29L41 30L40 30L40 31L39 31L39 32L38 32L38 31L37 31L37 28L36 28L36 26ZM40 26L40 27L43 27L43 28L44 28L44 27L45 27L45 26ZM52 26L52 27L53 27L53 26ZM22 27L22 28L23 28L23 27ZM3 28L3 30L4 30L4 28ZM26 28L26 29L28 29L28 28ZM5 29L5 32L8 32L8 29ZM13 29L13 30L14 30L14 31L15 31L15 30L17 30L17 29ZM29 29L29 32L32 32L32 29ZM53 29L53 32L56 32L56 29ZM6 30L6 31L7 31L7 30ZM10 30L10 31L11 31L11 32L12 32L12 33L13 33L13 32L12 32L12 31L11 31L11 30ZM30 30L30 31L31 31L31 30ZM54 30L54 31L55 31L55 30ZM24 31L24 33L23 33L23 34L24 34L24 33L25 33L25 31ZM40 31L40 32L39 32L39 34L38 34L38 32L36 32L36 33L37 33L37 34L36 34L36 35L37 35L37 34L38 34L38 37L39 37L39 36L41 36L41 38L43 38L43 37L44 37L44 36L45 36L45 35L46 35L46 36L47 36L47 34L45 34L45 35L44 35L44 31L42 31L42 33L40 33L40 32L41 32L41 31ZM60 32L60 33L61 33L61 32ZM2 33L2 34L3 34L3 33ZM6 33L6 34L7 34L7 33ZM26 33L26 34L27 34L27 35L28 35L28 36L29 36L29 37L30 37L30 39L31 39L31 40L30 40L30 41L31 41L31 40L32 40L32 39L31 39L31 38L32 38L32 34L31 34L31 37L30 37L30 36L29 36L29 35L28 35L28 34L27 34L27 33ZM40 34L40 35L43 35L43 36L42 36L42 37L43 37L43 36L44 36L44 35L43 35L43 34ZM1 35L1 36L2 36L2 35ZM51 35L51 36L52 36L52 35ZM22 36L22 37L20 37L20 38L22 38L22 39L23 39L23 38L22 38L22 37L23 37L23 36ZM36 36L36 38L37 38L37 36ZM13 37L13 40L12 40L12 41L11 41L11 43L12 43L12 44L13 44L13 42L14 42L14 45L13 45L13 46L14 46L14 45L15 45L15 42L17 42L17 43L16 43L16 44L17 44L17 43L18 43L18 41L15 41L15 39L14 39L14 37ZM44 39L44 40L45 40L45 41L46 41L46 40L45 40L45 39ZM57 39L57 40L59 40L59 39ZM13 40L13 41L12 41L12 42L13 42L13 41L14 41L14 42L15 42L15 41L14 41L14 40ZM48 41L48 43L46 43L46 44L49 44L49 43L50 43L50 42L49 42L49 41ZM30 42L30 43L31 43L31 42ZM24 43L24 44L25 44L25 43ZM44 44L44 45L45 45L45 44ZM24 45L24 47L25 47L25 45ZM46 45L46 46L48 46L48 45ZM50 45L50 46L51 46L51 45ZM26 47L26 48L27 48L27 47ZM20 48L20 49L22 49L22 48ZM45 50L45 51L46 51L46 52L47 52L47 53L49 53L49 54L50 54L50 53L49 53L49 52L47 52L47 50ZM48 50L48 51L49 51L49 50ZM57 50L57 51L56 51L56 52L60 52L60 51L59 51L59 50ZM3 51L3 52L4 52L4 51ZM14 51L14 52L15 52L15 51ZM19 51L19 52L20 52L20 51ZM51 51L51 52L52 52L52 51ZM25 52L25 53L26 53L26 52ZM20 53L20 54L21 54L21 53ZM29 53L29 56L32 56L32 53ZM53 53L53 56L56 56L56 53ZM30 54L30 55L31 55L31 54ZM54 54L54 55L55 55L55 54ZM23 55L23 56L24 56L24 57L25 57L25 56L26 56L26 55ZM36 55L36 56L38 56L38 55ZM12 56L12 58L13 58L13 57L14 57L14 56ZM42 56L42 57L43 57L43 56ZM29 57L29 58L28 58L28 59L29 59L29 58L30 58L30 57ZM53 57L53 58L51 58L51 59L55 59L55 58L56 58L56 59L57 59L57 60L60 60L60 57L59 57L59 58L58 58L58 59L57 59L57 58L56 58L56 57ZM19 58L19 59L20 59L20 58ZM23 58L23 59L24 59L24 58ZM40 58L40 59L41 59L41 58ZM15 59L15 60L16 60L16 59ZM0 0L0 7L7 7L7 0ZM1 1L1 6L6 6L6 1ZM2 2L2 5L5 5L5 2ZM54 0L54 7L61 7L61 0ZM55 1L55 6L60 6L60 1ZM56 2L56 5L59 5L59 2ZM0 54L0 61L7 61L7 54ZM1 55L1 60L6 60L6 55ZM2 56L2 59L5 59L5 56Z" fill="#000000"/></g></g></svg>
