<?xml version="1.0" encoding="UTF-8"?>
<svg xmlns="http://www.w3.org/2000/svg" version="1.1" width="300" height="300" viewBox="0 0 300 300"><rect x="0" y="0" width="300" height="300" fill="#ffffff"/><g transform="scale(4.918)"><g transform="translate(0,0)"><path fill-rule="evenodd" d="M8 0L8 1L11 1L11 0ZM12 0L12 1L15 1L15 0ZM20 0L20 1L18 1L18 2L19 2L19 3L18 3L18 4L19 4L19 5L15 5L15 6L14 6L14 5L11 5L11 3L13 3L13 4L15 4L15 3L14 3L14 2L10 2L10 5L11 5L11 6L10 6L10 7L9 7L9 6L8 6L8 8L9 8L9 9L7 9L7 8L6 8L6 9L5 9L5 8L3 8L3 9L2 9L2 8L0 8L0 11L2 11L2 13L1 13L1 12L0 12L0 15L1 15L1 16L0 16L0 17L2 17L2 18L1 18L1 19L0 19L0 21L1 21L1 19L2 19L2 22L0 22L0 23L1 23L1 25L4 25L4 26L5 26L5 28L2 28L2 27L1 27L1 29L0 29L0 31L1 31L1 32L0 32L0 33L1 33L1 34L0 34L0 36L1 36L1 37L0 37L0 42L1 42L1 43L0 43L0 44L3 44L3 43L4 43L4 45L5 45L5 46L3 46L3 45L0 45L0 46L1 46L1 47L0 47L0 50L1 50L1 48L2 48L2 51L0 51L0 53L4 53L4 52L5 52L5 51L9 51L9 49L12 49L12 47L14 47L14 49L13 49L13 50L12 50L12 51L11 51L11 50L10 50L10 51L11 51L11 53L10 53L10 54L11 54L11 53L12 53L12 51L13 51L13 52L15 52L15 53L13 53L13 56L12 56L12 58L11 58L11 57L9 57L9 56L10 56L10 55L9 55L9 56L8 56L8 58L9 58L9 59L8 59L8 61L13 61L13 60L14 60L14 61L16 61L16 60L17 60L17 59L16 59L16 58L17 58L17 57L18 57L18 58L19 58L19 59L22 59L22 58L21 58L21 57L20 57L20 58L19 58L19 57L18 57L18 56L17 56L17 54L18 54L18 53L19 53L19 52L18 52L18 53L17 53L17 50L18 50L18 49L19 49L19 50L20 50L20 52L21 52L21 53L22 53L22 52L23 52L23 53L24 53L24 54L21 54L21 55L20 55L20 54L19 54L19 56L21 56L21 55L22 55L22 57L23 57L23 60L22 60L22 61L23 61L23 60L25 60L25 61L29 61L29 60L27 60L27 59L29 59L29 58L31 58L31 57L33 57L33 58L32 58L32 59L30 59L30 61L31 61L31 60L32 60L32 61L34 61L34 60L33 60L33 59L34 59L34 58L35 58L35 59L37 59L37 58L39 58L39 60L38 60L38 61L41 61L41 60L43 60L43 61L45 61L45 58L47 58L47 59L46 59L46 61L47 61L47 60L48 60L48 61L50 61L50 60L49 60L49 57L50 57L50 58L51 58L51 57L54 57L54 58L53 58L53 59L51 59L51 61L52 61L52 60L53 60L53 61L54 61L54 60L55 60L55 59L54 59L54 58L55 58L55 57L57 57L57 56L58 56L58 55L59 55L59 56L61 56L61 54L60 54L60 55L59 55L59 49L61 49L61 48L59 48L59 47L57 47L57 49L56 49L56 48L52 48L52 46L51 46L51 45L53 45L53 46L54 46L54 47L56 47L56 46L57 46L57 44L58 44L58 42L59 42L59 44L60 44L60 45L61 45L61 42L59 42L59 39L60 39L60 41L61 41L61 38L59 38L59 39L58 39L58 38L57 38L57 37L54 37L54 39L56 39L56 40L57 40L57 41L58 41L58 42L56 42L56 41L55 41L55 40L53 40L53 38L52 38L52 39L51 39L51 37L52 37L52 34L54 34L54 35L53 35L53 36L54 36L54 35L55 35L55 34L57 34L57 36L59 36L59 37L61 37L61 36L60 36L60 35L61 35L61 34L60 34L60 33L58 33L58 30L60 30L60 32L61 32L61 30L60 30L60 29L61 29L61 28L60 28L60 27L61 27L61 26L60 26L60 25L61 25L61 22L59 22L59 21L58 21L58 20L57 20L57 21L58 21L58 22L57 22L57 23L56 23L56 22L55 22L55 20L56 20L56 18L57 18L57 19L58 19L58 18L59 18L59 16L60 16L60 15L61 15L61 14L60 14L60 12L59 12L59 11L61 11L61 10L59 10L59 9L58 9L58 10L56 10L56 13L55 13L55 11L54 11L54 13L53 13L53 14L52 14L52 13L49 13L49 12L48 12L48 11L47 11L47 10L48 10L48 9L49 9L49 11L51 11L51 10L52 10L52 12L53 12L53 10L55 10L55 8L54 8L54 9L51 9L51 8L47 8L47 6L46 6L46 4L45 4L45 3L47 3L47 0L44 0L44 4L43 4L43 2L42 2L42 4L41 4L41 3L40 3L40 0L34 0L34 2L37 2L37 3L35 3L35 4L36 4L36 5L35 5L35 6L34 6L34 7L33 7L33 4L32 4L32 3L33 3L33 1L32 1L32 0L31 0L31 1L30 1L30 0L27 0L27 1L26 1L26 0L24 0L24 1L25 1L25 2L24 2L24 3L23 3L23 1L22 1L22 3L21 3L21 4L19 4L19 3L20 3L20 1L21 1L21 0ZM42 0L42 1L43 1L43 0ZM48 0L48 2L49 2L49 3L48 3L48 4L47 4L47 5L48 5L48 7L49 7L49 6L50 6L50 7L51 7L51 5L52 5L52 4L53 4L53 0L51 0L51 2L50 2L50 1L49 1L49 0ZM16 1L16 2L17 2L17 1ZM27 1L27 4L26 4L26 3L25 3L25 5L26 5L26 6L25 6L25 8L23 8L23 7L24 7L24 4L23 4L23 7L22 7L22 6L21 6L21 7L20 7L20 5L19 5L19 8L20 8L20 10L19 10L19 11L22 11L22 12L20 12L20 13L21 13L21 14L19 14L19 13L18 13L18 11L15 11L15 8L16 8L16 9L18 9L18 8L16 8L16 6L15 6L15 8L14 8L14 6L13 6L13 9L14 9L14 11L13 11L13 10L12 10L12 11L13 11L13 13L12 13L12 12L11 12L11 10L8 10L8 12L7 12L7 11L6 11L6 10L7 10L7 9L6 9L6 10L4 10L4 9L3 9L3 10L2 10L2 11L3 11L3 12L7 12L7 13L5 13L5 14L1 14L1 15L3 15L3 18L2 18L2 19L3 19L3 22L2 22L2 24L3 24L3 22L4 22L4 23L5 23L5 24L4 24L4 25L5 25L5 26L7 26L7 27L6 27L6 28L7 28L7 27L8 27L8 28L9 28L9 31L10 31L10 32L9 32L9 33L11 33L11 34L10 34L10 35L9 35L9 36L7 36L7 35L8 35L8 33L6 33L6 34L7 34L7 35L6 35L6 36L7 36L7 37L6 37L6 38L5 38L5 33L4 33L4 35L3 35L3 33L2 33L2 36L4 36L4 37L2 37L2 38L1 38L1 41L3 41L3 42L4 42L4 41L5 41L5 45L6 45L6 46L9 46L9 47L10 47L10 44L11 44L11 43L12 43L12 44L14 44L14 45L13 45L13 46L14 46L14 47L15 47L15 44L16 44L16 45L17 45L17 46L19 46L19 45L20 45L20 44L21 44L21 45L22 45L22 46L21 46L21 48L20 48L20 47L18 47L18 48L17 48L17 47L16 47L16 48L15 48L15 50L13 50L13 51L15 51L15 52L16 52L16 50L17 50L17 49L18 49L18 48L19 48L19 49L21 49L21 51L22 51L22 50L23 50L23 47L22 47L22 46L24 46L24 49L26 49L26 51L25 51L25 52L24 52L24 51L23 51L23 52L24 52L24 53L25 53L25 55L24 55L24 56L23 56L23 57L25 57L25 58L24 58L24 59L25 59L25 60L26 60L26 58L29 58L29 57L27 57L27 56L28 56L28 54L26 54L26 53L25 53L25 52L28 52L28 51L29 51L29 52L31 52L31 51L32 51L32 50L33 50L33 51L34 51L34 53L36 53L36 54L38 54L38 56L37 56L37 55L35 55L35 54L34 54L34 55L33 55L33 56L34 56L34 57L35 57L35 58L37 58L37 57L39 57L39 58L40 58L40 55L39 55L39 53L40 53L40 54L42 54L42 53L43 53L43 54L44 54L44 52L45 52L45 55L44 55L44 56L43 56L43 55L41 55L41 56L43 56L43 57L44 57L44 58L42 58L42 59L44 59L44 58L45 58L45 56L46 56L46 57L47 57L47 54L48 54L48 52L49 52L49 53L50 53L50 55L48 55L48 56L50 56L50 57L51 57L51 56L50 56L50 55L51 55L51 54L52 54L52 53L50 53L50 52L49 52L49 51L48 51L48 50L50 50L50 49L51 49L51 51L52 51L52 52L55 52L55 51L52 51L52 49L51 49L51 48L50 48L50 49L46 49L46 48L45 48L45 49L44 49L44 46L45 46L45 47L46 47L46 45L47 45L47 44L48 44L48 42L46 42L46 41L44 41L44 42L42 42L42 41L43 41L43 40L42 40L42 38L41 38L41 39L40 39L40 35L41 35L41 33L45 33L45 32L46 32L46 33L47 33L47 34L48 34L48 36L46 36L46 34L42 34L42 35L45 35L45 36L46 36L46 37L43 37L43 38L44 38L44 40L47 40L47 41L48 41L48 40L51 40L51 39L50 39L50 37L51 37L51 34L52 34L52 30L51 30L51 28L50 28L50 27L49 27L49 26L50 26L50 25L52 25L52 26L51 26L51 27L52 27L52 26L53 26L53 27L56 27L56 28L58 28L58 27L59 27L59 26L58 26L58 25L60 25L60 23L59 23L59 24L57 24L57 26L56 26L56 24L54 24L54 23L55 23L55 22L53 22L53 24L52 24L52 23L51 23L51 22L52 22L52 21L53 21L53 20L54 20L54 19L55 19L55 18L56 18L56 16L58 16L58 15L59 15L59 14L58 14L58 13L59 13L59 12L58 12L58 11L57 11L57 14L53 14L53 15L52 15L52 14L51 14L51 16L53 16L53 17L54 17L54 15L56 15L56 16L55 16L55 18L54 18L54 19L53 19L53 18L51 18L51 17L50 17L50 16L49 16L49 14L47 14L47 12L46 12L46 11L45 11L45 12L46 12L46 13L45 13L45 14L44 14L44 13L43 13L43 12L42 12L42 13L41 13L41 14L42 14L42 15L40 15L40 17L38 17L38 16L39 16L39 15L38 15L38 16L37 16L37 13L36 13L36 12L37 12L37 11L39 11L39 10L40 10L40 12L41 12L41 11L44 11L44 10L46 10L46 9L47 9L47 8L46 8L46 9L45 9L45 7L46 7L46 6L45 6L45 5L41 5L41 9L39 9L39 8L40 8L40 5L39 5L39 7L38 7L38 4L40 4L40 3L39 3L39 1L38 1L38 4L37 4L37 7L36 7L36 6L35 6L35 8L38 8L38 9L36 9L36 10L35 10L35 11L36 11L36 12L34 12L34 11L32 11L32 10L34 10L34 8L33 8L33 9L29 9L29 10L30 10L30 11L32 11L32 12L30 12L30 13L29 13L29 12L28 12L28 13L29 13L29 14L27 14L27 13L26 13L26 11L27 11L27 10L28 10L28 4L31 4L31 3L32 3L32 1L31 1L31 3L29 3L29 1ZM45 1L45 2L46 2L46 1ZM51 3L51 4L52 4L52 3ZM21 4L21 5L22 5L22 4ZM48 4L48 5L49 5L49 4ZM29 5L29 8L32 8L32 5ZM11 6L11 8L10 8L10 9L12 9L12 6ZM17 6L17 7L18 7L18 6ZM26 6L26 8L27 8L27 6ZM30 6L30 7L31 7L31 6ZM42 6L42 7L43 7L43 6ZM44 6L44 7L45 7L45 6ZM52 6L52 8L53 8L53 6ZM21 7L21 9L23 9L23 10L22 10L22 11L26 11L26 10L25 10L25 9L23 9L23 8L22 8L22 7ZM43 8L43 9L41 9L41 10L43 10L43 9L44 9L44 8ZM60 8L60 9L61 9L61 8ZM38 9L38 10L39 10L39 9ZM3 10L3 11L4 11L4 10ZM14 11L14 13L13 13L13 15L12 15L12 13L9 13L9 12L8 12L8 13L9 13L9 14L6 14L6 15L9 15L9 14L10 14L10 16L5 16L5 15L4 15L4 20L5 20L5 19L7 19L7 20L6 20L6 21L9 21L9 17L10 17L10 22L11 22L11 24L9 24L9 25L8 25L8 23L9 23L9 22L5 22L5 23L7 23L7 24L5 24L5 25L8 25L8 27L10 27L10 28L11 28L11 32L12 32L12 34L11 34L11 36L14 36L14 37L11 37L11 39L12 39L12 38L14 38L14 40L12 40L12 41L11 41L11 40L9 40L9 38L8 38L8 37L7 37L7 38L6 38L6 39L5 39L5 38L4 38L4 40L3 40L3 41L4 41L4 40L5 40L5 41L8 41L8 42L9 42L9 44L8 44L8 43L7 43L7 42L6 42L6 43L7 43L7 44L6 44L6 45L9 45L9 44L10 44L10 42L12 42L12 43L13 43L13 42L14 42L14 44L15 44L15 43L16 43L16 42L17 42L17 45L19 45L19 43L20 43L20 42L21 42L21 43L22 43L22 45L23 45L23 44L25 44L25 45L24 45L24 46L25 46L25 45L26 45L26 44L27 44L27 48L26 48L26 47L25 47L25 48L26 48L26 49L27 49L27 51L28 51L28 50L29 50L29 48L30 48L30 49L31 49L31 50L30 50L30 51L31 51L31 50L32 50L32 49L33 49L33 50L34 50L34 49L35 49L35 52L36 52L36 53L37 53L37 52L38 52L38 53L39 53L39 52L38 52L38 51L39 51L39 49L41 49L41 50L40 50L40 52L41 52L41 53L42 53L42 52L44 52L44 51L45 51L45 50L46 50L46 49L45 49L45 50L44 50L44 49L41 49L41 48L43 48L43 47L41 47L41 48L36 48L36 49L35 49L35 45L36 45L36 47L37 47L37 46L39 46L39 47L40 47L40 46L39 46L39 45L41 45L41 44L42 44L42 46L43 46L43 45L44 45L44 43L46 43L46 42L44 42L44 43L42 43L42 42L41 42L41 43L39 43L39 44L35 44L35 45L34 45L34 44L33 44L33 43L34 43L34 42L35 42L35 40L33 40L33 39L34 39L34 37L35 37L35 36L36 36L36 39L37 39L37 40L36 40L36 43L38 43L38 41L39 41L39 42L40 42L40 41L39 41L39 40L40 40L40 39L39 39L39 35L40 35L40 34L39 34L39 33L41 33L41 32L42 32L42 31L41 31L41 30L43 30L43 32L44 32L44 31L46 31L46 30L48 30L48 29L49 29L49 27L48 27L48 29L47 29L47 28L44 28L44 25L46 25L46 24L48 24L48 25L47 25L47 26L49 26L49 24L51 24L51 23L49 23L49 24L48 24L48 22L49 22L49 20L50 20L50 22L51 22L51 20L53 20L53 19L51 19L51 20L50 20L50 17L49 17L49 16L48 16L48 15L47 15L47 17L46 17L46 15L45 15L45 16L44 16L44 15L43 15L43 16L42 16L42 18L41 18L41 19L40 19L40 18L39 18L39 19L38 19L38 18L37 18L37 20L35 20L35 19L33 19L33 18L35 18L35 17L33 17L33 16L35 16L35 15L36 15L36 13L35 13L35 15L34 15L34 13L33 13L33 12L32 12L32 13L33 13L33 16L32 16L32 19L31 19L31 18L30 18L30 19L29 19L29 20L27 20L27 21L29 21L29 22L25 22L25 21L26 21L26 19L28 19L28 18L29 18L29 17L28 17L28 18L27 18L27 16L29 16L29 15L27 15L27 16L25 16L25 15L26 15L26 13L24 13L24 12L22 12L22 14L23 14L23 15L18 15L18 13L17 13L17 14L16 14L16 12L15 12L15 11ZM14 13L14 15L15 15L15 17L14 17L14 16L13 16L13 17L12 17L12 15L11 15L11 16L10 16L10 17L11 17L11 18L12 18L12 19L11 19L11 20L12 20L12 21L11 21L11 22L12 22L12 24L13 24L13 23L14 23L14 24L15 24L15 23L18 23L18 24L16 24L16 26L15 26L15 25L10 25L10 27L11 27L11 28L12 28L12 30L13 30L13 29L14 29L14 32L15 32L15 28L16 28L16 26L18 26L18 25L20 25L20 24L24 24L24 25L26 25L26 26L25 26L25 27L24 27L24 26L23 26L23 27L24 27L24 28L25 28L25 27L26 27L26 28L27 28L27 30L26 30L26 29L25 29L25 30L24 30L24 29L23 29L23 28L20 28L20 27L21 27L21 26L19 26L19 29L18 29L18 27L17 27L17 29L18 29L18 30L16 30L16 31L17 31L17 33L16 33L16 34L19 34L19 35L18 35L18 36L17 36L17 35L16 35L16 36L15 36L15 35L14 35L14 36L15 36L15 37L14 37L14 38L15 38L15 39L18 39L18 38L17 38L17 37L18 37L18 36L20 36L20 37L21 37L21 38L20 38L20 40L19 40L19 41L20 41L20 40L22 40L22 41L21 41L21 42L23 42L23 43L24 43L24 41L25 41L25 44L26 44L26 43L27 43L27 42L26 42L26 41L25 41L25 39L23 39L23 38L22 38L22 36L23 36L23 35L24 35L24 37L25 37L25 36L27 36L27 37L26 37L26 39L27 39L27 40L28 40L28 41L30 41L30 42L32 42L32 43L28 43L28 44L29 44L29 45L28 45L28 46L29 46L29 47L30 47L30 46L31 46L31 45L32 45L32 48L31 48L31 49L32 49L32 48L33 48L33 49L34 49L34 45L33 45L33 44L32 44L32 43L33 43L33 42L34 42L34 41L33 41L33 40L32 40L32 39L30 39L30 38L32 38L32 37L29 37L29 36L27 36L27 32L28 32L28 28L27 28L27 27L26 27L26 26L27 26L27 25L26 25L26 24L24 24L24 22L23 22L23 21L22 21L22 20L21 20L21 19L20 19L20 20L21 20L21 21L22 21L22 23L21 23L21 22L19 22L19 21L18 21L18 20L19 20L19 18L21 18L21 17L22 17L22 18L23 18L23 20L24 20L24 21L25 21L25 20L24 20L24 19L25 19L25 18L26 18L26 17L25 17L25 16L24 16L24 15L25 15L25 14L24 14L24 15L23 15L23 16L19 16L19 17L18 17L18 19L16 19L16 17L17 17L17 16L16 16L16 14L15 14L15 13ZM30 13L30 14L31 14L31 15L30 15L30 16L31 16L31 15L32 15L32 14L31 14L31 13ZM39 13L39 14L40 14L40 13ZM42 13L42 14L43 14L43 13ZM23 16L23 18L25 18L25 17L24 17L24 16ZM36 16L36 17L37 17L37 16ZM5 17L5 18L8 18L8 17ZM13 17L13 18L14 18L14 17ZM45 17L45 18L46 18L46 19L44 19L44 18L42 18L42 19L41 19L41 22L40 22L40 23L39 23L39 22L38 22L38 23L37 23L37 22L36 22L36 21L35 21L35 20L34 20L34 21L35 21L35 23L36 23L36 24L34 24L34 23L33 23L33 24L34 24L34 25L32 25L32 26L30 26L30 25L31 25L31 24L32 24L32 23L31 23L31 24L30 24L30 25L29 25L29 26L28 26L28 27L31 27L31 28L32 28L32 27L35 27L35 28L33 28L33 30L34 30L34 31L33 31L33 32L35 32L35 30L36 30L36 31L37 31L37 30L36 30L36 28L37 28L37 29L38 29L38 31L39 31L39 28L38 28L38 27L37 27L37 26L38 26L38 25L39 25L39 26L40 26L40 25L39 25L39 24L41 24L41 27L40 27L40 29L43 29L43 30L46 30L46 29L44 29L44 28L42 28L42 27L43 27L43 26L42 26L42 25L43 25L43 24L44 24L44 22L46 22L46 21L47 21L47 20L49 20L49 19L47 19L47 18L46 18L46 17ZM48 17L48 18L49 18L49 17ZM57 17L57 18L58 18L58 17ZM60 18L60 19L61 19L61 18ZM12 19L12 20L13 20L13 19ZM14 19L14 20L15 20L15 22L14 22L14 21L13 21L13 22L14 22L14 23L15 23L15 22L17 22L17 21L16 21L16 20L15 20L15 19ZM32 19L32 21L31 21L31 20L29 20L29 21L31 21L31 22L33 22L33 19ZM39 19L39 20L40 20L40 19ZM42 19L42 22L41 22L41 24L42 24L42 22L43 22L43 21L44 21L44 20L43 20L43 19ZM46 19L46 20L45 20L45 21L46 21L46 20L47 20L47 19ZM27 23L27 24L28 24L28 23ZM45 23L45 24L46 24L46 23ZM36 24L36 25L38 25L38 24ZM53 24L53 26L55 26L55 25L54 25L54 24ZM12 26L12 27L13 27L13 28L14 28L14 27L15 27L15 26ZM35 26L35 27L36 27L36 26ZM57 26L57 27L58 27L58 26ZM1 29L1 30L3 30L3 29ZM5 29L5 32L8 32L8 29ZM19 29L19 31L18 31L18 33L19 33L19 34L20 34L20 36L22 36L22 34L24 34L24 35L26 35L26 34L25 34L25 33L24 33L24 32L27 32L27 31L24 31L24 30L23 30L23 31L24 31L24 32L22 32L22 31L20 31L20 29ZM21 29L21 30L22 30L22 29ZM29 29L29 32L32 32L32 29ZM34 29L34 30L35 30L35 29ZM53 29L53 32L56 32L56 29ZM57 29L57 30L58 30L58 29ZM6 30L6 31L7 31L7 30ZM30 30L30 31L31 31L31 30ZM49 30L49 32L48 32L48 31L47 31L47 32L48 32L48 33L49 33L49 34L51 34L51 33L49 33L49 32L50 32L50 30ZM54 30L54 31L55 31L55 30ZM19 31L19 32L20 32L20 33L21 33L21 34L22 34L22 33L21 33L21 32L20 32L20 31ZM28 33L28 34L30 34L30 36L33 36L33 37L34 37L34 35L33 35L33 34L30 34L30 33ZM54 33L54 34L55 34L55 33ZM57 33L57 34L58 34L58 33ZM35 34L35 35L36 35L36 36L37 36L37 37L38 37L38 36L37 36L37 35L36 35L36 34ZM38 34L38 35L39 35L39 34ZM48 36L48 37L50 37L50 36ZM15 37L15 38L16 38L16 37ZM27 37L27 39L28 39L28 37ZM2 38L2 39L3 39L3 38ZM21 38L21 39L22 39L22 38ZM48 38L48 39L49 39L49 38ZM6 39L6 40L7 40L7 39ZM38 39L38 40L37 40L37 41L38 41L38 40L39 40L39 39ZM8 40L8 41L9 41L9 40ZM14 40L14 42L15 42L15 40ZM23 40L23 41L24 41L24 40ZM30 40L30 41L32 41L32 42L33 42L33 41L32 41L32 40ZM41 40L41 41L42 41L42 40ZM52 40L52 42L53 42L53 45L54 45L54 44L56 44L56 42L55 42L55 41L54 41L54 42L53 42L53 40ZM17 41L17 42L18 42L18 43L19 43L19 42L18 42L18 41ZM50 41L50 43L49 43L49 44L50 44L50 45L48 45L48 46L49 46L49 47L47 47L47 48L49 48L49 47L51 47L51 46L50 46L50 45L51 45L51 41ZM54 42L54 43L55 43L55 42ZM30 44L30 45L29 45L29 46L30 46L30 45L31 45L31 44ZM45 44L45 45L46 45L46 44ZM11 45L11 47L12 47L12 45ZM2 46L2 48L4 48L4 50L8 50L8 49L9 49L9 48L8 48L8 47L6 47L6 48L5 48L5 47L3 47L3 46ZM60 46L60 47L61 47L61 46ZM6 48L6 49L7 49L7 48ZM16 48L16 49L17 49L17 48ZM58 48L58 49L59 49L59 48ZM37 49L37 51L36 51L36 52L37 52L37 51L38 51L38 49ZM41 50L41 51L43 51L43 50ZM56 50L56 52L58 52L58 50ZM60 50L60 53L61 53L61 50ZM3 51L3 52L4 52L4 51ZM46 51L46 52L48 52L48 51ZM6 52L6 53L7 53L7 52ZM8 52L8 54L9 54L9 52ZM29 53L29 56L32 56L32 53ZM46 53L46 54L47 54L47 53ZM53 53L53 56L56 56L56 53ZM14 54L14 56L15 56L15 57L17 57L17 56L16 56L16 54ZM30 54L30 55L31 55L31 54ZM54 54L54 55L55 55L55 54ZM57 54L57 55L58 55L58 54ZM25 55L25 56L27 56L27 55ZM35 56L35 57L37 57L37 56ZM58 57L58 59L57 59L57 58L56 58L56 59L57 59L57 60L56 60L56 61L58 61L58 60L60 60L60 61L61 61L61 57L60 57L60 58L59 58L59 57ZM12 58L12 59L10 59L10 60L13 60L13 59L14 59L14 58ZM40 59L40 60L41 60L41 59ZM53 59L53 60L54 60L54 59ZM18 60L18 61L20 61L20 60ZM36 60L36 61L37 61L37 60ZM0 0L0 7L7 7L7 0ZM1 1L1 6L6 6L6 1ZM2 2L2 5L5 5L5 2ZM54 0L54 7L61 7L61 0ZM55 1L55 6L60 6L60 1ZM56 2L56 5L59 5L59 2ZM0 54L0 61L7 61L7 54ZM1 55L1 60L6 60L6 55ZM2 56L2 59L5 59L5 56Z" fill="#000000"/></g></g></svg>
