<?xml version="1.0" encoding="UTF-8"?>
<svg xmlns="http://www.w3.org/2000/svg" version="1.1" width="300" height="300" viewBox="0 0 300 300"><rect x="0" y="0" width="300" height="300" fill="#ffffff"/><g transform="scale(4.348)"><g transform="translate(0,0)"><path fill-rule="evenodd" d="M9 0L9 1L8 1L8 2L9 2L9 1L10 1L10 3L8 3L8 4L10 4L10 3L11 3L11 5L8 5L8 7L9 7L9 6L10 6L10 9L9 9L9 8L6 8L6 9L7 9L7 10L4 10L4 11L2 11L2 10L1 10L1 9L5 9L5 8L0 8L0 10L1 10L1 12L2 12L2 13L3 13L3 14L1 14L1 16L0 16L0 17L1 17L1 18L3 18L3 16L4 16L4 12L5 12L5 13L8 13L8 12L9 12L9 14L12 14L12 15L10 15L10 16L9 16L9 17L10 17L10 18L9 18L9 19L10 19L10 20L8 20L8 19L7 19L7 18L8 18L8 15L7 15L7 14L5 14L5 17L7 17L7 18L6 18L6 19L7 19L7 20L5 20L5 18L4 18L4 19L3 19L3 21L4 21L4 20L5 20L5 22L4 22L4 24L5 24L5 26L3 26L3 25L2 25L2 24L3 24L3 22L2 22L2 20L1 20L1 19L0 19L0 20L1 20L1 23L0 23L0 24L1 24L1 25L2 25L2 26L1 26L1 27L0 27L0 28L1 28L1 27L2 27L2 26L3 26L3 27L4 27L4 29L0 29L0 32L1 32L1 31L2 31L2 33L1 33L1 35L0 35L0 36L1 36L1 37L0 37L0 38L2 38L2 39L3 39L3 38L2 38L2 33L3 33L3 34L4 34L4 35L3 35L3 36L4 36L4 39L5 39L5 40L3 40L3 41L2 41L2 40L1 40L1 41L2 41L2 42L4 42L4 43L2 43L2 46L3 46L3 47L5 47L5 48L6 48L6 49L5 49L5 50L4 50L4 49L2 49L2 48L1 48L1 45L0 45L0 49L1 49L1 50L4 50L4 51L5 51L5 50L6 50L6 51L7 51L7 50L8 50L8 47L9 47L9 44L10 44L10 46L12 46L12 48L11 48L11 47L10 47L10 48L9 48L9 49L10 49L10 48L11 48L11 49L12 49L12 50L10 50L10 51L11 51L11 53L12 53L12 52L15 52L15 53L13 53L13 54L14 54L14 56L13 56L13 57L11 57L11 56L10 56L10 57L8 57L8 56L5 56L5 55L4 55L4 54L5 54L5 52L3 52L3 51L1 51L1 52L0 52L0 53L3 53L3 54L0 54L0 56L2 56L2 55L4 55L4 56L3 56L3 57L0 57L0 61L1 61L1 58L2 58L2 59L3 59L3 58L4 58L4 59L7 59L7 58L10 58L10 57L11 57L11 58L12 58L12 59L13 59L13 57L16 57L16 58L15 58L15 59L16 59L16 60L15 60L15 61L14 61L14 60L13 60L13 61L11 61L11 59L10 59L10 61L8 61L8 63L9 63L9 64L8 64L8 69L9 69L9 68L10 68L10 69L11 69L11 68L12 68L12 67L13 67L13 68L15 68L15 69L22 69L22 66L23 66L23 65L22 65L22 66L21 66L21 68L19 68L19 67L20 67L20 66L19 66L19 65L20 65L20 64L19 64L19 62L18 62L18 63L17 63L17 62L16 62L16 61L17 61L17 60L18 60L18 61L21 61L21 62L20 62L20 63L21 63L21 62L24 62L24 64L25 64L25 65L24 65L24 67L23 67L23 68L25 68L25 69L26 69L26 67L28 67L28 68L27 68L27 69L29 69L29 67L30 67L30 69L31 69L31 67L32 67L32 68L33 68L33 69L35 69L35 68L36 68L36 69L38 69L38 68L37 68L37 66L38 66L38 67L40 67L40 68L39 68L39 69L40 69L40 68L41 68L41 67L42 67L42 68L43 68L43 69L44 69L44 68L45 68L45 69L49 69L49 68L50 68L50 67L51 67L51 66L52 66L52 68L51 68L51 69L52 69L52 68L54 68L54 69L56 69L56 68L57 68L57 67L56 67L56 68L55 68L55 67L53 67L53 66L55 66L55 65L56 65L56 66L58 66L58 67L59 67L59 68L61 68L61 69L64 69L64 68L65 68L65 67L66 67L66 68L67 68L67 69L68 69L68 68L67 68L67 65L65 65L65 64L68 64L68 65L69 65L69 64L68 64L68 62L69 62L69 61L68 61L68 60L67 60L67 59L68 59L68 58L69 58L69 57L68 57L68 56L67 56L67 55L68 55L68 54L69 54L69 53L68 53L68 54L66 54L66 53L65 53L65 52L68 52L68 50L69 50L69 49L66 49L66 48L69 48L69 47L67 47L67 45L65 45L65 44L68 44L68 42L69 42L69 41L68 41L68 42L67 42L67 41L66 41L66 42L67 42L67 43L65 43L65 44L63 44L63 43L62 43L62 44L60 44L60 45L59 45L59 44L58 44L58 43L59 43L59 42L61 42L61 41L59 41L59 40L58 40L58 39L59 39L59 38L60 38L60 39L62 39L62 40L64 40L64 41L65 41L65 40L64 40L64 39L65 39L65 38L63 38L63 39L62 39L62 38L61 38L61 37L65 37L65 36L67 36L67 37L66 37L66 38L67 38L67 39L66 39L66 40L68 40L68 38L69 38L69 36L67 36L67 35L68 35L68 34L69 34L69 33L66 33L66 34L65 34L65 32L67 32L67 31L65 31L65 29L66 29L66 30L67 30L67 29L66 29L66 28L68 28L68 30L69 30L69 27L68 27L68 26L69 26L69 25L68 25L68 24L67 24L67 23L68 23L68 22L69 22L69 19L64 19L64 20L68 20L68 22L67 22L67 21L66 21L66 22L67 22L67 23L66 23L66 24L67 24L67 25L68 25L68 26L67 26L67 27L66 27L66 25L65 25L65 26L63 26L63 30L62 30L62 28L61 28L61 29L60 29L60 30L61 30L61 32L60 32L60 31L59 31L59 30L58 30L58 29L59 29L59 28L60 28L60 26L61 26L61 27L62 27L62 23L63 23L63 24L65 24L65 23L64 23L64 22L65 22L65 21L63 21L63 20L62 20L62 19L63 19L63 18L65 18L65 17L66 17L66 18L67 18L67 17L68 17L68 18L69 18L69 16L67 16L67 15L64 15L64 14L65 14L65 13L66 13L66 14L67 14L67 12L68 12L68 10L69 10L69 9L68 9L68 8L67 8L67 9L66 9L66 8L65 8L65 11L64 11L64 12L62 12L62 11L63 11L63 10L62 10L62 8L61 8L61 9L59 9L59 8L57 8L57 6L58 6L58 7L59 7L59 4L58 4L58 3L59 3L59 2L56 2L56 0L53 0L53 1L55 1L55 2L54 2L54 3L53 3L53 2L52 2L52 3L51 3L51 5L50 5L50 2L51 2L51 1L52 1L52 0L51 0L51 1L50 1L50 2L49 2L49 0L47 0L47 1L45 1L45 0L41 0L41 1L43 1L43 2L44 2L44 3L42 3L42 2L39 2L39 1L38 1L38 0L37 0L37 1L36 1L36 2L37 2L37 3L36 3L36 4L35 4L35 3L34 3L34 2L35 2L35 0L33 0L33 2L31 2L31 3L30 3L30 4L29 4L29 0L28 0L28 1L27 1L27 2L26 2L26 3L25 3L25 4L22 4L22 3L24 3L24 2L25 2L25 0L24 0L24 2L22 2L22 1L23 1L23 0L21 0L21 3L19 3L19 2L20 2L20 1L19 1L19 0L16 0L16 1L15 1L15 2L13 2L13 1L14 1L14 0L13 0L13 1L12 1L12 2L11 2L11 0ZM57 0L57 1L61 1L61 0ZM16 1L16 3L14 3L14 4L13 4L13 2L12 2L12 4L13 4L13 5L14 5L14 6L13 6L13 10L11 10L11 9L12 9L12 8L11 8L11 9L10 9L10 10L7 10L7 11L5 11L5 12L7 12L7 11L10 11L10 10L11 10L11 13L12 13L12 11L13 11L13 10L14 10L14 11L15 11L15 12L16 12L16 13L15 13L15 16L14 16L14 13L13 13L13 16L12 16L12 17L13 17L13 18L12 18L12 19L13 19L13 20L12 20L12 21L14 21L14 24L16 24L16 25L15 25L15 26L14 26L14 25L13 25L13 24L12 24L12 23L13 23L13 22L12 22L12 23L11 23L11 25L9 25L9 26L8 26L8 27L6 27L6 26L7 26L7 25L8 25L8 24L10 24L10 23L8 23L8 22L7 22L7 21L6 21L6 22L5 22L5 24L7 24L7 25L6 25L6 26L5 26L5 27L6 27L6 28L7 28L7 29L5 29L5 30L3 30L3 31L4 31L4 32L3 32L3 33L4 33L4 32L5 32L5 30L9 30L9 29L8 29L8 28L9 28L9 27L11 27L11 26L12 26L12 29L11 29L11 28L10 28L10 31L12 31L12 29L13 29L13 28L14 28L14 30L13 30L13 31L14 31L14 32L11 32L11 33L10 33L10 32L9 32L9 34L12 34L12 36L13 36L13 37L15 37L15 38L14 38L14 39L13 39L13 38L11 38L11 39L9 39L9 40L11 40L11 41L10 41L10 43L11 43L11 44L12 44L12 43L11 43L11 41L12 41L12 42L13 42L13 41L14 41L14 40L15 40L15 41L16 41L16 42L15 42L15 43L16 43L16 44L17 44L17 45L16 45L16 47L15 47L15 45L14 45L14 46L13 46L13 48L16 48L16 47L17 47L17 48L18 48L18 49L16 49L16 50L18 50L18 49L23 49L23 50L22 50L22 51L23 51L23 52L22 52L22 53L15 53L15 54L16 54L16 55L15 55L15 56L16 56L16 57L17 57L17 58L19 58L19 57L18 57L18 55L17 55L17 54L19 54L19 56L20 56L20 60L22 60L22 61L25 61L25 60L24 60L24 59L23 59L23 58L24 58L24 57L22 57L22 56L21 56L21 55L22 55L22 53L25 53L25 54L24 54L24 56L25 56L25 55L26 55L26 57L25 57L25 58L26 58L26 61L27 61L27 63L28 63L28 65L25 65L25 67L26 67L26 66L28 66L28 65L29 65L29 66L30 66L30 67L31 67L31 66L32 66L32 65L29 65L29 63L30 63L30 62L31 62L31 63L32 63L32 61L30 61L30 62L29 62L29 61L27 61L27 58L29 58L29 59L30 59L30 60L31 60L31 59L32 59L32 58L31 58L31 59L30 59L30 58L29 58L29 57L30 57L30 56L29 56L29 55L30 55L30 54L31 54L31 57L36 57L36 59L37 59L37 57L38 57L38 58L39 58L39 60L37 60L37 61L38 61L38 62L37 62L37 63L38 63L38 64L37 64L37 65L38 65L38 66L39 66L39 63L38 63L38 62L39 62L39 60L40 60L40 61L41 61L41 62L40 62L40 63L41 63L41 64L40 64L40 65L43 65L43 66L42 66L42 67L45 67L45 64L46 64L46 66L47 66L47 67L46 67L46 68L47 68L47 67L48 67L48 68L49 68L49 67L50 67L50 66L51 66L51 65L54 65L54 64L55 64L55 63L56 63L56 65L58 65L58 66L62 66L62 68L63 68L63 67L65 67L65 66L63 66L63 65L58 65L58 64L59 64L59 63L58 63L58 62L59 62L59 61L60 61L60 60L62 60L62 59L64 59L64 60L65 60L65 59L64 59L64 58L65 58L65 57L67 57L67 58L68 58L68 57L67 57L67 56L66 56L66 54L65 54L65 53L64 53L64 52L65 52L65 51L64 51L64 52L63 52L63 53L62 53L62 51L63 51L63 49L64 49L64 50L65 50L65 49L64 49L64 47L65 47L65 45L63 45L63 46L62 46L62 47L60 47L60 48L59 48L59 49L58 49L58 50L57 50L57 52L56 52L56 49L57 49L57 48L56 48L56 47L58 47L58 46L59 46L59 45L58 45L58 46L57 46L57 44L56 44L56 43L55 43L55 42L57 42L57 43L58 43L58 42L59 42L59 41L58 41L58 42L57 42L57 40L56 40L56 39L55 39L55 38L59 38L59 37L60 37L60 35L59 35L59 37L57 37L57 36L56 36L56 34L57 34L57 35L58 35L58 34L59 34L59 33L60 33L60 32L59 32L59 31L58 31L58 30L57 30L57 28L55 28L55 29L56 29L56 30L57 30L57 31L58 31L58 32L59 32L59 33L58 33L58 34L57 34L57 32L56 32L56 31L55 31L55 30L53 30L53 31L54 31L54 32L51 32L51 33L50 33L50 31L48 31L48 28L49 28L49 30L51 30L51 31L52 31L52 29L53 29L53 28L52 28L52 27L57 27L57 26L56 26L56 25L58 25L58 26L59 26L59 25L61 25L61 23L62 23L62 22L63 22L63 21L62 21L62 20L61 20L61 19L58 19L58 20L59 20L59 21L58 21L58 22L57 22L57 20L56 20L56 19L57 19L57 18L56 18L56 19L55 19L55 18L52 18L52 17L53 17L53 16L55 16L55 15L57 15L57 16L56 16L56 17L57 17L57 16L58 16L58 18L59 18L59 16L60 16L60 17L61 17L61 16L62 16L62 18L63 18L63 17L65 17L65 16L63 16L63 15L62 15L62 14L63 14L63 13L62 13L62 12L61 12L61 11L59 11L59 12L60 12L60 13L58 13L58 14L59 14L59 15L57 15L57 12L55 12L55 11L54 11L54 12L50 12L50 10L51 10L51 11L52 11L52 10L53 10L53 8L52 8L52 10L51 10L51 9L50 9L50 8L51 8L51 7L52 7L52 6L53 6L53 7L54 7L54 9L55 9L55 10L56 10L56 9L57 9L57 10L59 10L59 9L57 9L57 8L56 8L56 6L57 6L57 5L58 5L58 4L57 4L57 3L56 3L56 2L55 2L55 3L56 3L56 4L55 4L55 5L54 5L54 4L53 4L53 3L52 3L52 4L53 4L53 5L52 5L52 6L51 6L51 7L50 7L50 5L49 5L49 4L47 4L47 3L49 3L49 2L46 2L46 5L45 5L45 3L44 3L44 4L43 4L43 5L41 5L41 4L42 4L42 3L37 3L37 4L38 4L38 5L37 5L37 7L38 7L38 8L37 8L37 9L38 9L38 10L39 10L39 11L41 11L41 12L38 12L38 11L37 11L37 10L36 10L36 9L34 9L34 10L36 10L36 11L33 11L33 10L32 10L32 9L31 9L31 8L32 8L32 3L31 3L31 4L30 4L30 6L29 6L29 4L27 4L27 3L28 3L28 2L27 2L27 3L26 3L26 4L25 4L25 8L26 8L26 9L28 9L28 10L29 10L29 11L28 11L28 12L32 12L32 13L28 13L28 15L27 15L27 10L26 10L26 14L25 14L25 15L26 15L26 16L21 16L21 15L19 15L19 13L20 13L20 14L21 14L21 13L23 13L23 14L22 14L22 15L24 15L24 13L25 13L25 9L24 9L24 6L23 6L23 5L22 5L22 4L16 4L16 3L17 3L17 1ZM60 3L60 5L61 5L61 3ZM26 4L26 8L27 8L27 6L28 6L28 7L29 7L29 6L28 6L28 5L27 5L27 4ZM39 4L39 5L38 5L38 7L39 7L39 5L40 5L40 8L41 8L41 5L40 5L40 4ZM56 4L56 5L57 5L57 4ZM11 5L11 7L12 7L12 5ZM15 5L15 6L14 6L14 7L15 7L15 6L16 6L16 10L15 10L15 11L16 11L16 12L18 12L18 13L19 13L19 12L20 12L20 13L21 13L21 12L22 12L22 11L23 11L23 12L24 12L24 11L23 11L23 10L24 10L24 9L23 9L23 10L22 10L22 11L21 11L21 12L20 12L20 9L22 9L22 8L19 8L19 6L20 6L20 7L21 7L21 6L22 6L22 7L23 7L23 6L22 6L22 5L21 5L21 6L20 6L20 5L18 5L18 8L17 8L17 5ZM33 5L33 8L36 8L36 5ZM43 5L43 6L42 6L42 8L45 8L45 10L46 10L46 12L45 12L45 11L44 11L44 12L43 12L43 11L42 11L42 10L44 10L44 9L42 9L42 10L41 10L41 11L42 11L42 12L41 12L41 15L39 15L39 14L38 14L38 12L37 12L37 14L36 14L36 12L34 12L34 13L33 13L33 14L30 14L30 15L33 15L33 16L34 16L34 15L33 15L33 14L34 14L34 13L35 13L35 16L36 16L36 17L34 17L34 18L32 18L32 19L33 19L33 21L32 21L32 20L31 20L31 18L30 18L30 17L31 17L31 16L29 16L29 15L28 15L28 16L29 16L29 18L30 18L30 21L29 21L29 20L28 20L28 19L27 19L27 18L28 18L28 17L27 17L27 18L26 18L26 17L24 17L24 18L23 18L23 17L18 17L18 16L17 16L17 15L18 15L18 14L17 14L17 15L16 15L16 19L18 19L18 18L20 18L20 19L19 19L19 20L16 20L16 22L17 22L17 21L21 21L21 22L22 22L22 23L20 23L20 22L18 22L18 23L17 23L17 25L16 25L16 26L15 26L15 27L14 27L14 26L13 26L13 25L12 25L12 26L13 26L13 27L14 27L14 28L15 28L15 29L17 29L17 30L15 30L15 32L14 32L14 33L13 33L13 35L15 35L15 37L19 37L19 35L20 35L20 34L19 34L19 33L20 33L20 32L19 32L19 30L20 30L20 31L21 31L21 32L22 32L22 31L23 31L23 30L25 30L25 31L24 31L24 32L23 32L23 33L21 33L21 36L20 36L20 37L22 37L22 38L20 38L20 39L22 39L22 38L27 38L27 39L26 39L26 40L24 40L24 39L23 39L23 40L24 40L24 41L23 41L23 42L24 42L24 41L26 41L26 42L25 42L25 43L26 43L26 42L27 42L27 41L26 41L26 40L27 40L27 39L28 39L28 38L27 38L27 37L29 37L29 34L30 34L30 37L31 37L31 38L33 38L33 40L35 40L35 41L33 41L33 42L32 42L32 41L30 41L30 40L28 40L28 41L30 41L30 42L32 42L32 44L31 44L31 43L29 43L29 44L27 44L27 45L26 45L26 44L25 44L25 45L24 45L24 43L23 43L23 45L21 45L21 44L22 44L22 43L21 43L21 42L20 42L20 41L22 41L22 40L20 40L20 41L19 41L19 40L17 40L17 42L18 42L18 43L17 43L17 44L18 44L18 45L17 45L17 47L18 47L18 45L19 45L19 44L20 44L20 45L21 45L21 46L20 46L20 48L21 48L21 47L24 47L24 48L23 48L23 49L24 49L24 50L25 50L25 51L24 51L24 52L25 52L25 53L26 53L26 55L27 55L27 57L26 57L26 58L27 58L27 57L29 57L29 56L28 56L28 55L29 55L29 54L27 54L27 53L29 53L29 52L28 52L28 51L27 51L27 53L26 53L26 52L25 52L25 51L26 51L26 49L24 49L24 48L26 48L26 47L25 47L25 45L26 45L26 46L28 46L28 45L29 45L29 46L30 46L30 47L31 47L31 46L30 46L30 45L34 45L34 46L32 46L32 47L33 47L33 48L32 48L32 49L31 49L31 48L29 48L29 49L31 49L31 50L30 50L30 51L31 51L31 52L30 52L30 53L31 53L31 54L32 54L32 55L33 55L33 56L36 56L36 57L37 57L37 56L38 56L38 55L35 55L35 54L39 54L39 55L40 55L40 56L41 56L41 53L42 53L42 54L43 54L43 55L42 55L42 58L43 58L43 56L45 56L45 57L44 57L44 58L45 58L45 57L47 57L47 58L46 58L46 60L45 60L45 59L44 59L44 60L45 60L45 61L46 61L46 60L48 60L48 61L51 61L51 62L50 62L50 63L51 63L51 64L50 64L50 65L49 65L49 64L48 64L48 62L46 62L46 63L47 63L47 66L48 66L48 67L49 67L49 66L50 66L50 65L51 65L51 64L53 64L53 63L54 63L54 62L55 62L55 60L57 60L57 61L56 61L56 62L58 62L58 59L59 59L59 60L60 60L60 59L61 59L61 57L65 57L65 56L63 56L63 55L62 55L62 53L61 53L61 52L60 52L60 49L59 49L59 50L58 50L58 52L57 52L57 53L59 53L59 54L58 54L58 55L57 55L57 54L55 54L55 53L56 53L56 52L55 52L55 51L54 51L54 52L53 52L53 50L55 50L55 49L56 49L56 48L55 48L55 47L56 47L56 46L55 46L55 44L54 44L54 43L53 43L53 45L52 45L52 47L51 47L51 46L49 46L49 44L48 44L48 43L49 43L49 42L50 42L50 43L52 43L52 42L55 42L55 41L54 41L54 40L55 40L55 39L54 39L54 38L55 38L55 35L54 35L54 36L53 36L53 35L52 35L52 36L51 36L51 34L50 34L50 33L49 33L49 32L48 32L48 31L47 31L47 30L45 30L45 29L44 29L44 28L45 28L45 27L47 27L47 28L48 28L48 27L49 27L49 26L50 26L50 29L51 29L51 27L52 27L52 26L55 26L55 25L56 25L56 24L57 24L57 22L55 22L55 20L54 20L54 19L52 19L52 18L49 18L49 16L47 16L47 14L46 14L46 16L47 16L47 18L45 18L45 17L44 17L44 16L45 16L45 15L44 15L44 16L42 16L42 14L43 14L43 13L44 13L44 12L45 12L45 13L47 13L47 12L48 12L48 15L52 15L52 16L53 16L53 15L54 15L54 14L56 14L56 13L51 13L51 14L49 14L49 13L50 13L50 12L48 12L48 11L47 11L47 10L46 10L46 9L47 9L47 8L48 8L48 9L49 9L49 10L50 10L50 9L49 9L49 8L48 8L48 7L49 7L49 6L48 6L48 7L47 7L47 5L46 5L46 7L45 7L45 6L44 6L44 5ZM30 6L30 7L31 7L31 6ZM34 6L34 7L35 7L35 6ZM43 6L43 7L44 7L44 6ZM54 6L54 7L55 7L55 6ZM60 6L60 7L61 7L61 6ZM46 7L46 8L47 8L47 7ZM28 8L28 9L30 9L30 11L32 11L32 10L31 10L31 9L30 9L30 8ZM55 8L55 9L56 9L56 8ZM63 8L63 9L64 9L64 8ZM17 9L17 11L18 11L18 10L19 10L19 9ZM39 9L39 10L40 10L40 9ZM64 12L64 13L65 13L65 12ZM60 13L60 14L62 14L62 13ZM68 13L68 14L69 14L69 13ZM37 14L37 15L38 15L38 18L39 18L39 17L40 17L40 18L41 18L41 20L37 20L37 19L36 19L36 18L37 18L37 17L36 17L36 18L34 18L34 20L35 20L35 21L34 21L34 22L35 22L35 23L31 23L31 27L30 27L30 26L29 26L29 25L30 25L30 24L29 24L29 23L30 23L30 22L31 22L31 21L30 21L30 22L29 22L29 21L28 21L28 20L26 20L26 19L25 19L25 20L24 20L24 19L23 19L23 20L22 20L22 21L25 21L25 22L23 22L23 23L24 23L24 24L25 24L25 26L26 26L26 25L27 25L27 24L25 24L25 23L26 23L26 21L27 21L27 23L28 23L28 24L29 24L29 25L28 25L28 27L27 27L27 28L26 28L26 29L25 29L25 28L24 28L24 27L21 27L21 25L22 25L22 26L24 26L24 25L22 25L22 24L21 24L21 25L20 25L20 24L19 24L19 25L18 25L18 27L20 27L20 28L21 28L21 29L20 29L20 30L21 30L21 31L22 31L22 29L23 29L23 28L24 28L24 29L25 29L25 30L26 30L26 29L27 29L27 28L29 28L29 27L30 27L30 28L31 28L31 29L28 29L28 30L31 30L31 29L32 29L32 28L31 28L31 27L33 27L33 26L34 26L34 28L35 28L35 30L37 30L37 33L38 33L38 34L37 34L37 35L38 35L38 34L39 34L39 33L41 33L41 34L40 34L40 35L41 35L41 36L40 36L40 37L39 37L39 36L38 36L38 37L37 37L37 38L36 38L36 37L34 37L34 39L35 39L35 40L36 40L36 39L38 39L38 40L37 40L37 41L38 41L38 42L39 42L39 43L38 43L38 46L37 46L37 47L36 47L36 46L34 46L34 47L36 47L36 48L34 48L34 49L32 49L32 50L31 50L31 51L32 51L32 52L31 52L31 53L32 53L32 54L33 54L33 55L34 55L34 54L35 54L35 50L34 50L34 49L36 49L36 51L38 51L38 50L39 50L39 53L41 53L41 52L40 52L40 50L41 50L41 51L43 51L43 53L44 53L44 54L45 54L45 52L44 52L44 51L46 51L46 50L47 50L47 52L52 52L52 53L50 53L50 54L52 54L52 55L48 55L48 54L49 54L49 53L46 53L46 54L47 54L47 55L46 55L46 56L49 56L49 57L50 57L50 58L47 58L47 59L48 59L48 60L51 60L51 61L53 61L53 60L51 60L51 59L52 59L52 57L53 57L53 56L52 56L52 55L53 55L53 52L52 52L52 50L51 50L51 49L53 49L53 48L54 48L54 49L55 49L55 48L54 48L54 47L55 47L55 46L53 46L53 48L51 48L51 49L45 49L45 48L46 48L46 47L45 47L45 48L44 48L44 47L43 47L43 46L47 46L47 47L48 47L48 48L50 48L50 47L48 47L48 44L46 44L46 43L45 43L45 44L44 44L44 41L45 41L45 40L46 40L46 42L48 42L48 40L49 40L49 39L47 39L47 37L48 37L48 36L50 36L50 38L51 38L51 39L53 39L53 40L52 40L52 41L53 41L53 40L54 40L54 39L53 39L53 38L54 38L54 37L53 37L53 36L52 36L52 37L53 37L53 38L51 38L51 36L50 36L50 35L48 35L48 34L47 34L47 31L45 31L45 30L44 30L44 29L43 29L43 28L42 28L42 27L45 27L45 26L44 26L44 25L45 25L45 24L43 24L43 23L46 23L46 22L47 22L47 23L48 23L48 24L46 24L46 26L47 26L47 27L48 27L48 26L49 26L49 25L48 25L48 24L49 24L49 23L50 23L50 26L51 26L51 23L50 23L50 22L51 22L51 21L50 21L50 22L49 22L49 21L48 21L48 20L49 20L49 19L48 19L48 20L47 20L47 19L46 19L46 22L44 22L44 21L45 21L45 20L44 20L44 21L43 21L43 22L40 22L40 23L38 23L38 24L37 24L37 25L38 25L38 26L39 26L39 27L37 27L37 29L36 29L36 28L35 28L35 27L36 27L36 26L35 26L35 25L32 25L32 24L36 24L36 22L37 22L37 21L38 21L38 22L39 22L39 21L41 21L41 20L42 20L42 19L43 19L43 18L44 18L44 17L43 17L43 18L42 18L42 17L41 17L41 16L39 16L39 15L38 15L38 14ZM52 14L52 15L53 15L53 14ZM6 15L6 16L7 16L7 15ZM60 15L60 16L61 16L61 15ZM1 16L1 17L2 17L2 16ZM10 16L10 17L11 17L11 16ZM50 16L50 17L51 17L51 16ZM66 16L66 17L67 17L67 16ZM17 17L17 18L18 18L18 17ZM13 18L13 19L15 19L15 18ZM50 19L50 20L52 20L52 21L53 21L53 22L54 22L54 25L55 25L55 24L56 24L56 23L55 23L55 22L54 22L54 21L53 21L53 20L52 20L52 19ZM10 20L10 22L11 22L11 20ZM14 20L14 21L15 21L15 20ZM25 20L25 21L26 21L26 20ZM36 20L36 21L37 21L37 20ZM60 20L60 21L59 21L59 22L58 22L58 23L59 23L59 24L60 24L60 23L59 23L59 22L61 22L61 20ZM6 22L6 23L7 23L7 24L8 24L8 23L7 23L7 22ZM48 22L48 23L49 23L49 22ZM1 23L1 24L2 24L2 23ZM40 23L40 24L41 24L41 23ZM52 24L52 25L53 25L53 24ZM19 25L19 26L20 26L20 25ZM39 25L39 26L40 26L40 25ZM42 25L42 26L41 26L41 27L40 27L40 28L41 28L41 27L42 27L42 26L43 26L43 25ZM15 27L15 28L16 28L16 27ZM58 27L58 28L59 28L59 27ZM17 28L17 29L18 29L18 30L17 30L17 31L16 31L16 33L15 33L15 34L17 34L17 33L18 33L18 32L17 32L17 31L18 31L18 30L19 30L19 29L18 29L18 28ZM38 28L38 29L37 29L37 30L38 30L38 31L39 31L39 32L38 32L38 33L39 33L39 32L41 32L41 30L43 30L43 29L39 29L39 28ZM64 28L64 29L65 29L65 28ZM33 29L33 30L34 30L34 29ZM38 29L38 30L39 30L39 31L40 31L40 30L39 30L39 29ZM6 31L6 32L7 32L7 31ZM25 31L25 32L24 32L24 33L23 33L23 34L22 34L22 35L23 35L23 36L22 36L22 37L25 37L25 35L26 35L26 37L27 37L27 36L28 36L28 35L27 35L27 34L28 34L28 33L29 33L29 32L30 32L30 31L28 31L28 33L25 33L25 32L26 32L26 31ZM31 31L31 33L30 33L30 34L31 34L31 36L32 36L32 34L31 34L31 33L32 33L32 32L34 32L34 31ZM35 31L35 32L36 32L36 31ZM42 31L42 32L43 32L43 33L42 33L42 34L41 34L41 35L42 35L42 36L41 36L41 37L40 37L40 38L39 38L39 39L40 39L40 40L41 40L41 38L43 38L43 39L42 39L42 42L41 42L41 43L39 43L39 44L41 44L41 45L39 45L39 46L38 46L38 47L37 47L37 50L38 50L38 47L39 47L39 50L40 50L40 48L41 48L41 46L43 46L43 44L41 44L41 43L42 43L42 42L43 42L43 39L44 39L44 40L45 40L45 38L43 38L43 37L42 37L42 36L43 36L43 35L44 35L44 36L45 36L45 37L46 37L46 35L47 35L47 34L45 34L45 35L44 35L44 32L45 32L45 31L44 31L44 32L43 32L43 31ZM62 31L62 32L64 32L64 31ZM68 31L68 32L69 32L69 31ZM55 32L55 33L53 33L53 34L56 34L56 32ZM5 33L5 36L8 36L8 33ZM24 33L24 34L25 34L25 33ZM33 33L33 36L36 36L36 33ZM61 33L61 36L64 36L64 33ZM6 34L6 35L7 35L7 34ZM34 34L34 35L35 35L35 34ZM42 34L42 35L43 35L43 34ZM62 34L62 35L63 35L63 34ZM16 35L16 36L17 36L17 35ZM6 37L6 38L5 38L5 39L6 39L6 40L7 40L7 41L4 41L4 42L5 42L5 43L4 43L4 44L3 44L3 45L4 45L4 46L5 46L5 47L6 47L6 48L7 48L7 47L8 47L8 46L7 46L7 45L6 45L6 46L5 46L5 45L4 45L4 44L9 44L9 41L8 41L8 39L6 39L6 38L10 38L10 37ZM18 38L18 39L19 39L19 38ZM29 38L29 39L30 39L30 38ZM15 39L15 40L16 40L16 39ZM31 39L31 40L32 40L32 39ZM46 39L46 40L47 40L47 39ZM50 40L50 42L51 42L51 40ZM7 41L7 42L6 42L6 43L8 43L8 41ZM18 41L18 42L19 42L19 41ZM39 41L39 42L40 42L40 41ZM62 41L62 42L63 42L63 41ZM34 42L34 43L33 43L33 44L34 44L34 45L36 45L36 44L34 44L34 43L35 43L35 42ZM36 42L36 43L37 43L37 42ZM0 43L0 44L1 44L1 43ZM13 43L13 44L14 44L14 43ZM45 44L45 45L46 45L46 44ZM50 44L50 45L51 45L51 44ZM60 45L60 46L61 46L61 45ZM68 45L68 46L69 46L69 45ZM6 46L6 47L7 47L7 46ZM63 46L63 47L62 47L62 48L61 48L61 49L62 49L62 48L63 48L63 47L64 47L64 46ZM43 48L43 49L42 49L42 50L43 50L43 49L44 49L44 50L45 50L45 49L44 49L44 48ZM6 49L6 50L7 50L7 49ZM27 49L27 50L28 50L28 49ZM12 50L12 51L13 51L13 50ZM19 50L19 51L18 51L18 52L19 52L19 51L20 51L20 50ZM33 50L33 51L34 51L34 50ZM48 50L48 51L49 51L49 50ZM50 50L50 51L51 51L51 50ZM61 50L61 51L62 51L62 50ZM66 50L66 51L67 51L67 50ZM6 52L6 53L7 53L7 54L6 54L6 55L8 55L8 52ZM9 52L9 53L10 53L10 52ZM33 52L33 53L34 53L34 52ZM37 52L37 53L38 53L38 52ZM59 52L59 53L60 53L60 52ZM9 54L9 55L10 55L10 54ZM11 54L11 55L12 55L12 54ZM59 54L59 57L58 57L58 58L59 58L59 59L60 59L60 58L59 58L59 57L60 57L60 56L62 56L62 55L60 55L60 54ZM16 55L16 56L17 56L17 55ZM54 55L54 57L56 57L56 58L53 58L53 59L56 59L56 58L57 58L57 56L56 56L56 55ZM50 56L50 57L51 57L51 56ZM4 57L4 58L7 58L7 57ZM21 57L21 58L22 58L22 57ZM39 57L39 58L40 58L40 57ZM34 58L34 59L35 59L35 58ZM50 58L50 59L51 59L51 58ZM18 59L18 60L19 60L19 59ZM40 59L40 60L43 60L43 59ZM3 60L3 61L5 61L5 60ZM6 60L6 61L7 61L7 60ZM66 60L66 61L65 61L65 62L66 62L66 63L67 63L67 62L66 62L66 61L67 61L67 60ZM10 61L10 62L9 62L9 63L10 63L10 64L12 64L12 66L10 66L10 65L9 65L9 66L10 66L10 68L11 68L11 67L12 67L12 66L13 66L13 67L14 67L14 66L13 66L13 65L14 65L14 64L13 64L13 63L14 63L14 61L13 61L13 63L11 63L11 61ZM33 61L33 64L36 64L36 61ZM42 61L42 62L43 62L43 63L42 63L42 64L43 64L43 65L44 65L44 64L45 64L45 62L44 62L44 61ZM61 61L61 64L64 64L64 61ZM28 62L28 63L29 63L29 62ZM34 62L34 63L35 63L35 62ZM52 62L52 63L53 63L53 62ZM62 62L62 63L63 63L63 62ZM16 63L16 64L15 64L15 65L16 65L16 66L17 66L17 67L16 67L16 68L17 68L17 67L18 67L18 66L17 66L17 65L18 65L18 64L17 64L17 63ZM25 63L25 64L26 64L26 63ZM57 63L57 64L58 64L58 63ZM16 64L16 65L17 65L17 64ZM33 65L33 67L35 67L35 66L36 66L36 65ZM40 66L40 67L41 67L41 66ZM0 0L0 7L7 7L7 0ZM1 1L1 6L6 6L6 1ZM2 2L2 5L5 5L5 2ZM62 0L62 7L69 7L69 0ZM63 1L63 6L68 6L68 1ZM64 2L64 5L67 5L67 2ZM0 62L0 69L7 69L7 62ZM1 63L1 68L6 68L6 63ZM2 64L2 67L5 67L5 64Z" fill="#000000"/></g></g></svg>
