<?xml version="1.0" encoding="UTF-8"?>
<svg xmlns="http://www.w3.org/2000/svg" version="1.1" width="300" height="300" viewBox="0 0 300 300"><rect x="0" y="0" width="300" height="300" fill="#ffffff"/><g transform="scale(5.66)"><g transform="translate(0,0)"><path fill-rule="evenodd" d="M11 0L11 1L12 1L12 2L11 2L11 3L10 3L10 1L8 1L8 2L9 2L9 3L8 3L8 4L9 4L9 5L8 5L8 7L9 7L9 8L6 8L6 9L5 9L5 8L0 8L0 9L1 9L1 10L2 10L2 9L5 9L5 10L3 10L3 12L4 12L4 13L3 13L3 15L4 15L4 17L3 17L3 16L2 16L2 18L0 18L0 19L7 19L7 20L6 20L6 21L5 21L5 20L4 20L4 21L5 21L5 22L3 22L3 20L0 20L0 21L1 21L1 23L0 23L0 29L1 29L1 30L0 30L0 31L1 31L1 30L2 30L2 28L1 28L1 26L2 26L2 27L4 27L4 29L3 29L3 30L4 30L4 31L8 31L8 32L6 32L6 33L8 33L8 32L9 32L9 31L10 31L10 30L6 30L6 29L11 29L11 27L9 27L9 26L10 26L10 25L11 25L11 24L10 24L10 23L9 23L9 22L6 22L6 21L12 21L12 22L11 22L11 23L13 23L13 24L14 24L14 23L13 23L13 21L14 21L14 22L15 22L15 23L16 23L16 25L21 25L21 26L20 26L20 27L23 27L23 26L24 26L24 29L21 29L21 28L20 28L20 29L21 29L21 30L22 30L22 31L19 31L19 30L15 30L15 29L19 29L19 28L16 28L16 27L17 27L17 26L14 26L14 25L12 25L12 27L13 27L13 29L12 29L12 30L11 30L11 33L12 33L12 32L13 32L13 33L15 33L15 34L12 34L12 35L11 35L11 34L9 34L9 35L10 35L10 36L9 36L9 37L8 37L8 35L7 35L7 34L5 34L5 35L4 35L4 33L5 33L5 32L4 32L4 33L2 33L2 34L1 34L1 32L0 32L0 36L1 36L1 38L2 38L2 39L4 39L4 40L3 40L3 43L2 43L2 42L1 42L1 41L0 41L0 43L1 43L1 44L3 44L3 45L4 45L4 44L3 44L3 43L9 43L9 44L6 44L6 45L8 45L8 47L9 47L9 45L11 45L11 44L12 44L12 45L13 45L13 44L15 44L15 45L14 45L14 46L11 46L11 48L13 48L13 49L14 49L14 50L13 50L13 52L12 52L12 50L10 50L10 49L9 49L9 48L8 48L8 53L9 53L9 52L10 52L10 53L11 53L11 52L12 52L12 53L14 53L14 51L15 51L15 53L22 53L22 52L23 52L23 53L25 53L25 52L23 52L23 51L24 51L24 50L26 50L26 51L27 51L27 50L28 50L28 52L30 52L30 51L29 51L29 50L31 50L31 48L29 48L29 46L31 46L31 45L32 45L32 46L33 46L33 47L32 47L32 48L33 48L33 49L32 49L32 52L33 52L33 53L34 53L34 52L35 52L35 50L34 50L34 49L37 49L37 48L34 48L34 47L35 47L35 46L34 46L34 45L32 45L32 44L33 44L33 43L34 43L34 44L35 44L35 45L37 45L37 44L42 44L42 45L39 45L39 46L38 46L38 47L39 47L39 48L38 48L38 49L39 49L39 50L37 50L37 52L36 52L36 53L37 53L37 52L41 52L41 53L43 53L43 52L44 52L44 53L45 53L45 52L46 52L46 53L49 53L49 52L50 52L50 53L51 53L51 52L52 52L52 51L53 51L53 49L52 49L52 48L53 48L53 47L52 47L52 46L53 46L53 45L52 45L52 43L51 43L51 44L50 44L50 43L49 43L49 42L50 42L50 41L52 41L52 42L53 42L53 39L51 39L51 38L53 38L53 35L52 35L52 34L53 34L53 31L51 31L51 30L50 30L50 31L49 31L49 33L47 33L47 32L48 32L48 30L49 30L49 26L51 26L51 24L50 24L50 21L51 21L51 22L53 22L53 21L52 21L52 20L53 20L53 19L51 19L51 20L50 20L50 21L49 21L49 20L48 20L48 18L44 18L44 17L45 17L45 16L47 16L47 17L49 17L49 19L50 19L50 18L53 18L53 16L52 16L52 15L51 15L51 14L53 14L53 13L51 13L51 12L50 12L50 11L49 11L49 12L48 12L48 14L46 14L46 13L47 13L47 12L46 12L46 11L48 11L48 8L47 8L47 10L45 10L45 12L44 12L44 9L46 9L46 8L45 8L45 6L44 6L44 7L43 7L43 3L44 3L44 4L45 4L45 3L44 3L44 1L43 1L43 0L42 0L42 2L43 2L43 3L42 3L42 4L40 4L40 3L41 3L41 1L40 1L40 0L39 0L39 1L38 1L38 2L39 2L39 3L38 3L38 4L39 4L39 5L36 5L36 7L37 7L37 6L38 6L38 7L39 7L39 8L38 8L38 9L37 9L37 8L36 8L36 10L32 10L32 8L33 8L33 6L34 6L34 7L35 7L35 5L33 5L33 4L35 4L35 3L36 3L36 4L37 4L37 3L36 3L36 2L37 2L37 1L36 1L36 2L35 2L35 1L33 1L33 0L27 0L27 1L26 1L26 2L28 2L28 1L29 1L29 2L30 2L30 3L31 3L31 2L32 2L32 3L33 3L33 4L32 4L32 5L31 5L31 4L30 4L30 5L29 5L29 3L28 3L28 4L27 4L27 3L25 3L25 0L21 0L21 1L20 1L20 0L19 0L19 2L18 2L18 1L17 1L17 0L16 0L16 1L15 1L15 2L16 2L16 3L15 3L15 4L14 4L14 2L13 2L13 1L12 1L12 0ZM23 1L23 2L24 2L24 1ZM30 1L30 2L31 2L31 1ZM39 1L39 2L40 2L40 1ZM19 2L19 4L15 4L15 5L13 5L13 4L12 4L12 3L11 3L11 4L12 4L12 6L11 6L11 11L10 11L10 8L9 8L9 9L8 9L8 10L9 10L9 11L8 11L8 12L7 12L7 11L6 11L6 10L7 10L7 9L6 9L6 10L5 10L5 11L6 11L6 12L7 12L7 13L6 13L6 14L5 14L5 15L6 15L6 16L7 16L7 17L6 17L6 18L7 18L7 19L8 19L8 20L9 20L9 19L11 19L11 20L12 20L12 21L13 21L13 20L12 20L12 18L11 18L11 17L12 17L12 16L14 16L14 15L13 15L13 14L14 14L14 13L15 13L15 17L13 17L13 19L14 19L14 21L15 21L15 22L16 22L16 23L17 23L17 21L18 21L18 22L19 22L19 24L21 24L21 25L23 25L23 24L21 24L21 23L22 23L22 22L21 22L21 21L24 21L24 22L23 22L23 23L26 23L26 24L28 24L28 23L33 23L33 22L36 22L36 21L35 21L35 20L37 20L37 21L38 21L38 22L41 22L41 24L40 24L40 23L34 23L34 24L32 24L32 25L33 25L33 26L36 26L36 28L37 28L37 27L38 27L38 30L37 30L37 31L36 31L36 30L35 30L35 28L34 28L34 27L33 27L33 28L32 28L32 30L29 30L29 29L31 29L31 28L30 28L30 27L31 27L31 26L29 26L29 29L28 29L28 30L29 30L29 31L25 31L25 33L24 33L24 32L21 32L21 33L20 33L20 32L19 32L19 31L18 31L18 32L19 32L19 33L16 33L16 34L15 34L15 35L16 35L16 36L19 36L19 37L18 37L18 38L17 38L17 37L16 37L16 39L15 39L15 38L14 38L14 37L15 37L15 36L14 36L14 35L13 35L13 39L14 39L14 40L13 40L13 41L12 41L12 40L11 40L11 39L12 39L12 38L10 38L10 37L11 37L11 36L10 36L10 37L9 37L9 38L8 38L8 37L5 37L5 40L4 40L4 42L5 42L5 41L6 41L6 42L8 42L8 41L9 41L9 42L11 42L11 43L12 43L12 44L13 44L13 43L14 43L14 42L15 42L15 43L17 43L17 42L19 42L19 43L20 43L20 44L21 44L21 41L23 41L23 40L26 40L26 41L27 41L27 42L29 42L29 43L28 43L28 44L29 44L29 43L30 43L30 45L31 45L31 43L33 43L33 42L32 42L32 41L33 41L33 40L34 40L34 42L36 42L36 43L35 43L35 44L37 44L37 43L38 43L38 42L41 42L41 41L43 41L43 42L42 42L42 43L44 43L44 44L43 44L43 45L44 45L44 44L45 44L45 43L47 43L47 44L48 44L48 43L47 43L47 42L45 42L45 43L44 43L44 41L45 41L45 40L46 40L46 41L50 41L50 40L51 40L51 39L50 39L50 38L51 38L51 37L50 37L50 38L49 38L49 39L47 39L47 38L46 38L46 39L45 39L45 34L46 34L46 35L47 35L47 36L46 36L46 37L49 37L49 35L50 35L50 36L52 36L52 35L50 35L50 34L51 34L51 33L52 33L52 32L51 32L51 31L50 31L50 32L51 32L51 33L49 33L49 34L46 34L46 33L45 33L45 31L44 31L44 32L42 32L42 31L43 31L43 30L44 30L44 26L42 26L42 25L44 25L44 22L45 22L45 24L49 24L49 23L46 23L46 22L47 22L47 21L43 21L43 22L41 22L41 21L42 21L42 20L39 20L39 21L38 21L38 20L37 20L37 19L38 19L38 18L39 18L39 17L38 17L38 16L37 16L37 15L38 15L38 14L39 14L39 16L40 16L40 17L41 17L41 16L40 16L40 13L43 13L43 14L41 14L41 15L43 15L43 16L45 16L45 15L46 15L46 14L45 14L45 13L44 13L44 12L42 12L42 11L43 11L43 10L41 10L41 8L42 8L42 9L43 9L43 8L42 8L42 5L41 5L41 8L40 8L40 9L38 9L38 10L36 10L36 11L35 11L35 13L33 13L33 12L34 12L34 11L33 11L33 12L32 12L32 11L30 11L30 10L28 10L28 12L27 12L27 11L26 11L26 10L27 10L27 9L25 9L25 10L24 10L24 9L23 9L23 8L24 8L24 4L25 4L25 3L24 3L24 4L23 4L23 3L21 3L21 2ZM9 3L9 4L10 4L10 3ZM20 3L20 4L19 4L19 5L16 5L16 7L15 7L15 6L14 6L14 7L13 7L13 6L12 6L12 7L13 7L13 8L14 8L14 7L15 7L15 10L16 10L16 7L17 7L17 9L19 9L19 10L17 10L17 11L16 11L16 12L15 12L15 13L17 13L17 12L18 12L18 13L19 13L19 14L20 14L20 15L19 15L19 16L17 16L17 15L18 15L18 14L16 14L16 17L19 17L19 16L20 16L20 17L21 17L21 18L20 18L20 21L19 21L19 20L18 20L18 21L19 21L19 22L20 22L20 23L21 23L21 22L20 22L20 21L21 21L21 20L25 20L25 19L26 19L26 18L27 18L27 16L26 16L26 15L27 15L27 14L29 14L29 15L28 15L28 18L31 18L31 19L32 19L32 20L31 20L31 21L30 21L30 20L29 20L29 19L27 19L27 20L26 20L26 21L25 21L25 22L26 22L26 23L27 23L27 22L29 22L29 21L30 21L30 22L31 22L31 21L32 21L32 22L33 22L33 21L32 21L32 20L33 20L33 19L36 19L36 18L38 18L38 17L37 17L37 16L36 16L36 18L33 18L33 19L32 19L32 16L33 16L33 14L32 14L32 12L31 12L31 13L27 13L27 12L26 12L26 11L24 11L24 10L23 10L23 9L21 9L21 8L19 8L19 6L20 6L20 7L21 7L21 6L22 6L22 7L23 7L23 4L22 4L22 5L21 5L21 6L20 6L20 4L21 4L21 3ZM9 5L9 7L10 7L10 5ZM25 5L25 8L28 8L28 5ZM30 5L30 6L29 6L29 7L30 7L30 6L31 6L31 8L32 8L32 6L33 6L33 5L32 5L32 6L31 6L31 5ZM39 5L39 7L40 7L40 5ZM17 6L17 7L18 7L18 6ZM26 6L26 7L27 7L27 6ZM49 8L49 10L51 10L51 9L52 9L52 10L53 10L53 9L52 9L52 8L51 8L51 9L50 9L50 8ZM13 9L13 10L12 10L12 11L11 11L11 14L9 14L9 13L8 13L8 14L9 14L9 16L11 16L11 14L12 14L12 13L14 13L14 12L12 12L12 11L14 11L14 9ZM20 9L20 10L19 10L19 13L20 13L20 14L21 14L21 17L23 17L23 16L24 16L24 15L26 15L26 13L25 13L25 14L24 14L24 13L23 13L23 12L22 12L22 11L20 11L20 10L21 10L21 9ZM38 10L38 13L37 13L37 12L36 12L36 13L35 13L35 14L34 14L34 16L35 16L35 15L37 15L37 14L38 14L38 13L39 13L39 12L41 12L41 11L40 11L40 10ZM0 11L0 17L1 17L1 14L2 14L2 13L1 13L1 11ZM20 12L20 13L21 13L21 14L22 14L22 16L23 16L23 13L22 13L22 12ZM49 13L49 14L51 14L51 13ZM6 14L6 15L7 15L7 16L8 16L8 15L7 15L7 14ZM30 14L30 15L29 15L29 17L30 17L30 15L31 15L31 16L32 16L32 14ZM43 14L43 15L44 15L44 14ZM50 15L50 16L49 16L49 17L50 17L50 16L51 16L51 17L52 17L52 16L51 16L51 15ZM25 16L25 17L26 17L26 16ZM7 17L7 18L8 18L8 19L9 19L9 18L8 18L8 17ZM14 18L14 19L15 19L15 18ZM18 18L18 19L19 19L19 18ZM22 18L22 19L25 19L25 18ZM42 18L42 19L43 19L43 20L45 20L45 19L44 19L44 18ZM16 19L16 20L15 20L15 21L17 21L17 19ZM27 20L27 21L28 21L28 20ZM2 22L2 23L3 23L3 24L4 24L4 23L3 23L3 22ZM5 23L5 24L9 24L9 25L10 25L10 24L9 24L9 23ZM42 23L42 24L43 24L43 23ZM1 24L1 25L2 25L2 26L4 26L4 25L2 25L2 24ZM30 24L30 25L31 25L31 24ZM35 24L35 25L36 25L36 26L38 26L38 27L39 27L39 28L41 28L41 31L39 31L39 30L40 30L40 29L39 29L39 30L38 30L38 31L37 31L37 32L35 32L35 30L33 30L33 31L32 31L32 32L30 32L30 31L29 31L29 34L28 34L28 33L26 33L26 34L25 34L25 35L24 35L24 37L22 37L22 35L21 35L21 36L20 36L20 34L19 34L19 36L20 36L20 37L21 37L21 38L18 38L18 39L16 39L16 41L19 41L19 42L20 42L20 41L21 41L21 40L20 40L20 39L22 39L22 38L24 38L24 39L25 39L25 37L26 37L26 38L27 38L27 39L26 39L26 40L27 40L27 41L28 41L28 40L27 40L27 39L29 39L29 38L31 38L31 39L30 39L30 40L29 40L29 42L31 42L31 41L32 41L32 40L33 40L33 39L32 39L32 38L31 38L31 37L32 37L32 36L33 36L33 37L34 37L34 36L35 36L35 37L36 37L36 38L34 38L34 40L35 40L35 41L38 41L38 39L39 39L39 40L41 40L41 39L42 39L42 38L43 38L43 37L42 37L42 36L44 36L44 35L42 35L42 34L44 34L44 33L42 33L42 34L41 34L41 35L40 35L40 36L41 36L41 39L40 39L40 38L38 38L38 37L37 37L37 36L39 36L39 34L40 34L40 32L41 32L41 31L42 31L42 30L43 30L43 27L40 27L40 26L41 26L41 25L40 25L40 24L39 24L39 26L38 26L38 24ZM5 25L5 28L8 28L8 25ZM25 25L25 28L28 28L28 25ZM45 25L45 28L48 28L48 25ZM52 25L52 26L53 26L53 25ZM6 26L6 27L7 27L7 26ZM26 26L26 27L27 27L27 26ZM46 26L46 27L47 27L47 26ZM51 27L51 28L50 28L50 29L52 29L52 30L53 30L53 29L52 29L52 28L53 28L53 27ZM14 28L14 29L13 29L13 30L12 30L12 31L13 31L13 32L14 32L14 31L13 31L13 30L14 30L14 29L15 29L15 28ZM33 28L33 29L34 29L34 28ZM4 29L4 30L5 30L5 29ZM24 29L24 30L23 30L23 31L24 31L24 30L25 30L25 29ZM46 29L46 31L47 31L47 29ZM2 31L2 32L3 32L3 31ZM16 31L16 32L17 32L17 31ZM32 32L32 34L35 34L35 32ZM38 32L38 34L37 34L37 35L35 35L35 36L37 36L37 35L38 35L38 34L39 34L39 32ZM21 33L21 34L24 34L24 33ZM16 34L16 35L18 35L18 34ZM26 34L26 37L27 37L27 38L28 38L28 37L27 37L27 36L29 36L29 35L30 35L30 36L32 36L32 35L31 35L31 34L29 34L29 35L27 35L27 34ZM1 35L1 36L2 36L2 38L4 38L4 37L3 37L3 36L4 36L4 35ZM5 35L5 36L7 36L7 35ZM33 35L33 36L34 36L34 35ZM41 35L41 36L42 36L42 35ZM6 38L6 39L8 39L8 38ZM9 38L9 40L10 40L10 38ZM37 38L37 39L36 39L36 40L37 40L37 39L38 39L38 38ZM0 39L0 40L1 40L1 39ZM31 39L31 40L32 40L32 39ZM43 39L43 40L44 40L44 39ZM46 39L46 40L47 40L47 39ZM49 39L49 40L50 40L50 39ZM6 40L6 41L8 41L8 40ZM19 40L19 41L20 41L20 40ZM13 41L13 42L14 42L14 41ZM24 41L24 42L22 42L22 43L23 43L23 44L22 44L22 45L16 45L16 47L15 47L15 46L14 46L14 47L13 47L13 48L16 48L16 47L17 47L17 48L18 48L18 47L19 47L19 46L20 46L20 48L21 48L21 49L20 49L20 51L19 51L19 49L15 49L15 51L16 51L16 52L18 52L18 51L19 51L19 52L20 52L20 51L21 51L21 49L23 49L23 50L24 50L24 47L22 47L22 45L23 45L23 46L24 46L24 45L23 45L23 44L27 44L27 43L24 43L24 42L25 42L25 41ZM25 45L25 48L28 48L28 45ZM45 45L45 48L48 48L48 45ZM49 45L49 46L50 46L50 48L51 48L51 46L52 46L52 45ZM17 46L17 47L18 47L18 46ZM26 46L26 47L27 47L27 46ZM36 46L36 47L37 47L37 46ZM39 46L39 47L40 47L40 46ZM41 46L41 48L39 48L39 49L41 49L41 50L40 50L40 51L41 51L41 52L43 52L43 50L44 50L44 52L45 52L45 50L44 50L44 48L43 48L43 47L44 47L44 46ZM46 46L46 47L47 47L47 46ZM21 47L21 48L22 48L22 47ZM41 48L41 49L42 49L42 50L43 50L43 49L42 49L42 48ZM26 49L26 50L27 50L27 49ZM28 49L28 50L29 50L29 49ZM47 49L47 50L49 50L49 51L50 51L50 52L51 52L51 51L52 51L52 50L51 50L51 49ZM9 50L9 51L10 51L10 50ZM17 50L17 51L18 51L18 50ZM33 50L33 52L34 52L34 50ZM50 50L50 51L51 51L51 50ZM46 51L46 52L48 52L48 51ZM0 0L0 7L7 7L7 0ZM1 1L1 6L6 6L6 1ZM2 2L2 5L5 5L5 2ZM46 0L46 7L53 7L53 0ZM47 1L47 6L52 6L52 1ZM48 2L48 5L51 5L51 2ZM0 46L0 53L7 53L7 46ZM1 47L1 52L6 52L6 47ZM2 48L2 51L5 51L5 48Z" fill="#000000"/></g></g></svg>
