<?xml version="1.0" encoding="UTF-8"?>
<svg xmlns="http://www.w3.org/2000/svg" version="1.1" width="300" height="300" viewBox="0 0 300 300"><rect x="0" y="0" width="300" height="300" fill="#ffffff"/><g transform="scale(4.918)"><g transform="translate(0,0)"><path fill-rule="evenodd" d="M10 0L10 1L8 1L8 2L11 2L11 3L10 3L10 4L9 4L9 3L8 3L8 4L9 4L9 5L8 5L8 7L9 7L9 8L6 8L6 9L5 9L5 8L0 8L0 12L2 12L2 11L4 11L4 10L3 10L3 9L5 9L5 11L7 11L7 12L6 12L6 13L7 13L7 14L6 14L6 15L5 15L5 18L3 18L3 16L4 16L4 14L5 14L5 13L4 13L4 12L3 12L3 13L4 13L4 14L3 14L3 15L2 15L2 14L0 14L0 24L1 24L1 22L2 22L2 24L3 24L3 25L4 25L4 26L2 26L2 25L0 25L0 29L1 29L1 30L0 30L0 32L1 32L1 34L0 34L0 38L1 38L1 39L0 39L0 41L1 41L1 42L0 42L0 45L1 45L1 43L2 43L2 45L3 45L3 44L4 44L4 43L5 43L5 41L7 41L7 42L6 42L6 43L7 43L7 44L5 44L5 45L7 45L7 44L8 44L8 43L9 43L9 44L10 44L10 42L9 42L9 40L10 40L10 41L11 41L11 45L10 45L10 46L9 46L9 45L8 45L8 47L7 47L7 46L5 46L5 47L3 47L3 48L1 48L1 47L0 47L0 48L1 48L1 49L0 49L0 50L2 50L2 51L0 51L0 53L4 53L4 52L5 52L5 51L7 51L7 52L6 52L6 53L8 53L8 55L9 55L9 56L8 56L8 61L9 61L9 60L10 60L10 61L11 61L11 60L12 60L12 61L13 61L13 60L12 60L12 59L14 59L14 60L15 60L15 61L19 61L19 60L20 60L20 61L22 61L22 60L21 60L21 58L24 58L24 59L23 59L23 60L24 60L24 59L25 59L25 58L26 58L26 60L27 60L27 61L28 61L28 60L29 60L29 59L28 59L28 58L27 58L27 57L29 57L29 58L31 58L31 57L32 57L32 60L34 60L34 61L37 61L37 60L38 60L38 61L40 61L40 60L41 60L41 59L40 59L40 58L41 58L41 57L40 57L40 56L42 56L42 58L43 58L43 59L42 59L42 60L43 60L43 59L44 59L44 60L45 60L45 61L46 61L46 59L48 59L48 60L47 60L47 61L54 61L54 60L56 60L56 59L54 59L54 58L55 58L55 57L56 57L56 58L57 58L57 53L59 53L59 52L60 52L60 51L61 51L61 50L60 50L60 51L59 51L59 52L53 52L53 51L56 51L56 49L57 49L57 48L58 48L58 49L59 49L59 48L58 48L58 47L59 47L59 44L60 44L60 45L61 45L61 42L60 42L60 43L59 43L59 42L58 42L58 41L61 41L61 38L60 38L60 39L59 39L59 38L58 38L58 37L59 37L59 36L58 36L58 37L57 37L57 36L56 36L56 37L57 37L57 39L55 39L55 36L53 36L53 35L55 35L55 34L56 34L56 35L61 35L61 34L58 34L58 33L59 33L59 32L58 32L58 31L61 31L61 30L60 30L60 28L58 28L58 29L57 29L57 27L61 27L61 26L60 26L60 25L61 25L61 24L60 24L60 25L59 25L59 24L58 24L58 25L57 25L57 27L56 27L56 24L57 24L57 23L59 23L59 22L60 22L60 23L61 23L61 22L60 22L60 21L59 21L59 20L61 20L61 18L59 18L59 17L60 17L60 16L61 16L61 14L60 14L60 15L59 15L59 16L58 16L58 14L56 14L56 12L57 12L57 13L59 13L59 12L60 12L60 11L61 11L61 10L60 10L60 11L59 11L59 9L60 9L60 8L59 8L59 9L58 9L58 8L57 8L57 9L56 9L56 8L55 8L55 9L54 9L54 8L51 8L51 5L52 5L52 4L53 4L53 0L51 0L51 2L50 2L50 3L48 3L48 1L49 1L49 0L48 0L48 1L46 1L46 0L41 0L41 1L40 1L40 0L39 0L39 1L38 1L38 2L39 2L39 3L38 3L38 4L37 4L37 3L35 3L35 5L33 5L33 4L34 4L34 3L32 3L32 1L33 1L33 0L32 0L32 1L31 1L31 0L29 0L29 1L30 1L30 3L31 3L31 4L29 4L29 2L28 2L28 1L27 1L27 0L26 0L26 1L27 1L27 2L26 2L26 3L25 3L25 4L24 4L24 2L22 2L22 0L21 0L21 1L20 1L20 0L19 0L19 1L20 1L20 2L22 2L22 3L23 3L23 4L22 4L22 5L21 5L21 6L20 6L20 4L21 4L21 3L16 3L16 2L15 2L15 1L16 1L16 0L15 0L15 1L14 1L14 0ZM17 0L17 1L18 1L18 0ZM23 0L23 1L24 1L24 0ZM35 0L35 1L34 1L34 2L35 2L35 1L36 1L36 2L37 2L37 0ZM12 1L12 3L11 3L11 4L12 4L12 5L13 5L13 7L12 7L12 6L11 6L11 7L10 7L10 6L9 6L9 7L10 7L10 9L6 9L6 10L9 10L9 11L8 11L8 12L10 12L10 13L11 13L11 15L12 15L12 16L11 16L11 17L9 17L9 16L10 16L10 14L9 14L9 13L8 13L8 14L7 14L7 15L6 15L6 16L7 16L7 17L6 17L6 18L5 18L5 19L6 19L6 20L5 20L5 21L6 21L6 22L8 22L8 23L6 23L6 24L5 24L5 23L4 23L4 22L3 22L3 23L4 23L4 25L5 25L5 26L4 26L4 28L2 28L2 26L1 26L1 29L4 29L4 28L5 28L5 26L7 26L7 27L6 27L6 28L7 28L7 27L9 27L9 28L10 28L10 27L11 27L11 29L12 29L12 30L13 30L13 29L15 29L15 31L16 31L16 32L14 32L14 33L13 33L13 34L11 34L11 35L8 35L8 36L7 36L7 35L5 35L5 34L7 34L7 33L4 33L4 30L1 30L1 32L2 32L2 33L3 33L3 34L1 34L1 35L5 35L5 36L4 36L4 38L3 38L3 37L2 37L2 38L3 38L3 39L1 39L1 41L2 41L2 43L3 43L3 42L4 42L4 40L3 40L3 39L5 39L5 40L7 40L7 41L8 41L8 40L9 40L9 38L8 38L8 36L11 36L11 35L14 35L14 37L15 37L15 38L12 38L12 37L13 37L13 36L12 36L12 37L10 37L10 39L11 39L11 38L12 38L12 39L13 39L13 40L11 40L11 41L12 41L12 42L13 42L13 43L14 43L14 44L17 44L17 42L18 42L18 44L21 44L21 45L15 45L15 46L13 46L13 45L12 45L12 46L10 46L10 48L9 48L9 47L8 47L8 48L7 48L7 47L6 47L6 48L7 48L7 49L5 49L5 50L7 50L7 49L8 49L8 48L9 48L9 50L8 50L8 53L9 53L9 55L10 55L10 57L9 57L9 58L10 58L10 57L12 57L12 58L14 58L14 59L15 59L15 58L17 58L17 57L18 57L18 56L17 56L17 57L15 57L15 58L14 58L14 57L13 57L13 52L11 52L11 51L14 51L14 56L15 56L15 55L18 55L18 54L19 54L19 55L21 55L21 56L19 56L19 57L21 57L21 56L22 56L22 57L25 57L25 56L23 56L23 54L22 54L22 55L21 55L21 53L20 53L20 52L21 52L21 51L20 51L20 50L22 50L22 51L23 51L23 50L24 50L24 47L25 47L25 46L22 46L22 47L20 47L20 46L21 46L21 45L24 45L24 44L25 44L25 45L27 45L27 46L26 46L26 49L25 49L25 50L26 50L26 53L27 53L27 52L29 52L29 47L30 47L30 46L33 46L33 47L32 47L32 48L31 48L31 49L30 49L30 50L31 50L31 51L30 51L30 52L33 52L33 51L34 51L34 50L36 50L36 49L34 49L34 50L33 50L33 49L32 49L32 48L33 48L33 47L34 47L34 48L37 48L37 49L38 49L38 50L37 50L37 51L35 51L35 52L37 52L37 53L38 53L38 54L39 54L39 53L41 53L41 54L40 54L40 55L45 55L45 56L44 56L44 59L46 59L46 58L47 58L47 57L46 57L46 56L49 56L49 57L48 57L48 59L49 59L49 60L51 60L51 59L53 59L53 58L54 58L54 57L53 57L53 58L52 58L52 57L51 57L51 56L52 56L52 55L50 55L50 54L51 54L51 52L52 52L52 51L53 51L53 50L54 50L54 49L55 49L55 48L57 48L57 47L54 47L54 49L52 49L52 51L51 51L51 52L50 52L50 50L51 50L51 48L52 48L52 47L53 47L53 46L52 46L52 47L51 47L51 45L50 45L50 44L52 44L52 45L54 45L54 44L55 44L55 45L56 45L56 46L57 46L57 45L56 45L56 44L55 44L55 43L56 43L56 42L57 42L57 44L59 44L59 43L58 43L58 42L57 42L57 41L56 41L56 40L55 40L55 39L54 39L54 40L53 40L53 37L52 37L52 38L51 38L51 37L50 37L50 36L52 36L52 35L53 35L53 33L52 33L52 32L51 32L51 31L52 31L52 28L49 28L49 27L50 27L50 26L51 26L51 27L53 27L53 28L54 28L54 27L55 27L55 28L56 28L56 27L55 27L55 26L53 26L53 25L55 25L55 24L53 24L53 23L55 23L55 22L54 22L54 21L55 21L55 20L56 20L56 23L57 23L57 20L56 20L56 19L57 19L57 18L58 18L58 20L59 20L59 18L58 18L58 17L57 17L57 16L56 16L56 14L53 14L53 13L52 13L52 14L51 14L51 13L50 13L50 12L52 12L52 11L51 11L51 10L53 10L53 9L50 9L50 8L49 8L49 7L50 7L50 5L49 5L49 4L48 4L48 3L47 3L47 4L46 4L46 5L47 5L47 7L46 7L46 6L45 6L45 5L44 5L44 4L45 4L45 3L39 3L39 4L38 4L38 5L39 5L39 7L40 7L40 6L41 6L41 8L38 8L38 6L37 6L37 7L36 7L36 5L37 5L37 4L36 4L36 5L35 5L35 7L34 7L34 6L33 6L33 7L34 7L34 8L35 8L35 9L34 9L34 10L32 10L32 9L31 9L31 10L32 10L32 13L31 13L31 12L29 12L29 11L27 11L27 12L26 12L26 13L25 13L25 12L24 12L24 11L25 11L25 10L24 10L24 9L25 9L25 8L24 8L24 6L25 6L25 7L26 7L26 9L27 9L27 10L28 10L28 8L27 8L27 7L28 7L28 6L27 6L27 7L26 7L26 4L27 4L27 5L28 5L28 4L27 4L27 3L28 3L28 2L27 2L27 3L26 3L26 4L25 4L25 5L23 5L23 8L22 8L22 9L23 9L23 10L22 10L22 11L23 11L23 12L21 12L21 7L22 7L22 6L21 6L21 7L20 7L20 6L19 6L19 4L15 4L15 2L14 2L14 1ZM39 1L39 2L40 2L40 1ZM41 1L41 2L45 2L45 1ZM13 2L13 3L12 3L12 4L13 4L13 5L14 5L14 8L13 8L13 9L12 9L12 8L11 8L11 9L10 9L10 12L11 12L11 11L12 11L12 13L13 13L13 14L12 14L12 15L14 15L14 16L12 16L12 18L13 18L13 19L12 19L12 20L9 20L9 21L8 21L8 19L9 19L9 18L8 18L8 17L7 17L7 18L6 18L6 19L7 19L7 20L6 20L6 21L8 21L8 22L9 22L9 21L10 21L10 22L11 22L11 21L12 21L12 24L11 24L11 25L12 25L12 26L11 26L11 27L12 27L12 29L13 29L13 27L12 27L12 26L14 26L14 25L13 25L13 23L15 23L15 27L14 27L14 28L15 28L15 29L19 29L19 28L20 28L20 29L21 29L21 27L23 27L23 28L26 28L26 27L29 27L29 28L27 28L27 29L26 29L26 30L28 30L28 32L27 32L27 31L26 31L26 32L25 32L25 31L24 31L24 30L25 30L25 29L22 29L22 31L21 31L21 30L20 30L20 33L21 33L21 34L22 34L22 33L23 33L23 34L24 34L24 33L26 33L26 35L25 35L25 37L22 37L22 36L21 36L21 35L20 35L20 34L17 34L17 36L16 36L16 35L15 35L15 34L16 34L16 33L14 33L14 35L15 35L15 37L17 37L17 38L15 38L15 39L14 39L14 43L15 43L15 39L16 39L16 41L18 41L18 42L19 42L19 43L20 43L20 42L19 42L19 41L20 41L20 40L19 40L19 41L18 41L18 40L17 40L17 39L18 39L18 37L19 37L19 38L20 38L20 39L21 39L21 41L22 41L22 42L24 42L24 43L21 43L21 44L24 44L24 43L25 43L25 42L27 42L27 43L26 43L26 44L29 44L29 43L28 43L28 42L27 42L27 41L26 41L26 40L30 40L30 41L31 41L31 40L32 40L32 41L37 41L37 44L35 44L35 43L36 43L36 42L35 42L35 43L34 43L34 42L32 42L32 43L31 43L31 44L30 44L30 45L28 45L28 46L27 46L27 49L26 49L26 50L27 50L27 51L28 51L28 50L27 50L27 49L28 49L28 47L29 47L29 46L30 46L30 45L31 45L31 44L32 44L32 45L35 45L35 46L34 46L34 47L35 47L35 46L36 46L36 47L37 47L37 46L38 46L38 47L40 47L40 48L38 48L38 49L39 49L39 50L38 50L38 51L39 51L39 52L38 52L38 53L39 53L39 52L42 52L42 54L46 54L46 55L49 55L49 56L50 56L50 55L49 55L49 54L50 54L50 52L48 52L48 53L49 53L49 54L46 54L46 53L47 53L47 52L46 52L46 51L47 51L47 50L45 50L45 51L44 51L44 48L46 48L46 49L47 49L47 48L48 48L48 49L49 49L49 50L48 50L48 51L49 51L49 50L50 50L50 48L51 48L51 47L50 47L50 48L48 48L48 46L46 46L46 43L48 43L48 44L47 44L47 45L49 45L49 46L50 46L50 45L49 45L49 43L48 43L48 42L45 42L45 41L44 41L44 42L45 42L45 46L46 46L46 47L44 47L44 48L43 48L43 47L42 47L42 46L43 46L43 45L44 45L44 44L43 44L43 43L42 43L42 44L41 44L41 42L43 42L43 40L41 40L41 37L39 37L39 38L38 38L38 39L37 39L37 40L34 40L34 39L36 39L36 38L37 38L37 36L41 36L41 35L42 35L42 36L46 36L46 35L47 35L47 36L48 36L48 37L49 37L49 38L48 38L48 39L49 39L49 38L50 38L50 40L48 40L48 41L49 41L49 42L50 42L50 43L51 43L51 42L50 42L50 40L51 40L51 41L53 41L53 40L51 40L51 38L50 38L50 37L49 37L49 36L48 36L48 35L47 35L47 34L46 34L46 35L45 35L45 34L44 34L44 32L45 32L45 31L44 31L44 30L46 30L46 31L47 31L47 32L48 32L48 33L49 33L49 34L50 34L50 35L51 35L51 34L52 34L52 33L51 33L51 34L50 34L50 33L49 33L49 32L50 32L50 31L51 31L51 30L50 30L50 31L49 31L49 32L48 32L48 31L47 31L47 30L49 30L49 28L48 28L48 29L47 29L47 30L46 30L46 27L47 27L47 26L45 26L45 25L47 25L47 24L48 24L48 25L49 25L49 26L48 26L48 27L49 27L49 26L50 26L50 25L53 25L53 24L52 24L52 23L53 23L53 22L50 22L50 20L48 20L48 21L49 21L49 24L48 24L48 23L47 23L47 22L46 22L46 21L47 21L47 20L46 20L46 19L47 19L47 18L48 18L48 19L51 19L51 18L50 18L50 16L48 16L48 17L47 17L47 16L46 16L46 15L47 15L47 14L46 14L46 13L44 13L44 12L43 12L43 11L42 11L42 12L41 12L41 10L40 10L40 9L39 9L39 10L38 10L38 8L36 8L36 9L35 9L35 10L34 10L34 11L35 11L35 14L34 14L34 13L32 13L32 14L31 14L31 15L29 15L29 14L30 14L30 13L29 13L29 14L28 14L28 13L26 13L26 15L25 15L25 13L24 13L24 12L23 12L23 13L21 13L21 14L20 14L20 12L19 12L19 11L20 11L20 10L19 10L19 9L20 9L20 8L19 8L19 9L18 9L18 8L17 8L17 6L18 6L18 7L19 7L19 6L18 6L18 5L17 5L17 6L16 6L16 5L15 5L15 4L14 4L14 2ZM51 3L51 4L52 4L52 3ZM39 4L39 5L40 5L40 4ZM41 4L41 5L42 5L42 7L43 7L43 9L42 9L42 8L41 8L41 9L42 9L42 10L43 10L43 9L44 9L44 11L45 11L45 9L47 9L47 8L46 8L46 7L45 7L45 6L44 6L44 7L43 7L43 4ZM29 5L29 8L32 8L32 5ZM48 5L48 7L49 7L49 5ZM15 6L15 7L16 7L16 6ZM30 6L30 7L31 7L31 6ZM52 6L52 7L53 7L53 6ZM14 8L14 9L16 9L16 10L18 10L18 9L16 9L16 8ZM23 8L23 9L24 9L24 8ZM44 8L44 9L45 9L45 8ZM48 8L48 9L49 9L49 11L50 11L50 9L49 9L49 8ZM1 9L1 11L2 11L2 9ZM11 9L11 10L12 10L12 9ZM29 9L29 10L30 10L30 9ZM55 9L55 10L54 10L54 11L55 11L55 12L54 12L54 13L55 13L55 12L56 12L56 11L57 11L57 10L56 10L56 9ZM36 10L36 12L38 12L38 14L35 14L35 15L34 15L34 16L37 16L37 17L38 17L38 18L39 18L39 20L38 20L38 21L37 21L37 23L36 23L36 22L35 22L35 20L37 20L37 19L36 19L36 17L33 17L33 14L32 14L32 15L31 15L31 16L29 16L29 15L28 15L28 17L27 17L27 15L26 15L26 17L25 17L25 18L26 18L26 17L27 17L27 18L28 18L28 17L29 17L29 19L25 19L25 20L24 20L24 19L23 19L23 18L24 18L24 17L23 17L23 16L25 16L25 15L23 15L23 14L22 14L22 15L20 15L20 14L19 14L19 13L15 13L15 12L14 12L14 13L15 13L15 14L16 14L16 15L15 15L15 16L16 16L16 17L13 17L13 18L14 18L14 19L13 19L13 20L12 20L12 21L13 21L13 22L15 22L15 23L16 23L16 24L17 24L17 25L16 25L16 27L15 27L15 28L17 28L17 27L20 27L20 26L17 26L17 25L18 25L18 24L17 24L17 23L18 23L18 22L19 22L19 23L20 23L20 22L21 22L21 21L23 21L23 20L24 20L24 21L25 21L25 23L27 23L27 24L24 24L24 23L23 23L23 22L22 22L22 23L23 23L23 24L19 24L19 25L23 25L23 26L24 26L24 25L25 25L25 26L26 26L26 25L27 25L27 24L30 24L30 25L28 25L28 26L30 26L30 27L31 27L31 26L32 26L32 27L33 27L33 26L32 26L32 25L31 25L31 24L30 24L30 23L31 23L31 22L32 22L32 23L33 23L33 22L32 22L32 20L33 20L33 21L34 21L34 22L35 22L35 24L37 24L37 23L38 23L38 26L39 26L39 25L43 25L43 26L40 26L40 27L39 27L39 28L40 28L40 29L41 29L41 30L40 30L40 31L38 31L38 30L39 30L39 29L38 29L38 30L36 30L36 29L34 29L34 30L33 30L33 32L34 32L34 34L35 34L35 31L34 31L34 30L36 30L36 32L37 32L37 33L38 33L38 34L39 34L39 32L40 32L40 33L41 33L41 32L40 32L40 31L41 31L41 30L42 30L42 33L43 33L43 32L44 32L44 31L43 31L43 30L44 30L44 29L45 29L45 26L44 26L44 25L45 25L45 24L42 24L42 23L46 23L46 22L45 22L45 20L43 20L43 21L44 21L44 22L42 22L42 21L41 21L41 20L42 20L42 19L43 19L43 18L44 18L44 17L45 17L45 19L46 19L46 18L47 18L47 17L45 17L45 16L44 16L44 15L46 15L46 14L42 14L42 13L43 13L43 12L42 12L42 13L41 13L41 12L40 12L40 13L39 13L39 12L38 12L38 10ZM39 10L39 11L40 11L40 10ZM16 11L16 12L18 12L18 11ZM47 11L47 12L48 12L48 13L49 13L49 12L48 12L48 11ZM58 11L58 12L59 12L59 11ZM40 13L40 14L38 14L38 15L39 15L39 16L38 16L38 17L39 17L39 18L43 18L43 17L44 17L44 16L42 16L42 17L40 17L40 16L41 16L41 15L42 15L42 14L41 14L41 13ZM8 14L8 15L7 15L7 16L9 16L9 14ZM17 14L17 15L16 15L16 16L17 16L17 17L16 17L16 18L15 18L15 19L14 19L14 21L19 21L19 22L20 22L20 21L21 21L21 19L22 19L22 20L23 20L23 19L22 19L22 18L21 18L21 19L17 19L17 18L18 18L18 17L19 17L19 14ZM40 14L40 15L41 15L41 14ZM48 14L48 15L49 15L49 14ZM50 14L50 15L51 15L51 17L53 17L53 18L52 18L52 21L53 21L53 20L55 20L55 19L53 19L53 18L55 18L55 17L56 17L56 18L57 18L57 17L56 17L56 16L55 16L55 15L53 15L53 14L52 14L52 15L51 15L51 14ZM1 15L1 16L2 16L2 15ZM17 15L17 16L18 16L18 15ZM52 15L52 16L53 16L53 17L54 17L54 16L53 16L53 15ZM20 16L20 17L22 17L22 16ZM31 16L31 17L30 17L30 18L31 18L31 19L29 19L29 20L27 20L27 21L26 21L26 20L25 20L25 21L26 21L26 22L27 22L27 23L29 23L29 22L28 22L28 21L29 21L29 20L32 20L32 18L33 18L33 17L32 17L32 16ZM31 17L31 18L32 18L32 17ZM48 17L48 18L49 18L49 17ZM2 18L2 19L3 19L3 20L4 20L4 19L3 19L3 18ZM7 18L7 19L8 19L8 18ZM10 18L10 19L11 19L11 18ZM34 18L34 19L35 19L35 18ZM15 19L15 20L16 20L16 19ZM40 19L40 20L41 20L41 19ZM1 20L1 21L2 21L2 20ZM19 20L19 21L20 21L20 20ZM30 21L30 22L31 22L31 21ZM58 21L58 22L59 22L59 21ZM16 22L16 23L17 23L17 22ZM38 22L38 23L39 23L39 24L41 24L41 23L40 23L40 22ZM8 23L8 24L6 24L6 25L8 25L8 24L9 24L9 23ZM9 25L9 26L10 26L10 25ZM34 25L34 26L35 26L35 25ZM36 25L36 27L34 27L34 28L37 28L37 25ZM58 25L58 26L59 26L59 25ZM40 27L40 28L42 28L42 30L43 30L43 29L44 29L44 28L43 28L43 27ZM5 29L5 32L8 32L8 29ZM29 29L29 32L32 32L32 29ZM53 29L53 32L56 32L56 29ZM58 29L58 30L59 30L59 29ZM6 30L6 31L7 31L7 30ZM18 30L18 31L19 31L19 30ZM30 30L30 31L31 31L31 30ZM54 30L54 31L55 31L55 30ZM2 31L2 32L3 32L3 31ZM12 31L12 32L10 32L10 33L9 33L9 34L10 34L10 33L12 33L12 32L13 32L13 31ZM23 31L23 33L24 33L24 31ZM17 32L17 33L19 33L19 32ZM21 32L21 33L22 33L22 32ZM26 32L26 33L27 33L27 34L28 34L28 35L26 35L26 37L25 37L25 38L24 38L24 40L22 40L22 41L25 41L25 40L26 40L26 39L27 39L27 38L28 38L28 39L29 39L29 38L31 38L31 39L32 39L32 40L33 40L33 39L34 39L34 38L36 38L36 37L34 37L34 38L33 38L33 37L32 37L32 36L33 36L33 33L27 33L27 32ZM57 32L57 33L56 33L56 34L57 34L57 33L58 33L58 32ZM60 32L60 33L61 33L61 32ZM29 34L29 37L31 37L31 36L32 36L32 35L31 35L31 34ZM42 34L42 35L44 35L44 34ZM18 35L18 36L19 36L19 37L20 37L20 38L21 38L21 39L23 39L23 38L21 38L21 37L20 37L20 36L19 36L19 35ZM23 35L23 36L24 36L24 35ZM34 35L34 36L37 36L37 35ZM5 36L5 37L7 37L7 36ZM27 36L27 37L26 37L26 38L27 38L27 37L28 37L28 36ZM60 36L60 37L61 37L61 36ZM42 37L42 38L43 38L43 37ZM44 37L44 38L46 38L46 39L44 39L44 40L47 40L47 38L46 38L46 37ZM6 38L6 39L7 39L7 38ZM32 38L32 39L33 39L33 38ZM39 38L39 39L38 39L38 43L39 43L39 44L40 44L40 45L38 45L38 44L37 44L37 45L38 45L38 46L40 46L40 47L41 47L41 48L40 48L40 49L41 49L41 50L40 50L40 51L42 51L42 52L43 52L43 53L45 53L45 52L43 52L43 50L42 50L42 49L43 49L43 48L42 48L42 47L41 47L41 46L42 46L42 45L43 45L43 44L42 44L42 45L41 45L41 44L40 44L40 42L41 42L41 40L40 40L40 42L39 42L39 39L40 39L40 38ZM57 39L57 40L59 40L59 39ZM2 40L2 41L3 41L3 40ZM54 40L54 41L55 41L55 42L54 42L54 43L52 43L52 44L54 44L54 43L55 43L55 42L56 42L56 41L55 41L55 40ZM32 43L32 44L33 44L33 43ZM15 46L15 47L14 47L14 51L16 51L16 52L15 52L15 53L19 53L19 50L20 50L20 49L22 49L22 48L19 48L19 46L18 46L18 47L17 47L17 46ZM60 46L60 47L61 47L61 46ZM15 47L15 48L16 48L16 49L15 49L15 50L16 50L16 49L17 49L17 50L19 50L19 49L17 49L17 48L16 48L16 47ZM46 47L46 48L47 48L47 47ZM11 48L11 49L12 49L12 50L13 50L13 48ZM60 48L60 49L61 49L61 48ZM2 49L2 50L4 50L4 49ZM9 50L9 53L10 53L10 54L12 54L12 53L10 53L10 51L11 51L11 50ZM32 50L32 51L33 51L33 50ZM57 50L57 51L58 51L58 50ZM3 51L3 52L4 52L4 51ZM24 51L24 52L25 52L25 51ZM22 52L22 53L23 53L23 52ZM29 53L29 56L32 56L32 53ZM34 53L34 54L35 54L35 56L34 56L34 55L33 55L33 58L35 58L35 56L37 56L37 55L36 55L36 53ZM53 53L53 56L56 56L56 53ZM27 54L27 55L26 55L26 57L27 57L27 55L28 55L28 54ZM30 54L30 55L31 55L31 54ZM54 54L54 55L55 55L55 54ZM59 54L59 55L60 55L60 56L58 56L58 57L60 57L60 60L57 60L57 61L61 61L61 54ZM38 57L38 58L37 58L37 59L35 59L35 60L37 60L37 59L38 59L38 58L39 58L39 57ZM18 58L18 59L17 59L17 60L19 60L19 59L20 59L20 58ZM50 58L50 59L51 59L51 58ZM30 59L30 60L31 60L31 59ZM39 59L39 60L40 60L40 59ZM0 0L0 7L7 7L7 0ZM1 1L1 6L6 6L6 1ZM2 2L2 5L5 5L5 2ZM54 0L54 7L61 7L61 0ZM55 1L55 6L60 6L60 1ZM56 2L56 5L59 5L59 2ZM0 54L0 61L7 61L7 54ZM1 55L1 60L6 60L6 55ZM2 56L2 59L5 59L5 56Z" fill="#000000"/></g></g></svg>
