<?xml version="1.0" encoding="UTF-8"?>
<svg xmlns="http://www.w3.org/2000/svg" version="1.1" width="300" height="300" viewBox="0 0 300 300"><rect x="0" y="0" width="300" height="300" fill="#ffffff"/><g transform="scale(12)"><g transform="translate(0,0)"><path fill-rule="evenodd" d="M8 0L8 1L9 1L9 2L10 2L10 3L11 3L11 1L14 1L14 2L12 2L12 4L11 4L11 5L10 5L10 4L9 4L9 5L10 5L10 8L9 8L9 6L8 6L8 8L9 8L9 10L10 10L10 11L8 11L8 9L7 9L7 8L6 8L6 9L7 9L7 10L6 10L6 11L5 11L5 12L6 12L6 13L7 13L7 12L6 12L6 11L8 11L8 12L9 12L9 14L8 14L8 16L6 16L6 15L7 15L7 14L5 14L5 13L4 13L4 14L3 14L3 15L2 15L2 14L1 14L1 10L2 10L2 13L3 13L3 11L4 11L4 10L5 10L5 8L3 8L3 9L2 9L2 8L0 8L0 17L1 17L1 15L2 15L2 16L4 16L4 17L8 17L8 18L9 18L9 17L8 17L8 16L9 16L9 15L10 15L10 12L11 12L11 13L13 13L13 14L11 14L11 16L12 16L12 15L14 15L14 16L13 16L13 17L11 17L11 19L10 19L10 20L11 20L11 19L12 19L12 21L13 21L13 20L15 20L15 21L14 21L14 22L12 22L12 23L16 23L16 22L15 22L15 21L17 21L17 23L19 23L19 24L18 24L18 25L19 25L19 24L20 24L20 23L21 23L21 25L22 25L22 24L24 24L24 25L25 25L25 20L24 20L24 19L25 19L25 18L24 18L24 17L25 17L25 16L23 16L23 15L25 15L25 14L24 14L24 13L25 13L25 10L24 10L24 9L25 9L25 8L24 8L24 9L22 9L22 10L21 10L21 9L19 9L19 8L18 8L18 9L17 9L17 8L16 8L16 7L17 7L17 3L16 3L16 2L17 2L17 0L16 0L16 2L15 2L15 1L14 1L14 0L11 0L11 1L9 1L9 0ZM14 2L14 3L15 3L15 7L16 7L16 3L15 3L15 2ZM12 4L12 5L11 5L11 7L12 7L12 9L10 9L10 10L12 10L12 11L13 11L13 13L14 13L14 11L15 11L15 13L16 13L16 12L20 12L20 13L21 13L21 11L20 11L20 10L19 10L19 9L18 9L18 11L15 11L15 9L14 9L14 8L13 8L13 7L14 7L14 5L13 5L13 4ZM12 5L12 7L13 7L13 5ZM3 9L3 10L4 10L4 9ZM12 9L12 10L14 10L14 9ZM16 9L16 10L17 10L17 9ZM23 10L23 11L24 11L24 10ZM22 12L22 14L21 14L21 15L19 15L19 16L21 16L21 15L22 15L22 14L23 14L23 12ZM17 13L17 14L16 14L16 16L15 16L15 17L13 17L13 18L12 18L12 19L13 19L13 18L15 18L15 19L16 19L16 16L18 16L18 14L19 14L19 13ZM4 14L4 15L5 15L5 14ZM14 14L14 15L15 15L15 14ZM17 17L17 20L20 20L20 17ZM22 17L22 22L21 22L21 21L20 21L20 22L19 22L19 23L20 23L20 22L21 22L21 23L22 23L22 22L23 22L23 17ZM18 18L18 19L19 19L19 18ZM8 20L8 22L9 22L9 23L8 23L8 25L9 25L9 23L11 23L11 21L10 21L10 22L9 22L9 20ZM10 24L10 25L11 25L11 24ZM12 24L12 25L15 25L15 24ZM16 24L16 25L17 25L17 24ZM0 0L0 7L7 7L7 0ZM1 1L1 6L6 6L6 1ZM2 2L2 5L5 5L5 2ZM18 0L18 7L25 7L25 0ZM19 1L19 6L24 6L24 1ZM20 2L20 5L23 5L23 2ZM0 18L0 25L7 25L7 18ZM1 19L1 24L6 24L6 19ZM2 20L2 23L5 23L5 20Z" fill="#000000"/></g></g></svg>
