<?xml version="1.0" encoding="UTF-8"?>
<svg xmlns="http://www.w3.org/2000/svg" version="1.1" width="300" height="300" viewBox="0 0 300 300"><rect x="0" y="0" width="300" height="300" fill="#ffffff"/><g transform="scale(4.918)"><g transform="translate(0,0)"><path fill-rule="evenodd" d="M8 0L8 1L10 1L10 2L9 2L9 3L10 3L10 4L9 4L9 5L10 5L10 7L11 7L11 8L10 8L10 10L9 10L9 11L8 11L8 10L6 10L6 9L7 9L7 8L6 8L6 9L5 9L5 8L3 8L3 9L2 9L2 8L0 8L0 9L1 9L1 11L2 11L2 12L3 12L3 13L0 13L0 14L2 14L2 15L5 15L5 16L4 16L4 17L3 17L3 16L2 16L2 17L0 17L0 18L1 18L1 19L0 19L0 21L1 21L1 19L2 19L2 20L4 20L4 22L3 22L3 23L4 23L4 24L2 24L2 25L4 25L4 24L5 24L5 23L4 23L4 22L5 22L5 20L6 20L6 21L8 21L8 20L9 20L9 22L13 22L13 23L14 23L14 24L13 24L13 25L14 25L14 26L16 26L16 25L15 25L15 23L18 23L18 24L17 24L17 26L18 26L18 27L19 27L19 28L17 28L17 27L16 27L16 29L15 29L15 27L12 27L12 26L10 26L10 27L11 27L11 29L10 29L10 30L9 30L9 26L6 26L6 27L5 27L5 26L4 26L4 27L5 27L5 28L3 28L3 26L1 26L1 23L2 23L2 22L0 22L0 27L1 27L1 28L0 28L0 29L1 29L1 30L3 30L3 31L1 31L1 32L2 32L2 33L1 33L1 34L0 34L0 35L2 35L2 34L3 34L3 32L4 32L4 35L5 35L5 36L4 36L4 37L3 37L3 38L1 38L1 39L0 39L0 43L2 43L2 44L5 44L5 45L7 45L7 46L6 46L6 47L9 47L9 48L8 48L8 49L7 49L7 48L5 48L5 46L4 46L4 45L1 45L1 47L0 47L0 48L2 48L2 47L3 47L3 49L2 49L2 51L0 51L0 53L4 53L4 52L5 52L5 51L7 51L7 52L6 52L6 53L8 53L8 54L9 54L9 56L8 56L8 58L10 58L10 59L8 59L8 61L9 61L9 60L10 60L10 61L11 61L11 60L13 60L13 61L14 61L14 59L15 59L15 61L16 61L16 60L18 60L18 61L19 61L19 60L21 60L21 59L22 59L22 58L21 58L21 59L19 59L19 58L20 58L20 54L18 54L18 53L19 53L19 51L17 51L17 52L16 52L16 50L17 50L17 48L18 48L18 49L20 49L20 50L21 50L21 51L24 51L24 52L23 52L23 53L24 53L24 55L23 55L23 54L22 54L22 52L21 52L21 55L22 55L22 57L23 57L23 58L24 58L24 59L23 59L23 60L22 60L22 61L24 61L24 60L25 60L25 61L30 61L30 59L32 59L32 60L31 60L31 61L33 61L33 60L34 60L34 61L35 61L35 60L36 60L36 61L39 61L39 59L40 59L40 58L39 58L39 57L41 57L41 58L43 58L43 59L41 59L41 60L40 60L40 61L42 61L42 60L43 60L43 59L44 59L44 61L46 61L46 59L44 59L44 57L42 57L42 56L43 56L43 55L42 55L42 54L43 54L43 53L45 53L45 55L44 55L44 56L46 56L46 57L45 57L45 58L47 58L47 60L48 60L48 61L49 61L49 60L48 60L48 59L49 59L49 58L47 58L47 56L46 56L46 54L47 54L47 55L50 55L50 56L48 56L48 57L50 57L50 58L51 58L51 57L53 57L53 58L56 58L56 60L55 60L55 59L54 59L54 60L55 60L55 61L58 61L58 60L60 60L60 61L61 61L61 57L60 57L60 55L61 55L61 54L60 54L60 53L59 53L59 51L61 51L61 50L59 50L59 51L58 51L58 50L57 50L57 49L58 49L58 48L60 48L60 49L61 49L61 46L60 46L60 47L59 47L59 46L58 46L58 45L57 45L57 44L58 44L58 43L59 43L59 44L60 44L60 45L61 45L61 42L60 42L60 41L59 41L59 39L61 39L61 38L59 38L59 39L58 39L58 38L57 38L57 37L58 37L58 36L59 36L59 37L61 37L61 34L60 34L60 33L61 33L61 30L60 30L60 31L59 31L59 32L60 32L60 33L58 33L58 31L57 31L57 30L58 30L58 29L61 29L61 26L60 26L60 25L57 25L57 24L60 24L60 23L61 23L61 22L60 22L60 23L59 23L59 21L61 21L61 18L60 18L60 17L61 17L61 16L59 16L59 15L61 15L61 14L59 14L59 13L60 13L60 12L59 12L59 11L61 11L61 10L59 10L59 9L58 9L58 10L59 10L59 11L57 11L57 10L56 10L56 11L55 11L55 12L56 12L56 13L54 13L54 11L53 11L53 10L55 10L55 8L54 8L54 9L52 9L52 8L47 8L47 6L46 6L46 7L45 7L45 6L44 6L44 5L46 5L46 4L47 4L47 5L48 5L48 7L49 7L49 6L50 6L50 7L51 7L51 5L52 5L52 4L53 4L53 0L51 0L51 2L50 2L50 1L48 1L48 0L42 0L42 1L43 1L43 2L41 2L41 1L40 1L40 2L38 2L38 1L39 1L39 0L34 0L34 2L33 2L33 1L32 1L32 0L27 0L27 1L26 1L26 0L25 0L25 4L24 4L24 5L27 5L27 1L32 1L32 3L31 3L31 2L29 2L29 3L31 3L31 4L28 4L28 10L27 10L27 9L26 9L26 8L27 8L27 6L26 6L26 8L25 8L25 6L24 6L24 8L25 8L25 9L24 9L24 10L22 10L22 9L23 9L23 3L24 3L24 2L23 2L23 0L19 0L19 1L17 1L17 0L14 0L14 1L13 1L13 2L11 2L11 1L12 1L12 0ZM14 1L14 2L13 2L13 3L11 3L11 5L12 5L12 4L13 4L13 10L11 10L11 11L10 11L10 13L8 13L8 14L7 14L7 13L6 13L6 14L7 14L7 15L6 15L6 16L7 16L7 17L5 17L5 18L4 18L4 20L5 20L5 18L7 18L7 19L6 19L6 20L7 20L7 19L11 19L11 20L10 20L10 21L12 21L12 20L15 20L15 21L17 21L17 20L15 20L15 19L13 19L13 18L15 18L15 15L14 15L14 14L15 14L15 13L14 13L14 10L15 10L15 8L16 8L16 9L17 9L17 10L16 10L16 11L17 11L17 12L16 12L16 14L17 14L17 15L18 15L18 14L20 14L20 13L21 13L21 14L22 14L22 11L19 11L19 10L20 10L20 9L21 9L21 8L22 8L22 5L21 5L21 7L20 7L20 6L19 6L19 4L21 4L21 3L19 3L19 4L18 4L18 5L17 5L17 3L18 3L18 2L17 2L17 1L16 1L16 2L17 2L17 3L15 3L15 1ZM20 1L20 2L21 2L21 1ZM36 1L36 2L35 2L35 3L32 3L32 4L33 4L33 5L34 5L34 6L33 6L33 7L34 7L34 6L35 6L35 9L36 9L36 8L37 8L37 9L39 9L39 10L37 10L37 11L36 11L36 12L37 12L37 13L36 13L36 14L35 14L35 13L34 13L34 12L32 12L32 11L33 11L33 10L34 10L34 9L33 9L33 10L32 10L32 9L31 9L31 10L30 10L30 9L29 9L29 10L28 10L28 13L29 13L29 14L28 14L28 15L27 15L27 13L26 13L26 12L27 12L27 11L26 11L26 12L24 12L24 11L23 11L23 12L24 12L24 13L26 13L26 15L25 15L25 14L23 14L23 16L22 16L22 17L24 17L24 15L25 15L25 16L28 16L28 15L29 15L29 17L27 17L27 18L26 18L26 20L24 20L24 18L21 18L21 16L20 16L20 15L19 15L19 16L20 16L20 17L18 17L18 18L20 18L20 19L23 19L23 21L22 21L22 20L21 20L21 22L19 22L19 21L18 21L18 22L19 22L19 23L21 23L21 25L19 25L19 26L21 26L21 27L20 27L20 28L19 28L19 29L18 29L18 30L17 30L17 31L16 31L16 30L15 30L15 31L14 31L14 32L13 32L13 31L12 31L12 32L11 32L11 33L10 33L10 34L9 34L9 35L10 35L10 34L11 34L11 33L12 33L12 35L14 35L14 37L15 37L15 38L16 38L16 39L13 39L13 36L9 36L9 37L11 37L11 39L13 39L13 40L15 40L15 41L12 41L12 42L13 42L13 45L12 45L12 44L10 44L10 43L11 43L11 42L10 42L10 39L9 39L9 38L7 38L7 37L8 37L8 36L7 36L7 35L6 35L6 36L7 36L7 37L6 37L6 38L7 38L7 39L6 39L6 40L4 40L4 39L3 39L3 41L1 41L1 42L3 42L3 43L4 43L4 42L3 42L3 41L5 41L5 43L6 43L6 44L7 44L7 43L6 43L6 42L7 42L7 41L8 41L8 40L9 40L9 44L8 44L8 45L11 45L11 46L9 46L9 47L12 47L12 48L9 48L9 49L8 49L8 50L7 50L7 49L5 49L5 48L4 48L4 49L3 49L3 50L7 50L7 51L8 51L8 50L9 50L9 49L10 49L10 51L9 51L9 52L8 52L8 53L11 53L11 54L12 54L12 53L13 53L13 52L14 52L14 51L15 51L15 50L13 50L13 49L15 49L15 47L14 47L14 46L15 46L15 43L16 43L16 45L17 45L17 46L20 46L20 45L18 45L18 43L20 43L20 42L24 42L24 43L23 43L23 45L21 45L21 46L22 46L22 47L23 47L23 46L24 46L24 47L25 47L25 49L26 49L26 50L25 50L25 51L26 51L26 52L29 52L29 51L30 51L30 50L33 50L33 51L34 51L34 52L33 52L33 54L34 54L34 53L36 53L36 54L38 54L38 55L39 55L39 54L41 54L41 52L42 52L42 53L43 53L43 52L46 52L46 53L48 53L48 54L50 54L50 55L51 55L51 54L52 54L52 53L50 53L50 52L51 52L51 51L50 51L50 49L51 49L51 50L52 50L52 49L53 49L53 48L55 48L55 49L54 49L54 50L56 50L56 49L57 49L57 48L58 48L58 47L57 47L57 46L56 46L56 47L54 47L54 46L53 46L53 45L54 45L54 44L56 44L56 42L57 42L57 43L58 43L58 42L59 42L59 41L57 41L57 39L52 39L52 38L53 38L53 36L54 36L54 37L55 37L55 36L56 36L56 37L57 37L57 36L58 36L58 35L57 35L57 34L56 34L56 33L52 33L52 34L49 34L49 33L48 33L48 32L49 32L49 31L48 31L48 32L47 32L47 30L49 30L49 29L47 29L47 30L46 30L46 31L45 31L45 29L46 29L46 28L50 28L50 27L49 27L49 26L50 26L50 25L51 25L51 24L49 24L49 23L48 23L48 24L49 24L49 26L48 26L48 25L46 25L46 24L47 24L47 23L45 23L45 25L44 25L44 22L46 22L46 21L45 21L45 19L44 19L44 18L46 18L46 19L47 19L47 18L49 18L49 17L47 17L47 15L48 15L48 16L50 16L50 20L51 20L51 19L53 19L53 18L54 18L54 19L55 19L55 20L56 20L56 21L55 21L55 22L54 22L54 23L53 23L53 24L52 24L52 26L51 26L51 28L54 28L54 27L55 27L55 28L57 28L57 26L56 26L56 24L54 24L54 23L56 23L56 22L58 22L58 21L59 21L59 20L60 20L60 18L59 18L59 17L57 17L57 19L55 19L55 18L56 18L56 17L55 17L55 14L54 14L54 13L53 13L53 11L52 11L52 14L51 14L51 15L52 15L52 14L53 14L53 16L54 16L54 17L53 17L53 18L51 18L51 16L50 16L50 15L48 15L48 14L50 14L50 13L51 13L51 11L50 11L50 12L49 12L49 11L45 11L45 7L44 7L44 6L43 6L43 5L42 5L42 3L41 3L41 2L40 2L40 3L41 3L41 5L40 5L40 6L39 6L39 8L37 8L37 7L38 7L38 6L37 6L37 7L36 7L36 6L35 6L35 3L37 3L37 4L36 4L36 5L38 5L38 4L39 4L39 3L37 3L37 1ZM45 1L45 3L49 3L49 4L50 4L50 3L49 3L49 2L48 2L48 1L47 1L47 2L46 2L46 1ZM22 2L22 3L23 3L23 2ZM13 3L13 4L15 4L15 5L14 5L14 8L15 8L15 6L16 6L16 8L17 8L17 9L18 9L18 10L19 10L19 9L18 9L18 8L17 8L17 6L16 6L16 4L15 4L15 3ZM43 3L43 4L44 4L44 3ZM51 3L51 4L52 4L52 3ZM29 5L29 8L32 8L32 5ZM41 5L41 6L40 6L40 10L41 10L41 12L40 12L40 11L39 11L39 12L38 12L38 11L37 11L37 12L38 12L38 14L36 14L36 15L38 15L38 16L40 16L40 15L42 15L42 18L44 18L44 17L46 17L46 18L47 18L47 17L46 17L46 13L47 13L47 12L46 12L46 13L45 13L45 11L44 11L44 9L41 9L41 8L42 8L42 7L43 7L43 8L44 8L44 7L43 7L43 6L42 6L42 5ZM8 6L8 8L9 8L9 6ZM11 6L11 7L12 7L12 6ZM18 6L18 7L19 7L19 6ZM30 6L30 7L31 7L31 6ZM41 6L41 7L42 7L42 6ZM52 6L52 7L53 7L53 6ZM60 8L60 9L61 9L61 8ZM4 9L4 10L2 10L2 11L4 11L4 13L5 13L5 11L6 11L6 12L7 12L7 11L6 11L6 10L5 10L5 9ZM47 9L47 10L49 10L49 9ZM4 10L4 11L5 11L5 10ZM29 10L29 11L30 11L30 12L29 12L29 13L30 13L30 14L29 14L29 15L30 15L30 17L31 17L31 13L30 13L30 12L31 12L31 11L32 11L32 10L31 10L31 11L30 11L30 10ZM42 10L42 11L43 11L43 10ZM18 11L18 12L17 12L17 13L19 13L19 11ZM42 12L42 13L41 13L41 14L42 14L42 15L43 15L43 14L44 14L44 12ZM48 12L48 13L49 13L49 12ZM58 12L58 13L56 13L56 15L58 15L58 13L59 13L59 12ZM10 13L10 14L9 14L9 16L8 16L8 15L7 15L7 16L8 16L8 17L7 17L7 18L8 18L8 17L9 17L9 16L10 16L10 14L11 14L11 13ZM12 13L12 17L10 17L10 18L12 18L12 17L14 17L14 16L13 16L13 13ZM33 13L33 15L34 15L34 13ZM39 13L39 14L40 14L40 13ZM42 13L42 14L43 14L43 13ZM0 15L0 16L1 16L1 15ZM44 15L44 16L45 16L45 15ZM16 16L16 19L17 19L17 16ZM32 16L32 18L30 18L30 20L31 20L31 21L30 21L30 22L31 22L31 23L29 23L29 22L28 22L28 21L29 21L29 20L28 20L28 21L27 21L27 22L28 22L28 23L26 23L26 22L25 22L25 21L23 21L23 22L21 22L21 23L24 23L24 22L25 22L25 23L26 23L26 24L27 24L27 25L23 25L23 24L22 24L22 25L21 25L21 26L23 26L23 31L22 31L22 32L24 32L24 33L22 33L22 35L21 35L21 32L19 32L19 31L21 31L21 30L22 30L22 29L21 29L21 30L19 30L19 31L18 31L18 33L20 33L20 35L19 35L19 34L17 34L17 32L16 32L16 34L17 34L17 35L16 35L16 36L18 36L18 37L20 37L20 38L19 38L19 39L20 39L20 40L19 40L19 41L17 41L17 39L18 39L18 38L17 38L17 39L16 39L16 41L15 41L15 42L16 42L16 43L17 43L17 42L19 42L19 41L22 41L22 38L23 38L23 39L25 39L25 40L26 40L26 41L24 41L24 40L23 40L23 41L24 41L24 42L26 42L26 41L27 41L27 45L30 45L30 47L29 47L29 48L28 48L28 47L27 47L27 46L26 46L26 49L27 49L27 51L28 51L28 49L29 49L29 48L30 48L30 49L32 49L32 48L34 48L34 49L33 49L33 50L34 50L34 51L35 51L35 50L34 50L34 49L37 49L37 50L36 50L36 51L37 51L37 52L36 52L36 53L37 53L37 52L38 52L38 53L39 53L39 52L40 52L40 51L41 51L41 50L40 50L40 51L39 51L39 49L42 49L42 50L43 50L43 47L42 47L42 46L44 46L44 49L45 49L45 50L44 50L44 51L46 51L46 52L47 52L47 51L46 51L46 47L48 47L48 46L51 46L51 47L49 47L49 48L47 48L47 49L49 49L49 48L51 48L51 49L52 49L52 46L51 46L51 45L52 45L52 44L54 44L54 43L55 43L55 40L52 40L52 39L51 39L51 37L52 37L52 35L51 35L51 37L50 37L50 35L49 35L49 36L48 36L48 34L47 34L47 33L46 33L46 32L45 32L45 33L44 33L44 34L43 34L43 33L41 33L41 29L42 29L42 30L43 30L43 29L45 29L45 28L46 28L46 25L45 25L45 28L43 28L43 29L42 29L42 28L41 28L41 29L40 29L40 28L39 28L39 27L41 27L41 26L43 26L43 27L44 27L44 26L43 26L43 25L42 25L42 24L41 24L41 23L42 23L42 22L44 22L44 21L43 21L43 20L44 20L44 19L40 19L40 18L39 18L39 19L38 19L38 17L37 17L37 16L36 16L36 17L33 17L33 16ZM36 17L36 18L37 18L37 17ZM54 17L54 18L55 18L55 17ZM2 18L2 19L3 19L3 18ZM27 18L27 19L28 19L28 18ZM34 18L34 19L35 19L35 20L37 20L37 22L36 22L36 23L35 23L35 24L34 24L34 22L33 22L33 21L34 21L34 20L33 20L33 19L32 19L32 20L33 20L33 21L31 21L31 22L33 22L33 24L32 24L32 23L31 23L31 24L29 24L29 25L27 25L27 27L26 27L26 26L25 26L25 28L24 28L24 29L25 29L25 31L24 31L24 32L25 32L25 33L24 33L24 35L23 35L23 36L24 36L24 37L26 37L26 39L27 39L27 37L26 37L26 36L27 36L27 33L28 33L28 31L27 31L27 32L25 32L25 31L26 31L26 29L25 29L25 28L27 28L27 30L28 30L28 26L32 26L32 27L34 27L34 29L35 29L35 30L34 30L34 32L33 32L33 33L34 33L34 32L35 32L35 35L34 35L34 34L32 34L32 33L30 33L30 34L28 34L28 35L30 35L30 36L28 36L28 37L29 37L29 40L31 40L31 41L28 41L28 42L30 42L30 43L28 43L28 44L30 44L30 43L31 43L31 45L33 45L33 44L32 44L32 43L35 43L35 44L37 44L37 45L40 45L40 43L41 43L41 44L42 44L42 45L41 45L41 46L42 46L42 45L45 45L45 43L47 43L47 42L42 42L42 40L41 40L41 39L39 39L39 40L40 40L40 41L38 41L38 42L37 42L37 41L36 41L36 43L35 43L35 42L33 42L33 40L34 40L34 41L35 41L35 40L34 40L34 39L35 39L35 38L36 38L36 40L38 40L38 39L37 39L37 38L36 38L36 36L37 36L37 35L38 35L38 36L39 36L39 37L40 37L40 36L41 36L41 35L43 35L43 36L42 36L42 37L41 37L41 38L42 38L42 39L43 39L43 40L45 40L45 41L47 41L47 40L51 40L51 39L49 39L49 37L48 37L48 36L46 36L46 35L45 35L45 36L46 36L46 38L44 38L44 35L43 35L43 34L41 34L41 33L39 33L39 31L40 31L40 29L39 29L39 28L38 28L38 32L37 32L37 30L36 30L36 28L37 28L37 27L36 27L36 26L38 26L38 25L39 25L39 26L40 26L40 23L41 23L41 22L42 22L42 21L41 21L41 22L38 22L38 21L40 21L40 19L39 19L39 20L38 20L38 19L35 19L35 18ZM58 18L58 19L57 19L57 21L58 21L58 19L59 19L59 18ZM48 19L48 20L49 20L49 19ZM52 20L52 21L51 21L51 22L50 22L50 21L49 21L49 22L50 22L50 23L51 23L51 22L52 22L52 21L54 21L54 20ZM13 21L13 22L14 22L14 23L15 23L15 22L14 22L14 21ZM6 22L6 23L7 23L7 24L6 24L6 25L8 25L8 22ZM37 22L37 23L38 23L38 24L39 24L39 23L38 23L38 22ZM10 23L10 24L11 24L11 23ZM33 24L33 25L32 25L32 26L34 26L34 24ZM35 24L35 25L37 25L37 24ZM53 24L53 26L52 26L52 27L53 27L53 26L55 26L55 25L54 25L54 24ZM47 26L47 27L48 27L48 26ZM6 27L6 28L8 28L8 27ZM21 27L21 28L22 28L22 27ZM35 27L35 28L36 28L36 27ZM59 27L59 28L60 28L60 27ZM1 28L1 29L3 29L3 28ZM5 29L5 32L8 32L8 29ZM11 29L11 30L12 30L12 29ZM29 29L29 32L32 32L32 29ZM50 29L50 33L51 33L51 32L52 32L52 30L51 30L51 29ZM53 29L53 32L56 32L56 29ZM6 30L6 31L7 31L7 30ZM30 30L30 31L31 31L31 30ZM35 30L35 31L36 31L36 30ZM54 30L54 31L55 31L55 30ZM42 31L42 32L44 32L44 31ZM36 32L36 34L39 34L39 35L40 35L40 34L39 34L39 33L37 33L37 32ZM5 33L5 34L7 34L7 33ZM14 33L14 34L15 34L15 33ZM25 33L25 34L26 34L26 33ZM31 34L31 36L32 36L32 37L30 37L30 39L31 39L31 38L32 38L32 40L33 40L33 38L34 38L34 37L35 37L35 36L36 36L36 35L35 35L35 36L34 36L34 35L33 35L33 36L32 36L32 34ZM54 34L54 35L56 35L56 36L57 36L57 35L56 35L56 34ZM59 34L59 36L60 36L60 34ZM18 35L18 36L19 36L19 35ZM20 35L20 37L21 37L21 38L22 38L22 37L21 37L21 35ZM25 35L25 36L26 36L26 35ZM33 36L33 37L34 37L34 36ZM42 37L42 38L43 38L43 39L44 39L44 38L43 38L43 37ZM47 38L47 39L45 39L45 40L47 40L47 39L48 39L48 38ZM7 39L7 40L6 40L6 41L7 41L7 40L8 40L8 39ZM48 41L48 42L49 42L49 41ZM50 41L50 43L48 43L48 44L50 44L50 45L51 45L51 43L52 43L52 41ZM53 41L53 43L54 43L54 41ZM31 42L31 43L32 43L32 42ZM39 42L39 43L37 43L37 44L39 44L39 43L40 43L40 42ZM41 42L41 43L42 43L42 42ZM21 43L21 44L22 44L22 43ZM43 43L43 44L44 44L44 43ZM46 44L46 45L47 45L47 44ZM24 45L24 46L25 46L25 45ZM31 46L31 47L30 47L30 48L31 48L31 47L32 47L32 46ZM37 46L37 47L36 47L36 48L37 48L37 47L38 47L38 48L42 48L42 47L39 47L39 46ZM13 47L13 48L12 48L12 49L13 49L13 48L14 48L14 47ZM16 47L16 48L17 48L17 47ZM18 47L18 48L19 48L19 47ZM20 48L20 49L21 49L21 48ZM23 48L23 49L22 49L22 50L24 50L24 48ZM27 48L27 49L28 49L28 48ZM11 50L11 51L10 51L10 52L11 52L11 51L12 51L12 50ZM48 50L48 51L49 51L49 52L48 52L48 53L49 53L49 52L50 52L50 51L49 51L49 50ZM3 51L3 52L4 52L4 51ZM38 51L38 52L39 52L39 51ZM52 51L52 52L57 52L57 53L58 53L58 51ZM17 52L17 53L18 53L18 52ZM24 52L24 53L25 53L25 52ZM15 53L15 54L13 54L13 56L12 56L12 55L11 55L11 56L12 56L12 58L13 58L13 59L14 59L14 55L15 55L15 54L16 54L16 57L18 57L18 56L17 56L17 54L16 54L16 53ZM27 53L27 54L25 54L25 55L26 55L26 56L23 56L23 57L25 57L25 58L26 58L26 60L29 60L29 59L30 59L30 57L29 57L29 58L28 58L28 57L27 57L27 58L26 58L26 56L28 56L28 53ZM29 53L29 56L32 56L32 53ZM53 53L53 56L56 56L56 53ZM30 54L30 55L31 55L31 54ZM54 54L54 55L55 55L55 54ZM57 54L57 55L58 55L58 56L57 56L57 57L56 57L56 58L57 58L57 57L59 57L59 58L58 58L58 59L59 59L59 58L60 58L60 57L59 57L59 55L60 55L60 54L59 54L59 55L58 55L58 54ZM33 55L33 56L34 56L34 57L35 57L35 58L37 58L37 59L36 59L36 60L37 60L37 59L39 59L39 58L38 58L38 57L36 57L36 56L37 56L37 55L36 55L36 56L35 56L35 55ZM41 55L41 56L42 56L42 55ZM50 56L50 57L51 57L51 56ZM10 57L10 58L11 58L11 57ZM32 57L32 59L33 59L33 57ZM16 58L16 59L17 59L17 58ZM10 59L10 60L11 60L11 59ZM18 59L18 60L19 60L19 59ZM50 60L50 61L53 61L53 60ZM0 0L0 7L7 7L7 0ZM1 1L1 6L6 6L6 1ZM2 2L2 5L5 5L5 2ZM54 0L54 7L61 7L61 0ZM55 1L55 6L60 6L60 1ZM56 2L56 5L59 5L59 2ZM0 54L0 61L7 61L7 54ZM1 55L1 60L6 60L6 55ZM2 56L2 59L5 59L5 56Z" fill="#000000"/></g></g></svg>
