<?xml version="1.0" encoding="UTF-8"?>
<svg xmlns="http://www.w3.org/2000/svg" version="1.1" width="300" height="300" viewBox="0 0 300 300"><rect x="0" y="0" width="300" height="300" fill="#ffffff"/><g transform="scale(4.918)"><g transform="translate(0,0)"><path fill-rule="evenodd" d="M10 0L10 1L12 1L12 0ZM16 0L16 1L15 1L15 2L16 2L16 3L15 3L15 4L14 4L14 3L13 3L13 2L14 2L14 1L13 1L13 2L11 2L11 4L10 4L10 7L9 7L9 5L8 5L8 7L9 7L9 8L6 8L6 9L5 9L5 8L0 8L0 10L1 10L1 9L2 9L2 10L3 10L3 9L4 9L4 10L5 10L5 11L4 11L4 12L3 12L3 11L2 11L2 12L0 12L0 14L1 14L1 15L0 15L0 19L1 19L1 21L0 21L0 22L3 22L3 21L4 21L4 20L6 20L6 21L5 21L5 22L4 22L4 23L3 23L3 25L2 25L2 26L1 26L1 24L0 24L0 26L1 26L1 28L0 28L0 30L3 30L3 29L4 29L4 31L2 31L2 34L1 34L1 33L0 33L0 34L1 34L1 35L2 35L2 36L1 36L1 37L0 37L0 38L2 38L2 36L4 36L4 37L3 37L3 38L4 38L4 37L7 37L7 38L6 38L6 39L2 39L2 41L4 41L4 42L3 42L3 43L4 43L4 47L3 47L3 48L2 48L2 47L0 47L0 48L1 48L1 49L2 49L2 51L0 51L0 53L4 53L4 52L5 52L5 51L7 51L7 52L6 52L6 53L7 53L7 52L9 52L9 51L8 51L8 50L9 50L9 49L7 49L7 48L4 48L4 47L5 47L5 45L7 45L7 46L6 46L6 47L7 47L7 46L8 46L8 47L9 47L9 48L10 48L10 47L13 47L13 48L14 48L14 49L12 49L12 48L11 48L11 49L12 49L12 50L10 50L10 52L12 52L12 51L13 51L13 52L14 52L14 54L12 54L12 55L10 55L10 53L8 53L8 55L9 55L9 56L8 56L8 61L10 61L10 60L9 60L9 58L11 58L11 61L12 61L12 58L11 58L11 56L13 56L13 55L18 55L18 53L19 53L19 54L20 54L20 55L21 55L21 54L23 54L23 55L24 55L24 54L25 54L25 55L26 55L26 56L25 56L25 57L24 57L24 56L23 56L23 57L21 57L21 56L19 56L19 57L18 57L18 56L16 56L16 57L15 57L15 56L14 56L14 58L16 58L16 57L18 57L18 58L17 58L17 59L18 59L18 61L19 61L19 59L18 59L18 58L20 58L20 59L24 59L24 60L25 60L25 57L26 57L26 58L27 58L27 59L26 59L26 60L28 60L28 59L29 59L29 58L31 58L31 59L30 59L30 61L32 61L32 60L33 60L33 61L34 61L34 58L33 58L33 59L32 59L32 57L37 57L37 58L36 58L36 59L40 59L40 60L38 60L38 61L40 61L40 60L41 60L41 61L42 61L42 60L43 60L43 61L44 61L44 60L45 60L45 61L49 61L49 60L51 60L51 59L52 59L52 58L53 58L53 60L52 60L52 61L53 61L53 60L55 60L55 61L56 61L56 60L55 60L55 58L53 58L53 57L56 57L56 58L59 58L59 56L61 56L61 54L59 54L59 56L58 56L58 57L57 57L57 53L59 53L59 52L54 52L54 51L61 51L61 50L60 50L60 49L59 49L59 48L58 48L58 50L56 50L56 49L57 49L57 48L56 48L56 49L55 49L55 48L54 48L54 47L57 47L57 46L56 46L56 45L59 45L59 44L60 44L60 45L61 45L61 42L60 42L60 39L61 39L61 38L58 38L58 37L61 37L61 34L60 34L60 33L59 33L59 32L61 32L61 30L59 30L59 29L61 29L61 28L60 28L60 27L61 27L61 26L60 26L60 24L58 24L58 25L57 25L57 26L58 26L58 25L59 25L59 28L57 28L57 27L56 27L56 24L57 24L57 23L61 23L61 22L58 22L58 21L59 21L59 20L57 20L57 17L61 17L61 16L60 16L60 15L61 15L61 14L60 14L60 13L59 13L59 12L60 12L60 11L61 11L61 10L60 10L60 11L59 11L59 9L60 9L60 8L59 8L59 9L58 9L58 8L57 8L57 9L56 9L56 8L55 8L55 9L54 9L54 8L52 8L52 9L51 9L51 5L52 5L52 4L53 4L53 0L51 0L51 2L50 2L50 3L48 3L48 4L47 4L47 3L46 3L46 2L47 2L47 1L46 1L46 0L44 0L44 1L45 1L45 2L44 2L44 3L45 3L45 4L44 4L44 7L43 7L43 6L42 6L42 7L43 7L43 8L47 8L47 9L48 9L48 10L45 10L45 9L44 9L44 10L45 10L45 11L42 11L42 10L43 10L43 9L41 9L41 10L38 10L38 9L39 9L39 8L41 8L41 6L40 6L40 7L39 7L39 5L41 5L41 4L39 4L39 5L36 5L36 7L37 7L37 8L35 8L35 5L34 5L34 8L35 8L35 10L34 10L34 9L33 9L33 4L32 4L32 1L33 1L33 3L34 3L34 2L35 2L35 4L37 4L37 3L36 3L36 2L37 2L37 1L36 1L36 2L35 2L35 1L33 1L33 0L30 0L30 1L29 1L29 2L27 2L27 0L26 0L26 3L27 3L27 4L26 4L26 5L27 5L27 6L26 6L26 8L25 8L25 6L24 6L24 8L25 8L25 9L19 9L19 6L20 6L20 7L21 7L21 8L22 8L22 7L23 7L23 4L21 4L21 3L19 3L19 1L18 1L18 0ZM21 0L21 1L20 1L20 2L21 2L21 1L22 1L22 3L24 3L24 2L25 2L25 0ZM39 0L39 1L38 1L38 3L40 3L40 1L41 1L41 2L42 2L42 1L43 1L43 0L42 0L42 1L41 1L41 0ZM48 0L48 2L49 2L49 0ZM8 1L8 2L9 2L9 1ZM17 1L17 2L18 2L18 1ZM23 1L23 2L24 2L24 1ZM30 1L30 2L31 2L31 1ZM8 3L8 4L9 4L9 3ZM12 3L12 4L13 4L13 5L11 5L11 7L12 7L12 6L13 6L13 10L11 10L11 11L10 11L10 10L9 10L9 9L8 9L8 10L7 10L7 9L6 9L6 10L7 10L7 11L5 11L5 12L9 12L9 14L7 14L7 13L6 13L6 14L7 14L7 15L1 15L1 16L2 16L2 18L1 18L1 19L2 19L2 20L3 20L3 19L4 19L4 18L3 18L3 17L5 17L5 19L6 19L6 20L7 20L7 21L6 21L6 22L5 22L5 24L4 24L4 25L6 25L6 26L4 26L4 28L7 28L7 27L6 27L6 26L7 26L7 25L6 25L6 24L7 24L7 23L8 23L8 24L9 24L9 23L11 23L11 27L10 27L10 26L8 26L8 28L9 28L9 27L10 27L10 29L9 29L9 31L11 31L11 32L12 32L12 31L14 31L14 32L16 32L16 33L12 33L12 34L10 34L10 36L12 36L12 37L11 37L11 38L7 38L7 39L6 39L6 40L4 40L4 41L5 41L5 44L7 44L7 45L9 45L9 42L7 42L7 41L6 41L6 40L7 40L7 39L9 39L9 41L10 41L10 43L11 43L11 45L10 45L10 46L9 46L9 47L10 47L10 46L11 46L11 45L12 45L12 46L19 46L19 45L18 45L18 44L19 44L19 43L18 43L18 42L17 42L17 41L18 41L18 40L17 40L17 39L18 39L18 38L19 38L19 37L20 37L20 38L22 38L22 39L23 39L23 40L21 40L21 39L19 39L19 40L21 40L21 41L20 41L20 43L22 43L22 44L21 44L21 45L20 45L20 48L19 48L19 47L16 47L16 48L15 48L15 49L14 49L14 50L13 50L13 51L14 51L14 52L15 52L15 51L16 51L16 52L17 52L17 51L21 51L21 49L20 49L20 48L22 48L22 49L27 49L27 50L25 50L25 51L26 51L26 53L25 53L25 52L22 52L22 53L25 53L25 54L26 54L26 53L27 53L27 56L26 56L26 57L27 57L27 56L28 56L28 53L27 53L27 52L30 52L30 51L29 51L29 50L28 50L28 49L27 49L27 48L26 48L26 45L27 45L27 46L29 46L29 47L30 47L30 46L31 46L31 47L32 47L32 48L31 48L31 49L30 49L30 50L31 50L31 49L32 49L32 48L33 48L33 50L32 50L32 52L33 52L33 54L35 54L35 55L34 55L34 56L37 56L37 54L39 54L39 52L40 52L40 55L41 55L41 56L39 56L39 57L38 57L38 58L41 58L41 60L42 60L42 59L43 59L43 60L44 60L44 59L45 59L45 58L48 58L48 57L47 57L47 56L49 56L49 59L46 59L46 60L49 60L49 59L50 59L50 58L51 58L51 56L52 56L52 55L50 55L50 54L51 54L51 52L52 52L52 51L53 51L53 50L55 50L55 49L54 49L54 48L53 48L53 49L50 49L50 48L52 48L52 47L53 47L53 46L52 46L52 47L50 47L50 46L51 46L51 44L52 44L52 45L54 45L54 44L55 44L55 45L56 45L56 44L59 44L59 43L60 43L60 42L58 42L58 41L56 41L56 40L59 40L59 39L56 39L56 38L57 38L57 37L54 37L54 36L56 36L56 35L57 35L57 36L60 36L60 35L59 35L59 34L57 34L57 33L56 33L56 34L55 34L55 33L53 33L53 34L52 34L52 35L50 35L50 34L51 34L51 33L52 33L52 32L49 32L49 31L50 31L50 30L51 30L51 31L52 31L52 29L50 29L50 30L47 30L47 27L48 27L48 28L49 28L49 27L50 27L50 28L51 28L51 27L50 27L50 26L51 26L51 25L52 25L52 26L53 26L53 27L52 27L52 28L56 28L56 27L55 27L55 26L53 26L53 25L55 25L55 24L53 24L53 23L55 23L55 22L54 22L54 21L56 21L56 23L57 23L57 20L56 20L56 17L57 17L57 16L59 16L59 13L58 13L58 14L57 14L57 16L56 16L56 17L55 17L55 14L54 14L54 13L55 13L55 12L54 12L54 11L57 11L57 12L56 12L56 13L57 13L57 12L59 12L59 11L57 11L57 10L58 10L58 9L57 9L57 10L56 10L56 9L55 9L55 10L54 10L54 11L53 11L53 13L51 13L51 9L50 9L50 8L49 8L49 7L50 7L50 5L49 5L49 4L48 4L48 5L47 5L47 4L46 4L46 5L47 5L47 8L49 8L49 9L50 9L50 14L49 14L49 13L48 13L48 12L49 12L49 11L46 11L46 12L47 12L47 13L45 13L45 12L42 12L42 11L41 11L41 12L40 12L40 11L38 11L38 10L37 10L37 9L38 9L38 8L37 8L37 9L36 9L36 11L35 11L35 12L34 12L34 11L33 11L33 10L32 10L32 9L31 9L31 10L32 10L32 12L30 12L30 14L29 14L29 15L28 15L28 14L26 14L26 13L27 13L27 11L26 11L26 13L25 13L25 12L24 12L24 11L25 11L25 10L23 10L23 11L22 11L22 10L21 10L21 11L22 11L22 13L25 13L25 14L22 14L22 15L21 15L21 17L20 17L20 16L19 16L19 13L20 13L20 14L21 14L21 13L20 13L20 12L19 12L19 11L20 11L20 10L19 10L19 11L18 11L18 10L17 10L17 9L18 9L18 8L17 8L17 9L16 9L16 10L14 10L14 9L15 9L15 7L16 7L16 6L15 6L15 7L14 7L14 6L13 6L13 5L14 5L14 4L13 4L13 3ZM29 3L29 4L31 4L31 3ZM51 3L51 4L52 4L52 3ZM16 4L16 5L17 5L17 7L18 7L18 5L19 5L19 4L18 4L18 5L17 5L17 4ZM20 4L20 5L21 5L21 7L22 7L22 5L21 5L21 4ZM24 4L24 5L25 5L25 4ZM27 4L27 5L28 5L28 4ZM42 4L42 5L43 5L43 4ZM29 5L29 8L32 8L32 5ZM27 6L27 8L26 8L26 9L27 9L27 10L29 10L29 9L27 9L27 8L28 8L28 6ZM30 6L30 7L31 7L31 6ZM37 6L37 7L38 7L38 6ZM45 6L45 7L46 7L46 6ZM48 6L48 7L49 7L49 6ZM52 6L52 7L53 7L53 6ZM10 8L10 9L12 9L12 8ZM52 9L52 10L53 10L53 9ZM8 10L8 11L9 11L9 10ZM12 11L12 13L11 13L11 14L10 14L10 15L9 15L9 17L8 17L8 15L7 15L7 16L6 16L6 17L8 17L8 19L7 19L7 18L6 18L6 19L7 19L7 20L8 20L8 23L9 23L9 20L8 20L8 19L10 19L10 22L11 22L11 23L12 23L12 25L13 25L13 23L14 23L14 24L16 24L16 25L18 25L18 26L15 26L15 25L14 25L14 26L12 26L12 29L11 29L11 31L12 31L12 29L13 29L13 30L14 30L14 31L16 31L16 32L17 32L17 33L16 33L16 34L15 34L15 35L16 35L16 36L14 36L14 37L15 37L15 38L14 38L14 40L12 40L12 41L11 41L11 39L12 39L12 38L11 38L11 39L10 39L10 41L11 41L11 42L13 42L13 44L12 44L12 45L13 45L13 44L14 44L14 45L17 45L17 44L16 44L16 43L17 43L17 42L16 42L16 41L17 41L17 40L15 40L15 38L16 38L16 37L19 37L19 36L20 36L20 37L22 37L22 38L23 38L23 39L24 39L24 40L25 40L25 41L24 41L24 42L25 42L25 41L26 41L26 42L27 42L27 43L29 43L29 41L28 41L28 42L27 42L27 41L26 41L26 38L27 38L27 39L29 39L29 40L30 40L30 41L31 41L31 42L30 42L30 43L31 43L31 44L30 44L30 45L29 45L29 46L30 46L30 45L31 45L31 46L32 46L32 47L33 47L33 45L35 45L35 44L34 44L34 43L37 43L37 42L38 42L38 43L39 43L39 42L38 42L38 41L37 41L37 40L35 40L35 38L33 38L33 36L36 36L36 38L37 38L37 39L38 39L38 40L39 40L39 39L40 39L40 40L41 40L41 39L42 39L42 40L43 40L43 41L40 41L40 42L43 42L43 43L40 43L40 44L39 44L39 46L38 46L38 47L39 47L39 50L38 50L38 49L37 49L37 48L36 48L36 49L37 49L37 50L36 50L36 51L35 51L35 50L34 50L34 53L35 53L35 54L37 54L37 52L36 52L36 51L39 51L39 50L40 50L40 48L41 48L41 47L42 47L42 46L44 46L44 48L43 48L43 49L41 49L41 50L44 50L44 51L45 51L45 52L46 52L46 53L47 53L47 52L46 52L46 51L47 51L47 50L46 50L46 51L45 51L45 50L44 50L44 48L45 48L45 46L44 46L44 44L46 44L46 43L49 43L49 42L50 42L50 43L51 43L51 42L53 42L53 44L54 44L54 43L55 43L55 44L56 44L56 43L55 43L55 42L56 42L56 41L55 41L55 40L54 40L54 41L55 41L55 42L53 42L53 41L52 41L52 40L51 40L51 38L52 38L52 37L53 37L53 35L52 35L52 36L50 36L50 37L49 37L49 36L48 36L48 35L47 35L47 34L46 34L46 35L45 35L45 33L47 33L47 32L48 32L48 33L49 33L49 32L48 32L48 31L47 31L47 30L45 30L45 29L46 29L46 28L45 28L45 27L47 27L47 26L48 26L48 27L49 27L49 26L50 26L50 25L51 25L51 24L52 24L52 25L53 25L53 24L52 24L52 23L53 23L53 22L50 22L50 20L48 20L48 19L47 19L47 18L46 18L46 16L48 16L48 18L49 18L49 17L50 17L50 16L48 16L48 15L49 15L49 14L48 14L48 13L47 13L47 14L46 14L46 16L45 16L45 15L44 15L44 16L45 16L45 17L44 17L44 18L43 18L43 17L42 17L42 18L43 18L43 19L42 19L42 20L45 20L45 21L44 21L44 22L45 22L45 23L44 23L44 24L45 24L45 25L44 25L44 26L45 26L45 27L44 27L44 28L45 28L45 29L44 29L44 30L43 30L43 28L42 28L42 30L41 30L41 31L40 31L40 30L39 30L39 31L40 31L40 32L38 32L38 33L37 33L37 32L36 32L36 33L37 33L37 34L36 34L36 35L35 35L35 34L33 34L33 32L35 32L35 30L34 30L34 28L35 28L35 29L37 29L37 30L36 30L36 31L37 31L37 30L38 30L38 29L40 29L40 28L41 28L41 27L40 27L40 28L38 28L38 27L39 27L39 26L38 26L38 25L39 25L39 24L41 24L41 25L42 25L42 26L43 26L43 25L42 25L42 24L41 24L41 23L42 23L42 22L43 22L43 21L42 21L42 22L41 22L41 23L40 23L40 21L39 21L39 20L40 20L40 19L41 19L41 17L40 17L40 16L41 16L41 15L42 15L42 14L43 14L43 13L42 13L42 14L41 14L41 13L40 13L40 12L35 12L35 13L37 13L37 14L38 14L38 13L39 13L39 15L37 15L37 16L36 16L36 18L33 18L33 17L34 17L34 16L35 16L35 15L36 15L36 14L34 14L34 13L32 13L32 14L30 14L30 15L29 15L29 16L28 16L28 15L27 15L27 17L26 17L26 18L27 18L27 19L26 19L26 20L25 20L25 17L21 17L21 18L22 18L22 19L24 19L24 20L25 20L25 21L24 21L24 22L25 22L25 21L26 21L26 20L27 20L27 22L28 22L28 23L30 23L30 24L31 24L31 25L30 25L30 27L29 27L29 24L28 24L28 27L26 27L26 28L25 28L25 29L21 29L21 31L23 31L23 30L25 30L25 29L26 29L26 30L27 30L27 31L26 31L26 32L27 32L27 33L22 33L22 34L21 34L21 35L19 35L19 34L20 34L20 33L21 33L21 32L20 32L20 28L24 28L24 27L25 27L25 25L26 25L26 26L27 26L27 25L26 25L26 24L27 24L27 23L24 23L24 24L25 24L25 25L24 25L24 27L22 27L22 26L23 26L23 25L21 25L21 27L20 27L20 26L19 26L19 25L18 25L18 24L16 24L16 23L18 23L18 21L19 21L19 23L20 23L20 24L21 24L21 23L23 23L23 21L22 21L22 20L20 20L20 18L18 18L18 19L19 19L19 20L16 20L16 19L15 19L15 18L16 18L16 17L15 17L15 18L14 18L14 17L13 17L13 20L16 20L16 21L14 21L14 22L11 22L11 21L12 21L12 20L11 20L11 19L12 19L12 17L11 17L11 16L12 16L12 15L13 15L13 16L14 16L14 15L13 15L13 14L14 14L14 12L15 12L15 11L14 11L14 12L13 12L13 11ZM16 11L16 13L19 13L19 12L18 12L18 11ZM28 11L28 12L29 12L29 11ZM2 12L2 14L4 14L4 13L3 13L3 12ZM44 13L44 14L45 14L45 13ZM11 14L11 15L12 15L12 14ZM25 14L25 15L26 15L26 14ZM32 14L32 15L31 15L31 16L29 16L29 17L28 17L28 18L32 18L32 20L29 20L29 19L27 19L27 20L29 20L29 21L28 21L28 22L29 22L29 21L31 21L31 22L32 22L32 23L31 23L31 24L32 24L32 25L31 25L31 26L32 26L32 27L31 27L31 28L32 28L32 27L33 27L33 28L34 28L34 26L36 26L36 27L35 27L35 28L37 28L37 29L38 29L38 28L37 28L37 27L38 27L38 26L37 26L37 25L34 25L34 26L32 26L32 25L33 25L33 22L36 22L36 20L37 20L37 19L38 19L38 20L39 20L39 19L38 19L38 18L39 18L39 16L40 16L40 15L41 15L41 14L40 14L40 15L39 15L39 16L37 16L37 18L36 18L36 19L33 19L33 18L32 18L32 17L33 17L33 16L34 16L34 15L33 15L33 14ZM47 14L47 15L48 15L48 14ZM50 14L50 15L52 15L52 16L51 16L51 17L54 17L54 18L55 18L55 17L54 17L54 16L53 16L53 15L54 15L54 14ZM15 15L15 16L16 16L16 15ZM23 15L23 16L24 16L24 15ZM18 16L18 17L19 17L19 16ZM31 16L31 17L32 17L32 16ZM9 17L9 18L11 18L11 17ZM50 18L50 19L51 19L51 18ZM52 18L52 21L53 21L53 18ZM59 18L59 19L61 19L61 18ZM45 19L45 20L46 20L46 22L47 22L47 23L48 23L48 24L49 24L49 21L47 21L47 20L46 20L46 19ZM54 19L54 20L55 20L55 19ZM33 20L33 21L32 21L32 22L33 22L33 21L34 21L34 20ZM60 20L60 21L61 21L61 20ZM16 21L16 22L17 22L17 21ZM20 21L20 23L21 23L21 21ZM37 21L37 22L39 22L39 21ZM6 22L6 23L7 23L7 22ZM34 23L34 24L39 24L39 23ZM45 23L45 24L46 24L46 23ZM45 25L45 26L47 26L47 25ZM48 25L48 26L49 26L49 25ZM14 26L14 27L13 27L13 28L14 28L14 29L15 29L15 30L17 30L17 32L19 32L19 33L17 33L17 36L19 36L19 35L18 35L18 34L19 34L19 33L20 33L20 32L19 32L19 31L18 31L18 30L19 30L19 29L18 29L18 28L17 28L17 27L16 27L16 28L17 28L17 29L15 29L15 28L14 28L14 27L15 27L15 26ZM2 27L2 28L1 28L1 29L3 29L3 27ZM28 27L28 28L29 28L29 27ZM26 28L26 29L27 29L27 30L28 30L28 29L27 29L27 28ZM5 29L5 32L8 32L8 29ZM29 29L29 32L32 32L32 29ZM53 29L53 32L56 32L56 29ZM6 30L6 31L7 31L7 30ZM30 30L30 31L31 31L31 30ZM42 30L42 31L41 31L41 32L40 32L40 33L43 33L43 32L44 32L44 33L45 33L45 32L44 32L44 31L45 31L45 30L44 30L44 31L43 31L43 30ZM54 30L54 31L55 31L55 30ZM24 31L24 32L25 32L25 31ZM42 31L42 32L43 32L43 31ZM46 31L46 32L47 32L47 31ZM57 31L57 32L59 32L59 31ZM4 33L4 35L5 35L5 36L8 36L8 37L9 37L9 36L8 36L8 35L9 35L9 34L8 34L8 33ZM27 33L27 34L26 34L26 35L25 35L25 34L24 34L24 35L25 35L25 36L24 36L24 37L25 37L25 38L26 38L26 37L27 37L27 38L29 38L29 36L28 36L28 37L27 37L27 34L28 34L28 35L32 35L32 36L33 36L33 35L32 35L32 34L31 34L31 33ZM38 33L38 34L39 34L39 33ZM6 34L6 35L7 35L7 34ZM12 34L12 35L13 35L13 34ZM22 34L22 35L23 35L23 34ZM40 34L40 35L41 35L41 34ZM54 34L54 35L55 35L55 34ZM36 35L36 36L39 36L39 35ZM43 35L43 37L44 37L44 38L42 38L42 37L41 37L41 36L40 36L40 39L41 39L41 38L42 38L42 39L44 39L44 38L46 38L46 40L44 40L44 43L43 43L43 44L42 44L42 45L41 45L41 44L40 44L40 47L41 47L41 46L42 46L42 45L43 45L43 44L44 44L44 43L46 43L46 42L47 42L47 39L48 39L48 40L50 40L50 42L51 42L51 40L50 40L50 38L51 38L51 37L50 37L50 38L49 38L49 37L48 37L48 36L47 36L47 35L46 35L46 36L47 36L47 37L45 37L45 36L44 36L44 35ZM22 36L22 37L23 37L23 36ZM25 36L25 37L26 37L26 36ZM30 37L30 38L31 38L31 39L32 39L32 40L31 40L31 41L33 41L33 39L32 39L32 38L31 38L31 37ZM37 37L37 38L39 38L39 37ZM48 38L48 39L49 39L49 38ZM53 38L53 39L55 39L55 38ZM0 39L0 40L1 40L1 39ZM14 40L14 42L15 42L15 40ZM21 41L21 42L22 42L22 43L23 43L23 41ZM34 41L34 42L35 42L35 41ZM6 42L6 43L7 43L7 44L8 44L8 43L7 43L7 42ZM31 42L31 43L32 43L32 44L31 44L31 45L32 45L32 44L33 44L33 43L32 43L32 42ZM57 42L57 43L58 43L58 42ZM24 43L24 44L26 44L26 43ZM0 44L0 46L3 46L3 45L1 45L1 44ZM27 44L27 45L28 45L28 44ZM36 44L36 46L34 46L34 47L36 47L36 46L37 46L37 45L38 45L38 44ZM47 44L47 46L46 46L46 47L47 47L47 48L48 48L48 49L49 49L49 50L48 50L48 51L49 51L49 50L50 50L50 52L48 52L48 53L49 53L49 54L47 54L47 55L49 55L49 56L50 56L50 55L49 55L49 54L50 54L50 52L51 52L51 51L52 51L52 50L50 50L50 49L49 49L49 48L48 48L48 47L49 47L49 46L50 46L50 44ZM21 45L21 47L22 47L22 48L24 48L24 47L25 47L25 45L24 45L24 47L22 47L22 46L23 46L23 45ZM47 46L47 47L48 47L48 46ZM59 46L59 47L61 47L61 46ZM18 48L18 49L17 49L17 50L18 50L18 49L19 49L19 50L20 50L20 49L19 49L19 48ZM3 49L3 50L4 50L4 49ZM6 49L6 50L7 50L7 49ZM15 49L15 50L14 50L14 51L15 51L15 50L16 50L16 49ZM27 50L27 51L28 51L28 50ZM3 51L3 52L4 52L4 51ZM40 51L40 52L41 52L41 51ZM42 51L42 54L41 54L41 55L42 55L42 54L43 54L43 55L44 55L44 56L41 56L41 58L45 58L45 57L46 57L46 56L45 56L45 55L46 55L46 54L45 54L45 53L44 53L44 52L43 52L43 51ZM19 52L19 53L20 53L20 54L21 54L21 52ZM35 52L35 53L36 53L36 52ZM60 52L60 53L61 53L61 52ZM15 53L15 54L17 54L17 53ZM29 53L29 56L32 56L32 53ZM43 53L43 54L44 54L44 53ZM53 53L53 56L56 56L56 53ZM30 54L30 55L31 55L31 54ZM54 54L54 55L55 55L55 54ZM44 56L44 57L45 57L45 56ZM20 57L20 58L21 58L21 57ZM23 57L23 58L24 58L24 57ZM60 57L60 60L58 60L58 61L61 61L61 57ZM13 59L13 61L17 61L17 60L16 60L16 59ZM31 59L31 60L32 60L32 59ZM20 60L20 61L21 61L21 60ZM36 60L36 61L37 61L37 60ZM0 0L0 7L7 7L7 0ZM1 1L1 6L6 6L6 1ZM2 2L2 5L5 5L5 2ZM54 0L54 7L61 7L61 0ZM55 1L55 6L60 6L60 1ZM56 2L56 5L59 5L59 2ZM0 54L0 61L7 61L7 54ZM1 55L1 60L6 60L6 55ZM2 56L2 59L5 59L5 56Z" fill="#000000"/></g></g></svg>
