<?xml version="1.0" encoding="UTF-8"?>
<svg xmlns="http://www.w3.org/2000/svg" version="1.1" width="300" height="300" viewBox="0 0 300 300"><rect x="0" y="0" width="300" height="300" fill="#ffffff"/><g transform="scale(4.918)"><g transform="translate(0,0)"><path fill-rule="evenodd" d="M9 0L9 1L8 1L8 2L9 2L9 3L8 3L8 4L9 4L9 3L10 3L10 2L11 2L11 3L12 3L12 2L14 2L14 1L11 1L11 0ZM16 0L16 1L15 1L15 2L16 2L16 3L15 3L15 4L14 4L14 3L13 3L13 4L14 4L14 5L12 5L12 4L10 4L10 7L11 7L11 6L12 6L12 7L13 7L13 6L14 6L14 7L15 7L15 9L14 9L14 10L16 10L16 9L17 9L17 10L18 10L18 11L16 11L16 13L19 13L19 16L18 16L18 17L19 17L19 16L20 16L20 17L21 17L21 18L22 18L22 19L23 19L23 20L24 20L24 19L23 19L23 18L24 18L24 17L25 17L25 16L24 16L24 15L23 15L23 14L25 14L25 15L26 15L26 14L28 14L28 15L29 15L29 16L28 16L28 17L29 17L29 16L31 16L31 17L32 17L32 18L27 18L27 17L26 17L26 19L25 19L25 21L24 21L24 22L25 22L25 21L26 21L26 22L28 22L28 23L30 23L30 24L31 24L31 25L32 25L32 26L31 26L31 27L30 27L30 28L28 28L28 29L26 29L26 28L27 28L27 27L29 27L29 24L28 24L28 26L27 26L27 25L26 25L26 24L27 24L27 23L26 23L26 24L25 24L25 23L24 23L24 24L25 24L25 25L24 25L24 27L22 27L22 26L23 26L23 25L21 25L21 28L24 28L24 27L25 27L25 26L27 26L27 27L26 27L26 28L25 28L25 29L21 29L21 31L22 31L22 30L25 30L25 29L26 29L26 30L27 30L27 31L26 31L26 32L27 32L27 33L25 33L25 31L24 31L24 32L23 32L23 33L24 33L24 34L23 34L23 35L22 35L22 34L21 34L21 35L19 35L19 34L20 34L20 33L22 33L22 32L20 32L20 28L19 28L19 27L20 27L20 26L19 26L19 25L20 25L20 24L21 24L21 23L23 23L23 21L22 21L22 20L20 20L20 18L18 18L18 19L19 19L19 20L16 20L16 19L13 19L13 18L14 18L14 17L13 17L13 16L14 16L14 15L13 15L13 13L14 13L14 14L15 14L15 13L14 13L14 12L15 12L15 11L14 11L14 12L13 12L13 13L10 13L10 12L11 12L11 11L10 11L10 12L8 12L8 10L11 10L11 9L9 9L9 8L6 8L6 9L5 9L5 8L0 8L0 14L2 14L2 13L3 13L3 12L4 12L4 11L3 11L3 10L4 10L4 9L5 9L5 11L7 11L7 12L5 12L5 13L7 13L7 14L5 14L5 15L4 15L4 16L6 16L6 17L4 17L4 19L5 19L5 18L6 18L6 19L7 19L7 20L4 20L4 21L3 21L3 22L1 22L1 21L2 21L2 20L3 20L3 17L1 17L1 18L0 18L0 22L1 22L1 25L0 25L0 27L1 27L1 26L3 26L3 27L2 27L2 28L1 28L1 29L0 29L0 31L1 31L1 32L0 32L0 36L1 36L1 37L0 37L0 38L1 38L1 39L2 39L2 40L1 40L1 41L2 41L2 43L1 43L1 44L0 44L0 45L2 45L2 43L4 43L4 46L5 46L5 47L3 47L3 46L1 46L1 47L0 47L0 48L1 48L1 49L2 49L2 47L3 47L3 50L2 50L2 51L0 51L0 53L4 53L4 52L5 52L5 51L8 51L8 52L9 52L9 53L8 53L8 55L10 55L10 56L11 56L11 57L9 57L9 56L8 56L8 61L10 61L10 60L11 60L11 61L14 61L14 60L13 60L13 59L14 59L14 58L13 58L13 57L12 57L12 56L14 56L14 54L13 54L13 52L14 52L14 53L17 53L17 54L15 54L15 55L18 55L18 53L19 53L19 54L20 54L20 55L21 55L21 54L24 54L24 55L25 55L25 56L26 56L26 55L27 55L27 53L26 53L26 52L27 52L27 51L28 51L28 50L30 50L30 51L29 51L29 52L28 52L28 56L27 56L27 59L26 59L26 60L28 60L28 59L29 59L29 58L32 58L32 57L37 57L37 58L36 58L36 59L37 59L37 58L38 58L38 59L40 59L40 60L39 60L39 61L40 61L40 60L41 60L41 61L42 61L42 60L45 60L45 61L49 61L49 60L51 60L51 61L52 61L52 60L55 60L55 61L56 61L56 60L55 60L55 58L53 58L53 57L56 57L56 58L59 58L59 56L61 56L61 54L59 54L59 56L58 56L58 57L57 57L57 51L61 51L61 50L60 50L60 49L61 49L61 46L59 46L59 47L60 47L60 48L58 48L58 49L57 49L57 48L56 48L56 49L57 49L57 51L56 51L56 50L53 50L53 51L52 51L52 50L50 50L50 49L53 49L53 48L54 48L54 49L55 49L55 48L54 48L54 47L57 47L57 46L56 46L56 45L59 45L59 44L60 44L60 45L61 45L61 42L60 42L60 43L59 43L59 44L56 44L56 43L55 43L55 42L56 42L56 41L58 41L58 42L57 42L57 43L58 43L58 42L59 42L59 41L60 41L60 39L61 39L61 38L58 38L58 37L61 37L61 34L60 34L60 33L61 33L61 30L59 30L59 29L60 29L60 28L61 28L61 26L60 26L60 24L58 24L58 25L57 25L57 26L58 26L58 25L59 25L59 28L57 28L57 27L56 27L56 24L57 24L57 23L61 23L61 22L58 22L58 21L59 21L59 20L58 20L58 21L57 21L57 23L56 23L56 21L55 21L55 19L53 19L53 18L52 18L52 20L51 20L51 18L50 18L50 21L49 21L49 20L48 20L48 19L49 19L49 18L48 18L48 17L50 17L50 15L52 15L52 16L51 16L51 17L54 17L54 18L55 18L55 17L56 17L56 20L57 20L57 18L58 18L58 17L59 17L59 16L60 16L60 15L61 15L61 14L59 14L59 16L57 16L57 15L55 15L55 17L54 17L54 16L53 16L53 15L54 15L54 14L55 14L55 13L56 13L56 14L58 14L58 13L59 13L59 12L60 12L60 11L61 11L61 10L60 10L60 11L59 11L59 9L60 9L60 8L59 8L59 9L58 9L58 8L57 8L57 9L56 9L56 8L55 8L55 9L54 9L54 8L52 8L52 7L53 7L53 6L52 6L52 7L51 7L51 5L52 5L52 4L53 4L53 0L51 0L51 2L50 2L50 4L49 4L49 3L46 3L46 2L47 2L47 1L46 1L46 0L44 0L44 1L45 1L45 2L44 2L44 3L45 3L45 4L44 4L44 7L43 7L43 6L42 6L42 7L43 7L43 8L47 8L47 9L48 9L48 10L45 10L45 9L44 9L44 10L45 10L45 11L44 11L44 12L43 12L43 11L42 11L42 10L43 10L43 9L40 9L40 8L41 8L41 5L43 5L43 3L42 3L42 1L43 1L43 0L42 0L42 1L41 1L41 0L39 0L39 1L38 1L38 3L42 3L42 4L41 4L41 5L36 5L36 7L37 7L37 6L38 6L38 7L39 7L39 8L38 8L38 9L39 9L39 10L38 10L38 11L37 11L37 12L35 12L35 11L36 11L36 9L37 9L37 8L35 8L35 5L34 5L34 4L32 4L32 1L33 1L33 2L35 2L35 4L37 4L37 3L36 3L36 0L35 0L35 1L33 1L33 0L30 0L30 1L29 1L29 2L27 2L27 4L26 4L26 1L27 1L27 0L26 0L26 1L25 1L25 0L24 0L24 1L22 1L22 3L23 3L23 2L24 2L24 3L25 3L25 4L24 4L24 5L25 5L25 4L26 4L26 5L27 5L27 6L26 6L26 7L25 7L25 6L24 6L24 8L27 8L27 9L26 9L26 10L25 10L25 9L19 9L19 6L20 6L20 7L21 7L21 8L22 8L22 7L23 7L23 4L21 4L21 3L19 3L19 1L18 1L18 0ZM48 0L48 1L50 1L50 0ZM17 1L17 2L18 2L18 1ZM20 1L20 2L21 2L21 1ZM30 1L30 2L31 2L31 1ZM40 1L40 2L41 2L41 1ZM29 3L29 4L31 4L31 3ZM51 3L51 4L52 4L52 3ZM16 4L16 5L17 5L17 7L18 7L18 5L19 5L19 4L18 4L18 5L17 5L17 4ZM20 4L20 5L21 5L21 7L22 7L22 5L21 5L21 4ZM27 4L27 5L28 5L28 4ZM46 4L46 5L48 5L48 4ZM8 5L8 7L9 7L9 5ZM29 5L29 8L32 8L32 5ZM15 6L15 7L16 7L16 6ZM27 6L27 8L28 8L28 6ZM30 6L30 7L31 7L31 6ZM33 6L33 9L34 9L34 10L35 10L35 8L34 8L34 6ZM39 6L39 7L40 7L40 6ZM45 6L45 7L46 7L46 6ZM47 6L47 8L49 8L49 9L50 9L50 14L49 14L49 13L48 13L48 12L49 12L49 11L46 11L46 12L44 12L44 15L43 15L43 14L42 14L42 13L43 13L43 12L42 12L42 11L41 11L41 10L40 10L40 11L39 11L39 12L40 12L40 13L41 13L41 14L40 14L40 15L39 15L39 16L37 16L37 19L34 19L34 20L35 20L35 21L34 21L34 22L32 22L32 21L33 21L33 18L35 18L35 15L33 15L33 14L32 14L32 13L31 13L31 12L32 12L32 11L33 11L33 13L34 13L34 14L36 14L36 13L35 13L35 12L34 12L34 11L33 11L33 10L32 10L32 9L31 9L31 10L30 10L30 9L27 9L27 11L26 11L26 13L25 13L25 12L24 12L24 11L25 11L25 10L23 10L23 11L22 11L22 10L21 10L21 11L22 11L22 13L25 13L25 14L26 14L26 13L29 13L29 12L30 12L30 13L31 13L31 16L32 16L32 17L33 17L33 18L32 18L32 20L29 20L29 19L26 19L26 21L27 21L27 20L29 20L29 21L28 21L28 22L29 22L29 21L31 21L31 22L32 22L32 23L31 23L31 24L32 24L32 25L33 25L33 23L34 23L34 24L37 24L37 25L34 25L34 26L32 26L32 28L34 28L34 30L35 30L35 31L33 31L33 33L32 33L32 34L33 34L33 35L32 35L32 36L31 36L31 35L30 35L30 36L31 36L31 37L29 37L29 35L28 35L28 36L26 36L26 35L25 35L25 36L24 36L24 35L23 35L23 36L22 36L22 37L20 37L20 36L19 36L19 35L18 35L18 34L19 34L19 33L20 33L20 32L19 32L19 31L18 31L18 30L19 30L19 29L18 29L18 28L17 28L17 27L16 27L16 28L17 28L17 29L15 29L15 28L14 28L14 30L11 30L11 31L10 31L10 29L11 29L11 28L12 28L12 29L13 29L13 28L12 28L12 27L13 27L13 26L14 26L14 27L15 27L15 26L18 26L18 25L19 25L19 24L20 24L20 23L21 23L21 21L20 21L20 23L19 23L19 21L18 21L18 23L16 23L16 24L15 24L15 23L14 23L14 22L15 22L15 21L16 21L16 22L17 22L17 21L16 21L16 20L13 20L13 19L8 19L8 18L13 18L13 17L12 17L12 14L10 14L10 13L9 13L9 14L8 14L8 15L9 15L9 14L10 14L10 16L11 16L11 17L9 17L9 16L7 16L7 15L6 15L6 16L7 16L7 17L6 17L6 18L7 18L7 19L8 19L8 21L4 21L4 22L5 22L5 24L8 24L8 25L6 25L6 26L8 26L8 25L9 25L9 24L10 24L10 22L9 22L9 24L8 24L8 21L10 21L10 20L11 20L11 24L13 24L13 25L11 25L11 26L10 26L10 27L8 27L8 28L10 28L10 29L9 29L9 31L10 31L10 32L9 32L9 33L10 33L10 36L9 36L9 37L8 37L8 38L9 38L9 39L8 39L8 40L9 40L9 41L10 41L10 40L11 40L11 42L10 42L10 43L8 43L8 42L7 42L7 41L6 41L6 40L7 40L7 39L6 39L6 38L7 38L7 37L6 37L6 38L5 38L5 39L6 39L6 40L5 40L5 41L6 41L6 42L5 42L5 44L7 44L7 43L8 43L8 45L6 45L6 46L8 46L8 47L6 47L6 48L4 48L4 50L8 50L8 49L6 49L6 48L8 48L8 47L9 47L9 48L11 48L11 49L9 49L9 52L10 52L10 50L11 50L11 49L12 49L12 48L11 48L11 47L12 47L12 45L14 45L14 44L15 44L15 43L16 43L16 44L17 44L17 45L15 45L15 46L17 46L17 47L16 47L16 48L15 48L15 47L14 47L14 46L13 46L13 49L14 49L14 50L15 50L15 51L16 51L16 52L17 52L17 51L21 51L21 49L22 49L22 50L23 50L23 51L24 51L24 52L22 52L22 53L25 53L25 54L26 54L26 53L25 53L25 51L27 51L27 50L28 50L28 49L29 49L29 48L31 48L31 47L32 47L32 48L33 48L33 47L34 47L34 49L30 49L30 50L35 50L35 51L34 51L34 52L35 52L35 53L33 53L33 55L34 55L34 56L37 56L37 57L38 57L38 58L40 58L40 59L41 59L41 60L42 60L42 59L45 59L45 58L48 58L48 57L47 57L47 56L49 56L49 59L46 59L46 60L49 60L49 59L50 59L50 58L51 58L51 59L53 59L53 58L51 58L51 56L52 56L52 55L50 55L50 54L51 54L51 53L50 53L50 52L52 52L52 51L50 51L50 50L49 50L49 49L50 49L50 48L52 48L52 47L53 47L53 46L52 46L52 47L50 47L50 46L51 46L51 44L52 44L52 45L54 45L54 44L55 44L55 45L56 45L56 44L55 44L55 43L54 43L54 44L53 44L53 41L54 41L54 40L55 40L55 41L56 41L56 40L59 40L59 39L56 39L56 38L57 38L57 37L54 37L54 36L55 36L55 35L57 35L57 33L53 33L53 34L52 34L52 35L51 35L51 36L52 36L52 35L53 35L53 37L52 37L52 38L51 38L51 37L48 37L48 40L50 40L50 42L49 42L49 43L46 43L46 42L47 42L47 37L45 37L45 36L44 36L44 35L43 35L43 34L40 34L40 35L36 35L36 36L35 36L35 37L34 37L34 38L35 38L35 40L37 40L37 41L38 41L38 42L37 42L37 43L34 43L34 44L37 44L37 45L38 45L38 46L36 46L36 45L33 45L33 47L32 47L32 46L31 46L31 45L32 45L32 44L33 44L33 43L32 43L32 42L31 42L31 41L33 41L33 39L32 39L32 38L33 38L33 37L32 37L32 36L33 36L33 35L34 35L34 34L35 34L35 31L36 31L36 32L37 32L37 33L38 33L38 34L39 34L39 33L38 33L38 32L40 32L40 33L43 33L43 32L44 32L44 33L45 33L45 35L46 35L46 36L50 36L50 34L51 34L51 33L52 33L52 32L49 32L49 31L50 31L50 30L51 30L51 31L52 31L52 29L50 29L50 30L47 30L47 29L45 29L45 28L46 28L46 27L45 27L45 26L47 26L47 27L48 27L48 28L49 28L49 27L50 27L50 28L51 28L51 27L50 27L50 26L51 26L51 25L52 25L52 26L53 26L53 27L52 27L52 28L56 28L56 27L55 27L55 26L53 26L53 25L55 25L55 24L53 24L53 23L55 23L55 22L53 22L53 21L54 21L54 20L53 20L53 21L52 21L52 22L53 22L53 23L51 23L51 25L50 25L50 26L49 26L49 25L48 25L48 26L47 26L47 25L45 25L45 24L46 24L46 23L45 23L45 22L44 22L44 21L45 21L45 20L46 20L46 22L48 22L48 24L49 24L49 21L47 21L47 20L46 20L46 19L45 19L45 20L43 20L43 18L44 18L44 17L45 17L45 16L46 16L46 18L47 18L47 19L48 19L48 18L47 18L47 17L48 17L48 16L49 16L49 15L50 15L50 14L54 14L54 13L55 13L55 12L54 12L54 11L57 11L57 12L56 12L56 13L57 13L57 12L59 12L59 11L57 11L57 10L58 10L58 9L57 9L57 10L56 10L56 9L55 9L55 10L54 10L54 11L53 11L53 13L51 13L51 9L52 9L52 10L53 10L53 9L52 9L52 8L51 8L51 9L50 9L50 8L49 8L49 7L50 7L50 6L49 6L49 7L48 7L48 6ZM17 8L17 9L18 9L18 8ZM2 9L2 10L3 10L3 9ZM6 9L6 10L7 10L7 9ZM12 10L12 11L13 11L13 10ZM19 10L19 11L18 11L18 12L19 12L19 13L20 13L20 14L21 14L21 15L22 15L22 14L21 14L21 13L20 13L20 12L19 12L19 11L20 11L20 10ZM28 10L28 11L29 11L29 10ZM31 10L31 11L30 11L30 12L31 12L31 11L32 11L32 10ZM1 11L1 12L3 12L3 11ZM40 11L40 12L41 12L41 11ZM38 13L38 14L37 14L37 15L38 15L38 14L39 14L39 13ZM47 13L47 14L45 14L45 15L44 15L44 16L45 16L45 15L46 15L46 16L48 16L48 15L49 15L49 14L48 14L48 13ZM41 14L41 15L40 15L40 16L39 16L39 18L38 18L38 19L37 19L37 20L36 20L36 22L34 22L34 23L37 23L37 24L39 24L39 22L40 22L40 21L39 21L39 20L42 20L42 22L43 22L43 20L42 20L42 19L41 19L41 17L40 17L40 16L41 16L41 15L42 15L42 14ZM47 14L47 15L48 15L48 14ZM0 15L0 16L2 16L2 15ZM15 15L15 16L16 16L16 15ZM21 16L21 17L22 17L22 18L23 18L23 17L24 17L24 16L23 16L23 17L22 17L22 16ZM33 16L33 17L34 17L34 16ZM56 16L56 17L57 17L57 16ZM15 17L15 18L16 18L16 17ZM42 17L42 18L43 18L43 17ZM1 18L1 19L2 19L2 18ZM59 18L59 19L61 19L61 18ZM38 19L38 20L39 20L39 19ZM60 20L60 21L61 21L61 20ZM12 21L12 23L13 23L13 24L14 24L14 23L13 23L13 22L14 22L14 21ZM37 21L37 22L39 22L39 21ZM50 21L50 22L51 22L51 21ZM6 22L6 23L7 23L7 22ZM40 23L40 24L41 24L41 25L42 25L42 26L43 26L43 25L42 25L42 24L41 24L41 23ZM44 23L44 24L45 24L45 23ZM3 24L3 25L4 25L4 28L7 28L7 27L5 27L5 25L4 25L4 24ZM16 24L16 25L18 25L18 24ZM52 24L52 25L53 25L53 24ZM14 25L14 26L15 26L15 25ZM44 25L44 26L45 26L45 25ZM11 26L11 27L12 27L12 26ZM34 26L34 28L35 28L35 30L38 30L38 31L40 31L40 32L41 32L41 31L42 31L42 32L43 32L43 31L44 31L44 32L45 32L45 33L47 33L47 32L48 32L48 33L49 33L49 32L48 32L48 31L47 31L47 30L46 30L46 31L45 31L45 29L44 29L44 28L45 28L45 27L43 27L43 28L42 28L42 30L41 30L41 31L40 31L40 30L38 30L38 29L40 29L40 28L41 28L41 27L40 27L40 26L38 26L38 27L37 27L37 28L36 28L36 26ZM48 26L48 27L49 27L49 26ZM39 27L39 28L40 28L40 27ZM2 28L2 29L1 29L1 31L4 31L4 29L3 29L3 28ZM37 28L37 29L38 29L38 28ZM5 29L5 32L8 32L8 29ZM29 29L29 32L32 32L32 29ZM43 29L43 30L42 30L42 31L43 31L43 30L44 30L44 29ZM53 29L53 32L56 32L56 29ZM6 30L6 31L7 31L7 30ZM14 30L14 31L12 31L12 32L13 32L13 33L14 33L14 31L16 31L16 32L15 32L15 33L16 33L16 34L15 34L15 35L12 35L12 36L11 36L11 37L10 37L10 38L12 38L12 39L11 39L11 40L12 40L12 42L13 42L13 41L14 41L14 43L13 43L13 44L14 44L14 43L15 43L15 42L16 42L16 43L17 43L17 42L18 42L18 43L19 43L19 44L18 44L18 45L19 45L19 46L18 46L18 47L17 47L17 48L18 48L18 49L17 49L17 50L18 50L18 49L19 49L19 50L20 50L20 49L21 49L21 48L22 48L22 49L23 49L23 50L24 50L24 49L25 49L25 50L27 50L27 49L25 49L25 48L24 48L24 47L25 47L25 45L24 45L24 47L23 47L23 45L21 45L21 44L22 44L22 43L25 43L25 44L26 44L26 43L25 43L25 42L27 42L27 43L29 43L29 41L28 41L28 42L27 42L27 41L26 41L26 39L29 39L29 40L30 40L30 41L31 41L31 40L32 40L32 39L31 39L31 38L27 38L27 37L26 37L26 36L25 36L25 37L24 37L24 36L23 36L23 37L22 37L22 38L20 38L20 37L19 37L19 36L17 36L17 33L19 33L19 32L17 32L17 30ZM30 30L30 31L31 31L31 30ZM54 30L54 31L55 31L55 30ZM46 31L46 32L47 32L47 31ZM57 31L57 32L59 32L59 33L58 33L58 34L59 34L59 33L60 33L60 32L59 32L59 31ZM2 32L2 34L1 34L1 36L4 36L4 37L5 37L5 36L8 36L8 35L9 35L9 34L7 34L7 33L6 33L6 34L7 34L7 35L3 35L3 34L4 34L4 32ZM10 32L10 33L11 33L11 32ZM16 32L16 33L17 33L17 32ZM27 33L27 34L28 34L28 33ZM29 33L29 34L31 34L31 33ZM46 34L46 35L47 35L47 34ZM54 34L54 35L55 35L55 34ZM15 35L15 36L16 36L16 35ZM40 35L40 36L42 36L42 38L44 38L44 39L42 39L42 40L43 40L43 41L40 41L40 42L38 42L38 43L37 43L37 44L38 44L38 45L39 45L39 46L38 46L38 47L39 47L39 50L38 50L38 49L37 49L37 48L35 48L35 50L37 50L37 51L39 51L39 52L41 52L41 51L39 51L39 50L40 50L40 48L42 48L42 49L41 49L41 50L44 50L44 51L45 51L45 52L46 52L46 53L47 53L47 55L48 55L48 54L50 54L50 53L49 53L49 52L46 52L46 51L47 51L47 50L46 50L46 51L45 51L45 50L44 50L44 48L45 48L45 47L47 47L47 48L48 48L48 49L49 49L49 48L48 48L48 47L49 47L49 46L50 46L50 44L47 44L47 46L46 46L46 44L45 44L45 43L44 43L44 40L46 40L46 38L44 38L44 37L43 37L43 36L42 36L42 35ZM58 35L58 36L60 36L60 35ZM13 36L13 37L14 37L14 36ZM36 36L36 38L37 38L37 39L39 39L39 40L38 40L38 41L39 41L39 40L41 40L41 39L40 39L40 38L37 38L37 37L39 37L39 36ZM1 37L1 38L2 38L2 39L4 39L4 38L2 38L2 37ZM16 37L16 38L13 38L13 39L15 39L15 40L17 40L17 41L16 41L16 42L17 42L17 41L18 41L18 40L17 40L17 39L18 39L18 38L19 38L19 37ZM25 37L25 38L24 38L24 40L21 40L21 39L19 39L19 41L23 41L23 42L24 42L24 41L25 41L25 38L26 38L26 37ZM22 38L22 39L23 39L23 38ZM50 38L50 40L51 40L51 42L50 42L50 43L51 43L51 42L52 42L52 41L53 41L53 39L55 39L55 38L53 38L53 39L52 39L52 40L51 40L51 38ZM2 40L2 41L4 41L4 40ZM34 41L34 42L35 42L35 41ZM6 42L6 43L7 43L7 42ZM19 42L19 43L20 43L20 42ZM21 42L21 43L22 43L22 42ZM30 42L30 43L31 43L31 44L30 44L30 45L28 45L28 44L27 44L27 45L26 45L26 48L29 48L29 47L28 47L28 46L30 46L30 47L31 47L31 46L30 46L30 45L31 45L31 44L32 44L32 43L31 43L31 42ZM41 42L41 43L43 43L43 44L42 44L42 45L41 45L41 44L40 44L40 43L39 43L39 44L40 44L40 47L41 47L41 46L42 46L42 47L43 47L43 48L44 48L44 45L45 45L45 44L44 44L44 43L43 43L43 42ZM10 43L10 44L9 44L9 45L8 45L8 46L9 46L9 47L11 47L11 46L9 46L9 45L12 45L12 43ZM43 44L43 45L42 45L42 46L43 46L43 45L44 45L44 44ZM20 45L20 48L19 48L19 47L18 47L18 48L19 48L19 49L20 49L20 48L21 48L21 47L22 47L22 46L21 46L21 45ZM27 45L27 46L28 46L28 45ZM34 46L34 47L36 47L36 46ZM47 46L47 47L48 47L48 46ZM23 48L23 49L24 49L24 48ZM15 49L15 50L16 50L16 49ZM58 49L58 50L59 50L59 49ZM12 50L12 51L13 51L13 50ZM48 50L48 51L49 51L49 50ZM3 51L3 52L4 52L4 51ZM32 51L32 52L33 52L33 51ZM35 51L35 52L36 52L36 53L35 53L35 54L34 54L34 55L35 55L35 54L37 54L37 56L41 56L41 58L45 58L45 57L46 57L46 56L45 56L45 55L46 55L46 54L45 54L45 53L44 53L44 52L43 52L43 51L42 51L42 52L43 52L43 53L39 53L39 54L37 54L37 52L36 52L36 51ZM54 51L54 52L55 52L55 51ZM6 52L6 53L7 53L7 52ZM19 52L19 53L20 53L20 54L21 54L21 52ZM58 52L58 53L59 53L59 52ZM60 52L60 53L61 53L61 52ZM10 53L10 55L11 55L11 56L12 56L12 54L11 54L11 53ZM29 53L29 56L32 56L32 53ZM43 53L43 54L41 54L41 56L44 56L44 57L45 57L45 56L44 56L44 55L43 55L43 54L44 54L44 53ZM53 53L53 56L56 56L56 53ZM30 54L30 55L31 55L31 54ZM39 54L39 55L40 55L40 54ZM54 54L54 55L55 55L55 54ZM49 55L49 56L50 56L50 55ZM17 56L17 57L18 57L18 58L15 58L15 61L17 61L17 60L16 60L16 59L18 59L18 61L19 61L19 59L20 59L20 58L19 58L19 57L20 57L20 56L19 56L19 57L18 57L18 56ZM23 56L23 57L21 57L21 59L24 59L24 60L25 60L25 59L24 59L24 58L25 58L25 57L24 57L24 56ZM11 57L11 58L10 58L10 59L13 59L13 58L12 58L12 57ZM23 57L23 58L24 58L24 57ZM60 57L60 60L58 60L58 61L61 61L61 57ZM18 58L18 59L19 59L19 58ZM33 58L33 59L32 59L32 60L31 60L31 59L30 59L30 61L32 61L32 60L33 60L33 61L34 61L34 58ZM20 60L20 61L21 61L21 60ZM35 60L35 61L38 61L38 60ZM0 0L0 7L7 7L7 0ZM1 1L1 6L6 6L6 1ZM2 2L2 5L5 5L5 2ZM54 0L54 7L61 7L61 0ZM55 1L55 6L60 6L60 1ZM56 2L56 5L59 5L59 2ZM0 54L0 61L7 61L7 54ZM1 55L1 60L6 60L6 55ZM2 56L2 59L5 59L5 56Z" fill="#000000"/></g></g></svg>
