<?xml version="1.0" encoding="UTF-8"?>
<svg xmlns="http://www.w3.org/2000/svg" version="1.1" width="300" height="300" viewBox="0 0 300 300"><rect x="0" y="0" width="300" height="300" fill="#ffffff"/><g transform="scale(4.918)"><g transform="translate(0,0)"><path fill-rule="evenodd" d="M8 0L8 1L9 1L9 2L10 2L10 3L9 3L9 6L8 6L8 8L9 8L9 9L7 9L7 8L6 8L6 9L5 9L5 8L3 8L3 9L2 9L2 8L0 8L0 9L2 9L2 11L3 11L3 12L6 12L6 13L5 13L5 16L4 16L4 15L0 15L0 16L4 16L4 17L1 17L1 18L2 18L2 19L4 19L4 18L5 18L5 17L7 17L7 16L6 16L6 15L7 15L7 14L6 14L6 13L8 13L8 15L9 15L9 13L10 13L10 12L11 12L11 14L10 14L10 15L13 15L13 16L14 16L14 17L13 17L13 19L11 19L11 20L9 20L9 19L10 19L10 18L11 18L11 16L10 16L10 18L9 18L9 17L8 17L8 18L6 18L6 19L7 19L7 20L1 20L1 22L0 22L0 24L1 24L1 26L0 26L0 27L1 27L1 28L2 28L2 25L4 25L4 26L3 26L3 27L4 27L4 26L6 26L6 27L5 27L5 28L4 28L4 30L3 30L3 31L2 31L2 29L0 29L0 30L1 30L1 31L2 31L2 33L1 33L1 34L0 34L0 36L1 36L1 37L0 37L0 38L1 38L1 39L2 39L2 38L1 38L1 37L3 37L3 39L4 39L4 38L5 38L5 37L7 37L7 38L6 38L6 39L5 39L5 41L7 41L7 42L5 42L5 43L2 43L2 42L3 42L3 41L4 41L4 40L1 40L1 41L0 41L0 44L4 44L4 46L3 46L3 45L2 45L2 46L1 46L1 45L0 45L0 46L1 46L1 49L2 49L2 48L3 48L3 49L4 49L4 50L2 50L2 51L0 51L0 53L4 53L4 52L5 52L5 51L8 51L8 49L9 49L9 51L10 51L10 48L11 48L11 49L12 49L12 50L11 50L11 53L12 53L12 54L10 54L10 52L9 52L9 53L8 53L8 54L10 54L10 55L13 55L13 54L14 54L14 53L12 53L12 50L13 50L13 52L14 52L14 49L15 49L15 48L16 48L16 49L17 49L17 50L16 50L16 52L15 52L15 53L16 53L16 55L14 55L14 58L13 58L13 61L14 61L14 60L15 60L15 61L16 61L16 60L17 60L17 61L19 61L19 60L18 60L18 59L21 59L21 60L22 60L22 61L24 61L24 58L25 58L25 61L29 61L29 60L26 60L26 59L28 59L28 58L26 58L26 57L24 57L24 55L23 55L23 54L22 54L22 52L21 52L21 54L22 54L22 55L21 55L21 56L22 56L22 57L24 57L24 58L23 58L23 59L21 59L21 57L20 57L20 58L19 58L19 57L18 57L18 56L17 56L17 57L16 57L16 55L17 55L17 54L18 54L18 53L19 53L19 52L20 52L20 50L21 50L21 51L24 51L24 52L25 52L25 53L24 53L24 54L25 54L25 55L26 55L26 56L27 56L27 57L29 57L29 59L30 59L30 61L31 61L31 60L32 60L32 61L34 61L34 60L36 60L36 61L37 61L37 60L36 60L36 59L37 59L37 58L39 58L39 59L38 59L38 61L42 61L42 60L43 60L43 61L45 61L45 60L46 60L46 61L47 61L47 60L48 60L48 61L49 61L49 60L48 60L48 59L49 59L49 57L50 57L50 58L51 58L51 57L53 57L53 59L51 59L51 60L50 60L50 61L52 61L52 60L53 60L53 61L54 61L54 60L55 60L55 61L58 61L58 60L60 60L60 61L61 61L61 54L60 54L60 53L61 53L61 50L60 50L60 49L61 49L61 46L60 46L60 48L59 48L59 47L58 47L58 46L59 46L59 45L58 45L58 43L59 43L59 44L60 44L60 45L61 45L61 42L59 42L59 41L60 41L60 40L61 40L61 38L59 38L59 39L58 39L58 38L57 38L57 37L56 37L56 38L55 38L55 37L54 37L54 36L53 36L53 38L52 38L52 39L51 39L51 37L52 37L52 34L53 34L53 35L55 35L55 34L57 34L57 36L59 36L59 37L61 37L61 36L60 36L60 35L61 35L61 34L60 34L60 35L59 35L59 33L58 33L58 34L57 34L57 32L58 32L58 31L59 31L59 32L60 32L60 31L61 31L61 30L60 30L60 29L61 29L61 26L60 26L60 25L57 25L57 24L59 24L59 21L58 21L58 20L57 20L57 21L56 21L56 22L55 22L55 20L56 20L56 18L57 18L57 19L58 19L58 18L60 18L60 19L59 19L59 20L60 20L60 21L61 21L61 18L60 18L60 17L61 17L61 14L60 14L60 12L59 12L59 11L61 11L61 10L58 10L58 9L57 9L57 10L56 10L56 13L55 13L55 11L54 11L54 14L57 14L57 16L56 16L56 17L54 17L54 16L55 16L55 15L54 15L54 16L53 16L53 14L52 14L52 12L53 12L53 10L55 10L55 8L54 8L54 9L52 9L52 8L53 8L53 6L52 6L52 8L47 8L47 6L46 6L46 7L45 7L45 6L44 6L44 7L45 7L45 10L44 10L44 12L43 12L43 13L42 13L42 11L41 11L41 12L40 12L40 10L39 10L39 9L41 9L41 10L43 10L43 9L44 9L44 8L43 8L43 9L41 9L41 6L42 6L42 7L43 7L43 2L44 2L44 4L45 4L45 5L46 5L46 3L47 3L47 2L49 2L49 3L48 3L48 4L47 4L47 5L48 5L48 7L49 7L49 6L50 6L50 7L51 7L51 5L52 5L52 4L53 4L53 0L51 0L51 2L50 2L50 1L47 1L47 0L45 0L45 1L46 1L46 2L44 2L44 0L40 0L40 1L43 1L43 2L42 2L42 5L41 5L41 3L40 3L40 2L39 2L39 4L38 4L38 5L36 5L36 4L37 4L37 3L36 3L36 4L35 4L35 2L37 2L37 1L39 1L39 0L34 0L34 2L33 2L33 1L32 1L32 0L28 0L28 2L27 2L27 3L25 3L25 4L23 4L23 3L24 3L24 2L26 2L26 0L19 0L19 1L18 1L18 2L19 2L19 3L17 3L17 4L19 4L19 5L17 5L17 6L16 6L16 7L17 7L17 8L18 8L18 9L16 9L16 8L15 8L15 9L16 9L16 10L14 10L14 9L13 9L13 8L14 8L14 7L15 7L15 6L14 6L14 7L13 7L13 6L12 6L12 5L11 5L11 3L12 3L12 1L13 1L13 2L15 2L15 0L10 0L10 1L9 1L9 0ZM16 1L16 2L17 2L17 1ZM20 1L20 4L21 4L21 1ZM31 1L31 2L32 2L32 3L33 3L33 2L32 2L32 1ZM22 2L22 3L23 3L23 2ZM13 3L13 5L14 5L14 4L15 4L15 3ZM27 3L27 4L25 4L25 7L24 7L24 6L23 6L23 5L22 5L22 6L21 6L21 5L20 5L20 6L19 6L19 7L20 7L20 10L19 10L19 11L17 11L17 10L16 10L16 16L15 16L15 17L14 17L14 18L15 18L15 19L13 19L13 20L14 20L14 23L15 23L15 24L13 24L13 23L11 23L11 22L12 22L12 20L11 20L11 22L10 22L10 21L9 21L9 20L7 20L7 21L6 21L6 22L4 22L4 23L3 23L3 21L2 21L2 23L1 23L1 24L2 24L2 23L3 23L3 24L4 24L4 23L5 23L5 25L6 25L6 26L8 26L8 25L9 25L9 24L10 24L10 25L11 25L11 27L14 27L14 28L13 28L13 29L15 29L15 27L16 27L16 28L17 28L17 29L18 29L18 30L19 30L19 31L17 31L17 30L16 30L16 31L15 31L15 30L14 30L14 31L12 31L12 30L11 30L11 28L10 28L10 26L9 26L9 31L10 31L10 30L11 30L11 32L10 32L10 33L4 33L4 32L3 32L3 34L5 34L5 35L6 35L6 36L9 36L9 35L6 35L6 34L10 34L10 33L11 33L11 32L13 32L13 33L12 33L12 34L13 34L13 36L15 36L15 37L13 37L13 38L11 38L11 37L12 37L12 35L11 35L11 37L10 37L10 38L9 38L9 40L8 40L8 42L7 42L7 43L5 43L5 44L7 44L7 43L8 43L8 42L9 42L9 43L10 43L10 42L11 42L11 41L9 41L9 40L12 40L12 42L13 42L13 44L12 44L12 43L11 43L11 44L10 44L10 45L8 45L8 46L10 46L10 47L11 47L11 48L12 48L12 49L13 49L13 48L15 48L15 47L13 47L13 46L12 46L12 45L14 45L14 46L16 46L16 48L17 48L17 47L18 47L18 48L19 48L19 47L18 47L18 46L19 46L19 45L21 45L21 47L20 47L20 49L18 49L18 50L20 50L20 49L21 49L21 50L24 50L24 51L25 51L25 52L26 52L26 51L25 51L25 50L27 50L27 49L28 49L28 48L29 48L29 50L28 50L28 51L27 51L27 53L28 53L28 51L29 51L29 50L31 50L31 51L32 51L32 48L33 48L33 49L34 49L34 50L33 50L33 51L35 51L35 49L36 49L36 48L38 48L38 49L37 49L37 51L36 51L36 52L40 52L40 53L41 53L41 54L42 54L42 53L43 53L43 52L44 52L44 50L45 50L45 52L46 52L46 51L48 51L48 52L47 52L47 54L48 54L48 52L49 52L49 53L50 53L50 55L48 55L48 56L50 56L50 57L51 57L51 56L50 56L50 55L51 55L51 54L52 54L52 53L50 53L50 52L49 52L49 51L48 51L48 50L50 50L50 49L46 49L46 48L45 48L45 49L44 49L44 45L45 45L45 47L46 47L46 45L47 45L47 48L49 48L49 47L50 47L50 48L51 48L51 46L48 46L48 45L47 45L47 44L49 44L49 45L50 45L50 43L51 43L51 41L50 41L50 43L47 43L47 42L49 42L49 41L48 41L48 40L51 40L51 39L50 39L50 37L51 37L51 34L49 34L49 33L48 33L48 32L49 32L49 31L48 31L48 32L47 32L47 30L48 30L48 28L49 28L49 27L47 27L47 26L48 26L48 24L49 24L49 26L50 26L50 25L51 25L51 26L52 26L52 27L51 27L51 28L54 28L54 27L56 27L56 28L57 28L57 26L56 26L56 24L54 24L54 23L55 23L55 22L53 22L53 24L52 24L52 23L51 23L51 22L52 22L52 21L53 21L53 20L54 20L54 19L55 19L55 18L54 18L54 17L53 17L53 18L51 18L51 17L50 17L50 16L51 16L51 15L52 15L52 14L51 14L51 15L50 15L50 16L49 16L49 14L50 14L50 13L51 13L51 12L52 12L52 9L51 9L51 12L50 12L50 13L49 13L49 14L47 14L47 13L48 13L48 12L49 12L49 10L48 10L48 11L47 11L47 12L46 12L46 11L45 11L45 12L46 12L46 13L45 13L45 14L44 14L44 16L42 16L42 15L43 15L43 14L42 14L42 13L40 13L40 14L39 14L39 15L40 15L40 17L36 17L36 16L38 16L38 15L37 15L37 14L38 14L38 13L39 13L39 12L38 12L38 13L36 13L36 12L37 12L37 11L39 11L39 10L38 10L38 9L39 9L39 8L40 8L40 5L39 5L39 7L38 7L38 6L37 6L37 7L36 7L36 5L35 5L35 4L33 4L33 7L34 7L34 6L35 6L35 8L33 8L33 9L29 9L29 10L30 10L30 11L31 11L31 12L30 12L30 13L29 13L29 12L27 12L27 13L26 13L26 12L24 12L24 13L26 13L26 14L27 14L27 13L28 13L28 15L31 15L31 16L27 16L27 17L29 17L29 18L28 18L28 19L27 19L27 18L26 18L26 17L25 17L25 16L24 16L24 15L25 15L25 14L22 14L22 12L23 12L23 9L25 9L25 10L24 10L24 11L25 11L25 10L26 10L26 11L27 11L27 10L28 10L28 4L31 4L31 3ZM51 3L51 4L52 4L52 3ZM48 4L48 5L49 5L49 4ZM10 5L10 6L9 6L9 8L10 8L10 11L9 11L9 10L7 10L7 9L6 9L6 10L5 10L5 9L3 9L3 10L5 10L5 11L6 11L6 12L7 12L7 11L8 11L8 13L9 13L9 12L10 12L10 11L12 11L12 10L13 10L13 9L12 9L12 6L11 6L11 5ZM29 5L29 8L32 8L32 5ZM10 6L10 7L11 7L11 6ZM17 6L17 7L18 7L18 6ZM20 6L20 7L21 7L21 6ZM22 6L22 7L23 7L23 8L22 8L22 9L23 9L23 8L24 8L24 7L23 7L23 6ZM26 6L26 8L27 8L27 6ZM30 6L30 7L31 7L31 6ZM35 8L35 9L33 9L33 10L32 10L32 12L31 12L31 13L30 13L30 14L31 14L31 15L32 15L32 14L31 14L31 13L32 13L32 12L33 12L33 14L34 14L34 12L36 12L36 11L35 11L35 9L38 9L38 8ZM46 8L46 9L47 9L47 8ZM60 8L60 9L61 9L61 8ZM11 9L11 10L12 10L12 9ZM6 10L6 11L7 11L7 10ZM21 10L21 11L19 11L19 12L18 12L18 13L17 13L17 14L18 14L18 13L19 13L19 12L21 12L21 11L22 11L22 10ZM0 11L0 13L2 13L2 12L1 12L1 11ZM13 11L13 12L12 12L12 13L14 13L14 15L15 15L15 13L14 13L14 12L15 12L15 11ZM33 11L33 12L34 12L34 11ZM58 12L58 13L57 13L57 14L58 14L58 15L59 15L59 14L58 14L58 13L59 13L59 12ZM20 13L20 14L21 14L21 13ZM35 14L35 15L33 15L33 16L32 16L32 19L31 19L31 17L30 17L30 19L29 19L29 21L30 21L30 22L31 22L31 23L30 23L30 24L29 24L29 22L27 22L27 24L26 24L26 25L24 25L24 24L25 24L25 23L26 23L26 22L25 22L25 21L24 21L24 22L21 22L21 20L22 20L22 21L23 21L23 20L24 20L24 19L25 19L25 20L26 20L26 19L25 19L25 17L24 17L24 19L21 19L21 18L20 18L20 20L17 20L17 21L16 21L16 20L15 20L15 21L16 21L16 22L15 22L15 23L17 23L17 24L18 24L18 23L17 23L17 21L19 21L19 23L20 23L20 22L21 22L21 24L20 24L20 25L18 25L18 27L17 27L17 26L16 26L16 27L17 27L17 28L18 28L18 29L19 29L19 30L20 30L20 29L19 29L19 28L18 28L18 27L19 27L19 26L21 26L21 24L22 24L22 26L23 26L23 25L24 25L24 27L22 27L22 28L23 28L23 30L21 30L21 32L14 32L14 33L13 33L13 34L14 34L14 35L15 35L15 36L16 36L16 35L18 35L18 37L17 37L17 38L18 38L18 39L16 39L16 38L14 38L14 39L12 39L12 40L13 40L13 42L14 42L14 41L15 41L15 43L16 43L16 42L17 42L17 41L18 41L18 43L17 43L17 44L18 44L18 45L19 45L19 43L20 43L20 42L21 42L21 44L22 44L22 45L23 45L23 44L22 44L22 42L21 42L21 39L23 39L23 37L24 37L24 38L25 38L25 39L24 39L24 40L23 40L23 43L24 43L24 44L26 44L26 43L29 43L29 44L27 44L27 46L26 46L26 48L25 48L25 47L24 47L24 46L25 46L25 45L24 45L24 46L22 46L22 47L23 47L23 49L24 49L24 50L25 50L25 49L27 49L27 48L28 48L28 45L29 45L29 44L30 44L30 45L32 45L32 46L33 46L33 47L34 47L34 49L35 49L35 46L36 46L36 45L37 45L37 46L39 46L39 47L40 47L40 45L42 45L42 46L43 46L43 45L44 45L44 44L43 44L43 43L42 43L42 42L44 42L44 43L46 43L46 42L47 42L47 41L46 41L46 40L48 40L48 39L49 39L49 38L48 38L48 39L46 39L46 38L44 38L44 37L47 37L47 36L48 36L48 37L50 37L50 36L48 36L48 34L47 34L47 33L46 33L46 32L45 32L45 34L46 34L46 35L45 35L45 36L44 36L44 37L41 37L41 36L43 36L43 35L44 35L44 34L43 34L43 33L44 33L44 31L46 31L46 30L47 30L47 28L44 28L44 25L45 25L45 26L46 26L46 25L47 25L47 24L48 24L48 22L49 22L49 20L50 20L50 22L51 22L51 20L53 20L53 19L54 19L54 18L53 18L53 19L51 19L51 20L50 20L50 18L49 18L49 16L48 16L48 15L47 15L47 17L46 17L46 15L45 15L45 16L44 16L44 18L43 18L43 17L42 17L42 16L41 16L41 17L42 17L42 18L41 18L41 19L40 19L40 18L39 18L39 19L38 19L38 18L37 18L37 19L38 19L38 22L36 22L36 21L37 21L37 20L36 20L36 19L33 19L33 18L35 18L35 17L33 17L33 16L35 16L35 15L36 15L36 14ZM40 14L40 15L41 15L41 14ZM20 15L20 16L21 16L21 15ZM17 16L17 17L16 17L16 19L19 19L19 18L18 18L18 17L19 17L19 16ZM22 16L22 18L23 18L23 16ZM45 17L45 18L46 18L46 19L44 19L44 21L45 21L45 22L43 22L43 23L42 23L42 24L41 24L41 23L40 23L40 21L39 21L39 22L38 22L38 23L36 23L36 22L35 22L35 23L34 23L34 24L32 24L32 23L31 23L31 24L30 24L30 25L29 25L29 26L28 26L28 27L31 27L31 28L33 28L33 30L34 30L34 31L33 31L33 32L35 32L35 31L37 31L37 32L38 32L38 33L37 33L37 35L36 35L36 34L35 34L35 35L33 35L33 34L32 34L32 33L30 33L30 34L31 34L31 35L28 35L28 37L29 37L29 39L31 39L31 38L32 38L32 37L30 37L30 36L33 36L33 37L34 37L34 38L33 38L33 40L34 40L34 39L35 39L35 41L36 41L36 42L37 42L37 41L38 41L38 43L35 43L35 42L34 42L34 41L32 41L32 40L31 40L31 41L30 41L30 40L27 40L27 42L29 42L29 43L30 43L30 42L33 42L33 43L35 43L35 44L38 44L38 45L39 45L39 44L38 44L38 43L39 43L39 41L41 41L41 42L42 42L42 41L43 41L43 40L42 40L42 38L41 38L41 39L40 39L40 40L39 40L39 39L38 39L38 38L36 38L36 37L34 37L34 36L38 36L38 35L39 35L39 36L41 36L41 33L42 33L42 32L41 32L41 33L39 33L39 31L40 31L40 29L41 29L41 28L42 28L42 29L43 29L43 30L41 30L41 31L43 31L43 30L46 30L46 29L44 29L44 28L42 28L42 27L43 27L43 26L42 26L42 25L43 25L43 24L44 24L44 23L45 23L45 25L46 25L46 23L45 23L45 22L46 22L46 21L47 21L47 20L49 20L49 18L48 18L48 19L47 19L47 18L46 18L46 17ZM57 17L57 18L58 18L58 17ZM8 18L8 19L9 19L9 18ZM42 18L42 19L43 19L43 18ZM39 19L39 20L40 20L40 19ZM30 20L30 21L31 21L31 22L33 22L33 21L32 21L32 20ZM35 20L35 21L36 21L36 20ZM41 20L41 21L43 21L43 20ZM45 20L45 21L46 21L46 20ZM7 21L7 22L6 22L6 23L7 23L7 24L6 24L6 25L8 25L8 24L9 24L9 23L10 23L10 24L11 24L11 25L13 25L13 26L14 26L14 27L15 27L15 26L14 26L14 25L13 25L13 24L11 24L11 23L10 23L10 22L9 22L9 21ZM57 21L57 22L58 22L58 21ZM7 22L7 23L9 23L9 22ZM24 22L24 23L25 23L25 22ZM60 22L60 23L61 23L61 22ZM35 23L35 24L34 24L34 25L35 25L35 27L38 27L38 28L36 28L36 29L34 29L34 30L36 30L36 29L37 29L37 30L38 30L38 29L40 29L40 27L41 27L41 24L39 24L39 25L38 25L38 24L36 24L36 23ZM49 23L49 24L51 24L51 23ZM15 24L15 25L16 25L16 24ZM27 24L27 25L26 25L26 26L25 26L25 27L24 27L24 29L25 29L25 31L24 31L24 33L25 33L25 34L24 34L24 35L26 35L26 34L27 34L27 33L28 33L28 34L29 34L29 33L28 33L28 28L27 28L27 32L26 32L26 33L25 33L25 31L26 31L26 29L25 29L25 27L26 27L26 26L27 26L27 25L28 25L28 24ZM35 24L35 25L36 25L36 24ZM53 24L53 26L55 26L55 25L54 25L54 24ZM30 25L30 26L31 26L31 27L32 27L32 26L31 26L31 25ZM37 25L37 26L38 26L38 25ZM39 25L39 26L40 26L40 25ZM33 26L33 28L34 28L34 26ZM58 26L58 27L59 27L59 26ZM6 27L6 28L8 28L8 27ZM20 27L20 28L21 28L21 27ZM5 29L5 32L8 32L8 29ZM29 29L29 32L32 32L32 29ZM50 29L50 31L51 31L51 33L52 33L52 30L51 30L51 29ZM53 29L53 32L56 32L56 29ZM6 30L6 31L7 31L7 30ZM30 30L30 31L31 31L31 30ZM54 30L54 31L55 31L55 30ZM57 30L57 31L58 31L58 30ZM59 30L59 31L60 31L60 30ZM22 31L22 32L23 32L23 31ZM16 33L16 34L18 34L18 35L20 35L20 34L19 34L19 33ZM38 33L38 34L39 34L39 35L40 35L40 34L39 34L39 33ZM53 33L53 34L55 34L55 33ZM21 34L21 35L22 35L22 34ZM42 34L42 35L43 35L43 34ZM1 35L1 36L3 36L3 37L4 37L4 36L3 36L3 35ZM46 35L46 36L47 36L47 35ZM24 36L24 37L26 37L26 39L27 39L27 37L26 37L26 36ZM18 37L18 38L20 38L20 37ZM21 37L21 38L22 38L22 37ZM39 37L39 38L40 38L40 37ZM43 38L43 39L44 39L44 40L45 40L45 39L44 39L44 38ZM6 39L6 40L7 40L7 39ZM14 39L14 40L15 40L15 41L16 41L16 39ZM19 39L19 41L20 41L20 39ZM37 39L37 40L36 40L36 41L37 41L37 40L38 40L38 41L39 41L39 40L38 40L38 39ZM53 39L53 40L52 40L52 44L53 44L53 45L54 45L54 44L55 44L55 43L56 43L56 44L57 44L57 43L58 43L58 41L57 41L57 39ZM24 40L24 41L25 41L25 42L24 42L24 43L25 43L25 42L26 42L26 41L25 41L25 40ZM41 40L41 41L42 41L42 40ZM53 40L53 42L54 42L54 43L55 43L55 42L56 42L56 43L57 43L57 42L56 42L56 40ZM1 41L1 42L2 42L2 41ZM29 41L29 42L30 42L30 41ZM44 41L44 42L45 42L45 41ZM54 41L54 42L55 42L55 41ZM31 43L31 44L32 44L32 43ZM41 43L41 44L42 44L42 43ZM15 44L15 45L16 45L16 46L17 46L17 45L16 45L16 44ZM45 44L45 45L46 45L46 44ZM5 45L5 46L4 46L4 47L3 47L3 46L2 46L2 47L3 47L3 48L4 48L4 49L5 49L5 50L7 50L7 49L8 49L8 48L9 48L9 47L8 47L8 48L7 48L7 47L6 47L6 46L7 46L7 45ZM10 45L10 46L11 46L11 45ZM33 45L33 46L34 46L34 45ZM29 46L29 48L30 48L30 49L31 49L31 48L30 48L30 46ZM53 46L53 47L52 47L52 48L54 48L54 49L52 49L52 50L53 50L53 51L52 51L52 52L55 52L55 51L54 51L54 50L55 50L55 48L56 48L56 49L57 49L57 48L58 48L58 49L59 49L59 48L58 48L58 47L57 47L57 46L56 46L56 47L54 47L54 46ZM5 47L5 48L6 48L6 49L7 49L7 48L6 48L6 47ZM41 47L41 48L39 48L39 49L38 49L38 51L39 51L39 49L41 49L41 50L40 50L40 51L41 51L41 53L42 53L42 52L43 52L43 51L41 51L41 50L43 50L43 47ZM24 48L24 49L25 49L25 48ZM41 48L41 49L42 49L42 48ZM45 49L45 50L46 50L46 49ZM56 50L56 52L58 52L58 50ZM3 51L3 52L4 52L4 51ZM17 51L17 53L18 53L18 52L19 52L19 51ZM59 51L59 53L60 53L60 51ZM6 52L6 53L7 53L7 52ZM34 52L34 53L35 53L35 52ZM25 53L25 54L26 54L26 55L27 55L27 56L28 56L28 54L26 54L26 53ZM29 53L29 56L32 56L32 53ZM37 53L37 55L36 55L36 56L37 56L37 57L40 57L40 58L41 58L41 57L40 57L40 55L39 55L39 53ZM53 53L53 56L56 56L56 53ZM19 54L19 56L20 56L20 54ZM30 54L30 55L31 55L31 54ZM34 54L34 55L33 55L33 56L34 56L34 57L31 57L31 58L30 58L30 59L32 59L32 58L34 58L34 57L35 57L35 58L36 58L36 57L35 57L35 56L34 56L34 55L35 55L35 54ZM54 54L54 55L55 55L55 54ZM57 54L57 55L58 55L58 56L57 56L57 57L56 57L56 58L55 58L55 60L56 60L56 58L57 58L57 57L58 57L58 59L59 59L59 58L60 58L60 57L59 57L59 56L60 56L60 54L59 54L59 55L58 55L58 54ZM22 55L22 56L23 56L23 55ZM37 55L37 56L38 56L38 55ZM41 55L41 56L43 56L43 57L44 57L44 58L42 58L42 59L44 59L44 58L45 58L45 57L46 57L46 55L44 55L44 56L43 56L43 55ZM8 56L8 58L9 58L9 57L10 57L10 59L8 59L8 61L12 61L12 59L11 59L11 58L12 58L12 57L13 57L13 56ZM15 57L15 58L14 58L14 59L15 59L15 60L16 60L16 59L15 59L15 58L16 58L16 57ZM17 57L17 58L18 58L18 57ZM47 58L47 59L48 59L48 58ZM33 59L33 60L34 60L34 59ZM40 59L40 60L41 60L41 59ZM0 0L0 7L7 7L7 0ZM1 1L1 6L6 6L6 1ZM2 2L2 5L5 5L5 2ZM54 0L54 7L61 7L61 0ZM55 1L55 6L60 6L60 1ZM56 2L56 5L59 5L59 2ZM0 54L0 61L7 61L7 54ZM1 55L1 60L6 60L6 55ZM2 56L2 59L5 59L5 56Z" fill="#000000"/></g></g></svg>
