<?xml version="1.0" encoding="UTF-8"?>
<svg xmlns="http://www.w3.org/2000/svg" version="1.1" width="300" height="300" viewBox="0 0 300 300"><rect x="0" y="0" width="300" height="300" fill="#ffffff"/><g transform="scale(4.615)"><g transform="translate(0,0)"><path fill-rule="evenodd" d="M9 0L9 1L8 1L8 2L10 2L10 3L8 3L8 4L10 4L10 3L11 3L11 4L12 4L12 1L13 1L13 2L15 2L15 1L16 1L16 4L14 4L14 5L12 5L12 7L13 7L13 6L14 6L14 8L11 8L11 6L10 6L10 5L8 5L8 7L9 7L9 8L6 8L6 9L5 9L5 8L0 8L0 10L1 10L1 11L2 11L2 10L3 10L3 12L4 12L4 14L0 14L0 15L1 15L1 17L0 17L0 18L1 18L1 17L2 17L2 18L3 18L3 17L4 17L4 18L5 18L5 19L4 19L4 20L3 20L3 19L0 19L0 20L1 20L1 21L2 21L2 22L0 22L0 24L1 24L1 25L0 25L0 26L1 26L1 27L0 27L0 32L2 32L2 33L1 33L1 35L0 35L0 36L4 36L4 38L1 38L1 40L0 40L0 45L1 45L1 46L0 46L0 47L1 47L1 48L0 48L0 49L1 49L1 50L2 50L2 51L1 51L1 52L0 52L0 53L1 53L1 52L2 52L2 53L3 53L3 54L2 54L2 55L3 55L3 56L1 56L1 55L0 55L0 56L1 56L1 57L3 57L3 56L4 56L4 57L5 57L5 56L4 56L4 53L5 53L5 55L7 55L7 54L6 54L6 53L7 53L7 52L6 52L6 53L5 53L5 51L7 51L7 50L8 50L8 51L9 51L9 50L11 50L11 47L12 47L12 48L13 48L13 49L12 49L12 50L13 50L13 51L12 51L12 53L11 53L11 51L10 51L10 53L8 53L8 54L10 54L10 56L9 56L9 57L8 57L8 56L6 56L6 57L8 57L8 59L9 59L9 58L10 58L10 56L11 56L11 54L12 54L12 53L13 53L13 52L14 52L14 50L15 50L15 52L16 52L16 53L18 53L18 55L19 55L19 54L20 54L20 55L21 55L21 54L22 54L22 56L24 56L24 55L25 55L25 56L26 56L26 55L27 55L27 57L26 57L26 58L25 58L25 57L24 57L24 58L25 58L25 59L24 59L24 60L23 60L23 59L22 59L22 58L23 58L23 57L21 57L21 56L20 56L20 57L19 57L19 56L18 56L18 57L17 57L17 56L15 56L15 57L14 57L14 58L11 58L11 59L10 59L10 60L8 60L8 65L11 65L11 64L14 64L14 62L13 62L13 63L12 63L12 62L11 62L11 61L13 61L13 59L15 59L15 60L17 60L17 61L20 61L20 60L21 60L21 62L22 62L22 63L21 63L21 64L20 64L20 65L22 65L22 63L24 63L24 64L25 64L25 61L26 61L26 64L28 64L28 65L34 65L34 64L35 64L35 63L36 63L36 65L38 65L38 64L41 64L41 65L43 65L43 64L41 64L41 63L40 63L40 62L38 62L38 60L39 60L39 61L40 61L40 60L41 60L41 61L42 61L42 62L43 62L43 61L44 61L44 64L45 64L45 61L44 61L44 60L45 60L45 59L48 59L48 58L44 58L44 56L45 56L45 55L44 55L44 51L42 51L42 52L41 52L41 51L40 51L40 52L39 52L39 50L43 50L43 49L44 49L44 50L46 50L46 51L45 51L45 54L46 54L46 55L47 55L47 57L49 57L49 58L50 58L50 60L47 60L47 62L46 62L46 63L47 63L47 64L46 64L46 65L47 65L47 64L48 64L48 65L49 65L49 64L48 64L48 63L49 63L49 62L50 62L50 63L51 63L51 64L53 64L53 63L54 63L54 65L56 65L56 64L55 64L55 63L56 63L56 62L59 62L59 64L57 64L57 65L59 65L59 64L60 64L60 65L63 65L63 64L64 64L64 60L65 60L65 59L64 59L64 60L61 60L61 56L62 56L62 57L63 57L63 58L62 58L62 59L63 59L63 58L65 58L65 57L64 57L64 56L65 56L65 55L64 55L64 54L65 54L65 53L64 53L64 54L63 54L63 52L64 52L64 50L65 50L65 49L64 49L64 48L61 48L61 45L60 45L60 44L61 44L61 42L62 42L62 41L63 41L63 42L65 42L65 39L63 39L63 40L62 40L62 38L61 38L61 37L60 37L60 36L62 36L62 37L64 37L64 38L65 38L65 37L64 37L64 36L65 36L65 35L64 35L64 34L65 34L65 33L64 33L64 34L62 34L62 35L61 35L61 33L63 33L63 32L65 32L65 31L63 31L63 30L62 30L62 31L63 31L63 32L61 32L61 28L62 28L62 29L63 29L63 28L64 28L64 30L65 30L65 27L63 27L63 28L62 28L62 26L65 26L65 23L64 23L64 22L65 22L65 19L64 19L64 18L65 18L65 15L64 15L64 14L65 14L65 13L63 13L63 12L62 12L62 11L63 11L63 10L65 10L65 9L64 9L64 8L63 8L63 10L62 10L62 11L61 11L61 10L60 10L60 11L61 11L61 12L60 12L60 14L56 14L56 13L59 13L59 12L56 12L56 8L57 8L57 11L59 11L59 10L58 10L58 8L57 8L57 6L56 6L56 7L55 7L55 5L54 5L54 4L56 4L56 5L57 5L57 4L56 4L56 3L57 3L57 1L56 1L56 0L55 0L55 1L56 1L56 3L55 3L55 2L54 2L54 0L51 0L51 1L49 1L49 0L47 0L47 1L46 1L46 0L44 0L44 1L46 1L46 2L47 2L47 1L48 1L48 2L51 2L51 3L50 3L50 4L49 4L49 3L48 3L48 5L45 5L45 4L44 4L44 3L45 3L45 2L42 2L42 1L43 1L43 0L39 0L39 1L38 1L38 0L35 0L35 1L36 1L36 2L35 2L35 4L34 4L34 2L33 2L33 4L31 4L31 3L32 3L32 2L30 2L30 3L27 3L27 4L30 4L30 5L29 5L29 6L28 6L28 5L27 5L27 6L26 6L26 8L25 8L25 9L22 9L22 10L21 10L21 11L19 11L19 10L20 10L20 9L21 9L21 8L20 8L20 9L19 9L19 6L18 6L18 7L17 7L17 6L16 6L16 7L15 7L15 6L14 6L14 5L20 5L20 7L21 7L21 6L22 6L22 7L23 7L23 6L22 6L22 5L20 5L20 4L22 4L22 3L20 3L20 0L19 0L19 1L18 1L18 0L11 0L11 1L10 1L10 0ZM22 0L22 1L21 1L21 2L22 2L22 1L23 1L23 0ZM24 0L24 1L25 1L25 0ZM26 0L26 1L27 1L27 0ZM30 0L30 1L31 1L31 0ZM32 0L32 1L34 1L34 0ZM17 1L17 2L18 2L18 1ZM39 1L39 2L36 2L36 3L37 3L37 4L36 4L36 6L35 6L35 9L32 9L32 10L30 10L30 8L29 8L29 9L28 9L28 10L29 10L29 11L31 11L31 12L28 12L28 13L27 13L27 11L26 11L26 9L27 9L27 8L28 8L28 6L27 6L27 8L26 8L26 9L25 9L25 10L22 10L22 11L24 11L24 12L19 12L19 13L18 13L18 14L17 14L17 15L14 15L14 16L13 16L13 17L14 17L14 16L15 16L15 17L16 17L16 21L12 21L12 19L10 19L10 17L11 17L11 18L12 18L12 17L11 17L11 16L10 16L10 17L8 17L8 16L9 16L9 15L10 15L10 14L9 14L9 13L6 13L6 14L7 14L7 15L6 15L6 16L5 16L5 15L3 15L3 16L2 16L2 17L3 17L3 16L4 16L4 17L5 17L5 18L7 18L7 17L8 17L8 18L9 18L9 20L8 20L8 22L7 22L7 21L6 21L6 20L7 20L7 19L5 19L5 20L4 20L4 21L3 21L3 20L2 20L2 21L3 21L3 22L2 22L2 23L3 23L3 24L9 24L9 23L8 23L8 22L10 22L10 21L11 21L11 22L13 22L13 24L12 24L12 25L13 25L13 26L14 26L14 28L13 28L13 29L12 29L12 30L11 30L11 29L10 29L10 28L12 28L12 26L11 26L11 27L10 27L10 26L9 26L9 25L8 25L8 26L7 26L7 25L6 25L6 26L4 26L4 25L3 25L3 26L2 26L2 27L1 27L1 28L2 28L2 30L4 30L4 29L3 29L3 27L5 27L5 28L7 28L7 27L8 27L8 28L9 28L9 29L5 29L5 30L9 30L9 31L10 31L10 32L9 32L9 35L8 35L8 38L7 38L7 37L5 37L5 38L7 38L7 39L5 39L5 40L7 40L7 39L8 39L8 40L9 40L9 41L5 41L5 44L3 44L3 43L4 43L4 42L3 42L3 43L2 43L2 42L1 42L1 45L2 45L2 46L1 46L1 47L2 47L2 50L3 50L3 51L2 51L2 52L3 52L3 53L4 53L4 52L3 52L3 51L5 51L5 50L7 50L7 49L6 49L6 48L7 48L7 47L6 47L6 46L7 46L7 45L5 45L5 44L7 44L7 43L6 43L6 42L9 42L9 43L10 43L10 42L9 42L9 41L10 41L10 40L9 40L9 39L10 39L10 38L11 38L11 39L12 39L12 38L11 38L11 36L13 36L13 39L14 39L14 38L15 38L15 36L13 36L13 34L14 34L14 35L16 35L16 36L17 36L17 37L16 37L16 39L15 39L15 40L14 40L14 41L15 41L15 42L14 42L14 44L12 44L12 43L13 43L13 42L12 42L12 41L13 41L13 40L12 40L12 41L11 41L11 45L12 45L12 46L13 46L13 45L14 45L14 47L13 47L13 48L14 48L14 47L15 47L15 48L16 48L16 47L15 47L15 46L16 46L16 45L17 45L17 46L19 46L19 47L20 47L20 46L19 46L19 45L22 45L22 47L24 47L24 49L23 49L23 48L22 48L22 49L23 49L23 53L22 53L22 52L21 52L21 51L22 51L22 50L21 50L21 49L20 49L20 48L19 48L19 49L15 49L15 50L16 50L16 52L18 52L18 53L19 53L19 52L21 52L21 53L20 53L20 54L21 54L21 53L22 53L22 54L23 54L23 55L24 55L24 54L23 54L23 53L25 53L25 54L30 54L30 55L29 55L29 57L27 57L27 59L25 59L25 60L26 60L26 61L28 61L28 62L27 62L27 63L28 63L28 64L29 64L29 63L30 63L30 62L32 62L32 63L31 63L31 64L32 64L32 63L33 63L33 64L34 64L34 63L33 63L33 62L34 62L34 61L33 61L33 62L32 62L32 61L30 61L30 58L29 58L29 57L30 57L30 55L31 55L31 56L33 56L33 55L32 55L32 54L33 54L33 53L34 53L34 55L35 55L35 54L36 54L36 56L35 56L35 58L36 58L36 56L37 56L37 58L41 58L41 59L43 59L43 58L41 58L41 56L40 56L40 55L41 55L41 54L42 54L42 55L43 55L43 56L42 56L42 57L43 57L43 56L44 56L44 55L43 55L43 54L42 54L42 53L43 53L43 52L42 52L42 53L41 53L41 52L40 52L40 53L41 53L41 54L40 54L40 55L38 55L38 54L39 54L39 53L38 53L38 54L37 54L37 53L34 53L34 52L33 52L33 51L32 51L32 50L33 50L33 49L34 49L34 51L35 51L35 52L37 52L37 49L38 49L38 50L39 50L39 48L36 48L36 46L37 46L37 47L38 47L38 46L39 46L39 47L40 47L40 46L41 46L41 48L40 48L40 49L43 49L43 48L42 48L42 47L44 47L44 46L41 46L41 45L45 45L45 46L47 46L47 44L50 44L50 46L49 46L49 45L48 45L48 48L47 48L47 47L46 47L46 48L44 48L44 49L46 49L46 50L47 50L47 51L46 51L46 52L47 52L47 51L48 51L48 52L49 52L49 51L48 51L48 48L49 48L49 50L52 50L52 51L51 51L51 53L50 53L50 54L49 54L49 55L48 55L48 54L47 54L47 53L46 53L46 54L47 54L47 55L48 55L48 56L49 56L49 57L50 57L50 58L51 58L51 57L50 57L50 54L51 54L51 53L53 53L53 54L52 54L52 55L53 55L53 54L54 54L54 55L59 55L59 56L60 56L60 55L59 55L59 54L57 54L57 53L56 53L56 52L54 52L54 51L59 51L59 52L58 52L58 53L61 53L61 50L60 50L60 49L61 49L61 48L60 48L60 45L59 45L59 44L58 44L58 45L59 45L59 46L57 46L57 45L56 45L56 44L55 44L55 46L53 46L53 45L54 45L54 43L55 43L55 42L54 42L54 41L56 41L56 40L54 40L54 39L57 39L57 38L54 38L54 36L52 36L52 38L51 38L51 37L50 37L50 39L48 39L48 38L49 38L49 37L48 37L48 36L49 36L49 35L48 35L48 34L51 34L51 33L54 33L54 32L52 32L52 31L53 31L53 30L52 30L52 31L50 31L50 30L51 30L51 27L50 27L50 26L51 26L51 25L53 25L53 26L52 26L52 27L56 27L56 30L59 30L59 29L60 29L60 28L61 28L61 27L60 27L60 24L61 24L61 26L62 26L62 24L64 24L64 23L62 23L62 24L61 24L61 23L60 23L60 22L61 22L61 21L57 21L57 17L56 17L56 16L55 16L55 14L53 14L53 13L54 13L54 12L52 12L52 14L51 14L51 13L50 13L50 12L51 12L51 10L52 10L52 11L53 11L53 10L54 10L54 11L55 11L55 10L54 10L54 9L55 9L55 8L54 8L54 5L53 5L53 7L52 7L52 6L51 6L51 7L52 7L52 8L51 8L51 9L50 9L50 8L49 8L49 7L50 7L50 5L51 5L51 4L50 4L50 5L48 5L48 6L47 6L47 8L46 8L46 6L45 6L45 5L44 5L44 4L43 4L43 5L42 5L42 3L39 3L39 2L40 2L40 1ZM52 1L52 2L53 2L53 3L52 3L52 4L53 4L53 3L54 3L54 2L53 2L53 1ZM25 2L25 3L26 3L26 2ZM17 3L17 4L18 4L18 3ZM38 3L38 4L37 4L37 5L38 5L38 7L37 7L37 6L36 6L36 7L37 7L37 8L36 8L36 10L34 10L34 11L32 11L32 12L31 12L31 15L32 15L32 16L30 16L30 15L29 15L29 14L30 14L30 13L28 13L28 14L27 14L27 13L26 13L26 11L25 11L25 12L24 12L24 13L19 13L19 14L18 14L18 15L19 15L19 16L17 16L17 17L19 17L19 20L20 20L20 21L21 21L21 22L22 22L22 21L24 21L24 22L25 22L25 23L24 23L24 24L25 24L25 25L21 25L21 24L22 24L22 23L19 23L19 21L18 21L18 20L17 20L17 21L16 21L16 22L15 22L15 23L14 23L14 24L15 24L15 23L16 23L16 25L19 25L19 26L18 26L18 27L20 27L20 25L21 25L21 27L22 27L22 28L21 28L21 29L22 29L22 30L21 30L21 32L20 32L20 33L19 33L19 31L20 31L20 30L17 30L17 32L16 32L16 31L15 31L15 32L16 32L16 33L19 33L19 34L18 34L18 35L17 35L17 36L18 36L18 37L17 37L17 40L16 40L16 41L17 41L17 40L18 40L18 41L19 41L19 42L18 42L18 43L17 43L17 42L15 42L15 45L16 45L16 43L17 43L17 45L19 45L19 44L22 44L22 43L21 43L21 42L23 42L23 41L21 41L21 39L23 39L23 40L25 40L25 41L24 41L24 43L23 43L23 44L24 44L24 45L23 45L23 46L24 46L24 45L26 45L26 46L27 46L27 47L26 47L26 48L27 48L27 49L24 49L24 50L25 50L25 51L24 51L24 52L25 52L25 53L27 53L27 49L29 49L29 50L32 50L32 49L33 49L33 48L34 48L34 49L36 49L36 48L35 48L35 47L33 47L33 48L32 48L32 49L30 49L30 46L31 46L31 47L32 47L32 46L31 46L31 45L32 45L32 44L33 44L33 43L34 43L34 42L32 42L32 41L34 41L34 40L36 40L36 41L35 41L35 42L36 42L36 43L35 43L35 44L36 44L36 45L37 45L37 46L38 46L38 43L39 43L39 46L40 46L40 44L43 44L43 43L44 43L44 44L47 44L47 43L51 43L51 42L52 42L52 44L51 44L51 46L50 46L50 47L51 47L51 46L52 46L52 44L53 44L53 43L54 43L54 42L52 42L52 40L53 40L53 39L51 39L51 40L50 40L50 41L51 41L51 42L49 42L49 40L47 40L47 38L46 38L46 36L45 36L45 34L46 34L46 35L47 35L47 34L46 34L46 33L45 33L45 34L44 34L44 33L43 33L43 31L42 31L42 30L43 30L43 29L44 29L44 30L45 30L45 31L44 31L44 32L45 32L45 31L46 31L46 32L47 32L47 31L48 31L48 30L45 30L45 29L46 29L46 28L47 28L47 29L49 29L49 30L50 30L50 29L49 29L49 28L50 28L50 27L49 27L49 28L47 28L47 27L48 27L48 26L49 26L49 25L50 25L50 24L52 24L52 22L56 22L56 23L55 23L55 24L56 24L56 25L54 25L54 26L56 26L56 25L57 25L57 28L58 28L58 27L59 27L59 26L58 26L58 24L59 24L59 22L56 22L56 18L55 18L55 17L54 17L54 15L53 15L53 14L52 14L52 15L50 15L50 17L51 17L51 18L50 18L50 19L49 19L49 20L48 20L48 21L49 21L49 22L48 22L48 23L49 23L49 22L50 22L50 24L46 24L46 23L47 23L47 22L46 22L46 23L44 23L44 24L43 24L43 23L42 23L42 22L44 22L44 20L46 20L46 21L47 21L47 20L46 20L46 19L48 19L48 18L49 18L49 16L48 16L48 14L44 14L44 12L45 12L45 13L49 13L49 14L50 14L50 13L49 13L49 12L46 12L46 11L48 11L48 10L50 10L50 9L49 9L49 8L48 8L48 10L46 10L46 8L45 8L45 9L44 9L44 7L45 7L45 6L44 6L44 7L43 7L43 6L42 6L42 7L41 7L41 4L39 4L39 3ZM24 4L24 5L26 5L26 4ZM38 4L38 5L39 5L39 4ZM31 5L31 8L34 8L34 5ZM9 6L9 7L10 7L10 6ZM24 6L24 7L25 7L25 6ZM29 6L29 7L30 7L30 6ZM32 6L32 7L33 7L33 6ZM39 6L39 7L38 7L38 9L37 9L37 11L36 11L36 12L38 12L38 14L37 14L37 13L33 13L33 12L32 12L32 14L33 14L33 15L34 15L34 16L36 16L36 17L34 17L34 18L36 18L36 19L35 19L35 20L37 20L37 19L38 19L38 22L36 22L36 21L35 21L35 22L34 22L34 21L33 21L33 20L34 20L34 19L33 19L33 20L32 20L32 19L31 19L31 20L30 20L30 18L33 18L33 16L32 16L32 17L30 17L30 16L29 16L29 17L27 17L27 16L28 16L28 15L27 15L27 16L26 16L26 15L25 15L25 14L26 14L26 13L24 13L24 14L22 14L22 17L20 17L20 20L21 20L21 21L22 21L22 20L21 20L21 19L22 19L22 17L23 17L23 20L24 20L24 21L25 21L25 22L30 22L30 23L31 23L31 24L29 24L29 23L28 23L28 24L26 24L26 23L25 23L25 24L26 24L26 25L25 25L25 26L22 26L22 27L23 27L23 28L22 28L22 29L23 29L23 30L22 30L22 33L23 33L23 34L22 34L22 35L21 35L21 33L20 33L20 34L19 34L19 38L20 38L20 39L21 39L21 38L24 38L24 37L26 37L26 38L27 38L27 39L28 39L28 38L30 38L30 39L29 39L29 41L28 41L28 42L26 42L26 41L27 41L27 40L26 40L26 41L25 41L25 42L26 42L26 45L27 45L27 46L28 46L28 45L29 45L29 46L30 46L30 45L29 45L29 44L30 44L30 43L29 43L29 42L31 42L31 41L32 41L32 40L33 40L33 37L32 37L32 36L33 36L33 35L32 35L32 36L31 36L31 35L30 35L30 32L29 32L29 31L30 31L30 29L31 29L31 28L32 28L32 30L33 30L33 29L34 29L34 30L35 30L35 31L37 31L37 29L36 29L36 28L37 28L37 27L36 27L36 26L39 26L39 27L38 27L38 28L39 28L39 29L38 29L38 30L39 30L39 29L41 29L41 28L44 28L44 29L45 29L45 28L46 28L46 27L45 27L45 26L48 26L48 25L45 25L45 24L44 24L44 25L43 25L43 24L42 24L42 23L41 23L41 22L42 22L42 21L43 21L43 20L42 20L42 19L43 19L43 18L45 18L45 17L46 17L46 18L47 18L47 17L48 17L48 16L47 16L47 15L46 15L46 16L44 16L44 14L41 14L41 13L43 13L43 12L44 12L44 11L43 11L43 10L42 10L42 11L41 11L41 10L40 10L40 11L39 11L39 12L38 12L38 10L39 10L39 9L41 9L41 8L39 8L39 7L40 7L40 6ZM48 6L48 7L49 7L49 6ZM42 7L42 9L43 9L43 7ZM9 8L9 9L10 9L10 8ZM15 8L15 10L14 10L14 12L13 12L13 11L12 11L12 10L13 10L13 9L11 9L11 11L12 11L12 12L13 12L13 13L14 13L14 14L15 14L15 13L17 13L17 12L18 12L18 11L16 11L16 8ZM59 8L59 9L60 9L60 8ZM61 8L61 9L62 9L62 8ZM1 9L1 10L2 10L2 9ZM4 9L4 10L5 10L5 12L10 12L10 11L9 11L9 10L8 10L8 9L6 9L6 10L5 10L5 9ZM18 9L18 10L19 10L19 9ZM52 9L52 10L53 10L53 9ZM6 10L6 11L8 11L8 10ZM15 11L15 12L16 12L16 11ZM34 11L34 12L35 12L35 11ZM40 11L40 12L41 12L41 11ZM42 11L42 12L43 12L43 11ZM55 12L55 13L56 13L56 12ZM61 12L61 14L60 14L60 15L58 15L58 16L59 16L59 17L58 17L58 18L59 18L59 19L58 19L58 20L59 20L59 19L60 19L60 20L61 20L61 19L62 19L62 20L63 20L63 19L62 19L62 18L63 18L63 17L60 17L60 16L64 16L64 15L62 15L62 14L63 14L63 13L62 13L62 12ZM11 13L11 14L12 14L12 15L13 15L13 14L12 14L12 13ZM39 13L39 14L38 14L38 15L37 15L37 14L36 14L36 16L37 16L37 18L38 18L38 19L41 19L41 18L43 18L43 15L40 15L40 13ZM19 14L19 15L20 15L20 14ZM34 14L34 15L35 15L35 14ZM23 15L23 17L24 17L24 18L25 18L25 19L24 19L24 20L25 20L25 21L29 21L29 19L28 19L28 20L27 20L27 17L26 17L26 16L25 16L25 17L24 17L24 15ZM38 15L38 18L39 18L39 17L42 17L42 16L39 16L39 15ZM6 16L6 17L7 17L7 16ZM52 16L52 18L51 18L51 20L52 20L52 21L53 21L53 20L55 20L55 18L53 18L53 16ZM29 17L29 18L30 18L30 17ZM59 17L59 18L60 18L60 19L61 19L61 18L60 18L60 17ZM13 18L13 19L15 19L15 18ZM17 18L17 19L18 19L18 18ZM25 19L25 20L26 20L26 19ZM52 19L52 20L53 20L53 19ZM9 20L9 21L10 21L10 20ZM49 20L49 21L50 21L50 22L51 22L51 21L50 21L50 20ZM4 21L4 22L3 22L3 23L7 23L7 22L5 22L5 21ZM17 21L17 22L18 22L18 21ZM30 21L30 22L31 22L31 23L33 23L33 24L31 24L31 25L30 25L30 26L28 26L28 25L29 25L29 24L28 24L28 25L26 25L26 26L27 26L27 27L26 27L26 28L25 28L25 27L24 27L24 28L23 28L23 29L24 29L24 30L23 30L23 31L24 31L24 32L23 32L23 33L24 33L24 34L23 34L23 35L24 35L24 36L26 36L26 35L25 35L25 33L24 33L24 32L25 32L25 31L26 31L26 30L28 30L28 29L26 29L26 28L28 28L28 27L29 27L29 29L30 29L30 28L31 28L31 27L32 27L32 28L33 28L33 27L34 27L34 28L35 28L35 26L36 26L36 25L37 25L37 24L36 24L36 23L35 23L35 24L34 24L34 22L32 22L32 21ZM39 21L39 22L38 22L38 23L40 23L40 24L41 24L41 23L40 23L40 22L41 22L41 21ZM62 21L62 22L63 22L63 21ZM10 23L10 24L11 24L11 23ZM17 23L17 24L18 24L18 23ZM57 23L57 24L58 24L58 23ZM19 24L19 25L20 25L20 24ZM35 24L35 25L33 25L33 26L35 26L35 25L36 25L36 24ZM38 24L38 25L39 25L39 26L40 26L40 25L39 25L39 24ZM14 25L14 26L15 26L15 28L16 28L16 27L17 27L17 26L15 26L15 25ZM31 25L31 26L32 26L32 25ZM41 25L41 26L43 26L43 25ZM44 25L44 26L45 26L45 25ZM6 26L6 27L7 27L7 26ZM40 27L40 28L41 28L41 27ZM44 27L44 28L45 28L45 27ZM17 28L17 29L20 29L20 28ZM52 28L52 29L53 29L53 28ZM9 29L9 30L10 30L10 31L11 31L11 30L10 30L10 29ZM13 29L13 30L12 30L12 31L14 31L14 29ZM15 29L15 30L16 30L16 29ZM25 29L25 30L26 30L26 29ZM40 30L40 31L39 31L39 32L37 32L37 33L38 33L38 34L37 34L37 35L36 35L36 34L35 34L35 36L34 36L34 37L35 37L35 36L37 36L37 37L36 37L36 38L34 38L34 39L36 39L36 40L37 40L37 41L36 41L36 42L37 42L37 43L36 43L36 44L37 44L37 43L38 43L38 42L40 42L40 43L43 43L43 42L40 42L40 41L41 41L41 40L40 40L40 39L39 39L39 41L38 41L38 38L39 38L39 37L38 37L38 36L37 36L37 35L38 35L38 34L39 34L39 32L40 32L40 33L41 33L41 32L42 32L42 31L41 31L41 30ZM54 30L54 31L55 31L55 32L56 32L56 31L55 31L55 30ZM5 31L5 34L8 34L8 31ZM27 31L27 33L26 33L26 34L27 34L27 33L29 33L29 32L28 32L28 31ZM31 31L31 34L34 34L34 31ZM40 31L40 32L41 32L41 31ZM57 31L57 34L60 34L60 31ZM6 32L6 33L7 33L7 32ZM10 32L10 34L11 34L11 35L12 35L12 33L11 33L11 32ZM13 32L13 33L14 33L14 34L15 34L15 33L14 33L14 32ZM32 32L32 33L33 33L33 32ZM35 32L35 33L36 33L36 32ZM48 32L48 33L49 33L49 32ZM50 32L50 33L51 33L51 32ZM58 32L58 33L59 33L59 32ZM3 33L3 35L4 35L4 33ZM55 33L55 34L52 34L52 35L56 35L56 33ZM40 34L40 35L41 35L41 36L40 36L40 37L41 37L41 38L42 38L42 39L43 39L43 38L42 38L42 37L43 37L43 36L44 36L44 37L45 37L45 36L44 36L44 35L43 35L43 34L42 34L42 35L41 35L41 34ZM6 35L6 36L7 36L7 35ZM9 35L9 38L10 38L10 35ZM20 35L20 37L22 37L22 36L21 36L21 35ZM57 35L57 37L58 37L58 39L59 39L59 40L60 40L60 41L62 41L62 40L61 40L61 39L59 39L59 37L58 37L58 35ZM59 35L59 36L60 36L60 35ZM62 35L62 36L63 36L63 35ZM27 36L27 38L28 38L28 37L30 37L30 38L32 38L32 37L31 37L31 36ZM55 36L55 37L56 37L56 36ZM37 37L37 38L36 38L36 39L37 39L37 38L38 38L38 37ZM30 39L30 40L31 40L31 39ZM45 39L45 40L44 40L44 43L46 43L46 42L47 42L47 41L45 41L45 40L46 40L46 39ZM2 40L2 41L3 41L3 40ZM19 40L19 41L20 41L20 42L19 42L19 43L20 43L20 42L21 42L21 41L20 41L20 40ZM57 40L57 41L58 41L58 42L57 42L57 43L59 43L59 41L58 41L58 40ZM24 43L24 44L25 44L25 43ZM28 43L28 44L27 44L27 45L28 45L28 44L29 44L29 43ZM9 44L9 45L10 45L10 44ZM62 44L62 45L63 45L63 46L64 46L64 45L63 45L63 44ZM4 45L4 46L2 46L2 47L3 47L3 48L5 48L5 47L4 47L4 46L5 46L5 45ZM8 46L8 49L9 49L9 47L11 47L11 46ZM56 46L56 47L52 47L52 48L53 48L53 51L52 51L52 52L53 52L53 51L54 51L54 50L55 50L55 48L56 48L56 50L58 50L58 49L57 49L57 48L59 48L59 49L60 49L60 48L59 48L59 47L57 47L57 46ZM17 47L17 48L18 48L18 47ZM27 47L27 48L28 48L28 47ZM50 48L50 49L51 49L51 48ZM3 49L3 50L5 50L5 49ZM13 49L13 50L14 50L14 49ZM19 49L19 50L20 50L20 51L21 51L21 50L20 50L20 49ZM62 49L62 52L63 52L63 49ZM17 50L17 51L18 51L18 50ZM35 50L35 51L36 51L36 50ZM25 51L25 52L26 52L26 51ZM29 51L29 52L28 52L28 53L30 53L30 54L32 54L32 53L33 53L33 52L31 52L31 51ZM30 52L30 53L31 53L31 52ZM10 53L10 54L11 54L11 53ZM14 53L14 54L13 54L13 55L15 55L15 53ZM54 53L54 54L55 54L55 53ZM61 54L61 55L62 55L62 56L63 56L63 54ZM38 56L38 57L39 57L39 56ZM52 56L52 57L53 57L53 58L52 58L52 59L51 59L51 60L52 60L52 61L53 61L53 60L54 60L54 59L55 59L55 60L56 60L56 58L54 58L54 57L53 57L53 56ZM55 56L55 57L56 57L56 56ZM16 57L16 58L17 58L17 60L19 60L19 59L20 59L20 58L21 58L21 57L20 57L20 58L19 58L19 57L18 57L18 58L17 58L17 57ZM31 57L31 60L34 60L34 57ZM57 57L57 60L60 60L60 57ZM28 58L28 60L29 60L29 58ZM32 58L32 59L33 59L33 58ZM58 58L58 59L59 59L59 58ZM11 59L11 60L10 60L10 61L11 61L11 60L12 60L12 59ZM35 59L35 61L36 61L36 60L38 60L38 59ZM52 59L52 60L53 60L53 59ZM22 60L22 61L23 61L23 62L24 62L24 61L23 61L23 60ZM15 61L15 62L16 62L16 61ZM29 61L29 62L30 62L30 61ZM48 61L48 62L47 62L47 63L48 63L48 62L49 62L49 61ZM50 61L50 62L51 62L51 61ZM55 61L55 62L54 62L54 63L55 63L55 62L56 62L56 61ZM59 61L59 62L61 62L61 63L60 63L60 64L63 64L63 63L62 63L62 61ZM9 62L9 64L10 64L10 62ZM17 62L17 64L16 64L16 63L15 63L15 64L16 64L16 65L19 65L19 63L20 63L20 62ZM36 62L36 63L38 63L38 62ZM0 0L0 7L7 7L7 0ZM1 1L1 6L6 6L6 1ZM2 2L2 5L5 5L5 2ZM58 0L58 7L65 7L65 0ZM59 1L59 6L64 6L64 1ZM60 2L60 5L63 5L63 2ZM0 58L0 65L7 65L7 58ZM1 59L1 64L6 64L6 59ZM2 60L2 63L5 63L5 60Z" fill="#000000"/></g></g></svg>
