<?xml version="1.0" encoding="UTF-8"?>
<svg xmlns="http://www.w3.org/2000/svg" version="1.1" width="300" height="300" viewBox="0 0 300 300"><rect x="0" y="0" width="300" height="300" fill="#ffffff"/><g transform="scale(4.918)"><g transform="translate(0,0)"><path fill-rule="evenodd" d="M9 0L9 1L8 1L8 2L9 2L9 3L8 3L8 4L9 4L9 3L10 3L10 2L11 2L11 1L12 1L12 0L11 0L11 1L10 1L10 0ZM13 0L13 2L12 2L12 3L11 3L11 4L10 4L10 5L8 5L8 7L9 7L9 6L10 6L10 7L11 7L11 8L12 8L12 9L10 9L10 10L9 10L9 8L6 8L6 9L5 9L5 8L0 8L0 14L1 14L1 15L4 15L4 18L5 18L5 15L4 15L4 14L5 14L5 13L8 13L8 15L9 15L9 16L8 16L8 17L11 17L11 18L8 18L8 19L7 19L7 18L6 18L6 19L7 19L7 20L5 20L5 22L4 22L4 21L3 21L3 22L2 22L2 19L3 19L3 18L0 18L0 21L1 21L1 22L0 22L0 23L1 23L1 24L4 24L4 25L5 25L5 27L8 27L8 28L3 28L3 27L4 27L4 26L3 26L3 25L1 25L1 26L0 26L0 27L1 27L1 26L3 26L3 27L2 27L2 28L1 28L1 29L0 29L0 33L2 33L2 34L1 34L1 35L2 35L2 36L1 36L1 38L0 38L0 39L1 39L1 40L0 40L0 42L1 42L1 41L2 41L2 40L4 40L4 39L7 39L7 40L5 40L5 42L6 42L6 43L8 43L8 42L6 42L6 41L7 41L7 40L8 40L8 41L9 41L9 44L10 44L10 45L8 45L8 44L5 44L5 43L3 43L3 42L2 42L2 43L1 43L1 44L0 44L0 45L4 45L4 46L5 46L5 47L4 47L4 50L2 50L2 51L0 51L0 53L4 53L4 52L5 52L5 51L8 51L8 52L9 52L9 53L8 53L8 55L9 55L9 54L10 54L10 53L11 53L11 52L12 52L12 51L13 51L13 53L17 53L17 54L15 54L15 55L14 55L14 58L13 58L13 56L12 56L12 58L9 58L9 56L8 56L8 61L10 61L10 60L11 60L11 61L14 61L14 60L13 60L13 59L14 59L14 58L15 58L15 61L17 61L17 60L16 60L16 59L18 59L18 61L19 61L19 60L20 60L20 61L21 61L21 59L23 59L23 57L24 57L24 58L25 58L25 57L26 57L26 58L27 58L27 59L26 59L26 60L28 60L28 59L29 59L29 58L32 58L32 57L37 57L37 58L36 58L36 59L37 59L37 60L35 60L35 61L37 61L37 60L38 60L38 59L40 59L40 60L39 60L39 61L40 61L40 60L41 60L41 61L42 61L42 60L45 60L45 61L49 61L49 60L51 60L51 61L52 61L52 60L55 60L55 61L56 61L56 60L55 60L55 58L53 58L53 57L56 57L56 58L59 58L59 56L61 56L61 54L59 54L59 56L58 56L58 57L57 57L57 51L61 51L61 50L60 50L60 49L61 49L61 46L59 46L59 47L60 47L60 48L58 48L58 49L57 49L57 48L56 48L56 49L57 49L57 51L56 51L56 50L53 50L53 51L52 51L52 50L50 50L50 49L53 49L53 48L54 48L54 49L55 49L55 48L54 48L54 47L57 47L57 46L56 46L56 45L59 45L59 44L60 44L60 45L61 45L61 42L60 42L60 39L61 39L61 38L58 38L58 37L61 37L61 34L60 34L60 33L61 33L61 30L59 30L59 28L57 28L57 27L56 27L56 24L57 24L57 23L61 23L61 22L58 22L58 21L59 21L59 20L58 20L58 21L57 21L57 23L56 23L56 21L55 21L55 19L53 19L53 18L52 18L52 20L51 20L51 18L50 18L50 21L49 21L49 20L47 20L47 19L49 19L49 18L46 18L46 16L48 16L48 17L50 17L50 15L52 15L52 16L51 16L51 17L54 17L54 18L55 18L55 17L56 17L56 20L57 20L57 18L58 18L58 17L59 17L59 16L60 16L60 15L61 15L61 14L59 14L59 16L57 16L57 15L55 15L55 17L54 17L54 16L53 16L53 15L54 15L54 14L55 14L55 13L56 13L56 14L58 14L58 13L59 13L59 12L60 12L60 11L61 11L61 10L60 10L60 11L59 11L59 9L60 9L60 8L59 8L59 9L58 9L58 8L57 8L57 9L56 9L56 8L55 8L55 9L54 9L54 8L52 8L52 7L53 7L53 6L52 6L52 7L51 7L51 5L52 5L52 4L53 4L53 0L51 0L51 2L50 2L50 4L49 4L49 3L46 3L46 2L49 2L49 1L50 1L50 0L49 0L49 1L46 1L46 0L44 0L44 1L45 1L45 2L44 2L44 3L45 3L45 4L44 4L44 7L43 7L43 6L42 6L42 7L43 7L43 8L47 8L47 9L48 9L48 10L45 10L45 9L44 9L44 10L45 10L45 11L42 11L42 10L43 10L43 9L40 9L40 8L41 8L41 5L40 5L40 3L41 3L41 2L42 2L42 5L43 5L43 2L42 2L42 1L43 1L43 0L42 0L42 1L41 1L41 0L39 0L39 1L38 1L38 3L39 3L39 5L36 5L36 7L37 7L37 6L38 6L38 7L39 7L39 8L38 8L38 9L39 9L39 10L38 10L38 11L40 11L40 12L38 12L38 13L37 13L37 12L35 12L35 11L36 11L36 9L37 9L37 8L35 8L35 5L33 5L33 4L37 4L37 3L36 3L36 0L35 0L35 1L33 1L33 0L30 0L30 1L29 1L29 2L27 2L27 4L26 4L26 1L27 1L27 0L26 0L26 1L25 1L25 0L22 0L22 3L24 3L24 2L25 2L25 4L24 4L24 5L25 5L25 6L24 6L24 8L25 8L25 9L21 9L21 10L22 10L22 11L21 11L21 12L20 12L20 13L19 13L19 12L18 12L18 11L20 11L20 10L19 10L19 9L20 9L20 8L19 8L19 9L18 9L18 8L17 8L17 6L18 6L18 7L19 7L19 6L20 6L20 7L21 7L21 8L22 8L22 7L23 7L23 4L21 4L21 3L19 3L19 1L18 1L18 0L17 0L17 1L18 1L18 2L17 2L17 3L16 3L16 2L15 2L15 4L14 4L14 3L13 3L13 2L14 2L14 0ZM15 0L15 1L16 1L16 0ZM20 1L20 2L21 2L21 1ZM30 1L30 2L31 2L31 1ZM32 1L32 4L33 4L33 3L34 3L34 2L33 2L33 1ZM40 1L40 2L41 2L41 1ZM12 3L12 4L11 4L11 5L10 5L10 6L11 6L11 7L12 7L12 6L13 6L13 11L12 11L12 12L11 12L11 10L10 10L10 12L9 12L9 10L8 10L8 13L9 13L9 14L10 14L10 16L11 16L11 17L12 17L12 18L13 18L13 19L12 19L12 21L11 21L11 22L10 22L10 25L9 25L9 24L8 24L8 23L9 23L9 22L8 22L8 21L6 21L6 22L5 22L5 24L8 24L8 25L6 25L6 26L8 26L8 25L9 25L9 28L10 28L10 29L9 29L9 30L10 30L10 31L9 31L9 32L12 32L12 33L11 33L11 34L10 34L10 36L8 36L8 34L9 34L9 33L8 33L8 34L7 34L7 33L4 33L4 31L3 31L3 30L2 30L2 29L1 29L1 31L3 31L3 32L2 32L2 33L4 33L4 35L3 35L3 34L2 34L2 35L3 35L3 36L4 36L4 38L1 38L1 39L4 39L4 38L5 38L5 37L6 37L6 38L7 38L7 39L8 39L8 38L9 38L9 39L11 39L11 41L14 41L14 42L13 42L13 43L12 43L12 42L11 42L11 43L12 43L12 45L11 45L11 47L12 47L12 45L14 45L14 44L15 44L15 43L14 43L14 42L15 42L15 41L14 41L14 40L18 40L18 41L16 41L16 44L17 44L17 45L15 45L15 46L19 46L19 45L18 45L18 44L21 44L21 45L20 45L20 48L19 48L19 47L16 47L16 49L15 49L15 50L16 50L16 49L18 49L18 50L17 50L17 51L21 51L21 50L23 50L23 47L24 47L24 49L27 49L27 50L25 50L25 51L23 51L23 52L22 52L22 53L25 53L25 55L24 55L24 54L21 54L21 52L19 52L19 53L18 53L18 54L17 54L17 55L15 55L15 57L16 57L16 58L17 58L17 57L18 57L18 56L17 56L17 55L18 55L18 54L19 54L19 57L23 57L23 56L24 56L24 57L25 57L25 55L26 55L26 57L27 57L27 56L28 56L28 52L29 52L29 51L30 51L30 52L31 52L31 51L30 51L30 50L31 50L31 49L32 49L32 50L35 50L35 51L36 51L36 52L33 52L33 51L32 51L32 52L33 52L33 55L34 55L34 56L37 56L37 57L38 57L38 58L37 58L37 59L38 59L38 58L40 58L40 59L41 59L41 60L42 60L42 59L45 59L45 58L48 58L48 57L47 57L47 56L49 56L49 59L46 59L46 60L49 60L49 59L50 59L50 58L51 58L51 59L53 59L53 58L51 58L51 56L52 56L52 55L50 55L50 56L49 56L49 55L47 55L47 54L48 54L48 53L46 53L46 52L49 52L49 53L50 53L50 54L51 54L51 53L50 53L50 52L52 52L52 51L50 51L50 50L49 50L49 49L50 49L50 48L52 48L52 47L53 47L53 46L52 46L52 47L50 47L50 46L51 46L51 44L52 44L52 45L54 45L54 44L55 44L55 45L56 45L56 44L59 44L59 43L60 43L60 42L58 42L58 41L56 41L56 40L59 40L59 39L56 39L56 38L57 38L57 37L54 37L54 36L55 36L55 35L57 35L57 33L53 33L53 34L52 34L52 35L51 35L51 36L52 36L52 35L53 35L53 37L52 37L52 38L51 38L51 37L49 37L49 39L48 39L48 38L47 38L47 37L45 37L45 36L44 36L44 35L43 35L43 34L40 34L40 35L43 35L43 36L40 36L40 37L37 37L37 38L36 38L36 36L39 36L39 35L36 35L36 36L34 36L34 34L35 34L35 31L33 31L33 33L32 33L32 34L33 34L33 35L32 35L32 36L31 36L31 35L30 35L30 34L31 34L31 33L29 33L29 35L28 35L28 36L26 36L26 35L25 35L25 34L24 34L24 33L27 33L27 34L28 34L28 33L27 33L27 32L28 32L28 29L27 29L27 28L30 28L30 27L32 27L32 28L34 28L34 30L35 30L35 28L37 28L37 29L36 29L36 32L37 32L37 33L38 33L38 34L39 34L39 33L38 33L38 32L40 32L40 33L43 33L43 32L44 32L44 33L45 33L45 35L46 35L46 36L47 36L47 35L48 35L48 36L50 36L50 34L51 34L51 33L52 33L52 32L49 32L49 31L50 31L50 30L51 30L51 31L52 31L52 29L50 29L50 30L47 30L47 29L46 29L46 30L45 30L45 28L43 28L43 27L45 27L45 26L47 26L47 27L46 27L46 28L47 28L47 27L48 27L48 28L49 28L49 27L50 27L50 28L51 28L51 27L50 27L50 26L51 26L51 25L52 25L52 26L53 26L53 27L52 27L52 28L56 28L56 27L55 27L55 26L53 26L53 25L55 25L55 24L53 24L53 23L55 23L55 22L53 22L53 21L54 21L54 20L53 20L53 21L52 21L52 22L53 22L53 23L51 23L51 25L50 25L50 26L49 26L49 25L48 25L48 26L47 26L47 25L45 25L45 24L46 24L46 23L45 23L45 22L44 22L44 21L45 21L45 20L46 20L46 22L47 22L47 23L48 23L48 24L49 24L49 23L48 23L48 22L49 22L49 21L47 21L47 20L46 20L46 19L45 19L45 20L43 20L43 23L42 23L42 22L40 22L40 23L39 23L39 24L37 24L37 23L34 23L34 24L37 24L37 25L34 25L34 26L32 26L32 25L33 25L33 22L36 22L36 20L37 20L37 19L38 19L38 20L39 20L39 19L38 19L38 18L39 18L39 16L40 16L40 17L41 17L41 20L40 20L40 21L42 21L42 19L43 19L43 18L44 18L44 17L45 17L45 16L46 16L46 15L45 15L45 12L47 12L47 13L46 13L46 14L47 14L47 15L48 15L48 16L49 16L49 15L50 15L50 14L54 14L54 13L55 13L55 12L54 12L54 11L57 11L57 12L56 12L56 13L57 13L57 12L59 12L59 11L57 11L57 10L58 10L58 9L57 9L57 10L56 10L56 9L55 9L55 10L54 10L54 11L53 11L53 13L51 13L51 9L52 9L52 10L53 10L53 9L52 9L52 8L51 8L51 9L50 9L50 8L49 8L49 7L50 7L50 6L49 6L49 5L47 5L47 4L46 4L46 5L47 5L47 8L49 8L49 9L50 9L50 14L49 14L49 13L48 13L48 12L49 12L49 11L45 11L45 12L42 12L42 11L41 11L41 10L40 10L40 11L41 11L41 12L40 12L40 13L41 13L41 14L40 14L40 15L39 15L39 16L37 16L37 19L34 19L34 20L33 20L33 18L35 18L35 15L33 15L33 14L32 14L32 13L34 13L34 14L36 14L36 15L38 15L38 14L39 14L39 13L38 13L38 14L37 14L37 13L35 13L35 12L34 12L34 11L33 11L33 10L30 10L30 9L27 9L27 8L28 8L28 6L27 6L27 5L28 5L28 4L27 4L27 5L26 5L26 4L25 4L25 5L26 5L26 6L25 6L25 7L26 7L26 6L27 6L27 8L26 8L26 9L25 9L25 10L23 10L23 11L22 11L22 13L25 13L25 14L23 14L23 15L22 15L22 14L21 14L21 13L20 13L20 14L21 14L21 16L22 16L22 18L21 18L21 17L20 17L20 16L19 16L19 13L16 13L16 11L18 11L18 9L16 9L16 10L14 10L14 9L15 9L15 7L16 7L16 6L15 6L15 7L14 7L14 6L13 6L13 5L14 5L14 4L13 4L13 3ZM29 3L29 4L31 4L31 3ZM51 3L51 4L52 4L52 3ZM16 4L16 5L17 5L17 4ZM18 4L18 6L19 6L19 4ZM20 4L20 5L21 5L21 7L22 7L22 5L21 5L21 4ZM11 5L11 6L12 6L12 5ZM29 5L29 8L32 8L32 5ZM39 5L39 7L40 7L40 5ZM30 6L30 7L31 7L31 6ZM33 6L33 9L34 9L34 10L35 10L35 8L34 8L34 6ZM45 6L45 7L46 7L46 6ZM48 6L48 7L49 7L49 6ZM2 9L2 11L1 11L1 12L3 12L3 13L2 13L2 14L4 14L4 12L3 12L3 11L5 11L5 12L7 12L7 11L5 11L5 9ZM6 9L6 10L7 10L7 9ZM26 9L26 10L25 10L25 11L24 11L24 12L25 12L25 13L26 13L26 14L25 14L25 15L26 15L26 14L27 14L27 13L26 13L26 11L29 11L29 10L27 10L27 9ZM14 11L14 12L13 12L13 13L11 13L11 12L10 12L10 13L11 13L11 14L12 14L12 16L13 16L13 17L16 17L16 18L15 18L15 19L16 19L16 21L14 21L14 19L13 19L13 22L11 22L11 24L12 24L12 25L13 25L13 24L12 24L12 23L13 23L13 22L14 22L14 24L16 24L16 25L17 25L17 26L15 26L15 27L14 27L14 26L10 26L10 27L13 27L13 29L12 29L12 28L11 28L11 30L13 30L13 31L12 31L12 32L14 32L14 33L15 33L15 34L14 34L14 36L13 36L13 33L12 33L12 37L10 37L10 38L12 38L12 37L15 37L15 38L13 38L13 39L15 39L15 38L16 38L16 37L19 37L19 39L21 39L21 40L24 40L24 38L25 38L25 39L29 39L29 40L30 40L30 41L31 41L31 42L30 42L30 43L31 43L31 44L30 44L30 45L28 45L28 44L27 44L27 45L26 45L26 48L27 48L27 49L28 49L28 50L27 50L27 51L25 51L25 53L26 53L26 54L27 54L27 53L26 53L26 52L27 52L27 51L28 51L28 50L30 50L30 49L31 49L31 48L32 48L32 47L33 47L33 49L34 49L34 47L35 47L35 46L37 46L37 47L39 47L39 50L38 50L38 49L37 49L37 48L35 48L35 50L37 50L37 51L39 51L39 52L40 52L40 51L39 51L39 50L40 50L40 48L42 48L42 49L41 49L41 50L44 50L44 51L45 51L45 52L46 52L46 51L47 51L47 50L46 50L46 51L45 51L45 50L44 50L44 48L45 48L45 47L47 47L47 48L48 48L48 49L49 49L49 48L48 48L48 47L49 47L49 46L50 46L50 44L47 44L47 43L49 43L49 42L50 42L50 43L51 43L51 42L52 42L52 41L53 41L53 44L54 44L54 43L55 43L55 44L56 44L56 43L55 43L55 42L56 42L56 41L55 41L55 40L54 40L54 41L53 41L53 39L55 39L55 38L53 38L53 39L52 39L52 40L51 40L51 38L50 38L50 40L48 40L48 39L47 39L47 42L46 42L46 43L44 43L44 40L46 40L46 38L44 38L44 37L41 37L41 38L42 38L42 40L43 40L43 41L40 41L40 42L38 42L38 41L39 41L39 40L41 40L41 39L40 39L40 38L37 38L37 39L39 39L39 40L38 40L38 41L37 41L37 40L35 40L35 38L32 38L32 39L31 39L31 38L30 38L30 37L31 37L31 36L29 36L29 38L27 38L27 37L26 37L26 36L25 36L25 35L24 35L24 34L23 34L23 35L22 35L22 33L23 33L23 30L25 30L25 29L26 29L26 30L27 30L27 29L26 29L26 28L27 28L27 27L29 27L29 24L28 24L28 26L27 26L27 25L26 25L26 23L24 23L24 24L25 24L25 25L24 25L24 27L22 27L22 26L23 26L23 25L19 25L19 23L20 23L20 24L21 24L21 23L23 23L23 21L22 21L22 20L20 20L20 18L18 18L18 19L19 19L19 20L17 20L17 17L16 17L16 15L15 15L15 13L14 13L14 12L15 12L15 11ZM30 11L30 12L29 12L29 13L30 13L30 12L31 12L31 11ZM32 11L32 12L33 12L33 11ZM13 13L13 14L14 14L14 13ZM42 13L42 14L41 14L41 15L40 15L40 16L41 16L41 15L42 15L42 14L43 14L43 13ZM47 13L47 14L48 14L48 15L49 15L49 14L48 14L48 13ZM6 14L6 15L7 15L7 14ZM28 14L28 15L29 15L29 14ZM13 15L13 16L14 16L14 15ZM23 15L23 18L22 18L22 19L23 19L23 18L25 18L25 17L24 17L24 15ZM30 15L30 16L31 16L31 17L32 17L32 18L27 18L27 17L26 17L26 19L24 19L24 20L25 20L25 21L24 21L24 22L25 22L25 21L26 21L26 22L28 22L28 23L30 23L30 24L31 24L31 25L32 25L32 24L31 24L31 23L32 23L32 22L33 22L33 21L32 21L32 22L31 22L31 21L29 21L29 20L32 20L32 18L33 18L33 17L34 17L34 16L33 16L33 17L32 17L32 16L31 16L31 15ZM44 15L44 16L45 16L45 15ZM2 16L2 17L3 17L3 16ZM6 16L6 17L7 17L7 16ZM18 16L18 17L19 17L19 16ZM28 16L28 17L29 17L29 16ZM56 16L56 17L57 17L57 16ZM42 17L42 18L43 18L43 17ZM59 18L59 19L61 19L61 18ZM9 19L9 21L10 21L10 20L11 20L11 19ZM26 19L26 21L27 21L27 20L29 20L29 19ZM60 20L60 21L61 21L61 20ZM16 21L16 22L17 22L17 23L16 23L16 24L17 24L17 25L18 25L18 24L17 24L17 23L18 23L18 22L19 22L19 21L18 21L18 22L17 22L17 21ZM20 21L20 23L21 23L21 21ZM28 21L28 22L29 22L29 21ZM37 21L37 22L39 22L39 21ZM50 21L50 22L51 22L51 21ZM6 22L6 23L8 23L8 22ZM40 23L40 24L41 24L41 25L42 25L42 26L43 26L43 25L42 25L42 24L41 24L41 23ZM44 23L44 24L45 24L45 23ZM52 24L52 25L53 25L53 24ZM58 24L58 25L57 25L57 26L58 26L58 25L59 25L59 27L61 27L61 26L60 26L60 24ZM25 25L25 27L24 27L24 28L20 28L20 32L19 32L19 31L18 31L18 30L19 30L19 29L18 29L18 28L17 28L17 27L16 27L16 28L17 28L17 29L15 29L15 28L14 28L14 30L17 30L17 32L16 32L16 31L15 31L15 33L16 33L16 34L15 34L15 35L16 35L16 36L19 36L19 37L20 37L20 38L22 38L22 39L23 39L23 38L22 38L22 37L23 37L23 36L24 36L24 37L25 37L25 38L26 38L26 37L25 37L25 36L24 36L24 35L23 35L23 36L22 36L22 37L20 37L20 36L19 36L19 35L21 35L21 33L22 33L22 32L21 32L21 31L22 31L22 30L21 30L21 29L25 29L25 28L26 28L26 27L27 27L27 26L26 26L26 25ZM44 25L44 26L45 26L45 25ZM19 26L19 27L20 27L20 26ZM34 26L34 28L35 28L35 27L36 27L36 26ZM38 26L38 27L37 27L37 28L38 28L38 29L37 29L37 30L38 30L38 31L40 31L40 32L41 32L41 31L42 31L42 32L43 32L43 31L42 31L42 30L43 30L43 28L42 28L42 30L41 30L41 31L40 31L40 30L38 30L38 29L40 29L40 28L41 28L41 27L40 27L40 26ZM48 26L48 27L49 27L49 26ZM39 27L39 28L40 28L40 27ZM60 28L60 29L61 29L61 28ZM5 29L5 32L8 32L8 29ZM29 29L29 32L32 32L32 29ZM53 29L53 32L56 32L56 29ZM6 30L6 31L7 31L7 30ZM30 30L30 31L31 31L31 30ZM46 30L46 31L44 31L44 32L45 32L45 33L47 33L47 32L48 32L48 33L49 33L49 32L48 32L48 31L47 31L47 30ZM54 30L54 31L55 31L55 30ZM24 31L24 32L25 32L25 31ZM26 31L26 32L27 32L27 31ZM46 31L46 32L47 32L47 31ZM57 31L57 32L59 32L59 33L58 33L58 34L59 34L59 33L60 33L60 32L59 32L59 31ZM17 32L17 33L19 33L19 34L18 34L18 35L19 35L19 34L20 34L20 33L21 33L21 32L20 32L20 33L19 33L19 32ZM5 34L5 35L4 35L4 36L5 36L5 35L7 35L7 34ZM46 34L46 35L47 35L47 34ZM54 34L54 35L55 35L55 34ZM58 35L58 36L60 36L60 35ZM6 36L6 37L7 37L7 38L8 38L8 36ZM32 36L32 37L34 37L34 36ZM17 38L17 39L18 39L18 38ZM43 38L43 39L44 39L44 38ZM32 39L32 40L31 40L31 41L33 41L33 39ZM9 40L9 41L10 41L10 40ZM19 40L19 41L18 41L18 43L20 43L20 42L19 42L19 41L20 41L20 40ZM25 40L25 41L24 41L24 44L26 44L26 43L25 43L25 41L26 41L26 42L27 42L27 43L29 43L29 41L28 41L28 42L27 42L27 41L26 41L26 40ZM50 40L50 42L51 42L51 40ZM21 41L21 42L22 42L22 43L21 43L21 44L22 44L22 43L23 43L23 41ZM34 41L34 42L35 42L35 41ZM31 42L31 43L32 43L32 44L31 44L31 45L30 45L30 46L29 46L29 48L28 48L28 49L29 49L29 48L31 48L31 47L32 47L32 46L31 46L31 45L32 45L32 44L33 44L33 43L32 43L32 42ZM37 42L37 43L34 43L34 44L38 44L38 46L39 46L39 44L40 44L40 47L41 47L41 46L42 46L42 47L43 47L43 48L44 48L44 47L45 47L45 44L42 44L42 45L41 45L41 44L40 44L40 43L38 43L38 42ZM41 42L41 43L43 43L43 42ZM57 42L57 43L58 43L58 42ZM13 43L13 44L14 44L14 43ZM6 45L6 46L8 46L8 47L6 47L6 48L5 48L5 50L8 50L8 51L9 51L9 52L10 52L10 50L11 50L11 49L13 49L13 51L14 51L14 49L13 49L13 48L14 48L14 46L13 46L13 48L11 48L11 49L10 49L10 50L9 50L9 48L8 48L8 47L10 47L10 46L8 46L8 45ZM21 45L21 47L22 47L22 46L23 46L23 45ZM24 45L24 47L25 47L25 45ZM27 45L27 46L28 46L28 45ZM33 45L33 47L34 47L34 46L35 46L35 45ZM42 45L42 46L43 46L43 47L44 47L44 45ZM46 45L46 46L47 46L47 47L48 47L48 46L47 46L47 45ZM0 46L0 49L1 49L1 46ZM2 46L2 47L3 47L3 46ZM30 46L30 47L31 47L31 46ZM6 48L6 49L7 49L7 48ZM18 48L18 49L19 49L19 50L20 50L20 49L22 49L22 48L20 48L20 49L19 49L19 48ZM58 49L58 50L59 50L59 49ZM48 50L48 51L49 51L49 50ZM3 51L3 52L4 52L4 51ZM15 51L15 52L16 52L16 51ZM42 51L42 52L41 52L41 53L39 53L39 54L37 54L37 52L36 52L36 53L35 53L35 54L34 54L34 55L35 55L35 54L37 54L37 56L41 56L41 58L45 58L45 57L46 57L46 56L45 56L45 55L46 55L46 54L45 54L45 53L44 53L44 52L43 52L43 51ZM54 51L54 52L55 52L55 51ZM6 52L6 53L7 53L7 52ZM42 52L42 53L43 53L43 54L44 54L44 53L43 53L43 52ZM58 52L58 53L59 53L59 52ZM60 52L60 53L61 53L61 52ZM19 53L19 54L20 54L20 55L21 55L21 54L20 54L20 53ZM29 53L29 56L32 56L32 53ZM53 53L53 56L56 56L56 53ZM11 54L11 55L10 55L10 57L11 57L11 55L13 55L13 54ZM30 54L30 55L31 55L31 54ZM39 54L39 55L41 55L41 56L44 56L44 57L45 57L45 56L44 56L44 55L42 55L42 54ZM54 54L54 55L55 55L55 54ZM16 56L16 57L17 57L17 56ZM60 57L60 60L58 60L58 61L61 61L61 57ZM18 58L18 59L20 59L20 58ZM33 58L33 59L32 59L32 60L31 60L31 59L30 59L30 61L32 61L32 60L33 60L33 61L34 61L34 58ZM11 59L11 60L12 60L12 59ZM24 59L24 60L25 60L25 59ZM0 0L0 7L7 7L7 0ZM1 1L1 6L6 6L6 1ZM2 2L2 5L5 5L5 2ZM54 0L54 7L61 7L61 0ZM55 1L55 6L60 6L60 1ZM56 2L56 5L59 5L59 2ZM0 54L0 61L7 61L7 54ZM1 55L1 60L6 60L6 55ZM2 56L2 59L5 59L5 56Z" fill="#000000"/></g></g></svg>
