<?xml version="1.0" encoding="UTF-8"?>
<svg xmlns="http://www.w3.org/2000/svg" version="1.1" width="300" height="300" viewBox="0 0 300 300"><rect x="0" y="0" width="300" height="300" fill="#ffffff"/><g transform="scale(4.918)"><g transform="translate(0,0)"><path fill-rule="evenodd" d="M11 0L11 1L10 1L10 2L9 2L9 1L8 1L8 2L9 2L9 3L8 3L8 4L9 4L9 3L10 3L10 5L12 5L12 8L11 8L11 6L10 6L10 7L9 7L9 5L8 5L8 7L9 7L9 8L6 8L6 9L5 9L5 8L0 8L0 10L1 10L1 11L0 11L0 12L1 12L1 13L0 13L0 14L1 14L1 15L0 15L0 16L1 16L1 17L0 17L0 20L2 20L2 18L3 18L3 19L4 19L4 18L5 18L5 19L7 19L7 18L10 18L10 16L11 16L11 17L12 17L12 20L11 20L11 19L9 19L9 20L8 20L8 21L7 21L7 20L4 20L4 22L3 22L3 23L4 23L4 24L3 24L3 27L2 27L2 24L1 24L1 23L2 23L2 21L0 21L0 22L1 22L1 23L0 23L0 25L1 25L1 26L0 26L0 27L1 27L1 28L0 28L0 30L1 30L1 28L2 28L2 31L3 31L3 32L2 32L2 33L3 33L3 34L5 34L5 36L4 36L4 37L3 37L3 35L1 35L1 36L2 36L2 38L1 38L1 37L0 37L0 38L1 38L1 39L0 39L0 40L1 40L1 41L3 41L3 43L2 43L2 42L1 42L1 45L2 45L2 44L3 44L3 47L2 47L2 48L4 48L4 49L5 49L5 48L6 48L6 49L7 49L7 50L2 50L2 51L0 51L0 53L4 53L4 52L5 52L5 51L7 51L7 52L6 52L6 53L8 53L8 55L9 55L9 56L8 56L8 61L11 61L11 60L12 60L12 61L13 61L13 60L14 60L14 61L17 61L17 60L16 60L16 59L18 59L18 61L20 61L20 60L21 60L21 58L23 58L23 59L24 59L24 60L25 60L25 57L24 57L24 58L23 58L23 57L19 57L19 54L20 54L20 55L21 55L21 56L22 56L22 55L23 55L23 53L22 53L22 52L23 52L23 50L25 50L25 51L24 51L24 52L25 52L25 53L24 53L24 54L27 54L27 53L28 53L28 56L27 56L27 55L24 55L24 56L27 56L27 57L26 57L26 58L27 58L27 59L26 59L26 60L28 60L28 59L29 59L29 58L31 58L31 59L30 59L30 61L32 61L32 60L33 60L33 61L34 61L34 58L33 58L33 59L32 59L32 58L31 58L31 57L37 57L37 58L36 58L36 59L37 59L37 60L35 60L35 61L40 61L40 60L41 60L41 61L42 61L42 60L45 60L45 61L46 61L46 59L47 59L47 58L48 58L48 59L49 59L49 60L47 60L47 61L49 61L49 60L53 60L53 61L54 61L54 60L55 60L55 59L56 59L56 61L57 61L57 59L56 59L56 58L59 58L59 56L61 56L61 54L59 54L59 56L58 56L58 57L57 57L57 53L59 53L59 52L58 52L58 50L59 50L59 51L61 51L61 50L59 50L59 48L60 48L60 47L61 47L61 46L58 46L58 45L59 45L59 44L60 44L60 45L61 45L61 42L60 42L60 39L61 39L61 38L58 38L58 37L59 37L59 36L60 36L60 37L61 37L61 34L59 34L59 32L60 32L60 33L61 33L61 30L60 30L60 29L61 29L61 26L60 26L60 24L58 24L58 25L57 25L57 26L58 26L58 25L59 25L59 27L60 27L60 29L59 29L59 28L57 28L57 27L56 27L56 24L57 24L57 23L61 23L61 22L58 22L58 21L59 21L59 20L58 20L58 21L57 21L57 23L56 23L56 21L53 21L53 18L55 18L55 17L56 17L56 18L57 18L57 19L56 19L56 20L57 20L57 19L61 19L61 18L58 18L58 17L59 17L59 16L58 16L58 17L56 17L56 16L57 16L57 15L56 15L56 16L53 16L53 15L54 15L54 14L56 14L56 12L57 12L57 13L59 13L59 12L60 12L60 11L61 11L61 10L60 10L60 11L59 11L59 9L60 9L60 8L59 8L59 9L58 9L58 8L57 8L57 9L56 9L56 8L55 8L55 9L54 9L54 8L53 8L53 6L52 6L52 7L51 7L51 5L52 5L52 4L53 4L53 0L51 0L51 2L50 2L50 0L48 0L48 2L47 2L47 1L46 1L46 0L44 0L44 1L45 1L45 2L44 2L44 3L45 3L45 4L44 4L44 7L43 7L43 4L39 4L39 5L36 5L36 7L37 7L37 6L38 6L38 7L39 7L39 8L38 8L38 9L37 9L37 8L35 8L35 5L33 5L33 4L34 4L34 3L35 3L35 4L37 4L37 3L36 3L36 2L37 2L37 0L35 0L35 1L34 1L34 3L33 3L33 4L32 4L32 1L33 1L33 0L30 0L30 1L29 1L29 2L27 2L27 0L26 0L26 1L25 1L25 2L26 2L26 3L25 3L25 4L21 4L21 1L22 1L22 3L24 3L24 2L23 2L23 1L24 1L24 0L23 0L23 1L22 1L22 0L21 0L21 1L20 1L20 3L16 3L16 2L15 2L15 4L14 4L14 3L11 3L11 1L12 1L12 2L14 2L14 0ZM15 0L15 1L16 1L16 0ZM39 0L39 1L38 1L38 3L43 3L43 2L40 2L40 1L43 1L43 0ZM18 1L18 2L19 2L19 1ZM30 1L30 2L31 2L31 1ZM46 2L46 3L47 3L47 4L46 4L46 5L47 5L47 7L46 7L46 6L45 6L45 7L46 7L46 8L43 8L43 7L42 7L42 5L41 5L41 8L40 8L40 10L39 10L39 9L38 9L38 10L37 10L37 9L36 9L36 11L35 11L35 12L34 12L34 11L33 11L33 10L32 10L32 11L31 11L31 10L30 10L30 9L27 9L27 8L28 8L28 6L27 6L27 7L26 7L26 6L25 6L25 5L26 5L26 4L27 4L27 5L28 5L28 4L27 4L27 3L26 3L26 4L25 4L25 5L23 5L23 7L22 7L22 6L21 6L21 7L20 7L20 6L19 6L19 4L15 4L15 5L14 5L14 4L13 4L13 5L14 5L14 6L13 6L13 8L12 8L12 9L10 9L10 8L9 8L9 9L6 9L6 10L8 10L8 11L6 11L6 12L8 12L8 13L9 13L9 12L11 12L11 16L14 16L14 15L13 15L13 14L14 14L14 13L15 13L15 15L16 15L16 17L13 17L13 20L12 20L12 23L11 23L11 22L8 22L8 23L6 23L6 22L7 22L7 21L5 21L5 22L4 22L4 23L6 23L6 24L5 24L5 25L6 25L6 26L7 26L7 25L6 25L6 24L9 24L9 25L10 25L10 27L9 27L9 26L8 26L8 27L5 27L5 28L9 28L9 29L10 29L10 32L9 32L9 33L11 33L11 34L7 34L7 33L5 33L5 34L7 34L7 35L6 35L6 36L8 36L8 38L10 38L10 40L9 40L9 39L6 39L6 38L7 38L7 37L5 37L5 42L7 42L7 41L6 41L6 40L9 40L9 41L10 41L10 40L11 40L11 41L12 41L12 40L13 40L13 39L14 39L14 42L15 42L15 44L16 44L16 43L17 43L17 45L15 45L15 46L13 46L13 45L14 45L14 43L13 43L13 42L12 42L12 43L13 43L13 45L11 45L11 46L10 46L10 45L9 45L9 44L10 44L10 43L11 43L11 42L10 42L10 43L9 43L9 42L8 42L8 46L7 46L7 45L6 45L6 46L7 46L7 47L6 47L6 48L7 48L7 49L10 49L10 47L12 47L12 46L13 46L13 48L11 48L11 49L14 49L14 50L16 50L16 49L17 49L17 50L19 50L19 51L21 51L21 50L23 50L23 47L24 47L24 49L27 49L27 50L28 50L28 49L27 49L27 48L26 48L26 45L27 45L27 46L28 46L28 45L30 45L30 46L29 46L29 47L31 47L31 49L29 49L29 50L30 50L30 51L29 51L29 52L33 52L33 53L34 53L34 54L35 54L35 55L34 55L34 56L37 56L37 54L39 54L39 51L41 51L41 52L40 52L40 53L41 53L41 54L40 54L40 55L38 55L38 58L40 58L40 59L39 59L39 60L40 60L40 59L41 59L41 60L42 60L42 59L45 59L45 58L47 58L47 57L46 57L46 55L48 55L48 56L49 56L49 57L48 57L48 58L49 58L49 59L50 59L50 58L51 58L51 56L52 56L52 55L50 55L50 56L49 56L49 55L48 55L48 54L49 54L49 53L46 53L46 52L50 52L50 54L51 54L51 52L52 52L52 51L53 51L53 50L55 50L55 51L54 51L54 52L57 52L57 51L56 51L56 50L58 50L58 48L59 48L59 47L58 47L58 48L57 48L57 47L54 47L54 48L53 48L53 49L51 49L51 48L52 48L52 47L53 47L53 45L54 45L54 44L55 44L55 45L56 45L56 46L57 46L57 45L56 45L56 44L59 44L59 43L60 43L60 42L58 42L58 41L56 41L56 39L54 39L54 37L52 37L52 38L51 38L51 36L52 36L52 35L53 35L53 36L55 36L55 38L57 38L57 37L56 37L56 36L57 36L57 35L58 35L58 36L59 36L59 34L58 34L58 33L56 33L56 34L55 34L55 33L53 33L53 34L52 34L52 35L50 35L50 34L51 34L51 33L52 33L52 32L51 32L51 31L52 31L52 29L50 29L50 30L47 30L47 29L46 29L46 30L45 30L45 28L44 28L44 27L45 27L45 26L47 26L47 27L46 27L46 28L47 28L47 27L48 27L48 28L49 28L49 27L50 27L50 28L56 28L56 27L55 27L55 26L53 26L53 25L55 25L55 24L53 24L53 25L52 25L52 26L51 26L51 25L50 25L50 26L47 26L47 24L49 24L49 23L45 23L45 22L44 22L44 21L45 21L45 20L46 20L46 22L49 22L49 21L50 21L50 22L53 22L53 23L55 23L55 22L53 22L53 21L52 21L52 18L53 18L53 17L50 17L50 16L52 16L52 15L50 15L50 14L54 14L54 13L55 13L55 12L54 12L54 11L57 11L57 12L59 12L59 11L57 11L57 10L58 10L58 9L57 9L57 10L56 10L56 9L55 9L55 10L54 10L54 11L53 11L53 9L52 9L52 11L51 11L51 9L50 9L50 8L49 8L49 7L50 7L50 5L49 5L49 4L50 4L50 2L48 2L48 3L47 3L47 2ZM29 3L29 4L31 4L31 3ZM48 3L48 4L49 4L49 3ZM51 3L51 4L52 4L52 3ZM20 4L20 5L21 5L21 4ZM15 5L15 6L14 6L14 7L15 7L15 6L16 6L16 7L17 7L17 6L18 6L18 7L19 7L19 6L18 6L18 5L17 5L17 6L16 6L16 5ZM29 5L29 8L32 8L32 5ZM39 5L39 7L40 7L40 5ZM48 5L48 7L49 7L49 5ZM24 6L24 8L25 8L25 9L21 9L21 10L22 10L22 11L21 11L21 12L18 12L18 11L20 11L20 10L19 10L19 9L20 9L20 8L19 8L19 9L18 9L18 8L16 8L16 9L18 9L18 11L17 11L17 10L15 10L15 9L14 9L14 8L13 8L13 9L12 9L12 10L15 10L15 12L16 12L16 13L19 13L19 14L18 14L18 15L19 15L19 14L20 14L20 15L22 15L22 14L25 14L25 15L26 15L26 14L27 14L27 15L29 15L29 16L31 16L31 15L30 15L30 14L31 14L31 13L30 13L30 12L31 12L31 11L29 11L29 10L27 10L27 9L26 9L26 8L25 8L25 6ZM30 6L30 7L31 7L31 6ZM33 6L33 9L34 9L34 10L35 10L35 8L34 8L34 6ZM47 8L47 9L49 9L49 12L48 12L48 13L47 13L47 11L48 11L48 10L46 10L46 11L45 11L45 15L44 15L44 16L45 16L45 17L44 17L44 19L42 19L42 20L41 20L41 18L43 18L43 15L42 15L42 14L43 14L43 13L44 13L44 12L43 12L43 11L42 11L42 10L43 10L43 9L41 9L41 10L40 10L40 12L39 12L39 14L38 14L38 12L35 12L35 14L34 14L34 13L32 13L32 14L33 14L33 15L32 15L32 18L29 18L29 17L26 17L26 18L27 18L27 19L25 19L25 16L24 16L24 15L23 15L23 16L24 16L24 18L22 18L22 19L23 19L23 20L24 20L24 19L25 19L25 21L24 21L24 23L22 23L22 22L23 22L23 21L22 21L22 20L19 20L19 19L17 19L17 17L22 17L22 16L17 16L17 17L16 17L16 18L15 18L15 19L14 19L14 21L17 21L17 22L15 22L15 27L16 27L16 28L15 28L15 29L17 29L17 28L18 28L18 29L19 29L19 30L13 30L13 29L11 29L11 30L12 30L12 31L16 31L16 32L17 32L17 31L20 31L20 29L21 29L21 30L22 30L22 31L21 31L21 32L20 32L20 33L21 33L21 36L20 36L20 34L18 34L18 33L19 33L19 32L18 32L18 33L17 33L17 35L19 35L19 36L16 36L16 35L15 35L15 34L16 34L16 33L14 33L14 32L12 32L12 34L11 34L11 35L8 35L8 36L9 36L9 37L10 37L10 38L14 38L14 39L15 39L15 42L16 42L16 41L18 41L18 43L20 43L20 42L19 42L19 41L20 41L20 40L19 40L19 41L18 41L18 40L17 40L17 39L18 39L18 38L16 38L16 37L19 37L19 39L21 39L21 38L20 38L20 37L22 37L22 38L23 38L23 37L22 37L22 36L24 36L24 35L25 35L25 34L26 34L26 35L27 35L27 37L26 37L26 36L25 36L25 37L24 37L24 38L25 38L25 37L26 37L26 39L24 39L24 40L25 40L25 41L24 41L24 43L23 43L23 44L24 44L24 43L25 43L25 44L26 44L26 43L25 43L25 42L27 42L27 43L29 43L29 41L28 41L28 42L27 42L27 41L26 41L26 39L29 39L29 40L30 40L30 41L31 41L31 42L30 42L30 43L31 43L31 44L30 44L30 45L31 45L31 47L33 47L33 48L32 48L32 49L35 49L35 50L34 50L34 51L35 51L35 52L36 52L36 53L35 53L35 54L37 54L37 52L36 52L36 51L39 51L39 50L40 50L40 48L41 48L41 50L43 50L43 51L42 51L42 52L41 52L41 53L42 53L42 54L43 54L43 55L44 55L44 56L41 56L41 55L40 55L40 56L41 56L41 58L45 58L45 57L44 57L44 56L45 56L45 55L46 55L46 54L45 54L45 53L44 53L44 52L43 52L43 51L45 51L45 52L46 52L46 51L47 51L47 50L46 50L46 51L45 51L45 49L44 49L44 50L43 50L43 49L42 49L42 48L41 48L41 47L42 47L42 46L43 46L43 45L42 45L42 44L45 44L45 43L49 43L49 42L50 42L50 43L55 43L55 44L56 44L56 43L55 43L55 42L56 42L56 41L53 41L53 42L50 42L50 40L51 40L51 41L52 41L52 40L51 40L51 38L50 38L50 37L49 37L49 36L50 36L50 35L49 35L49 36L46 36L46 35L47 35L47 34L46 34L46 35L44 35L44 36L45 36L45 37L47 37L47 38L50 38L50 40L47 40L47 39L46 39L46 38L44 38L44 37L41 37L41 38L40 38L40 36L43 36L43 35L40 35L40 34L43 34L43 32L45 32L45 33L44 33L44 34L45 34L45 33L47 33L47 32L48 32L48 33L49 33L49 34L50 34L50 33L49 33L49 32L50 32L50 31L51 31L51 30L50 30L50 31L49 31L49 32L48 32L48 31L47 31L47 30L46 30L46 31L42 31L42 30L43 30L43 28L42 28L42 30L41 30L41 31L40 31L40 30L38 30L38 29L37 29L37 28L38 28L38 27L40 27L40 28L39 28L39 29L40 29L40 28L41 28L41 27L40 27L40 26L41 26L41 25L42 25L42 26L43 26L43 25L42 25L42 24L41 24L41 23L40 23L40 22L42 22L42 23L43 23L43 21L42 21L42 20L45 20L45 19L46 19L46 20L47 20L47 19L49 19L49 18L50 18L50 19L51 19L51 18L50 18L50 17L49 17L49 16L48 16L48 15L49 15L49 14L50 14L50 9L49 9L49 8ZM3 9L3 10L4 10L4 11L1 11L1 12L2 12L2 13L1 13L1 14L2 14L2 17L1 17L1 18L2 18L2 17L3 17L3 14L4 14L4 13L5 13L5 12L4 12L4 11L5 11L5 10L4 10L4 9ZM9 9L9 10L10 10L10 11L11 11L11 10L10 10L10 9ZM25 9L25 10L26 10L26 9ZM44 9L44 10L45 10L45 9ZM23 10L23 11L22 11L22 12L21 12L21 13L20 13L20 14L21 14L21 13L25 13L25 14L26 14L26 13L28 13L28 14L30 14L30 13L29 13L29 11L26 11L26 13L25 13L25 11L24 11L24 10ZM38 10L38 11L39 11L39 10ZM12 11L12 14L13 14L13 13L14 13L14 11ZM16 11L16 12L17 12L17 11ZM23 11L23 12L24 12L24 11ZM32 11L32 12L33 12L33 11ZM41 11L41 12L40 12L40 13L41 13L41 14L40 14L40 15L39 15L39 16L37 16L37 15L36 15L36 14L35 14L35 15L34 15L34 17L33 17L33 18L32 18L32 20L29 20L29 19L27 19L27 20L26 20L26 21L25 21L25 23L24 23L24 24L20 24L20 23L21 23L21 21L20 21L20 23L19 23L19 25L25 25L25 26L23 26L23 27L21 27L21 29L25 29L25 30L23 30L23 32L24 32L24 33L27 33L27 34L28 34L28 33L27 33L27 32L26 32L26 31L28 31L28 28L29 28L29 27L31 27L31 28L32 28L32 27L33 27L33 28L34 28L34 30L36 30L36 31L34 31L34 32L33 32L33 35L31 35L31 37L29 37L29 36L28 36L28 37L27 37L27 38L31 38L31 39L32 39L32 40L31 40L31 41L33 41L33 39L32 39L32 38L35 38L35 40L38 40L38 42L37 42L37 43L34 43L34 44L38 44L38 46L37 46L37 45L33 45L33 47L34 47L34 48L35 48L35 47L34 47L34 46L36 46L36 47L37 47L37 49L38 49L38 50L39 50L39 47L38 47L38 46L39 46L39 44L40 44L40 47L41 47L41 46L42 46L42 45L41 45L41 44L40 44L40 43L43 43L43 42L40 42L40 43L39 43L39 44L38 44L38 42L39 42L39 40L38 40L38 39L37 39L37 38L39 38L39 39L40 39L40 38L39 38L39 37L37 37L37 38L36 38L36 36L39 36L39 35L37 35L37 33L38 33L38 34L39 34L39 33L38 33L38 32L40 32L40 33L41 33L41 32L42 32L42 31L41 31L41 32L40 32L40 31L38 31L38 30L37 30L37 29L35 29L35 28L37 28L37 27L38 27L38 26L39 26L39 24L37 24L37 23L34 23L34 22L36 22L36 20L37 20L37 19L38 19L38 20L39 20L39 21L37 21L37 22L39 22L39 21L41 21L41 20L39 20L39 19L38 19L38 18L39 18L39 16L40 16L40 17L42 17L42 16L40 16L40 15L41 15L41 14L42 14L42 13L43 13L43 12L42 12L42 11ZM52 11L52 12L51 12L51 13L53 13L53 11ZM6 13L6 14L5 14L5 15L6 15L6 16L5 16L5 18L7 18L7 17L6 17L6 16L7 16L7 15L8 15L8 17L9 17L9 16L10 16L10 15L9 15L9 14L7 14L7 13ZM46 13L46 14L47 14L47 15L48 15L48 14L49 14L49 13L48 13L48 14L47 14L47 13ZM6 14L6 15L7 15L7 14ZM60 14L60 15L61 15L61 14ZM45 15L45 16L46 16L46 18L49 18L49 17L48 17L48 16L46 16L46 15ZM35 16L35 17L36 17L36 18L33 18L33 20L35 20L35 19L37 19L37 16ZM60 16L60 17L61 17L61 16ZM20 18L20 19L21 19L21 18ZM15 19L15 20L16 20L16 19ZM54 19L54 20L55 20L55 19ZM9 20L9 21L11 21L11 20ZM27 20L27 21L26 21L26 22L28 22L28 23L30 23L30 24L31 24L31 25L32 25L32 26L34 26L34 28L35 28L35 27L36 27L36 26L34 26L34 25L37 25L37 26L38 26L38 25L37 25L37 24L34 24L34 23L33 23L33 25L32 25L32 24L31 24L31 23L32 23L32 22L33 22L33 21L32 21L32 22L31 22L31 21L29 21L29 20ZM48 20L48 21L49 21L49 20ZM50 20L50 21L51 21L51 20ZM18 21L18 22L17 22L17 23L16 23L16 24L17 24L17 25L16 25L16 27L17 27L17 25L18 25L18 24L17 24L17 23L18 23L18 22L19 22L19 21ZM28 21L28 22L29 22L29 21ZM9 23L9 24L10 24L10 25L11 25L11 27L12 27L12 28L14 28L14 26L13 26L13 27L12 27L12 24L14 24L14 23L12 23L12 24L11 24L11 23ZM25 23L25 25L26 25L26 26L27 26L27 27L26 27L26 28L25 28L25 27L24 27L24 28L25 28L25 29L26 29L26 30L27 30L27 29L26 29L26 28L27 28L27 27L29 27L29 24L28 24L28 26L27 26L27 25L26 25L26 23ZM44 23L44 24L45 24L45 25L44 25L44 26L45 26L45 25L46 25L46 24L45 24L45 23ZM40 24L40 25L41 25L41 24ZM19 26L19 27L20 27L20 26ZM50 26L50 27L51 27L51 26ZM3 28L3 30L4 30L4 28ZM5 29L5 32L8 32L8 29ZM29 29L29 32L32 32L32 29ZM53 29L53 32L56 32L56 29ZM57 29L57 30L58 30L58 32L59 32L59 29ZM6 30L6 31L7 31L7 30ZM30 30L30 31L31 31L31 30ZM54 30L54 31L55 31L55 30ZM24 31L24 32L25 32L25 31ZM46 31L46 32L47 32L47 31ZM3 32L3 33L4 33L4 32ZM21 32L21 33L22 33L22 35L23 35L23 33L22 33L22 32ZM35 32L35 34L34 34L34 35L35 35L35 36L36 36L36 33L37 33L37 32ZM0 33L0 34L1 34L1 33ZM13 33L13 34L12 34L12 35L13 35L13 36L12 36L12 37L13 37L13 36L14 36L14 33ZM29 33L29 34L32 34L32 33ZM54 34L54 35L55 35L55 36L56 36L56 35L55 35L55 34ZM10 36L10 37L11 37L11 36ZM19 36L19 37L20 37L20 36ZM32 36L32 37L34 37L34 36ZM14 37L14 38L15 38L15 37ZM2 38L2 39L3 39L3 40L4 40L4 39L3 39L3 38ZM41 38L41 40L40 40L40 41L43 41L43 40L42 40L42 38ZM43 38L43 39L44 39L44 38ZM52 38L52 39L53 39L53 38ZM11 39L11 40L12 40L12 39ZM57 39L57 40L59 40L59 39ZM44 40L44 43L45 43L45 42L48 42L48 41L47 41L47 40ZM21 41L21 42L23 42L23 41ZM34 41L34 42L35 42L35 41ZM31 42L31 43L32 43L32 44L31 44L31 45L32 45L32 44L33 44L33 43L32 43L32 42ZM57 42L57 43L58 43L58 42ZM6 43L6 44L7 44L7 43ZM4 44L4 47L5 47L5 44ZM18 44L18 45L19 45L19 46L18 46L18 47L17 47L17 46L15 46L15 48L14 48L14 49L16 49L16 47L17 47L17 48L18 48L18 49L19 49L19 50L20 50L20 49L22 49L22 48L21 48L21 47L22 47L22 46L23 46L23 45L22 45L22 46L20 46L20 45L21 45L21 44L20 44L20 45L19 45L19 44ZM27 44L27 45L28 45L28 44ZM47 44L47 46L46 46L46 45L45 45L45 46L46 46L46 47L47 47L47 48L48 48L48 49L49 49L49 50L48 50L48 51L52 51L52 50L50 50L50 47L51 47L51 46L50 46L50 44ZM51 44L51 45L52 45L52 44ZM24 45L24 47L25 47L25 45ZM9 46L9 47L10 47L10 46ZM47 46L47 47L48 47L48 48L49 48L49 47L50 47L50 46L49 46L49 47L48 47L48 46ZM44 47L44 48L45 48L45 47ZM0 48L0 50L1 50L1 48ZM19 48L19 49L20 49L20 48ZM54 48L54 49L55 49L55 50L56 50L56 49L57 49L57 48ZM7 50L7 51L10 51L10 52L11 52L11 51L12 51L12 52L13 52L13 50ZM32 50L32 51L33 51L33 50ZM3 51L3 52L4 52L4 51ZM14 51L14 52L15 52L15 53L11 53L11 54L10 54L10 55L11 55L11 56L9 56L9 60L10 60L10 59L14 59L14 58L17 58L17 57L18 57L18 56L17 56L17 55L18 55L18 54L19 54L19 53L20 53L20 54L21 54L21 55L22 55L22 54L21 54L21 52L19 52L19 53L18 53L18 52L17 52L17 53L16 53L16 51ZM27 51L27 52L26 52L26 53L27 53L27 52L28 52L28 51ZM8 52L8 53L9 53L9 52ZM60 52L60 53L61 53L61 52ZM15 53L15 56L13 56L13 55L14 55L14 54L12 54L12 56L11 56L11 58L13 58L13 57L15 57L15 56L16 56L16 57L17 57L17 56L16 56L16 55L17 55L17 54L16 54L16 53ZM29 53L29 56L32 56L32 53ZM43 53L43 54L44 54L44 53ZM53 53L53 56L56 56L56 53ZM30 54L30 55L31 55L31 54ZM54 54L54 55L55 55L55 54ZM12 56L12 57L13 57L13 56ZM53 57L53 58L52 58L52 59L53 59L53 60L54 60L54 59L55 59L55 58L54 58L54 57ZM60 57L60 60L58 60L58 61L61 61L61 57ZM18 58L18 59L20 59L20 58ZM31 59L31 60L32 60L32 59ZM0 0L0 7L7 7L7 0ZM1 1L1 6L6 6L6 1ZM2 2L2 5L5 5L5 2ZM54 0L54 7L61 7L61 0ZM55 1L55 6L60 6L60 1ZM56 2L56 5L59 5L59 2ZM0 54L0 61L7 61L7 54ZM1 55L1 60L6 60L6 55ZM2 56L2 59L5 59L5 56Z" fill="#000000"/></g></g></svg>
