<?xml version="1.0" encoding="UTF-8"?>
<svg xmlns="http://www.w3.org/2000/svg" version="1.1" width="300" height="300" viewBox="0 0 300 300"><rect x="0" y="0" width="300" height="300" fill="#ffffff"/><g transform="scale(4.918)"><g transform="translate(0,0)"><path fill-rule="evenodd" d="M9 0L9 1L8 1L8 2L9 2L9 3L8 3L8 4L9 4L9 5L8 5L8 7L9 7L9 8L6 8L6 9L5 9L5 8L0 8L0 9L1 9L1 11L2 11L2 12L1 12L1 13L0 13L0 14L1 14L1 15L2 15L2 16L0 16L0 17L1 17L1 18L0 18L0 19L1 19L1 18L2 18L2 19L3 19L3 20L1 20L1 21L3 21L3 20L4 20L4 21L5 21L5 23L4 23L4 24L2 24L2 25L4 25L4 27L3 27L3 29L2 29L2 26L1 26L1 25L0 25L0 26L1 26L1 29L0 29L0 30L1 30L1 29L2 29L2 32L1 32L1 31L0 31L0 32L1 32L1 34L0 34L0 35L1 35L1 34L2 34L2 36L3 36L3 34L2 34L2 32L3 32L3 31L4 31L4 36L6 36L6 37L5 37L5 38L6 38L6 39L5 39L5 42L4 42L4 44L6 44L6 45L3 45L3 47L2 47L2 45L1 45L1 49L2 49L2 51L0 51L0 53L4 53L4 52L5 52L5 51L7 51L7 52L6 52L6 53L7 53L7 52L8 52L8 55L9 55L9 56L8 56L8 61L10 61L10 60L9 60L9 58L10 58L10 55L12 55L12 56L11 56L11 57L12 57L12 58L11 58L11 61L14 61L14 60L12 60L12 58L13 58L13 59L16 59L16 58L15 58L15 57L16 57L16 56L15 56L15 57L14 57L14 56L13 56L13 54L15 54L15 55L18 55L18 53L19 53L19 52L20 52L20 53L22 53L22 54L23 54L23 55L24 55L24 54L25 54L25 53L26 53L26 54L27 54L27 53L28 53L28 56L27 56L27 55L25 55L25 57L24 57L24 56L23 56L23 57L21 57L21 54L20 54L20 56L19 56L19 57L18 57L18 56L17 56L17 57L18 57L18 58L17 58L17 59L18 59L18 61L19 61L19 59L20 59L20 61L21 61L21 59L23 59L23 57L24 57L24 58L25 58L25 57L26 57L26 59L24 59L24 60L26 60L26 59L27 59L27 60L29 60L29 58L31 58L31 59L30 59L30 60L31 60L31 61L32 61L32 60L33 60L33 61L34 61L34 59L35 59L35 58L34 58L34 57L37 57L37 58L36 58L36 60L35 60L35 61L37 61L37 60L38 60L38 61L40 61L40 60L41 60L41 61L44 61L44 60L45 60L45 61L49 61L49 60L51 60L51 59L52 59L52 58L53 58L53 60L52 60L52 61L53 61L53 60L55 60L55 61L56 61L56 60L55 60L55 58L53 58L53 57L56 57L56 58L59 58L59 56L61 56L61 54L59 54L59 56L58 56L58 57L57 57L57 53L59 53L59 52L54 52L54 51L61 51L61 50L60 50L60 49L59 49L59 48L58 48L58 50L56 50L56 49L57 49L57 48L56 48L56 49L55 49L55 48L54 48L54 47L57 47L57 46L56 46L56 45L59 45L59 44L60 44L60 45L61 45L61 42L60 42L60 39L61 39L61 38L58 38L58 37L61 37L61 34L60 34L60 33L59 33L59 32L61 32L61 30L59 30L59 28L61 28L61 26L60 26L60 24L58 24L58 25L57 25L57 26L58 26L58 25L59 25L59 28L57 28L57 27L56 27L56 24L57 24L57 23L61 23L61 22L58 22L58 21L59 21L59 20L57 20L57 17L61 17L61 16L60 16L60 15L61 15L61 14L60 14L60 13L59 13L59 12L60 12L60 11L61 11L61 10L60 10L60 11L59 11L59 9L60 9L60 8L59 8L59 9L58 9L58 8L57 8L57 9L56 9L56 8L55 8L55 9L54 9L54 8L52 8L52 9L51 9L51 5L52 5L52 4L53 4L53 0L51 0L51 2L50 2L50 3L48 3L48 4L47 4L47 3L46 3L46 2L47 2L47 1L46 1L46 0L44 0L44 1L46 1L46 2L44 2L44 3L45 3L45 4L44 4L44 8L47 8L47 9L48 9L48 10L45 10L45 9L44 9L44 10L45 10L45 11L42 11L42 10L43 10L43 9L42 9L42 10L38 10L38 9L39 9L39 8L41 8L41 6L40 6L40 3L41 3L41 2L42 2L42 1L43 1L43 0L42 0L42 1L41 1L41 0L39 0L39 1L36 1L36 2L35 2L35 1L33 1L33 0L32 0L32 1L31 1L31 0L30 0L30 1L29 1L29 2L27 2L27 0L26 0L26 3L27 3L27 4L26 4L26 5L27 5L27 6L26 6L26 8L28 8L28 9L21 9L21 8L22 8L22 7L23 7L23 4L21 4L21 3L25 3L25 2L24 2L24 1L25 1L25 0L21 0L21 1L20 1L20 2L21 2L21 3L20 3L20 4L19 4L19 1L18 1L18 0L16 0L16 1L15 1L15 2L16 2L16 3L15 3L15 4L14 4L14 3L13 3L13 2L14 2L14 1L12 1L12 0L11 0L11 1L10 1L10 0ZM48 0L48 2L49 2L49 0ZM11 1L11 2L10 2L10 4L11 4L11 3L12 3L12 4L13 4L13 5L14 5L14 4L13 4L13 3L12 3L12 1ZM17 1L17 2L18 2L18 1ZM21 1L21 2L22 2L22 1ZM30 1L30 2L31 2L31 1ZM32 1L32 2L33 2L33 1ZM34 2L34 3L35 3L35 2ZM36 2L36 3L37 3L37 4L33 4L33 3L29 3L29 4L33 4L33 5L35 5L35 8L37 8L37 9L38 9L38 8L37 8L37 7L38 7L38 6L37 6L37 7L36 7L36 5L39 5L39 3L38 3L38 2ZM51 3L51 4L52 4L52 3ZM16 4L16 5L17 5L17 4ZM18 4L18 6L17 6L17 7L18 7L18 6L19 6L19 8L21 8L21 7L22 7L22 5L21 5L21 4L20 4L20 6L19 6L19 4ZM24 4L24 5L25 5L25 4ZM27 4L27 5L28 5L28 4ZM42 4L42 5L43 5L43 4ZM46 4L46 5L47 5L47 8L49 8L49 9L50 9L50 14L49 14L49 13L48 13L48 12L49 12L49 11L46 11L46 12L47 12L47 13L45 13L45 12L42 12L42 11L41 11L41 12L40 12L40 11L38 11L38 10L37 10L37 11L35 11L35 12L34 12L34 11L33 11L33 10L35 10L35 9L33 9L33 10L32 10L32 9L31 9L31 10L32 10L32 11L31 11L31 12L30 12L30 14L29 14L29 11L28 11L28 12L27 12L27 10L26 10L26 13L27 13L27 14L26 14L26 15L25 15L25 14L22 14L22 15L21 15L21 17L20 17L20 16L19 16L19 13L20 13L20 14L21 14L21 13L20 13L20 12L19 12L19 10L18 10L18 8L17 8L17 9L16 9L16 10L14 10L14 9L15 9L15 7L16 7L16 6L15 6L15 7L14 7L14 6L13 6L13 7L12 7L12 5L9 5L9 7L10 7L10 8L9 8L9 9L6 9L6 10L7 10L7 11L6 11L6 12L8 12L8 14L7 14L7 13L5 13L5 14L7 14L7 15L6 15L6 16L5 16L5 15L3 15L3 14L4 14L4 13L3 13L3 12L5 12L5 11L4 11L4 10L5 10L5 9L4 9L4 10L3 10L3 12L2 12L2 13L1 13L1 14L2 14L2 15L3 15L3 16L5 16L5 18L4 18L4 17L3 17L3 18L4 18L4 19L5 19L5 18L8 18L8 19L6 19L6 20L7 20L7 21L6 21L6 22L9 22L9 20L11 20L11 21L10 21L10 22L11 22L11 23L12 23L12 24L11 24L11 25L14 25L14 26L13 26L13 28L14 28L14 27L15 27L15 26L18 26L18 25L19 25L19 24L20 24L20 23L19 23L19 21L20 21L20 22L21 22L21 21L23 21L23 23L21 23L21 25L20 25L20 26L19 26L19 28L20 28L20 32L19 32L19 31L18 31L18 30L19 30L19 29L18 29L18 28L17 28L17 27L16 27L16 28L17 28L17 29L15 29L15 30L13 30L13 29L12 29L12 30L11 30L11 29L10 29L10 28L9 28L9 27L11 27L11 28L12 28L12 26L9 26L9 24L10 24L10 23L9 23L9 24L8 24L8 23L5 23L5 26L9 26L9 27L8 27L8 28L9 28L9 29L10 29L10 30L11 30L11 31L9 31L9 32L11 32L11 33L10 33L10 34L11 34L11 36L10 36L10 37L9 37L9 39L11 39L11 42L12 42L12 41L13 41L13 43L10 43L10 44L9 44L9 45L8 45L8 44L7 44L7 43L6 43L6 42L8 42L8 43L9 43L9 42L8 42L8 41L6 41L6 42L5 42L5 43L6 43L6 44L7 44L7 45L6 45L6 46L7 46L7 45L8 45L8 47L6 47L6 48L8 48L8 49L6 49L6 50L7 50L7 51L8 51L8 49L9 49L9 50L10 50L10 51L9 51L9 55L10 55L10 53L11 53L11 52L10 52L10 51L12 51L12 52L13 52L13 53L12 53L12 54L13 54L13 53L15 53L15 54L17 54L17 53L15 53L15 51L16 51L16 52L17 52L17 51L21 51L21 49L27 49L27 50L25 50L25 51L26 51L26 53L27 53L27 52L30 52L30 51L31 51L31 50L32 50L32 52L34 52L34 53L33 53L33 54L35 54L35 55L34 55L34 56L35 56L35 55L36 55L36 56L37 56L37 54L39 54L39 52L40 52L40 55L41 55L41 56L39 56L39 57L38 57L38 58L41 58L41 60L44 60L44 59L45 59L45 58L48 58L48 57L47 57L47 56L49 56L49 59L46 59L46 60L49 60L49 59L50 59L50 58L51 58L51 56L52 56L52 55L50 55L50 54L51 54L51 52L52 52L52 51L53 51L53 50L55 50L55 49L54 49L54 48L53 48L53 49L50 49L50 48L52 48L52 47L53 47L53 46L52 46L52 47L50 47L50 46L51 46L51 44L52 44L52 45L54 45L54 44L55 44L55 45L56 45L56 44L59 44L59 43L60 43L60 42L58 42L58 41L56 41L56 40L59 40L59 39L56 39L56 38L57 38L57 37L54 37L54 36L56 36L56 35L57 35L57 36L60 36L60 35L59 35L59 34L57 34L57 33L56 33L56 34L55 34L55 33L53 33L53 34L52 34L52 35L50 35L50 34L51 34L51 33L52 33L52 32L49 32L49 31L50 31L50 30L51 30L51 31L52 31L52 29L50 29L50 30L47 30L47 27L48 27L48 28L49 28L49 27L50 27L50 28L51 28L51 27L50 27L50 26L51 26L51 25L52 25L52 26L53 26L53 27L52 27L52 28L56 28L56 27L55 27L55 26L53 26L53 25L55 25L55 24L53 24L53 23L55 23L55 22L54 22L54 21L56 21L56 23L57 23L57 20L56 20L56 17L57 17L57 16L59 16L59 13L58 13L58 14L57 14L57 16L56 16L56 17L55 17L55 14L54 14L54 13L55 13L55 12L54 12L54 11L57 11L57 12L56 12L56 13L57 13L57 12L59 12L59 11L57 11L57 10L58 10L58 9L57 9L57 10L56 10L56 9L55 9L55 10L54 10L54 11L53 11L53 13L51 13L51 9L50 9L50 8L49 8L49 7L50 7L50 5L49 5L49 4L48 4L48 5L47 5L47 4ZM29 5L29 8L32 8L32 5ZM10 6L10 7L11 7L11 9L9 9L9 11L8 11L8 12L9 12L9 14L8 14L8 15L7 15L7 16L6 16L6 17L7 17L7 16L9 16L9 17L10 17L10 19L11 19L11 20L12 20L12 21L11 21L11 22L12 22L12 23L13 23L13 24L14 24L14 25L15 25L15 24L16 24L16 25L18 25L18 24L16 24L16 23L18 23L18 21L19 21L19 20L20 20L20 21L21 21L21 20L20 20L20 18L18 18L18 19L19 19L19 20L16 20L16 19L15 19L15 20L16 20L16 21L15 21L15 22L14 22L14 21L13 21L13 19L14 19L14 17L13 17L13 19L11 19L11 17L12 17L12 16L14 16L14 15L13 15L13 14L14 14L14 12L15 12L15 11L14 11L14 12L13 12L13 11L12 11L12 7L11 7L11 6ZM20 6L20 7L21 7L21 6ZM24 6L24 8L25 8L25 6ZM27 6L27 7L28 7L28 6ZM30 6L30 7L31 7L31 6ZM33 6L33 8L34 8L34 6ZM39 6L39 7L40 7L40 6ZM42 6L42 8L43 8L43 6ZM45 6L45 7L46 7L46 6ZM48 6L48 7L49 7L49 6ZM52 6L52 7L53 7L53 6ZM20 9L20 11L22 11L22 13L25 13L25 12L24 12L24 11L25 11L25 10L23 10L23 11L22 11L22 10L21 10L21 9ZM28 9L28 10L29 10L29 9ZM52 9L52 10L53 10L53 9ZM10 10L10 12L12 12L12 11L11 11L11 10ZM17 10L17 11L16 11L16 13L19 13L19 12L17 12L17 11L18 11L18 10ZM32 11L32 12L31 12L31 13L32 13L32 14L31 14L31 15L29 15L29 14L28 14L28 15L27 15L27 17L26 17L26 18L27 18L27 19L26 19L26 20L25 20L25 17L21 17L21 18L22 18L22 20L25 20L25 21L24 21L24 22L25 22L25 21L26 21L26 20L27 20L27 22L26 22L26 24L27 24L27 25L26 25L26 26L27 26L27 27L26 27L26 28L25 28L25 29L24 29L24 31L23 31L23 29L21 29L21 30L22 30L22 31L21 31L21 32L20 32L20 33L19 33L19 32L17 32L17 30L15 30L15 31L16 31L16 32L13 32L13 30L12 30L12 31L11 31L11 32L13 32L13 35L14 35L14 33L16 33L16 34L15 34L15 35L16 35L16 36L15 36L15 38L14 38L14 36L11 36L11 37L13 37L13 38L11 38L11 39L12 39L12 40L13 40L13 38L14 38L14 41L15 41L15 43L14 43L14 45L17 45L17 44L15 44L15 43L17 43L17 42L18 42L18 43L21 43L21 44L18 44L18 45L19 45L19 46L18 46L18 47L17 47L17 46L13 46L13 45L12 45L12 44L11 44L11 45L10 45L10 47L11 47L11 48L10 48L10 50L12 50L12 48L13 48L13 47L14 47L14 49L15 49L15 50L14 50L14 51L13 51L13 52L14 52L14 51L15 51L15 50L16 50L16 49L15 49L15 48L16 48L16 47L17 47L17 48L18 48L18 49L17 49L17 50L18 50L18 49L19 49L19 50L20 50L20 49L21 49L21 48L20 48L20 45L21 45L21 47L22 47L22 46L23 46L23 45L21 45L21 44L22 44L22 43L23 43L23 44L25 44L25 45L24 45L24 46L26 46L26 48L28 48L28 50L27 50L27 51L28 51L28 50L29 50L29 51L30 51L30 49L32 49L32 50L33 50L33 49L32 49L32 47L33 47L33 45L35 45L35 46L34 46L34 47L35 47L35 46L36 46L36 47L37 47L37 48L36 48L36 49L37 49L37 48L41 48L41 47L42 47L42 46L44 46L44 48L43 48L43 49L41 49L41 50L38 50L38 52L36 52L36 51L37 51L37 50L36 50L36 51L35 51L35 50L34 50L34 51L35 51L35 52L36 52L36 54L37 54L37 53L38 53L38 52L39 52L39 51L40 51L40 52L42 52L42 54L43 54L43 55L42 55L42 56L43 56L43 57L41 57L41 58L43 58L43 59L44 59L44 56L45 56L45 57L46 57L46 56L45 56L45 55L46 55L46 54L45 54L45 53L44 53L44 52L43 52L43 51L41 51L41 50L44 50L44 51L45 51L45 52L46 52L46 53L47 53L47 52L46 52L46 51L47 51L47 50L46 50L46 51L45 51L45 50L44 50L44 48L45 48L45 49L47 49L47 48L48 48L48 49L49 49L49 50L48 50L48 51L49 51L49 50L50 50L50 52L48 52L48 53L49 53L49 54L47 54L47 55L49 55L49 56L50 56L50 55L49 55L49 54L50 54L50 52L51 52L51 51L52 51L52 50L50 50L50 49L49 49L49 48L48 48L48 47L49 47L49 46L50 46L50 44L47 44L47 46L46 46L46 47L45 47L45 46L44 46L44 44L46 44L46 43L49 43L49 42L50 42L50 43L51 43L51 42L53 42L53 44L54 44L54 43L55 43L55 44L56 44L56 43L55 43L55 42L56 42L56 41L55 41L55 40L54 40L54 41L55 41L55 42L53 42L53 41L52 41L52 40L51 40L51 38L52 38L52 37L53 37L53 35L52 35L52 36L50 36L50 37L49 37L49 36L48 36L48 35L47 35L47 34L46 34L46 32L48 32L48 33L49 33L49 32L48 32L48 31L47 31L47 30L45 30L45 29L46 29L46 28L45 28L45 27L47 27L47 26L48 26L48 27L49 27L49 26L50 26L50 25L51 25L51 24L52 24L52 25L53 25L53 24L52 24L52 23L53 23L53 22L50 22L50 20L48 20L48 19L49 19L49 16L48 16L48 15L49 15L49 14L48 14L48 13L47 13L47 14L46 14L46 15L47 15L47 16L48 16L48 17L47 17L47 18L46 18L46 16L45 16L45 15L44 15L44 16L45 16L45 17L44 17L44 18L43 18L43 17L42 17L42 18L43 18L43 19L42 19L42 20L45 20L45 21L44 21L44 22L45 22L45 23L43 23L43 25L41 25L41 27L40 27L40 28L38 28L38 27L39 27L39 26L38 26L38 25L39 25L39 24L41 24L41 23L42 23L42 22L43 22L43 21L42 21L42 22L41 22L41 23L40 23L40 20L41 20L41 19L40 19L40 18L41 18L41 17L40 17L40 16L41 16L41 15L42 15L42 14L43 14L43 13L42 13L42 14L41 14L41 13L40 13L40 12L39 12L39 13L40 13L40 14L39 14L39 15L40 15L40 16L38 16L38 17L39 17L39 18L37 18L37 16L36 16L36 18L33 18L33 17L34 17L34 16L35 16L35 15L36 15L36 14L38 14L38 13L37 13L37 12L36 12L36 14L34 14L34 13L33 13L33 11ZM10 13L10 15L11 15L11 16L10 16L10 17L11 17L11 16L12 16L12 15L11 15L11 14L13 14L13 13ZM44 13L44 14L45 14L45 13ZM32 14L32 15L31 15L31 16L29 16L29 15L28 15L28 16L29 16L29 17L28 17L28 18L30 18L30 17L31 17L31 18L32 18L32 20L29 20L29 19L27 19L27 20L29 20L29 21L28 21L28 23L27 23L27 24L28 24L28 26L29 26L29 27L27 27L27 28L26 28L26 29L27 29L27 28L29 28L29 27L30 27L30 25L31 25L31 26L32 26L32 27L33 27L33 28L34 28L34 30L35 30L35 32L33 32L33 34L35 34L35 35L34 35L34 36L33 36L33 35L32 35L32 34L31 34L31 33L27 33L27 32L26 32L26 31L28 31L28 30L25 30L25 31L24 31L24 32L23 32L23 31L22 31L22 32L21 32L21 33L20 33L20 34L19 34L19 33L17 33L17 32L16 32L16 33L17 33L17 36L19 36L19 37L16 37L16 38L15 38L15 40L17 40L17 41L16 41L16 42L17 42L17 41L18 41L18 40L17 40L17 39L18 39L18 38L19 38L19 42L21 42L21 43L22 43L22 42L21 42L21 41L23 41L23 43L25 43L25 44L26 44L26 45L27 45L27 46L28 46L28 45L27 45L27 44L26 44L26 43L27 43L27 42L29 42L29 43L28 43L28 44L29 44L29 45L30 45L30 46L29 46L29 47L28 47L28 48L29 48L29 47L30 47L30 46L31 46L31 47L32 47L32 44L33 44L33 43L32 43L32 42L31 42L31 41L34 41L34 42L35 42L35 43L34 43L34 44L35 44L35 45L36 45L36 44L40 44L40 46L42 46L42 43L43 43L43 44L44 44L44 43L46 43L46 42L47 42L47 39L48 39L48 40L50 40L50 42L51 42L51 40L50 40L50 38L51 38L51 37L50 37L50 38L49 38L49 37L48 37L48 36L47 36L47 35L46 35L46 36L47 36L47 37L45 37L45 36L44 36L44 35L43 35L43 36L42 36L42 35L41 35L41 33L43 33L43 32L44 32L44 33L45 33L45 32L46 32L46 31L45 31L45 30L44 30L44 29L45 29L45 28L44 28L44 27L45 27L45 26L47 26L47 25L45 25L45 24L46 24L46 23L45 23L45 24L44 24L44 27L43 27L43 26L42 26L42 27L41 27L41 28L40 28L40 29L41 29L41 30L40 30L40 31L41 31L41 32L40 32L40 34L39 34L39 32L38 32L38 31L39 31L39 29L38 29L38 28L37 28L37 27L38 27L38 26L37 26L37 25L34 25L34 23L33 23L33 22L36 22L36 20L37 20L37 18L36 18L36 19L35 19L35 21L33 21L33 20L34 20L34 19L33 19L33 18L32 18L32 17L33 17L33 16L34 16L34 15L33 15L33 14ZM40 14L40 15L41 15L41 14ZM47 14L47 15L48 15L48 14ZM50 14L50 15L52 15L52 16L50 16L50 17L54 17L54 18L55 18L55 17L54 17L54 16L53 16L53 15L54 15L54 14ZM15 15L15 16L16 16L16 15ZM24 15L24 16L25 16L25 15ZM18 16L18 17L19 17L19 16ZM31 16L31 17L32 17L32 16ZM15 17L15 18L16 18L16 17ZM47 18L47 19L48 19L48 18ZM50 18L50 19L51 19L51 18ZM52 18L52 21L53 21L53 18ZM59 18L59 19L61 19L61 18ZM38 19L38 20L40 20L40 19ZM45 19L45 20L46 20L46 22L47 22L47 23L48 23L48 24L49 24L49 21L47 21L47 20L46 20L46 19ZM54 19L54 20L55 20L55 19ZM60 20L60 21L61 21L61 20ZM12 21L12 22L13 22L13 21ZM16 21L16 22L17 22L17 21ZM29 21L29 23L30 23L30 24L31 24L31 23L32 23L32 24L33 24L33 23L32 23L32 21ZM37 21L37 22L39 22L39 21ZM1 22L1 23L3 23L3 22ZM14 23L14 24L15 24L15 23ZM24 23L24 24L25 24L25 23ZM35 23L35 24L39 24L39 23ZM6 24L6 25L8 25L8 24ZM21 25L21 26L20 26L20 27L21 27L21 28L24 28L24 27L25 27L25 25L24 25L24 27L22 27L22 26L23 26L23 25ZM32 25L32 26L33 26L33 27L34 27L34 28L35 28L35 26L33 26L33 25ZM48 25L48 26L49 26L49 25ZM36 26L36 27L37 27L37 26ZM6 27L6 28L7 28L7 27ZM42 27L42 28L41 28L41 29L42 29L42 30L41 30L41 31L42 31L42 32L43 32L43 31L44 31L44 32L45 32L45 31L44 31L44 30L43 30L43 27ZM36 28L36 29L37 29L37 30L36 30L36 31L37 31L37 30L38 30L38 29L37 29L37 28ZM5 29L5 32L8 32L8 29ZM29 29L29 32L32 32L32 29ZM53 29L53 32L56 32L56 29ZM6 30L6 31L7 31L7 30ZM30 30L30 31L31 31L31 30ZM42 30L42 31L43 31L43 30ZM54 30L54 31L55 31L55 30ZM57 31L57 32L59 32L59 31ZM36 32L36 33L37 33L37 32ZM5 33L5 34L7 34L7 35L6 35L6 36L7 36L7 37L6 37L6 38L7 38L7 39L6 39L6 40L8 40L8 36L9 36L9 34L8 34L8 33ZM11 33L11 34L12 34L12 33ZM21 33L21 34L22 34L22 35L23 35L23 37L22 37L22 36L21 36L21 35L19 35L19 34L18 34L18 35L19 35L19 36L21 36L21 38L20 38L20 37L19 37L19 38L20 38L20 39L21 39L21 40L20 40L20 41L21 41L21 40L23 40L23 39L24 39L24 40L25 40L25 41L24 41L24 42L27 42L27 41L26 41L26 40L27 40L27 39L29 39L29 41L31 41L31 40L32 40L32 39L33 39L33 36L32 36L32 35L31 35L31 34L30 34L30 35L28 35L28 34L27 34L27 33ZM23 34L23 35L24 35L24 37L25 37L25 40L26 40L26 39L27 39L27 38L30 38L30 39L32 39L32 38L31 38L31 37L29 37L29 36L28 36L28 37L27 37L27 34L26 34L26 35L25 35L25 34ZM36 34L36 35L35 35L35 36L36 36L36 37L35 37L35 38L34 38L34 40L35 40L35 41L36 41L36 43L37 43L37 42L38 42L38 43L39 43L39 42L38 42L38 41L37 41L37 40L36 40L36 39L38 39L38 40L39 40L39 38L36 38L36 37L37 37L37 36L36 36L36 35L37 35L37 34ZM38 34L38 36L39 36L39 37L40 37L40 36L41 36L41 35L40 35L40 36L39 36L39 34ZM54 34L54 35L55 35L55 34ZM7 35L7 36L8 36L8 35ZM0 36L0 38L2 38L2 39L1 39L1 40L0 40L0 41L1 41L1 42L0 42L0 44L2 44L2 43L1 43L1 42L3 42L3 41L4 41L4 40L3 40L3 41L2 41L2 39L3 39L3 38L4 38L4 37L3 37L3 38L2 38L2 37L1 37L1 36ZM25 36L25 37L26 37L26 38L27 38L27 37L26 37L26 36ZM42 37L42 38L41 38L41 39L40 39L40 40L41 40L41 41L40 41L40 42L41 42L41 41L42 41L42 42L45 42L45 41L44 41L44 40L46 40L46 38L44 38L44 37ZM22 38L22 39L23 39L23 38ZM42 38L42 39L41 39L41 40L42 40L42 41L43 41L43 40L44 40L44 38ZM48 38L48 39L49 39L49 38ZM53 38L53 39L55 39L55 38ZM9 40L9 41L10 41L10 40ZM30 42L30 43L31 43L31 42ZM57 42L57 43L58 43L58 42ZM40 43L40 44L41 44L41 43ZM30 44L30 45L31 45L31 44ZM38 45L38 46L37 46L37 47L39 47L39 45ZM11 46L11 47L13 47L13 46ZM47 46L47 47L46 47L46 48L47 48L47 47L48 47L48 46ZM59 46L59 47L61 47L61 46ZM8 47L8 48L9 48L9 47ZM18 47L18 48L19 48L19 49L20 49L20 48L19 48L19 47ZM24 47L24 48L25 48L25 47ZM2 48L2 49L3 49L3 48ZM4 48L4 50L5 50L5 48ZM22 50L22 51L23 51L23 50ZM3 51L3 52L4 52L4 51ZM22 52L22 53L25 53L25 52ZM60 52L60 53L61 53L61 52ZM29 53L29 56L32 56L32 53ZM43 53L43 54L44 54L44 53ZM53 53L53 56L56 56L56 53ZM30 54L30 55L31 55L31 54ZM54 54L54 55L55 55L55 54ZM26 56L26 57L27 57L27 56ZM20 57L20 59L21 59L21 57ZM32 57L32 59L31 59L31 60L32 60L32 59L34 59L34 58L33 58L33 57ZM60 57L60 60L58 60L58 61L61 61L61 57ZM18 58L18 59L19 59L19 58ZM38 59L38 60L40 60L40 59ZM15 60L15 61L17 61L17 60ZM0 0L0 7L7 7L7 0ZM1 1L1 6L6 6L6 1ZM2 2L2 5L5 5L5 2ZM54 0L54 7L61 7L61 0ZM55 1L55 6L60 6L60 1ZM56 2L56 5L59 5L59 2ZM0 54L0 61L7 61L7 54ZM1 55L1 60L6 60L6 55ZM2 56L2 59L5 59L5 56Z" fill="#000000"/></g></g></svg>
