<?xml version="1.0" encoding="UTF-8"?>
<svg xmlns="http://www.w3.org/2000/svg" version="1.1" width="300" height="300" viewBox="0 0 300 300"><rect x="0" y="0" width="300" height="300" fill="#ffffff"/><g transform="scale(4.918)"><g transform="translate(0,0)"><path fill-rule="evenodd" d="M9 0L9 1L8 1L8 2L9 2L9 3L8 3L8 4L9 4L9 5L8 5L8 7L9 7L9 5L10 5L10 4L11 4L11 3L12 3L12 2L11 2L11 1L13 1L13 0ZM16 0L16 1L15 1L15 2L16 2L16 4L14 4L14 2L13 2L13 4L12 4L12 7L11 7L11 6L10 6L10 8L12 8L12 9L10 9L10 11L9 11L9 8L6 8L6 9L5 9L5 8L0 8L0 10L1 10L1 11L0 11L0 15L2 15L2 12L1 12L1 11L3 11L3 10L5 10L5 11L7 11L7 12L5 12L5 16L4 16L4 15L3 15L3 16L2 16L2 17L0 17L0 20L1 20L1 23L2 23L2 25L1 25L1 24L0 24L0 28L1 28L1 29L4 29L4 30L3 30L3 31L4 31L4 32L2 32L2 30L1 30L1 31L0 31L0 34L2 34L2 35L0 35L0 38L2 38L2 40L1 40L1 41L0 41L0 43L1 43L1 44L4 44L4 43L8 43L8 44L9 44L9 45L8 45L8 46L6 46L6 45L7 45L7 44L5 44L5 45L3 45L3 46L1 46L1 47L2 47L2 48L1 48L1 49L0 49L0 50L2 50L2 51L0 51L0 53L4 53L4 52L5 52L5 51L7 51L7 52L6 52L6 53L7 53L7 52L9 52L9 53L8 53L8 55L9 55L9 53L11 53L11 52L9 52L9 50L10 50L10 49L9 49L9 45L10 45L10 46L11 46L11 47L10 47L10 48L11 48L11 49L12 49L12 51L13 51L13 49L14 49L14 48L13 48L13 47L16 47L16 48L17 48L17 49L19 49L19 50L18 50L18 51L19 51L19 52L16 52L16 51L15 51L15 50L16 50L16 49L15 49L15 50L14 50L14 52L12 52L12 55L11 55L11 54L10 54L10 55L11 55L11 56L12 56L12 57L10 57L10 58L9 58L9 56L8 56L8 61L11 61L11 60L12 60L12 61L14 61L14 59L15 59L15 61L17 61L17 60L16 60L16 59L17 59L17 58L16 58L16 57L18 57L18 59L19 59L19 60L18 60L18 61L19 61L19 60L20 60L20 61L21 61L21 60L22 60L22 59L23 59L23 57L24 57L24 58L25 58L25 60L26 60L26 58L27 58L27 61L28 61L28 60L29 60L29 61L32 61L32 60L33 60L33 61L37 61L37 60L34 60L34 59L35 59L35 58L34 58L34 57L36 57L36 59L37 59L37 58L38 58L38 59L39 59L39 58L40 58L40 57L39 57L39 56L41 56L41 58L45 58L45 57L44 57L44 56L46 56L46 54L45 54L45 53L51 53L51 54L50 54L50 55L49 55L49 54L48 54L48 55L49 55L49 56L47 56L47 57L49 57L49 56L50 56L50 55L52 55L52 56L51 56L51 57L52 57L52 58L53 58L53 57L54 57L54 58L55 58L55 59L53 59L53 60L55 60L55 61L56 61L56 58L57 58L57 59L58 59L58 58L59 58L59 57L60 57L60 60L57 60L57 61L61 61L61 54L59 54L59 55L60 55L60 56L58 56L58 58L57 58L57 53L60 53L60 52L61 52L61 50L60 50L60 52L58 52L58 51L59 51L59 50L58 50L58 49L59 49L59 48L55 48L55 50L54 50L54 51L55 51L55 50L56 50L56 51L57 51L57 52L53 52L53 51L52 51L52 50L50 50L50 52L48 52L48 51L49 51L49 50L48 50L48 51L47 51L47 50L46 50L46 51L45 51L45 53L44 53L44 52L43 52L43 51L44 51L44 50L43 50L43 49L44 49L44 48L45 48L45 47L44 47L44 48L43 48L43 47L42 47L42 46L43 46L43 44L45 44L45 45L44 45L44 46L46 46L46 47L47 47L47 48L48 48L48 49L49 49L49 48L51 48L51 49L52 49L52 48L54 48L54 47L61 47L61 46L59 46L59 44L60 44L60 45L61 45L61 42L60 42L60 41L59 41L59 40L61 40L61 38L58 38L58 37L59 37L59 36L58 36L58 37L57 37L57 35L56 35L56 34L54 34L54 35L52 35L52 34L50 34L50 37L49 37L49 36L47 36L47 34L46 34L46 36L45 36L45 37L44 37L44 36L43 36L43 35L42 35L42 38L41 38L41 37L39 37L39 38L37 38L37 36L36 36L36 35L35 35L35 34L37 34L37 32L39 32L39 34L38 34L38 36L40 36L40 34L41 34L41 33L40 33L40 32L41 32L41 31L42 31L42 30L43 30L43 29L42 29L42 30L41 30L41 31L40 31L40 32L39 32L39 30L40 30L40 28L41 28L41 25L42 25L42 26L43 26L43 25L42 25L42 24L41 24L41 23L42 23L42 22L44 22L44 24L47 24L47 26L45 26L45 25L44 25L44 26L45 26L45 27L42 27L42 28L45 28L45 29L44 29L44 30L45 30L45 31L44 31L44 32L43 32L43 33L42 33L42 34L44 34L44 35L45 35L45 34L44 34L44 32L45 32L45 33L47 33L47 32L48 32L48 33L51 33L51 32L52 32L52 33L57 33L57 34L58 34L58 33L59 33L59 35L61 35L61 34L60 34L60 33L61 33L61 30L59 30L59 31L60 31L60 32L57 32L57 30L58 30L58 29L61 29L61 26L60 26L60 23L61 23L61 22L58 22L58 21L61 21L61 18L60 18L60 17L61 17L61 14L58 14L58 13L59 13L59 12L60 12L60 11L61 11L61 10L60 10L60 11L59 11L59 9L60 9L60 8L59 8L59 9L58 9L58 8L57 8L57 9L56 9L56 8L55 8L55 9L54 9L54 8L52 8L52 9L51 9L51 5L52 5L52 4L53 4L53 0L51 0L51 2L50 2L50 4L49 4L49 3L46 3L46 2L49 2L49 1L50 1L50 0L49 0L49 1L46 1L46 0L44 0L44 1L43 1L43 0L42 0L42 1L43 1L43 2L42 2L42 5L41 5L41 4L39 4L39 3L40 3L40 1L37 1L37 0L35 0L35 2L33 2L33 3L35 3L35 2L37 2L37 3L36 3L36 4L37 4L37 3L38 3L38 4L39 4L39 5L33 5L33 4L32 4L32 3L31 3L31 2L32 2L32 1L33 1L33 0L32 0L32 1L31 1L31 0L30 0L30 1L27 1L27 0L26 0L26 1L25 1L25 0L22 0L22 2L21 2L21 3L20 3L20 1L19 1L19 3L18 3L18 1L17 1L17 0ZM9 1L9 2L10 2L10 1ZM26 1L26 2L27 2L27 1ZM23 2L23 3L21 3L21 4L20 4L20 6L19 6L19 9L23 9L23 10L22 10L22 11L24 11L24 12L22 12L22 13L25 13L25 14L22 14L22 15L21 15L21 12L20 12L20 16L19 16L19 15L18 15L18 14L19 14L19 13L18 13L18 14L17 14L17 13L15 13L15 12L14 12L14 9L15 9L15 10L17 10L17 11L16 11L16 12L17 12L17 11L18 11L18 12L19 12L19 11L20 11L20 10L19 10L19 11L18 11L18 10L17 10L17 9L18 9L18 8L17 8L17 7L18 7L18 5L19 5L19 4L16 4L16 5L17 5L17 7L16 7L16 6L15 6L15 7L14 7L14 6L13 6L13 7L14 7L14 8L13 8L13 10L11 10L11 11L10 11L10 14L9 14L9 13L8 13L8 12L7 12L7 13L6 13L6 14L7 14L7 15L6 15L6 16L7 16L7 15L10 15L10 14L11 14L11 11L13 11L13 12L12 12L12 14L13 14L13 15L14 15L14 16L12 16L12 15L11 15L11 16L9 16L9 19L8 19L8 20L9 20L9 21L5 21L5 22L2 22L2 23L3 23L3 24L4 24L4 23L5 23L5 22L9 22L9 23L10 23L10 24L8 24L8 23L6 23L6 24L5 24L5 25L4 25L4 27L5 27L5 25L6 25L6 26L7 26L7 27L6 27L6 28L7 28L7 27L8 27L8 28L9 28L9 29L10 29L10 30L9 30L9 33L10 33L10 32L11 32L11 34L10 34L10 35L9 35L9 34L8 34L8 33L5 33L5 35L6 35L6 36L7 36L7 37L6 37L6 38L4 38L4 36L2 36L2 38L4 38L4 39L6 39L6 40L3 40L3 41L4 41L4 42L5 42L5 41L6 41L6 42L7 42L7 41L9 41L9 43L13 43L13 46L12 46L12 47L13 47L13 46L14 46L14 45L15 45L15 43L14 43L14 42L17 42L17 41L18 41L18 40L17 40L17 39L18 39L18 38L19 38L19 41L23 41L23 42L22 42L22 43L23 43L23 42L24 42L24 41L25 41L25 44L21 44L21 45L20 45L20 44L19 44L19 45L18 45L18 44L17 44L17 43L16 43L16 44L17 44L17 45L16 45L16 47L17 47L17 48L19 48L19 49L20 49L20 52L19 52L19 53L16 53L16 52L15 52L15 53L14 53L14 54L13 54L13 55L12 55L12 56L13 56L13 57L12 57L12 60L13 60L13 57L14 57L14 58L15 58L15 59L16 59L16 58L15 58L15 57L16 57L16 56L15 56L15 55L17 55L17 56L18 56L18 57L19 57L19 58L20 58L20 59L22 59L22 58L21 58L21 57L23 57L23 56L24 56L24 57L25 57L25 58L26 58L26 57L27 57L27 56L26 56L26 57L25 57L25 56L24 56L24 55L25 55L25 54L26 54L26 55L28 55L28 53L27 53L27 52L31 52L31 51L32 51L32 52L34 52L34 50L36 50L36 52L35 52L35 53L33 53L33 54L35 54L35 55L36 55L36 56L37 56L37 57L38 57L38 58L39 58L39 57L38 57L38 56L39 56L39 55L36 55L36 52L38 52L38 53L37 53L37 54L39 54L39 53L40 53L40 55L41 55L41 56L44 56L44 55L45 55L45 54L42 54L42 51L43 51L43 50L41 50L41 49L43 49L43 48L42 48L42 47L41 47L41 46L42 46L42 45L41 45L41 44L42 44L42 43L43 43L43 42L41 42L41 41L43 41L43 40L42 40L42 39L43 39L43 38L44 38L44 37L43 37L43 38L42 38L42 39L41 39L41 38L39 38L39 39L41 39L41 40L37 40L37 38L36 38L36 36L35 36L35 37L33 37L33 36L34 36L34 35L32 35L32 37L30 37L30 36L29 36L29 34L28 34L28 33L27 33L27 30L28 30L28 29L27 29L27 28L30 28L30 27L31 27L31 28L33 28L33 29L34 29L34 30L35 30L35 31L33 31L33 32L34 32L34 33L33 33L33 34L35 34L35 32L37 32L37 31L38 31L38 30L39 30L39 29L38 29L38 28L40 28L40 27L38 27L38 26L40 26L40 25L41 25L41 24L39 24L39 23L35 23L35 24L34 24L34 23L33 23L33 22L35 22L35 21L36 21L36 22L40 22L40 23L41 23L41 22L42 22L42 21L41 21L41 19L40 19L40 20L39 20L39 19L38 19L38 18L39 18L39 16L40 16L40 17L41 17L41 18L42 18L42 19L43 19L43 21L44 21L44 22L45 22L45 20L44 20L44 19L43 19L43 18L42 18L42 17L43 17L43 16L44 16L44 17L45 17L45 16L46 16L46 18L47 18L47 19L46 19L46 20L47 20L47 19L48 19L48 20L49 20L49 22L51 22L51 23L53 23L53 21L55 21L55 22L54 22L54 23L55 23L55 22L56 22L56 23L57 23L57 24L56 24L56 27L55 27L55 26L53 26L53 25L55 25L55 24L53 24L53 25L52 25L52 27L50 27L50 26L51 26L51 25L50 25L50 26L49 26L49 27L45 27L45 28L49 28L49 27L50 27L50 30L49 30L49 31L48 31L48 30L47 30L47 29L46 29L46 30L47 30L47 31L46 31L46 32L47 32L47 31L48 31L48 32L51 32L51 31L52 31L52 29L51 29L51 28L54 28L54 27L55 27L55 28L56 28L56 27L57 27L57 28L59 28L59 27L57 27L57 26L58 26L58 24L59 24L59 23L57 23L57 20L60 20L60 19L58 19L58 18L56 18L56 17L57 17L57 16L59 16L59 17L60 17L60 16L59 16L59 15L57 15L57 16L55 16L55 14L57 14L57 12L59 12L59 11L57 11L57 10L58 10L58 9L57 9L57 10L56 10L56 9L55 9L55 10L54 10L54 11L55 11L55 14L54 14L54 13L50 13L50 12L49 12L49 11L48 11L48 10L49 10L49 9L50 9L50 11L51 11L51 9L50 9L50 8L49 8L49 7L50 7L50 5L49 5L49 4L46 4L46 3L43 3L43 5L42 5L42 6L41 6L41 5L39 5L39 7L38 7L38 6L37 6L37 7L36 7L36 6L35 6L35 8L37 8L37 9L34 9L34 6L33 6L33 10L32 10L32 12L30 12L30 10L29 10L29 9L28 9L28 8L27 8L27 7L28 7L28 6L27 6L27 5L28 5L28 4L27 4L27 3L26 3L26 4L27 4L27 5L26 5L26 6L25 6L25 5L24 5L24 4L25 4L25 2ZM28 2L28 3L29 3L29 4L31 4L31 3L29 3L29 2ZM38 2L38 3L39 3L39 2ZM9 3L9 4L10 4L10 3ZM51 3L51 4L52 4L52 3ZM21 4L21 6L20 6L20 8L23 8L23 6L22 6L22 5L23 5L23 4ZM44 4L44 5L45 5L45 6L44 6L44 7L43 7L43 6L42 6L42 7L43 7L43 8L45 8L45 9L44 9L44 10L45 10L45 11L44 11L44 12L47 12L47 14L45 14L45 13L44 13L44 14L43 14L43 13L42 13L42 14L43 14L43 15L42 15L42 16L43 16L43 15L44 15L44 16L45 16L45 15L46 15L46 16L48 16L48 17L47 17L47 18L49 18L49 19L51 19L51 18L49 18L49 16L48 16L48 15L47 15L47 14L50 14L50 17L53 17L53 18L52 18L52 20L50 20L50 21L53 21L53 19L54 19L54 20L55 20L55 21L56 21L56 20L57 20L57 19L56 19L56 20L55 20L55 19L54 19L54 18L55 18L55 17L53 17L53 16L51 16L51 14L50 14L50 13L49 13L49 12L48 12L48 11L47 11L47 10L48 10L48 9L49 9L49 8L48 8L48 7L49 7L49 5L48 5L48 7L47 7L47 5L46 5L46 4ZM29 5L29 8L32 8L32 5ZM21 6L21 7L22 7L22 6ZM24 6L24 8L25 8L25 9L24 9L24 11L25 11L25 13L26 13L26 15L24 15L24 16L25 16L25 17L22 17L22 16L23 16L23 15L22 15L22 16L20 16L20 17L19 17L19 16L18 16L18 17L17 17L17 18L18 18L18 19L17 19L17 20L16 20L16 19L15 19L15 18L16 18L16 17L15 17L15 18L14 18L14 17L13 17L13 18L14 18L14 19L12 19L12 20L10 20L10 19L9 19L9 20L10 20L10 21L11 21L11 22L14 22L14 21L15 21L15 22L16 22L16 21L17 21L17 23L18 23L18 21L19 21L19 23L21 23L21 24L22 24L22 23L23 23L23 24L24 24L24 22L25 22L25 23L26 23L26 24L25 24L25 25L24 25L24 26L23 26L23 25L21 25L21 26L22 26L22 27L21 27L21 28L18 28L18 27L20 27L20 26L19 26L19 25L20 25L20 24L19 24L19 25L18 25L18 24L15 24L15 23L14 23L14 24L13 24L13 23L12 23L12 24L11 24L11 25L9 25L9 26L11 26L11 27L9 27L9 28L12 28L12 26L13 26L13 27L14 27L14 28L13 28L13 29L11 29L11 30L10 30L10 31L11 31L11 32L12 32L12 33L13 33L13 34L14 34L14 35L13 35L13 37L12 37L12 38L13 38L13 37L14 37L14 35L16 35L16 36L15 36L15 37L17 37L17 38L14 38L14 39L13 39L13 41L12 41L12 39L11 39L11 38L10 38L10 36L9 36L9 35L8 35L8 34L6 34L6 35L7 35L7 36L8 36L8 37L9 37L9 41L11 41L11 42L13 42L13 41L16 41L16 40L15 40L15 39L17 39L17 38L18 38L18 37L19 37L19 38L20 38L20 39L23 39L23 38L24 38L24 39L25 39L25 41L26 41L26 42L27 42L27 43L26 43L26 44L25 44L25 45L24 45L24 46L25 46L25 45L26 45L26 46L27 46L27 47L26 47L26 48L27 48L27 47L28 47L28 46L27 46L27 45L28 45L28 42L29 42L29 44L30 44L30 45L31 45L31 44L32 44L32 45L33 45L33 46L32 46L32 47L31 47L31 48L30 48L30 49L32 49L32 47L36 47L36 46L34 46L34 44L35 44L35 45L37 45L37 44L39 44L39 45L40 45L40 46L38 46L38 47L39 47L39 48L38 48L38 49L37 49L37 48L35 48L35 49L36 49L36 50L37 50L37 51L38 51L38 52L40 52L40 51L39 51L39 50L40 50L40 48L41 48L41 47L40 47L40 46L41 46L41 45L40 45L40 44L41 44L41 43L40 43L40 42L38 42L38 43L37 43L37 42L36 42L36 43L37 43L37 44L35 44L35 42L34 42L34 41L37 41L37 40L34 40L34 39L35 39L35 38L32 38L32 39L29 39L29 41L26 41L26 38L27 38L27 39L28 39L28 38L29 38L29 36L28 36L28 38L27 38L27 37L26 37L26 35L28 35L28 34L27 34L27 33L26 33L26 35L25 35L25 33L22 33L22 35L23 35L23 36L24 36L24 35L25 35L25 37L22 37L22 36L21 36L21 35L19 35L19 34L20 34L20 33L21 33L21 32L24 32L24 31L26 31L26 30L27 30L27 29L26 29L26 27L27 27L27 25L26 25L26 24L27 24L27 23L29 23L29 24L31 24L31 25L30 25L30 26L31 26L31 27L32 27L32 26L33 26L33 27L34 27L34 28L35 28L35 30L36 30L36 31L37 31L37 28L36 28L36 27L37 27L37 24L35 24L35 26L34 26L34 25L33 25L33 23L32 23L32 22L33 22L33 20L31 20L31 19L32 19L32 18L33 18L33 19L34 19L34 21L35 21L35 20L36 20L36 21L39 21L39 20L38 20L38 19L37 19L37 17L38 17L38 16L36 16L36 15L37 15L37 13L38 13L38 12L34 12L34 11L36 11L36 10L33 10L33 12L32 12L32 13L29 13L29 12L28 12L28 13L26 13L26 12L27 12L27 11L29 11L29 10L28 10L28 9L26 9L26 7L27 7L27 6L26 6L26 7L25 7L25 6ZM30 6L30 7L31 7L31 6ZM40 6L40 8L41 8L41 6ZM45 6L45 8L46 8L46 9L45 9L45 10L47 10L47 7L46 7L46 6ZM52 6L52 7L53 7L53 6ZM15 7L15 8L16 8L16 9L17 9L17 8L16 8L16 7ZM38 8L38 9L39 9L39 8ZM2 9L2 10L3 10L3 9ZM6 9L6 10L7 10L7 9ZM25 9L25 10L26 10L26 9ZM41 9L41 11L40 11L40 10L38 10L38 11L40 11L40 12L39 12L39 13L40 13L40 12L41 12L41 11L42 11L42 10L43 10L43 9ZM52 9L52 10L53 10L53 9ZM52 11L52 12L53 12L53 11ZM56 11L56 12L57 12L57 11ZM14 13L14 14L15 14L15 15L16 15L16 16L17 16L17 14L15 14L15 13ZM28 13L28 14L29 14L29 15L26 15L26 17L25 17L25 18L26 18L26 21L25 21L25 20L24 20L24 19L23 19L23 20L22 20L22 18L21 18L21 17L20 17L20 18L19 18L19 17L18 17L18 18L19 18L19 19L21 19L21 21L20 21L20 20L19 20L19 21L20 21L20 22L21 22L21 23L22 23L22 22L21 22L21 21L23 21L23 20L24 20L24 21L25 21L25 22L26 22L26 21L28 21L28 20L29 20L29 19L28 19L28 20L27 20L27 18L26 18L26 17L31 17L31 18L32 18L32 17L33 17L33 18L35 18L35 17L34 17L34 14L36 14L36 13L33 13L33 14L32 14L32 15L31 15L31 16L29 16L29 15L30 15L30 14L29 14L29 13ZM38 14L38 15L39 15L39 14ZM44 14L44 15L45 15L45 14ZM32 15L32 16L33 16L33 15ZM40 15L40 16L41 16L41 15ZM3 16L3 19L2 19L2 21L4 21L4 18L8 18L8 17L4 17L4 16ZM11 16L11 17L12 17L12 16ZM5 19L5 20L7 20L7 19ZM36 19L36 20L37 20L37 19ZM12 20L12 21L14 21L14 20ZM30 20L30 21L29 21L29 22L30 22L30 23L31 23L31 24L32 24L32 23L31 23L31 22L32 22L32 21L31 21L31 20ZM30 21L30 22L31 22L31 21ZM40 21L40 22L41 22L41 21ZM46 21L46 22L47 22L47 23L48 23L48 24L49 24L49 23L48 23L48 22L47 22L47 21ZM6 24L6 25L8 25L8 24ZM12 24L12 25L11 25L11 26L12 26L12 25L13 25L13 24ZM14 24L14 26L15 26L15 28L14 28L14 29L13 29L13 30L11 30L11 31L12 31L12 32L13 32L13 31L14 31L14 33L15 33L15 34L16 34L16 33L17 33L17 36L19 36L19 37L20 37L20 38L21 38L21 36L19 36L19 35L18 35L18 34L19 34L19 33L20 33L20 32L21 32L21 29L20 29L20 32L19 32L19 29L15 29L15 28L16 28L16 26L17 26L17 27L18 27L18 25L16 25L16 26L15 26L15 24ZM38 24L38 25L39 25L39 24ZM2 25L2 26L3 26L3 25ZM25 25L25 26L26 26L26 25ZM28 25L28 27L29 27L29 25ZM31 25L31 26L32 26L32 25ZM1 27L1 28L3 28L3 27ZM22 27L22 29L23 29L23 30L22 30L22 31L24 31L24 29L25 29L25 30L26 30L26 29L25 29L25 28L23 28L23 27ZM5 29L5 32L8 32L8 29ZM14 29L14 30L15 30L15 33L16 33L16 31L17 31L17 30L15 30L15 29ZM29 29L29 32L32 32L32 29ZM53 29L53 32L56 32L56 29ZM6 30L6 31L7 31L7 30ZM30 30L30 31L31 31L31 30ZM50 30L50 31L51 31L51 30ZM54 30L54 31L55 31L55 30ZM1 32L1 33L2 33L2 32ZM18 32L18 33L19 33L19 32ZM3 33L3 35L4 35L4 33ZM30 33L30 34L31 34L31 33ZM11 34L11 36L12 36L12 34ZM23 34L23 35L24 35L24 34ZM51 35L51 36L52 36L52 35ZM54 35L54 36L53 36L53 37L52 37L52 38L51 38L51 37L50 37L50 38L51 38L51 40L50 40L50 39L47 39L47 40L50 40L50 42L49 42L49 43L46 43L46 44L49 44L49 43L50 43L50 44L52 44L52 43L53 43L53 45L52 45L52 46L51 46L51 45L50 45L50 46L48 46L48 45L46 45L46 46L48 46L48 48L49 48L49 47L50 47L50 46L51 46L51 48L52 48L52 46L53 46L53 45L54 45L54 44L55 44L55 45L56 45L56 46L57 46L57 45L56 45L56 43L57 43L57 44L59 44L59 43L60 43L60 42L59 42L59 41L58 41L58 42L57 42L57 41L56 41L56 43L53 43L53 42L54 42L54 41L53 41L53 40L55 40L55 39L56 39L56 40L59 40L59 39L57 39L57 37L56 37L56 36L55 36L55 35ZM46 36L46 38L48 38L48 37L47 37L47 36ZM60 36L60 37L61 37L61 36ZM25 37L25 38L26 38L26 37ZM53 37L53 38L54 38L54 39L55 39L55 38L54 38L54 37ZM6 38L6 39L7 39L7 40L6 40L6 41L7 41L7 40L8 40L8 39L7 39L7 38ZM32 39L32 40L31 40L31 41L29 41L29 42L31 42L31 43L32 43L32 44L34 44L34 42L33 42L33 39ZM45 39L45 40L44 40L44 43L45 43L45 42L48 42L48 41L45 41L45 40L46 40L46 39ZM52 39L52 40L51 40L51 41L52 41L52 40L53 40L53 39ZM23 40L23 41L24 41L24 40ZM1 41L1 42L2 42L2 41ZM19 42L19 43L20 43L20 42ZM50 42L50 43L52 43L52 42ZM39 43L39 44L40 44L40 43ZM10 44L10 45L12 45L12 44ZM26 44L26 45L27 45L27 44ZM19 45L19 46L18 46L18 47L20 47L20 49L21 49L21 47L20 47L20 45ZM21 45L21 46L22 46L22 47L23 47L23 45ZM3 46L3 47L4 47L4 49L5 49L5 50L7 50L7 51L8 51L8 50L7 50L7 49L6 49L6 48L7 48L7 47L6 47L6 46L5 46L5 47L4 47L4 46ZM5 47L5 48L6 48L6 47ZM24 47L24 48L25 48L25 47ZM28 48L28 50L27 50L27 49L22 49L22 50L21 50L21 52L20 52L20 53L22 53L22 54L20 54L20 56L23 56L23 55L24 55L24 54L25 54L25 53L26 53L26 54L27 54L27 53L26 53L26 52L27 52L27 51L28 51L28 50L29 50L29 48ZM60 48L60 49L61 49L61 48ZM2 49L2 50L3 50L3 49ZM38 49L38 50L39 50L39 49ZM56 49L56 50L57 50L57 49ZM22 50L22 51L23 51L23 52L22 52L22 53L25 53L25 52L26 52L26 51L25 51L25 52L24 52L24 51L23 51L23 50ZM30 50L30 51L31 51L31 50ZM32 50L32 51L33 51L33 50ZM3 51L3 52L4 52L4 51ZM46 51L46 52L47 52L47 51ZM51 51L51 52L52 52L52 51ZM29 53L29 56L32 56L32 53ZM53 53L53 56L56 56L56 53ZM17 54L17 55L18 55L18 54ZM22 54L22 55L23 55L23 54ZM30 54L30 55L31 55L31 54ZM54 54L54 55L55 55L55 54ZM14 56L14 57L15 57L15 56ZM29 57L29 58L28 58L28 59L29 59L29 58L30 58L30 59L33 59L33 57L31 57L31 58L30 58L30 57ZM10 58L10 60L11 60L11 58ZM46 58L46 59L44 59L44 60L45 60L45 61L50 61L50 60L47 60L47 58ZM48 58L48 59L49 59L49 58ZM50 58L50 59L51 59L51 58ZM40 59L40 60L38 60L38 61L40 61L40 60L41 60L41 59ZM42 59L42 60L43 60L43 59ZM51 60L51 61L52 61L52 60ZM0 0L0 7L7 7L7 0ZM1 1L1 6L6 6L6 1ZM2 2L2 5L5 5L5 2ZM54 0L54 7L61 7L61 0ZM55 1L55 6L60 6L60 1ZM56 2L56 5L59 5L59 2ZM0 54L0 61L7 61L7 54ZM1 55L1 60L6 60L6 55ZM2 56L2 59L5 59L5 56Z" fill="#000000"/></g></g></svg>
