<?xml version="1.0" encoding="UTF-8"?>
<svg xmlns="http://www.w3.org/2000/svg" version="1.1" width="300" height="300" viewBox="0 0 300 300"><rect x="0" y="0" width="300" height="300" fill="#ffffff"/><g transform="scale(4.918)"><g transform="translate(0,0)"><path fill-rule="evenodd" d="M8 0L8 4L10 4L10 5L8 5L8 7L9 7L9 6L10 6L10 7L11 7L11 8L10 8L10 9L9 9L9 10L8 10L8 9L7 9L7 8L4 8L4 9L3 9L3 10L4 10L4 11L7 11L7 10L8 10L8 11L9 11L9 13L10 13L10 11L11 11L11 13L12 13L12 14L10 14L10 16L12 16L12 15L14 15L14 16L15 16L15 15L16 15L16 16L17 16L17 17L13 17L13 18L12 18L12 19L13 19L13 18L15 18L15 19L14 19L14 21L12 21L12 20L11 20L11 21L12 21L12 23L11 23L11 22L9 22L9 21L10 21L10 19L7 19L7 18L5 18L5 17L8 17L8 18L11 18L11 17L8 17L8 15L9 15L9 14L6 14L6 13L8 13L8 12L5 12L5 13L4 13L4 12L3 12L3 11L0 11L0 13L1 13L1 14L0 14L0 15L2 15L2 16L3 16L3 15L4 15L4 16L5 16L5 17L3 17L3 18L2 18L2 17L0 17L0 20L1 20L1 21L0 21L0 23L4 23L4 22L5 22L5 23L7 23L7 22L9 22L9 24L10 24L10 23L11 23L11 25L12 25L12 26L13 26L13 25L15 25L15 24L16 24L16 25L17 25L17 26L16 26L16 27L17 27L17 28L14 28L14 29L13 29L13 27L8 27L8 26L10 26L10 25L8 25L8 26L5 26L5 25L4 25L4 24L3 24L3 25L2 25L2 24L1 24L1 25L0 25L0 26L1 26L1 27L3 27L3 28L2 28L2 29L1 29L1 32L0 32L0 33L2 33L2 34L1 34L1 35L0 35L0 36L2 36L2 37L0 37L0 40L1 40L1 42L3 42L3 43L0 43L0 46L1 46L1 47L0 47L0 49L1 49L1 50L2 50L2 51L0 51L0 53L4 53L4 52L5 52L5 51L8 51L8 50L9 50L9 52L6 52L6 53L8 53L8 54L9 54L9 55L8 55L8 57L9 57L9 56L11 56L11 57L10 57L10 58L11 58L11 59L12 59L12 61L15 61L15 60L16 60L16 61L19 61L19 59L21 59L21 57L22 57L22 60L21 60L21 61L22 61L22 60L24 60L24 58L25 58L25 59L27 59L27 60L25 60L25 61L27 61L27 60L28 60L28 58L30 58L30 59L32 59L32 61L33 61L33 59L35 59L35 60L36 60L36 61L37 61L37 59L36 59L36 58L34 58L34 57L37 57L37 58L38 58L38 59L39 59L39 58L40 58L40 59L41 59L41 60L42 60L42 59L43 59L43 53L44 53L44 57L45 57L45 59L44 59L44 61L46 61L46 55L48 55L48 56L47 56L47 58L50 58L50 59L51 59L51 60L50 60L50 61L53 61L53 60L54 60L54 58L55 58L55 57L57 57L57 59L56 59L56 60L55 60L55 61L57 61L57 59L58 59L58 61L61 61L61 60L60 60L60 58L61 58L61 57L60 57L60 56L61 56L61 55L60 55L60 56L59 56L59 54L58 54L58 53L61 53L61 52L60 52L60 51L58 51L58 53L57 53L57 51L56 51L56 52L55 52L55 51L53 51L53 50L54 50L54 49L56 49L56 50L57 50L57 49L56 49L56 48L55 48L55 47L57 47L57 48L58 48L58 49L59 49L59 50L60 50L60 49L59 49L59 46L58 46L58 45L59 45L59 43L60 43L60 40L61 40L61 39L58 39L58 38L57 38L57 37L56 37L56 40L55 40L55 39L53 39L53 43L52 43L52 41L51 41L51 34L52 34L52 35L53 35L53 33L56 33L56 34L55 34L55 35L54 35L54 36L57 36L57 35L58 35L58 37L59 37L59 36L60 36L60 37L61 37L61 35L58 35L58 34L59 34L59 33L61 33L61 31L60 31L60 32L59 32L59 30L60 30L60 29L59 29L59 28L60 28L60 27L59 27L59 26L60 26L60 24L61 24L61 23L58 23L58 22L57 22L57 23L55 23L55 22L56 22L56 21L57 21L57 18L56 18L56 19L55 19L55 17L57 17L57 15L58 15L58 21L59 21L59 17L61 17L61 16L59 16L59 15L58 15L58 14L59 14L59 11L60 11L60 12L61 12L61 11L60 11L60 10L58 10L58 14L57 14L57 15L56 15L56 16L55 16L55 17L53 17L53 16L54 16L54 15L55 15L55 14L56 14L56 13L57 13L57 11L56 11L56 12L55 12L55 10L56 10L56 8L55 8L55 9L53 9L53 6L52 6L52 7L51 7L51 5L52 5L52 4L53 4L53 0L51 0L51 2L50 2L50 3L49 3L49 1L50 1L50 0L48 0L48 1L46 1L46 2L48 2L48 3L49 3L49 4L50 4L50 7L49 7L49 5L48 5L48 7L47 7L47 5L46 5L46 7L47 7L47 8L46 8L46 9L45 9L45 5L44 5L44 4L43 4L43 3L45 3L45 4L47 4L47 3L45 3L45 2L44 2L44 0L42 0L42 1L43 1L43 3L42 3L42 2L39 2L39 3L40 3L40 4L42 4L42 5L41 5L41 6L40 6L40 7L39 7L39 6L38 6L38 7L39 7L39 9L38 9L38 11L37 11L37 10L36 10L36 9L37 9L37 6L36 6L36 5L39 5L39 4L36 4L36 3L38 3L38 1L39 1L39 0L36 0L36 1L34 1L34 0L33 0L33 1L32 1L32 0L29 0L29 2L28 2L28 3L27 3L27 1L26 1L26 0L22 0L22 1L21 1L21 0L19 0L19 1L18 1L18 2L16 2L16 1L15 1L15 0L14 0L14 1L13 1L13 2L12 2L12 3L10 3L10 2L11 2L11 1L12 1L12 0L11 0L11 1L10 1L10 0ZM40 0L40 1L41 1L41 0ZM9 1L9 2L10 2L10 1ZM14 1L14 5L15 5L15 7L16 7L16 5L17 5L17 4L18 4L18 6L17 6L17 7L18 7L18 6L19 6L19 8L18 8L18 9L16 9L16 8L15 8L15 9L14 9L14 6L13 6L13 4L12 4L12 5L10 5L10 6L11 6L11 7L12 7L12 8L11 8L11 9L10 9L10 10L11 10L11 11L12 11L12 12L13 12L13 13L14 13L14 14L15 14L15 13L16 13L16 14L18 14L18 15L19 15L19 17L17 17L17 18L16 18L16 19L15 19L15 22L13 22L13 23L15 23L15 22L16 22L16 24L17 24L17 25L18 25L18 24L19 24L19 26L18 26L18 27L19 27L19 26L20 26L20 27L23 27L23 26L22 26L22 25L25 25L25 27L24 27L24 28L22 28L22 29L21 29L21 28L20 28L20 29L18 29L18 28L17 28L17 29L16 29L16 30L15 30L15 29L14 29L14 30L13 30L13 29L12 29L12 28L10 28L10 33L6 33L6 34L7 34L7 35L5 35L5 34L2 34L2 36L3 36L3 37L2 37L2 38L1 38L1 40L4 40L4 41L3 41L3 42L4 42L4 44L2 44L2 46L3 46L3 47L1 47L1 49L2 49L2 48L3 48L3 47L5 47L5 46L7 46L7 47L6 47L6 48L4 48L4 49L3 49L3 50L4 50L4 49L5 49L5 50L7 50L7 49L6 49L6 48L7 48L7 47L9 47L9 48L8 48L8 49L9 49L9 50L10 50L10 48L11 48L11 49L12 49L12 50L13 50L13 48L14 48L14 47L15 47L15 49L14 49L14 52L13 52L13 51L11 51L11 52L10 52L10 53L11 53L11 52L13 52L13 54L12 54L12 55L11 55L11 56L12 56L12 55L14 55L14 56L15 56L15 58L14 58L14 59L15 59L15 58L16 58L16 60L17 60L17 57L18 57L18 56L20 56L20 57L21 57L21 55L24 55L24 56L22 56L22 57L23 57L23 58L24 58L24 57L26 57L26 58L27 58L27 57L28 57L28 56L27 56L27 55L28 55L28 52L31 52L31 51L32 51L32 52L33 52L33 51L34 51L34 55L35 55L35 54L36 54L36 55L37 55L37 56L38 56L38 57L39 57L39 56L40 56L40 57L41 57L41 55L42 55L42 52L44 52L44 51L42 51L42 52L41 52L41 51L40 51L40 50L41 50L41 47L42 47L42 45L43 45L43 44L44 44L44 43L45 43L45 42L44 42L44 40L43 40L43 39L45 39L45 41L46 41L46 43L47 43L47 44L48 44L48 43L50 43L50 33L52 33L52 32L51 32L51 31L52 31L52 30L51 30L51 31L50 31L50 28L51 28L51 29L52 29L52 28L53 28L53 25L55 25L55 26L56 26L56 27L57 27L57 29L58 29L58 30L57 30L57 32L58 32L58 30L59 30L59 29L58 29L58 27L57 27L57 26L56 26L56 24L55 24L55 23L54 23L54 22L53 22L53 21L55 21L55 19L54 19L54 20L53 20L53 17L52 17L52 14L54 14L54 13L55 13L55 12L53 12L53 13L52 13L52 12L51 12L51 10L52 10L52 11L54 11L54 10L53 10L53 9L52 9L52 8L50 8L50 9L49 9L49 10L50 10L50 12L49 12L49 13L48 13L48 12L46 12L46 11L47 11L47 9L46 9L46 11L45 11L45 9L44 9L44 10L43 10L43 11L42 11L42 10L40 10L40 9L43 9L43 8L41 8L41 7L42 7L42 6L43 6L43 7L44 7L44 6L43 6L43 5L42 5L42 6L41 6L41 7L40 7L40 9L39 9L39 11L38 11L38 13L35 13L35 11L36 11L36 10L35 10L35 7L36 7L36 6L35 6L35 7L34 7L34 5L35 5L35 2L34 2L34 1L33 1L33 3L34 3L34 5L33 5L33 8L34 8L34 9L32 9L32 11L31 11L31 10L30 10L30 9L28 9L28 5L26 5L26 6L25 6L25 8L24 8L24 4L23 4L23 8L22 8L22 4L21 4L21 5L20 5L20 2L21 2L21 3L22 3L22 2L21 2L21 1L20 1L20 2L19 2L19 3L17 3L17 4L16 4L16 3L15 3L15 1ZM31 1L31 2L30 2L30 3L31 3L31 2L32 2L32 1ZM36 1L36 2L37 2L37 1ZM24 2L24 3L26 3L26 4L27 4L27 3L26 3L26 2ZM28 3L28 4L29 4L29 3ZM51 3L51 4L52 4L52 3ZM15 4L15 5L16 5L16 4ZM29 5L29 8L32 8L32 5ZM12 6L12 7L13 7L13 6ZM20 6L20 7L21 7L21 6ZM26 6L26 8L25 8L25 9L22 9L22 8L19 8L19 9L18 9L18 10L19 10L19 12L18 12L18 13L19 13L19 12L21 12L21 13L20 13L20 14L19 14L19 15L20 15L20 14L21 14L21 13L22 13L22 14L24 14L24 16L25 16L25 17L22 17L22 16L23 16L23 15L21 15L21 17L19 17L19 18L20 18L20 19L21 19L21 20L22 20L22 19L23 19L23 18L24 18L24 19L26 19L26 18L25 18L25 17L27 17L27 16L28 16L28 18L27 18L27 19L28 19L28 20L26 20L26 21L24 21L24 22L23 22L23 21L20 21L20 22L19 22L19 23L21 23L21 25L20 25L20 26L21 26L21 25L22 25L22 23L23 23L23 24L24 24L24 23L25 23L25 22L26 22L26 21L28 21L28 22L27 22L27 23L26 23L26 25L28 25L28 26L26 26L26 27L25 27L25 29L22 29L22 30L21 30L21 29L20 29L20 30L19 30L19 31L18 31L18 30L16 30L16 31L12 31L12 30L11 30L11 31L12 31L12 33L10 33L10 34L8 34L8 35L7 35L7 36L6 36L6 37L7 37L7 38L6 38L6 39L7 39L7 40L6 40L6 41L4 41L4 42L6 42L6 43L5 43L5 45L3 45L3 46L5 46L5 45L7 45L7 44L8 44L8 46L9 46L9 47L10 47L10 46L9 46L9 44L11 44L11 43L10 43L10 42L9 42L9 43L8 43L8 41L7 41L7 40L10 40L10 41L11 41L11 40L10 40L10 39L13 39L13 37L14 37L14 38L15 38L15 41L14 41L14 40L12 40L12 45L13 45L13 46L12 46L12 48L13 48L13 46L14 46L14 45L13 45L13 43L14 43L14 44L16 44L16 45L15 45L15 47L16 47L16 45L17 45L17 44L18 44L18 45L19 45L19 44L18 44L18 43L19 43L19 41L18 41L18 40L19 40L19 39L20 39L20 40L21 40L21 41L20 41L20 43L22 43L22 44L20 44L20 46L17 46L17 49L15 49L15 51L16 51L16 50L17 50L17 49L18 49L18 50L19 50L19 49L20 49L20 50L21 50L21 51L17 51L17 52L16 52L16 53L20 53L20 54L19 54L19 55L21 55L21 53L22 53L22 54L25 54L25 56L26 56L26 57L27 57L27 56L26 56L26 53L27 53L27 52L28 52L28 51L31 51L31 50L30 50L30 49L31 49L31 48L32 48L32 47L34 47L34 48L33 48L33 50L32 50L32 51L33 51L33 50L34 50L34 51L36 51L36 53L37 53L37 55L39 55L39 54L40 54L40 55L41 55L41 54L40 54L40 53L39 53L39 52L38 52L38 53L37 53L37 51L39 51L39 48L40 48L40 47L41 47L41 46L40 46L40 45L38 45L38 43L39 43L39 42L40 42L40 43L41 43L41 45L42 45L42 43L44 43L44 42L43 42L43 41L41 41L41 42L40 42L40 39L41 39L41 40L42 40L42 39L43 39L43 38L44 38L44 37L45 37L45 39L46 39L46 40L47 40L47 43L48 43L48 41L49 41L49 38L46 38L46 37L49 37L49 34L47 34L47 35L45 35L45 34L46 34L46 33L47 33L47 31L48 31L48 33L50 33L50 32L49 32L49 31L48 31L48 29L49 29L49 27L43 27L43 26L44 26L44 25L45 25L45 26L46 26L46 24L47 24L47 25L48 25L48 26L49 26L49 24L51 24L51 25L50 25L50 27L51 27L51 28L52 28L52 26L51 26L51 25L53 25L53 22L52 22L52 21L53 21L53 20L52 20L52 21L50 21L50 20L49 20L49 18L50 18L50 19L51 19L51 18L52 18L52 17L51 17L51 14L52 14L52 13L50 13L50 15L48 15L48 14L47 14L47 15L48 15L48 18L47 18L47 19L46 19L46 18L45 18L45 19L44 19L44 20L42 20L42 19L41 19L41 21L42 21L42 23L41 23L41 22L39 22L39 21L37 21L37 19L36 19L36 18L35 18L35 19L34 19L34 14L33 14L33 16L32 16L32 14L31 14L31 13L30 13L30 14L31 14L31 16L32 16L32 17L31 17L31 21L30 21L30 22L29 22L29 21L28 21L28 20L29 20L29 19L28 19L28 18L30 18L30 17L29 17L29 15L28 15L28 14L27 14L27 15L26 15L26 16L25 16L25 13L22 13L22 11L24 11L24 12L25 12L25 11L26 11L26 9L27 9L27 6ZM30 6L30 7L31 7L31 6ZM0 8L0 10L1 10L1 9L2 9L2 8ZM57 8L57 9L61 9L61 8ZM4 9L4 10L7 10L7 9ZM11 9L11 10L12 10L12 11L13 11L13 10L12 10L12 9ZM21 9L21 10L20 10L20 11L21 11L21 10L22 10L22 9ZM50 9L50 10L51 10L51 9ZM14 10L14 13L15 13L15 11L17 11L17 10ZM24 10L24 11L25 11L25 10ZM29 10L29 11L27 11L27 12L26 12L26 13L27 13L27 12L28 12L28 13L29 13L29 11L30 11L30 10ZM33 10L33 11L32 11L32 12L33 12L33 11L34 11L34 10ZM41 11L41 13L38 13L38 14L39 14L39 15L36 15L36 14L35 14L35 17L37 17L37 18L38 18L38 19L39 19L39 20L40 20L40 18L44 18L44 17L45 17L45 15L46 15L46 13L45 13L45 11L44 11L44 12L42 12L42 11ZM1 12L1 13L2 13L2 15L3 15L3 14L4 14L4 13L2 13L2 12ZM16 12L16 13L17 13L17 12ZM41 13L41 15L39 15L39 18L40 18L40 17L43 17L43 15L44 15L44 14L45 14L45 13L44 13L44 14L43 14L43 15L42 15L42 13ZM5 15L5 16L7 16L7 15ZM41 15L41 16L42 16L42 15ZM21 17L21 18L22 18L22 17ZM32 17L32 19L33 19L33 17ZM1 18L1 19L2 19L2 18ZM4 18L4 19L3 19L3 21L1 21L1 22L3 22L3 21L4 21L4 19L5 19L5 21L6 21L6 22L7 22L7 21L6 21L6 20L7 20L7 19L5 19L5 18ZM17 18L17 20L16 20L16 21L19 21L19 19L18 19L18 18ZM35 19L35 20L34 20L34 22L33 22L33 21L32 21L32 23L30 23L30 25L29 25L29 26L28 26L28 27L29 27L29 28L32 28L32 27L36 27L36 26L37 26L37 32L38 32L38 33L37 33L37 34L38 34L38 33L39 33L39 34L40 34L40 33L43 33L43 32L44 32L44 31L47 31L47 29L48 29L48 28L46 28L46 30L45 30L45 29L44 29L44 30L43 30L43 32L41 32L41 31L42 31L42 29L43 29L43 27L42 27L42 28L41 28L41 26L42 26L42 25L43 25L43 24L44 24L44 22L45 22L45 21L46 21L46 22L47 22L47 21L48 21L48 22L49 22L49 23L50 23L50 21L48 21L48 20L47 20L47 21L46 21L46 20L45 20L45 21L44 21L44 22L43 22L43 24L42 24L42 25L41 25L41 23L40 23L40 27L38 27L38 25L34 25L34 24L33 24L33 25L32 25L32 27L31 27L31 26L30 26L30 25L31 25L31 24L32 24L32 23L35 23L35 22L36 22L36 23L37 23L37 24L38 24L38 23L37 23L37 21L35 21L35 20L36 20L36 19ZM60 20L60 21L61 21L61 20ZM17 22L17 23L18 23L18 22ZM28 22L28 23L27 23L27 24L28 24L28 23L29 23L29 22ZM51 23L51 24L52 24L52 23ZM57 23L57 24L58 24L58 23ZM6 24L6 25L7 25L7 24ZM3 25L3 27L4 27L4 28L3 28L3 29L2 29L2 30L3 30L3 29L4 29L4 28L5 28L5 27L4 27L4 25ZM14 26L14 27L15 27L15 26ZM6 27L6 28L7 28L7 27ZM26 27L26 28L27 28L27 27ZM54 27L54 28L55 28L55 27ZM33 28L33 29L34 29L34 30L33 30L33 32L34 32L34 34L33 34L33 33L30 33L30 34L29 34L29 33L28 33L28 34L29 34L29 35L30 35L30 36L31 36L31 35L32 35L32 36L33 36L33 37L34 37L34 40L33 40L33 39L32 39L32 37L29 37L29 36L28 36L28 35L27 35L27 33L25 33L25 32L26 32L26 30L27 30L27 31L28 31L28 29L26 29L26 30L25 30L25 32L24 32L24 31L23 31L23 32L22 32L22 31L21 31L21 32L20 32L20 33L21 33L21 34L20 34L20 36L19 36L19 35L17 35L17 36L19 36L19 37L18 37L18 38L17 38L17 37L15 37L15 38L16 38L16 39L18 39L18 38L20 38L20 39L21 39L21 40L22 40L22 41L21 41L21 42L22 42L22 43L23 43L23 44L22 44L22 45L21 45L21 46L20 46L20 49L21 49L21 48L22 48L22 49L25 49L25 51L26 51L26 50L27 50L27 49L28 49L28 50L29 50L29 47L28 47L28 48L27 48L27 45L29 45L29 44L27 44L27 45L26 45L26 47L24 47L24 48L22 48L22 47L23 47L23 46L22 46L22 45L25 45L25 44L26 44L26 43L27 43L27 42L28 42L28 41L29 41L29 42L31 42L31 43L32 43L32 44L31 44L31 45L30 45L30 47L32 47L32 46L33 46L33 45L34 45L34 47L35 47L35 46L36 46L36 47L37 47L37 48L39 48L39 46L38 46L38 45L36 45L36 44L33 44L33 43L32 43L32 42L31 42L31 41L32 41L32 40L33 40L33 42L34 42L34 43L37 43L37 42L38 42L38 41L39 41L39 40L37 40L37 42L35 42L35 41L34 41L34 40L35 40L35 37L36 37L36 39L37 39L37 37L36 37L36 36L34 36L34 35L36 35L36 32L34 32L34 31L36 31L36 28L35 28L35 29L34 29L34 28ZM5 29L5 32L8 32L8 29ZM29 29L29 32L32 32L32 29ZM38 29L38 30L39 30L39 31L41 31L41 29L40 29L40 30L39 30L39 29ZM53 29L53 32L56 32L56 29ZM6 30L6 31L7 31L7 30ZM30 30L30 31L31 31L31 30ZM54 30L54 31L55 31L55 30ZM2 31L2 32L3 32L3 33L4 33L4 31ZM17 31L17 32L16 32L16 33L14 33L14 34L15 34L15 35L16 35L16 34L17 34L17 33L18 33L18 34L19 34L19 33L18 33L18 31ZM21 32L21 33L22 33L22 34L21 34L21 36L22 36L22 34L25 34L25 33L22 33L22 32ZM45 32L45 33L44 33L44 34L45 34L45 33L46 33L46 32ZM11 34L11 35L10 35L10 37L9 37L9 35L8 35L8 39L9 39L9 38L11 38L11 35L12 35L12 34ZM30 34L30 35L31 35L31 34ZM32 34L32 35L33 35L33 34ZM3 35L3 36L4 36L4 37L3 37L3 38L2 38L2 39L5 39L5 38L4 38L4 37L5 37L5 36L4 36L4 35ZM25 35L25 36L26 36L26 37L24 37L24 38L23 38L23 37L22 37L22 40L24 40L24 39L25 39L25 40L26 40L26 41L24 41L24 42L23 42L23 41L22 41L22 42L23 42L23 43L24 43L24 44L25 44L25 43L24 43L24 42L26 42L26 41L27 41L27 39L28 39L28 40L29 40L29 41L31 41L31 40L32 40L32 39L30 39L30 38L29 38L29 37L27 37L27 36L26 36L26 35ZM37 35L37 36L38 36L38 37L39 37L39 38L42 38L42 37L43 37L43 35L42 35L42 36L41 36L41 35ZM47 35L47 36L48 36L48 35ZM52 36L52 37L53 37L53 38L55 38L55 37L53 37L53 36ZM20 37L20 38L21 38L21 37ZM26 37L26 38L25 38L25 39L27 39L27 37ZM47 39L47 40L48 40L48 39ZM57 39L57 40L56 40L56 41L57 41L57 42L56 42L56 45L55 45L55 46L53 46L53 45L54 45L54 44L52 44L52 43L51 43L51 45L52 45L52 46L53 46L53 47L50 47L50 45L49 45L49 47L50 47L50 48L51 48L51 50L52 50L52 48L53 48L53 49L54 49L54 47L55 47L55 46L56 46L56 45L57 45L57 44L58 44L58 39ZM54 40L54 41L55 41L55 40ZM6 41L6 42L7 42L7 41ZM13 41L13 42L14 42L14 41ZM16 41L16 43L18 43L18 41ZM54 42L54 43L55 43L55 42ZM6 43L6 44L7 44L7 43ZM32 44L32 45L33 45L33 44ZM45 44L45 45L44 45L44 47L43 47L43 50L45 50L45 53L46 53L46 54L48 54L48 55L50 55L50 56L51 56L51 58L52 58L52 55L50 55L50 54L49 54L49 53L48 53L48 51L50 51L50 53L51 53L51 54L52 54L52 52L53 52L53 51L50 51L50 49L48 49L48 47L47 47L47 45L46 45L46 44ZM60 44L60 45L61 45L61 44ZM45 45L45 47L44 47L44 49L45 49L45 50L46 50L46 48L47 48L47 47L46 47L46 45ZM21 46L21 47L22 47L22 46ZM18 47L18 48L19 48L19 47ZM45 47L45 48L46 48L46 47ZM25 48L25 49L27 49L27 48ZM34 48L34 50L36 50L36 51L37 51L37 50L38 50L38 49L36 49L36 48ZM47 50L47 51L48 51L48 50ZM3 51L3 52L4 52L4 51ZM22 51L22 53L23 53L23 52L24 52L24 53L26 53L26 52L24 52L24 51ZM20 52L20 53L21 53L21 52ZM46 52L46 53L47 53L47 52ZM29 53L29 56L32 56L32 53ZM53 53L53 56L56 56L56 53ZM16 54L16 57L17 57L17 55L18 55L18 54ZM30 54L30 55L31 55L31 54ZM54 54L54 55L55 55L55 54ZM57 54L57 56L58 56L58 54ZM33 56L33 57L31 57L31 58L33 58L33 57L34 57L34 56ZM11 57L11 58L12 58L12 59L13 59L13 58L12 58L12 57ZM58 57L58 58L60 58L60 57ZM18 58L18 59L19 59L19 58ZM8 59L8 61L9 61L9 59ZM47 59L47 61L49 61L49 59ZM29 60L29 61L31 61L31 60ZM38 60L38 61L39 61L39 60ZM0 0L0 7L7 7L7 0ZM1 1L1 6L6 6L6 1ZM2 2L2 5L5 5L5 2ZM54 0L54 7L61 7L61 0ZM55 1L55 6L60 6L60 1ZM56 2L56 5L59 5L59 2ZM0 54L0 61L7 61L7 54ZM1 55L1 60L6 60L6 55ZM2 56L2 59L5 59L5 56Z" fill="#000000"/></g></g></svg>
