<?xml version="1.0" encoding="UTF-8"?>
<svg xmlns="http://www.w3.org/2000/svg" version="1.1" width="300" height="300" viewBox="0 0 300 300"><rect x="0" y="0" width="300" height="300" fill="#ffffff"/><g transform="scale(4.918)"><g transform="translate(0,0)"><path fill-rule="evenodd" d="M9 0L9 1L8 1L8 2L9 2L9 3L8 3L8 4L11 4L11 3L12 3L12 4L14 4L14 8L13 8L13 5L12 5L12 7L11 7L11 6L10 6L10 8L11 8L11 9L12 9L12 10L10 10L10 9L9 9L9 8L6 8L6 9L9 9L9 10L8 10L8 12L6 12L6 11L7 11L7 10L6 10L6 11L5 11L5 8L0 8L0 9L2 9L2 10L1 10L1 11L2 11L2 10L3 10L3 9L4 9L4 12L2 12L2 13L1 13L1 14L0 14L0 15L1 15L1 14L2 14L2 16L1 16L1 17L0 17L0 20L2 20L2 22L0 22L0 24L1 24L1 25L0 25L0 26L1 26L1 27L0 27L0 28L1 28L1 29L0 29L0 31L3 31L3 30L4 30L4 33L3 33L3 32L2 32L2 33L3 33L3 34L1 34L1 32L0 32L0 34L1 34L1 35L2 35L2 38L3 38L3 37L4 37L4 39L3 39L3 41L2 41L2 39L1 39L1 40L0 40L0 41L2 41L2 42L0 42L0 43L1 43L1 44L0 44L0 45L1 45L1 44L2 44L2 45L3 45L3 46L2 46L2 48L4 48L4 50L3 50L3 49L1 49L1 50L2 50L2 51L0 51L0 53L4 53L4 52L5 52L5 51L8 51L8 55L9 55L9 56L8 56L8 61L11 61L11 59L12 59L12 60L14 60L14 59L13 59L13 58L14 58L14 57L15 57L15 56L16 56L16 57L17 57L17 58L15 58L15 61L21 61L21 60L23 60L23 59L25 59L25 60L26 60L26 59L28 59L28 60L27 60L27 61L28 61L28 60L29 60L29 61L31 61L31 60L33 60L33 61L37 61L37 60L38 60L38 61L40 61L40 60L42 60L42 61L43 61L43 60L45 60L45 61L47 61L47 60L46 60L46 59L48 59L48 58L46 58L46 57L49 57L49 56L50 56L50 55L52 55L52 56L51 56L51 58L50 58L50 59L49 59L49 60L48 60L48 61L49 61L49 60L51 60L51 61L52 61L52 60L53 60L53 59L51 59L51 58L54 58L54 60L56 60L56 61L57 61L57 60L56 60L56 58L57 58L57 59L59 59L59 58L58 58L58 57L60 57L60 60L58 60L58 61L61 61L61 57L60 57L60 56L61 56L61 54L59 54L59 55L60 55L60 56L58 56L58 57L57 57L57 51L59 51L59 52L58 52L58 53L61 53L61 50L60 50L60 48L56 48L56 49L57 49L57 51L56 51L56 50L54 50L54 49L55 49L55 48L54 48L54 47L61 47L61 46L58 46L58 45L59 45L59 44L60 44L60 45L61 45L61 42L60 42L60 41L59 41L59 40L61 40L61 38L60 38L60 37L61 37L61 34L60 34L60 36L58 36L58 35L59 35L59 34L58 34L58 33L59 33L59 32L60 32L60 33L61 33L61 32L60 32L60 31L61 31L61 30L59 30L59 29L61 29L61 26L60 26L60 25L61 25L61 22L58 22L58 21L59 21L59 20L58 20L58 21L57 21L57 23L56 23L56 20L57 20L57 19L56 19L56 20L55 20L55 19L54 19L54 18L55 18L55 17L54 17L54 18L52 18L52 20L51 20L51 18L50 18L50 17L53 17L53 16L52 16L52 15L51 15L51 14L50 14L50 12L51 12L51 13L53 13L53 14L55 14L55 13L56 13L56 14L57 14L57 15L55 15L55 16L57 16L57 15L60 15L60 16L61 16L61 14L59 14L59 12L60 12L60 11L61 11L61 10L60 10L60 11L59 11L59 12L58 12L58 11L55 11L55 13L53 13L53 12L54 12L54 10L55 10L55 9L56 9L56 10L57 10L57 9L58 9L58 8L57 8L57 9L56 9L56 8L55 8L55 9L54 9L54 8L52 8L52 7L53 7L53 6L52 6L52 7L51 7L51 5L52 5L52 4L53 4L53 0L51 0L51 2L50 2L50 4L49 4L49 3L47 3L47 2L49 2L49 1L50 1L50 0L49 0L49 1L48 1L48 0L47 0L47 1L46 1L46 0L39 0L39 1L38 1L38 2L39 2L39 3L38 3L38 4L40 4L40 3L41 3L41 4L42 4L42 5L41 5L41 6L40 6L40 5L37 5L37 3L35 3L35 2L36 2L36 0L35 0L35 1L33 1L33 0L32 0L32 1L31 1L31 0L30 0L30 1L31 1L31 2L27 2L27 4L26 4L26 2L24 2L24 1L25 1L25 0L24 0L24 1L23 1L23 0L21 0L21 2L20 2L20 1L17 1L17 3L16 3L16 2L15 2L15 4L14 4L14 2L13 2L13 3L12 3L12 1L14 1L14 0ZM15 0L15 1L16 1L16 0ZM26 0L26 1L28 1L28 0ZM22 1L22 2L21 2L21 4L20 4L20 2L19 2L19 4L18 4L18 3L17 3L17 4L15 4L15 8L14 8L14 9L13 9L13 10L12 10L12 14L11 14L11 16L10 16L10 17L9 17L9 14L8 14L8 13L11 13L11 12L8 12L8 13L6 13L6 14L4 14L4 13L3 13L3 15L6 15L6 16L5 16L5 17L3 17L3 18L1 18L1 19L2 19L2 20L3 20L3 18L4 18L4 19L5 19L5 23L4 23L4 25L3 25L3 27L2 27L2 28L3 28L3 29L4 29L4 28L5 28L5 27L6 27L6 28L7 28L7 27L6 27L6 26L7 26L7 25L6 25L6 26L5 26L5 27L4 27L4 25L5 25L5 23L6 23L6 24L8 24L8 26L10 26L10 28L9 28L9 27L8 27L8 28L9 28L9 31L10 31L10 30L12 30L12 32L9 32L9 33L5 33L5 34L3 34L3 35L6 35L6 36L7 36L7 35L6 35L6 34L8 34L8 35L9 35L9 34L10 34L10 35L11 35L11 36L12 36L12 38L13 38L13 36L14 36L14 37L15 37L15 38L14 38L14 40L15 40L15 41L14 41L14 42L13 42L13 41L12 41L12 39L11 39L11 38L10 38L10 39L9 39L9 36L8 36L8 37L6 37L6 38L5 38L5 39L4 39L4 41L3 41L3 42L2 42L2 44L3 44L3 45L4 45L4 44L5 44L5 45L6 45L6 46L7 46L7 45L6 45L6 44L7 44L7 43L9 43L9 44L8 44L8 46L9 46L9 47L8 47L8 48L7 48L7 47L6 47L6 48L7 48L7 49L5 49L5 50L8 50L8 51L10 51L10 50L9 50L9 48L10 48L10 49L11 49L11 45L13 45L13 44L14 44L14 43L15 43L15 44L18 44L18 43L17 43L17 42L18 42L18 41L19 41L19 42L20 42L20 43L19 43L19 45L15 45L15 46L14 46L14 47L15 47L15 48L13 48L13 49L12 49L12 50L13 50L13 49L14 49L14 50L16 50L16 49L17 49L17 52L19 52L19 54L20 54L20 56L19 56L19 57L21 57L21 53L25 53L25 54L23 54L23 56L22 56L22 57L25 57L25 58L26 58L26 57L27 57L27 55L28 55L28 53L27 53L27 51L24 51L24 50L23 50L23 49L25 49L25 50L26 50L26 49L27 49L27 50L28 50L28 51L29 51L29 52L31 52L31 50L30 50L30 49L29 49L29 48L31 48L31 49L33 49L33 50L35 50L35 51L34 51L34 52L33 52L33 51L32 51L32 52L33 52L33 54L36 54L36 55L34 55L34 56L37 56L37 57L32 57L32 58L30 58L30 57L29 57L29 58L28 58L28 59L33 59L33 58L34 58L34 60L37 60L37 59L38 59L38 58L40 58L40 59L39 59L39 60L40 60L40 59L45 59L45 58L40 58L40 57L41 57L41 56L44 56L44 57L45 57L45 56L44 56L44 55L46 55L46 54L48 54L48 53L46 53L46 54L45 54L45 52L43 52L43 53L44 53L44 54L43 54L43 55L42 55L42 54L39 54L39 53L42 53L42 51L46 51L46 52L49 52L49 53L50 53L50 54L51 54L51 53L50 53L50 52L52 52L52 51L53 51L53 52L55 52L55 51L53 51L53 49L52 49L52 51L50 51L50 50L51 50L51 48L52 48L52 47L53 47L53 45L54 45L54 44L55 44L55 45L56 45L56 46L57 46L57 45L56 45L56 44L57 44L57 43L54 43L54 44L52 44L52 43L53 43L53 41L54 41L54 40L55 40L55 41L56 41L56 42L57 42L57 41L56 41L56 40L59 40L59 39L57 39L57 37L56 37L56 36L55 36L55 35L57 35L57 33L55 33L55 35L53 35L53 34L51 34L51 31L52 31L52 29L48 29L48 30L47 30L47 29L46 29L46 30L44 30L44 29L45 29L45 28L44 28L44 27L45 27L45 26L44 26L44 25L45 25L45 24L46 24L46 22L47 22L47 24L49 24L49 23L48 23L48 22L49 22L49 21L50 21L50 22L51 22L51 21L50 21L50 19L46 19L46 20L49 20L49 21L46 21L46 22L42 22L42 19L44 19L44 18L45 18L45 16L46 16L46 18L49 18L49 17L48 17L48 16L51 16L51 15L49 15L49 13L46 13L46 14L48 14L48 16L46 16L46 15L45 15L45 12L48 12L48 11L49 11L49 12L50 12L50 11L51 11L51 12L53 12L53 9L52 9L52 8L51 8L51 9L50 9L50 8L49 8L49 7L50 7L50 6L49 6L49 5L47 5L47 3L43 3L43 5L42 5L42 6L41 6L41 8L40 8L40 9L43 9L43 10L42 10L42 11L41 11L41 10L40 10L40 11L38 11L38 10L39 10L39 9L38 9L38 8L39 8L39 7L40 7L40 6L39 6L39 7L38 7L38 6L37 6L37 5L36 5L36 4L34 4L34 2L33 2L33 1L32 1L32 2L33 2L33 5L36 5L36 6L35 6L35 8L34 8L34 6L33 6L33 9L34 9L34 10L35 10L35 8L37 8L37 9L36 9L36 11L34 11L34 12L33 12L33 10L32 10L32 9L31 9L31 10L30 10L30 9L29 9L29 11L27 11L27 10L28 10L28 9L27 9L27 8L26 8L26 6L25 6L25 8L23 8L23 7L24 7L24 6L23 6L23 7L22 7L22 5L21 5L21 4L23 4L23 3L24 3L24 4L25 4L25 3L24 3L24 2L23 2L23 1ZM40 1L40 2L41 2L41 1ZM42 1L42 2L43 2L43 1ZM44 1L44 2L45 2L45 1ZM10 2L10 3L11 3L11 2ZM22 2L22 3L23 3L23 2ZM29 3L29 4L31 4L31 3ZM51 3L51 4L52 4L52 3ZM19 4L19 5L20 5L20 7L21 7L21 8L22 8L22 7L21 7L21 5L20 5L20 4ZM44 4L44 5L45 5L45 6L44 6L44 7L43 7L43 6L42 6L42 7L43 7L43 8L45 8L45 6L46 6L46 9L47 9L47 10L45 10L45 9L44 9L44 10L45 10L45 11L42 11L42 12L41 12L41 11L40 11L40 12L38 12L38 13L40 13L40 12L41 12L41 13L42 13L42 14L41 14L41 15L40 15L40 14L38 14L38 15L35 15L35 14L37 14L37 12L35 12L35 14L33 14L33 13L32 13L32 12L31 12L31 11L32 11L32 10L31 10L31 11L30 11L30 12L29 12L29 14L27 14L27 13L26 13L26 12L27 12L27 11L26 11L26 12L25 12L25 13L23 13L23 14L25 14L25 15L24 15L24 16L23 16L23 15L22 15L22 14L20 14L20 13L21 13L21 12L20 12L20 13L19 13L19 12L16 12L16 11L15 11L15 9L18 9L18 10L17 10L17 11L18 11L18 10L19 10L19 11L20 11L20 10L19 10L19 9L20 9L20 8L19 8L19 9L18 9L18 8L15 8L15 9L14 9L14 11L13 11L13 13L14 13L14 14L13 14L13 15L12 15L12 16L11 16L11 17L10 17L10 18L11 18L11 19L10 19L10 20L9 20L9 18L8 18L8 20L6 20L6 21L8 21L8 20L9 20L9 21L10 21L10 22L9 22L9 23L8 23L8 24L10 24L10 22L11 22L11 24L12 24L12 23L13 23L13 24L14 24L14 25L10 25L10 26L13 26L13 28L14 28L14 29L17 29L17 30L15 30L15 31L16 31L16 32L18 32L18 33L21 33L21 31L20 31L20 29L21 29L21 30L22 30L22 31L23 31L23 29L21 29L21 26L22 26L22 28L25 28L25 29L24 29L24 30L25 30L25 29L26 29L26 30L27 30L27 31L26 31L26 32L25 32L25 33L22 33L22 34L19 34L19 35L22 35L22 36L23 36L23 35L24 35L24 36L25 36L25 33L26 33L26 34L27 34L27 35L26 35L26 36L27 36L27 37L26 37L26 38L25 38L25 37L22 37L22 38L20 38L20 39L21 39L21 41L22 41L22 42L21 42L21 43L22 43L22 42L25 42L25 43L24 43L24 44L23 44L23 45L22 45L22 47L23 47L23 45L24 45L24 46L25 46L25 47L24 47L24 48L25 48L25 49L26 49L26 48L25 48L25 47L28 47L28 46L29 46L29 44L27 44L27 43L28 43L28 42L27 42L27 41L26 41L26 40L27 40L27 39L28 39L28 38L27 38L27 37L29 37L29 38L30 38L30 39L31 39L31 40L29 40L29 41L31 41L31 40L32 40L32 43L31 43L31 42L29 42L29 43L30 43L30 45L31 45L31 46L30 46L30 47L31 47L31 48L32 48L32 47L33 47L33 49L34 49L34 47L35 47L35 46L36 46L36 47L37 47L37 46L38 46L38 47L39 47L39 50L38 50L38 49L37 49L37 48L35 48L35 50L37 50L37 52L36 52L36 54L37 54L37 53L38 53L38 52L40 52L40 51L39 51L39 50L40 50L40 48L42 48L42 46L44 46L44 45L42 45L42 44L45 44L45 47L47 47L47 48L48 48L48 49L49 49L49 50L48 50L48 51L49 51L49 50L50 50L50 48L51 48L51 47L52 47L52 46L50 46L50 48L48 48L48 47L49 47L49 46L48 46L48 47L47 47L47 46L46 46L46 45L49 45L49 42L50 42L50 43L51 43L51 42L52 42L52 41L53 41L53 39L52 39L52 40L51 40L51 38L52 38L52 37L53 37L53 38L54 38L54 39L55 39L55 40L56 40L56 39L55 39L55 36L54 36L54 37L53 37L53 35L52 35L52 36L51 36L51 34L50 34L50 33L49 33L49 32L50 32L50 31L51 31L51 30L50 30L50 31L49 31L49 30L48 30L48 31L47 31L47 30L46 30L46 31L44 31L44 32L41 32L41 31L42 31L42 30L43 30L43 29L42 29L42 30L41 30L41 29L40 29L40 28L41 28L41 25L42 25L42 26L43 26L43 25L42 25L42 24L41 24L41 23L42 23L42 22L41 22L41 21L39 21L39 20L40 20L40 19L41 19L41 18L44 18L44 16L45 16L45 15L44 15L44 16L43 16L43 15L42 15L42 14L43 14L43 12L45 12L45 11L47 11L47 10L49 10L49 11L50 11L50 9L49 9L49 8L47 8L47 5L46 5L46 4ZM8 5L8 7L9 7L9 5ZM17 5L17 6L16 6L16 7L17 7L17 6L18 6L18 7L19 7L19 6L18 6L18 5ZM29 5L29 8L32 8L32 5ZM27 6L27 7L28 7L28 6ZM30 6L30 7L31 7L31 6ZM36 6L36 7L37 7L37 6ZM48 6L48 7L49 7L49 6ZM25 8L25 9L21 9L21 10L24 10L24 11L23 11L23 12L24 12L24 11L25 11L25 9L26 9L26 10L27 10L27 9L26 9L26 8ZM59 8L59 9L60 9L60 8ZM14 11L14 13L15 13L15 14L17 14L17 16L16 16L16 15L15 15L15 16L16 16L16 17L12 17L12 22L13 22L13 21L14 21L14 23L15 23L15 24L17 24L17 25L14 25L14 26L17 26L17 27L16 27L16 28L17 28L17 27L18 27L18 26L17 26L17 25L18 25L18 24L17 24L17 23L18 23L18 22L19 22L19 23L21 23L21 24L19 24L19 25L21 25L21 24L22 24L22 25L25 25L25 26L26 26L26 25L27 25L27 22L26 22L26 21L28 21L28 22L32 22L32 23L31 23L31 24L29 24L29 23L28 23L28 24L29 24L29 25L28 25L28 26L29 26L29 27L27 27L27 28L26 28L26 27L25 27L25 28L26 28L26 29L27 29L27 30L28 30L28 28L30 28L30 27L31 27L31 25L33 25L33 24L32 24L32 23L33 23L33 22L35 22L35 23L34 23L34 24L37 24L37 25L34 25L34 26L32 26L32 28L33 28L33 30L36 30L36 29L34 29L34 28L37 28L37 31L36 31L36 32L37 32L37 33L38 33L38 34L39 34L39 33L38 33L38 32L40 32L40 33L41 33L41 32L40 32L40 31L41 31L41 30L40 30L40 31L38 31L38 30L39 30L39 28L40 28L40 25L41 25L41 24L40 24L40 23L41 23L41 22L39 22L39 21L37 21L37 23L36 23L36 21L33 21L33 22L32 22L32 20L29 20L29 19L28 19L28 18L26 18L26 17L28 17L28 16L29 16L29 17L30 17L30 18L31 18L31 19L33 19L33 20L34 20L34 19L33 19L33 18L35 18L35 15L33 15L33 14L32 14L32 13L31 13L31 12L30 12L30 13L31 13L31 16L30 16L30 15L25 15L25 16L24 16L24 17L25 17L25 19L21 19L21 18L22 18L22 17L23 17L23 16L21 16L21 15L20 15L20 14L19 14L19 13L15 13L15 11ZM56 12L56 13L57 13L57 12ZM25 13L25 14L26 14L26 13ZM6 14L6 15L7 15L7 16L6 16L6 17L5 17L5 18L6 18L6 19L7 19L7 18L6 18L6 17L8 17L8 15L7 15L7 14ZM18 14L18 15L19 15L19 16L17 16L17 17L16 17L16 18L13 18L13 19L16 19L16 21L17 21L17 22L16 22L16 23L17 23L17 22L18 22L18 21L19 21L19 20L18 20L18 21L17 21L17 18L18 18L18 19L19 19L19 18L20 18L20 17L19 17L19 16L20 16L20 15L19 15L19 14ZM13 15L13 16L14 16L14 15ZM39 15L39 16L37 16L37 19L35 19L35 20L39 20L39 19L38 19L38 18L39 18L39 16L40 16L40 17L41 17L41 16L40 16L40 15ZM31 16L31 17L32 17L32 18L33 18L33 17L34 17L34 16L33 16L33 17L32 17L32 16ZM58 16L58 19L59 19L59 18L60 18L60 19L61 19L61 18L60 18L60 17L59 17L59 16ZM18 17L18 18L19 18L19 17ZM56 17L56 18L57 18L57 17ZM20 19L20 21L21 21L21 19ZM26 19L26 20L28 20L28 21L29 21L29 20L28 20L28 19ZM14 20L14 21L15 21L15 20ZM43 20L43 21L45 21L45 20ZM53 20L53 21L52 21L52 22L53 22L53 23L51 23L51 24L53 24L53 25L50 25L50 26L49 26L49 28L53 28L53 27L55 27L55 28L56 28L56 27L57 27L57 25L58 25L58 26L59 26L59 25L58 25L58 24L60 24L60 23L57 23L57 24L56 24L56 27L55 27L55 26L53 26L53 25L55 25L55 24L53 24L53 23L55 23L55 22L53 22L53 21L54 21L54 20ZM60 20L60 21L61 21L61 20ZM3 21L3 22L2 22L2 23L3 23L3 22L4 22L4 21ZM22 21L22 22L23 22L23 23L25 23L25 25L26 25L26 22L25 22L25 21ZM6 22L6 23L7 23L7 22ZM38 22L38 23L37 23L37 24L39 24L39 22ZM44 23L44 24L45 24L45 23ZM46 25L46 26L48 26L48 25ZM19 26L19 27L20 27L20 26ZM34 26L34 27L33 27L33 28L34 28L34 27L36 27L36 26ZM38 26L38 27L37 27L37 28L39 28L39 26ZM50 26L50 27L52 27L52 26ZM3 27L3 28L4 28L4 27ZM11 27L11 28L10 28L10 29L12 29L12 30L13 30L13 29L12 29L12 27ZM42 27L42 28L43 28L43 27ZM46 27L46 28L48 28L48 27ZM58 27L58 28L57 28L57 29L58 29L58 28L60 28L60 27ZM1 29L1 30L2 30L2 29ZM5 29L5 32L8 32L8 29ZM18 29L18 31L19 31L19 32L20 32L20 31L19 31L19 29ZM29 29L29 32L32 32L32 29ZM53 29L53 32L56 32L56 29ZM6 30L6 31L7 31L7 30ZM30 30L30 31L31 31L31 30ZM54 30L54 31L55 31L55 30ZM57 30L57 31L58 31L58 32L59 32L59 31L58 31L58 30ZM13 31L13 32L12 32L12 34L11 34L11 35L12 35L12 34L16 34L16 33L13 33L13 32L14 32L14 31ZM33 31L33 35L32 35L32 36L31 36L31 35L30 35L30 34L32 34L32 33L29 33L29 35L28 35L28 36L29 36L29 37L30 37L30 38L35 38L35 40L37 40L37 41L38 41L38 42L37 42L37 43L36 43L36 44L37 44L37 45L38 45L38 46L40 46L40 47L41 47L41 46L42 46L42 45L41 45L41 44L42 44L42 43L43 43L43 42L41 42L41 41L43 41L43 40L42 40L42 39L45 39L45 38L44 38L44 37L45 37L45 36L43 36L43 38L42 38L42 35L44 35L44 33L45 33L45 35L46 35L46 34L47 34L47 35L48 35L48 36L50 36L50 34L49 34L49 33L48 33L48 32L49 32L49 31L48 31L48 32L47 32L47 31L46 31L46 32L47 32L47 33L45 33L45 32L44 32L44 33L43 33L43 34L40 34L40 36L39 36L39 35L36 35L36 36L37 36L37 37L32 37L32 36L34 36L34 34L35 34L35 31ZM26 32L26 33L27 33L27 34L28 34L28 33L27 33L27 32ZM22 34L22 35L23 35L23 34ZM14 35L14 36L15 36L15 37L17 37L17 36L16 36L16 35ZM0 36L0 37L1 37L1 36ZM4 36L4 37L5 37L5 36ZM18 36L18 37L19 37L19 36ZM20 36L20 37L21 37L21 36ZM30 36L30 37L31 37L31 36ZM38 36L38 37L37 37L37 38L36 38L36 39L39 39L39 40L38 40L38 41L39 41L39 42L38 42L38 43L40 43L40 44L38 44L38 45L40 45L40 46L41 46L41 45L40 45L40 44L41 44L41 42L40 42L40 41L39 41L39 40L41 40L41 39L40 39L40 38L41 38L41 37L40 37L40 38L38 38L38 37L39 37L39 36ZM46 37L46 38L47 38L47 39L46 39L46 40L47 40L47 39L48 39L48 40L50 40L50 42L51 42L51 40L50 40L50 38L51 38L51 37L49 37L49 39L48 39L48 38L47 38L47 37ZM58 37L58 38L59 38L59 37ZM6 38L6 39L7 39L7 40L5 40L5 42L6 42L6 43L7 43L7 42L6 42L6 41L7 41L7 40L8 40L8 38ZM17 38L17 39L15 39L15 40L16 40L16 41L18 41L18 40L17 40L17 39L18 39L18 38ZM22 38L22 39L24 39L24 40L22 40L22 41L25 41L25 42L26 42L26 41L25 41L25 39L24 39L24 38ZM26 38L26 39L27 39L27 38ZM32 39L32 40L33 40L33 39ZM10 40L10 43L12 43L12 44L13 44L13 42L12 42L12 41L11 41L11 40ZM19 40L19 41L20 41L20 40ZM44 40L44 43L46 43L46 42L47 42L47 44L48 44L48 42L47 42L47 41L46 41L46 42L45 42L45 40ZM34 41L34 42L35 42L35 41ZM15 42L15 43L16 43L16 42ZM59 42L59 43L58 43L58 44L59 44L59 43L60 43L60 42ZM3 43L3 44L4 44L4 43ZM32 43L32 45L34 45L34 46L35 46L35 43ZM10 44L10 45L11 45L11 44ZM20 44L20 45L19 45L19 46L20 46L20 47L21 47L21 46L20 46L20 45L21 45L21 44ZM24 44L24 45L25 45L25 46L26 46L26 45L27 45L27 46L28 46L28 45L27 45L27 44L26 44L26 45L25 45L25 44ZM50 44L50 45L52 45L52 44ZM12 46L12 47L13 47L13 46ZM16 46L16 48L15 48L15 49L16 49L16 48L17 48L17 47L18 47L18 49L19 49L19 50L18 50L18 51L19 51L19 50L20 50L20 51L22 51L22 52L24 52L24 51L22 51L22 48L20 48L20 49L19 49L19 47L18 47L18 46ZM31 46L31 47L32 47L32 46ZM4 47L4 48L5 48L5 47ZM43 47L43 49L41 49L41 50L43 50L43 49L44 49L44 50L45 50L45 49L44 49L44 47ZM27 48L27 49L28 49L28 50L29 50L29 49L28 49L28 48ZM20 49L20 50L21 50L21 49ZM58 49L58 50L59 50L59 49ZM46 50L46 51L47 51L47 50ZM3 51L3 52L4 52L4 51ZM12 51L12 53L13 53L13 54L11 54L11 53L9 53L9 55L10 55L10 56L9 56L9 57L10 57L10 56L11 56L11 57L12 57L12 56L11 56L11 55L13 55L13 56L15 56L15 54L17 54L17 55L18 55L18 54L17 54L17 53L13 53L13 51ZM14 51L14 52L16 52L16 51ZM6 52L6 53L7 53L7 52ZM20 52L20 53L21 53L21 52ZM26 53L26 54L27 54L27 53ZM29 53L29 56L32 56L32 53ZM53 53L53 56L56 56L56 53ZM13 54L13 55L14 55L14 54ZM30 54L30 55L31 55L31 54ZM38 54L38 55L37 55L37 56L41 56L41 55L39 55L39 54ZM54 54L54 55L55 55L55 54ZM24 55L24 56L25 56L25 57L26 57L26 55ZM47 55L47 56L49 56L49 55ZM17 56L17 57L18 57L18 56ZM37 57L37 58L36 58L36 59L37 59L37 58L38 58L38 57ZM54 57L54 58L56 58L56 57ZM9 58L9 60L10 60L10 59L11 59L11 58ZM17 58L17 59L16 59L16 60L17 60L17 59L20 59L20 58ZM22 58L22 59L23 59L23 58ZM0 0L0 7L7 7L7 0ZM1 1L1 6L6 6L6 1ZM2 2L2 5L5 5L5 2ZM54 0L54 7L61 7L61 0ZM55 1L55 6L60 6L60 1ZM56 2L56 5L59 5L59 2ZM0 54L0 61L7 61L7 54ZM1 55L1 60L6 60L6 55ZM2 56L2 59L5 59L5 56Z" fill="#000000"/></g></g></svg>
