<?xml version="1.0" encoding="UTF-8"?>
<svg xmlns="http://www.w3.org/2000/svg" version="1.1" width="300" height="300" viewBox="0 0 300 300"><rect x="0" y="0" width="300" height="300" fill="#ffffff"/><g transform="scale(4.918)"><g transform="translate(0,0)"><path fill-rule="evenodd" d="M9 0L9 1L8 1L8 2L9 2L9 1L10 1L10 0ZM12 0L12 4L11 4L11 3L10 3L10 4L11 4L11 5L13 5L13 4L14 4L14 7L13 7L13 6L12 6L12 7L11 7L11 6L10 6L10 8L11 8L11 10L12 10L12 13L13 13L13 10L12 10L12 8L15 8L15 4L14 4L14 3L13 3L13 2L14 2L14 1L13 1L13 0ZM16 0L16 1L15 1L15 2L16 2L16 4L19 4L19 5L18 5L18 7L17 7L17 5L16 5L16 9L17 9L17 10L15 10L15 9L14 9L14 10L15 10L15 11L14 11L14 12L16 12L16 13L19 13L19 14L18 14L18 15L19 15L19 14L20 14L20 16L17 16L17 15L15 15L15 16L17 16L17 17L19 17L19 18L17 18L17 20L16 20L16 19L13 19L13 20L12 20L12 19L10 19L10 20L9 20L9 19L8 19L8 18L9 18L9 17L10 17L10 18L11 18L11 17L12 17L12 16L14 16L14 15L13 15L13 14L12 14L12 16L11 16L11 15L9 15L9 14L10 14L10 13L11 13L11 11L10 11L10 12L9 12L9 14L6 14L6 13L7 13L7 12L6 12L6 11L7 11L7 10L8 10L8 11L9 11L9 8L6 8L6 9L7 9L7 10L5 10L5 15L3 15L3 16L1 16L1 17L0 17L0 18L1 18L1 19L0 19L0 23L1 23L1 22L2 22L2 21L3 21L3 20L4 20L4 22L5 22L5 24L6 24L6 25L8 25L8 26L4 26L4 27L3 27L3 28L0 28L0 32L1 32L1 30L2 30L2 29L3 29L3 28L4 28L4 30L3 30L3 31L2 31L2 32L3 32L3 31L4 31L4 33L5 33L5 34L6 34L6 35L5 35L5 36L6 36L6 37L5 37L5 38L6 38L6 39L7 39L7 40L6 40L6 41L5 41L5 42L3 42L3 43L5 43L5 44L4 44L4 46L3 46L3 44L2 44L2 46L1 46L1 45L0 45L0 46L1 46L1 47L2 47L2 48L1 48L1 50L2 50L2 51L0 51L0 53L4 53L4 52L5 52L5 51L7 51L7 52L6 52L6 53L8 53L8 55L9 55L9 56L8 56L8 61L10 61L10 60L11 60L11 61L12 61L12 60L13 60L13 61L14 61L14 58L15 58L15 56L14 56L14 57L13 57L13 56L12 56L12 58L11 58L11 56L10 56L10 54L11 54L11 55L14 55L14 54L11 54L11 53L14 53L14 52L15 52L15 53L19 53L19 54L20 54L20 55L21 55L21 56L24 56L24 54L25 54L25 56L26 56L26 55L27 55L27 58L26 58L26 60L27 60L27 61L28 61L28 60L29 60L29 58L31 58L31 57L32 57L32 58L33 58L33 59L32 59L32 60L31 60L31 59L30 59L30 60L31 60L31 61L32 61L32 60L33 60L33 61L38 61L38 60L34 60L34 59L35 59L35 58L33 58L33 57L37 57L37 58L36 58L36 59L37 59L37 58L38 58L38 59L39 59L39 58L40 58L40 60L39 60L39 61L40 61L40 60L41 60L41 61L42 61L42 60L43 60L43 61L44 61L44 60L43 60L43 59L42 59L42 60L41 60L41 58L45 58L45 61L46 61L46 59L48 59L48 60L47 60L47 61L49 61L49 60L50 60L50 61L53 61L53 60L55 60L55 61L61 61L61 54L60 54L60 55L59 55L59 56L58 56L58 58L57 58L57 52L53 52L53 51L55 51L55 50L56 50L56 51L57 51L57 50L58 50L58 49L59 49L59 48L58 48L58 47L57 47L57 46L58 46L58 45L59 45L59 47L61 47L61 46L60 46L60 45L61 45L61 42L60 42L60 43L59 43L59 44L56 44L56 41L59 41L59 40L56 40L56 41L55 41L55 42L53 42L53 43L52 43L52 42L50 42L50 40L51 40L51 41L52 41L52 40L54 40L54 39L55 39L55 38L56 38L56 39L59 39L59 38L60 38L60 39L61 39L61 38L60 38L60 37L59 37L59 36L61 36L61 34L59 34L59 36L57 36L57 35L58 35L58 34L57 34L57 35L56 35L56 33L57 33L57 32L58 32L58 33L60 33L60 32L61 32L61 30L60 30L60 31L59 31L59 29L60 29L60 28L61 28L61 26L60 26L60 25L59 25L59 24L58 24L58 25L57 25L57 26L58 26L58 27L59 27L59 28L57 28L57 27L56 27L56 24L57 24L57 23L59 23L59 22L58 22L58 21L61 21L61 18L60 18L60 20L58 20L58 21L56 21L56 20L57 20L57 19L59 19L59 18L58 18L58 17L60 17L60 16L61 16L61 14L60 14L60 16L58 16L58 15L59 15L59 14L58 14L58 13L59 13L59 12L60 12L60 11L61 11L61 10L60 10L60 11L59 11L59 10L58 10L58 8L57 8L57 9L56 9L56 8L55 8L55 9L54 9L54 8L52 8L52 7L53 7L53 6L52 6L52 7L51 7L51 5L52 5L52 4L53 4L53 0L51 0L51 2L50 2L50 1L48 1L48 2L47 2L47 1L46 1L46 0L45 0L45 1L44 1L44 2L42 2L42 3L41 3L41 2L39 2L39 1L40 1L40 0L39 0L39 1L38 1L38 2L37 2L37 1L36 1L36 2L37 2L37 3L36 3L36 4L35 4L35 5L34 5L34 4L33 4L33 3L32 3L32 1L33 1L33 0L32 0L32 1L31 1L31 0L30 0L30 1L31 1L31 2L30 2L30 3L29 3L29 2L27 2L27 0L26 0L26 1L25 1L25 0L24 0L24 1L22 1L22 2L21 2L21 3L20 3L20 2L17 2L17 1L18 1L18 0ZM19 0L19 1L20 1L20 0ZM41 0L41 1L43 1L43 0ZM34 1L34 2L35 2L35 1ZM23 2L23 3L21 3L21 4L20 4L20 3L19 3L19 4L20 4L20 5L19 5L19 7L20 7L20 8L19 8L19 9L23 9L23 11L21 11L21 13L20 13L20 12L19 12L19 13L20 13L20 14L21 14L21 15L22 15L22 13L25 13L25 16L26 16L26 17L24 17L24 15L23 15L23 17L22 17L22 16L21 16L21 17L20 17L20 18L19 18L19 19L18 19L18 20L22 20L22 21L23 21L23 19L24 19L24 21L25 21L25 22L21 22L21 21L20 21L20 23L19 23L19 21L18 21L18 23L17 23L17 21L15 21L15 22L14 22L14 21L13 21L13 22L12 22L12 20L11 20L11 21L8 21L8 20L7 20L7 19L5 19L5 18L4 18L4 20L7 20L7 21L5 21L5 22L7 22L7 23L6 23L6 24L7 24L7 23L8 23L8 25L9 25L9 26L10 26L10 27L8 27L8 28L10 28L10 30L11 30L11 32L10 32L10 33L11 33L11 32L12 32L12 34L8 34L8 35L9 35L9 36L7 36L7 35L6 35L6 36L7 36L7 37L6 37L6 38L8 38L8 37L9 37L9 39L8 39L8 40L7 40L7 41L6 41L6 42L7 42L7 43L6 43L6 44L5 44L5 46L7 46L7 47L6 47L6 48L5 48L5 47L4 47L4 49L2 49L2 50L5 50L5 49L6 49L6 50L7 50L7 51L9 51L9 52L8 52L8 53L9 53L9 54L10 54L10 53L9 53L9 52L11 52L11 51L12 51L12 52L13 52L13 51L14 51L14 50L13 50L13 49L14 49L14 48L13 48L13 49L11 49L11 51L10 51L10 49L9 49L9 48L8 48L8 47L9 47L9 46L8 46L8 45L9 45L9 44L10 44L10 45L13 45L13 46L14 46L14 47L16 47L16 48L15 48L15 49L16 49L16 50L15 50L15 51L16 51L16 52L17 52L17 51L19 51L19 50L20 50L20 51L22 51L22 53L25 53L25 50L26 50L26 54L27 54L27 55L28 55L28 54L27 54L27 52L29 52L29 51L30 51L30 50L31 50L31 51L32 51L32 52L33 52L33 49L30 49L30 48L31 48L31 47L32 47L32 48L33 48L33 47L32 47L32 46L31 46L31 45L30 45L30 44L31 44L31 43L30 43L30 44L26 44L26 43L27 43L27 42L28 42L28 43L29 43L29 42L32 42L32 41L33 41L33 39L32 39L32 38L33 38L33 35L34 35L34 34L35 34L35 36L37 36L37 37L38 37L38 38L40 38L40 39L41 39L41 40L39 40L39 41L38 41L38 42L37 42L37 43L35 43L35 44L37 44L37 45L38 45L38 46L36 46L36 45L34 45L34 44L33 44L33 43L32 43L32 44L33 44L33 45L34 45L34 46L36 46L36 48L37 48L37 49L38 49L38 50L39 50L39 51L34 51L34 52L37 52L37 53L38 53L38 54L36 54L36 53L33 53L33 55L34 55L34 56L37 56L37 57L38 57L38 58L39 58L39 55L40 55L40 54L39 54L39 53L43 53L43 54L41 54L41 56L40 56L40 58L41 58L41 56L44 56L44 57L45 57L45 58L48 58L48 59L50 59L50 58L51 58L51 56L52 56L52 55L50 55L50 54L51 54L51 53L50 53L50 52L52 52L52 51L53 51L53 49L54 49L54 48L55 48L55 49L56 49L56 50L57 50L57 49L56 49L56 48L57 48L57 47L54 47L54 48L53 48L53 49L52 49L52 50L51 50L51 49L50 49L50 50L49 50L49 49L48 49L48 48L49 48L49 47L51 47L51 48L52 48L52 46L53 46L53 45L54 45L54 44L55 44L55 45L56 45L56 46L57 46L57 45L56 45L56 44L55 44L55 43L54 43L54 44L53 44L53 45L52 45L52 46L51 46L51 45L50 45L50 46L47 46L47 45L48 45L48 44L52 44L52 43L50 43L50 42L49 42L49 41L48 41L48 40L50 40L50 38L51 38L51 40L52 40L52 38L53 38L53 37L54 37L54 38L55 38L55 37L56 37L56 38L57 38L57 37L56 37L56 35L53 35L53 34L54 34L54 33L52 33L52 32L50 32L50 31L51 31L51 30L52 30L52 29L50 29L50 28L52 28L52 27L50 27L50 26L53 26L53 27L54 27L54 28L56 28L56 27L55 27L55 26L53 26L53 25L55 25L55 24L53 24L53 22L54 22L54 23L55 23L55 22L54 22L54 21L55 21L55 20L56 20L56 19L57 19L57 17L58 17L58 16L56 16L56 15L57 15L57 14L56 14L56 13L58 13L58 12L59 12L59 11L57 11L57 10L56 10L56 9L55 9L55 10L54 10L54 11L53 11L53 9L52 9L52 8L51 8L51 9L50 9L50 8L49 8L49 9L45 9L45 8L43 8L43 7L44 7L44 6L45 6L45 7L46 7L46 5L47 5L47 4L48 4L48 3L50 3L50 2L48 2L48 3L47 3L47 2L46 2L46 3L47 3L47 4L46 4L46 5L42 5L42 4L41 4L41 3L38 3L38 4L37 4L37 7L36 7L36 6L35 6L35 8L34 8L34 6L33 6L33 9L34 9L34 10L35 10L35 8L37 8L37 7L38 7L38 10L41 10L41 9L43 9L43 10L42 10L42 11L43 11L43 12L44 12L44 13L43 13L43 14L42 14L42 12L40 12L40 11L39 11L39 13L38 13L38 14L37 14L37 15L36 15L36 16L37 16L37 19L36 19L36 18L35 18L35 15L34 15L34 14L36 14L36 13L34 13L34 14L32 14L32 13L31 13L31 12L32 12L32 11L33 11L33 10L32 10L32 9L29 9L29 10L30 10L30 11L31 11L31 12L29 12L29 11L28 11L28 8L24 8L24 6L25 6L25 7L26 7L26 6L27 6L27 7L28 7L28 6L27 6L27 5L28 5L28 4L27 4L27 2L25 2L25 3L24 3L24 2ZM8 3L8 4L9 4L9 3ZM25 3L25 4L21 4L21 6L20 6L20 7L21 7L21 8L23 8L23 6L22 6L22 5L25 5L25 4L26 4L26 5L27 5L27 4L26 4L26 3ZM30 3L30 4L31 4L31 3ZM43 3L43 4L45 4L45 3ZM51 3L51 4L52 4L52 3ZM8 5L8 7L9 7L9 5ZM29 5L29 8L32 8L32 5ZM38 5L38 7L39 7L39 8L41 8L41 5ZM21 6L21 7L22 7L22 6ZM30 6L30 7L31 7L31 6ZM39 6L39 7L40 7L40 6ZM42 6L42 7L43 7L43 6ZM47 6L47 7L48 7L48 6ZM49 6L49 7L50 7L50 6ZM0 8L0 9L1 9L1 10L2 10L2 12L4 12L4 9L5 9L5 8ZM17 8L17 9L18 9L18 8ZM59 8L59 9L60 9L60 8ZM2 9L2 10L3 10L3 9ZM24 9L24 10L25 10L25 13L26 13L26 14L27 14L27 15L26 15L26 16L27 16L27 17L26 17L26 19L25 19L25 21L26 21L26 22L27 22L27 23L26 23L26 24L25 24L25 23L24 23L24 24L23 24L23 23L21 23L21 25L22 25L22 26L23 26L23 25L24 25L24 26L25 26L25 27L24 27L24 28L26 28L26 27L29 27L29 28L28 28L28 29L26 29L26 30L25 30L25 29L21 29L21 30L20 30L20 28L18 28L18 26L19 26L19 27L20 27L20 26L19 26L19 25L20 25L20 24L19 24L19 25L18 25L18 24L17 24L17 23L16 23L16 22L15 22L15 23L14 23L14 22L13 22L13 23L12 23L12 22L11 22L11 23L9 23L9 22L8 22L8 23L9 23L9 24L10 24L10 25L12 25L12 26L14 26L14 25L15 25L15 28L14 28L14 29L13 29L13 28L11 28L11 30L15 30L15 31L16 31L16 32L15 32L15 33L14 33L14 34L13 34L13 35L10 35L10 38L11 38L11 37L12 37L12 38L13 38L13 39L12 39L12 41L13 41L13 39L14 39L14 40L15 40L15 43L14 43L14 42L12 42L12 43L13 43L13 45L14 45L14 46L15 46L15 45L19 45L19 44L20 44L20 45L21 45L21 46L20 46L20 49L21 49L21 50L22 50L22 51L23 51L23 52L24 52L24 51L23 51L23 50L24 50L24 49L26 49L26 50L27 50L27 51L28 51L28 50L27 50L27 49L26 49L26 48L25 48L25 47L27 47L27 48L29 48L29 47L28 47L28 46L29 46L29 45L28 45L28 46L27 46L27 45L22 45L22 44L21 44L21 42L23 42L23 44L25 44L25 42L27 42L27 41L28 41L28 40L27 40L27 41L26 41L26 39L28 39L28 38L29 38L29 40L30 40L30 41L32 41L32 39L31 39L31 38L32 38L32 37L31 37L31 36L32 36L32 35L33 35L33 34L34 34L34 33L36 33L36 35L40 35L40 36L42 36L42 38L43 38L43 36L47 36L47 34L46 34L46 35L45 35L45 33L47 33L47 32L48 32L48 33L49 33L49 34L50 34L50 36L48 36L48 37L49 37L49 38L50 38L50 36L51 36L51 38L52 38L52 37L53 37L53 35L52 35L52 34L50 34L50 32L48 32L48 31L49 31L49 30L50 30L50 29L49 29L49 28L48 28L48 27L47 27L47 26L45 26L45 25L44 25L44 26L45 26L45 29L44 29L44 28L43 28L43 27L42 27L42 28L41 28L41 26L40 26L40 25L39 25L39 26L40 26L40 27L38 27L38 23L39 23L39 24L41 24L41 25L42 25L42 26L43 26L43 25L42 25L42 24L41 24L41 23L39 23L39 22L40 22L40 21L39 21L39 22L38 22L38 23L37 23L37 22L36 22L36 21L37 21L37 20L41 20L41 19L42 19L42 20L45 20L45 22L46 22L46 23L44 23L44 24L47 24L47 22L46 22L46 19L47 19L47 20L48 20L48 21L49 21L49 22L48 22L48 23L49 23L49 24L48 24L48 25L49 25L49 26L50 26L50 25L53 25L53 24L51 24L51 23L52 23L52 22L50 22L50 21L53 21L53 19L54 19L54 20L55 20L55 19L56 19L56 18L55 18L55 17L56 17L56 16L55 16L55 15L56 15L56 14L55 14L55 11L54 11L54 12L52 12L52 11L50 11L50 9L49 9L49 10L48 10L48 11L49 11L49 12L48 12L48 13L49 13L49 12L51 12L51 14L50 14L50 15L49 15L49 16L48 16L48 15L47 15L47 14L46 14L46 11L47 11L47 10L45 10L45 9L44 9L44 10L45 10L45 13L44 13L44 14L43 14L43 15L44 15L44 16L43 16L43 17L42 17L42 14L41 14L41 13L39 13L39 14L38 14L38 15L37 15L37 16L39 16L39 18L38 18L38 19L37 19L37 20L34 20L34 19L35 19L35 18L34 18L34 16L33 16L33 17L32 17L32 18L33 18L33 21L32 21L32 20L31 20L31 19L30 19L30 17L29 17L29 16L32 16L32 14L31 14L31 13L26 13L26 12L27 12L27 9L26 9L26 10L25 10L25 9ZM36 9L36 11L34 11L34 12L37 12L37 9ZM17 10L17 11L20 11L20 10ZM31 10L31 11L32 11L32 10ZM0 11L0 12L1 12L1 11ZM56 11L56 12L57 12L57 11ZM1 13L1 14L2 14L2 13ZM3 13L3 14L4 14L4 13ZM14 13L14 14L15 14L15 13ZM52 13L52 14L53 14L53 15L52 15L52 16L53 16L53 15L55 15L55 14L53 14L53 13ZM40 14L40 15L39 15L39 16L40 16L40 17L41 17L41 16L40 16L40 15L41 15L41 14ZM44 14L44 15L45 15L45 16L44 16L44 17L45 17L45 16L46 16L46 18L47 18L47 17L48 17L48 18L49 18L49 19L48 19L48 20L49 20L49 21L50 21L50 20L52 20L52 18L53 18L53 17L51 17L51 15L50 15L50 16L49 16L49 17L48 17L48 16L46 16L46 14ZM6 15L6 16L4 16L4 17L6 17L6 18L8 18L8 17L9 17L9 15L8 15L8 16L7 16L7 15ZM27 15L27 16L29 16L29 15ZM6 16L6 17L7 17L7 16ZM10 16L10 17L11 17L11 16ZM1 17L1 18L3 18L3 17ZM13 17L13 18L14 18L14 17ZM15 17L15 18L16 18L16 17ZM21 17L21 18L20 18L20 19L21 19L21 18L22 18L22 17ZM23 17L23 18L24 18L24 17ZM28 17L28 18L29 18L29 17ZM49 17L49 18L50 18L50 19L51 19L51 18L50 18L50 17ZM42 18L42 19L45 19L45 18ZM54 18L54 19L55 19L55 18ZM1 19L1 20L3 20L3 19ZM26 19L26 21L27 21L27 22L28 22L28 21L29 21L29 23L27 23L27 24L26 24L26 25L27 25L27 24L30 24L30 25L28 25L28 26L30 26L30 25L31 25L31 26L32 26L32 28L33 28L33 27L34 27L34 26L36 26L36 28L37 28L37 29L38 29L38 30L35 30L35 29L33 29L33 31L34 31L34 32L37 32L37 33L38 33L38 34L39 34L39 33L38 33L38 32L40 32L40 33L41 33L41 34L40 34L40 35L42 35L42 36L43 36L43 34L44 34L44 33L45 33L45 32L44 32L44 31L46 31L46 32L47 32L47 31L48 31L48 30L49 30L49 29L48 29L48 28L47 28L47 27L46 27L46 30L42 30L42 29L41 29L41 28L40 28L40 31L38 31L38 30L39 30L39 29L38 29L38 28L37 28L37 25L34 25L34 26L32 26L32 25L33 25L33 23L34 23L34 24L37 24L37 23L36 23L36 22L35 22L35 21L34 21L34 22L32 22L32 21L31 21L31 20L30 20L30 21L29 21L29 19ZM27 20L27 21L28 21L28 20ZM42 21L42 22L44 22L44 21ZM31 22L31 23L30 23L30 24L31 24L31 25L32 25L32 22ZM34 22L34 23L35 23L35 22ZM49 22L49 23L50 23L50 22ZM56 22L56 23L57 23L57 22ZM60 22L60 23L61 23L61 22ZM2 23L2 24L4 24L4 23ZM13 23L13 24L12 24L12 25L14 25L14 23ZM0 24L0 25L1 25L1 24ZM15 24L15 25L16 25L16 26L18 26L18 25L16 25L16 24ZM22 24L22 25L23 25L23 24ZM24 24L24 25L25 25L25 24ZM2 25L2 26L0 26L0 27L2 27L2 26L3 26L3 25ZM58 25L58 26L59 26L59 25ZM4 27L4 28L7 28L7 27ZM16 27L16 28L17 28L17 27ZM21 27L21 28L23 28L23 27ZM5 29L5 32L8 32L8 29ZM15 29L15 30L16 30L16 31L18 31L18 30L19 30L19 33L17 33L17 32L16 32L16 33L15 33L15 34L16 34L16 33L17 33L17 34L19 34L19 35L21 35L21 34L22 34L22 35L23 35L23 36L22 36L22 37L23 37L23 36L24 36L24 37L25 37L25 36L24 36L24 35L23 35L23 34L24 34L24 33L23 33L23 32L25 32L25 30L24 30L24 31L23 31L23 30L22 30L22 31L20 31L20 30L19 30L19 29ZM29 29L29 32L32 32L32 29ZM53 29L53 32L56 32L56 29ZM6 30L6 31L7 31L7 30ZM26 30L26 33L25 33L25 34L26 34L26 37L27 37L27 38L28 38L28 37L29 37L29 38L31 38L31 37L29 37L29 36L27 36L27 34L28 34L28 35L29 35L29 33L27 33L27 30ZM30 30L30 31L31 31L31 30ZM34 30L34 31L35 31L35 30ZM41 30L41 31L40 31L40 32L41 32L41 31L42 31L42 32L43 32L43 33L42 33L42 34L43 34L43 33L44 33L44 32L43 32L43 31L42 31L42 30ZM46 30L46 31L47 31L47 30ZM54 30L54 31L55 31L55 30ZM13 31L13 32L14 32L14 31ZM58 31L58 32L59 32L59 31ZM20 32L20 33L22 33L22 32ZM0 33L0 36L1 36L1 33ZM2 33L2 34L3 34L3 38L2 38L2 37L1 37L1 38L0 38L0 41L4 41L4 40L3 40L3 39L4 39L4 34L3 34L3 33ZM6 33L6 34L7 34L7 33ZM26 33L26 34L27 34L27 33ZM30 33L30 34L31 34L31 35L30 35L30 36L31 36L31 35L32 35L32 34L33 34L33 33L32 33L32 34L31 34L31 33ZM13 35L13 38L14 38L14 37L15 37L15 39L16 39L16 40L17 40L17 41L16 41L16 43L15 43L15 44L14 44L14 45L15 45L15 44L19 44L19 43L20 43L20 42L18 42L18 43L17 43L17 41L18 41L18 40L17 40L17 39L18 39L18 38L19 38L19 39L20 39L20 38L21 38L21 40L19 40L19 41L21 41L21 40L22 40L22 41L23 41L23 42L24 42L24 41L25 41L25 40L24 40L24 39L23 39L23 38L21 38L21 37L20 37L20 36L19 36L19 37L15 37L15 36L16 36L16 35ZM51 35L51 36L52 36L52 35ZM38 36L38 37L39 37L39 36ZM54 36L54 37L55 37L55 36ZM19 37L19 38L20 38L20 37ZM34 37L34 38L35 38L35 40L37 40L37 39L36 39L36 38L35 38L35 37ZM44 37L44 38L46 38L46 39L47 39L47 40L46 40L46 41L47 41L47 40L48 40L48 39L47 39L47 38L46 38L46 37ZM58 37L58 38L59 38L59 37ZM16 38L16 39L17 39L17 38ZM1 39L1 40L2 40L2 39ZM9 39L9 41L11 41L11 39ZM22 39L22 40L23 40L23 39ZM42 39L42 40L43 40L43 41L39 41L39 42L38 42L38 43L37 43L37 44L38 44L38 45L39 45L39 46L38 46L38 47L39 47L39 50L40 50L40 48L41 48L41 47L42 47L42 48L43 48L43 49L42 49L42 50L44 50L44 51L42 51L42 52L46 52L46 51L47 51L47 52L48 52L48 53L49 53L49 52L50 52L50 51L51 51L51 50L50 50L50 51L49 51L49 50L48 50L48 51L47 51L47 50L46 50L46 51L45 51L45 50L44 50L44 48L45 48L45 47L47 47L47 48L48 48L48 47L47 47L47 46L46 46L46 43L47 43L47 42L46 42L46 43L45 43L45 45L44 45L44 44L43 44L43 43L44 43L44 40L45 40L45 39ZM60 40L60 41L61 41L61 40ZM34 41L34 42L35 42L35 41ZM1 42L1 43L2 43L2 42ZM8 42L8 43L10 43L10 44L11 44L11 42ZM40 42L40 43L39 43L39 44L40 44L40 46L39 46L39 47L41 47L41 46L42 46L42 47L43 47L43 48L44 48L44 47L45 47L45 46L44 46L44 45L43 45L43 44L42 44L42 43L43 43L43 42ZM48 42L48 43L49 43L49 42ZM40 43L40 44L41 44L41 43ZM6 44L6 45L7 45L7 44ZM59 44L59 45L60 45L60 44ZM42 45L42 46L43 46L43 47L44 47L44 46L43 46L43 45ZM2 46L2 47L3 47L3 46ZM10 46L10 47L11 47L11 46ZM21 46L21 47L22 47L22 46ZM23 46L23 49L22 49L22 48L21 48L21 49L22 49L22 50L23 50L23 49L24 49L24 47L25 47L25 46ZM30 46L30 47L31 47L31 46ZM6 48L6 49L7 49L7 50L9 50L9 49L8 49L8 48ZM17 48L17 49L19 49L19 48ZM60 48L60 49L61 49L61 48ZM34 49L34 50L35 50L35 49ZM59 50L59 51L61 51L61 50ZM3 51L3 52L4 52L4 51ZM39 51L39 52L41 52L41 51ZM48 51L48 52L49 52L49 51ZM19 52L19 53L20 53L20 54L21 54L21 53L20 53L20 52ZM58 52L58 53L59 53L59 52ZM60 52L60 53L61 53L61 52ZM29 53L29 56L32 56L32 53ZM44 53L44 54L46 54L46 55L47 55L47 54L46 54L46 53ZM53 53L53 56L56 56L56 53ZM15 54L15 55L16 55L16 57L18 57L18 58L17 58L17 59L18 59L18 58L19 58L19 59L20 59L20 58L19 58L19 57L20 57L20 56L19 56L19 57L18 57L18 56L17 56L17 55L18 55L18 54ZM22 54L22 55L23 55L23 54ZM30 54L30 55L31 55L31 54ZM34 54L34 55L36 55L36 54ZM38 54L38 55L37 55L37 56L38 56L38 55L39 55L39 54ZM48 54L48 55L49 55L49 56L48 56L48 57L49 57L49 56L50 56L50 55L49 55L49 54ZM54 54L54 55L55 55L55 54ZM44 55L44 56L45 56L45 55ZM9 56L9 58L10 58L10 56ZM22 57L22 58L21 58L21 60L15 60L15 61L22 61L22 60L24 60L24 59L25 59L25 57ZM28 57L28 58L27 58L27 59L28 59L28 58L29 58L29 57ZM55 57L55 60L60 60L60 57L59 57L59 59L57 59L57 58L56 58L56 57ZM12 58L12 59L13 59L13 58ZM22 58L22 59L24 59L24 58ZM52 58L52 59L51 59L51 60L52 60L52 59L54 59L54 58ZM9 59L9 60L10 60L10 59ZM0 0L0 7L7 7L7 0ZM1 1L1 6L6 6L6 1ZM2 2L2 5L5 5L5 2ZM54 0L54 7L61 7L61 0ZM55 1L55 6L60 6L60 1ZM56 2L56 5L59 5L59 2ZM0 54L0 61L7 61L7 54ZM1 55L1 60L6 60L6 55ZM2 56L2 59L5 59L5 56Z" fill="#000000"/></g></g></svg>
