<?xml version="1.0" encoding="UTF-8"?>
<svg xmlns="http://www.w3.org/2000/svg" version="1.1" width="300" height="300" viewBox="0 0 300 300"><rect x="0" y="0" width="300" height="300" fill="#ffffff"/><g transform="scale(4.918)"><g transform="translate(0,0)"><path fill-rule="evenodd" d="M10 0L10 1L11 1L11 0ZM12 0L12 1L14 1L14 0ZM15 0L15 1L16 1L16 0ZM21 0L21 1L22 1L22 2L21 2L21 3L20 3L20 1L19 1L19 3L18 3L18 1L17 1L17 3L16 3L16 2L15 2L15 3L16 3L16 4L14 4L14 2L12 2L12 4L11 4L11 3L10 3L10 2L9 2L9 1L8 1L8 2L9 2L9 3L8 3L8 4L9 4L9 3L10 3L10 5L11 5L11 6L10 6L10 7L9 7L9 5L8 5L8 7L9 7L9 8L6 8L6 9L7 9L7 10L6 10L6 11L7 11L7 10L8 10L8 9L10 9L10 8L11 8L11 6L12 6L12 7L13 7L13 8L12 8L12 9L11 9L11 10L12 10L12 11L13 11L13 8L14 8L14 7L15 7L15 8L16 8L16 9L17 9L17 10L15 10L15 9L14 9L14 12L15 12L15 13L14 13L14 14L12 14L12 13L13 13L13 12L11 12L11 14L8 14L8 13L9 13L9 11L8 11L8 12L5 12L5 8L0 8L0 9L2 9L2 10L0 10L0 12L2 12L2 13L1 13L1 14L0 14L0 15L1 15L1 14L2 14L2 13L3 13L3 11L2 11L2 10L3 10L3 9L4 9L4 12L5 12L5 13L4 13L4 14L3 14L3 15L2 15L2 16L6 16L6 17L5 17L5 18L4 18L4 17L1 17L1 16L0 16L0 18L1 18L1 19L0 19L0 20L1 20L1 21L0 21L0 22L1 22L1 21L2 21L2 18L4 18L4 19L5 19L5 20L6 20L6 21L7 21L7 20L8 20L8 22L5 22L5 21L4 21L4 24L5 24L5 25L7 25L7 24L5 24L5 23L8 23L8 26L6 26L6 27L4 27L4 29L3 29L3 30L2 30L2 27L1 27L1 31L0 31L0 35L1 35L1 37L0 37L0 42L2 42L2 43L0 43L0 44L3 44L3 45L2 45L2 46L1 46L1 45L0 45L0 46L1 46L1 49L2 49L2 51L0 51L0 53L4 53L4 52L5 52L5 51L7 51L7 52L6 52L6 53L8 53L8 55L9 55L9 56L8 56L8 61L9 61L9 59L10 59L10 60L11 60L11 61L12 61L12 60L11 60L11 58L12 58L12 59L13 59L13 61L14 61L14 59L15 59L15 61L17 61L17 60L16 60L16 59L17 59L17 58L18 58L18 59L20 59L20 57L21 57L21 58L22 58L22 59L21 59L21 60L20 60L20 61L21 61L21 60L22 60L22 59L23 59L23 57L24 57L24 58L25 58L25 60L26 60L26 58L27 58L27 61L28 61L28 60L29 60L29 61L32 61L32 60L33 60L33 61L40 61L40 60L41 60L41 58L45 58L45 57L44 57L44 56L46 56L46 54L45 54L45 53L47 53L47 54L50 54L50 55L49 55L49 56L47 56L47 57L49 57L49 56L50 56L50 55L52 55L52 56L51 56L51 57L52 57L52 58L53 58L53 57L54 57L54 58L55 58L55 59L51 59L51 58L50 58L50 59L51 59L51 61L52 61L52 60L55 60L55 61L56 61L56 58L57 58L57 59L58 59L58 58L59 58L59 57L60 57L60 60L57 60L57 61L61 61L61 54L59 54L59 55L60 55L60 56L58 56L58 58L57 58L57 53L60 53L60 52L61 52L61 50L60 50L60 52L57 52L57 50L59 50L59 48L56 48L56 49L55 49L55 50L54 50L54 51L55 51L55 52L53 52L53 51L52 51L52 50L50 50L50 51L52 51L52 52L50 52L50 53L49 53L49 52L46 52L46 51L47 51L47 50L46 50L46 51L45 51L45 53L44 53L44 52L43 52L43 51L44 51L44 50L43 50L43 49L44 49L44 48L45 48L45 47L47 47L47 48L48 48L48 49L49 49L49 48L51 48L51 49L52 49L52 48L54 48L54 47L61 47L61 42L60 42L60 41L59 41L59 40L61 40L61 38L58 38L58 37L59 37L59 36L56 36L56 37L57 37L57 39L59 39L59 40L56 40L56 39L55 39L55 38L54 38L54 37L53 37L53 36L54 36L54 35L57 35L57 34L56 34L56 33L59 33L59 35L61 35L61 34L60 34L60 33L59 33L59 32L57 32L57 30L58 30L58 29L59 29L59 28L57 28L57 27L61 27L61 26L60 26L60 23L61 23L61 22L58 22L58 21L61 21L61 18L60 18L60 17L59 17L59 16L61 16L61 14L58 14L58 13L59 13L59 12L60 12L60 11L61 11L61 10L60 10L60 11L59 11L59 9L60 9L60 8L59 8L59 9L58 9L58 8L57 8L57 9L56 9L56 8L55 8L55 9L54 9L54 8L52 8L52 7L53 7L53 6L52 6L52 7L51 7L51 5L52 5L52 4L53 4L53 0L51 0L51 2L50 2L50 3L48 3L48 2L47 2L47 1L50 1L50 0L47 0L47 1L46 1L46 0L44 0L44 1L43 1L43 0L42 0L42 1L43 1L43 2L42 2L42 3L46 3L46 4L44 4L44 5L45 5L45 6L44 6L44 7L43 7L43 6L42 6L42 5L43 5L43 4L42 4L42 5L41 5L41 6L40 6L40 3L41 3L41 2L40 2L40 1L37 1L37 0L36 0L36 1L34 1L34 0L32 0L32 1L31 1L31 0L30 0L30 1L27 1L27 0L26 0L26 1L27 1L27 2L26 2L26 3L27 3L27 4L24 4L24 5L25 5L25 6L24 6L24 8L26 8L26 7L27 7L27 8L28 8L28 9L26 9L26 10L25 10L25 9L24 9L24 11L22 11L22 10L23 10L23 9L21 9L21 8L23 8L23 6L22 6L22 5L23 5L23 4L21 4L21 3L25 3L25 0ZM32 1L32 2L31 2L31 3L29 3L29 2L28 2L28 3L29 3L29 4L31 4L31 3L32 3L32 4L33 4L33 3L34 3L34 5L39 5L39 4L38 4L38 3L40 3L40 2L38 2L38 3L37 3L37 1L36 1L36 2L35 2L35 3L34 3L34 2L33 2L33 1ZM46 2L46 3L47 3L47 2ZM36 3L36 4L37 4L37 3ZM51 3L51 4L52 4L52 3ZM16 4L16 5L18 5L18 6L17 6L17 7L16 7L16 6L15 6L15 7L16 7L16 8L17 8L17 7L18 7L18 6L19 6L19 8L20 8L20 6L21 6L21 7L22 7L22 6L21 6L21 4L20 4L20 6L19 6L19 4ZM27 4L27 5L26 5L26 6L25 6L25 7L26 7L26 6L27 6L27 7L28 7L28 6L27 6L27 5L28 5L28 4ZM46 4L46 5L47 5L47 7L46 7L46 6L45 6L45 8L43 8L43 7L42 7L42 6L41 6L41 8L38 8L38 6L37 6L37 7L36 7L36 6L35 6L35 8L38 8L38 10L37 10L37 9L34 9L34 6L33 6L33 10L32 10L32 9L31 9L31 10L32 10L32 11L33 11L33 10L36 10L36 11L34 11L34 12L35 12L35 13L33 13L33 14L32 14L32 13L31 13L31 12L29 12L29 11L30 11L30 10L29 10L29 9L28 9L28 10L29 10L29 11L27 11L27 12L26 12L26 13L25 13L25 11L24 11L24 12L22 12L22 13L25 13L25 14L21 14L21 11L20 11L20 10L21 10L21 9L20 9L20 10L19 10L19 9L18 9L18 10L17 10L17 11L16 11L16 12L17 12L17 11L18 11L18 12L20 12L20 16L19 16L19 15L18 15L18 14L19 14L19 13L18 13L18 14L17 14L17 13L15 13L15 14L17 14L17 16L16 16L16 15L15 15L15 16L16 16L16 17L11 17L11 18L10 18L10 17L9 17L9 16L12 16L12 14L11 14L11 15L9 15L9 16L8 16L8 14L7 14L7 13L6 13L6 14L7 14L7 15L6 15L6 16L8 16L8 17L9 17L9 18L10 18L10 19L9 19L9 20L10 20L10 21L9 21L9 22L8 22L8 23L9 23L9 25L10 25L10 26L8 26L8 27L6 27L6 28L9 28L9 30L10 30L10 32L14 32L14 33L12 33L12 34L10 34L10 33L9 33L9 34L10 34L10 38L11 38L11 39L9 39L9 40L10 40L10 41L9 41L9 42L10 42L10 43L8 43L8 42L7 42L7 41L8 41L8 38L9 38L9 37L6 37L6 38L7 38L7 39L6 39L6 40L5 40L5 36L7 36L7 35L6 35L6 34L8 34L8 33L4 33L4 34L5 34L5 35L4 35L4 37L3 37L3 38L2 38L2 37L1 37L1 38L2 38L2 39L1 39L1 41L3 41L3 38L4 38L4 40L5 40L5 41L4 41L4 42L3 42L3 44L4 44L4 47L3 47L3 46L2 46L2 47L3 47L3 48L2 48L2 49L3 49L3 48L5 48L5 47L6 47L6 48L7 48L7 47L6 47L6 46L8 46L8 47L10 47L10 49L9 49L9 50L10 50L10 51L11 51L11 52L12 52L12 53L9 53L9 51L8 51L8 50L7 50L7 49L5 49L5 50L7 50L7 51L8 51L8 53L9 53L9 54L10 54L10 56L9 56L9 57L11 57L11 56L13 56L13 57L12 57L12 58L13 58L13 59L14 59L14 58L15 58L15 59L16 59L16 58L17 58L17 57L18 57L18 56L17 56L17 57L16 57L16 56L15 56L15 55L18 55L18 54L19 54L19 57L20 57L20 54L22 54L22 55L23 55L23 56L21 56L21 57L23 57L23 56L24 56L24 57L25 57L25 56L26 56L26 57L27 57L27 56L26 56L26 55L28 55L28 53L27 53L27 50L28 50L28 48L26 48L26 47L27 47L27 46L28 46L28 47L29 47L29 48L30 48L30 46L31 46L31 47L32 47L32 48L31 48L31 49L29 49L29 51L28 51L28 52L29 52L29 51L30 51L30 50L31 50L31 49L32 49L32 50L35 50L35 48L33 48L33 47L32 47L32 46L33 46L33 45L32 45L32 44L34 44L34 46L37 46L37 47L36 47L36 48L37 48L37 49L36 49L36 52L35 52L35 51L34 51L34 52L33 52L33 51L32 51L32 52L33 52L33 55L34 55L34 54L35 54L35 55L36 55L36 56L37 56L37 57L38 57L38 58L37 58L37 60L40 60L40 59L38 59L38 58L39 58L39 57L41 57L41 56L44 56L44 55L45 55L45 54L42 54L42 53L43 53L43 52L42 52L42 51L41 51L41 49L43 49L43 48L44 48L44 47L45 47L45 46L48 46L48 48L49 48L49 47L50 47L50 46L51 46L51 48L52 48L52 46L53 46L53 45L54 45L54 44L55 44L55 45L56 45L56 46L57 46L57 45L56 45L56 43L57 43L57 44L59 44L59 45L60 45L60 44L59 44L59 43L60 43L60 42L59 42L59 41L58 41L58 42L57 42L57 41L56 41L56 43L54 43L54 42L55 42L55 41L54 41L54 40L55 40L55 39L54 39L54 38L53 38L53 37L52 37L52 38L51 38L51 36L52 36L52 35L54 35L54 34L55 34L55 33L52 33L52 32L51 32L51 31L52 31L52 29L51 29L51 28L54 28L54 27L55 27L55 28L56 28L56 27L57 27L57 26L58 26L58 24L59 24L59 23L57 23L57 21L58 21L58 20L60 20L60 19L58 19L58 18L59 18L59 17L57 17L57 16L59 16L59 15L57 15L57 16L55 16L55 15L56 15L56 14L57 14L57 12L59 12L59 11L57 11L57 10L58 10L58 9L57 9L57 10L56 10L56 9L55 9L55 10L54 10L54 11L55 11L55 12L56 12L56 13L55 13L55 14L54 14L54 13L50 13L50 12L49 12L49 11L48 11L48 10L49 10L49 9L50 9L50 11L51 11L51 9L52 9L52 10L53 10L53 9L52 9L52 8L51 8L51 9L50 9L50 8L49 8L49 7L50 7L50 6L49 6L49 4ZM12 5L12 6L13 6L13 7L14 7L14 6L13 6L13 5ZM29 5L29 8L32 8L32 5ZM30 6L30 7L31 7L31 6ZM39 6L39 7L40 7L40 6ZM48 6L48 7L47 7L47 10L45 10L45 9L46 9L46 8L45 8L45 9L44 9L44 10L45 10L45 11L44 11L44 12L46 12L46 13L44 13L44 14L43 14L43 13L42 13L42 14L43 14L43 15L42 15L42 16L43 16L43 17L42 17L42 18L41 18L41 17L40 17L40 16L41 16L41 15L40 15L40 16L39 16L39 18L38 18L38 19L37 19L37 18L36 18L36 19L35 19L35 18L33 18L33 17L35 17L35 16L34 16L34 15L35 15L35 14L34 14L34 15L32 15L32 14L31 14L31 15L29 15L29 14L30 14L30 13L29 13L29 14L27 14L27 13L28 13L28 12L27 12L27 13L26 13L26 15L24 15L24 16L25 16L25 17L21 17L21 16L20 16L20 17L19 17L19 16L18 16L18 17L16 17L16 18L15 18L15 19L14 19L14 18L12 18L12 19L14 19L14 20L13 20L13 21L14 21L14 20L15 20L15 22L16 22L16 21L17 21L17 24L15 24L15 23L14 23L14 22L13 22L13 26L12 26L12 24L11 24L11 22L12 22L12 21L11 21L11 22L9 22L9 23L10 23L10 25L11 25L11 26L12 26L12 27L11 27L11 28L12 28L12 31L14 31L14 32L16 32L16 31L17 31L17 30L15 30L15 29L19 29L19 32L18 32L18 33L19 33L19 34L18 34L18 35L19 35L19 36L16 36L16 35L15 35L15 34L16 34L16 33L14 33L14 35L11 35L11 38L12 38L12 37L13 37L13 39L12 39L12 40L13 40L13 39L18 39L18 37L19 37L19 38L20 38L20 39L24 39L24 38L25 38L25 37L26 37L26 36L27 36L27 37L28 37L28 38L26 38L26 40L27 40L27 39L28 39L28 38L29 38L29 37L31 37L31 38L32 38L32 39L29 39L29 41L26 41L26 42L27 42L27 43L26 43L26 44L25 44L25 41L24 41L24 40L23 40L23 41L21 41L21 40L19 40L19 41L18 41L18 40L17 40L17 41L18 41L18 42L15 42L15 41L16 41L16 40L15 40L15 41L13 41L13 42L12 42L12 41L11 41L11 43L10 43L10 46L11 46L11 48L12 48L12 47L13 47L13 48L14 48L14 49L13 49L13 50L12 50L12 51L13 51L13 50L14 50L14 52L13 52L13 53L12 53L12 55L13 55L13 56L14 56L14 57L15 57L15 58L16 58L16 57L15 57L15 56L14 56L14 55L15 55L15 51L16 51L16 53L19 53L19 52L20 52L20 53L22 53L22 54L23 54L23 55L24 55L24 56L25 56L25 53L26 53L26 54L27 54L27 53L26 53L26 52L25 52L25 51L26 51L26 50L27 50L27 49L21 49L21 48L22 48L22 47L23 47L23 45L21 45L21 44L25 44L25 45L24 45L24 46L25 46L25 45L26 45L26 46L27 46L27 45L28 45L28 46L29 46L29 45L28 45L28 42L29 42L29 44L30 44L30 45L31 45L31 44L32 44L32 43L31 43L31 42L29 42L29 41L31 41L31 40L32 40L32 39L33 39L33 42L34 42L34 44L35 44L35 45L37 45L37 46L38 46L38 45L40 45L40 46L39 46L39 48L38 48L38 49L37 49L37 51L38 51L38 52L36 52L36 55L38 55L38 56L41 56L41 55L42 55L42 54L41 54L41 53L40 53L40 52L41 52L41 51L39 51L39 50L40 50L40 48L41 48L41 47L42 47L42 48L43 48L43 47L42 47L42 46L43 46L43 45L44 45L44 46L45 46L45 45L46 45L46 44L45 44L45 43L49 43L49 44L47 44L47 45L48 45L48 46L50 46L50 45L51 45L51 46L52 46L52 45L53 45L53 43L52 43L52 44L50 44L50 43L51 43L51 42L53 42L53 40L51 40L51 38L50 38L50 36L48 36L48 37L49 37L49 38L46 38L46 36L47 36L47 34L46 34L46 36L45 36L45 37L44 37L44 36L43 36L43 35L42 35L42 36L43 36L43 37L42 37L42 38L41 38L41 39L40 39L40 36L41 36L41 35L40 35L40 34L41 34L41 33L40 33L40 32L41 32L41 31L42 31L42 30L44 30L44 32L43 32L43 33L42 33L42 34L44 34L44 35L45 35L45 34L44 34L44 32L45 32L45 33L47 33L47 32L48 32L48 33L49 33L49 32L48 32L48 31L49 31L49 30L50 30L50 31L51 31L51 30L50 30L50 27L52 27L52 25L53 25L53 26L55 26L55 27L56 27L56 24L57 24L57 23L56 23L56 22L55 22L55 21L56 21L56 20L57 20L57 19L56 19L56 20L55 20L55 21L54 21L54 18L55 18L55 17L53 17L53 16L51 16L51 14L50 14L50 13L49 13L49 12L48 12L48 11L47 11L47 10L48 10L48 9L49 9L49 8L48 8L48 7L49 7L49 6ZM41 9L41 11L40 11L40 12L39 12L39 13L40 13L40 12L41 12L41 11L42 11L42 10L43 10L43 9ZM18 10L18 11L19 11L19 10ZM38 10L38 11L39 11L39 10ZM52 11L52 12L53 12L53 11ZM56 11L56 12L57 12L57 11ZM36 12L36 13L37 13L37 12ZM46 13L46 14L47 14L47 15L48 15L48 16L46 16L46 15L45 15L45 14L44 14L44 15L43 15L43 16L44 16L44 17L45 17L45 16L46 16L46 18L47 18L47 19L46 19L46 20L47 20L47 21L46 21L46 22L47 22L47 23L48 23L48 24L49 24L49 23L50 23L50 22L51 22L51 20L52 20L52 18L53 18L53 17L50 17L50 14L47 14L47 13ZM4 14L4 15L5 15L5 14ZM36 14L36 15L37 15L37 14ZM38 14L38 15L39 15L39 14ZM13 15L13 16L14 16L14 15ZM22 15L22 16L23 16L23 15ZM26 15L26 17L25 17L25 18L23 18L23 19L24 19L24 21L25 21L25 24L24 24L24 23L22 23L22 22L21 22L21 21L23 21L23 20L22 20L22 18L21 18L21 17L20 17L20 18L19 18L19 17L18 17L18 18L17 18L17 19L18 19L18 18L19 18L19 19L21 19L21 21L20 21L20 20L19 20L19 21L18 21L18 23L19 23L19 26L21 26L21 27L18 27L18 24L17 24L17 25L16 25L16 27L15 27L15 24L14 24L14 26L13 26L13 27L12 27L12 28L13 28L13 29L15 29L15 28L16 28L16 27L18 27L18 28L21 28L21 27L22 27L22 29L23 29L23 30L22 30L22 31L21 31L21 29L20 29L20 32L19 32L19 33L20 33L20 34L19 34L19 35L21 35L21 36L19 36L19 37L20 37L20 38L21 38L21 36L22 36L22 37L25 37L25 36L26 36L26 35L27 35L27 36L31 36L31 34L32 34L32 38L35 38L35 39L34 39L34 40L39 40L39 41L38 41L38 42L37 42L37 41L34 41L34 42L35 42L35 44L36 44L36 42L37 42L37 43L38 43L38 44L37 44L37 45L38 45L38 44L40 44L40 45L41 45L41 46L40 46L40 47L41 47L41 46L42 46L42 45L41 45L41 44L42 44L42 43L43 43L43 44L44 44L44 45L45 45L45 44L44 44L44 43L45 43L45 42L48 42L48 41L45 41L45 40L46 40L46 39L45 39L45 40L44 40L44 43L43 43L43 42L41 42L41 41L43 41L43 40L42 40L42 39L43 39L43 38L44 38L44 37L43 37L43 38L42 38L42 39L41 39L41 40L39 40L39 39L37 39L37 38L39 38L39 36L40 36L40 35L39 35L39 36L38 36L38 34L39 34L39 32L40 32L40 31L41 31L41 30L42 30L42 29L43 29L43 28L44 28L44 30L45 30L45 31L46 31L46 32L47 32L47 31L48 31L48 30L47 30L47 29L45 29L45 28L44 28L44 27L45 27L45 26L47 26L47 24L44 24L44 22L45 22L45 20L44 20L44 19L43 19L43 18L42 18L42 19L41 19L41 20L40 20L40 19L38 19L38 20L40 20L40 21L36 21L36 20L37 20L37 19L36 19L36 20L35 20L35 19L34 19L34 20L35 20L35 21L33 21L33 22L32 22L32 21L31 21L31 20L33 20L33 18L32 18L32 17L31 17L31 16L29 16L29 15L28 15L28 17L27 17L27 15ZM44 15L44 16L45 16L45 15ZM36 16L36 17L38 17L38 16ZM48 16L48 17L47 17L47 18L49 18L49 20L48 20L48 19L47 19L47 20L48 20L48 21L49 21L49 22L48 22L48 23L49 23L49 22L50 22L50 21L49 21L49 20L50 20L50 19L51 19L51 18L49 18L49 16ZM6 17L6 18L7 18L7 19L6 19L6 20L7 20L7 19L8 19L8 18L7 18L7 17ZM26 17L26 20L28 20L28 21L26 21L26 22L27 22L27 23L26 23L26 24L27 24L27 23L29 23L29 24L31 24L31 25L28 25L28 27L29 27L29 28L28 28L28 29L26 29L26 27L27 27L27 25L24 25L24 26L25 26L25 27L24 27L24 28L25 28L25 29L24 29L24 31L23 31L23 32L24 32L24 31L26 31L26 30L27 30L27 31L28 31L28 34L27 34L27 33L26 33L26 34L27 34L27 35L28 35L28 34L29 34L29 35L30 35L30 33L32 33L32 34L33 34L33 35L34 35L34 36L33 36L33 37L35 37L35 36L36 36L36 38L37 38L37 36L36 36L36 35L37 35L37 34L36 34L36 35L35 35L35 34L33 34L33 33L34 33L34 32L35 32L35 30L36 30L36 31L37 31L37 32L36 32L36 33L37 33L37 32L39 32L39 31L37 31L37 30L38 30L38 29L37 29L37 28L36 28L36 29L35 29L35 30L34 30L34 29L33 29L33 28L32 28L32 26L33 26L33 27L34 27L34 28L35 28L35 27L37 27L37 26L38 26L38 27L39 27L39 26L38 26L38 25L39 25L39 22L36 22L36 21L35 21L35 22L33 22L33 23L32 23L32 22L31 22L31 21L30 21L30 20L31 20L31 19L32 19L32 18L31 18L31 17L29 17L29 18L27 18L27 17ZM56 17L56 18L57 18L57 17ZM10 19L10 20L11 20L11 19ZM15 19L15 20L16 20L16 19ZM28 19L28 20L29 20L29 19ZM19 21L19 23L21 23L21 24L20 24L20 25L21 25L21 26L22 26L22 27L23 27L23 25L21 25L21 24L22 24L22 23L21 23L21 22L20 22L20 21ZM29 21L29 22L30 22L30 23L31 23L31 24L32 24L32 23L31 23L31 22L30 22L30 21ZM42 21L42 22L44 22L44 21ZM52 21L52 23L51 23L51 24L52 24L52 23L53 23L53 21ZM2 22L2 23L1 23L1 24L0 24L0 25L1 25L1 26L4 26L4 25L1 25L1 24L2 24L2 23L3 23L3 22ZM54 22L54 23L55 23L55 22ZM33 23L33 25L34 25L34 26L35 26L35 24L37 24L37 25L38 25L38 24L37 24L37 23L35 23L35 24L34 24L34 23ZM40 23L40 24L41 24L41 25L40 25L40 26L41 26L41 25L42 25L42 26L43 26L43 25L42 25L42 24L41 24L41 23ZM53 24L53 25L55 25L55 24ZM31 25L31 26L32 26L32 25ZM44 25L44 26L45 26L45 25ZM50 25L50 26L49 26L49 27L46 27L46 28L49 28L49 27L50 27L50 26L51 26L51 25ZM13 27L13 28L15 28L15 27ZM40 27L40 28L39 28L39 30L40 30L40 28L41 28L41 27ZM42 27L42 28L43 28L43 27ZM5 29L5 32L8 32L8 29ZM10 29L10 30L11 30L11 29ZM25 29L25 30L26 30L26 29ZM29 29L29 32L32 32L32 29ZM53 29L53 32L56 32L56 29ZM3 30L3 31L2 31L2 32L4 32L4 30ZM6 30L6 31L7 31L7 30ZM30 30L30 31L31 31L31 30ZM46 30L46 31L47 31L47 30ZM54 30L54 31L55 31L55 30ZM59 30L59 31L61 31L61 30ZM33 31L33 32L34 32L34 31ZM20 32L20 33L21 33L21 34L22 34L22 35L23 35L23 36L25 36L25 33L21 33L21 32ZM50 32L50 33L51 33L51 32ZM1 34L1 35L2 35L2 36L3 36L3 35L2 35L2 34ZM50 34L50 35L52 35L52 34ZM14 35L14 36L15 36L15 35ZM60 36L60 37L61 37L61 36ZM15 37L15 38L17 38L17 37ZM47 39L47 40L50 40L50 42L49 42L49 43L50 43L50 42L51 42L51 40L50 40L50 39ZM6 40L6 41L7 41L7 40ZM20 41L20 43L19 43L19 45L18 45L18 44L17 44L17 43L16 43L16 44L17 44L17 45L16 45L16 47L14 47L14 48L16 48L16 49L14 49L14 50L16 50L16 49L17 49L17 52L19 52L19 51L18 51L18 50L19 50L19 49L20 49L20 52L21 52L21 49L20 49L20 47L22 47L22 46L21 46L21 45L20 45L20 43L21 43L21 41ZM23 41L23 42L22 42L22 43L23 43L23 42L24 42L24 41ZM4 42L4 43L5 43L5 42ZM6 42L6 43L7 43L7 42ZM13 42L13 43L11 43L11 44L12 44L12 45L11 45L11 46L15 46L15 45L13 45L13 44L15 44L15 42ZM38 42L38 43L40 43L40 44L41 44L41 42ZM5 44L5 45L7 45L7 44ZM26 44L26 45L27 45L27 44ZM8 45L8 46L9 46L9 45ZM19 45L19 46L18 46L18 47L20 47L20 45ZM16 47L16 48L17 48L17 49L19 49L19 48L17 48L17 47ZM24 47L24 48L25 48L25 47ZM60 48L60 49L61 49L61 48ZM38 49L38 50L39 50L39 49ZM56 49L56 50L55 50L55 51L56 51L56 50L57 50L57 49ZM22 50L22 51L23 51L23 52L22 52L22 53L25 53L25 52L24 52L24 51L25 51L25 50L24 50L24 51L23 51L23 50ZM48 50L48 51L49 51L49 50ZM3 51L3 52L4 52L4 51ZM38 52L38 53L37 53L37 54L39 54L39 55L41 55L41 54L39 54L39 52ZM29 53L29 56L32 56L32 53ZM50 53L50 54L51 54L51 53ZM53 53L53 56L56 56L56 53ZM13 54L13 55L14 55L14 54ZM30 54L30 55L31 55L31 54ZM54 54L54 55L55 55L55 54ZM32 57L32 59L33 59L33 57ZM34 57L34 58L35 58L35 59L34 59L34 60L36 60L36 57ZM28 58L28 59L31 59L31 58ZM46 58L46 59L42 59L42 60L43 60L43 61L44 61L44 60L46 60L46 59L47 59L47 58ZM48 58L48 59L49 59L49 58ZM18 60L18 61L19 61L19 60ZM47 60L47 61L50 61L50 60ZM0 0L0 7L7 7L7 0ZM1 1L1 6L6 6L6 1ZM2 2L2 5L5 5L5 2ZM54 0L54 7L61 7L61 0ZM55 1L55 6L60 6L60 1ZM56 2L56 5L59 5L59 2ZM0 54L0 61L7 61L7 54ZM1 55L1 60L6 60L6 55ZM2 56L2 59L5 59L5 56Z" fill="#000000"/></g></g></svg>
