<?xml version="1.0" encoding="UTF-8"?>
<svg xmlns="http://www.w3.org/2000/svg" version="1.1" width="300" height="300" viewBox="0 0 300 300"><rect x="0" y="0" width="300" height="300" fill="#ffffff"/><g transform="scale(4.918)"><g transform="translate(0,0)"><path fill-rule="evenodd" d="M8 0L8 1L10 1L10 2L9 2L9 3L13 3L13 4L11 4L11 5L9 5L9 6L8 6L8 8L9 8L9 9L8 9L8 10L11 10L11 11L13 11L13 12L14 12L14 13L13 13L13 14L14 14L14 15L15 15L15 18L13 18L13 19L14 19L14 21L13 21L13 20L12 20L12 19L11 19L11 17L12 17L12 16L13 16L13 17L14 17L14 16L13 16L13 15L12 15L12 16L11 16L11 14L12 14L12 13L11 13L11 12L5 12L5 11L7 11L7 10L4 10L4 9L5 9L5 8L3 8L3 9L2 9L2 8L0 8L0 9L1 9L1 11L2 11L2 12L1 12L1 13L3 13L3 14L4 14L4 15L3 15L3 16L2 16L2 15L1 15L1 14L0 14L0 16L2 16L2 17L0 17L0 18L1 18L1 19L0 19L0 23L1 23L1 24L2 24L2 25L1 25L1 26L2 26L2 25L4 25L4 26L3 26L3 27L0 27L0 28L1 28L1 29L0 29L0 30L1 30L1 31L2 31L2 32L3 32L3 33L7 33L7 34L6 34L6 35L5 35L5 34L2 34L2 33L1 33L1 32L0 32L0 34L1 34L1 36L0 36L0 37L2 37L2 36L3 36L3 38L4 38L4 44L6 44L6 45L5 45L5 46L4 46L4 45L3 45L3 46L0 46L0 47L2 47L2 48L5 48L5 46L6 46L6 47L7 47L7 48L6 48L6 49L5 49L5 50L4 50L4 49L3 49L3 50L2 50L2 49L1 49L1 48L0 48L0 49L1 49L1 50L2 50L2 51L0 51L0 53L4 53L4 52L5 52L5 51L7 51L7 50L6 50L6 49L7 49L7 48L8 48L8 50L9 50L9 49L12 49L12 50L11 50L11 52L9 52L9 51L8 51L8 52L6 52L6 53L8 53L8 54L9 54L9 56L8 56L8 58L9 58L9 56L10 56L10 57L12 57L12 58L10 58L10 61L12 61L12 60L13 60L13 61L16 61L16 60L17 60L17 59L18 59L18 61L19 61L19 60L21 60L21 59L22 59L22 58L21 58L21 59L18 59L18 58L20 58L20 56L21 56L21 57L23 57L23 58L24 58L24 59L23 59L23 60L22 60L22 61L24 61L24 59L25 59L25 61L29 61L29 60L28 60L28 58L27 58L27 60L26 60L26 58L25 58L25 57L23 57L23 55L24 55L24 56L25 56L25 55L26 55L26 56L27 56L27 57L30 57L30 58L29 58L29 59L30 59L30 61L34 61L34 60L36 60L36 61L38 61L38 60L39 60L39 61L46 61L46 60L47 60L47 61L54 61L54 60L55 60L55 61L56 61L56 59L57 59L57 60L60 60L60 61L61 61L61 57L60 57L60 56L61 56L61 54L60 54L60 53L61 53L61 50L60 50L60 49L59 49L59 51L58 51L58 50L57 50L57 49L58 49L58 48L60 48L60 47L61 47L61 46L60 46L60 47L59 47L59 45L58 45L58 44L57 44L57 43L58 43L58 42L57 42L57 43L55 43L55 42L56 42L56 41L55 41L55 40L57 40L57 41L60 41L60 40L61 40L61 38L60 38L60 37L61 37L61 34L59 34L59 33L58 33L58 32L57 32L57 28L55 28L55 27L53 27L53 26L55 26L55 25L54 25L54 24L56 24L56 26L57 26L57 27L58 27L58 29L59 29L59 30L60 30L60 31L59 31L59 32L60 32L60 33L61 33L61 32L60 32L60 31L61 31L61 30L60 30L60 29L61 29L61 26L60 26L60 25L61 25L61 22L60 22L60 23L59 23L59 21L58 21L58 22L57 22L57 21L55 21L55 20L56 20L56 19L57 19L57 20L58 20L58 19L57 19L57 18L58 18L58 17L60 17L60 16L61 16L61 14L59 14L59 13L60 13L60 12L59 12L59 11L61 11L61 10L59 10L59 9L57 9L57 10L56 10L56 11L55 11L55 12L56 12L56 13L54 13L54 12L53 12L53 11L51 11L51 10L55 10L55 8L54 8L54 9L51 9L51 8L47 8L47 6L48 6L48 7L49 7L49 6L50 6L50 7L51 7L51 5L52 5L52 4L53 4L53 0L51 0L51 2L50 2L50 1L49 1L49 0L45 0L45 1L44 1L44 4L45 4L45 5L46 5L46 4L48 4L48 5L47 5L47 6L46 6L46 7L45 7L45 6L44 6L44 7L45 7L45 8L47 8L47 9L45 9L45 10L44 10L44 11L41 11L41 12L40 12L40 10L39 10L39 9L41 9L41 10L43 10L43 9L44 9L44 8L43 8L43 9L41 9L41 5L43 5L43 2L42 2L42 1L43 1L43 0L42 0L42 1L41 1L41 3L40 3L40 2L39 2L39 3L40 3L40 4L41 4L41 5L40 5L40 8L39 8L39 4L38 4L38 5L37 5L37 3L38 3L38 1L40 1L40 0L37 0L37 3L35 3L35 5L37 5L37 6L36 6L36 7L37 7L37 8L35 8L35 6L34 6L34 7L33 7L33 4L34 4L34 3L33 3L33 1L32 1L32 0L27 0L27 1L26 1L26 0L23 0L23 2L24 2L24 3L21 3L21 4L19 4L19 3L20 3L20 1L22 1L22 0L19 0L19 1L18 1L18 0L14 0L14 1L12 1L12 2L11 2L11 0ZM34 0L34 2L36 2L36 1L35 1L35 0ZM16 1L16 2L17 2L17 1ZM24 1L24 2L25 2L25 3L24 3L24 4L23 4L23 5L22 5L22 6L21 6L21 8L19 8L19 7L20 7L20 5L19 5L19 4L18 4L18 3L15 3L15 2L13 2L13 3L15 3L15 4L13 4L13 5L11 5L11 7L10 7L10 6L9 6L9 7L10 7L10 8L11 8L11 7L12 7L12 8L13 8L13 9L12 9L12 10L13 10L13 11L14 11L14 12L16 12L16 19L17 19L17 20L15 20L15 21L18 21L18 22L19 22L19 23L20 23L20 21L18 21L18 20L19 20L19 19L17 19L17 18L19 18L19 17L20 17L20 19L21 19L21 17L22 17L22 20L21 20L21 21L22 21L22 22L21 22L21 23L24 23L24 25L26 25L26 26L25 26L25 28L24 28L24 29L25 29L25 30L24 30L24 31L23 31L23 26L22 26L22 25L19 25L19 26L21 26L21 27L20 27L20 30L19 30L19 29L18 29L18 28L17 28L17 30L16 30L16 31L20 31L20 32L19 32L19 33L18 33L18 32L17 32L17 34L16 34L16 32L15 32L15 31L14 31L14 30L15 30L15 28L16 28L16 27L18 27L18 26L17 26L17 24L18 24L18 23L17 23L17 24L16 24L16 27L14 27L14 26L15 26L15 25L14 25L14 24L13 24L13 23L16 23L16 22L13 22L13 21L12 21L12 20L10 20L10 23L9 23L9 27L8 27L8 22L9 22L9 21L4 21L4 22L5 22L5 25L6 25L6 26L4 26L4 27L3 27L3 28L7 28L7 27L8 27L8 28L9 28L9 27L11 27L11 28L10 28L10 29L13 29L13 30L11 30L11 31L12 31L12 33L13 33L13 34L14 34L14 35L15 35L15 36L16 36L16 38L15 38L15 39L14 39L14 36L13 36L13 35L11 35L11 34L10 34L10 30L9 30L9 34L8 34L8 35L9 35L9 36L7 36L7 35L6 35L6 36L4 36L4 35L3 35L3 36L4 36L4 37L6 37L6 38L9 38L9 39L10 39L10 40L8 40L8 41L6 41L6 42L5 42L5 43L6 43L6 44L7 44L7 45L6 45L6 46L7 46L7 45L9 45L9 44L10 44L10 45L14 45L14 46L8 46L8 48L9 48L9 47L10 47L10 48L12 48L12 47L13 47L13 48L14 48L14 50L12 50L12 51L15 51L15 47L16 47L16 48L17 48L17 47L19 47L19 48L20 48L20 49L17 49L17 50L16 50L16 52L17 52L17 54L16 54L16 55L15 55L15 53L14 53L14 52L12 52L12 53L14 53L14 54L10 54L10 55L13 55L13 59L14 59L14 60L16 60L16 59L14 59L14 55L15 55L15 57L18 57L18 56L16 56L16 55L17 55L17 54L18 54L18 52L19 52L19 56L20 56L20 54L22 54L22 55L21 55L21 56L22 56L22 55L23 55L23 54L24 54L24 55L25 55L25 54L26 54L26 50L27 50L27 49L26 49L26 48L27 48L27 42L26 42L26 41L25 41L25 39L26 39L26 40L27 40L27 41L30 41L30 42L29 42L29 43L28 43L28 47L29 47L29 46L31 46L31 47L30 47L30 48L29 48L29 51L27 51L27 52L31 52L31 51L32 51L32 50L33 50L33 49L31 49L31 50L30 50L30 48L31 48L31 47L32 47L32 48L34 48L34 47L33 47L33 46L34 46L34 44L35 44L35 43L36 43L36 44L37 44L37 43L36 43L36 40L37 40L37 41L38 41L38 43L39 43L39 42L40 42L40 43L41 43L41 44L42 44L42 45L40 45L40 47L39 47L39 46L37 46L37 47L36 47L36 48L35 48L35 49L34 49L34 51L33 51L33 53L35 53L35 52L37 52L37 51L38 51L38 52L39 52L39 53L37 53L37 54L34 54L34 55L33 55L33 56L34 56L34 57L35 57L35 58L34 58L34 59L33 59L33 60L34 60L34 59L35 59L35 58L37 58L37 59L36 59L36 60L37 60L37 59L39 59L39 58L37 58L37 57L35 57L35 56L38 56L38 57L40 57L40 60L42 60L42 59L44 59L44 58L46 58L46 57L47 57L47 59L48 59L48 60L49 60L49 59L51 59L51 60L53 60L53 57L51 57L51 56L50 56L50 55L51 55L51 54L52 54L52 53L51 53L51 52L50 52L50 51L48 51L48 50L50 50L50 47L51 47L51 46L50 46L50 45L47 45L47 44L48 44L48 43L47 43L47 42L48 42L48 40L51 40L51 39L52 39L52 40L55 40L55 39L54 39L54 38L53 38L53 35L54 35L54 36L55 36L55 35L56 35L56 33L55 33L55 35L54 35L54 34L53 34L53 33L51 33L51 32L52 32L52 30L51 30L51 28L50 28L50 27L49 27L49 28L50 28L50 29L48 29L48 27L47 27L47 26L48 26L48 24L49 24L49 26L50 26L50 25L51 25L51 24L49 24L49 23L48 23L48 24L47 24L47 23L46 23L46 21L47 21L47 22L49 22L49 21L47 21L47 20L49 20L49 19L50 19L50 20L51 20L51 19L55 19L55 18L56 18L56 16L57 16L57 17L58 17L58 16L57 16L57 14L58 14L58 15L59 15L59 16L60 16L60 15L59 15L59 14L58 14L58 13L59 13L59 12L58 12L58 11L59 11L59 10L57 10L57 12L58 12L58 13L56 13L56 16L55 16L55 14L53 14L53 12L52 12L52 14L51 14L51 16L50 16L50 11L49 11L49 10L48 10L48 11L49 11L49 13L48 13L48 12L46 12L46 13L45 13L45 14L44 14L44 15L43 15L43 14L42 14L42 12L41 12L41 13L40 13L40 14L42 14L42 15L43 15L43 16L45 16L45 14L46 14L46 17L44 17L44 19L43 19L43 18L42 18L42 16L41 16L41 15L40 15L40 17L38 17L38 16L39 16L39 15L38 15L38 16L37 16L37 18L38 18L38 19L39 19L39 22L38 22L38 20L37 20L37 19L36 19L36 16L34 16L34 17L35 17L35 18L34 18L34 19L35 19L35 20L34 20L34 21L35 21L35 22L36 22L36 21L35 21L35 20L37 20L37 23L36 23L36 24L34 24L34 23L33 23L33 24L34 24L34 25L31 25L31 24L32 24L32 23L31 23L31 24L30 24L30 22L33 22L33 21L31 21L31 20L33 20L33 19L31 19L31 20L29 20L29 19L30 19L30 18L32 18L32 17L31 17L31 16L32 16L32 15L33 15L33 13L34 13L34 15L37 15L37 14L35 14L35 13L36 13L36 12L38 12L38 13L39 13L39 10L38 10L38 9L36 9L36 10L35 10L35 11L36 11L36 12L35 12L35 13L34 13L34 11L31 11L31 10L34 10L34 8L33 8L33 9L31 9L31 10L30 10L30 9L28 9L28 10L30 10L30 11L31 11L31 12L29 12L29 13L28 13L28 12L27 12L27 13L26 13L26 10L27 10L27 8L28 8L28 5L27 5L27 4L31 4L31 3L32 3L32 4L33 4L33 3L32 3L32 1L29 1L29 2L31 2L31 3L27 3L27 2L28 2L28 1L27 1L27 2L25 2L25 1ZM45 1L45 2L46 2L46 3L49 3L49 4L50 4L50 3L49 3L49 2L48 2L48 1L47 1L47 2L46 2L46 1ZM25 3L25 4L24 4L24 7L23 7L23 6L22 6L22 7L23 7L23 8L22 8L22 9L23 9L23 11L21 11L21 9L20 9L20 10L19 10L19 9L18 9L18 8L17 8L17 9L16 9L16 7L17 7L17 5L18 5L18 4L17 4L17 5L14 5L14 7L13 7L13 6L12 6L12 7L13 7L13 8L14 8L14 7L15 7L15 10L17 10L17 9L18 9L18 10L19 10L19 11L21 11L21 12L22 12L22 13L20 13L20 12L18 12L18 11L16 11L16 12L18 12L18 13L20 13L20 14L18 14L18 15L19 15L19 16L18 16L18 17L19 17L19 16L20 16L20 17L21 17L21 15L23 15L23 14L26 14L26 18L25 18L25 17L24 17L24 19L25 19L25 21L23 21L23 20L22 20L22 21L23 21L23 22L24 22L24 23L25 23L25 24L26 24L26 25L28 25L28 24L29 24L29 25L30 25L30 24L29 24L29 20L28 20L28 22L25 22L25 21L26 21L26 19L27 19L27 16L28 16L28 17L30 17L30 16L31 16L31 15L32 15L32 13L33 13L33 12L32 12L32 13L29 13L29 15L28 15L28 13L27 13L27 14L26 14L26 13L24 13L24 12L23 12L23 11L25 11L25 9L23 9L23 8L26 8L26 7L27 7L27 5L26 5L26 4L27 4L27 3ZM51 3L51 4L52 4L52 3ZM29 5L29 8L32 8L32 5ZM48 5L48 6L49 6L49 5ZM15 6L15 7L16 7L16 6ZM18 6L18 7L19 7L19 6ZM25 6L25 7L26 7L26 6ZM30 6L30 7L31 7L31 6ZM37 6L37 7L38 7L38 6ZM42 6L42 7L43 7L43 6ZM52 6L52 7L53 7L53 6ZM6 8L6 9L7 9L7 8ZM60 8L60 9L61 9L61 8ZM3 10L3 12L4 12L4 10ZM4 13L4 14L5 14L5 15L6 15L6 16L3 16L3 17L5 17L5 18L2 18L2 20L1 20L1 22L3 22L3 21L2 21L2 20L3 20L3 19L5 19L5 18L7 18L7 17L6 17L6 16L8 16L8 17L10 17L10 16L8 16L8 15L10 15L10 13L9 13L9 14L7 14L7 13ZM14 13L14 14L15 14L15 13ZM22 13L22 14L23 14L23 13ZM6 14L6 15L7 15L7 14ZM47 14L47 17L46 17L46 18L45 18L45 19L46 19L46 18L48 18L48 19L49 19L49 18L50 18L50 16L48 16L48 14ZM52 14L52 16L51 16L51 18L55 18L55 17L54 17L54 16L53 16L53 14ZM24 15L24 16L25 16L25 15ZM29 15L29 16L30 16L30 15ZM48 17L48 18L49 18L49 17ZM8 18L8 19L6 19L6 20L8 20L8 19L10 19L10 18ZM39 18L39 19L40 19L40 18ZM41 18L41 19L42 19L42 22L44 22L44 24L43 24L43 25L42 25L42 26L43 26L43 27L42 27L42 28L41 28L41 30L39 30L39 31L38 31L38 30L37 30L37 28L38 28L38 29L40 29L40 27L39 27L39 26L41 26L41 24L42 24L42 23L41 23L41 24L40 24L40 23L37 23L37 24L36 24L36 25L37 25L37 28L36 28L36 29L35 29L35 27L36 27L36 26L35 26L35 27L34 27L34 29L33 29L33 27L30 27L30 28L29 28L29 27L28 27L28 26L26 26L26 27L27 27L27 28L25 28L25 29L26 29L26 30L25 30L25 32L26 32L26 31L28 31L28 32L27 32L27 34L26 34L26 36L25 36L25 33L23 33L23 32L22 32L22 31L21 31L21 30L20 30L20 31L21 31L21 32L20 32L20 34L19 34L19 35L20 35L20 34L21 34L21 36L22 36L22 37L20 37L20 36L18 36L18 34L17 34L17 35L16 35L16 36L17 36L17 37L19 37L19 39L20 39L20 40L19 40L19 41L17 41L17 40L16 40L16 41L15 41L15 40L14 40L14 39L12 39L12 38L11 38L11 37L10 37L10 36L9 36L9 37L10 37L10 39L12 39L12 40L10 40L10 42L9 42L9 41L8 41L8 42L6 42L6 43L8 43L8 44L9 44L9 43L10 43L10 44L11 44L11 43L12 43L12 42L13 42L13 44L14 44L14 45L15 45L15 46L14 46L14 47L15 47L15 46L16 46L16 47L17 47L17 45L19 45L19 46L22 46L22 47L21 47L21 49L20 49L20 50L18 50L18 51L20 51L20 52L22 52L22 51L23 51L23 53L24 53L24 54L25 54L25 53L24 53L24 51L25 51L25 50L26 50L26 49L24 49L24 48L25 48L25 47L26 47L26 46L25 46L25 45L24 45L24 44L25 44L25 43L24 43L24 42L25 42L25 41L24 41L24 39L25 39L25 38L26 38L26 37L27 37L27 40L29 40L29 38L30 38L30 39L31 39L31 40L30 40L30 41L31 41L31 40L33 40L33 41L32 41L32 42L30 42L30 45L31 45L31 46L32 46L32 45L31 45L31 43L32 43L32 44L34 44L34 42L35 42L35 40L33 40L33 39L34 39L34 35L35 35L35 34L36 34L36 35L38 35L38 34L39 34L39 35L40 35L40 37L38 37L38 36L36 36L36 37L38 37L38 40L39 40L39 39L41 39L41 37L42 37L42 38L43 38L43 39L42 39L42 40L41 40L41 41L40 41L40 42L41 42L41 43L42 43L42 44L43 44L43 45L42 45L42 46L43 46L43 45L44 45L44 44L43 44L43 43L42 43L42 42L44 42L44 43L45 43L45 42L44 42L44 41L46 41L46 42L47 42L47 40L48 40L48 39L51 39L51 37L52 37L52 35L50 35L50 36L51 36L51 37L49 37L49 36L48 36L48 37L47 37L47 38L48 38L48 39L46 39L46 38L45 38L45 39L46 39L46 40L44 40L44 37L46 37L46 36L45 36L45 35L42 35L42 34L43 34L43 32L44 32L44 31L45 31L45 29L46 29L46 30L47 30L47 32L48 32L48 33L49 33L49 34L51 34L51 33L50 33L50 32L51 32L51 31L50 31L50 30L47 30L47 27L46 27L46 26L45 26L45 27L46 27L46 28L44 28L44 31L43 31L43 32L41 32L41 30L43 30L43 29L42 29L42 28L43 28L43 27L44 27L44 25L46 25L46 23L45 23L45 22L44 22L44 20L43 20L43 19L42 19L42 18ZM59 18L59 19L61 19L61 18ZM40 20L40 21L41 21L41 20ZM45 20L45 21L46 21L46 20ZM52 20L52 21L51 21L51 22L50 22L50 23L51 23L51 22L52 22L52 21L54 21L54 20ZM60 20L60 21L61 21L61 20ZM6 22L6 23L7 23L7 22ZM54 22L54 23L53 23L53 24L52 24L52 26L53 26L53 24L54 24L54 23L55 23L55 22ZM3 23L3 24L4 24L4 23ZM11 23L11 24L10 24L10 25L12 25L12 23ZM26 23L26 24L28 24L28 23ZM6 24L6 25L7 25L7 24ZM39 24L39 25L40 25L40 24ZM57 24L57 26L58 26L58 27L59 27L59 29L60 29L60 27L59 27L59 25L60 25L60 24ZM13 25L13 26L12 26L12 27L13 27L13 28L14 28L14 27L13 27L13 26L14 26L14 25ZM6 26L6 27L7 27L7 26ZM21 27L21 28L22 28L22 27ZM38 27L38 28L39 28L39 27ZM27 28L27 29L28 29L28 28ZM1 29L1 30L3 30L3 29ZM5 29L5 32L8 32L8 29ZM29 29L29 32L32 32L32 29ZM53 29L53 32L56 32L56 29ZM6 30L6 31L7 31L7 30ZM30 30L30 31L31 31L31 30ZM34 30L34 32L33 32L33 33L28 33L28 34L32 34L32 37L33 37L33 35L34 35L34 34L33 34L33 33L34 33L34 32L35 32L35 31L36 31L36 32L37 32L37 31L36 31L36 30ZM54 30L54 31L55 31L55 30ZM3 31L3 32L4 32L4 31ZM13 31L13 32L14 32L14 31ZM48 31L48 32L50 32L50 31ZM21 32L21 33L22 33L22 36L23 36L23 35L24 35L24 34L23 34L23 33L22 33L22 32ZM45 32L45 34L46 34L46 35L48 35L48 34L47 34L47 33L46 33L46 32ZM39 33L39 34L40 34L40 35L41 35L41 33ZM57 33L57 34L58 34L58 33ZM9 34L9 35L10 35L10 34ZM27 35L27 36L28 36L28 38L29 38L29 36L28 36L28 35ZM30 35L30 36L31 36L31 35ZM57 35L57 36L56 36L56 37L57 37L57 38L56 38L56 39L57 39L57 38L58 38L58 39L59 39L59 37L60 37L60 36L58 36L58 35ZM6 36L6 37L7 37L7 36ZM24 36L24 37L25 37L25 36ZM57 36L57 37L58 37L58 36ZM30 37L30 38L31 38L31 39L32 39L32 38L31 38L31 37ZM1 38L1 39L0 39L0 40L1 40L1 42L0 42L0 43L1 43L1 42L2 42L2 44L0 44L0 45L2 45L2 44L3 44L3 42L2 42L2 41L3 41L3 39L2 39L2 38ZM16 38L16 39L18 39L18 38ZM23 38L23 39L21 39L21 40L22 40L22 42L24 42L24 41L23 41L23 39L24 39L24 38ZM36 38L36 39L37 39L37 38ZM52 38L52 39L53 39L53 38ZM1 39L1 40L2 40L2 39ZM6 39L6 40L7 40L7 39ZM42 40L42 41L41 41L41 42L42 42L42 41L43 41L43 40ZM11 41L11 42L10 42L10 43L11 43L11 42L12 42L12 41ZM14 41L14 42L15 42L15 41ZM19 41L19 43L20 43L20 42L21 42L21 41ZM33 41L33 42L32 42L32 43L33 43L33 42L34 42L34 41ZM50 41L50 43L52 43L52 41ZM53 41L53 43L54 43L54 44L53 44L53 45L54 45L54 44L55 44L55 43L54 43L54 41ZM8 42L8 43L9 43L9 42ZM17 42L17 43L16 43L16 45L17 45L17 44L18 44L18 42ZM59 42L59 44L60 44L60 45L61 45L61 42ZM14 43L14 44L15 44L15 43ZM22 43L22 44L21 44L21 45L22 45L22 46L24 46L24 47L25 47L25 46L24 46L24 45L22 45L22 44L24 44L24 43ZM46 43L46 44L45 44L45 45L46 45L46 46L44 46L44 47L43 47L43 48L44 48L44 49L42 49L42 48L36 48L36 49L35 49L35 50L37 50L37 49L38 49L38 51L39 51L39 49L41 49L41 50L40 50L40 52L41 52L41 53L42 53L42 54L40 54L40 57L41 57L41 59L42 59L42 58L44 58L44 57L43 57L43 56L44 56L44 55L45 55L45 54L44 54L44 53L46 53L46 54L48 54L48 55L49 55L49 54L50 54L50 53L49 53L49 52L48 52L48 53L47 53L47 51L46 51L46 52L44 52L44 49L45 49L45 50L46 50L46 49L49 49L49 48L47 48L47 47L49 47L49 46L47 46L47 45L46 45L46 44L47 44L47 43ZM57 45L57 46L56 46L56 47L54 47L54 46L52 46L52 49L51 49L51 50L53 50L53 49L54 49L54 50L55 50L55 51L52 51L52 52L55 52L55 51L56 51L56 52L57 52L57 53L58 53L58 52L57 52L57 50L55 50L55 49L54 49L54 48L56 48L56 49L57 49L57 46L58 46L58 45ZM44 47L44 48L45 48L45 49L46 49L46 48L45 48L45 47ZM21 49L21 50L23 50L23 51L24 51L24 50L23 50L23 49ZM41 50L41 52L42 52L42 51L43 51L43 50ZM3 51L3 52L4 52L4 51ZM34 51L34 52L35 52L35 51ZM43 52L43 53L44 53L44 52ZM59 52L59 53L60 53L60 52ZM29 53L29 56L32 56L32 53ZM53 53L53 56L56 56L56 53ZM27 54L27 56L28 56L28 54ZM30 54L30 55L31 55L31 54ZM37 54L37 55L38 55L38 54ZM54 54L54 55L55 55L55 54ZM57 54L57 55L58 55L58 56L57 56L57 57L54 57L54 58L58 58L58 57L59 57L59 58L60 58L60 57L59 57L59 56L60 56L60 54L59 54L59 55L58 55L58 54ZM41 55L41 56L43 56L43 55ZM46 55L46 56L45 56L45 57L46 57L46 56L47 56L47 57L50 57L50 58L51 58L51 57L50 57L50 56L47 56L47 55ZM30 58L30 59L32 59L32 58ZM8 59L8 61L9 61L9 59ZM11 59L11 60L12 60L12 59ZM45 59L45 60L46 60L46 59ZM0 0L0 7L7 7L7 0ZM1 1L1 6L6 6L6 1ZM2 2L2 5L5 5L5 2ZM54 0L54 7L61 7L61 0ZM55 1L55 6L60 6L60 1ZM56 2L56 5L59 5L59 2ZM0 54L0 61L7 61L7 54ZM1 55L1 60L6 60L6 55ZM2 56L2 59L5 59L5 56Z" fill="#000000"/></g></g></svg>
