<?xml version="1.0" encoding="UTF-8"?>
<svg xmlns="http://www.w3.org/2000/svg" version="1.1" width="300" height="300" viewBox="0 0 300 300"><rect x="0" y="0" width="300" height="300" fill="#ffffff"/><g transform="scale(4.918)"><g transform="translate(0,0)"><path fill-rule="evenodd" d="M8 0L8 1L10 1L10 2L9 2L9 3L10 3L10 4L9 4L9 6L8 6L8 8L11 8L11 6L10 6L10 5L11 5L11 4L12 4L12 5L13 5L13 4L15 4L15 5L14 5L14 8L15 8L15 10L14 10L14 13L15 13L15 15L14 15L14 14L13 14L13 13L12 13L12 16L14 16L14 17L12 17L12 18L13 18L13 19L14 19L14 20L13 20L13 21L15 21L15 23L17 23L17 24L18 24L18 23L17 23L17 22L18 22L18 21L19 21L19 22L21 22L21 23L19 23L19 24L20 24L20 25L18 25L18 27L19 27L19 26L23 26L23 30L22 30L22 29L21 29L21 30L19 30L19 31L18 31L18 33L20 33L20 35L19 35L19 34L16 34L16 33L17 33L17 32L15 32L15 30L16 30L16 31L17 31L17 30L18 30L18 29L19 29L19 28L17 28L17 27L16 27L16 29L15 29L15 27L13 27L13 25L14 25L14 26L16 26L16 25L15 25L15 24L14 24L14 22L12 22L12 20L11 20L11 19L9 19L9 18L10 18L10 16L11 16L11 15L8 15L8 16L6 16L6 17L7 17L7 18L5 18L5 17L4 17L4 19L3 19L3 16L2 16L2 15L3 15L3 14L4 14L4 15L7 15L7 14L6 14L6 13L7 13L7 12L10 12L10 13L8 13L8 14L11 14L11 12L10 12L10 11L11 11L11 10L12 10L12 12L13 12L13 6L12 6L12 9L9 9L9 10L10 10L10 11L8 11L8 10L6 10L6 9L7 9L7 8L6 8L6 9L5 9L5 8L3 8L3 9L5 9L5 10L2 10L2 8L0 8L0 9L1 9L1 11L2 11L2 12L3 12L3 13L0 13L0 14L2 14L2 15L0 15L0 16L2 16L2 17L1 17L1 18L0 18L0 20L1 20L1 18L2 18L2 20L4 20L4 19L5 19L5 20L6 20L6 21L5 21L5 23L4 23L4 22L3 22L3 23L4 23L4 24L5 24L5 23L7 23L7 24L6 24L6 25L8 25L8 22L9 22L9 25L11 25L11 26L6 26L6 27L5 27L5 26L3 26L3 24L2 24L2 26L0 26L0 27L1 27L1 28L0 28L0 29L1 29L1 30L2 30L2 31L3 31L3 35L0 35L0 36L4 36L4 37L3 37L3 38L2 38L2 37L0 37L0 38L2 38L2 39L1 39L1 40L0 40L0 43L3 43L3 41L2 41L2 40L3 40L3 39L5 39L5 38L6 38L6 39L8 39L8 38L10 38L10 39L9 39L9 40L10 40L10 42L9 42L9 41L8 41L8 42L9 42L9 43L8 43L8 44L6 44L6 43L7 43L7 42L6 42L6 43L4 43L4 44L5 44L5 45L7 45L7 46L6 46L6 47L9 47L9 46L11 46L11 44L12 44L12 45L13 45L13 44L12 44L12 43L13 43L13 42L16 42L16 43L15 43L15 46L13 46L13 47L14 47L14 48L13 48L13 49L14 49L14 51L15 51L15 49L14 49L14 48L16 48L16 49L17 49L17 48L18 48L18 49L20 49L20 50L21 50L21 51L23 51L23 53L24 53L24 55L23 55L23 54L22 54L22 52L21 52L21 55L22 55L22 57L23 57L23 58L24 58L24 59L23 59L23 60L22 60L22 61L24 61L24 60L25 60L25 61L30 61L30 59L32 59L32 60L31 60L31 61L33 61L33 60L34 60L34 61L35 61L35 60L36 60L36 61L37 61L37 60L38 60L38 61L39 61L39 60L38 60L38 59L37 59L37 58L35 58L35 57L34 57L34 56L33 56L33 54L35 54L35 56L36 56L36 57L38 57L38 58L39 58L39 59L40 59L40 58L39 58L39 57L41 57L41 58L43 58L43 59L41 59L41 60L40 60L40 61L42 61L42 60L43 60L43 59L44 59L44 61L45 61L45 59L44 59L44 57L42 57L42 56L43 56L43 55L42 55L42 54L43 54L43 53L45 53L45 55L44 55L44 56L46 56L46 57L45 57L45 58L47 58L47 60L46 60L46 61L47 61L47 60L48 60L48 61L49 61L49 60L48 60L48 59L49 59L49 58L47 58L47 56L46 56L46 54L47 54L47 55L49 55L49 53L52 53L52 54L51 54L51 55L50 55L50 56L48 56L48 57L50 57L50 58L51 58L51 57L53 57L53 58L56 58L56 60L55 60L55 59L54 59L54 60L55 60L55 61L58 61L58 60L60 60L60 61L61 61L61 57L60 57L60 55L61 55L61 54L60 54L60 53L59 53L59 51L61 51L61 50L59 50L59 51L58 51L58 50L57 50L57 49L58 49L58 48L60 48L60 49L61 49L61 46L60 46L60 47L59 47L59 46L58 46L58 45L57 45L57 44L58 44L58 43L59 43L59 44L60 44L60 45L61 45L61 42L60 42L60 41L59 41L59 39L61 39L61 38L59 38L59 39L58 39L58 38L57 38L57 37L58 37L58 36L59 36L59 37L61 37L61 34L60 34L60 33L61 33L61 30L60 30L60 31L59 31L59 32L60 32L60 33L58 33L58 31L57 31L57 30L58 30L58 29L61 29L61 28L60 28L60 27L61 27L61 26L60 26L60 25L57 25L57 24L60 24L60 23L61 23L61 22L60 22L60 23L59 23L59 21L61 21L61 18L60 18L60 17L61 17L61 16L59 16L59 15L61 15L61 14L59 14L59 13L60 13L60 12L59 12L59 11L61 11L61 10L59 10L59 9L58 9L58 10L59 10L59 11L57 11L57 10L56 10L56 11L55 11L55 12L56 12L56 13L54 13L54 11L53 11L53 10L55 10L55 8L54 8L54 9L52 9L52 8L47 8L47 6L48 6L48 7L49 7L49 6L50 6L50 7L51 7L51 5L52 5L52 4L53 4L53 0L51 0L51 2L50 2L50 1L47 1L47 0L42 0L42 1L43 1L43 2L42 2L42 3L39 3L39 2L38 2L38 1L39 1L39 0L34 0L34 2L33 2L33 1L32 1L32 0L27 0L27 1L26 1L26 0L22 0L22 1L21 1L21 0L19 0L19 1L16 1L16 2L18 2L18 3L17 3L17 6L16 6L16 4L15 4L15 3L13 3L13 2L14 2L14 1L15 1L15 0L13 0L13 1L11 1L11 0ZM20 1L20 2L21 2L21 1ZM27 1L27 7L26 7L26 6L25 6L25 5L24 5L24 4L25 4L25 3L24 3L24 2L22 2L22 3L23 3L23 9L22 9L22 10L24 10L24 9L25 9L25 10L26 10L26 8L27 8L27 11L26 11L26 12L24 12L24 11L23 11L23 12L24 12L24 13L26 13L26 15L25 15L25 14L22 14L22 11L21 11L21 8L22 8L22 5L21 5L21 7L20 7L20 6L19 6L19 8L20 8L20 10L16 10L16 11L17 11L17 12L16 12L16 14L17 14L17 15L18 15L18 14L20 14L20 13L21 13L21 16L20 16L20 15L19 15L19 16L20 16L20 17L18 17L18 18L20 18L20 19L23 19L23 18L24 18L24 20L23 20L23 21L22 21L22 20L21 20L21 22L23 22L23 21L25 21L25 22L24 22L24 23L21 23L21 25L22 25L22 24L23 24L23 25L25 25L25 28L24 28L24 29L25 29L25 31L24 31L24 32L25 32L25 33L26 33L26 34L25 34L25 35L26 35L26 36L24 36L24 37L26 37L26 38L25 38L25 39L23 39L23 38L22 38L22 37L21 37L21 35L22 35L22 34L21 34L21 35L20 35L20 37L18 37L18 36L19 36L19 35L18 35L18 36L17 36L17 35L16 35L16 36L15 36L15 35L13 35L13 37L11 37L11 36L12 36L12 35L11 35L11 36L9 36L9 35L10 35L10 34L13 34L13 33L14 33L14 34L15 34L15 33L14 33L14 31L12 31L12 32L10 32L10 31L11 31L11 30L12 30L12 29L11 29L11 28L9 28L9 27L6 27L6 28L9 28L9 29L11 29L11 30L9 30L9 32L10 32L10 33L8 33L8 34L9 34L9 35L5 35L5 37L4 37L4 38L5 38L5 37L6 37L6 38L7 38L7 37L6 37L6 36L8 36L8 37L11 37L11 38L14 38L14 40L15 40L15 41L16 41L16 39L18 39L18 38L20 38L20 37L21 37L21 38L22 38L22 41L21 41L21 42L20 42L20 43L19 43L19 42L18 42L18 41L17 41L17 43L16 43L16 45L17 45L17 46L20 46L20 45L18 45L18 43L19 43L19 44L22 44L22 43L21 43L21 42L24 42L24 43L23 43L23 45L21 45L21 48L20 48L20 49L21 49L21 50L23 50L23 51L24 51L24 53L25 53L25 51L26 51L26 52L31 52L31 50L33 50L33 52L34 52L34 50L35 50L35 53L36 53L36 54L38 54L38 55L40 55L40 54L39 54L39 53L38 53L38 52L40 52L40 53L41 53L41 54L42 54L42 53L41 53L41 51L43 51L43 52L46 52L46 53L47 53L47 52L46 52L46 51L48 51L48 52L49 52L49 51L50 51L50 49L51 49L51 50L52 50L52 49L53 49L53 48L55 48L55 49L54 49L54 50L56 50L56 49L57 49L57 48L58 48L58 47L57 47L57 46L56 46L56 47L54 47L54 46L53 46L53 45L54 45L54 44L56 44L56 42L57 42L57 43L58 43L58 42L59 42L59 41L57 41L57 39L52 39L52 38L53 38L53 36L54 36L54 37L55 37L55 36L56 36L56 37L57 37L57 36L58 36L58 35L57 35L57 34L56 34L56 33L52 33L52 34L49 34L49 33L48 33L48 32L49 32L49 31L48 31L48 32L47 32L47 30L49 30L49 29L47 29L47 28L50 28L50 27L49 27L49 26L50 26L50 25L51 25L51 24L49 24L49 22L50 22L50 23L51 23L51 22L52 22L52 21L54 21L54 20L52 20L52 21L51 21L51 22L50 22L50 21L49 21L49 22L48 22L48 20L49 20L49 19L47 19L47 18L46 18L46 17L47 17L47 15L48 15L48 16L50 16L50 20L51 20L51 19L53 19L53 18L54 18L54 19L55 19L55 20L56 20L56 21L55 21L55 22L54 22L54 23L53 23L53 24L52 24L52 26L51 26L51 28L54 28L54 27L55 27L55 28L57 28L57 26L56 26L56 24L54 24L54 23L56 23L56 22L58 22L58 21L59 21L59 20L60 20L60 18L59 18L59 17L57 17L57 19L55 19L55 18L56 18L56 17L55 17L55 14L54 14L54 13L53 13L53 11L52 11L52 14L51 14L51 15L52 15L52 14L53 14L53 16L54 16L54 17L53 17L53 18L51 18L51 16L50 16L50 15L48 15L48 14L50 14L50 13L51 13L51 11L50 11L50 12L49 12L49 11L46 11L46 17L44 17L44 18L42 18L42 15L44 15L44 16L45 16L45 15L44 15L44 14L45 14L45 13L44 13L44 11L45 11L45 7L46 7L46 6L47 6L47 4L46 4L46 5L44 5L44 6L43 6L43 5L42 5L42 4L41 4L41 5L42 5L42 6L41 6L41 7L42 7L42 8L41 8L41 9L44 9L44 11L43 11L43 10L42 10L42 11L43 11L43 12L42 12L42 13L41 13L41 14L42 14L42 15L40 15L40 16L38 16L38 15L37 15L37 14L38 14L38 13L39 13L39 14L40 14L40 13L39 13L39 11L40 11L40 12L41 12L41 10L40 10L40 5L39 5L39 8L37 8L37 7L38 7L38 6L37 6L37 7L36 7L36 6L35 6L35 4L33 4L33 3L32 3L32 1ZM36 1L36 2L35 2L35 3L37 3L37 4L36 4L36 5L38 5L38 4L39 4L39 3L37 3L37 1ZM40 1L40 2L41 2L41 1ZM45 1L45 3L49 3L49 4L48 4L48 5L49 5L49 4L50 4L50 3L49 3L49 2L46 2L46 1ZM29 2L29 3L31 3L31 4L28 4L28 10L29 10L29 11L28 11L28 13L29 13L29 14L30 14L30 12L32 12L32 11L33 11L33 12L34 12L34 13L33 13L33 15L34 15L34 13L35 13L35 12L36 12L36 14L35 14L35 15L36 15L36 14L37 14L37 12L36 12L36 11L37 11L37 10L39 10L39 9L37 9L37 8L36 8L36 9L37 9L37 10L36 10L36 11L35 11L35 6L34 6L34 7L33 7L33 4L32 4L32 3L31 3L31 2ZM12 3L12 4L13 4L13 3ZM19 3L19 4L18 4L18 5L19 5L19 4L21 4L21 3ZM43 3L43 4L44 4L44 3ZM51 3L51 4L52 4L52 3ZM29 5L29 8L32 8L32 5ZM9 6L9 7L10 7L10 6ZM15 6L15 8L16 8L16 9L18 9L18 8L16 8L16 6ZM17 6L17 7L18 7L18 6ZM24 6L24 8L26 8L26 7L25 7L25 6ZM30 6L30 7L31 7L31 6ZM42 6L42 7L43 7L43 8L44 8L44 7L45 7L45 6L44 6L44 7L43 7L43 6ZM52 6L52 7L53 7L53 6ZM60 8L60 9L61 9L61 8ZM29 9L29 10L30 10L30 11L29 11L29 12L30 12L30 11L32 11L32 9L31 9L31 10L30 10L30 9ZM33 9L33 10L34 10L34 9ZM47 9L47 10L49 10L49 9ZM5 10L5 11L3 11L3 12L5 12L5 13L6 13L6 12L7 12L7 11L6 11L6 10ZM18 11L18 12L17 12L17 13L19 13L19 12L21 12L21 11ZM26 12L26 13L27 13L27 12ZM48 12L48 13L49 13L49 12ZM58 12L58 13L56 13L56 15L58 15L58 13L59 13L59 12ZM42 13L42 14L44 14L44 13ZM27 14L27 15L28 15L28 16L25 16L25 15L24 15L24 16L22 16L22 18L23 18L23 17L25 17L25 20L26 20L26 18L27 18L27 19L28 19L28 18L27 18L27 17L31 17L31 16L30 16L30 15L28 15L28 14ZM15 16L15 17L14 17L14 19L15 19L15 21L17 21L17 19L16 19L16 17L17 17L17 16ZM32 16L32 18L30 18L30 20L31 20L31 21L29 21L29 20L28 20L28 21L27 21L27 22L26 22L26 23L25 23L25 25L26 25L26 27L27 27L27 28L25 28L25 29L26 29L26 31L25 31L25 32L28 32L28 33L27 33L27 36L26 36L26 37L27 37L27 38L26 38L26 39L27 39L27 45L28 45L28 46L26 46L26 49L25 49L25 47L24 47L24 46L25 46L25 45L24 45L24 46L22 46L22 47L23 47L23 50L24 50L24 49L25 49L25 50L26 50L26 49L27 49L27 51L28 51L28 49L29 49L29 48L30 48L30 49L31 49L31 48L32 48L32 49L33 49L33 50L34 50L34 49L37 49L37 50L36 50L36 51L37 51L37 52L36 52L36 53L37 53L37 52L38 52L38 51L39 51L39 49L42 49L42 50L43 50L43 47L44 47L44 49L45 49L45 50L44 50L44 51L46 51L46 47L48 47L48 46L51 46L51 47L49 47L49 48L47 48L47 49L49 49L49 48L51 48L51 49L52 49L52 46L51 46L51 45L52 45L52 44L54 44L54 43L55 43L55 40L52 40L52 39L51 39L51 37L52 37L52 35L51 35L51 37L50 37L50 36L48 36L48 34L47 34L47 33L46 33L46 32L45 32L45 33L44 33L44 34L43 34L43 33L41 33L41 29L42 29L42 30L43 30L43 29L44 29L44 30L47 30L47 29L45 29L45 28L43 28L43 29L42 29L42 28L41 28L41 29L40 29L40 28L39 28L39 27L41 27L41 26L43 26L43 27L44 27L44 26L43 26L43 25L42 25L42 24L41 24L41 23L42 23L42 22L44 22L44 25L45 25L45 27L46 27L46 28L47 28L47 27L48 27L48 26L49 26L49 24L48 24L48 23L47 23L47 19L46 19L46 18L44 18L44 19L43 19L43 20L42 20L42 19L40 19L40 18L39 18L39 19L38 19L38 17L37 17L37 16L36 16L36 17L33 17L33 16ZM8 17L8 18L9 18L9 17ZM36 17L36 18L37 18L37 17ZM48 17L48 18L49 18L49 17ZM54 17L54 18L55 18L55 17ZM34 18L34 19L32 19L32 20L33 20L33 21L31 21L31 22L30 22L30 23L31 23L31 24L29 24L29 25L27 25L27 26L31 26L31 27L34 27L34 29L35 29L35 30L34 30L34 32L33 32L33 33L32 33L32 36L31 36L31 37L32 37L32 36L33 36L33 38L34 38L34 39L33 39L33 40L32 40L32 38L31 38L31 39L30 39L30 38L29 38L29 40L31 40L31 41L28 41L28 42L32 42L32 43L31 43L31 45L30 45L30 44L29 44L29 43L28 43L28 45L30 45L30 46L29 46L29 47L30 47L30 48L31 48L31 47L30 47L30 46L31 46L31 45L33 45L33 44L32 44L32 43L35 43L35 44L39 44L39 45L40 45L40 43L41 43L41 44L42 44L42 45L41 45L41 46L42 46L42 47L39 47L39 46L37 46L37 45L36 45L36 46L35 46L35 47L36 47L36 48L37 48L37 47L38 47L38 48L42 48L42 47L43 47L43 46L42 46L42 45L44 45L44 47L45 47L45 43L46 43L46 44L47 44L47 42L42 42L42 40L41 40L41 39L39 39L39 40L40 40L40 41L38 41L38 42L37 42L37 41L36 41L36 43L35 43L35 42L33 42L33 40L34 40L34 41L35 41L35 40L34 40L34 39L35 39L35 38L36 38L36 40L38 40L38 39L37 39L37 38L36 38L36 36L37 36L37 35L38 35L38 36L39 36L39 34L40 34L40 36L41 36L41 37L42 37L42 36L43 36L43 38L42 38L42 39L43 39L43 40L45 40L45 41L47 41L47 40L51 40L51 39L50 39L50 38L49 38L49 39L48 39L48 37L47 37L47 36L46 36L46 35L45 35L45 36L46 36L46 38L44 38L44 35L43 35L43 34L41 34L41 33L39 33L39 31L40 31L40 29L38 29L38 32L37 32L37 31L35 31L35 30L36 30L36 28L37 28L37 27L36 27L36 26L35 26L35 24L37 24L37 26L38 26L38 25L39 25L39 26L40 26L40 23L39 23L39 22L41 22L41 21L42 21L42 20L41 20L41 21L39 21L39 20L40 20L40 19L39 19L39 20L37 20L37 19L35 19L35 18ZM58 18L58 19L57 19L57 21L58 21L58 19L59 19L59 18ZM6 19L6 20L9 20L9 19ZM34 19L34 21L33 21L33 22L31 22L31 23L32 23L32 24L33 24L33 26L34 26L34 24L35 24L35 23L36 23L36 22L37 22L37 23L38 23L38 24L39 24L39 23L38 23L38 22L39 22L39 21L38 21L38 22L37 22L37 20L35 20L35 19ZM44 19L44 20L43 20L43 21L44 21L44 22L46 22L46 21L45 21L45 19ZM10 20L10 21L11 21L11 20ZM1 21L1 22L2 22L2 21ZM6 21L6 22L7 22L7 21ZM28 21L28 22L27 22L27 23L26 23L26 24L27 24L27 23L28 23L28 22L29 22L29 21ZM10 22L10 23L11 23L11 22ZM33 22L33 24L34 24L34 22ZM12 23L12 25L13 25L13 23ZM45 23L45 25L46 25L46 27L47 27L47 26L48 26L48 25L46 25L46 24L47 24L47 23ZM53 24L53 26L52 26L52 27L53 27L53 26L55 26L55 25L54 25L54 24ZM2 26L2 27L3 27L3 26ZM12 27L12 28L13 28L13 27ZM20 27L20 28L22 28L22 27ZM28 27L28 28L29 28L29 27ZM1 28L1 29L3 29L3 31L4 31L4 29L3 29L3 28ZM5 29L5 32L8 32L8 29ZM29 29L29 32L32 32L32 29ZM50 29L50 33L51 33L51 32L52 32L52 30L51 30L51 29ZM53 29L53 32L56 32L56 29ZM6 30L6 31L7 31L7 30ZM27 30L27 31L28 31L28 30ZM30 30L30 31L31 31L31 30ZM54 30L54 31L55 31L55 30ZM0 31L0 33L2 33L2 32L1 32L1 31ZM19 31L19 32L21 32L21 31ZM22 31L22 32L23 32L23 31ZM42 31L42 32L44 32L44 31ZM12 32L12 33L13 33L13 32ZM34 32L34 33L33 33L33 34L34 34L34 36L36 36L36 35L35 35L35 32ZM36 32L36 34L39 34L39 33L37 33L37 32ZM5 33L5 34L7 34L7 33ZM23 33L23 35L24 35L24 33ZM30 33L30 34L31 34L31 33ZM28 34L28 35L29 35L29 36L28 36L28 37L29 37L29 36L30 36L30 35L29 35L29 34ZM54 34L54 35L56 35L56 36L57 36L57 35L56 35L56 34ZM59 34L59 36L60 36L60 34ZM41 35L41 36L42 36L42 35ZM14 37L14 38L15 38L15 39L16 39L16 38L15 38L15 37ZM39 37L39 38L40 38L40 37ZM43 38L43 39L44 39L44 38ZM11 39L11 40L12 40L12 41L11 41L11 42L10 42L10 44L11 44L11 42L13 42L13 40L12 40L12 39ZM19 39L19 41L20 41L20 39ZM45 39L45 40L47 40L47 39ZM4 40L4 42L5 42L5 41L7 41L7 40ZM23 40L23 41L24 41L24 42L25 42L25 41L26 41L26 40L25 40L25 41L24 41L24 40ZM1 41L1 42L2 42L2 41ZM48 41L48 42L49 42L49 41ZM50 41L50 43L48 43L48 44L50 44L50 45L51 45L51 43L52 43L52 41ZM53 41L53 43L54 43L54 41ZM39 42L39 43L40 43L40 42ZM41 42L41 43L42 43L42 42ZM43 43L43 44L44 44L44 43ZM2 44L2 45L1 45L1 46L0 46L0 49L1 49L1 50L2 50L2 51L0 51L0 53L4 53L4 52L5 52L5 51L7 51L7 50L4 50L4 49L8 49L8 50L9 50L9 51L8 51L8 54L10 54L10 55L11 55L11 56L13 56L13 57L10 57L10 58L9 58L9 56L8 56L8 58L9 58L9 59L8 59L8 61L9 61L9 59L10 59L10 61L11 61L11 60L12 60L12 59L10 59L10 58L14 58L14 59L13 59L13 61L14 61L14 59L15 59L15 61L16 61L16 60L18 60L18 61L19 61L19 60L18 60L18 59L22 59L22 58L21 58L21 57L20 57L20 58L19 58L19 57L18 57L18 56L17 56L17 57L16 57L16 54L18 54L18 53L19 53L19 51L17 51L17 50L16 50L16 52L14 52L14 53L13 53L13 52L12 52L12 51L10 51L10 50L12 50L12 47L10 47L10 48L5 48L5 46L3 46L3 44ZM8 44L8 45L9 45L9 44ZM1 46L1 47L2 47L2 48L4 48L4 47L3 47L3 46ZM32 46L32 48L33 48L33 49L34 49L34 48L33 48L33 46ZM36 46L36 47L37 47L37 46ZM16 47L16 48L17 48L17 47ZM18 47L18 48L19 48L19 47ZM27 47L27 48L28 48L28 47ZM10 48L10 49L9 49L9 50L10 50L10 49L11 49L11 48ZM2 49L2 50L3 50L3 49ZM29 50L29 51L30 51L30 50ZM40 50L40 51L41 51L41 50ZM48 50L48 51L49 51L49 50ZM3 51L3 52L4 52L4 51ZM9 51L9 53L11 53L11 54L12 54L12 55L13 55L13 56L14 56L14 55L15 55L15 54L16 54L16 53L15 53L15 54L14 54L14 55L13 55L13 54L12 54L12 53L11 53L11 52L10 52L10 51ZM52 51L52 52L57 52L57 53L58 53L58 51ZM6 52L6 53L7 53L7 52ZM17 52L17 53L18 53L18 52ZM27 53L27 56L26 56L26 55L25 55L25 56L23 56L23 57L25 57L25 56L26 56L26 57L27 57L27 58L26 58L26 60L29 60L29 58L28 58L28 57L27 57L27 56L28 56L28 53ZM29 53L29 56L32 56L32 53ZM53 53L53 56L56 56L56 53ZM19 54L19 56L20 56L20 54ZM30 54L30 55L31 55L31 54ZM54 54L54 55L55 55L55 54ZM57 54L57 55L58 55L58 56L57 56L57 57L56 57L56 58L57 58L57 57L59 57L59 58L58 58L58 59L59 59L59 58L60 58L60 57L59 57L59 55L60 55L60 54L59 54L59 55L58 55L58 54ZM36 55L36 56L37 56L37 55ZM41 55L41 56L42 56L42 55ZM50 56L50 57L51 57L51 56ZM17 57L17 58L16 58L16 59L17 59L17 58L18 58L18 57ZM30 57L30 58L31 58L31 57ZM32 57L32 59L33 59L33 57ZM36 59L36 60L37 60L37 59ZM50 60L50 61L53 61L53 60ZM0 0L0 7L7 7L7 0ZM1 1L1 6L6 6L6 1ZM2 2L2 5L5 5L5 2ZM54 0L54 7L61 7L61 0ZM55 1L55 6L60 6L60 1ZM56 2L56 5L59 5L59 2ZM0 54L0 61L7 61L7 54ZM1 55L1 60L6 60L6 55ZM2 56L2 59L5 59L5 56Z" fill="#000000"/></g></g></svg>
