<?xml version="1.0" encoding="UTF-8"?>
<svg xmlns="http://www.w3.org/2000/svg" version="1.1" width="300" height="300" viewBox="0 0 300 300"><rect x="0" y="0" width="300" height="300" fill="#ffffff"/><g transform="scale(4.348)"><g transform="translate(0,0)"><path fill-rule="evenodd" d="M10 0L10 1L8 1L8 2L10 2L10 3L8 3L8 4L9 4L9 5L8 5L8 7L9 7L9 8L6 8L6 9L8 9L8 10L4 10L4 9L5 9L5 8L0 8L0 9L3 9L3 11L5 11L5 12L4 12L4 14L2 14L2 13L3 13L3 12L1 12L1 10L0 10L0 12L1 12L1 13L0 13L0 14L1 14L1 15L4 15L4 16L3 16L3 17L5 17L5 18L6 18L6 19L4 19L4 18L3 18L3 19L4 19L4 20L6 20L6 21L7 21L7 22L5 22L5 21L1 21L1 19L2 19L2 17L1 17L1 16L0 16L0 18L1 18L1 19L0 19L0 26L1 26L1 27L2 27L2 26L3 26L3 28L2 28L2 29L1 29L1 28L0 28L0 29L1 29L1 30L0 30L0 32L2 32L2 33L1 33L1 35L0 35L0 36L1 36L1 38L0 38L0 41L3 41L3 42L5 42L5 41L7 41L7 40L8 40L8 42L11 42L11 43L10 43L10 45L11 45L11 46L8 46L8 48L6 48L6 47L7 47L7 46L6 46L6 47L5 47L5 48L4 48L4 45L5 45L5 44L6 44L6 45L7 45L7 44L8 44L8 43L7 43L7 42L6 42L6 43L4 43L4 45L3 45L3 43L2 43L2 42L1 42L1 43L0 43L0 44L1 44L1 45L3 45L3 46L0 46L0 47L3 47L3 48L2 48L2 49L5 49L5 48L6 48L6 49L9 49L9 50L4 50L4 51L3 51L3 53L2 53L2 52L0 52L0 54L1 54L1 56L0 56L0 61L1 61L1 56L4 56L4 57L2 57L2 59L3 59L3 58L4 58L4 59L7 59L7 58L5 58L5 57L7 57L7 56L6 56L6 55L8 55L8 56L10 56L10 61L8 61L8 60L9 60L9 58L8 58L8 60L6 60L6 61L8 61L8 63L11 63L11 64L10 64L10 65L9 65L9 64L8 64L8 69L10 69L10 68L11 68L11 66L10 66L10 65L12 65L12 64L14 64L14 62L15 62L15 63L16 63L16 62L15 62L15 61L17 61L17 63L18 63L18 61L19 61L19 62L20 62L20 63L19 63L19 64L22 64L22 62L23 62L23 61L21 61L21 60L20 60L20 61L19 61L19 59L20 59L20 57L22 57L22 56L21 56L21 55L22 55L22 54L23 54L23 55L27 55L27 53L31 53L31 54L33 54L33 55L32 55L32 56L35 56L35 57L34 57L34 58L33 58L33 57L30 57L30 56L29 56L29 55L30 55L30 54L28 54L28 56L27 56L27 57L26 57L26 58L28 58L28 59L26 59L26 60L27 60L27 61L24 61L24 62L27 62L27 63L28 63L28 64L29 64L29 69L31 69L31 68L33 68L33 69L34 69L34 67L35 67L35 66L34 66L34 67L31 67L31 66L32 66L32 65L37 65L37 64L38 64L38 63L39 63L39 62L40 62L40 64L41 64L41 62L44 62L44 60L45 60L45 61L46 61L46 60L48 60L48 63L51 63L51 64L50 64L50 65L49 65L49 64L46 64L46 63L47 63L47 62L45 62L45 63L42 63L42 64L43 64L43 65L41 65L41 66L43 66L43 65L44 65L44 64L45 64L45 66L46 66L46 67L43 67L43 68L41 68L41 67L39 67L39 66L38 66L38 67L37 67L37 66L36 66L36 68L35 68L35 69L36 69L36 68L38 68L38 69L39 69L39 68L41 68L41 69L44 69L44 68L46 68L46 67L47 67L47 69L49 69L49 68L50 68L50 69L52 69L52 68L53 68L53 66L56 66L56 67L54 67L54 68L55 68L55 69L56 69L56 68L57 68L57 69L59 69L59 66L60 66L60 67L62 67L62 65L63 65L63 66L65 66L65 64L68 64L68 62L69 62L69 61L68 61L68 62L67 62L67 61L66 61L66 60L67 60L67 55L68 55L68 56L69 56L69 55L68 55L68 54L69 54L69 53L68 53L68 54L67 54L67 53L65 53L65 51L66 51L66 52L68 52L68 50L69 50L69 49L68 49L68 48L69 48L69 47L68 47L68 46L69 46L69 44L67 44L67 43L62 43L62 44L60 44L60 45L59 45L59 46L58 46L58 45L57 45L57 46L58 46L58 47L56 47L56 48L54 48L54 47L53 47L53 46L56 46L56 45L53 45L53 46L49 46L49 42L50 42L50 43L51 43L51 42L50 42L50 39L51 39L51 40L53 40L53 42L52 42L52 44L53 44L53 42L55 42L55 43L54 43L54 44L58 44L58 43L60 43L60 41L61 41L61 42L62 42L62 41L65 41L65 42L67 42L67 41L68 41L68 42L69 42L69 41L68 41L68 38L69 38L69 37L68 37L68 36L69 36L69 35L68 35L68 34L69 34L69 33L68 33L68 31L64 31L64 30L65 30L65 29L66 29L66 30L67 30L67 29L66 29L66 28L67 28L67 27L68 27L68 28L69 28L69 27L68 27L68 26L69 26L69 25L68 25L68 26L67 26L67 25L66 25L66 26L67 26L67 27L65 27L65 29L63 29L63 28L64 28L64 26L65 26L65 25L63 25L63 26L62 26L62 24L63 24L63 23L62 23L62 24L61 24L61 22L62 22L62 21L63 21L63 20L65 20L65 19L63 19L63 18L65 18L65 17L66 17L66 16L67 16L67 15L64 15L64 14L65 14L65 13L66 13L66 14L69 14L69 12L67 12L67 11L68 11L68 10L69 10L69 9L68 9L68 8L67 8L67 9L66 9L66 8L65 8L65 9L64 9L64 8L63 8L63 10L62 10L62 8L61 8L61 9L59 9L59 8L60 8L60 7L61 7L61 6L60 6L60 7L59 7L59 4L58 4L58 5L57 5L57 4L56 4L56 3L59 3L59 2L58 2L58 1L61 1L61 0L53 0L53 2L52 2L52 3L50 3L50 4L49 4L49 3L48 3L48 4L47 4L47 5L46 5L46 4L44 4L44 5L45 5L45 6L44 6L44 8L45 8L45 9L44 9L44 10L46 10L46 12L45 12L45 11L43 11L43 12L45 12L45 13L44 13L44 14L45 14L45 15L44 15L44 16L42 16L42 15L40 15L40 14L38 14L38 15L39 15L39 16L41 16L41 17L42 17L42 18L43 18L43 19L44 19L44 20L45 20L45 21L44 21L44 22L43 22L43 21L42 21L42 20L41 20L41 19L39 19L39 18L40 18L40 17L39 17L39 18L38 18L38 17L37 17L37 16L36 16L36 17L37 17L37 18L36 18L36 20L34 20L34 19L35 19L35 18L34 18L34 16L35 16L35 14L36 14L36 15L37 15L37 14L36 14L36 13L38 13L38 11L40 11L40 10L41 10L41 9L40 9L40 10L38 10L38 9L39 9L39 8L37 8L37 5L40 5L40 8L42 8L42 10L43 10L43 8L42 8L42 7L43 7L43 6L42 6L42 5L43 5L43 4L41 4L41 5L40 5L40 4L39 4L39 3L41 3L41 2L39 2L39 1L38 1L38 0L37 0L37 1L36 1L36 2L35 2L35 1L34 1L34 0L33 0L33 1L32 1L32 0L31 0L31 1L30 1L30 2L31 2L31 1L32 1L32 4L31 4L31 3L28 3L28 2L27 2L27 1L28 1L28 0L27 0L27 1L26 1L26 0L23 0L23 4L22 4L22 1L21 1L21 0L18 0L18 1L17 1L17 2L15 2L15 3L12 3L12 4L10 4L10 3L11 3L11 2L10 2L10 1L11 1L11 0ZM13 0L13 2L14 2L14 1L15 1L15 0ZM41 0L41 1L43 1L43 3L45 3L45 1L46 1L46 3L47 3L47 1L46 1L46 0ZM51 0L51 1L50 1L50 2L51 2L51 1L52 1L52 0ZM18 1L18 2L17 2L17 3L16 3L16 4L15 4L15 5L14 5L14 4L13 4L13 7L12 7L12 5L9 5L9 7L10 7L10 8L9 8L9 9L11 9L11 11L10 11L10 13L11 13L11 14L8 14L8 13L9 13L9 12L7 12L7 11L6 11L6 12L7 12L7 13L5 13L5 14L4 14L4 15L5 15L5 16L7 16L7 17L6 17L6 18L7 18L7 17L8 17L8 16L7 16L7 15L6 15L6 14L8 14L8 15L11 15L11 14L12 14L12 15L13 15L13 16L12 16L12 18L11 18L11 17L10 17L10 18L9 18L9 19L10 19L10 18L11 18L11 19L12 19L12 18L13 18L13 22L12 22L12 23L13 23L13 24L11 24L11 23L10 23L10 22L11 22L11 20L10 20L10 21L8 21L8 19L6 19L6 20L7 20L7 21L8 21L8 23L5 23L5 22L3 22L3 23L1 23L1 25L2 25L2 24L5 24L5 26L4 26L4 28L3 28L3 29L2 29L2 31L3 31L3 32L4 32L4 31L6 31L6 32L9 32L9 34L10 34L10 35L9 35L9 37L4 37L4 33L3 33L3 34L2 34L2 36L3 36L3 37L4 37L4 38L5 38L5 39L4 39L4 40L3 40L3 38L2 38L2 39L1 39L1 40L3 40L3 41L4 41L4 40L5 40L5 39L6 39L6 40L7 40L7 39L6 39L6 38L9 38L9 37L10 37L10 38L12 38L12 40L11 40L11 39L10 39L10 40L11 40L11 41L13 41L13 42L12 42L12 43L13 43L13 42L16 42L16 41L17 41L17 42L19 42L19 45L17 45L17 44L18 44L18 43L17 43L17 44L16 44L16 43L15 43L15 46L14 46L14 47L15 47L15 50L14 50L14 49L13 49L13 47L12 47L12 46L13 46L13 45L14 45L14 44L12 44L12 46L11 46L11 47L12 47L12 48L10 48L10 49L11 49L11 50L9 50L9 51L8 51L8 52L11 52L11 53L12 53L12 52L11 52L11 51L12 51L12 50L14 50L14 51L16 51L16 52L17 52L17 53L16 53L16 55L14 55L14 54L15 54L15 52L13 52L13 53L14 53L14 54L13 54L13 56L12 56L12 55L10 55L10 53L9 53L9 54L8 54L8 53L6 53L6 52L7 52L7 51L4 51L4 53L6 53L6 54L5 54L5 55L4 55L4 56L5 56L5 55L6 55L6 54L8 54L8 55L10 55L10 56L11 56L11 58L12 58L12 60L11 60L11 61L12 61L12 60L13 60L13 62L14 62L14 61L15 61L15 59L16 59L16 60L17 60L17 59L18 59L18 58L19 58L19 57L17 57L17 56L16 56L16 55L18 55L18 54L20 54L20 55L21 55L21 54L22 54L22 53L23 53L23 51L24 51L24 53L25 53L25 54L26 54L26 53L27 53L27 52L28 52L28 51L27 51L27 50L28 50L28 49L30 49L30 50L31 50L31 53L32 53L32 52L33 52L33 53L34 53L34 55L35 55L35 56L36 56L36 57L35 57L35 58L34 58L34 59L37 59L37 61L38 61L38 62L37 62L37 63L38 63L38 62L39 62L39 61L40 61L40 62L41 62L41 61L42 61L42 60L44 60L44 57L45 57L45 60L46 60L46 58L47 58L47 59L48 59L48 60L49 60L49 62L51 62L51 63L53 63L53 64L51 64L51 65L50 65L50 66L48 66L48 68L49 68L49 67L50 67L50 66L51 66L51 68L52 68L52 66L51 66L51 65L55 65L55 64L56 64L56 66L57 66L57 68L58 68L58 66L59 66L59 65L58 65L58 64L59 64L59 63L58 63L58 64L56 64L56 63L55 63L55 62L52 62L52 61L53 61L53 60L51 60L51 59L55 59L55 58L53 58L53 56L51 56L51 55L50 55L50 54L51 54L51 53L50 53L50 50L51 50L51 52L52 52L52 53L53 53L53 54L54 54L54 57L57 57L57 58L56 58L56 59L57 59L57 58L59 58L59 57L60 57L60 56L61 56L61 59L60 59L60 60L59 60L59 59L58 59L58 60L55 60L55 61L56 61L56 62L57 62L57 61L58 61L58 62L59 62L59 61L60 61L60 60L61 60L61 59L63 59L63 60L65 60L65 58L66 58L66 57L63 57L63 56L65 56L65 53L64 53L64 51L65 51L65 49L64 49L64 51L63 51L63 50L62 50L62 47L64 47L64 48L65 48L65 45L67 45L67 46L68 46L68 45L67 45L67 44L65 44L65 45L64 45L64 44L62 44L62 45L60 45L60 47L61 47L61 50L59 50L59 49L60 49L60 48L59 48L59 49L58 49L58 50L57 50L57 51L58 51L58 52L59 52L59 53L57 53L57 52L56 52L56 51L55 51L55 50L56 50L56 49L57 49L57 48L56 48L56 49L55 49L55 50L54 50L54 48L51 48L51 49L49 49L49 51L46 51L46 50L47 50L47 48L50 48L50 47L48 47L48 45L47 45L47 43L46 43L46 45L45 45L45 44L44 44L44 43L45 43L45 40L46 40L46 42L48 42L48 40L49 40L49 38L52 38L52 39L53 39L53 40L54 40L54 41L55 41L55 42L57 42L57 43L58 43L58 42L59 42L59 41L60 41L60 40L61 40L61 41L62 41L62 39L63 39L63 38L65 38L65 37L61 37L61 38L60 38L60 40L59 40L59 39L57 39L57 40L56 40L56 39L55 39L55 38L54 38L54 37L55 37L55 36L56 36L56 38L57 38L57 36L58 36L58 38L59 38L59 37L60 37L60 34L59 34L59 33L60 33L60 29L61 29L61 30L63 30L63 29L62 29L62 28L63 28L63 27L61 27L61 26L60 26L60 29L59 29L59 28L58 28L58 27L57 27L57 26L59 26L59 25L61 25L61 24L56 24L56 23L57 23L57 20L58 20L58 22L59 22L59 21L62 21L62 20L60 20L60 19L61 19L61 18L59 18L59 16L60 16L60 15L61 15L61 16L62 16L62 18L63 18L63 17L65 17L65 16L63 16L63 15L62 15L62 14L64 14L64 13L65 13L65 10L64 10L64 12L63 12L63 13L62 13L62 12L61 12L61 11L62 11L62 10L61 10L61 11L57 11L57 12L55 12L55 11L54 11L54 13L55 13L55 14L56 14L56 15L55 15L55 16L54 16L54 15L53 15L53 12L52 12L52 11L53 11L53 8L52 8L52 5L51 5L51 4L50 4L50 5L48 5L48 6L47 6L47 7L46 7L46 6L45 6L45 7L46 7L46 8L47 8L47 9L46 9L46 10L47 10L47 11L48 11L48 12L49 12L49 13L47 13L47 12L46 12L46 14L47 14L47 17L46 17L46 18L48 18L48 16L49 16L49 18L52 18L52 19L56 19L56 18L57 18L57 16L58 16L58 18L59 18L59 20L58 20L58 19L57 19L57 20L56 20L56 23L55 23L55 22L54 22L54 21L55 21L55 20L52 20L52 21L51 21L51 19L50 19L50 21L49 21L49 22L48 22L48 21L47 21L47 20L46 20L46 19L45 19L45 20L46 20L46 22L48 22L48 24L47 24L47 23L45 23L45 22L44 22L44 23L43 23L43 22L42 22L42 21L41 21L41 20L39 20L39 19L38 19L38 18L37 18L37 20L38 20L38 21L35 21L35 22L34 22L34 20L33 20L33 19L32 19L32 18L31 18L31 17L33 17L33 16L34 16L34 15L32 15L32 14L31 14L31 13L32 13L32 12L31 12L31 13L30 13L30 12L29 12L29 11L30 11L30 10L29 10L29 9L30 9L30 8L29 8L29 7L30 7L30 5L31 5L31 8L32 8L32 5L31 5L31 4L27 4L27 3L26 3L26 4L25 4L25 3L24 3L24 4L23 4L23 8L24 8L24 6L25 6L25 9L27 9L27 8L26 8L26 6L27 6L27 7L28 7L28 8L29 8L29 9L28 9L28 11L27 11L27 10L25 10L25 11L26 11L26 13L27 13L27 15L29 15L29 14L31 14L31 17L30 17L30 18L31 18L31 19L32 19L32 21L28 21L28 19L27 19L27 20L26 20L26 19L25 19L25 20L22 20L22 21L23 21L23 22L22 22L22 23L20 23L20 24L19 24L19 23L18 23L18 22L21 22L21 21L20 21L20 20L21 20L21 17L23 17L23 16L24 16L24 17L25 17L25 18L28 18L28 17L29 17L29 16L28 16L28 17L25 17L25 16L26 16L26 15L25 15L25 16L24 16L24 13L25 13L25 12L24 12L24 11L23 11L23 12L22 12L22 13L23 13L23 16L22 16L22 14L21 14L21 13L20 13L20 12L21 12L21 11L20 11L20 10L21 10L21 9L22 9L22 10L24 10L24 9L22 9L22 8L21 8L21 7L22 7L22 4L20 4L20 3L19 3L19 4L17 4L17 3L18 3L18 2L20 2L20 1ZM48 1L48 2L49 2L49 1ZM54 1L54 2L53 2L53 3L52 3L52 4L53 4L53 5L54 5L54 6L53 6L53 7L54 7L54 9L55 9L55 10L56 10L56 9L57 9L57 10L59 10L59 9L57 9L57 8L56 8L56 6L57 6L57 7L58 7L58 6L57 6L57 5L56 5L56 4L55 4L55 5L54 5L54 4L53 4L53 3L54 3L54 2L55 2L55 3L56 3L56 2L55 2L55 1ZM33 2L33 4L34 4L34 3L35 3L35 2ZM36 3L36 4L38 4L38 3ZM60 3L60 5L61 5L61 3ZM16 4L16 5L15 5L15 6L14 6L14 7L13 7L13 8L14 8L14 7L15 7L15 6L16 6L16 8L15 8L15 10L14 10L14 9L13 9L13 10L12 10L12 12L11 12L11 13L12 13L12 14L14 14L14 13L16 13L16 10L17 10L17 11L18 11L18 13L19 13L19 14L18 14L18 15L16 15L16 14L15 14L15 17L13 17L13 18L14 18L14 19L15 19L15 18L16 18L16 22L15 22L15 20L14 20L14 22L15 22L15 23L16 23L16 24L17 24L17 25L18 25L18 27L19 27L19 28L16 28L16 27L14 27L14 26L13 26L13 25L12 25L12 26L13 26L13 27L14 27L14 28L13 28L13 29L12 29L12 28L11 28L11 26L9 26L9 25L8 25L8 24L6 24L6 25L8 25L8 26L6 26L6 27L8 27L8 29L9 29L9 30L12 30L12 32L13 32L13 31L14 31L14 33L11 33L11 35L12 35L12 34L15 34L15 35L14 35L14 36L13 36L13 37L14 37L14 38L13 38L13 41L14 41L14 38L15 38L15 41L16 41L16 39L18 39L18 40L17 40L17 41L19 41L19 42L20 42L20 43L22 43L22 44L23 44L23 45L21 45L21 44L20 44L20 45L19 45L19 46L18 46L18 47L17 47L17 48L16 48L16 49L17 49L17 50L18 50L18 51L17 51L17 52L18 52L18 53L22 53L22 52L18 52L18 51L20 51L20 50L19 50L19 49L20 49L20 45L21 45L21 46L23 46L23 45L24 45L24 46L25 46L25 47L24 47L24 48L25 48L25 49L22 49L22 50L21 50L21 51L22 51L22 50L24 50L24 51L25 51L25 53L26 53L26 51L25 51L25 49L28 49L28 47L27 47L27 45L26 45L26 46L25 46L25 45L24 45L24 44L25 44L25 43L26 43L26 42L27 42L27 44L28 44L28 45L29 45L29 44L28 44L28 43L30 43L30 45L31 45L31 43L30 43L30 42L32 42L32 43L33 43L33 45L32 45L32 46L30 46L30 47L31 47L31 48L30 48L30 49L31 49L31 50L32 50L32 48L33 48L33 49L34 49L34 51L33 51L33 52L34 52L34 53L35 53L35 51L36 51L36 52L37 52L37 53L36 53L36 54L35 54L35 55L36 55L36 56L41 56L41 58L40 58L40 60L42 60L42 58L43 58L43 56L45 56L45 57L47 57L47 58L50 58L50 59L51 59L51 58L50 58L50 55L49 55L49 54L50 54L50 53L49 53L49 52L47 52L47 54L45 54L45 53L46 53L46 52L45 52L45 51L44 51L44 52L42 52L42 51L40 51L40 50L41 50L41 49L39 49L39 48L41 48L41 46L45 46L45 47L44 47L44 48L43 48L43 49L42 49L42 50L43 50L43 49L44 49L44 50L46 50L46 49L44 49L44 48L46 48L46 47L47 47L47 46L45 46L45 45L44 45L44 44L43 44L43 43L41 43L41 42L43 42L43 40L45 40L45 38L44 38L44 36L45 36L45 37L48 37L48 38L46 38L46 40L47 40L47 39L48 39L48 38L49 38L49 36L46 36L46 35L48 35L48 34L46 34L46 33L49 33L49 35L51 35L51 34L50 34L50 33L51 33L51 32L53 32L53 31L54 31L54 32L55 32L55 33L54 33L54 34L58 34L58 36L59 36L59 34L58 34L58 33L59 33L59 32L58 32L58 31L59 31L59 30L58 30L58 29L57 29L57 30L58 30L58 31L56 31L56 32L55 32L55 31L54 31L54 30L56 30L56 27L55 27L55 29L54 29L54 27L52 27L52 26L55 26L55 25L56 25L56 26L57 26L57 25L56 25L56 24L55 24L55 25L54 25L54 22L53 22L53 21L52 21L52 22L50 22L50 23L51 23L51 24L53 24L53 25L51 25L51 26L50 26L50 24L48 24L48 25L49 25L49 26L48 26L48 27L52 27L52 28L53 28L53 29L52 29L52 30L49 30L49 31L50 31L50 33L49 33L49 32L48 32L48 31L47 31L47 30L46 30L46 31L44 31L44 29L41 29L41 28L42 28L42 27L41 27L41 28L40 28L40 27L39 27L39 26L38 26L38 27L39 27L39 28L38 28L38 29L39 29L39 30L36 30L36 31L39 31L39 32L41 32L41 31L42 31L42 32L43 32L43 33L42 33L42 34L41 34L41 35L39 35L39 34L38 34L38 32L34 32L34 31L33 31L33 30L34 30L34 29L36 29L36 28L34 28L34 25L36 25L36 26L35 26L35 27L36 27L36 26L37 26L37 25L38 25L38 24L37 24L37 25L36 25L36 23L38 23L38 22L35 22L35 24L34 24L34 23L33 23L33 22L32 22L32 23L31 23L31 25L30 25L30 24L27 24L27 21L26 21L26 20L25 20L25 21L24 21L24 22L23 22L23 24L24 24L24 25L23 25L23 26L24 26L24 25L25 25L25 26L27 26L27 25L30 25L30 27L32 27L32 25L33 25L33 28L34 28L34 29L33 29L33 30L32 30L32 31L33 31L33 32L32 32L32 33L31 33L31 30L29 30L29 31L30 31L30 33L31 33L31 34L30 34L30 35L29 35L29 36L28 36L28 35L27 35L27 34L28 34L28 33L27 33L27 34L26 34L26 33L18 33L18 32L17 32L17 31L18 31L18 30L16 30L16 32L15 32L15 28L16 28L16 29L19 29L19 32L20 32L20 31L21 31L21 32L22 32L22 31L21 31L21 30L20 30L20 29L21 29L21 28L23 28L23 29L22 29L22 30L23 30L23 29L24 29L24 30L27 30L27 31L28 31L28 30L27 30L27 29L29 29L29 27L26 27L26 28L25 28L25 29L24 29L24 27L22 27L22 26L21 26L21 28L20 28L20 27L19 27L19 24L17 24L17 23L16 23L16 22L17 22L17 21L19 21L19 19L20 19L20 18L19 18L19 17L20 17L20 16L19 16L19 15L20 15L20 13L19 13L19 11L18 11L18 10L17 10L17 4ZM24 4L24 5L25 5L25 4ZM26 4L26 5L27 5L27 6L28 6L28 7L29 7L29 6L28 6L28 5L27 5L27 4ZM20 5L20 7L21 7L21 5ZM33 5L33 8L36 8L36 5ZM50 5L50 7L51 7L51 5ZM10 6L10 7L11 7L11 6ZM18 6L18 7L19 7L19 6ZM34 6L34 7L35 7L35 6ZM38 6L38 7L39 7L39 6ZM41 6L41 7L42 7L42 6ZM48 6L48 7L47 7L47 8L48 8L48 9L49 9L49 11L52 11L52 10L50 10L50 9L51 9L51 8L50 8L50 9L49 9L49 8L48 8L48 7L49 7L49 6ZM54 6L54 7L55 7L55 6ZM18 8L18 9L21 9L21 8ZM55 8L55 9L56 9L56 8ZM34 9L34 10L35 10L35 11L34 11L34 12L33 12L33 14L34 14L34 12L35 12L35 13L36 13L36 12L35 12L35 11L36 11L36 10L35 10L35 9ZM67 9L67 10L68 10L68 9ZM13 10L13 11L14 11L14 10ZM31 10L31 11L33 11L33 10ZM37 10L37 11L38 11L38 10ZM13 12L13 13L14 13L14 12ZM23 12L23 13L24 13L24 12ZM27 12L27 13L29 13L29 12ZM39 12L39 13L40 13L40 12ZM57 12L57 15L56 15L56 16L55 16L55 17L54 17L54 18L55 18L55 17L56 17L56 16L57 16L57 15L59 15L59 14L58 14L58 12ZM59 12L59 13L60 13L60 14L61 14L61 13L60 13L60 12ZM66 12L66 13L67 13L67 12ZM41 13L41 14L43 14L43 13ZM51 13L51 14L48 14L48 15L51 15L51 14L52 14L52 13ZM52 15L52 16L53 16L53 15ZM68 15L68 16L69 16L69 15ZM17 16L17 17L16 17L16 18L17 18L17 19L18 19L18 18L17 18L17 17L18 17L18 16ZM44 16L44 17L43 17L43 18L44 18L44 17L45 17L45 16ZM50 16L50 17L51 17L51 16ZM52 17L52 18L53 18L53 17ZM68 17L68 18L69 18L69 17ZM22 18L22 19L23 19L23 18ZM29 19L29 20L30 20L30 19ZM48 19L48 20L49 20L49 19ZM66 19L66 20L68 20L68 22L65 22L65 21L64 21L64 24L69 24L69 23L68 23L68 22L69 22L69 19ZM25 21L25 25L27 25L27 24L26 24L26 21ZM39 21L39 22L40 22L40 24L41 24L41 22L40 22L40 21ZM29 22L29 23L30 23L30 22ZM52 22L52 23L53 23L53 22ZM9 23L9 24L10 24L10 25L11 25L11 24L10 24L10 23ZM32 23L32 24L33 24L33 23ZM42 23L42 24L43 24L43 23ZM44 23L44 24L45 24L45 27L44 27L44 28L45 28L45 29L47 29L47 28L46 28L46 27L47 27L47 26L46 26L46 25L47 25L47 24L45 24L45 23ZM14 24L14 25L15 25L15 26L16 26L16 25L15 25L15 24ZM20 24L20 25L22 25L22 24ZM41 25L41 26L43 26L43 25ZM6 28L6 29L5 29L5 30L6 30L6 31L7 31L7 30L6 30L6 29L7 29L7 28ZM9 28L9 29L11 29L11 28ZM19 28L19 29L20 29L20 28ZM26 28L26 29L27 29L27 28ZM30 28L30 29L32 29L32 28ZM39 28L39 29L40 29L40 28ZM48 28L48 29L49 29L49 28ZM3 29L3 31L4 31L4 29ZM13 29L13 30L14 30L14 29ZM68 29L68 30L69 30L69 29ZM39 30L39 31L40 31L40 30ZM42 30L42 31L43 31L43 32L44 32L44 35L43 35L43 34L42 34L42 35L41 35L41 36L39 36L39 38L37 38L37 37L38 37L38 36L37 36L37 37L33 37L33 38L31 38L31 37L32 37L32 34L31 34L31 37L30 37L30 38L29 38L29 37L27 37L27 36L26 36L26 35L22 35L22 34L21 34L21 36L22 36L22 37L18 37L18 38L20 38L20 39L19 39L19 40L21 40L21 41L20 41L20 42L21 42L21 41L22 41L22 43L23 43L23 44L24 44L24 43L23 43L23 42L24 42L24 41L22 41L22 40L21 40L21 39L22 39L22 37L25 37L25 39L26 39L26 40L25 40L25 42L26 42L26 41L27 41L27 42L29 42L29 41L30 41L30 40L29 40L29 39L30 39L30 38L31 38L31 39L32 39L32 40L31 40L31 41L33 41L33 38L37 38L37 40L34 40L34 41L35 41L35 43L34 43L34 42L33 42L33 43L34 43L34 45L36 45L36 46L37 46L37 49L38 49L38 50L39 50L39 49L38 49L38 48L39 48L39 47L40 47L40 46L41 46L41 43L40 43L40 41L42 41L42 40L43 40L43 39L44 39L44 38L41 38L41 37L43 37L43 36L44 36L44 35L46 35L46 34L45 34L45 32L44 32L44 31L43 31L43 30ZM52 30L52 31L53 31L53 30ZM24 31L24 32L26 32L26 31ZM46 31L46 32L47 32L47 31ZM62 31L62 32L64 32L64 31ZM56 32L56 33L57 33L57 32ZM65 32L65 36L66 36L66 37L67 37L67 36L66 36L66 35L67 35L67 34L66 34L66 33L67 33L67 32ZM5 33L5 36L8 36L8 33ZM16 33L16 34L17 34L17 35L16 35L16 36L17 36L17 35L20 35L20 34L18 34L18 33ZM33 33L33 36L36 36L36 33ZM61 33L61 36L64 36L64 33ZM6 34L6 35L7 35L7 34ZM34 34L34 35L35 35L35 34ZM62 34L62 35L63 35L63 34ZM42 35L42 36L43 36L43 35ZM52 35L52 36L50 36L50 37L52 37L52 36L53 36L53 35ZM56 35L56 36L57 36L57 35ZM10 36L10 37L11 37L11 36ZM25 36L25 37L26 37L26 38L27 38L27 39L28 39L28 38L27 38L27 37L26 37L26 36ZM15 37L15 38L17 38L17 37ZM23 38L23 39L24 39L24 38ZM53 38L53 39L54 39L54 40L55 40L55 39L54 39L54 38ZM61 38L61 39L62 39L62 38ZM40 39L40 40L41 40L41 39ZM64 39L64 40L65 40L65 39ZM27 40L27 41L29 41L29 40ZM38 40L38 41L39 41L39 40ZM58 40L58 41L59 41L59 40ZM66 40L66 41L67 41L67 40ZM36 41L36 42L37 42L37 41ZM38 42L38 45L40 45L40 43L39 43L39 42ZM1 43L1 44L2 44L2 43ZM6 43L6 44L7 44L7 43ZM35 43L35 44L37 44L37 43ZM62 45L62 46L61 46L61 47L62 47L62 46L63 46L63 45ZM32 46L32 47L33 47L33 46ZM38 46L38 47L39 47L39 46ZM25 47L25 48L26 48L26 47ZM35 47L35 48L34 48L34 49L35 49L35 50L36 50L36 51L37 51L37 52L38 52L38 53L37 53L37 54L36 54L36 55L37 55L37 54L38 54L38 55L39 55L39 53L42 53L42 52L39 52L39 51L37 51L37 50L36 50L36 49L35 49L35 48L36 48L36 47ZM0 48L0 50L1 50L1 48ZM17 48L17 49L18 49L18 48ZM66 48L66 49L67 49L67 48ZM51 49L51 50L52 50L52 52L53 52L53 49ZM58 50L58 51L59 51L59 52L60 52L60 53L59 53L59 54L57 54L57 55L56 55L56 52L55 52L55 51L54 51L54 52L55 52L55 53L54 53L54 54L55 54L55 55L56 55L56 56L57 56L57 55L59 55L59 56L60 56L60 55L62 55L62 56L63 56L63 55L62 55L62 53L63 53L63 51L62 51L62 53L61 53L61 51L59 51L59 50ZM29 51L29 52L30 52L30 51ZM44 52L44 53L43 53L43 54L40 54L40 55L45 55L45 54L44 54L44 53L45 53L45 52ZM1 53L1 54L2 54L2 55L3 55L3 54L2 54L2 53ZM59 54L59 55L60 55L60 54ZM46 55L46 56L49 56L49 55ZM14 56L14 59L13 59L13 60L14 60L14 59L15 59L15 58L16 58L16 57L15 57L15 56ZM24 56L24 57L23 57L23 58L24 58L24 57L25 57L25 56ZM28 57L28 58L29 58L29 60L31 60L31 61L27 61L27 62L29 62L29 64L31 64L31 65L30 65L30 66L31 66L31 65L32 65L32 62L31 62L31 61L32 61L32 60L33 60L33 59L32 59L32 58L31 58L31 59L30 59L30 57ZM36 57L36 58L37 58L37 57ZM62 57L62 58L63 58L63 59L64 59L64 58L63 58L63 57ZM68 57L68 58L69 58L69 57ZM38 58L38 59L39 59L39 58ZM23 59L23 60L24 60L24 59ZM31 59L31 60L32 60L32 59ZM68 59L68 60L69 60L69 59ZM3 60L3 61L5 61L5 60ZM38 60L38 61L39 61L39 60ZM20 61L20 62L21 62L21 61ZM33 61L33 64L36 64L36 61ZM61 61L61 64L64 64L64 61ZM65 61L65 62L66 62L66 63L67 63L67 62L66 62L66 61ZM11 62L11 63L12 63L12 62ZM34 62L34 63L35 63L35 62ZM62 62L62 63L63 63L63 62ZM25 63L25 64L26 64L26 63ZM54 63L54 64L55 64L55 63ZM15 64L15 65L18 65L18 67L19 67L19 68L18 68L18 69L19 69L19 68L20 68L20 69L22 69L22 68L21 68L21 67L22 67L22 66L25 66L25 67L24 67L24 68L25 68L25 69L26 69L26 68L25 68L25 67L27 67L27 68L28 68L28 67L27 67L27 66L28 66L28 65L27 65L27 66L26 66L26 65L18 65L18 64ZM13 65L13 67L12 67L12 68L13 68L13 69L14 69L14 68L15 68L15 69L17 69L17 66L16 66L16 67L14 67L14 65ZM46 65L46 66L47 66L47 65ZM57 65L57 66L58 66L58 65ZM60 65L60 66L61 66L61 65ZM66 65L66 66L67 66L67 65ZM19 66L19 67L20 67L20 66ZM64 67L64 69L65 69L65 67ZM66 67L66 68L67 68L67 69L68 69L68 68L67 68L67 67ZM60 68L60 69L61 69L61 68ZM62 68L62 69L63 69L63 68ZM0 0L0 7L7 7L7 0ZM1 1L1 6L6 6L6 1ZM2 2L2 5L5 5L5 2ZM62 0L62 7L69 7L69 0ZM63 1L63 6L68 6L68 1ZM64 2L64 5L67 5L67 2ZM0 62L0 69L7 69L7 62ZM1 63L1 68L6 68L6 63ZM2 64L2 67L5 67L5 64Z" fill="#000000"/></g></g></svg>
