<?xml version="1.0" encoding="UTF-8"?>
<svg xmlns="http://www.w3.org/2000/svg" version="1.1" width="300" height="300" viewBox="0 0 300 300"><rect x="0" y="0" width="300" height="300" fill="#ffffff"/><g transform="scale(4.918)"><g transform="translate(0,0)"><path fill-rule="evenodd" d="M9 0L9 1L8 1L8 2L9 2L9 1L11 1L11 2L12 2L12 3L13 3L13 4L10 4L10 7L11 7L11 6L12 6L12 8L11 8L11 9L13 9L13 6L14 6L14 7L15 7L15 9L14 9L14 10L16 10L16 9L18 9L18 11L16 11L16 13L19 13L19 16L18 16L18 17L19 17L19 16L20 16L20 17L21 17L21 18L22 18L22 19L23 19L23 18L25 18L25 17L24 17L24 15L23 15L23 14L25 14L25 15L26 15L26 14L27 14L27 13L26 13L26 11L29 11L29 13L30 13L30 12L31 12L31 10L33 10L33 11L32 11L32 12L33 12L33 11L34 11L34 12L35 12L35 13L37 13L37 14L38 14L38 15L37 15L37 16L36 16L36 18L33 18L33 17L34 17L34 16L35 16L35 15L36 15L36 14L34 14L34 13L32 13L32 14L31 14L31 15L30 15L30 16L31 16L31 17L32 17L32 18L28 18L28 17L29 17L29 16L28 16L28 15L29 15L29 14L28 14L28 15L27 15L27 17L26 17L26 18L27 18L27 19L26 19L26 20L25 20L25 19L24 19L24 20L25 20L25 21L24 21L24 22L25 22L25 21L26 21L26 20L27 20L27 22L28 22L28 23L30 23L30 24L31 24L31 25L30 25L30 27L29 27L29 24L28 24L28 26L27 26L27 25L26 25L26 23L24 23L24 24L25 24L25 25L24 25L24 27L22 27L22 26L23 26L23 25L19 25L19 23L20 23L20 24L21 24L21 23L23 23L23 21L22 21L22 20L20 20L20 18L18 18L18 19L19 19L19 20L17 20L17 17L16 17L16 15L15 15L15 14L14 14L14 12L15 12L15 11L14 11L14 12L13 12L13 11L12 11L12 10L10 10L10 11L9 11L9 10L8 10L8 9L10 9L10 8L6 8L6 9L5 9L5 8L0 8L0 10L2 10L2 11L3 11L3 10L5 10L5 12L0 12L0 16L1 16L1 17L0 17L0 19L1 19L1 17L5 17L5 18L3 18L3 19L2 19L2 20L1 20L1 21L2 21L2 22L0 22L0 23L1 23L1 25L0 25L0 26L1 26L1 28L0 28L0 31L1 31L1 32L4 32L4 33L5 33L5 36L4 36L4 35L3 35L3 34L2 34L2 35L0 35L0 36L2 36L2 35L3 35L3 36L4 36L4 37L3 37L3 38L4 38L4 37L5 37L5 38L6 38L6 39L5 39L5 41L9 41L9 42L5 42L5 43L7 43L7 44L4 44L4 42L3 42L3 46L2 46L2 45L1 45L1 44L0 44L0 46L2 46L2 47L0 47L0 50L2 50L2 51L0 51L0 53L4 53L4 52L5 52L5 51L7 51L7 52L6 52L6 53L8 53L8 55L9 55L9 54L10 54L10 53L9 53L9 49L8 49L8 51L7 51L7 50L3 50L3 49L4 49L4 47L5 47L5 45L7 45L7 46L6 46L6 47L7 47L7 46L8 46L8 47L10 47L10 46L11 46L11 47L14 47L14 48L15 48L15 49L16 49L16 50L15 50L15 51L12 51L12 50L14 50L14 49L12 49L12 50L10 50L10 52L11 52L11 53L12 53L12 54L13 54L13 55L14 55L14 56L15 56L15 57L11 57L11 58L10 58L10 59L11 59L11 60L9 60L9 56L8 56L8 61L12 61L12 60L13 60L13 61L17 61L17 60L16 60L16 59L18 59L18 61L19 61L19 60L20 60L20 61L21 61L21 59L24 59L24 60L25 60L25 59L24 59L24 58L25 58L25 57L26 57L26 58L27 58L27 59L26 59L26 60L28 60L28 59L29 59L29 58L31 58L31 59L30 59L30 61L32 61L32 60L33 60L33 61L34 61L34 58L33 58L33 59L32 59L32 57L37 57L37 58L36 58L36 59L37 59L37 60L35 60L35 61L37 61L37 60L38 60L38 59L40 59L40 60L39 60L39 61L40 61L40 60L41 60L41 61L42 61L42 60L43 60L43 61L44 61L44 60L45 60L45 61L49 61L49 60L51 60L51 59L52 59L52 58L53 58L53 60L52 60L52 61L53 61L53 60L55 60L55 61L56 61L56 60L55 60L55 58L53 58L53 57L56 57L56 58L59 58L59 56L61 56L61 54L59 54L59 56L58 56L58 57L57 57L57 53L59 53L59 52L54 52L54 51L61 51L61 50L60 50L60 49L59 49L59 48L58 48L58 50L56 50L56 49L57 49L57 48L56 48L56 49L55 49L55 48L54 48L54 47L57 47L57 46L56 46L56 45L59 45L59 44L60 44L60 45L61 45L61 42L60 42L60 39L61 39L61 38L58 38L58 37L61 37L61 34L60 34L60 33L59 33L59 32L61 32L61 30L59 30L59 28L57 28L57 27L56 27L56 24L57 24L57 23L61 23L61 22L58 22L58 21L59 21L59 20L57 20L57 17L61 17L61 16L60 16L60 15L61 15L61 14L60 14L60 13L59 13L59 12L60 12L60 11L61 11L61 10L60 10L60 11L59 11L59 9L60 9L60 8L59 8L59 9L58 9L58 8L57 8L57 9L56 9L56 8L55 8L55 9L54 9L54 8L52 8L52 9L51 9L51 5L52 5L52 4L53 4L53 0L51 0L51 2L50 2L50 3L48 3L48 4L47 4L47 3L46 3L46 2L49 2L49 1L46 1L46 0L44 0L44 1L45 1L45 2L44 2L44 3L45 3L45 4L44 4L44 7L43 7L43 6L42 6L42 7L43 7L43 8L47 8L47 9L48 9L48 10L45 10L45 9L44 9L44 10L45 10L45 11L42 11L42 10L43 10L43 9L41 9L41 10L38 10L38 9L39 9L39 8L41 8L41 5L40 5L40 3L42 3L42 5L43 5L43 2L42 2L42 1L43 1L43 0L42 0L42 1L41 1L41 0L39 0L39 1L38 1L38 3L39 3L39 5L36 5L36 7L37 7L37 8L35 8L35 5L33 5L33 4L37 4L37 3L36 3L36 2L37 2L37 1L36 1L36 2L35 2L35 1L33 1L33 0L30 0L30 1L29 1L29 2L27 2L27 0L26 0L26 3L27 3L27 4L26 4L26 5L25 5L25 4L24 4L24 5L25 5L25 6L24 6L24 8L25 8L25 9L21 9L21 10L22 10L22 11L21 11L21 12L20 12L20 13L19 13L19 12L18 12L18 11L20 11L20 10L19 10L19 9L20 9L20 8L19 8L19 9L18 9L18 8L17 8L17 6L18 6L18 7L19 7L19 6L20 6L20 7L21 7L21 8L22 8L22 7L23 7L23 4L21 4L21 3L19 3L19 1L18 1L18 0L17 0L17 1L18 1L18 2L17 2L17 3L16 3L16 2L15 2L15 4L14 4L14 3L13 3L13 2L14 2L14 0L13 0L13 1L12 1L12 0ZM15 0L15 1L16 1L16 0ZM22 0L22 3L24 3L24 2L25 2L25 0ZM20 1L20 2L21 2L21 1ZM30 1L30 2L31 2L31 1ZM32 1L32 4L33 4L33 3L34 3L34 2L33 2L33 1ZM40 1L40 2L41 2L41 1ZM8 3L8 4L9 4L9 3ZM29 3L29 4L31 4L31 3ZM51 3L51 4L52 4L52 3ZM13 4L13 5L14 5L14 4ZM16 4L16 5L17 5L17 4ZM18 4L18 6L19 6L19 4ZM20 4L20 5L21 5L21 7L22 7L22 5L21 5L21 4ZM27 4L27 5L26 5L26 6L25 6L25 7L26 7L26 6L27 6L27 8L26 8L26 9L25 9L25 10L23 10L23 11L22 11L22 13L25 13L25 14L26 14L26 13L25 13L25 12L24 12L24 11L25 11L25 10L26 10L26 9L27 9L27 10L29 10L29 9L27 9L27 8L28 8L28 6L27 6L27 5L28 5L28 4ZM46 4L46 5L47 5L47 8L49 8L49 9L50 9L50 14L49 14L49 13L48 13L48 12L49 12L49 11L46 11L46 12L47 12L47 13L45 13L45 12L44 12L44 13L43 13L43 12L42 12L42 11L41 11L41 12L40 12L40 11L38 11L38 10L37 10L37 9L38 9L38 8L37 8L37 9L36 9L36 11L35 11L35 12L37 12L37 13L38 13L38 14L39 14L39 13L38 13L38 12L40 12L40 13L41 13L41 14L40 14L40 15L39 15L39 16L37 16L37 18L36 18L36 19L34 19L34 20L33 20L33 18L32 18L32 20L29 20L29 19L27 19L27 20L29 20L29 21L28 21L28 22L29 22L29 21L31 21L31 22L32 22L32 23L31 23L31 24L32 24L32 25L31 25L31 27L32 27L32 28L34 28L34 30L35 30L35 28L37 28L37 29L36 29L36 31L35 31L35 32L33 32L33 33L32 33L32 34L31 34L31 33L27 33L27 32L28 32L28 29L27 29L27 28L29 28L29 27L27 27L27 26L26 26L26 25L25 25L25 27L24 27L24 28L20 28L20 32L19 32L19 31L18 31L18 30L19 30L19 29L18 29L18 28L17 28L17 27L16 27L16 28L17 28L17 29L15 29L15 28L14 28L14 27L15 27L15 26L17 26L17 25L18 25L18 24L17 24L17 23L18 23L18 22L19 22L19 21L18 21L18 22L17 22L17 21L16 21L16 19L15 19L15 21L14 21L14 20L13 20L13 21L14 21L14 22L13 22L13 24L12 24L12 25L11 25L11 27L10 27L10 26L8 26L8 27L6 27L6 26L7 26L7 25L6 25L6 24L7 24L7 23L8 23L8 24L9 24L9 25L10 25L10 24L11 24L11 23L12 23L12 20L11 20L11 22L10 22L10 19L9 19L9 14L11 14L11 15L12 15L12 16L10 16L10 17L13 17L13 19L14 19L14 18L16 18L16 17L13 17L13 16L14 16L14 15L12 15L12 14L11 14L11 13L12 13L12 11L10 11L10 12L8 12L8 13L6 13L6 12L7 12L7 11L8 11L8 10L7 10L7 9L6 9L6 10L7 10L7 11L6 11L6 12L5 12L5 13L3 13L3 14L1 14L1 15L2 15L2 16L4 16L4 14L5 14L5 15L6 15L6 16L7 16L7 15L8 15L8 17L6 17L6 18L5 18L5 22L4 22L4 21L3 21L3 22L2 22L2 24L3 24L3 23L5 23L5 24L4 24L4 25L6 25L6 26L4 26L4 27L3 27L3 25L1 25L1 26L2 26L2 28L1 28L1 29L2 29L2 28L3 28L3 29L4 29L4 28L5 28L5 27L6 27L6 28L8 28L8 27L9 27L9 29L10 29L10 28L11 28L11 29L12 29L12 31L11 31L11 30L9 30L9 31L10 31L10 36L11 36L11 34L13 34L13 33L14 33L14 35L16 35L16 36L19 36L19 37L16 37L16 38L15 38L15 36L13 36L13 35L12 35L12 36L13 36L13 37L14 37L14 41L13 41L13 39L11 39L11 38L9 38L9 37L8 37L8 36L7 36L7 35L6 35L6 36L7 36L7 37L6 37L6 38L7 38L7 39L6 39L6 40L7 40L7 39L8 39L8 40L12 40L12 41L13 41L13 42L9 42L9 43L8 43L8 44L7 44L7 45L9 45L9 46L10 46L10 45L12 45L12 46L17 46L17 47L16 47L16 49L18 49L18 50L17 50L17 51L21 51L21 50L23 50L23 47L24 47L24 49L27 49L27 50L25 50L25 51L23 51L23 52L22 52L22 53L25 53L25 54L24 54L24 55L23 55L23 54L21 54L21 52L19 52L19 53L18 53L18 54L17 54L17 53L15 53L15 52L16 52L16 51L15 51L15 52L14 52L14 53L15 53L15 54L14 54L14 55L15 55L15 56L16 56L16 57L15 57L15 58L11 58L11 59L15 59L15 58L17 58L17 57L18 57L18 56L17 56L17 55L18 55L18 54L19 54L19 57L23 57L23 58L24 58L24 57L25 57L25 55L26 55L26 57L27 57L27 56L28 56L28 53L27 53L27 52L29 52L29 51L30 51L30 52L31 52L31 51L30 51L30 50L31 50L31 49L32 49L32 52L33 52L33 55L34 55L34 56L37 56L37 54L39 54L39 55L41 55L41 56L39 56L39 57L38 57L38 58L41 58L41 60L42 60L42 59L45 59L45 60L46 60L46 59L45 59L45 58L48 58L48 57L47 57L47 56L49 56L49 59L47 59L47 60L49 60L49 59L50 59L50 58L51 58L51 56L52 56L52 55L50 55L50 54L51 54L51 52L52 52L52 51L53 51L53 50L55 50L55 49L54 49L54 48L53 48L53 49L50 49L50 48L52 48L52 47L53 47L53 46L52 46L52 47L50 47L50 46L51 46L51 44L52 44L52 45L54 45L54 44L55 44L55 45L56 45L56 44L59 44L59 43L60 43L60 42L58 42L58 41L56 41L56 40L59 40L59 39L56 39L56 38L57 38L57 37L54 37L54 36L56 36L56 35L57 35L57 36L60 36L60 35L59 35L59 34L57 34L57 33L56 33L56 34L55 34L55 33L53 33L53 34L52 34L52 35L50 35L50 34L51 34L51 33L52 33L52 32L49 32L49 31L50 31L50 30L51 30L51 31L52 31L52 29L50 29L50 30L47 30L47 28L46 28L46 27L45 27L45 26L47 26L47 27L48 27L48 28L49 28L49 27L50 27L50 28L51 28L51 27L50 27L50 26L51 26L51 25L52 25L52 26L53 26L53 27L52 27L52 28L56 28L56 27L55 27L55 26L53 26L53 25L55 25L55 24L53 24L53 23L55 23L55 22L54 22L54 21L56 21L56 23L57 23L57 20L56 20L56 17L57 17L57 16L59 16L59 13L58 13L58 14L57 14L57 16L56 16L56 17L55 17L55 14L54 14L54 13L55 13L55 12L54 12L54 11L57 11L57 12L56 12L56 13L57 13L57 12L59 12L59 11L57 11L57 10L58 10L58 9L57 9L57 10L56 10L56 9L55 9L55 10L54 10L54 11L53 11L53 13L51 13L51 9L50 9L50 8L49 8L49 7L50 7L50 5L49 5L49 4L48 4L48 5L47 5L47 4ZM8 5L8 7L9 7L9 5ZM29 5L29 8L32 8L32 5ZM39 5L39 7L40 7L40 5ZM15 6L15 7L16 7L16 6ZM30 6L30 7L31 7L31 6ZM33 6L33 9L34 9L34 10L35 10L35 8L34 8L34 6ZM37 6L37 7L38 7L38 6ZM45 6L45 7L46 7L46 6ZM48 6L48 7L49 7L49 6ZM52 6L52 7L53 7L53 6ZM2 9L2 10L3 10L3 9ZM52 9L52 10L53 10L53 9ZM5 13L5 14L6 14L6 15L7 15L7 14L6 14L6 13ZM8 13L8 14L9 14L9 13ZM20 13L20 14L21 14L21 16L22 16L22 18L23 18L23 15L22 15L22 14L21 14L21 13ZM42 13L42 14L41 14L41 15L40 15L40 16L39 16L39 18L38 18L38 19L37 19L37 20L36 20L36 22L33 22L33 21L32 21L32 22L33 22L33 25L32 25L32 26L34 26L34 28L35 28L35 27L36 27L36 26L34 26L34 25L37 25L37 26L38 26L38 27L37 27L37 28L38 28L38 29L37 29L37 30L38 30L38 31L40 31L40 32L38 32L38 33L37 33L37 32L36 32L36 33L37 33L37 34L36 34L36 35L35 35L35 34L32 34L32 35L31 35L31 34L30 34L30 35L31 35L31 36L29 36L29 35L28 35L28 34L27 34L27 33L24 33L24 34L23 34L23 35L22 35L22 33L23 33L23 30L25 30L25 29L26 29L26 30L27 30L27 29L26 29L26 28L27 28L27 27L26 27L26 28L25 28L25 29L21 29L21 30L22 30L22 31L21 31L21 32L20 32L20 33L19 33L19 32L17 32L17 30L15 30L15 29L14 29L14 28L13 28L13 27L14 27L14 26L13 26L13 25L12 25L12 26L13 26L13 27L11 27L11 28L12 28L12 29L13 29L13 31L12 31L12 32L11 32L11 33L12 33L12 32L14 32L14 33L15 33L15 34L16 34L16 33L15 33L15 31L16 31L16 32L17 32L17 33L19 33L19 34L18 34L18 35L19 35L19 36L20 36L20 37L19 37L19 39L21 39L21 40L23 40L23 39L24 39L24 40L25 40L25 41L24 41L24 42L23 42L23 41L21 41L21 42L22 42L22 43L21 43L21 44L18 44L18 45L19 45L19 46L18 46L18 47L17 47L17 48L18 48L18 49L19 49L19 50L20 50L20 49L22 49L22 48L20 48L20 45L21 45L21 47L22 47L22 46L23 46L23 45L21 45L21 44L22 44L22 43L24 43L24 44L26 44L26 43L24 43L24 42L25 42L25 41L26 41L26 42L27 42L27 43L29 43L29 41L28 41L28 42L27 42L27 41L26 41L26 40L25 40L25 39L29 39L29 40L30 40L30 41L31 41L31 42L30 42L30 43L31 43L31 44L30 44L30 45L28 45L28 44L27 44L27 45L26 45L26 48L27 48L27 49L28 49L28 50L27 50L27 51L28 51L28 50L30 50L30 49L31 49L31 48L32 48L32 47L33 47L33 45L35 45L35 46L34 46L34 47L35 47L35 46L37 46L37 47L39 47L39 50L38 50L38 49L37 49L37 48L36 48L36 49L37 49L37 50L36 50L36 51L35 51L35 50L34 50L34 51L33 51L33 52L36 52L36 53L35 53L35 54L34 54L34 55L35 55L35 54L37 54L37 52L36 52L36 51L39 51L39 52L42 52L42 51L39 51L39 50L40 50L40 48L41 48L41 47L42 47L42 46L43 46L43 47L44 47L44 48L43 48L43 49L41 49L41 50L44 50L44 51L45 51L45 52L46 52L46 53L47 53L47 52L46 52L46 51L47 51L47 50L46 50L46 51L45 51L45 50L44 50L44 48L45 48L45 47L47 47L47 48L48 48L48 49L49 49L49 50L48 50L48 51L49 51L49 50L50 50L50 52L48 52L48 53L49 53L49 54L47 54L47 55L49 55L49 56L50 56L50 55L49 55L49 54L50 54L50 52L51 52L51 51L52 51L52 50L50 50L50 49L49 49L49 48L48 48L48 47L49 47L49 46L50 46L50 44L47 44L47 43L49 43L49 42L50 42L50 43L51 43L51 42L53 42L53 44L54 44L54 43L55 43L55 44L56 44L56 43L55 43L55 42L56 42L56 41L55 41L55 40L54 40L54 41L55 41L55 42L53 42L53 41L52 41L52 40L51 40L51 38L52 38L52 37L53 37L53 35L52 35L52 36L50 36L50 37L49 37L49 36L48 36L48 35L47 35L47 34L46 34L46 35L45 35L45 33L47 33L47 32L48 32L48 33L49 33L49 32L48 32L48 31L47 31L47 30L45 30L45 31L44 31L44 32L43 32L43 31L42 31L42 30L44 30L44 28L45 28L45 27L44 27L44 28L42 28L42 30L41 30L41 31L40 31L40 30L38 30L38 29L40 29L40 28L41 28L41 27L40 27L40 28L39 28L39 26L38 26L38 25L39 25L39 24L41 24L41 25L42 25L42 26L43 26L43 25L42 25L42 24L41 24L41 23L42 23L42 22L43 22L43 21L42 21L42 22L40 22L40 20L41 20L41 17L40 17L40 16L41 16L41 15L42 15L42 14L43 14L43 15L44 15L44 16L45 16L45 17L44 17L44 18L43 18L43 17L42 17L42 18L43 18L43 19L42 19L42 20L45 20L45 21L44 21L44 22L45 22L45 23L44 23L44 24L45 24L45 25L44 25L44 26L45 26L45 25L47 25L47 26L48 26L48 27L49 27L49 26L50 26L50 25L51 25L51 24L52 24L52 25L53 25L53 24L52 24L52 23L53 23L53 22L50 22L50 20L48 20L48 19L49 19L49 18L48 18L48 17L50 17L50 16L48 16L48 15L49 15L49 14L48 14L48 13L47 13L47 14L45 14L45 13L44 13L44 14L43 14L43 13ZM32 14L32 15L31 15L31 16L32 16L32 17L33 17L33 16L34 16L34 15L33 15L33 14ZM47 14L47 15L48 15L48 14ZM50 14L50 15L52 15L52 16L51 16L51 17L54 17L54 18L55 18L55 17L54 17L54 16L53 16L53 15L54 15L54 14ZM45 15L45 16L46 16L46 18L47 18L47 19L48 19L48 18L47 18L47 17L48 17L48 16L46 16L46 15ZM6 18L6 19L8 19L8 18ZM11 18L11 19L12 19L12 18ZM50 18L50 19L51 19L51 18ZM52 18L52 21L53 21L53 18ZM59 18L59 19L61 19L61 18ZM3 19L3 20L4 20L4 19ZM38 19L38 20L39 20L39 19ZM45 19L45 20L46 20L46 22L47 22L47 23L48 23L48 24L49 24L49 21L47 21L47 20L46 20L46 19ZM54 19L54 20L55 20L55 19ZM6 20L6 21L7 21L7 22L6 22L6 23L7 23L7 22L8 22L8 23L10 23L10 22L9 22L9 21L7 21L7 20ZM60 20L60 21L61 21L61 20ZM15 21L15 23L14 23L14 25L15 25L15 24L16 24L16 25L17 25L17 24L16 24L16 23L17 23L17 22L16 22L16 21ZM20 21L20 23L21 23L21 21ZM37 21L37 22L39 22L39 23L34 23L34 24L39 24L39 23L40 23L40 22L39 22L39 21ZM45 23L45 24L46 24L46 23ZM58 24L58 25L57 25L57 26L58 26L58 25L59 25L59 27L61 27L61 26L60 26L60 24ZM48 25L48 26L49 26L49 25ZM19 26L19 27L20 27L20 26ZM60 28L60 29L61 29L61 28ZM5 29L5 32L8 32L8 29ZM29 29L29 32L32 32L32 29ZM53 29L53 32L56 32L56 29ZM1 30L1 31L3 31L3 30ZM6 30L6 31L7 31L7 30ZM14 30L14 31L15 31L15 30ZM30 30L30 31L31 31L31 30ZM54 30L54 31L55 31L55 30ZM24 31L24 32L25 32L25 31ZM26 31L26 32L27 32L27 31ZM41 31L41 32L40 32L40 33L43 33L43 32L42 32L42 31ZM46 31L46 32L47 32L47 31ZM57 31L57 32L59 32L59 31ZM21 32L21 33L20 33L20 34L19 34L19 35L21 35L21 33L22 33L22 32ZM44 32L44 33L45 33L45 32ZM6 33L6 34L8 34L8 35L9 35L9 34L8 34L8 33ZM38 33L38 34L39 34L39 33ZM24 34L24 35L23 35L23 36L22 36L22 37L20 37L20 38L22 38L22 39L23 39L23 38L22 38L22 37L23 37L23 36L24 36L24 37L25 37L25 38L26 38L26 37L27 37L27 38L29 38L29 36L28 36L28 37L27 37L27 34L26 34L26 35L25 35L25 34ZM40 34L40 35L41 35L41 36L39 36L39 35L36 35L36 36L34 36L34 35L32 35L32 36L34 36L34 37L33 37L33 38L35 38L35 40L37 40L37 41L38 41L38 42L37 42L37 43L34 43L34 44L38 44L38 46L39 46L39 44L40 44L40 47L41 47L41 46L42 46L42 45L43 45L43 46L44 46L44 47L45 47L45 46L47 46L47 47L48 47L48 46L47 46L47 45L46 45L46 42L47 42L47 39L48 39L48 40L50 40L50 42L51 42L51 40L50 40L50 38L51 38L51 37L50 37L50 38L49 38L49 37L48 37L48 36L47 36L47 35L46 35L46 36L47 36L47 37L45 37L45 36L44 36L44 35L41 35L41 34ZM54 34L54 35L55 35L55 34ZM24 35L24 36L25 36L25 37L26 37L26 36L25 36L25 35ZM36 36L36 38L37 38L37 39L38 39L38 40L39 40L39 38L40 38L40 40L41 40L41 38L44 38L44 39L42 39L42 40L43 40L43 41L40 41L40 42L43 42L43 43L40 43L40 44L41 44L41 45L42 45L42 44L43 44L43 45L44 45L44 44L45 44L45 43L44 43L44 40L46 40L46 38L44 38L44 37L41 37L41 38L40 38L40 37L39 37L39 36ZM0 37L0 38L1 38L1 37ZM30 37L30 38L31 38L31 39L32 39L32 40L31 40L31 41L33 41L33 39L32 39L32 38L31 38L31 37ZM37 37L37 38L39 38L39 37ZM8 38L8 39L9 39L9 38ZM17 38L17 39L18 39L18 38ZM48 38L48 39L49 39L49 38ZM53 38L53 39L55 39L55 38ZM0 39L0 40L4 40L4 39ZM15 40L15 41L14 41L14 42L13 42L13 43L12 43L12 45L13 45L13 44L14 44L14 45L17 45L17 43L16 43L16 44L15 44L15 42L16 42L16 41L18 41L18 43L20 43L20 42L19 42L19 41L20 41L20 40L19 40L19 41L18 41L18 40ZM34 41L34 42L35 42L35 41ZM31 42L31 43L32 43L32 44L31 44L31 45L30 45L30 46L29 46L29 47L30 47L30 46L31 46L31 47L32 47L32 46L31 46L31 45L32 45L32 44L33 44L33 43L32 43L32 42ZM38 42L38 43L39 43L39 42ZM57 42L57 43L58 43L58 42ZM10 43L10 44L11 44L11 43ZM43 43L43 44L44 44L44 43ZM24 45L24 47L25 47L25 45ZM27 45L27 46L28 46L28 45ZM59 46L59 47L61 47L61 46ZM2 47L2 48L1 48L1 49L3 49L3 47ZM18 47L18 48L19 48L19 49L20 49L20 48L19 48L19 47ZM5 48L5 49L7 49L7 48ZM3 51L3 52L4 52L4 51ZM25 51L25 53L26 53L26 54L27 54L27 53L26 53L26 51ZM43 52L43 53L41 53L41 55L42 55L42 54L43 54L43 55L44 55L44 56L41 56L41 58L45 58L45 57L46 57L46 56L45 56L45 55L46 55L46 54L45 54L45 53L44 53L44 52ZM60 52L60 53L61 53L61 52ZM19 53L19 54L20 54L20 55L21 55L21 54L20 54L20 53ZM29 53L29 56L32 56L32 53ZM43 53L43 54L44 54L44 53ZM53 53L53 56L56 56L56 53ZM15 54L15 55L17 55L17 54ZM30 54L30 55L31 55L31 54ZM54 54L54 55L55 55L55 54ZM23 56L23 57L24 57L24 56ZM44 56L44 57L45 57L45 56ZM60 57L60 60L58 60L58 61L61 61L61 57ZM18 58L18 59L20 59L20 58ZM31 59L31 60L32 60L32 59ZM0 0L0 7L7 7L7 0ZM1 1L1 6L6 6L6 1ZM2 2L2 5L5 5L5 2ZM54 0L54 7L61 7L61 0ZM55 1L55 6L60 6L60 1ZM56 2L56 5L59 5L59 2ZM0 54L0 61L7 61L7 54ZM1 55L1 60L6 60L6 55ZM2 56L2 59L5 59L5 56Z" fill="#000000"/></g></g></svg>
