<?xml version="1.0" encoding="UTF-8"?>
<svg xmlns="http://www.w3.org/2000/svg" version="1.1" width="300" height="300" viewBox="0 0 300 300"><rect x="0" y="0" width="300" height="300" fill="#ffffff"/><g transform="scale(4.918)"><g transform="translate(0,0)"><path fill-rule="evenodd" d="M10 0L10 2L9 2L9 3L8 3L8 5L9 5L9 6L8 6L8 7L9 7L9 8L10 8L10 9L9 9L9 10L6 10L6 9L8 9L8 8L5 8L5 10L3 10L3 9L2 9L2 8L0 8L0 9L2 9L2 10L1 10L1 11L4 11L4 14L5 14L5 15L3 15L3 16L4 16L4 19L3 19L3 17L1 17L1 19L0 19L0 21L1 21L1 19L3 19L3 20L4 20L4 19L5 19L5 21L4 21L4 22L1 22L1 23L4 23L4 22L5 22L5 21L7 21L7 22L6 22L6 23L5 23L5 24L6 24L6 25L7 25L7 26L6 26L6 27L4 27L4 24L1 24L1 26L0 26L0 27L1 27L1 28L0 28L0 29L1 29L1 30L2 30L2 31L0 31L0 33L1 33L1 32L2 32L2 31L3 31L3 34L2 34L2 35L1 35L1 34L0 34L0 36L1 36L1 37L0 37L0 38L1 38L1 37L2 37L2 39L1 39L1 41L2 41L2 40L3 40L3 39L4 39L4 37L5 37L5 38L6 38L6 39L5 39L5 40L4 40L4 41L3 41L3 42L5 42L5 44L4 44L4 45L7 45L7 46L4 46L4 47L5 47L5 48L3 48L3 47L1 47L1 46L3 46L3 44L2 44L2 42L0 42L0 43L1 43L1 46L0 46L0 49L2 49L2 51L0 51L0 53L4 53L4 52L5 52L5 51L7 51L7 50L4 50L4 49L8 49L8 51L10 51L10 52L11 52L11 54L10 54L10 53L8 53L8 52L6 52L6 53L8 53L8 56L9 56L9 54L10 54L10 55L11 55L11 56L10 56L10 59L8 59L8 61L9 61L9 60L10 60L10 61L11 61L11 60L10 60L10 59L12 59L12 58L13 58L13 57L11 57L11 56L12 56L12 55L13 55L13 56L14 56L14 55L15 55L15 61L16 61L16 58L17 58L17 57L18 57L18 59L20 59L20 58L21 58L21 59L22 59L22 61L24 61L24 60L25 60L25 61L30 61L30 60L29 60L29 59L28 59L28 58L30 58L30 59L32 59L32 60L31 60L31 61L33 61L33 60L34 60L34 61L35 61L35 60L34 60L34 59L35 59L35 56L36 56L36 57L37 57L37 56L36 56L36 55L38 55L38 54L35 54L35 56L33 56L33 54L34 54L34 53L37 53L37 52L38 52L38 51L39 51L39 50L38 50L38 51L37 51L37 50L36 50L36 51L37 51L37 52L35 52L35 51L34 51L34 52L33 52L33 50L34 50L34 49L42 49L42 50L43 50L43 51L41 51L41 52L42 52L42 53L41 53L41 54L40 54L40 52L39 52L39 54L40 54L40 55L39 55L39 56L38 56L38 59L37 59L37 58L36 58L36 59L37 59L37 60L36 60L36 61L37 61L37 60L38 60L38 61L39 61L39 60L38 60L38 59L40 59L40 61L42 61L42 60L43 60L43 59L44 59L44 61L45 61L45 58L47 58L47 57L45 57L45 58L44 58L44 55L42 55L42 54L43 54L43 53L44 53L44 52L43 52L43 51L46 51L46 52L45 52L45 56L46 56L46 52L48 52L48 54L47 54L47 55L49 55L49 56L48 56L48 57L49 57L49 56L50 56L50 55L49 55L49 53L50 53L50 52L51 52L51 53L52 53L52 54L51 54L51 57L50 57L50 59L51 59L51 57L53 57L53 59L52 59L52 60L50 60L50 61L53 61L53 60L55 60L55 61L58 61L58 58L59 58L59 57L60 57L60 61L61 61L61 57L60 57L60 55L61 55L61 54L60 54L60 55L59 55L59 54L58 54L58 53L60 53L60 52L59 52L59 51L61 51L61 50L56 50L56 49L55 49L55 48L54 48L54 47L60 47L60 49L61 49L61 46L58 46L58 45L59 45L59 44L60 44L60 45L61 45L61 42L59 42L59 41L60 41L60 40L59 40L59 39L61 39L61 38L56 38L56 39L57 39L57 40L56 40L56 41L58 41L58 43L57 43L57 42L56 42L56 43L55 43L55 40L54 40L54 41L53 41L53 40L52 40L52 39L51 39L51 38L49 38L49 37L50 37L50 36L47 36L47 37L48 37L48 39L51 39L51 41L53 41L53 42L52 42L52 43L50 43L50 40L48 40L48 41L49 41L49 42L47 42L47 45L46 45L46 43L44 43L44 44L43 44L43 45L42 45L42 44L41 44L41 43L42 43L42 42L46 42L46 41L44 41L44 40L43 40L43 39L42 39L42 38L44 38L44 37L45 37L45 38L46 38L46 39L45 39L45 40L47 40L47 38L46 38L46 36L45 36L45 35L47 35L47 32L48 32L48 33L49 33L49 34L50 34L50 35L51 35L51 37L52 37L52 36L53 36L53 39L55 39L55 37L56 37L56 36L57 36L57 37L58 37L58 36L57 36L57 35L59 35L59 37L61 37L61 34L60 34L60 33L61 33L61 30L60 30L60 29L61 29L61 28L60 28L60 27L61 27L61 26L60 26L60 25L57 25L57 24L58 24L58 23L61 23L61 22L59 22L59 21L61 21L61 18L60 18L60 20L58 20L58 19L59 19L59 15L61 15L61 14L59 14L59 13L60 13L60 11L61 11L61 10L60 10L60 11L59 11L59 13L58 13L58 11L55 11L55 12L56 12L56 14L57 14L57 13L58 13L58 14L59 14L59 15L55 15L55 17L53 17L53 15L51 15L51 14L52 14L52 12L53 12L53 13L54 13L54 14L55 14L55 13L54 13L54 12L53 12L53 11L54 11L54 10L55 10L55 9L53 9L53 8L51 8L51 5L52 5L52 4L53 4L53 0L51 0L51 2L50 2L50 4L49 4L49 3L47 3L47 0L42 0L42 1L46 1L46 3L45 3L45 2L44 2L44 4L43 4L43 2L42 2L42 3L41 3L41 1L40 1L40 3L39 3L39 0L34 0L34 2L32 2L32 0L27 0L27 1L31 1L31 2L28 2L28 3L31 3L31 4L28 4L28 10L29 10L29 9L30 9L30 10L31 10L31 9L32 9L32 10L33 10L33 12L34 12L34 13L31 13L31 15L32 15L32 14L33 14L33 15L36 15L36 14L38 14L38 17L37 17L37 16L35 16L35 17L37 17L37 18L35 18L35 19L34 19L34 17L32 17L32 18L30 18L30 17L31 17L31 16L30 16L30 15L29 15L29 14L30 14L30 12L32 12L32 11L29 11L29 12L28 12L28 13L29 13L29 14L27 14L27 12L26 12L26 10L27 10L27 5L26 5L26 4L27 4L27 2L26 2L26 3L25 3L25 1L26 1L26 0L22 0L22 1L21 1L21 0L19 0L19 1L16 1L16 3L17 3L17 4L19 4L19 5L18 5L18 7L17 7L17 5L16 5L16 4L15 4L15 3L14 3L14 2L15 2L15 0ZM48 0L48 2L49 2L49 0ZM11 1L11 2L10 2L10 3L9 3L9 4L10 4L10 3L11 3L11 2L12 2L12 4L11 4L11 5L13 5L13 7L12 7L12 6L11 6L11 7L12 7L12 8L11 8L11 9L12 9L12 8L13 8L13 7L14 7L14 9L13 9L13 12L11 12L11 13L10 13L10 12L9 12L9 13L10 13L10 15L11 15L11 16L12 16L12 17L11 17L11 18L9 18L9 17L10 17L10 16L9 16L9 14L8 14L8 19L11 19L11 18L12 18L12 19L14 19L14 18L15 18L15 21L12 21L12 23L11 23L11 22L10 22L10 24L12 24L12 25L13 25L13 26L14 26L14 27L15 27L15 28L14 28L14 29L16 29L16 30L15 30L15 31L14 31L14 32L16 32L16 34L17 34L17 36L14 36L14 35L15 35L15 33L14 33L14 35L12 35L12 36L11 36L11 35L10 35L10 34L13 34L13 31L12 31L12 32L11 32L11 30L10 30L10 32L11 32L11 33L10 33L10 34L9 34L9 33L8 33L8 36L7 36L7 35L6 35L6 34L7 34L7 33L5 33L5 35L4 35L4 36L2 36L2 37L4 37L4 36L5 36L5 35L6 35L6 36L7 36L7 37L6 37L6 38L7 38L7 37L8 37L8 36L9 36L9 37L11 37L11 38L9 38L9 39L12 39L12 38L13 38L13 40L11 40L11 41L10 41L10 40L9 40L9 42L8 42L8 40L7 40L7 39L6 39L6 40L7 40L7 41L6 41L6 42L7 42L7 43L6 43L6 44L7 44L7 45L10 45L10 43L9 43L9 42L11 42L11 41L12 41L12 42L13 42L13 43L12 43L12 44L11 44L11 46L8 46L8 47L6 47L6 48L9 48L9 47L11 47L11 48L10 48L10 49L9 49L9 50L12 50L12 51L11 51L11 52L12 52L12 51L13 51L13 52L14 52L14 54L16 54L16 56L18 56L18 57L19 57L19 58L20 58L20 57L21 57L21 58L22 58L22 59L23 59L23 60L24 60L24 59L23 59L23 57L27 57L27 58L28 58L28 57L27 57L27 56L28 56L28 53L27 53L27 52L31 52L31 51L32 51L32 50L31 50L31 49L32 49L32 48L33 48L33 49L34 49L34 48L37 48L37 47L38 47L38 48L40 48L40 47L38 47L38 46L37 46L37 45L38 45L38 44L37 44L37 43L39 43L39 45L41 45L41 47L43 47L43 49L44 49L44 47L43 47L43 46L42 46L42 45L41 45L41 44L40 44L40 43L41 43L41 42L40 42L40 41L41 41L41 38L40 38L40 37L37 37L37 38L36 38L36 36L39 36L39 35L38 35L38 34L36 34L36 32L38 32L38 33L39 33L39 34L40 34L40 35L41 35L41 37L42 37L42 36L43 36L43 37L44 37L44 35L45 35L45 34L44 34L44 33L45 33L45 32L47 32L47 29L48 29L48 30L49 30L49 29L48 29L48 28L50 28L50 31L48 31L48 32L49 32L49 33L51 33L51 32L52 32L52 30L51 30L51 28L54 28L54 27L55 27L55 28L57 28L57 25L56 25L56 24L54 24L54 25L56 25L56 27L55 27L55 26L53 26L53 23L57 23L57 22L58 22L58 21L57 21L57 20L55 20L55 22L53 22L53 23L52 23L52 26L51 26L51 24L49 24L49 22L50 22L50 19L53 19L53 17L52 17L52 18L51 18L51 17L50 17L50 19L47 19L47 17L48 17L48 18L49 18L49 17L48 17L48 16L50 16L50 14L51 14L51 10L50 10L50 12L49 12L49 11L48 11L48 10L49 10L49 9L50 9L50 8L49 8L49 7L50 7L50 6L49 6L49 7L48 7L48 5L49 5L49 4L46 4L46 5L45 5L45 4L44 4L44 6L43 6L43 5L39 5L39 3L38 3L38 1L36 1L36 2L34 2L34 3L37 3L37 4L33 4L33 3L32 3L32 4L33 4L33 7L34 7L34 5L35 5L35 8L34 8L34 9L33 9L33 10L34 10L34 9L35 9L35 11L34 11L34 12L35 12L35 13L34 13L34 14L36 14L36 12L37 12L37 13L38 13L38 14L40 14L40 16L39 16L39 17L38 17L38 19L35 19L35 20L34 20L34 19L33 19L33 21L32 21L32 19L31 19L31 20L30 20L30 18L28 18L28 17L27 17L27 16L28 16L28 15L27 15L27 14L26 14L26 12L24 12L24 13L25 13L25 14L23 14L23 15L22 15L22 12L23 12L23 11L24 11L24 9L25 9L25 10L26 10L26 9L25 9L25 8L26 8L26 6L25 6L25 5L24 5L24 6L23 6L23 5L21 5L21 3L20 3L20 1L19 1L19 4L20 4L20 5L21 5L21 8L19 8L19 9L20 9L20 10L18 10L18 11L20 11L20 10L21 10L21 8L22 8L22 10L23 10L23 11L21 11L21 12L19 12L19 13L17 13L17 10L16 10L16 15L18 15L18 14L19 14L19 16L20 16L20 14L21 14L21 17L18 17L18 16L12 16L12 13L14 13L14 11L15 11L15 8L16 8L16 6L15 6L15 7L14 7L14 4L13 4L13 2L14 2L14 1ZM17 2L17 3L18 3L18 2ZM23 2L23 4L25 4L25 3L24 3L24 2ZM51 3L51 4L52 4L52 3ZM29 5L29 8L32 8L32 5ZM36 5L36 7L37 7L37 6L38 6L38 7L39 7L39 5ZM46 5L46 7L45 7L45 6L44 6L44 8L43 8L43 9L40 9L40 10L43 10L43 11L42 11L42 12L41 12L41 11L39 11L39 9L38 9L38 8L36 8L36 11L37 11L37 10L38 10L38 11L39 11L39 13L40 13L40 14L41 14L41 15L42 15L42 16L41 16L41 17L40 17L40 18L39 18L39 19L40 19L40 20L39 20L39 21L38 21L38 20L35 20L35 21L33 21L33 22L34 22L34 23L35 23L35 25L37 25L37 26L36 26L36 27L37 27L37 28L35 28L35 31L38 31L38 32L39 32L39 33L40 33L40 32L41 32L41 30L43 30L43 29L44 29L44 30L46 30L46 29L44 29L44 28L43 28L43 29L41 29L41 30L40 30L40 31L38 31L38 28L39 28L39 29L40 29L40 28L39 28L39 27L40 27L40 26L45 26L45 27L46 27L46 28L47 28L47 27L48 27L48 26L50 26L50 28L51 28L51 26L50 26L50 25L49 25L49 24L47 24L47 23L48 23L48 22L49 22L49 20L48 20L48 22L47 22L47 21L46 21L46 20L47 20L47 19L46 19L46 18L44 18L44 15L45 15L45 17L46 17L46 15L47 15L47 16L48 16L48 15L49 15L49 14L50 14L50 13L49 13L49 12L48 12L48 11L47 11L47 9L49 9L49 8L47 8L47 5ZM9 6L9 7L10 7L10 6ZM19 6L19 7L20 7L20 6ZM22 6L22 8L23 8L23 6ZM24 6L24 8L25 8L25 6ZM30 6L30 7L31 7L31 6ZM40 6L40 8L42 8L42 7L43 7L43 6L42 6L42 7L41 7L41 6ZM52 6L52 7L53 7L53 6ZM17 8L17 9L18 9L18 8ZM44 8L44 10L45 10L45 8ZM46 8L46 9L47 9L47 8ZM56 8L56 9L58 9L58 10L59 10L59 9L58 9L58 8ZM9 10L9 11L11 11L11 10ZM6 11L6 12L5 12L5 13L6 13L6 14L7 14L7 13L6 13L6 12L8 12L8 11ZM43 11L43 12L42 12L42 13L41 13L41 14L42 14L42 15L43 15L43 14L44 14L44 11ZM46 12L46 14L47 14L47 15L48 15L48 14L49 14L49 13L48 13L48 12ZM0 13L0 14L1 14L1 15L0 15L0 16L2 16L2 14L3 14L3 13L2 13L2 14L1 14L1 13ZM19 13L19 14L20 14L20 13ZM42 13L42 14L43 14L43 13ZM13 14L13 15L15 15L15 14ZM5 15L5 16L7 16L7 15ZM24 15L24 17L23 17L23 16L22 16L22 17L23 17L23 19L21 19L21 20L20 20L20 21L19 21L19 19L20 19L20 18L16 18L16 19L17 19L17 20L16 20L16 21L15 21L15 23L14 23L14 22L13 22L13 23L12 23L12 24L13 24L13 25L15 25L15 26L16 26L16 29L17 29L17 26L16 26L16 25L15 25L15 23L16 23L16 24L17 24L17 23L18 23L18 21L19 21L19 22L20 22L20 23L19 23L19 24L20 24L20 25L21 25L21 26L22 26L22 27L20 27L20 26L19 26L19 25L18 25L18 27L20 27L20 29L21 29L21 30L19 30L19 31L18 31L18 33L19 33L19 32L20 32L20 34L22 34L22 35L21 35L21 37L22 37L22 38L20 38L20 35L19 35L19 34L18 34L18 35L19 35L19 36L18 36L18 37L19 37L19 38L18 38L18 39L17 39L17 38L15 38L15 39L14 39L14 41L15 41L15 42L16 42L16 43L13 43L13 44L12 44L12 45L14 45L14 44L15 44L15 47L14 47L14 46L13 46L13 47L14 47L14 48L13 48L13 49L12 49L12 48L11 48L11 49L12 49L12 50L14 50L14 52L15 52L15 53L19 53L19 51L20 51L20 48L21 48L21 47L20 47L20 46L21 46L21 45L22 45L22 44L23 44L23 43L24 43L24 42L25 42L25 41L27 41L27 43L25 43L25 45L24 45L24 46L25 46L25 45L26 45L26 44L27 44L27 45L28 45L28 46L27 46L27 47L26 47L26 50L25 50L25 53L22 53L22 52L20 52L20 53L21 53L21 55L20 55L20 54L19 54L19 55L20 55L20 56L19 56L19 57L20 57L20 56L21 56L21 55L22 55L22 56L26 56L26 55L27 55L27 53L26 53L26 50L27 50L27 51L30 51L30 50L28 50L28 49L29 49L29 48L27 48L27 47L31 47L31 48L30 48L30 49L31 49L31 48L32 48L32 47L33 47L33 48L34 48L34 47L37 47L37 46L36 46L36 45L37 45L37 44L35 44L35 43L36 43L36 42L35 42L35 43L33 43L33 45L32 45L32 42L30 42L30 41L31 41L31 40L30 40L30 41L29 41L29 39L28 39L28 38L30 38L30 39L32 39L32 41L33 41L33 42L34 42L34 40L36 40L36 41L37 41L37 42L38 42L38 40L39 40L39 41L40 41L40 40L39 40L39 39L40 39L40 38L38 38L38 40L36 40L36 38L31 38L31 36L32 36L32 37L33 37L33 36L32 36L32 35L33 35L33 34L34 34L34 35L36 35L36 34L35 34L35 33L33 33L33 32L34 32L34 27L35 27L35 26L34 26L34 24L33 24L33 23L32 23L32 22L31 22L31 21L29 21L29 22L28 22L28 21L27 21L27 22L28 22L28 23L27 23L27 24L26 24L26 23L25 23L25 25L23 25L23 24L24 24L24 23L23 23L23 22L25 22L25 21L26 21L26 20L27 20L27 19L28 19L28 18L27 18L27 17L26 17L26 16L25 16L25 15ZM29 16L29 17L30 17L30 16ZM56 16L56 17L55 17L55 18L54 18L54 19L55 19L55 18L56 18L56 17L57 17L57 19L58 19L58 17L57 17L57 16ZM60 16L60 17L61 17L61 16ZM6 17L6 18L5 18L5 19L6 19L6 20L7 20L7 21L8 21L8 20L7 20L7 19L6 19L6 18L7 18L7 17ZM12 17L12 18L14 18L14 17ZM24 17L24 20L21 20L21 22L23 22L23 21L25 21L25 20L26 20L26 19L27 19L27 18L26 18L26 19L25 19L25 17ZM40 18L40 19L42 19L42 20L40 20L40 21L39 21L39 22L41 22L41 23L39 23L39 24L38 24L38 23L37 23L37 22L38 22L38 21L37 21L37 22L35 22L35 23L36 23L36 24L37 24L37 25L38 25L38 26L37 26L37 27L38 27L38 26L40 26L40 24L41 24L41 23L42 23L42 25L44 25L44 23L45 23L45 25L46 25L46 26L48 26L48 25L46 25L46 23L45 23L45 22L46 22L46 21L45 21L45 20L44 20L44 18ZM42 20L42 21L41 21L41 22L44 22L44 20ZM53 20L53 21L54 21L54 20ZM51 21L51 22L52 22L52 21ZM29 22L29 23L28 23L28 24L29 24L29 25L26 25L26 26L28 26L28 28L29 28L29 26L31 26L31 25L33 25L33 24L32 24L32 23L31 23L31 22ZM6 23L6 24L7 24L7 23ZM8 23L8 25L9 25L9 27L8 27L8 26L7 26L7 27L6 27L6 28L7 28L7 27L8 27L8 28L10 28L10 27L11 27L11 25L9 25L9 23ZM21 23L21 25L22 25L22 23ZM30 23L30 24L31 24L31 23ZM1 26L1 27L2 27L2 28L1 28L1 29L2 29L2 28L3 28L3 30L4 30L4 27L3 27L3 26ZM32 26L32 27L34 27L34 26ZM58 26L58 27L59 27L59 26ZM12 27L12 28L11 28L11 29L12 29L12 28L13 28L13 27ZM22 27L22 28L21 28L21 29L23 29L23 30L24 30L24 29L25 29L25 31L24 31L24 32L26 32L26 34L25 34L25 35L26 35L26 36L24 36L24 35L22 35L22 36L24 36L24 37L25 37L25 38L26 38L26 36L27 36L27 35L26 35L26 34L27 34L27 33L28 33L28 32L27 32L27 31L28 31L28 30L27 30L27 31L26 31L26 29L27 29L27 27L25 27L25 28L23 28L23 27ZM18 28L18 29L19 29L19 28ZM25 28L25 29L26 29L26 28ZM59 28L59 29L60 29L60 28ZM5 29L5 32L8 32L8 29ZM29 29L29 32L32 32L32 29ZM53 29L53 32L56 32L56 29ZM6 30L6 31L7 31L7 30ZM16 30L16 31L17 31L17 30ZM30 30L30 31L31 31L31 30ZM54 30L54 31L55 31L55 30ZM57 30L57 31L58 31L58 32L59 32L59 33L60 33L60 32L59 32L59 31L60 31L60 30ZM22 31L22 33L23 33L23 34L24 34L24 33L23 33L23 31ZM42 31L42 32L43 32L43 33L41 33L41 35L42 35L42 34L43 34L43 35L44 35L44 34L43 34L43 33L44 33L44 32L45 32L45 31L44 31L44 32L43 32L43 31ZM50 31L50 32L51 32L51 31ZM30 33L30 34L28 34L28 37L29 37L29 35L30 35L30 34L31 34L31 33ZM32 33L32 34L33 34L33 33ZM52 33L52 34L51 34L51 35L53 35L53 34L56 34L56 33ZM9 35L9 36L10 36L10 35ZM54 35L54 37L55 37L55 36L56 36L56 35ZM13 36L13 37L14 37L14 36ZM19 38L19 41L21 41L21 42L20 42L20 43L21 43L21 44L22 44L22 43L21 43L21 42L22 42L22 41L25 41L25 40L27 40L27 39L22 39L22 41L21 41L21 40L20 40L20 38ZM15 39L15 41L16 41L16 42L17 42L17 43L16 43L16 44L17 44L17 49L16 49L16 48L14 48L14 50L15 50L15 52L16 52L16 51L19 51L19 49L18 49L18 48L19 48L19 47L18 47L18 46L20 46L20 44L19 44L19 45L18 45L18 43L19 43L19 42L17 42L17 41L18 41L18 40L17 40L17 41L16 41L16 39ZM33 39L33 40L34 40L34 39ZM39 42L39 43L40 43L40 42ZM53 42L53 43L54 43L54 44L53 44L53 45L51 45L51 44L49 44L49 43L48 43L48 44L49 44L49 45L51 45L51 46L52 46L52 47L53 47L53 45L54 45L54 44L55 44L55 45L56 45L56 44L57 44L57 45L58 45L58 44L59 44L59 43L58 43L58 44L57 44L57 43L56 43L56 44L55 44L55 43L54 43L54 42ZM7 43L7 44L8 44L8 43ZM28 43L28 44L29 44L29 45L30 45L30 46L31 46L31 45L30 45L30 44L29 44L29 43ZM34 44L34 45L35 45L35 44ZM44 44L44 46L45 46L45 44ZM11 46L11 47L12 47L12 46ZM22 46L22 48L23 48L23 50L24 50L24 49L25 49L25 47L24 47L24 48L23 48L23 46ZM47 46L47 47L48 47L48 48L49 48L49 49L47 49L47 48L46 48L46 50L47 50L47 51L48 51L48 52L49 52L49 51L48 51L48 50L49 50L49 49L50 49L50 50L52 50L52 52L57 52L57 53L58 53L58 51L56 51L56 50L55 50L55 49L54 49L54 50L55 50L55 51L53 51L53 50L52 50L52 49L53 49L53 48L52 48L52 49L51 49L51 48L49 48L49 47L50 47L50 46ZM57 48L57 49L58 49L58 48ZM21 50L21 51L22 51L22 50ZM3 51L3 52L4 52L4 51ZM23 51L23 52L24 52L24 51ZM12 53L12 54L11 54L11 55L12 55L12 54L13 54L13 53ZM29 53L29 56L32 56L32 53ZM53 53L53 56L56 56L56 53ZM23 54L23 55L24 55L24 54ZM30 54L30 55L31 55L31 54ZM54 54L54 55L55 55L55 54ZM57 54L57 55L58 55L58 56L57 56L57 57L56 57L56 58L54 58L54 59L55 59L55 60L56 60L56 59L57 59L57 57L58 57L58 56L59 56L59 55L58 55L58 54ZM41 55L41 56L40 56L40 57L39 57L39 58L40 58L40 59L41 59L41 60L42 60L42 59L43 59L43 58L42 58L42 59L41 59L41 56L42 56L42 57L43 57L43 56L42 56L42 55ZM30 57L30 58L31 58L31 57ZM32 57L32 58L33 58L33 57ZM48 58L48 59L49 59L49 58ZM13 59L13 61L14 61L14 59ZM26 59L26 60L28 60L28 59ZM46 59L46 61L47 61L47 59ZM18 60L18 61L19 61L19 60ZM48 60L48 61L49 61L49 60ZM0 0L0 7L7 7L7 0ZM1 1L1 6L6 6L6 1ZM2 2L2 5L5 5L5 2ZM54 0L54 7L61 7L61 0ZM55 1L55 6L60 6L60 1ZM56 2L56 5L59 5L59 2ZM0 54L0 61L7 61L7 54ZM1 55L1 60L6 60L6 55ZM2 56L2 59L5 59L5 56Z" fill="#000000"/></g></g></svg>
