<?xml version="1.0" encoding="UTF-8"?>
<svg xmlns="http://www.w3.org/2000/svg" version="1.1" width="300" height="300" viewBox="0 0 300 300"><rect x="0" y="0" width="300" height="300" fill="#ffffff"/><g transform="scale(4.918)"><g transform="translate(0,0)"><path fill-rule="evenodd" d="M8 0L8 1L9 1L9 6L8 6L8 8L10 8L10 9L9 9L9 11L8 11L8 9L7 9L7 8L6 8L6 9L5 9L5 8L3 8L3 9L2 9L2 8L0 8L0 9L2 9L2 10L1 10L1 11L0 11L0 15L1 15L1 11L3 11L3 13L2 13L2 14L4 14L4 15L2 15L2 16L4 16L4 17L0 17L0 18L1 18L1 19L0 19L0 22L1 22L1 25L0 25L0 28L1 28L1 29L2 29L2 28L3 28L3 27L5 27L5 28L4 28L4 32L1 32L1 31L0 31L0 36L2 36L2 39L5 39L5 41L7 41L7 42L5 42L5 43L4 43L4 40L3 40L3 42L2 42L2 40L1 40L1 41L0 41L0 43L1 43L1 42L2 42L2 44L1 44L1 45L2 45L2 44L3 44L3 46L1 46L1 47L2 47L2 48L3 48L3 49L2 49L2 51L0 51L0 53L4 53L4 52L5 52L5 51L7 51L7 50L5 50L5 49L7 49L7 48L8 48L8 51L9 51L9 53L8 53L8 54L11 54L11 56L10 56L10 55L9 55L9 56L8 56L8 58L10 58L10 59L8 59L8 61L13 61L13 60L14 60L14 61L16 61L16 60L17 60L17 61L20 61L20 60L21 60L21 57L20 57L20 54L19 54L19 57L18 57L18 56L17 56L17 54L18 54L18 53L19 53L19 52L21 52L21 55L22 55L22 57L24 57L24 58L22 58L22 61L24 61L24 58L25 58L25 61L29 61L29 60L26 60L26 59L28 59L28 58L25 58L25 57L24 57L24 56L25 56L25 55L24 55L24 56L23 56L23 54L22 54L22 52L21 52L21 51L24 51L24 52L23 52L23 53L24 53L24 54L25 54L25 53L26 53L26 55L27 55L27 54L28 54L28 56L27 56L27 57L30 57L30 58L31 58L31 57L32 57L32 59L30 59L30 61L31 61L31 60L32 60L32 61L34 61L34 60L36 60L36 61L38 61L38 60L36 60L36 59L37 59L37 58L39 58L39 55L40 55L40 58L41 58L41 60L40 60L40 59L39 59L39 61L42 61L42 60L43 60L43 61L46 61L46 60L45 60L45 58L46 58L46 59L47 59L47 60L48 60L48 61L49 61L49 60L48 60L48 59L49 59L49 58L47 58L47 57L50 57L50 58L52 58L52 57L54 57L54 58L53 58L53 59L51 59L51 60L50 60L50 61L54 61L54 60L56 60L56 61L58 61L58 60L60 60L60 61L61 61L61 54L60 54L60 53L59 53L59 51L58 51L58 50L57 50L57 49L58 49L58 48L59 48L59 49L61 49L61 48L60 48L60 47L61 47L61 46L60 46L60 47L59 47L59 46L57 46L57 45L58 45L58 43L59 43L59 44L60 44L60 45L61 45L61 42L59 42L59 41L60 41L60 40L61 40L61 38L59 38L59 39L58 39L58 38L57 38L57 37L56 37L56 36L59 36L59 37L61 37L61 36L60 36L60 35L61 35L61 34L60 34L60 33L61 33L61 30L60 30L60 29L61 29L61 26L60 26L60 25L57 25L57 24L59 24L59 21L61 21L61 18L60 18L60 20L59 20L59 21L58 21L58 19L57 19L57 17L61 17L61 14L59 14L59 15L58 15L58 14L57 14L57 13L58 13L58 12L59 12L59 13L60 13L60 12L59 12L59 11L61 11L61 10L58 10L58 9L57 9L57 10L56 10L56 12L55 12L55 11L54 11L54 14L56 14L56 15L55 15L55 16L56 16L56 18L55 18L55 17L54 17L54 16L53 16L53 14L52 14L52 12L53 12L53 10L55 10L55 8L54 8L54 9L52 9L52 10L51 10L51 8L52 8L52 7L53 7L53 6L52 6L52 7L51 7L51 5L52 5L52 4L53 4L53 0L51 0L51 2L50 2L50 1L49 1L49 0L48 0L48 1L47 1L47 0L45 0L45 1L46 1L46 2L44 2L44 4L45 4L45 5L46 5L46 3L47 3L47 6L46 6L46 7L45 7L45 6L44 6L44 7L45 7L45 10L44 10L44 12L43 12L43 13L42 13L42 11L41 11L41 12L40 12L40 10L43 10L43 9L44 9L44 8L43 8L43 9L41 9L41 5L43 5L43 2L42 2L42 4L41 4L41 2L39 2L39 4L38 4L38 5L36 5L36 4L37 4L37 3L36 3L36 4L35 4L35 3L34 3L34 1L35 1L35 2L37 2L37 1L39 1L39 0L36 0L36 1L35 1L35 0L34 0L34 1L32 1L32 0L28 0L28 2L27 2L27 1L26 1L26 0L24 0L24 1L21 1L21 0L19 0L19 1L20 1L20 2L21 2L21 4L20 4L20 3L18 3L18 0L17 0L17 1L16 1L16 2L17 2L17 6L16 6L16 7L17 7L17 8L18 8L18 9L15 9L15 11L14 11L14 12L13 12L13 11L12 11L12 10L13 10L13 9L14 9L14 8L15 8L15 5L16 5L16 3L13 3L13 2L15 2L15 0L13 0L13 1L12 1L12 4L11 4L11 5L10 5L10 2L11 2L11 0ZM40 0L40 1L44 1L44 0ZM25 1L25 2L22 2L22 3L23 3L23 4L25 4L25 3L26 3L26 1ZM31 1L31 2L32 2L32 3L33 3L33 2L32 2L32 1ZM47 2L47 3L49 3L49 4L48 4L48 5L49 5L49 7L48 7L48 6L47 6L47 7L46 7L46 8L47 8L47 7L48 7L48 8L51 8L51 7L50 7L50 5L49 5L49 4L50 4L50 3L49 3L49 2ZM27 3L27 4L26 4L26 6L25 6L25 5L24 5L24 6L23 6L23 9L22 9L22 5L20 5L20 6L19 6L19 7L20 7L20 10L19 10L19 11L17 11L17 12L16 12L16 11L15 11L15 12L16 12L16 16L15 16L15 17L14 17L14 16L12 16L12 15L11 15L11 13L12 13L12 14L13 14L13 12L12 12L12 11L10 11L10 12L8 12L8 11L6 11L6 10L7 10L7 9L6 9L6 10L5 10L5 9L4 9L4 10L3 10L3 11L6 11L6 12L5 12L5 13L4 13L4 14L5 14L5 13L6 13L6 14L7 14L7 15L4 15L4 16L8 16L8 15L9 15L9 21L11 21L11 19L13 19L13 22L12 22L12 24L11 24L11 26L12 26L12 29L11 29L11 27L10 27L10 23L11 23L11 22L8 22L8 19L4 19L4 18L2 18L2 19L4 19L4 20L2 20L2 21L1 21L1 22L3 22L3 23L4 23L4 25L3 25L3 26L5 26L5 24L7 24L7 25L6 25L6 26L7 26L7 25L8 25L8 23L9 23L9 26L8 26L8 27L6 27L6 28L9 28L9 29L10 29L10 30L12 30L12 32L11 32L11 31L10 31L10 32L9 32L9 34L10 34L10 35L11 35L11 33L12 33L12 32L13 32L13 33L14 33L14 34L12 34L12 35L13 35L13 36L12 36L12 37L13 37L13 38L12 38L12 40L11 40L11 37L9 37L9 35L8 35L8 39L6 39L6 40L7 40L7 41L8 41L8 40L11 40L11 42L12 42L12 43L13 43L13 42L12 42L12 41L13 41L13 40L14 40L14 37L13 37L13 36L15 36L15 32L17 32L17 33L16 33L16 34L19 34L19 35L18 35L18 36L17 36L17 35L16 35L16 39L18 39L18 38L20 38L20 37L18 37L18 36L19 36L19 35L20 35L20 34L19 34L19 33L18 33L18 32L20 32L20 30L23 30L23 28L22 28L22 27L23 27L23 26L24 26L24 27L26 27L26 26L27 26L27 27L29 27L29 28L30 28L30 27L31 27L31 28L32 28L32 27L33 27L33 26L34 26L34 28L33 28L33 30L34 30L34 32L38 32L38 33L37 33L37 34L36 34L36 35L34 35L34 39L33 39L33 40L34 40L34 39L35 39L35 41L36 41L36 42L38 42L38 43L35 43L35 42L34 42L34 41L32 41L32 40L31 40L31 41L30 41L30 40L27 40L27 42L29 42L29 43L26 43L26 44L23 44L23 45L22 45L22 43L21 43L21 42L23 42L23 43L24 43L24 42L23 42L23 41L25 41L25 42L26 42L26 41L25 41L25 39L27 39L27 37L29 37L29 39L31 39L31 37L32 37L32 36L33 36L33 33L32 33L32 36L31 36L31 37L29 37L29 36L30 36L30 34L31 34L31 33L30 33L30 34L29 34L29 33L28 33L28 35L29 35L29 36L27 36L27 32L28 32L28 31L27 31L27 32L26 32L26 33L25 33L25 31L26 31L26 29L25 29L25 28L24 28L24 29L25 29L25 31L24 31L24 32L23 32L23 33L22 33L22 31L21 31L21 33L22 33L22 34L21 34L21 35L22 35L22 34L23 34L23 33L25 33L25 35L23 35L23 36L24 36L24 37L26 37L26 38L25 38L25 39L24 39L24 38L22 38L22 37L21 37L21 38L22 38L22 39L23 39L23 40L21 40L21 42L20 42L20 43L19 43L19 44L21 44L21 47L22 47L22 46L24 46L24 47L25 47L25 48L24 48L24 49L25 49L25 52L24 52L24 53L25 53L25 52L27 52L27 51L26 51L26 50L27 50L27 49L29 49L29 52L31 52L31 51L30 51L30 50L31 50L31 49L32 49L32 48L33 48L33 49L34 49L34 50L33 50L33 51L34 51L34 52L35 52L35 50L36 50L36 52L39 52L39 53L37 53L37 55L36 55L36 56L37 56L37 55L39 55L39 54L40 54L40 53L41 53L41 52L42 52L42 51L43 51L43 52L44 52L44 51L45 51L45 52L46 52L46 51L48 51L48 52L47 52L47 53L48 53L48 54L50 54L50 55L44 55L44 56L43 56L43 54L42 54L42 55L41 55L41 56L43 56L43 57L44 57L44 58L42 58L42 59L43 59L43 60L44 60L44 58L45 58L45 57L46 57L46 56L50 56L50 57L51 57L51 56L50 56L50 55L51 55L51 54L52 54L52 53L51 53L51 51L48 51L48 50L49 50L49 49L46 49L46 48L45 48L45 49L46 49L46 50L41 50L41 49L39 49L39 48L41 48L41 47L43 47L43 48L42 48L42 49L44 49L44 46L45 46L45 47L46 47L46 45L47 45L47 48L49 48L49 47L52 47L52 48L54 48L54 49L52 49L52 50L53 50L53 51L52 51L52 52L56 52L56 51L54 51L54 50L56 50L56 49L57 49L57 46L56 46L56 47L54 47L54 46L53 46L53 47L52 47L52 45L54 45L54 44L55 44L55 43L56 43L56 44L57 44L57 43L58 43L58 41L57 41L57 40L56 40L56 42L55 42L55 43L54 43L54 42L53 42L53 44L52 44L52 45L51 45L51 46L48 46L48 45L47 45L47 44L49 44L49 45L50 45L50 43L51 43L51 41L50 41L50 43L48 43L48 42L46 42L46 43L44 43L44 42L45 42L45 41L44 41L44 42L42 42L42 41L43 41L43 40L42 40L42 39L44 39L44 40L45 40L45 39L44 39L44 38L46 38L46 40L47 40L47 41L48 41L48 40L51 40L51 39L52 39L52 41L54 41L54 40L55 40L55 39L54 39L54 38L55 38L55 35L53 35L53 34L56 34L56 33L53 33L53 34L52 34L52 37L51 37L51 36L50 36L50 35L51 35L51 34L50 34L50 32L49 32L49 31L48 31L48 32L47 32L47 30L48 30L48 28L49 28L49 27L47 27L47 25L48 25L48 24L49 24L49 26L50 26L50 25L51 25L51 26L53 26L53 28L54 28L54 27L55 27L55 28L57 28L57 26L56 26L56 24L54 24L54 23L55 23L55 22L56 22L56 21L57 21L57 22L58 22L58 21L57 21L57 19L56 19L56 20L54 20L54 19L55 19L55 18L54 18L54 17L53 17L53 18L51 18L51 15L52 15L52 14L51 14L51 15L49 15L49 14L50 14L50 13L51 13L51 12L52 12L52 11L51 11L51 12L50 12L50 13L49 13L49 14L47 14L47 13L48 13L48 12L49 12L49 11L45 11L45 13L44 13L44 14L42 14L42 13L40 13L40 14L39 14L39 15L40 15L40 17L37 17L37 18L38 18L38 19L36 19L36 16L38 16L38 15L36 15L36 16L35 16L35 14L36 14L36 12L37 12L37 13L38 13L38 12L39 12L39 10L38 10L38 9L35 9L35 8L37 8L37 7L38 7L38 6L37 6L37 7L36 7L36 5L35 5L35 4L33 4L33 7L34 7L34 6L35 6L35 8L33 8L33 9L32 9L32 10L33 10L33 9L35 9L35 11L36 11L36 12L34 12L34 11L32 11L32 13L31 13L31 12L30 12L30 13L31 13L31 16L30 16L30 17L29 17L29 16L27 16L27 18L28 18L28 19L27 19L27 20L26 20L26 17L25 17L25 16L24 16L24 15L25 15L25 14L23 14L23 15L22 15L22 17L21 17L21 16L19 16L19 15L21 15L21 14L22 14L22 13L21 13L21 14L20 14L20 12L19 12L19 11L21 11L21 12L24 12L24 13L26 13L26 14L28 14L28 15L30 15L30 14L29 14L29 12L27 12L27 13L26 13L26 12L25 12L25 11L23 11L23 10L24 10L24 9L25 9L25 10L26 10L26 11L27 11L27 10L28 10L28 4L31 4L31 3ZM51 3L51 4L52 4L52 3ZM14 4L14 5L15 5L15 4ZM18 4L18 5L19 5L19 4ZM29 5L29 8L32 8L32 5ZM9 6L9 7L10 7L10 6ZM11 6L11 9L10 9L10 10L11 10L11 9L12 9L12 6ZM13 6L13 8L14 8L14 6ZM17 6L17 7L18 7L18 6ZM20 6L20 7L21 7L21 6ZM24 6L24 8L25 8L25 6ZM26 6L26 8L27 8L27 6ZM30 6L30 7L31 7L31 6ZM39 6L39 7L40 7L40 6ZM42 6L42 7L43 7L43 6ZM39 8L39 9L40 9L40 8ZM60 8L60 9L61 9L61 8ZM48 9L48 10L49 10L49 9ZM21 10L21 11L22 11L22 10ZM6 12L6 13L7 13L7 14L9 14L9 13L8 13L8 12ZM10 12L10 13L11 13L11 12ZM18 12L18 13L17 13L17 14L18 14L18 15L19 15L19 14L18 14L18 13L19 13L19 12ZM33 12L33 14L34 14L34 12ZM46 12L46 13L45 13L45 16L43 16L43 15L42 15L42 16L41 16L41 18L45 18L45 19L46 19L46 18L47 18L47 21L46 21L46 20L45 20L45 21L44 21L44 19L41 19L41 20L40 20L40 21L39 21L39 19L40 19L40 18L39 18L39 19L38 19L38 22L36 22L36 21L37 21L37 20L36 20L36 19L34 19L34 18L35 18L35 16L34 16L34 15L33 15L33 16L32 16L32 19L31 19L31 17L30 17L30 19L29 19L29 21L30 21L30 22L31 22L31 23L30 23L30 24L29 24L29 22L27 22L27 23L26 23L26 22L25 22L25 21L24 21L24 20L25 20L25 17L24 17L24 16L23 16L23 17L24 17L24 20L23 20L23 19L21 19L21 18L20 18L20 17L19 17L19 16L17 16L17 17L16 17L16 19L17 19L17 21L16 21L16 20L14 20L14 22L13 22L13 23L14 23L14 24L15 24L15 25L16 25L16 24L18 24L18 23L14 23L14 22L15 22L15 21L16 21L16 22L18 22L18 21L19 21L19 23L20 23L20 22L21 22L21 20L22 20L22 21L23 21L23 22L22 22L22 26L23 26L23 25L24 25L24 26L26 26L26 25L27 25L27 26L29 26L29 25L30 25L30 26L32 26L32 25L30 25L30 24L31 24L31 23L32 23L32 24L34 24L34 25L35 25L35 28L36 28L36 30L35 30L35 29L34 29L34 30L35 30L35 31L38 31L38 30L37 30L37 28L36 28L36 27L38 27L38 28L39 28L39 29L40 29L40 31L39 31L39 33L38 33L38 34L39 34L39 35L38 35L38 36L35 36L35 37L36 37L36 38L38 38L38 39L37 39L37 40L36 40L36 41L37 41L37 40L38 40L38 41L39 41L39 45L38 45L38 44L35 44L35 43L33 43L33 42L30 42L30 41L29 41L29 42L30 42L30 43L29 43L29 44L27 44L27 46L26 46L26 48L25 48L25 49L27 49L27 48L29 48L29 49L31 49L31 48L32 48L32 47L31 47L31 48L30 48L30 46L29 46L29 44L30 44L30 45L32 45L32 46L33 46L33 48L34 48L34 49L35 49L35 48L36 48L36 50L37 50L37 49L38 49L38 51L39 51L39 49L38 49L38 48L36 48L36 47L35 47L35 45L38 45L38 46L39 46L39 47L40 47L40 45L42 45L42 46L43 46L43 45L44 45L44 44L43 44L43 43L42 43L42 42L41 42L41 41L42 41L42 40L41 40L41 41L39 41L39 40L38 40L38 39L39 39L39 35L40 35L40 39L42 39L42 38L44 38L44 37L47 37L47 36L48 36L48 38L47 38L47 39L49 39L49 37L50 37L50 39L51 39L51 37L50 37L50 36L48 36L48 34L47 34L47 33L46 33L46 32L45 32L45 33L42 33L42 34L41 34L41 35L40 35L40 34L39 34L39 33L41 33L41 30L43 30L43 32L44 32L44 31L46 31L46 30L47 30L47 27L46 27L46 25L47 25L47 24L46 24L46 25L45 25L45 23L49 23L49 24L51 24L51 25L52 25L52 24L51 24L51 23L50 23L50 22L55 22L55 21L52 21L52 20L53 20L53 19L49 19L49 20L48 20L48 18L49 18L49 16L48 16L48 15L47 15L47 17L46 17L46 13L47 13L47 12ZM14 13L14 15L15 15L15 13ZM40 14L40 15L41 15L41 14ZM10 15L10 16L11 16L11 17L10 17L10 19L11 19L11 17L12 17L12 18L14 18L14 19L15 19L15 18L14 18L14 17L12 17L12 16L11 16L11 15ZM56 15L56 16L57 16L57 15ZM33 16L33 17L34 17L34 16ZM42 16L42 17L43 17L43 16ZM6 17L6 18L8 18L8 17ZM17 17L17 18L19 18L19 17ZM45 17L45 18L46 18L46 17ZM47 17L47 18L48 18L48 17ZM19 19L19 20L21 20L21 19ZM6 20L6 21L7 21L7 20ZM30 20L30 21L31 21L31 22L33 22L33 21L36 21L36 20L33 20L33 21L32 21L32 20ZM40 21L40 23L39 23L39 22L38 22L38 23L36 23L36 22L35 22L35 23L34 23L34 24L35 24L35 25L36 25L36 24L38 24L38 25L40 25L40 24L41 24L41 26L40 26L40 29L41 29L41 28L42 28L42 29L43 29L43 30L44 30L44 28L45 28L45 25L44 25L44 28L42 28L42 27L43 27L43 26L42 26L42 25L43 25L43 24L44 24L44 23L45 23L45 22L46 22L46 21L45 21L45 22L42 22L42 21ZM49 21L49 22L50 22L50 21ZM6 22L6 23L8 23L8 22ZM23 22L23 24L24 24L24 25L26 25L26 23L25 23L25 22ZM60 22L60 23L61 23L61 22ZM35 23L35 24L36 24L36 23ZM41 23L41 24L42 24L42 23ZM20 24L20 25L18 25L18 27L17 27L17 26L16 26L16 28L13 28L13 29L12 29L12 30L13 30L13 31L14 31L14 32L15 32L15 31L16 31L16 30L17 30L17 31L18 31L18 29L19 29L19 30L20 30L20 28L21 28L21 29L22 29L22 28L21 28L21 27L20 27L20 28L18 28L18 27L19 27L19 26L21 26L21 24ZM27 24L27 25L28 25L28 24ZM53 24L53 26L55 26L55 25L54 25L54 24ZM12 25L12 26L14 26L14 27L15 27L15 26L14 26L14 25ZM1 26L1 28L2 28L2 26ZM58 26L58 27L59 27L59 26ZM9 27L9 28L10 28L10 27ZM17 28L17 29L18 29L18 28ZM59 28L59 29L60 29L60 28ZM5 29L5 32L8 32L8 29ZM13 29L13 30L14 30L14 29ZM29 29L29 32L32 32L32 29ZM45 29L45 30L46 30L46 29ZM50 29L50 31L51 31L51 33L52 33L52 30L51 30L51 29ZM53 29L53 32L56 32L56 29ZM57 29L57 31L58 31L58 33L57 33L57 35L60 35L60 34L58 34L58 33L59 33L59 32L60 32L60 30L59 30L59 31L58 31L58 29ZM6 30L6 31L7 31L7 30ZM30 30L30 31L31 31L31 30ZM54 30L54 31L55 31L55 30ZM48 32L48 33L49 33L49 32ZM2 33L2 35L3 35L3 37L4 37L4 38L7 38L7 37L4 37L4 36L7 36L7 35L4 35L4 34L7 34L7 33L4 33L4 34L3 34L3 33ZM42 34L42 35L43 35L43 37L44 37L44 36L45 36L45 35L46 35L46 36L47 36L47 35L46 35L46 34ZM25 35L25 36L26 36L26 37L27 37L27 36L26 36L26 35ZM53 36L53 38L52 38L52 39L53 39L53 38L54 38L54 36ZM0 37L0 38L1 38L1 37ZM17 37L17 38L18 38L18 37ZM41 37L41 38L42 38L42 37ZM9 38L9 39L10 39L10 38ZM56 38L56 39L57 39L57 38ZM19 39L19 41L20 41L20 39ZM15 40L15 41L14 41L14 43L15 43L15 44L14 44L14 45L13 45L13 46L11 46L11 47L9 47L9 46L10 46L10 45L12 45L12 44L10 44L10 45L9 45L9 42L7 42L7 43L5 43L5 44L7 44L7 43L8 43L8 45L6 45L6 46L8 46L8 47L9 47L9 51L10 51L10 49L11 49L11 50L13 50L13 49L14 49L14 48L15 48L15 50L14 50L14 51L11 51L11 53L12 53L12 54L14 54L14 55L12 55L12 56L11 56L11 57L10 57L10 56L9 56L9 57L10 57L10 58L11 58L11 59L10 59L10 60L13 60L13 57L14 57L14 56L15 56L15 58L14 58L14 60L16 60L16 57L17 57L17 58L18 58L18 57L17 57L17 56L16 56L16 54L14 54L14 52L15 52L15 53L16 53L16 50L17 50L17 53L18 53L18 52L19 52L19 51L21 51L21 50L20 50L20 49L22 49L22 48L20 48L20 47L18 47L18 48L17 48L17 46L19 46L19 45L18 45L18 44L17 44L17 43L18 43L18 41L17 41L17 40ZM15 41L15 43L16 43L16 42L17 42L17 41ZM56 42L56 43L57 43L57 42ZM31 43L31 44L32 44L32 43ZM41 43L41 44L42 44L42 43ZM15 44L15 45L16 45L16 46L15 46L15 48L16 48L16 49L17 49L17 48L16 48L16 46L17 46L17 45L16 45L16 44ZM45 44L45 45L46 45L46 44ZM4 45L4 46L5 46L5 45ZM24 45L24 46L25 46L25 45ZM33 45L33 46L34 46L34 45ZM13 46L13 47L12 47L12 48L13 48L13 47L14 47L14 46ZM28 46L28 47L29 47L29 46ZM3 47L3 48L4 48L4 47ZM5 47L5 48L7 48L7 47ZM18 48L18 49L20 49L20 48ZM0 49L0 50L1 50L1 49ZM3 49L3 50L4 50L4 49ZM18 50L18 51L19 51L19 50ZM40 50L40 52L41 52L41 50ZM60 50L60 52L61 52L61 50ZM3 51L3 52L4 52L4 51ZM57 51L57 52L58 52L58 51ZM6 52L6 53L7 53L7 52ZM12 52L12 53L13 53L13 52ZM48 52L48 53L50 53L50 52ZM29 53L29 56L32 56L32 53ZM53 53L53 56L56 56L56 53ZM30 54L30 55L31 55L31 54ZM34 54L34 55L33 55L33 56L34 56L34 57L33 57L33 58L34 58L34 57L35 57L35 58L36 58L36 57L35 57L35 56L34 56L34 55L35 55L35 54ZM54 54L54 55L55 55L55 54ZM57 54L57 55L58 55L58 56L57 56L57 57L56 57L56 58L57 58L57 57L58 57L58 59L59 59L59 58L60 58L60 57L59 57L59 56L60 56L60 54L59 54L59 55L58 55L58 54ZM12 56L12 57L11 57L11 58L12 58L12 57L13 57L13 56ZM19 57L19 58L20 58L20 57ZM54 58L54 59L53 59L53 60L54 60L54 59L55 59L55 58ZM18 59L18 60L19 60L19 59ZM33 59L33 60L34 60L34 59ZM56 59L56 60L57 60L57 59ZM0 0L0 7L7 7L7 0ZM1 1L1 6L6 6L6 1ZM2 2L2 5L5 5L5 2ZM54 0L54 7L61 7L61 0ZM55 1L55 6L60 6L60 1ZM56 2L56 5L59 5L59 2ZM0 54L0 61L7 61L7 54ZM1 55L1 60L6 60L6 55ZM2 56L2 59L5 59L5 56Z" fill="#000000"/></g></g></svg>
