<?xml version="1.0" encoding="UTF-8"?>
<svg xmlns="http://www.w3.org/2000/svg" version="1.1" width="300" height="300" viewBox="0 0 300 300"><rect x="0" y="0" width="300" height="300" fill="#ffffff"/><g transform="scale(4.918)"><g transform="translate(0,0)"><path fill-rule="evenodd" d="M10 0L10 1L11 1L11 0ZM15 0L15 1L14 1L14 2L13 2L13 3L12 3L12 7L11 7L11 6L10 6L10 8L6 8L6 9L5 9L5 8L0 8L0 10L1 10L1 9L2 9L2 10L3 10L3 11L2 11L2 12L0 12L0 14L2 14L2 15L0 15L0 16L1 16L1 17L0 17L0 19L1 19L1 17L4 17L4 18L6 18L6 19L8 19L8 21L7 21L7 20L3 20L3 19L2 19L2 22L3 22L3 21L4 21L4 22L5 22L5 23L3 23L3 24L2 24L2 25L3 25L3 26L1 26L1 23L0 23L0 26L1 26L1 28L0 28L0 31L3 31L3 30L4 30L4 34L3 34L3 32L1 32L1 33L0 33L0 35L1 35L1 36L0 36L0 39L2 39L2 40L3 40L3 41L2 41L2 42L3 42L3 41L5 41L5 39L7 39L7 40L6 40L6 41L7 41L7 40L9 40L9 41L8 41L8 42L6 42L6 43L8 43L8 44L10 44L10 43L8 43L8 42L12 42L12 41L14 41L14 42L13 42L13 43L11 43L11 44L12 44L12 45L11 45L11 47L10 47L10 45L7 45L7 44L4 44L4 45L3 45L3 43L2 43L2 45L1 45L1 44L0 44L0 49L1 49L1 50L2 50L2 51L0 51L0 53L4 53L4 52L5 52L5 51L8 51L8 55L10 55L10 53L9 53L9 50L10 50L10 52L11 52L11 54L12 54L12 55L11 55L11 57L10 57L10 58L9 58L9 56L8 56L8 61L9 61L9 59L12 59L12 60L11 60L11 61L12 61L12 60L13 60L13 61L19 61L19 60L16 60L16 59L13 59L13 56L14 56L14 58L16 58L16 57L17 57L17 59L18 59L18 57L19 57L19 58L20 58L20 57L21 57L21 59L24 59L24 60L25 60L25 58L26 58L26 60L27 60L27 61L28 61L28 60L29 60L29 58L31 58L31 59L30 59L30 60L31 60L31 61L32 61L32 60L33 60L33 61L34 61L34 59L36 59L36 60L35 60L35 61L37 61L37 60L38 60L38 61L40 61L40 60L41 60L41 61L42 61L42 60L43 60L43 61L44 61L44 60L45 60L45 61L49 61L49 60L50 60L50 59L52 59L52 58L53 58L53 60L52 60L52 61L53 61L53 60L55 60L55 61L56 61L56 60L55 60L55 58L53 58L53 57L56 57L56 58L57 58L57 59L58 59L58 58L57 58L57 53L59 53L59 52L54 52L54 51L61 51L61 50L60 50L60 49L59 49L59 48L58 48L58 50L56 50L56 49L57 49L57 48L56 48L56 49L55 49L55 48L54 48L54 47L57 47L57 46L56 46L56 45L57 45L57 44L56 44L56 45L55 45L55 44L54 44L54 43L55 43L55 42L56 42L56 43L57 43L57 42L56 42L56 41L60 41L60 42L59 42L59 44L58 44L58 45L59 45L59 44L60 44L60 45L61 45L61 38L60 38L60 39L59 39L59 38L58 38L58 37L61 37L61 34L60 34L60 33L59 33L59 32L61 32L61 30L59 30L59 28L57 28L57 27L60 27L60 29L61 29L61 26L60 26L60 25L61 25L61 24L60 24L60 25L59 25L59 24L58 24L58 25L57 25L57 27L56 27L56 24L57 24L57 23L59 23L59 22L60 22L60 23L61 23L61 22L60 22L60 21L61 21L61 20L60 20L60 21L59 21L59 20L57 20L57 17L61 17L61 16L60 16L60 15L61 15L61 14L60 14L60 13L59 13L59 12L60 12L60 11L61 11L61 10L60 10L60 11L59 11L59 9L60 9L60 8L59 8L59 9L58 9L58 8L57 8L57 9L56 9L56 8L55 8L55 9L54 9L54 8L52 8L52 9L51 9L51 5L52 5L52 4L53 4L53 0L51 0L51 2L50 2L50 3L48 3L48 4L47 4L47 3L46 3L46 2L48 2L48 1L49 1L49 0L48 0L48 1L46 1L46 0L44 0L44 1L45 1L45 2L44 2L44 3L45 3L45 4L44 4L44 7L43 7L43 6L42 6L42 7L43 7L43 9L42 9L42 8L41 8L41 6L40 6L40 3L41 3L41 2L42 2L42 1L43 1L43 0L42 0L42 1L40 1L40 0L39 0L39 1L38 1L38 2L39 2L39 3L36 3L36 2L37 2L37 1L36 1L36 2L35 2L35 1L33 1L33 0L32 0L32 1L31 1L31 0L30 0L30 1L29 1L29 2L27 2L27 0L26 0L26 3L27 3L27 4L26 4L26 5L27 5L27 6L26 6L26 8L28 8L28 10L27 10L27 9L21 9L21 8L22 8L22 7L23 7L23 4L22 4L22 7L21 7L21 6L20 6L20 4L21 4L21 3L19 3L19 1L18 1L18 0L17 0L17 1L18 1L18 2L16 2L16 3L15 3L15 4L14 4L14 2L15 2L15 1L16 1L16 0ZM21 0L21 1L20 1L20 2L22 2L22 3L24 3L24 2L22 2L22 1L25 1L25 0ZM8 1L8 2L9 2L9 1ZM30 1L30 2L31 2L31 1ZM32 1L32 3L33 3L33 1ZM39 1L39 2L40 2L40 1ZM34 2L34 3L35 3L35 2ZM8 3L8 4L9 4L9 3ZM29 3L29 4L31 4L31 3ZM51 3L51 4L52 4L52 3ZM10 4L10 5L11 5L11 4ZM16 4L16 5L17 5L17 7L18 7L18 6L19 6L19 9L16 9L16 10L14 10L14 9L15 9L15 7L16 7L16 6L15 6L15 7L14 7L14 6L13 6L13 8L11 8L11 9L12 9L12 11L11 11L11 10L10 10L10 9L8 9L8 10L7 10L7 9L6 9L6 10L7 10L7 11L5 11L5 10L4 10L4 12L5 12L5 14L4 14L4 15L3 15L3 16L4 16L4 15L5 15L5 17L6 17L6 18L8 18L8 19L9 19L9 22L8 22L8 24L9 24L9 25L10 25L10 24L11 24L11 23L12 23L12 22L10 22L10 19L9 19L9 18L10 18L10 14L9 14L9 16L8 16L8 14L7 14L7 13L6 13L6 12L9 12L9 11L11 11L11 13L12 13L12 11L13 11L13 12L14 12L14 14L16 14L16 15L15 15L15 17L12 17L12 16L14 16L14 15L12 15L12 14L11 14L11 15L12 15L12 16L11 16L11 21L14 21L14 23L15 23L15 21L16 21L16 22L17 22L17 21L16 21L16 19L17 19L17 20L19 20L19 21L18 21L18 22L19 22L19 23L20 23L20 22L21 22L21 21L23 21L23 23L21 23L21 25L20 25L20 32L19 32L19 31L18 31L18 30L19 30L19 29L15 29L15 28L14 28L14 27L15 27L15 26L17 26L17 27L16 27L16 28L17 28L17 27L19 27L19 25L16 25L16 24L18 24L18 23L16 23L16 24L15 24L15 25L14 25L14 24L13 24L13 25L12 25L12 26L13 26L13 25L14 25L14 27L13 27L13 28L14 28L14 29L15 29L15 31L16 31L16 32L15 32L15 34L14 34L14 30L13 30L13 29L12 29L12 27L11 27L11 26L8 26L8 27L6 27L6 26L7 26L7 25L6 25L6 24L7 24L7 23L5 23L5 24L4 24L4 25L6 25L6 26L3 26L3 27L2 27L2 28L1 28L1 29L2 29L2 28L8 28L8 27L10 27L10 28L11 28L11 29L9 29L9 31L10 31L10 32L9 32L9 33L8 33L8 35L6 35L6 36L7 36L7 37L6 37L6 38L7 38L7 39L9 39L9 38L8 38L8 37L9 37L9 36L8 36L8 35L9 35L9 33L11 33L11 34L10 34L10 36L11 36L11 37L12 37L12 36L11 36L11 34L12 34L12 33L11 33L11 32L12 32L12 31L13 31L13 35L15 35L15 34L17 34L17 35L16 35L16 36L19 36L19 37L16 37L16 38L15 38L15 36L13 36L13 37L14 37L14 38L12 38L12 39L13 39L13 40L17 40L17 38L19 38L19 41L16 41L16 44L17 44L17 42L18 42L18 44L21 44L21 45L20 45L20 48L19 48L19 47L17 47L17 49L16 49L16 51L15 51L15 49L14 49L14 48L13 48L13 47L11 47L11 48L10 48L10 47L8 47L8 46L7 46L7 45L5 45L5 47L4 47L4 46L3 46L3 45L2 45L2 46L1 46L1 49L2 49L2 50L5 50L5 49L4 49L4 48L9 48L9 49L12 49L12 51L11 51L11 52L13 52L13 53L12 53L12 54L17 54L17 53L14 53L14 52L17 52L17 51L21 51L21 49L20 49L20 48L21 48L21 45L24 45L24 41L25 41L25 45L27 45L27 46L28 46L28 44L26 44L26 43L27 43L27 42L28 42L28 43L29 43L29 45L30 45L30 46L29 46L29 47L28 47L28 48L26 48L26 46L22 46L22 47L23 47L23 48L22 48L22 49L23 49L23 48L24 48L24 49L27 49L27 50L25 50L25 51L26 51L26 53L25 53L25 52L22 52L22 53L25 53L25 54L24 54L24 55L23 55L23 54L21 54L21 53L20 53L20 52L19 52L19 53L18 53L18 55L14 55L14 56L15 56L15 57L16 57L16 56L19 56L19 55L21 55L21 57L23 57L23 58L24 58L24 57L25 57L25 54L26 54L26 57L27 57L27 56L28 56L28 53L27 53L27 52L30 52L30 51L31 51L31 50L32 50L32 52L34 52L34 53L33 53L33 54L35 54L35 56L34 56L34 55L33 55L33 57L32 57L32 59L31 59L31 60L32 60L32 59L33 59L33 58L35 58L35 56L37 56L37 55L36 55L36 54L35 54L35 53L36 53L36 52L37 52L37 54L39 54L39 53L38 53L38 52L40 52L40 55L43 55L43 54L44 54L44 53L45 53L45 54L46 54L46 55L45 55L45 56L44 56L44 59L43 59L43 58L42 58L42 56L39 56L39 57L38 57L38 58L41 58L41 60L42 60L42 59L43 59L43 60L44 60L44 59L45 59L45 58L48 58L48 57L47 57L47 56L49 56L49 59L46 59L46 60L49 60L49 59L50 59L50 58L51 58L51 56L52 56L52 55L50 55L50 54L51 54L51 52L52 52L52 51L53 51L53 46L52 46L52 47L50 47L50 46L51 46L51 44L52 44L52 45L54 45L54 44L53 44L53 42L55 42L55 41L56 41L56 40L59 40L59 39L56 39L56 38L57 38L57 37L54 37L54 36L56 36L56 35L57 35L57 36L60 36L60 35L59 35L59 34L57 34L57 33L56 33L56 34L55 34L55 33L54 33L54 34L55 34L55 35L53 35L53 33L52 33L52 35L50 35L50 34L51 34L51 32L49 32L49 31L50 31L50 30L51 30L51 31L52 31L52 28L53 28L53 27L55 27L55 28L56 28L56 27L55 27L55 26L53 26L53 25L55 25L55 24L53 24L53 23L57 23L57 20L56 20L56 17L57 17L57 16L59 16L59 13L58 13L58 14L57 14L57 16L56 16L56 17L55 17L55 14L53 14L53 13L55 13L55 11L57 11L57 10L56 10L56 9L55 9L55 10L54 10L54 12L53 12L53 13L51 13L51 9L50 9L50 8L49 8L49 7L50 7L50 5L49 5L49 4L48 4L48 5L47 5L47 4L46 4L46 5L47 5L47 8L44 8L44 9L43 9L43 10L42 10L42 9L41 9L41 8L39 8L39 9L38 9L38 8L37 8L37 7L38 7L38 6L37 6L37 7L36 7L36 5L39 5L39 4L33 4L33 5L35 5L35 7L34 7L34 6L33 6L33 7L34 7L34 8L35 8L35 9L34 9L34 10L32 10L32 9L31 9L31 10L32 10L32 11L31 11L31 12L30 12L30 14L29 14L29 11L28 11L28 12L26 12L26 13L25 13L25 12L24 12L24 11L25 11L25 10L23 10L23 11L22 11L22 10L21 10L21 9L20 9L20 8L21 8L21 7L20 7L20 6L19 6L19 4L18 4L18 5L17 5L17 4ZM24 4L24 5L25 5L25 4ZM27 4L27 5L28 5L28 4ZM42 4L42 5L43 5L43 4ZM8 5L8 7L9 7L9 5ZM29 5L29 8L32 8L32 5ZM24 6L24 8L25 8L25 6ZM27 6L27 7L28 7L28 6ZM30 6L30 7L31 7L31 6ZM39 6L39 7L40 7L40 6ZM45 6L45 7L46 7L46 6ZM48 6L48 7L49 7L49 6ZM52 6L52 7L53 7L53 6ZM36 8L36 9L35 9L35 10L34 10L34 12L35 12L35 11L36 11L36 10L38 10L38 11L40 11L40 12L39 12L39 16L38 16L38 17L37 17L37 16L36 16L36 18L33 18L33 17L34 17L34 16L35 16L35 15L36 15L36 14L38 14L38 13L37 13L37 12L36 12L36 14L34 14L34 13L33 13L33 11L32 11L32 12L31 12L31 13L32 13L32 14L31 14L31 15L29 15L29 14L28 14L28 15L27 15L27 17L26 17L26 18L27 18L27 19L26 19L26 20L25 20L25 17L21 17L21 14L23 14L23 15L22 15L22 16L23 16L23 15L26 15L26 14L27 14L27 13L26 13L26 14L25 14L25 13L24 13L24 12L23 12L23 13L22 13L22 11L21 11L21 10L20 10L20 9L19 9L19 10L17 10L17 11L16 11L16 12L15 12L15 11L14 11L14 12L15 12L15 13L19 13L19 16L18 16L18 17L19 17L19 16L20 16L20 17L21 17L21 19L22 19L22 20L23 20L23 19L24 19L24 20L25 20L25 21L24 21L24 22L25 22L25 21L26 21L26 20L27 20L27 22L26 22L26 24L27 24L27 25L26 25L26 26L25 26L25 25L24 25L24 27L22 27L22 26L23 26L23 25L21 25L21 28L24 28L24 27L25 27L25 28L26 28L26 27L29 27L29 28L27 28L27 29L26 29L26 30L28 30L28 31L26 31L26 32L27 32L27 33L22 33L22 34L25 34L25 35L24 35L24 36L23 36L23 37L22 37L22 36L21 36L21 35L19 35L19 34L20 34L20 33L21 33L21 32L20 32L20 33L19 33L19 32L16 32L16 33L19 33L19 34L18 34L18 35L19 35L19 36L20 36L20 37L19 37L19 38L20 38L20 39L21 39L21 40L20 40L20 41L19 41L19 42L20 42L20 43L21 43L21 44L22 44L22 43L23 43L23 41L21 41L21 40L23 40L23 39L24 39L24 40L25 40L25 41L26 41L26 42L27 42L27 41L26 41L26 40L27 40L27 39L29 39L29 40L30 40L30 41L31 41L31 42L30 42L30 43L31 43L31 44L30 44L30 45L31 45L31 44L32 44L32 45L35 45L35 46L34 46L34 47L35 47L35 46L36 46L36 47L37 47L37 46L38 46L38 45L39 45L39 47L40 47L40 48L38 48L38 49L37 49L37 48L36 48L36 49L37 49L37 50L36 50L36 51L35 51L35 50L34 50L34 51L35 51L35 52L36 52L36 51L37 51L37 50L38 50L38 51L40 51L40 52L41 52L41 51L40 51L40 50L44 50L44 51L45 51L45 52L46 52L46 53L47 53L47 52L46 52L46 51L47 51L47 50L44 50L44 48L46 48L46 49L47 49L47 48L48 48L48 49L49 49L49 50L48 50L48 51L49 51L49 50L50 50L50 52L48 52L48 53L49 53L49 54L47 54L47 55L49 55L49 56L50 56L50 55L49 55L49 54L50 54L50 52L51 52L51 51L52 51L52 50L50 50L50 49L52 49L52 48L50 48L50 49L49 49L49 48L48 48L48 47L49 47L49 46L50 46L50 44L51 44L51 42L53 42L53 41L52 41L52 40L51 40L51 38L52 38L52 37L53 37L53 35L52 35L52 36L50 36L50 37L49 37L49 36L48 36L48 35L47 35L47 34L46 34L46 35L45 35L45 33L44 33L44 32L45 32L45 31L47 31L47 32L48 32L48 33L49 33L49 32L48 32L48 30L45 30L45 29L46 29L46 28L45 28L45 27L47 27L47 29L49 29L49 30L50 30L50 29L51 29L51 28L52 28L52 27L53 27L53 26L52 26L52 25L53 25L53 24L52 24L52 23L53 23L53 22L50 22L50 20L48 20L48 19L47 19L47 18L46 18L46 20L45 20L45 17L47 17L47 16L46 16L46 15L51 15L51 17L54 17L54 18L55 18L55 17L54 17L54 16L52 16L52 15L53 15L53 14L50 14L50 9L49 9L49 8L47 8L47 9L48 9L48 10L45 10L45 9L44 9L44 11L42 11L42 12L45 12L45 13L44 13L44 14L45 14L45 13L47 13L47 12L46 12L46 11L49 11L49 12L48 12L48 14L46 14L46 15L44 15L44 16L45 16L45 17L44 17L44 18L43 18L43 17L42 17L42 18L43 18L43 19L42 19L42 20L45 20L45 21L44 21L44 22L45 22L45 23L42 23L42 22L43 22L43 21L42 21L42 22L41 22L41 23L40 23L40 20L41 20L41 19L40 19L40 18L41 18L41 17L40 17L40 16L41 16L41 15L42 15L42 14L43 14L43 13L42 13L42 14L41 14L41 13L40 13L40 12L41 12L41 10L38 10L38 9L37 9L37 8ZM52 9L52 10L53 10L53 9ZM8 10L8 11L9 11L9 10ZM17 11L17 12L18 12L18 11ZM19 11L19 13L20 13L20 14L21 14L21 13L20 13L20 12L21 12L21 11ZM58 11L58 12L59 12L59 11ZM2 12L2 13L3 13L3 12ZM56 12L56 13L57 13L57 12ZM6 14L6 15L7 15L7 14ZM32 14L32 15L31 15L31 16L29 16L29 15L28 15L28 16L29 16L29 17L28 17L28 18L29 18L29 19L27 19L27 20L29 20L29 21L28 21L28 22L29 22L29 21L31 21L31 22L32 22L32 23L33 23L33 22L35 22L35 24L39 24L39 25L38 25L38 26L37 26L37 25L36 25L36 27L35 27L35 28L34 28L34 27L33 27L33 26L32 26L32 25L31 25L31 24L30 24L30 23L27 23L27 24L29 24L29 25L28 25L28 26L29 26L29 27L30 27L30 25L31 25L31 26L32 26L32 27L33 27L33 28L34 28L34 30L35 30L35 32L33 32L33 34L35 34L35 35L34 35L34 36L33 36L33 35L32 35L32 34L31 34L31 33L27 33L27 34L26 34L26 35L25 35L25 36L24 36L24 37L25 37L25 40L26 40L26 39L27 39L27 38L31 38L31 39L32 39L32 40L31 40L31 41L33 41L33 42L34 42L34 44L35 44L35 45L36 45L36 44L40 44L40 45L41 45L41 46L40 46L40 47L41 47L41 48L40 48L40 49L43 49L43 48L44 48L44 46L45 46L45 47L46 47L46 48L47 48L47 47L46 47L46 46L47 46L47 44L50 44L50 42L51 42L51 40L50 40L50 38L51 38L51 37L50 37L50 38L49 38L49 37L48 37L48 36L47 36L47 35L46 35L46 36L47 36L47 37L45 37L45 36L44 36L44 35L43 35L43 37L44 37L44 38L42 38L42 37L41 37L41 36L42 36L42 35L41 35L41 36L40 36L40 35L36 35L36 34L37 34L37 33L38 33L38 34L39 34L39 32L40 32L40 33L43 33L43 32L44 32L44 31L45 31L45 30L44 30L44 29L45 29L45 28L44 28L44 27L45 27L45 26L47 26L47 27L48 27L48 28L51 28L51 27L50 27L50 26L51 26L51 25L52 25L52 24L51 24L51 25L50 25L50 26L49 26L49 25L48 25L48 26L47 26L47 25L45 25L45 24L46 24L46 23L45 23L45 24L42 24L42 23L41 23L41 24L39 24L39 23L36 23L36 22L39 22L39 20L40 20L40 19L38 19L38 20L37 20L37 18L36 18L36 19L35 19L35 21L33 21L33 20L34 20L34 19L33 19L33 18L32 18L32 17L33 17L33 16L34 16L34 15L33 15L33 14ZM40 14L40 15L41 15L41 14ZM16 15L16 17L17 17L17 15ZM6 16L6 17L7 17L7 16ZM31 16L31 17L30 17L30 18L31 18L31 19L29 19L29 20L32 20L32 18L31 18L31 17L32 17L32 16ZM48 16L48 18L49 18L49 17L50 17L50 16ZM8 17L8 18L9 18L9 17ZM38 17L38 18L40 18L40 17ZM12 18L12 19L13 19L13 18ZM18 18L18 19L19 19L19 20L20 20L20 21L19 21L19 22L20 22L20 21L21 21L21 20L20 20L20 18ZM22 18L22 19L23 19L23 18ZM50 18L50 19L51 19L51 18ZM52 18L52 21L53 21L53 18ZM59 18L59 19L61 19L61 18ZM14 19L14 21L15 21L15 19ZM54 19L54 20L55 20L55 21L54 21L54 22L56 22L56 20L55 20L55 19ZM36 20L36 21L35 21L35 22L36 22L36 21L37 21L37 20ZM46 20L46 22L47 22L47 23L48 23L48 24L49 24L49 21L47 21L47 20ZM5 21L5 22L7 22L7 21ZM32 21L32 22L33 22L33 21ZM58 21L58 22L59 22L59 21ZM9 22L9 24L10 24L10 22ZM24 23L24 24L25 24L25 23ZM34 25L34 26L35 26L35 25ZM41 25L41 26L43 26L43 25ZM44 25L44 26L45 26L45 25ZM58 25L58 26L59 26L59 25ZM38 26L38 27L37 27L37 28L36 28L36 29L37 29L37 30L36 30L36 31L37 31L37 30L38 30L38 29L40 29L40 28L41 28L41 29L42 29L42 30L41 30L41 31L40 31L40 30L39 30L39 31L40 31L40 32L41 32L41 31L42 31L42 32L43 32L43 31L44 31L44 30L43 30L43 27L42 27L42 28L41 28L41 27L40 27L40 28L38 28L38 27L39 27L39 26ZM48 26L48 27L49 27L49 26ZM37 28L37 29L38 29L38 28ZM5 29L5 32L8 32L8 29ZM11 29L11 30L10 30L10 31L12 31L12 29ZM21 29L21 30L23 30L23 31L24 31L24 32L25 32L25 31L24 31L24 30L25 30L25 29ZM29 29L29 32L32 32L32 29ZM53 29L53 32L56 32L56 29ZM6 30L6 31L7 31L7 30ZM30 30L30 31L31 31L31 30ZM42 30L42 31L43 31L43 30ZM54 30L54 31L55 31L55 30ZM57 31L57 32L59 32L59 31ZM36 32L36 33L37 33L37 32ZM1 33L1 35L2 35L2 33ZM6 33L6 34L7 34L7 33ZM4 34L4 35L3 35L3 36L1 36L1 37L2 37L2 39L4 39L4 38L3 38L3 37L4 37L4 36L5 36L5 34ZM27 34L27 37L26 37L26 36L25 36L25 37L26 37L26 38L27 38L27 37L28 37L28 36L29 36L29 37L31 37L31 38L32 38L32 39L33 39L33 41L37 41L37 42L38 42L38 43L39 43L39 42L38 42L38 41L37 41L37 40L34 40L34 39L35 39L35 38L34 38L34 39L33 39L33 36L32 36L32 35L31 35L31 34L30 34L30 35L28 35L28 34ZM35 35L35 36L36 36L36 37L40 37L40 36L36 36L36 35ZM20 37L20 38L21 38L21 37ZM14 38L14 39L15 39L15 38ZM22 38L22 39L23 39L23 38ZM36 38L36 39L38 39L38 40L39 40L39 39L40 39L40 40L41 40L41 41L40 41L40 42L43 42L43 40L41 40L41 39L42 39L42 38ZM44 38L44 40L46 40L46 38ZM48 38L48 39L47 39L47 42L46 42L46 43L44 43L44 44L43 44L43 43L42 43L42 44L43 44L43 45L42 45L42 46L41 46L41 47L42 47L42 46L44 46L44 44L46 44L46 43L49 43L49 42L50 42L50 40L48 40L48 39L49 39L49 38ZM53 38L53 39L55 39L55 38ZM10 39L10 41L11 41L11 39ZM0 40L0 42L1 42L1 40ZM54 40L54 41L55 41L55 40ZM20 41L20 42L21 42L21 43L22 43L22 42L21 42L21 41ZM44 41L44 42L45 42L45 41ZM4 42L4 43L5 43L5 42ZM31 42L31 43L32 43L32 44L33 44L33 43L32 43L32 42ZM35 42L35 43L36 43L36 42ZM40 43L40 44L41 44L41 43ZM13 44L13 45L12 45L12 46L14 46L14 47L15 47L15 48L16 48L16 47L15 47L15 46L19 46L19 45L14 45L14 44ZM2 46L2 47L3 47L3 46ZM6 46L6 47L7 47L7 46ZM30 46L30 47L29 47L29 48L28 48L28 50L27 50L27 51L28 51L28 50L29 50L29 51L30 51L30 49L32 49L32 50L33 50L33 49L32 49L32 47L33 47L33 46L32 46L32 47L31 47L31 46ZM59 46L59 47L61 47L61 46ZM24 47L24 48L25 48L25 47ZM2 48L2 49L3 49L3 48ZM18 48L18 49L17 49L17 50L18 50L18 49L19 49L19 50L20 50L20 49L19 49L19 48ZM6 49L6 50L7 50L7 49ZM13 49L13 50L14 50L14 49ZM38 49L38 50L39 50L39 49ZM22 50L22 51L24 51L24 50ZM3 51L3 52L4 52L4 51ZM13 51L13 52L14 52L14 51ZM42 51L42 54L43 54L43 53L44 53L44 52L43 52L43 51ZM6 52L6 53L7 53L7 52ZM60 52L60 53L61 53L61 52ZM26 53L26 54L27 54L27 53ZM29 53L29 56L32 56L32 53ZM53 53L53 56L56 56L56 53ZM30 54L30 55L31 55L31 54ZM54 54L54 55L55 55L55 54ZM59 54L59 55L60 55L60 56L58 56L58 57L60 57L60 60L58 60L58 61L61 61L61 54ZM12 55L12 56L13 56L13 55ZM23 56L23 57L24 57L24 56ZM45 56L45 57L46 57L46 56ZM38 59L38 60L40 60L40 59ZM20 60L20 61L21 61L21 60ZM0 0L0 7L7 7L7 0ZM1 1L1 6L6 6L6 1ZM2 2L2 5L5 5L5 2ZM54 0L54 7L61 7L61 0ZM55 1L55 6L60 6L60 1ZM56 2L56 5L59 5L59 2ZM0 54L0 61L7 61L7 54ZM1 55L1 60L6 60L6 55ZM2 56L2 59L5 59L5 56Z" fill="#000000"/></g></g></svg>
