<?xml version="1.0" encoding="UTF-8"?>
<svg xmlns="http://www.w3.org/2000/svg" version="1.1" width="300" height="300" viewBox="0 0 300 300"><rect x="0" y="0" width="300" height="300" fill="#ffffff"/><g transform="scale(4.918)"><g transform="translate(0,0)"><path fill-rule="evenodd" d="M9 0L9 1L8 1L8 2L10 2L10 3L8 3L8 4L9 4L9 5L8 5L8 7L9 7L9 8L6 8L6 9L5 9L5 8L0 8L0 11L2 11L2 12L0 12L0 13L1 13L1 14L0 14L0 15L1 15L1 17L0 17L0 20L1 20L1 21L0 21L0 22L1 22L1 21L3 21L3 22L4 22L4 23L2 23L2 24L3 24L3 25L4 25L4 26L6 26L6 27L5 27L5 28L4 28L4 29L3 29L3 30L4 30L4 31L3 31L3 32L2 32L2 31L1 31L1 26L2 26L2 25L1 25L1 26L0 26L0 31L1 31L1 32L2 32L2 33L1 33L1 34L0 34L0 38L1 38L1 41L0 41L0 43L2 43L2 45L1 45L1 44L0 44L0 45L1 45L1 47L0 47L0 50L2 50L2 51L0 51L0 53L4 53L4 52L5 52L5 51L9 51L9 53L8 53L8 52L6 52L6 53L8 53L8 55L9 55L9 56L8 56L8 61L9 61L9 60L10 60L10 61L11 61L11 60L12 60L12 61L17 61L17 60L16 60L16 59L18 59L18 61L19 61L19 60L20 60L20 61L21 61L21 59L24 59L24 60L26 60L26 59L27 59L27 60L29 60L29 57L30 57L30 58L32 58L32 57L33 57L33 58L34 58L34 59L32 59L32 60L31 60L31 59L30 59L30 60L31 60L31 61L32 61L32 60L33 60L33 61L34 61L34 59L35 59L35 58L34 58L34 57L37 57L37 58L36 58L36 59L37 59L37 60L35 60L35 61L37 61L37 60L38 60L38 61L40 61L40 60L41 60L41 61L43 61L43 60L45 60L45 61L49 61L49 60L51 60L51 61L52 61L52 60L55 60L55 61L56 61L56 60L55 60L55 58L53 58L53 57L56 57L56 58L59 58L59 56L61 56L61 54L59 54L59 56L58 56L58 57L57 57L57 51L61 51L61 50L60 50L60 49L61 49L61 46L59 46L59 47L60 47L60 48L58 48L58 49L57 49L57 48L56 48L56 49L57 49L57 51L56 51L56 50L53 50L53 51L52 51L52 50L50 50L50 49L53 49L53 48L54 48L54 49L55 49L55 48L54 48L54 47L57 47L57 46L56 46L56 45L59 45L59 44L60 44L60 45L61 45L61 42L60 42L60 39L61 39L61 38L58 38L58 37L61 37L61 34L60 34L60 33L61 33L61 30L59 30L59 29L61 29L61 26L60 26L60 24L58 24L58 25L57 25L57 26L58 26L58 25L59 25L59 27L60 27L60 28L57 28L57 27L56 27L56 24L57 24L57 23L61 23L61 22L58 22L58 21L59 21L59 20L58 20L58 21L57 21L57 23L56 23L56 21L55 21L55 19L53 19L53 18L52 18L52 20L51 20L51 18L50 18L50 21L49 21L49 20L47 20L47 18L48 18L48 19L49 19L49 17L54 17L54 18L55 18L55 17L56 17L56 20L57 20L57 18L58 18L58 17L59 17L59 16L60 16L60 15L61 15L61 14L59 14L59 16L57 16L57 15L55 15L55 17L54 17L54 16L53 16L53 15L54 15L54 14L55 14L55 13L56 13L56 14L58 14L58 13L59 13L59 12L60 12L60 11L61 11L61 10L60 10L60 11L59 11L59 9L60 9L60 8L59 8L59 9L58 9L58 8L57 8L57 9L56 9L56 8L55 8L55 9L54 9L54 8L52 8L52 7L53 7L53 6L52 6L52 7L51 7L51 5L52 5L52 4L53 4L53 0L51 0L51 2L50 2L50 4L49 4L49 3L46 3L46 2L47 2L47 1L46 1L46 0L44 0L44 1L46 1L46 2L44 2L44 3L45 3L45 4L44 4L44 8L47 8L47 9L48 9L48 10L45 10L45 9L44 9L44 10L45 10L45 11L42 11L42 10L43 10L43 9L42 9L42 10L41 10L41 9L40 9L40 8L41 8L41 6L42 6L42 8L43 8L43 6L42 6L42 5L43 5L43 2L42 2L42 1L43 1L43 0L42 0L42 1L41 1L41 0L39 0L39 1L37 1L37 2L38 2L38 3L39 3L39 4L40 4L40 3L41 3L41 4L42 4L42 5L41 5L41 6L40 6L40 5L36 5L36 7L37 7L37 6L38 6L38 7L39 7L39 8L38 8L38 9L39 9L39 10L38 10L38 11L40 11L40 12L38 12L38 13L40 13L40 14L38 14L38 15L40 15L40 16L38 16L38 17L39 17L39 18L37 18L37 15L35 15L35 14L37 14L37 12L35 12L35 11L37 11L37 8L35 8L35 5L33 5L33 4L29 4L29 3L33 3L33 2L34 2L34 4L37 4L37 3L36 3L36 0L35 0L35 1L33 1L33 0L32 0L32 1L31 1L31 0L30 0L30 1L29 1L29 2L27 2L27 4L26 4L26 1L27 1L27 0L26 0L26 1L25 1L25 0L24 0L24 1L23 1L23 0L21 0L21 1L20 1L20 2L21 2L21 3L20 3L20 4L19 4L19 1L18 1L18 0L17 0L17 1L18 1L18 2L17 2L17 3L16 3L16 2L15 2L15 4L14 4L14 3L12 3L12 5L11 5L11 6L10 6L10 3L11 3L11 2L10 2L10 1L11 1L11 0ZM13 0L13 1L12 1L12 2L14 2L14 0ZM15 0L15 1L16 1L16 0ZM48 0L48 2L49 2L49 1L50 1L50 0ZM21 1L21 2L22 2L22 1ZM24 1L24 2L23 2L23 3L21 3L21 4L20 4L20 6L19 6L19 4L18 4L18 6L17 6L17 8L18 8L18 9L16 9L16 10L14 10L14 9L15 9L15 7L16 7L16 6L15 6L15 7L14 7L14 6L13 6L13 11L12 11L12 9L11 9L11 7L12 7L12 6L11 6L11 7L10 7L10 6L9 6L9 7L10 7L10 8L9 8L9 9L6 9L6 10L5 10L5 11L3 11L3 9L1 9L1 10L2 10L2 11L3 11L3 12L2 12L2 13L3 13L3 14L1 14L1 15L2 15L2 16L3 16L3 15L5 15L5 16L4 16L4 17L3 17L3 18L2 18L2 20L3 20L3 21L4 21L4 22L5 22L5 24L4 24L4 25L6 25L6 26L7 26L7 27L6 27L6 28L8 28L8 26L10 26L10 27L9 27L9 28L10 28L10 27L11 27L11 28L14 28L14 30L13 30L13 31L12 31L12 30L11 30L11 31L10 31L10 30L9 30L9 31L10 31L10 32L11 32L11 31L12 31L12 33L8 33L8 35L6 35L6 34L7 34L7 33L5 33L5 34L3 34L3 33L2 33L2 34L1 34L1 35L6 35L6 36L5 36L5 37L6 37L6 38L7 38L7 37L6 37L6 36L8 36L8 35L10 35L10 36L9 36L9 37L10 37L10 39L9 39L9 38L8 38L8 39L9 39L9 41L11 41L11 42L10 42L10 43L9 43L9 44L8 44L8 43L6 43L6 42L8 42L8 41L6 41L6 40L7 40L7 39L5 39L5 38L4 38L4 37L3 37L3 36L2 36L2 37L1 37L1 38L4 38L4 39L3 39L3 41L2 41L2 42L3 42L3 43L4 43L4 44L3 44L3 46L2 46L2 47L1 47L1 49L2 49L2 50L3 50L3 46L4 46L4 50L7 50L7 49L10 49L10 48L11 48L11 50L9 50L9 51L12 51L12 53L11 53L11 52L10 52L10 53L9 53L9 54L10 54L10 55L11 55L11 56L12 56L12 55L13 55L13 57L10 57L10 56L9 56L9 58L11 58L11 59L13 59L13 60L14 60L14 58L17 58L17 57L18 57L18 56L17 56L17 55L18 55L18 54L19 54L19 57L23 57L23 58L24 58L24 57L25 57L25 59L26 59L26 57L27 57L27 56L28 56L28 52L31 52L31 49L33 49L33 50L35 50L35 51L34 51L34 52L33 52L33 51L32 51L32 52L33 52L33 54L35 54L35 55L34 55L34 56L35 56L35 55L36 55L36 56L37 56L37 57L38 57L38 58L37 58L37 59L38 59L38 58L40 58L40 59L39 59L39 60L40 60L40 59L41 59L41 60L43 60L43 58L41 58L41 57L43 57L43 56L42 56L42 54L39 54L39 53L42 53L42 51L43 51L43 52L44 52L44 53L43 53L43 54L44 54L44 53L45 53L45 54L46 54L46 55L45 55L45 56L44 56L44 59L45 59L45 58L48 58L48 57L47 57L47 56L49 56L49 59L46 59L46 60L49 60L49 59L50 59L50 58L51 58L51 59L53 59L53 58L51 58L51 56L52 56L52 55L50 55L50 56L49 56L49 55L47 55L47 54L48 54L48 53L46 53L46 52L49 52L49 53L50 53L50 54L51 54L51 53L50 53L50 52L52 52L52 51L50 51L50 50L49 50L49 49L50 49L50 48L52 48L52 47L53 47L53 46L52 46L52 47L50 47L50 46L51 46L51 44L52 44L52 45L54 45L54 44L55 44L55 45L56 45L56 44L59 44L59 43L60 43L60 42L58 42L58 41L56 41L56 40L59 40L59 39L56 39L56 38L57 38L57 37L54 37L54 36L55 36L55 35L57 35L57 33L53 33L53 34L52 34L52 35L51 35L51 36L52 36L52 35L53 35L53 37L52 37L52 38L51 38L51 37L49 37L49 39L48 39L48 38L47 38L47 37L45 37L45 36L44 36L44 35L43 35L43 34L41 34L41 33L43 33L43 32L44 32L44 33L45 33L45 32L46 32L46 34L47 34L47 35L46 35L46 36L47 36L47 35L48 35L48 36L50 36L50 34L51 34L51 33L52 33L52 32L49 32L49 31L50 31L50 30L51 30L51 31L52 31L52 29L50 29L50 30L47 30L47 29L46 29L46 30L44 30L44 29L45 29L45 28L44 28L44 27L45 27L45 26L47 26L47 27L46 27L46 28L47 28L47 27L48 27L48 28L49 28L49 27L50 27L50 28L51 28L51 27L50 27L50 26L51 26L51 25L52 25L52 26L53 26L53 27L52 27L52 28L56 28L56 27L55 27L55 26L53 26L53 25L55 25L55 24L53 24L53 23L55 23L55 22L53 22L53 21L54 21L54 20L53 20L53 21L52 21L52 22L53 22L53 23L51 23L51 25L50 25L50 26L49 26L49 25L48 25L48 26L47 26L47 25L45 25L45 24L46 24L46 23L45 23L45 22L44 22L44 21L45 21L45 20L46 20L46 22L47 22L47 23L48 23L48 24L49 24L49 23L48 23L48 22L49 22L49 21L47 21L47 20L46 20L46 19L45 19L45 20L43 20L43 22L42 22L42 19L43 19L43 18L44 18L44 17L45 17L45 16L44 16L44 15L45 15L45 12L47 12L47 13L46 13L46 14L47 14L47 15L46 15L46 16L47 16L47 17L46 17L46 18L47 18L47 17L48 17L48 16L52 16L52 15L50 15L50 14L54 14L54 13L55 13L55 12L54 12L54 11L57 11L57 12L56 12L56 13L57 13L57 12L59 12L59 11L57 11L57 10L58 10L58 9L57 9L57 10L56 10L56 9L55 9L55 10L54 10L54 11L53 11L53 13L51 13L51 9L52 9L52 10L53 10L53 9L52 9L52 8L51 8L51 9L50 9L50 8L49 8L49 7L50 7L50 6L49 6L49 5L47 5L47 4L46 4L46 5L47 5L47 8L49 8L49 9L50 9L50 14L49 14L49 13L48 13L48 12L49 12L49 11L45 11L45 12L42 12L42 11L41 11L41 10L40 10L40 11L41 11L41 12L40 12L40 13L41 13L41 14L40 14L40 15L41 15L41 16L40 16L40 17L41 17L41 18L40 18L40 20L39 20L39 19L38 19L38 20L39 20L39 21L37 21L37 22L39 22L39 24L37 24L37 23L35 23L35 24L37 24L37 25L34 25L34 23L33 23L33 22L36 22L36 20L37 20L37 19L35 19L35 21L33 21L33 20L34 20L34 19L33 19L33 18L35 18L35 15L33 15L33 14L32 14L32 13L34 13L34 14L35 14L35 12L34 12L34 11L33 11L33 10L35 10L35 9L33 9L33 10L32 10L32 9L31 9L31 10L30 10L30 9L28 9L28 8L26 8L26 6L25 6L25 5L26 5L26 4L25 4L25 3L24 3L24 2L25 2L25 1ZM30 1L30 2L31 2L31 1ZM32 1L32 2L33 2L33 1ZM51 3L51 4L52 4L52 3ZM13 4L13 5L14 5L14 4ZM16 4L16 5L17 5L17 4ZM21 4L21 5L22 5L22 7L21 7L21 6L20 6L20 7L21 7L21 8L22 8L22 7L23 7L23 4ZM24 4L24 5L25 5L25 4ZM27 4L27 5L28 5L28 4ZM29 5L29 8L32 8L32 5ZM18 6L18 7L19 7L19 6ZM24 6L24 8L25 8L25 9L21 9L21 10L22 10L22 11L21 11L21 12L20 12L20 13L19 13L19 12L17 12L17 11L18 11L18 10L19 10L19 11L20 11L20 10L19 10L19 9L20 9L20 8L19 8L19 9L18 9L18 10L17 10L17 11L16 11L16 13L19 13L19 16L18 16L18 17L19 17L19 16L20 16L20 17L21 17L21 16L23 16L23 17L22 17L22 20L23 20L23 19L25 19L25 21L24 21L24 22L25 22L25 23L24 23L24 24L25 24L25 25L24 25L24 27L22 27L22 26L23 26L23 25L19 25L19 23L20 23L20 24L21 24L21 23L23 23L23 21L21 21L21 20L20 20L20 18L18 18L18 19L19 19L19 20L17 20L17 17L16 17L16 15L15 15L15 13L14 13L14 12L15 12L15 11L14 11L14 12L12 12L12 11L10 11L10 10L11 10L11 9L10 9L10 10L9 10L9 13L10 13L10 14L8 14L8 15L7 15L7 14L5 14L5 15L7 15L7 16L6 16L6 17L5 17L5 18L6 18L6 19L3 19L3 20L4 20L4 21L5 21L5 20L6 20L6 21L7 21L7 20L6 20L6 19L7 19L7 18L9 18L9 17L11 17L11 13L12 13L12 14L13 14L13 15L14 15L14 16L13 16L13 17L16 17L16 18L13 18L13 20L12 20L12 19L11 19L11 20L12 20L12 23L13 23L13 24L14 24L14 25L12 25L12 24L10 24L10 20L9 20L9 19L8 19L8 20L9 20L9 24L8 24L8 22L6 22L6 23L7 23L7 24L6 24L6 25L10 25L10 26L11 26L11 27L12 27L12 26L13 26L13 27L14 27L14 28L15 28L15 29L17 29L17 28L18 28L18 29L19 29L19 30L18 30L18 31L19 31L19 32L17 32L17 30L14 30L14 32L13 32L13 33L12 33L12 35L13 35L13 36L10 36L10 37L11 37L11 38L12 38L12 41L13 41L13 42L14 42L14 41L15 41L15 42L16 42L16 43L17 43L17 42L16 42L16 41L18 41L18 43L20 43L20 42L19 42L19 41L20 41L20 40L19 40L19 41L18 41L18 40L14 40L14 41L13 41L13 39L14 39L14 38L16 38L16 37L19 37L19 38L20 38L20 39L21 39L21 40L24 40L24 38L25 38L25 41L24 41L24 42L23 42L23 41L21 41L21 42L22 42L22 43L21 43L21 44L18 44L18 45L19 45L19 46L18 46L18 47L17 47L17 46L15 46L15 45L17 45L17 44L15 44L15 43L14 43L14 44L13 44L13 43L12 43L12 42L11 42L11 43L10 43L10 45L9 45L9 46L6 46L6 45L7 45L7 44L6 44L6 45L4 45L4 46L6 46L6 47L7 47L7 48L6 48L6 49L7 49L7 48L10 48L10 47L11 47L11 46L10 46L10 45L11 45L11 44L12 44L12 45L14 45L14 46L15 46L15 47L14 47L14 48L12 48L12 50L14 50L14 49L16 49L16 50L15 50L15 51L16 51L16 52L15 52L15 53L17 53L17 54L15 54L15 55L17 55L17 54L18 54L18 53L19 53L19 52L20 52L20 53L22 53L22 54L24 54L24 55L25 55L25 57L26 57L26 55L25 55L25 53L26 53L26 54L27 54L27 53L26 53L26 52L27 52L27 51L28 51L28 50L30 50L30 49L31 49L31 48L32 48L32 47L33 47L33 49L34 49L34 47L35 47L35 46L36 46L36 47L37 47L37 48L35 48L35 50L37 50L37 48L42 48L42 49L41 49L41 50L38 50L38 52L36 52L36 51L35 51L35 52L36 52L36 54L37 54L37 56L41 56L41 55L39 55L39 54L37 54L37 53L38 53L38 52L40 52L40 51L41 51L41 50L44 50L44 51L45 51L45 52L46 52L46 51L47 51L47 50L46 50L46 51L45 51L45 50L44 50L44 48L45 48L45 49L47 49L47 48L48 48L48 49L49 49L49 48L48 48L48 47L49 47L49 46L50 46L50 44L47 44L47 43L49 43L49 42L50 42L50 43L51 43L51 42L52 42L52 41L53 41L53 44L54 44L54 43L55 43L55 44L56 44L56 43L55 43L55 42L56 42L56 41L55 41L55 40L54 40L54 41L53 41L53 39L55 39L55 38L53 38L53 39L52 39L52 40L51 40L51 38L50 38L50 40L48 40L48 39L47 39L47 42L46 42L46 43L42 43L42 46L40 46L40 44L41 44L41 41L42 41L42 42L45 42L45 41L44 41L44 40L46 40L46 38L44 38L44 37L43 37L43 35L42 35L42 38L44 38L44 40L43 40L43 41L42 41L42 40L41 40L41 39L40 39L40 38L41 38L41 37L40 37L40 38L36 38L36 37L37 37L37 36L36 36L36 35L37 35L37 32L36 32L36 31L37 31L37 28L39 28L39 30L38 30L38 32L39 32L39 34L38 34L38 36L40 36L40 35L39 35L39 34L40 34L40 32L41 32L41 31L42 31L42 32L43 32L43 31L44 31L44 32L45 32L45 31L44 31L44 30L43 30L43 27L44 27L44 24L45 24L45 23L43 23L43 25L41 25L41 27L40 27L40 26L38 26L38 27L37 27L37 26L36 26L36 27L37 27L37 28L35 28L35 26L33 26L33 25L31 25L31 27L30 27L30 28L28 28L28 30L27 30L27 29L26 29L26 28L27 28L27 27L29 27L29 26L28 26L28 24L27 24L27 25L26 25L26 22L27 22L27 23L28 23L28 21L29 21L29 23L30 23L30 24L31 24L31 23L32 23L32 24L33 24L33 23L32 23L32 21L29 21L29 20L32 20L32 18L33 18L33 17L34 17L34 16L33 16L33 17L32 17L32 16L31 16L31 13L32 13L32 12L31 12L31 11L32 11L32 10L31 10L31 11L30 11L30 12L29 12L29 14L28 14L28 15L30 15L30 16L31 16L31 17L30 17L30 18L27 18L27 17L26 17L26 19L25 19L25 17L24 17L24 16L25 16L25 15L26 15L26 14L27 14L27 13L26 13L26 10L27 10L27 11L29 11L29 10L28 10L28 9L26 9L26 8L25 8L25 6ZM27 6L27 7L28 7L28 6ZM30 6L30 7L31 7L31 6ZM33 6L33 8L34 8L34 6ZM39 6L39 7L40 7L40 6ZM45 6L45 7L46 7L46 6ZM48 6L48 7L49 7L49 6ZM25 9L25 10L23 10L23 11L22 11L22 13L25 13L25 12L24 12L24 11L25 11L25 10L26 10L26 9ZM6 10L6 11L5 11L5 12L3 12L3 13L8 13L8 10ZM6 11L6 12L7 12L7 11ZM30 12L30 13L31 13L31 12ZM13 13L13 14L14 14L14 13ZM20 13L20 14L21 14L21 13ZM42 13L42 14L41 14L41 15L42 15L42 14L43 14L43 13ZM47 13L47 14L48 14L48 15L47 15L47 16L48 16L48 15L49 15L49 14L48 14L48 13ZM22 14L22 15L23 15L23 16L24 16L24 15L25 15L25 14ZM8 16L8 17L9 17L9 16ZM28 16L28 17L29 17L29 16ZM56 16L56 17L57 17L57 16ZM6 17L6 18L7 18L7 17ZM31 17L31 18L32 18L32 17ZM42 17L42 18L43 18L43 17ZM59 18L59 19L61 19L61 18ZM15 19L15 20L14 20L14 21L13 21L13 23L14 23L14 24L15 24L15 26L17 26L17 25L18 25L18 24L17 24L17 23L18 23L18 22L19 22L19 21L20 21L20 22L21 22L21 21L20 21L20 20L19 20L19 21L18 21L18 22L17 22L17 21L16 21L16 19ZM26 19L26 21L25 21L25 22L26 22L26 21L27 21L27 20L29 20L29 19ZM60 20L60 21L61 21L61 20ZM15 21L15 24L16 24L16 25L17 25L17 24L16 24L16 23L17 23L17 22L16 22L16 21ZM39 21L39 22L41 22L41 23L40 23L40 24L41 24L41 23L42 23L42 22L41 22L41 21ZM50 21L50 22L51 22L51 21ZM52 24L52 25L53 25L53 24ZM25 25L25 27L24 27L24 28L20 28L20 32L19 32L19 33L17 33L17 32L16 32L16 31L15 31L15 33L14 33L14 36L13 36L13 37L12 37L12 38L13 38L13 37L14 37L14 36L15 36L15 35L16 35L16 36L19 36L19 37L20 37L20 38L21 38L21 36L22 36L22 37L23 37L23 36L24 36L24 37L25 37L25 38L26 38L26 39L27 39L27 40L26 40L26 41L25 41L25 42L24 42L24 43L25 43L25 44L23 44L23 43L22 43L22 44L21 44L21 45L20 45L20 48L19 48L19 47L18 47L18 48L17 48L17 47L16 47L16 49L18 49L18 50L17 50L17 51L21 51L21 49L20 49L20 48L22 48L22 51L24 51L24 52L22 52L22 53L25 53L25 51L27 51L27 50L28 50L28 49L29 49L29 48L31 48L31 47L32 47L32 44L33 44L33 43L32 43L32 42L31 42L31 41L34 41L34 42L35 42L35 43L34 43L34 44L35 44L35 43L36 43L36 44L37 44L37 45L38 45L38 46L37 46L37 47L38 47L38 46L39 46L39 45L38 45L38 44L40 44L40 43L38 43L38 42L40 42L40 41L41 41L41 40L39 40L39 39L36 39L36 40L37 40L37 41L38 41L38 42L37 42L37 43L36 43L36 41L35 41L35 40L34 40L34 39L32 39L32 38L35 38L35 37L36 37L36 36L35 36L35 37L32 37L32 36L34 36L34 34L35 34L35 31L33 31L33 35L32 35L32 36L31 36L31 35L30 35L30 34L32 34L32 33L29 33L29 35L28 35L28 36L26 36L26 35L25 35L25 36L24 36L24 35L22 35L22 33L27 33L27 34L28 34L28 33L27 33L27 32L26 32L26 31L27 31L27 30L25 30L25 31L24 31L24 29L25 29L25 28L26 28L26 27L27 27L27 26L26 26L26 25ZM19 26L19 27L20 27L20 26ZM32 26L32 28L34 28L34 30L36 30L36 29L35 29L35 28L34 28L34 27L33 27L33 26ZM42 26L42 27L41 27L41 28L40 28L40 27L39 27L39 28L40 28L40 29L41 29L41 30L40 30L40 31L41 31L41 30L42 30L42 31L43 31L43 30L42 30L42 29L41 29L41 28L42 28L42 27L43 27L43 26ZM48 26L48 27L49 27L49 26ZM2 27L2 28L3 28L3 27ZM16 27L16 28L17 28L17 27ZM5 29L5 32L8 32L8 29ZM21 29L21 30L22 30L22 31L23 31L23 32L24 32L24 31L23 31L23 29ZM29 29L29 32L32 32L32 29ZM53 29L53 32L56 32L56 29ZM6 30L6 31L7 31L7 30ZM30 30L30 31L31 31L31 30ZM46 30L46 32L48 32L48 33L49 33L49 32L48 32L48 31L47 31L47 30ZM54 30L54 31L55 31L55 30ZM57 31L57 32L59 32L59 33L58 33L58 34L59 34L59 33L60 33L60 32L59 32L59 31ZM20 32L20 33L19 33L19 34L18 34L18 35L19 35L19 36L21 36L21 35L19 35L19 34L20 34L20 33L21 33L21 32ZM15 33L15 34L16 34L16 33ZM54 34L54 35L55 35L55 34ZM58 35L58 36L60 36L60 35ZM25 36L25 37L26 37L26 38L27 38L27 39L29 39L29 41L31 41L31 40L32 40L32 39L30 39L30 37L31 37L31 36L30 36L30 37L29 37L29 38L27 38L27 37L26 37L26 36ZM17 38L17 39L18 39L18 38ZM22 38L22 39L23 39L23 38ZM10 39L10 40L11 40L11 39ZM38 40L38 41L39 41L39 40ZM50 40L50 42L51 42L51 40ZM5 41L5 42L6 42L6 41ZM26 41L26 42L27 42L27 43L26 43L26 44L25 44L25 45L24 45L24 46L26 46L26 48L27 48L27 49L23 49L23 50L24 50L24 51L25 51L25 50L27 50L27 49L28 49L28 48L27 48L27 47L28 47L28 46L30 46L30 47L31 47L31 46L30 46L30 45L31 45L31 44L30 44L30 45L29 45L29 44L28 44L28 43L29 43L29 42L27 42L27 41ZM30 42L30 43L31 43L31 42ZM57 42L57 43L58 43L58 42ZM14 44L14 45L15 45L15 44ZM26 44L26 45L27 45L27 46L28 46L28 45L27 45L27 44ZM43 44L43 46L42 46L42 47L43 47L43 48L44 48L44 47L45 47L45 46L44 46L44 45L45 45L45 44ZM21 45L21 46L22 46L22 47L23 47L23 45ZM33 45L33 47L34 47L34 46L35 46L35 45ZM46 45L46 46L47 46L47 47L46 47L46 48L47 48L47 47L48 47L48 46L47 46L47 45ZM9 46L9 47L10 47L10 46ZM24 47L24 48L25 48L25 47ZM18 48L18 49L19 49L19 50L20 50L20 49L19 49L19 48ZM58 49L58 50L59 50L59 49ZM48 50L48 51L49 51L49 50ZM3 51L3 52L4 52L4 51ZM54 51L54 52L55 52L55 51ZM58 52L58 53L59 53L59 52ZM60 52L60 53L61 53L61 52ZM10 53L10 54L11 54L11 55L12 55L12 54L11 54L11 53ZM13 53L13 54L14 54L14 53ZM29 53L29 56L32 56L32 53ZM53 53L53 56L56 56L56 53ZM20 54L20 56L21 56L21 54ZM30 54L30 55L31 55L31 54ZM54 54L54 55L55 55L55 54ZM14 56L14 57L13 57L13 58L14 58L14 57L16 57L16 56ZM23 56L23 57L24 57L24 56ZM45 56L45 57L46 57L46 56ZM60 57L60 60L58 60L58 61L61 61L61 57ZM18 58L18 59L20 59L20 58ZM0 0L0 7L7 7L7 0ZM1 1L1 6L6 6L6 1ZM2 2L2 5L5 5L5 2ZM54 0L54 7L61 7L61 0ZM55 1L55 6L60 6L60 1ZM56 2L56 5L59 5L59 2ZM0 54L0 61L7 61L7 54ZM1 55L1 60L6 60L6 55ZM2 56L2 59L5 59L5 56Z" fill="#000000"/></g></g></svg>
