<?xml version="1.0" encoding="UTF-8"?>
<svg xmlns="http://www.w3.org/2000/svg" version="1.1" width="300" height="300" viewBox="0 0 300 300"><rect x="0" y="0" width="300" height="300" fill="#ffffff"/><g transform="scale(4.918)"><g transform="translate(0,0)"><path fill-rule="evenodd" d="M16 0L16 1L10 1L10 5L13 5L13 6L12 6L12 8L11 8L11 10L12 10L12 9L13 9L13 11L14 11L14 12L13 12L13 13L14 13L14 14L15 14L15 13L17 13L17 16L18 16L18 17L19 17L19 16L20 16L20 17L21 17L21 19L22 19L22 17L23 17L23 21L21 21L21 20L20 20L20 19L19 19L19 20L18 20L18 21L19 21L19 22L20 22L20 23L21 23L21 25L22 25L22 26L21 26L21 27L22 27L22 26L24 26L24 27L23 27L23 28L24 28L24 27L26 27L26 28L25 28L25 29L24 29L24 30L25 30L25 31L27 31L27 33L26 33L26 32L25 32L25 33L24 33L24 32L23 32L23 34L22 34L22 35L21 35L21 36L20 36L20 37L21 37L21 39L19 39L19 36L17 36L17 33L16 33L16 32L17 32L17 31L18 31L18 33L22 33L22 32L20 32L20 31L22 31L22 30L23 30L23 29L22 29L22 30L20 30L20 29L21 29L21 28L20 28L20 29L19 29L19 27L20 27L20 26L19 26L19 25L20 25L20 24L19 24L19 25L18 25L18 24L15 24L15 23L14 23L14 19L13 19L13 18L14 18L14 17L13 17L13 16L14 16L14 15L13 15L13 16L12 16L12 11L11 11L11 14L10 14L10 15L11 15L11 16L10 16L10 17L8 17L8 16L6 16L6 17L8 17L8 20L6 20L6 19L7 19L7 18L5 18L5 17L4 17L4 19L5 19L5 20L6 20L6 21L4 21L4 20L3 20L3 17L0 17L0 19L2 19L2 20L1 20L1 21L2 21L2 22L3 22L3 24L2 24L2 26L0 26L0 28L1 28L1 30L0 30L0 32L1 32L1 30L2 30L2 33L1 33L1 34L0 34L0 35L1 35L1 34L2 34L2 35L4 35L4 34L3 34L3 33L5 33L5 34L6 34L6 35L7 35L7 36L4 36L4 38L3 38L3 36L2 36L2 38L3 38L3 39L0 39L0 40L2 40L2 42L3 42L3 41L4 41L4 44L3 44L3 43L2 43L2 44L0 44L0 48L1 48L1 49L0 49L0 50L2 50L2 51L0 51L0 53L4 53L4 52L5 52L5 51L7 51L7 52L6 52L6 53L7 53L7 52L8 52L8 55L9 55L9 56L8 56L8 61L11 61L11 60L9 60L9 58L10 58L10 57L11 57L11 58L12 58L12 59L13 59L13 60L12 60L12 61L13 61L13 60L15 60L15 61L19 61L19 60L18 60L18 58L19 58L19 59L20 59L20 58L19 58L19 57L20 57L20 56L19 56L19 57L18 57L18 56L17 56L17 55L18 55L18 54L17 54L17 55L15 55L15 56L13 56L13 53L14 53L14 54L15 54L15 53L19 53L19 52L20 52L20 53L21 53L21 54L20 54L20 55L21 55L21 56L24 56L24 55L25 55L25 57L21 57L21 60L20 60L20 61L21 61L21 60L23 60L23 59L22 59L22 58L25 58L25 59L24 59L24 60L26 60L26 59L27 59L27 60L29 60L29 58L31 58L31 57L32 57L32 58L34 58L34 59L30 59L30 60L31 60L31 61L32 61L32 60L33 60L33 61L38 61L38 60L39 60L39 61L40 61L40 60L41 60L41 61L43 61L43 60L45 60L45 59L44 59L44 56L45 56L45 57L47 57L47 58L48 58L48 60L47 60L47 61L49 61L49 56L50 56L50 55L52 55L52 56L51 56L51 58L50 58L50 59L51 59L51 58L53 58L53 57L54 57L54 58L55 58L55 57L56 57L56 58L58 58L58 59L59 59L59 58L58 58L58 57L59 57L59 56L61 56L61 54L60 54L60 53L61 53L61 50L60 50L60 52L58 52L58 51L55 51L55 48L54 48L54 47L57 47L57 46L59 46L59 48L56 48L56 49L58 49L58 50L59 50L59 48L60 48L60 49L61 49L61 48L60 48L60 47L61 47L61 46L59 46L59 44L60 44L60 45L61 45L61 42L60 42L60 41L61 41L61 38L58 38L58 37L59 37L59 36L58 36L58 37L57 37L57 36L55 36L55 37L54 37L54 36L53 36L53 35L55 35L55 34L56 34L56 35L59 35L59 34L60 34L60 35L61 35L61 34L60 34L60 33L59 33L59 32L57 32L57 31L60 31L60 32L61 32L61 30L58 30L58 29L59 29L59 28L60 28L60 29L61 29L61 26L60 26L60 25L61 25L61 22L60 22L60 23L59 23L59 22L58 22L58 21L59 21L59 20L58 20L58 19L61 19L61 18L60 18L60 15L61 15L61 14L60 14L60 13L59 13L59 12L60 12L60 11L61 11L61 10L60 10L60 11L59 11L59 10L58 10L58 8L57 8L57 9L56 9L56 8L55 8L55 9L54 9L54 8L53 8L53 6L52 6L52 7L51 7L51 5L52 5L52 4L53 4L53 0L51 0L51 2L50 2L50 3L48 3L48 4L49 4L49 5L46 5L46 4L47 4L47 3L46 3L46 2L47 2L47 1L46 1L46 0L45 0L45 1L46 1L46 2L44 2L44 0L39 0L39 1L37 1L37 0L36 0L36 1L33 1L33 0L32 0L32 1L29 1L29 2L28 2L28 0L26 0L26 1L27 1L27 2L26 2L26 3L27 3L27 4L26 4L26 5L27 5L27 6L26 6L26 7L25 7L25 3L24 3L24 2L25 2L25 0L24 0L24 1L22 1L22 0L21 0L21 1L20 1L20 0L19 0L19 1L18 1L18 0ZM48 0L48 2L49 2L49 1L50 1L50 0ZM8 1L8 2L9 2L9 1ZM17 1L17 4L15 4L15 3L16 3L16 2L12 2L12 3L11 3L11 4L13 4L13 5L14 5L14 6L13 6L13 7L14 7L14 9L15 9L15 10L17 10L17 11L18 11L18 10L17 10L17 9L18 9L18 8L17 8L17 9L15 9L15 7L16 7L16 6L17 6L17 7L18 7L18 5L19 5L19 7L20 7L20 5L21 5L21 8L19 8L19 9L21 9L21 8L22 8L22 9L25 9L25 11L24 11L24 10L23 10L23 11L24 11L24 12L22 12L22 10L21 10L21 13L20 13L20 12L19 12L19 13L18 13L18 15L19 15L19 14L20 14L20 16L21 16L21 17L22 17L22 16L21 16L21 15L22 15L22 14L21 14L21 13L25 13L25 14L23 14L23 16L24 16L24 17L25 17L25 19L24 19L24 21L25 21L25 22L26 22L26 21L27 21L27 22L29 22L29 23L28 23L28 24L29 24L29 25L28 25L28 26L29 26L29 27L27 27L27 28L26 28L26 29L25 29L25 30L26 30L26 29L28 29L28 28L29 28L29 27L31 27L31 28L32 28L32 27L33 27L33 29L34 29L34 30L36 30L36 31L37 31L37 29L35 29L35 28L38 28L38 30L39 30L39 31L38 31L38 32L37 32L37 35L35 35L35 36L33 36L33 35L32 35L32 34L35 34L35 31L34 31L34 33L31 33L31 35L30 35L30 33L29 33L29 35L25 35L25 34L26 34L26 33L25 33L25 34L23 34L23 36L21 36L21 37L25 37L25 39L23 39L23 40L22 40L22 41L25 41L25 42L26 42L26 41L27 41L27 42L29 42L29 43L28 43L28 45L27 45L27 44L26 44L26 45L25 45L25 44L24 44L24 45L23 45L23 44L21 44L21 45L20 45L20 47L18 47L18 46L19 46L19 45L12 45L12 43L13 43L13 44L15 44L15 42L17 42L17 43L16 43L16 44L17 44L17 43L20 43L20 42L17 42L17 41L18 41L18 40L17 40L17 39L18 39L18 38L17 38L17 37L16 37L16 35L15 35L15 34L16 34L16 33L15 33L15 34L14 34L14 35L15 35L15 37L14 37L14 36L13 36L13 35L12 35L12 34L11 34L11 33L10 33L10 34L9 34L9 33L8 33L8 34L7 34L7 33L6 33L6 34L7 34L7 35L8 35L8 34L9 34L9 35L10 35L10 36L7 36L7 37L5 37L5 38L4 38L4 39L3 39L3 40L4 40L4 39L5 39L5 40L8 40L8 41L5 41L5 45L1 45L1 46L3 46L3 48L4 48L4 49L2 49L2 50L7 50L7 49L8 49L8 52L9 52L9 55L10 55L10 52L9 52L9 51L10 51L10 50L11 50L11 51L12 51L12 50L14 50L14 53L15 53L15 51L16 51L16 52L19 52L19 51L20 51L20 52L22 52L22 53L25 53L25 55L26 55L26 57L27 57L27 55L28 55L28 53L27 53L27 52L26 52L26 51L27 51L27 50L28 50L28 49L29 49L29 50L31 50L31 49L29 49L29 48L30 48L30 47L29 47L29 46L28 46L28 45L30 45L30 46L31 46L31 48L32 48L32 50L33 50L33 51L32 51L32 52L34 52L34 53L33 53L33 54L35 54L35 55L34 55L34 56L35 56L35 55L36 55L36 56L38 56L38 58L37 58L37 57L34 57L34 58L35 58L35 60L38 60L38 58L39 58L39 57L40 57L40 58L41 58L41 60L43 60L43 58L41 58L41 57L43 57L43 56L42 56L42 54L41 54L41 53L43 53L43 55L46 55L46 56L47 56L47 55L48 55L48 56L49 56L49 55L50 55L50 54L51 54L51 52L52 52L52 51L53 51L53 52L55 52L55 51L53 51L53 50L51 50L51 49L50 49L50 48L49 48L49 47L50 47L50 46L51 46L51 44L52 44L52 45L54 45L54 44L55 44L55 45L56 45L56 46L57 46L57 45L58 45L58 44L59 44L59 43L60 43L60 42L59 42L59 41L58 41L58 42L59 42L59 43L57 43L57 41L56 41L56 40L60 40L60 39L56 39L56 38L57 38L57 37L55 37L55 39L54 39L54 37L52 37L52 38L51 38L51 37L50 37L50 36L52 36L52 35L53 35L53 33L52 33L52 32L50 32L50 30L51 30L51 31L52 31L52 29L50 29L50 28L53 28L53 27L55 27L55 26L53 26L53 25L55 25L55 24L53 24L53 23L52 23L52 24L51 24L51 25L50 25L50 26L47 26L47 25L46 25L46 26L45 26L45 24L44 24L44 27L46 27L46 26L47 26L47 28L48 28L48 27L49 27L49 29L46 29L46 30L48 30L48 32L46 32L46 31L45 31L45 28L43 28L43 26L42 26L42 27L41 27L41 26L40 26L40 27L38 27L38 26L39 26L39 25L38 25L38 24L39 24L39 23L40 23L40 22L41 22L41 24L40 24L40 25L43 25L43 23L44 23L44 22L45 22L45 20L40 20L40 22L39 22L39 21L38 21L38 20L39 20L39 19L37 19L37 18L39 18L39 17L36 17L36 19L35 19L35 20L34 20L34 18L35 18L35 16L40 16L40 17L41 17L41 16L43 16L43 15L46 15L46 14L47 14L47 15L48 15L48 16L46 16L46 18L47 18L47 20L50 20L50 18L51 18L51 21L49 21L49 22L47 22L47 21L46 21L46 22L47 22L47 23L46 23L46 24L49 24L49 23L50 23L50 22L51 22L51 21L52 21L52 22L53 22L53 21L52 21L52 18L53 18L53 20L54 20L54 19L55 19L55 20L56 20L56 21L55 21L55 22L54 22L54 23L55 23L55 22L56 22L56 21L57 21L57 20L56 20L56 17L57 17L57 16L54 16L54 15L55 15L55 14L56 14L56 15L58 15L58 16L59 16L59 15L58 15L58 14L57 14L57 13L58 13L58 12L59 12L59 11L58 11L58 12L56 12L56 11L57 11L57 10L56 10L56 9L55 9L55 10L54 10L54 11L55 11L55 12L56 12L56 13L55 13L55 14L53 14L53 13L52 13L52 12L53 12L53 11L52 11L52 10L53 10L53 9L52 9L52 8L51 8L51 9L50 9L50 8L49 8L49 7L50 7L50 6L49 6L49 7L48 7L48 6L47 6L47 8L49 8L49 9L48 9L48 11L46 11L46 12L47 12L47 13L46 13L46 14L45 14L45 12L44 12L44 11L45 11L45 10L44 10L44 9L45 9L45 8L46 8L46 5L45 5L45 3L43 3L43 8L42 8L42 5L40 5L40 6L39 6L39 7L40 7L40 6L41 6L41 8L40 8L40 9L41 9L41 10L40 10L40 11L39 11L39 12L40 12L40 13L41 13L41 14L39 14L39 13L38 13L38 12L37 12L37 11L38 11L38 10L39 10L39 8L37 8L37 7L38 7L38 5L39 5L39 4L42 4L42 2L43 2L43 1L41 1L41 3L39 3L39 2L38 2L38 4L37 4L37 7L36 7L36 5L35 5L35 3L37 3L37 2L34 2L34 3L29 3L29 4L33 4L33 5L35 5L35 8L37 8L37 11L34 11L34 12L33 12L33 14L30 14L30 13L32 13L32 11L33 11L33 10L35 10L35 9L33 9L33 10L32 10L32 9L29 9L29 11L27 11L27 10L28 10L28 9L27 9L27 7L28 7L28 6L27 6L27 7L26 7L26 9L25 9L25 8L23 8L23 7L24 7L24 6L23 6L23 5L21 5L21 4L23 4L23 3L22 3L22 2L20 2L20 1L19 1L19 2L18 2L18 1ZM32 1L32 2L33 2L33 1ZM27 2L27 3L28 3L28 2ZM8 3L8 4L9 4L9 3ZM13 3L13 4L14 4L14 5L15 5L15 4L14 4L14 3ZM18 3L18 4L17 4L17 5L18 5L18 4L19 4L19 5L20 5L20 4L21 4L21 3L20 3L20 4L19 4L19 3ZM51 3L51 4L52 4L52 3ZM8 5L8 7L9 7L9 5ZM29 5L29 8L32 8L32 5ZM44 5L44 8L45 8L45 5ZM10 6L10 7L11 7L11 6ZM14 6L14 7L15 7L15 6ZM22 6L22 7L23 7L23 6ZM30 6L30 7L31 7L31 6ZM33 6L33 8L34 8L34 6ZM0 8L0 11L1 11L1 12L2 12L2 11L1 11L1 10L2 10L2 9L3 9L3 12L5 12L5 13L4 13L4 14L5 14L5 15L7 15L7 14L8 14L8 15L9 15L9 12L10 12L10 11L9 11L9 12L5 12L5 10L4 10L4 9L5 9L5 8ZM6 8L6 9L8 9L8 10L6 10L6 11L8 11L8 10L10 10L10 8ZM59 8L59 9L60 9L60 8ZM26 9L26 10L27 10L27 9ZM42 9L42 10L41 10L41 11L40 11L40 12L41 12L41 13L42 13L42 14L41 14L41 15L40 15L40 16L41 16L41 15L42 15L42 14L43 14L43 13L42 13L42 12L43 12L43 11L42 11L42 10L43 10L43 9ZM46 9L46 10L47 10L47 9ZM49 9L49 11L50 11L50 9ZM19 10L19 11L20 11L20 10ZM26 11L26 12L25 12L25 13L26 13L26 14L27 14L27 13L26 13L26 12L27 12L27 11ZM30 11L30 12L31 12L31 11ZM51 11L51 12L48 12L48 13L47 13L47 14L49 14L49 13L51 13L51 12L52 12L52 11ZM14 12L14 13L15 13L15 12ZM28 12L28 13L29 13L29 12ZM34 12L34 13L37 13L37 14L38 14L38 15L39 15L39 14L38 14L38 13L37 13L37 12ZM0 13L0 14L1 14L1 15L3 15L3 13ZM6 13L6 14L7 14L7 13ZM28 14L28 15L29 15L29 17L30 17L30 18L28 18L28 17L26 17L26 16L27 16L27 15L26 15L26 16L25 16L25 15L24 15L24 16L25 16L25 17L26 17L26 18L27 18L27 19L26 19L26 20L27 20L27 21L28 21L28 19L29 19L29 20L31 20L31 19L32 19L32 20L33 20L33 21L29 21L29 22L30 22L30 24L31 24L31 23L32 23L32 24L33 24L33 23L34 23L34 25L37 25L37 26L36 26L36 27L37 27L37 26L38 26L38 25L37 25L37 24L35 24L35 23L36 23L36 22L37 22L37 23L39 23L39 22L38 22L38 21L37 21L37 20L35 20L35 21L36 21L36 22L33 22L33 21L34 21L34 20L33 20L33 19L32 19L32 18L33 18L33 17L32 17L32 18L31 18L31 17L30 17L30 16L31 16L31 15L29 15L29 14ZM33 14L33 15L32 15L32 16L33 16L33 15L36 15L36 14ZM50 14L50 15L49 15L49 16L48 16L48 17L47 17L47 18L48 18L48 19L49 19L49 18L50 18L50 17L49 17L49 16L50 16L50 15L51 15L51 17L53 17L53 15L51 15L51 14ZM15 15L15 16L16 16L16 15ZM11 16L11 17L12 17L12 16ZM44 16L44 17L45 17L45 16ZM15 17L15 18L16 18L16 17ZM54 17L54 18L55 18L55 17ZM58 17L58 18L59 18L59 17ZM9 18L9 20L8 20L8 21L6 21L6 22L7 22L7 23L5 23L5 22L4 22L4 21L3 21L3 20L2 20L2 21L3 21L3 22L4 22L4 23L5 23L5 24L3 24L3 25L5 25L5 24L7 24L7 25L6 25L6 26L4 26L4 27L3 27L3 28L2 28L2 27L1 27L1 28L2 28L2 30L3 30L3 32L4 32L4 27L5 27L5 28L7 28L7 27L8 27L8 28L9 28L9 27L12 27L12 28L11 28L11 29L10 29L10 31L12 31L12 30L11 30L11 29L13 29L13 31L14 31L14 29L13 29L13 28L15 28L15 27L16 27L16 28L18 28L18 27L17 27L17 26L18 26L18 25L15 25L15 27L12 27L12 24L13 24L13 21L12 21L12 20L11 20L11 18ZM40 18L40 19L43 19L43 18ZM44 18L44 19L45 19L45 18ZM15 19L15 21L17 21L17 20L16 20L16 19ZM10 20L10 21L11 21L11 20ZM19 20L19 21L20 21L20 22L21 22L21 21L20 21L20 20ZM8 21L8 22L9 22L9 21ZM41 21L41 22L42 22L42 23L43 23L43 22L44 22L44 21ZM10 22L10 23L12 23L12 22ZM17 22L17 23L18 23L18 22ZM22 22L22 23L23 23L23 22ZM32 22L32 23L33 23L33 22ZM8 23L8 24L9 24L9 26L10 26L10 25L11 25L11 24L9 24L9 23ZM25 23L25 24L22 24L22 25L25 25L25 26L26 26L26 25L27 25L27 23ZM57 23L57 24L56 24L56 27L57 27L57 25L58 25L58 24L59 24L59 23ZM25 24L25 25L26 25L26 24ZM52 24L52 25L53 25L53 24ZM7 25L7 26L6 26L6 27L7 27L7 26L8 26L8 25ZM30 25L30 26L33 26L33 27L35 27L35 26L33 26L33 25ZM50 26L50 27L51 27L51 26ZM40 27L40 28L39 28L39 29L40 29L40 30L41 30L41 31L39 31L39 32L38 32L38 33L39 33L39 34L38 34L38 35L37 35L37 36L35 36L35 37L36 37L36 39L35 39L35 38L34 38L34 40L35 40L35 41L36 41L36 43L37 43L37 44L34 44L34 43L35 43L35 42L34 42L34 41L33 41L33 40L31 40L31 39L30 39L30 38L29 38L29 39L28 39L28 38L27 38L27 37L26 37L26 38L27 38L27 41L28 41L28 40L29 40L29 41L32 41L32 43L33 43L33 44L32 44L32 47L33 47L33 48L34 48L34 47L35 47L35 50L34 50L34 51L35 51L35 53L37 53L37 52L39 52L39 53L40 53L40 52L46 52L46 51L47 51L47 54L46 54L46 53L44 53L44 54L46 54L46 55L47 55L47 54L48 54L48 55L49 55L49 54L50 54L50 53L49 53L49 52L50 52L50 51L51 51L51 50L50 50L50 49L49 49L49 48L48 48L48 47L49 47L49 46L48 46L48 45L49 45L49 44L51 44L51 43L52 43L52 44L53 44L53 43L55 43L55 44L56 44L56 45L57 45L57 44L56 44L56 41L55 41L55 40L54 40L54 41L55 41L55 42L53 42L53 41L52 41L52 40L51 40L51 38L50 38L50 37L49 37L49 36L46 36L46 35L47 35L47 34L46 34L46 32L45 32L45 31L44 31L44 32L43 32L43 33L41 33L41 34L44 34L44 35L42 35L42 36L41 36L41 35L39 35L39 34L40 34L40 32L42 32L42 30L43 30L43 28L41 28L41 27ZM58 27L58 28L59 28L59 27ZM40 28L40 29L41 29L41 30L42 30L42 29L41 29L41 28ZM5 29L5 32L8 32L8 29ZM15 29L15 30L18 30L18 31L20 31L20 30L19 30L19 29ZM29 29L29 32L32 32L32 29ZM53 29L53 32L56 32L56 29ZM6 30L6 31L7 31L7 30ZM27 30L27 31L28 31L28 30ZM30 30L30 31L31 31L31 30ZM54 30L54 31L55 31L55 30ZM15 31L15 32L16 32L16 31ZM13 32L13 33L14 33L14 32ZM44 32L44 34L45 34L45 32ZM48 32L48 33L49 33L49 34L50 34L50 35L52 35L52 33L51 33L51 34L50 34L50 32ZM27 33L27 34L28 34L28 33ZM54 33L54 34L55 34L55 33ZM56 33L56 34L57 34L57 33ZM58 33L58 34L59 34L59 33ZM10 34L10 35L11 35L11 34ZM18 34L18 35L20 35L20 34ZM24 35L24 36L25 36L25 35ZM29 35L29 36L28 36L28 37L31 37L31 38L32 38L32 39L33 39L33 38L32 38L32 37L31 37L31 36L30 36L30 35ZM0 36L0 37L1 37L1 36ZM10 36L10 37L9 37L9 38L8 38L8 37L7 37L7 38L5 38L5 39L7 39L7 38L8 38L8 40L13 40L13 38L14 38L14 41L17 41L17 40L15 40L15 38L14 38L14 37L13 37L13 36L12 36L12 37L11 37L11 36ZM38 36L38 37L37 37L37 39L36 39L36 40L37 40L37 41L38 41L38 42L37 42L37 43L38 43L38 44L37 44L37 45L36 45L36 48L37 48L37 51L36 51L36 52L37 52L37 51L38 51L38 50L41 50L41 51L44 51L44 49L45 49L45 51L46 51L46 50L47 50L47 51L48 51L48 52L49 52L49 51L50 51L50 50L49 50L49 49L48 49L48 48L47 48L47 47L48 47L48 46L47 46L47 45L46 45L46 46L45 46L45 44L43 44L43 46L42 46L42 43L45 43L45 42L42 42L42 41L43 41L43 40L44 40L44 41L45 41L45 40L44 40L44 39L46 39L46 38L47 38L47 40L50 40L50 42L49 42L49 43L50 43L50 42L52 42L52 43L53 43L53 42L52 42L52 41L51 41L51 40L50 40L50 39L48 39L48 38L49 38L49 37L46 37L46 38L45 38L45 36L42 36L42 37L43 37L43 39L42 39L42 38L40 38L40 39L39 39L39 40L37 40L37 39L38 39L38 38L39 38L39 36ZM40 36L40 37L41 37L41 36ZM60 36L60 37L61 37L61 36ZM9 38L9 39L10 39L10 38ZM16 38L16 39L17 39L17 38ZM25 39L25 41L26 41L26 39ZM40 39L40 40L41 40L41 41L40 41L40 44L39 44L39 46L38 46L38 45L37 45L37 46L38 46L38 47L37 47L37 48L41 48L41 50L43 50L43 49L44 49L44 48L45 48L45 49L47 49L47 48L46 48L46 47L47 47L47 46L46 46L46 47L44 47L44 48L43 48L43 47L42 47L42 46L40 46L40 44L41 44L41 41L42 41L42 40L41 40L41 39ZM19 40L19 41L21 41L21 40ZM0 41L0 43L1 43L1 41ZM10 41L10 43L9 43L9 42L6 42L6 43L7 43L7 44L6 44L6 45L5 45L5 46L6 46L6 47L7 47L7 46L8 46L8 47L10 47L10 46L11 46L11 47L12 47L12 46L11 46L11 43L12 43L12 42L13 42L13 41L12 41L12 42L11 42L11 41ZM46 41L46 42L48 42L48 41ZM22 42L22 43L23 43L23 42ZM30 42L30 43L31 43L31 42ZM38 42L38 43L39 43L39 42ZM46 43L46 44L48 44L48 43ZM7 44L7 45L6 45L6 46L7 46L7 45L10 45L10 44ZM30 44L30 45L31 45L31 44ZM22 45L22 47L20 47L20 48L17 48L17 46L15 46L15 47L14 47L14 46L13 46L13 48L11 48L11 49L14 49L14 50L16 50L16 49L14 49L14 48L15 48L15 47L16 47L16 48L17 48L17 50L18 50L18 49L21 49L21 50L20 50L20 51L21 51L21 50L22 50L22 49L23 49L23 45ZM24 45L24 46L25 46L25 45ZM26 45L26 47L24 47L24 48L25 48L25 49L24 49L24 50L23 50L23 51L24 51L24 52L25 52L25 53L26 53L26 55L27 55L27 53L26 53L26 52L25 52L25 51L24 51L24 50L25 50L25 49L26 49L26 50L27 50L27 49L26 49L26 47L28 47L28 48L29 48L29 47L28 47L28 46L27 46L27 45ZM34 45L34 46L33 46L33 47L34 47L34 46L35 46L35 45ZM52 46L52 47L51 47L51 48L52 48L52 49L54 49L54 48L52 48L52 47L53 47L53 46ZM1 47L1 48L2 48L2 47ZM4 47L4 48L5 48L5 49L7 49L7 48L5 48L5 47ZM41 47L41 48L42 48L42 49L43 49L43 48L42 48L42 47ZM8 48L8 49L9 49L9 50L10 50L10 49L9 49L9 48ZM21 48L21 49L22 49L22 48ZM48 50L48 51L49 51L49 50ZM3 51L3 52L4 52L4 51ZM28 51L28 52L29 52L29 51ZM11 52L11 53L12 53L12 52ZM29 53L29 56L32 56L32 53ZM53 53L53 56L56 56L56 53ZM57 53L57 57L58 57L58 56L59 56L59 53ZM11 54L11 55L12 55L12 54ZM22 54L22 55L24 55L24 54ZM30 54L30 55L31 55L31 54ZM36 54L36 55L37 55L37 54ZM38 54L38 56L41 56L41 55L40 55L40 54ZM54 54L54 55L55 55L55 54ZM15 56L15 57L14 57L14 58L13 58L13 57L12 57L12 58L13 58L13 59L14 59L14 58L16 58L16 59L15 59L15 60L17 60L17 58L18 58L18 57L16 57L16 56ZM60 57L60 60L57 60L57 61L61 61L61 57ZM36 58L36 59L37 59L37 58ZM39 59L39 60L40 60L40 59ZM53 59L53 60L50 60L50 61L53 61L53 60L55 60L55 61L56 61L56 60L55 60L55 59ZM0 0L0 7L7 7L7 0ZM1 1L1 6L6 6L6 1ZM2 2L2 5L5 5L5 2ZM54 0L54 7L61 7L61 0ZM55 1L55 6L60 6L60 1ZM56 2L56 5L59 5L59 2ZM0 54L0 61L7 61L7 54ZM1 55L1 60L6 60L6 55ZM2 56L2 59L5 59L5 56Z" fill="#000000"/></g></g></svg>
