<?xml version="1.0" encoding="UTF-8"?>
<svg xmlns="http://www.w3.org/2000/svg" version="1.1" width="300" height="300" viewBox="0 0 300 300"><rect x="0" y="0" width="300" height="300" fill="#ffffff"/><g transform="scale(5.66)"><g transform="translate(0,0)"><path fill-rule="evenodd" d="M9 0L9 1L8 1L8 2L9 2L9 1L10 1L10 3L8 3L8 4L10 4L10 3L11 3L11 4L13 4L13 5L15 5L15 4L19 4L19 5L16 5L16 7L15 7L15 6L14 6L14 7L13 7L13 6L12 6L12 5L11 5L11 6L10 6L10 5L8 5L8 7L9 7L9 8L6 8L6 9L5 9L5 8L0 8L0 11L1 11L1 9L2 9L2 13L1 13L1 14L0 14L0 16L1 16L1 14L2 14L2 15L7 15L7 16L5 16L5 17L4 17L4 16L2 16L2 17L1 17L1 19L0 19L0 24L1 24L1 25L2 25L2 27L0 27L0 29L1 29L1 30L4 30L4 29L7 29L7 30L5 30L5 31L4 31L4 32L6 32L6 33L5 33L5 34L4 34L4 36L5 36L5 34L6 34L6 35L7 35L7 36L6 36L6 37L3 37L3 36L0 36L0 41L1 41L1 38L2 38L2 39L5 39L5 40L6 40L6 41L7 41L7 42L4 42L4 40L2 40L2 42L0 42L0 43L1 43L1 44L3 44L3 45L4 45L4 44L3 44L3 43L7 43L7 44L6 44L6 45L8 45L8 47L11 47L11 44L12 44L12 43L13 43L13 45L12 45L12 48L11 48L11 49L10 49L10 48L8 48L8 53L22 53L22 52L23 52L23 53L25 53L25 52L24 52L24 50L26 50L26 51L27 51L27 50L28 50L28 52L30 52L30 51L29 51L29 50L31 50L31 47L29 47L29 46L31 46L31 45L32 45L32 46L33 46L33 47L32 47L32 48L33 48L33 49L32 49L32 52L33 52L33 53L34 53L34 52L35 52L35 50L34 50L34 49L37 49L37 48L34 48L34 47L35 47L35 46L34 46L34 45L32 45L32 44L33 44L33 43L34 43L34 44L35 44L35 45L37 45L37 44L42 44L42 45L39 45L39 46L38 46L38 47L39 47L39 48L38 48L38 49L39 49L39 50L37 50L37 52L36 52L36 53L37 53L37 52L41 52L41 53L43 53L43 52L44 52L44 53L45 53L45 52L46 52L46 53L49 53L49 52L50 52L50 53L51 53L51 52L52 52L52 51L53 51L53 49L52 49L52 48L53 48L53 47L52 47L52 46L53 46L53 45L52 45L52 43L51 43L51 44L50 44L50 43L49 43L49 42L50 42L50 41L52 41L52 42L53 42L53 39L51 39L51 38L53 38L53 35L52 35L52 34L53 34L53 31L51 31L51 30L50 30L50 31L49 31L49 33L47 33L47 32L48 32L48 30L49 30L49 26L51 26L51 24L50 24L50 21L51 21L51 22L53 22L53 21L52 21L52 20L53 20L53 19L51 19L51 20L50 20L50 21L49 21L49 20L48 20L48 18L44 18L44 17L45 17L45 16L47 16L47 17L49 17L49 19L50 19L50 18L53 18L53 16L52 16L52 15L51 15L51 14L53 14L53 13L51 13L51 12L50 12L50 11L49 11L49 12L48 12L48 14L46 14L46 13L47 13L47 12L46 12L46 11L48 11L48 8L47 8L47 10L45 10L45 12L44 12L44 9L46 9L46 8L45 8L45 6L44 6L44 7L43 7L43 3L44 3L44 4L45 4L45 3L44 3L44 1L43 1L43 0L42 0L42 2L43 2L43 3L42 3L42 4L40 4L40 3L41 3L41 1L40 1L40 0L39 0L39 1L38 1L38 2L39 2L39 3L38 3L38 4L39 4L39 5L36 5L36 7L37 7L37 6L38 6L38 7L39 7L39 8L38 8L38 9L37 9L37 8L36 8L36 10L33 10L33 9L31 9L31 8L33 8L33 6L34 6L34 7L35 7L35 5L33 5L33 4L35 4L35 3L36 3L36 4L37 4L37 3L36 3L36 2L37 2L37 1L36 1L36 2L35 2L35 1L33 1L33 0L32 0L32 1L33 1L33 2L32 2L32 3L33 3L33 4L32 4L32 5L31 5L31 4L30 4L30 5L29 5L29 4L28 4L28 3L29 3L29 2L28 2L28 3L25 3L25 0L21 0L21 1L20 1L20 0L19 0L19 2L18 2L18 1L17 1L17 0L16 0L16 1L15 1L15 2L16 2L16 3L15 3L15 4L14 4L14 2L13 2L13 3L11 3L11 0ZM12 0L12 1L13 1L13 0ZM27 0L27 1L26 1L26 2L27 2L27 1L30 1L30 3L31 3L31 0ZM22 1L22 2L24 2L24 1ZM39 1L39 2L40 2L40 1ZM19 2L19 4L20 4L20 6L19 6L19 8L21 8L21 9L20 9L20 10L19 10L19 9L17 9L17 7L18 7L18 6L17 6L17 7L16 7L16 10L15 10L15 7L14 7L14 8L13 8L13 7L12 7L12 6L11 6L11 7L10 7L10 6L9 6L9 7L10 7L10 10L11 10L11 9L14 9L14 11L13 11L13 10L12 10L12 11L11 11L11 13L10 13L10 12L8 12L8 11L9 11L9 9L6 9L6 10L5 10L5 9L4 9L4 10L3 10L3 11L4 11L4 12L8 12L8 13L9 13L9 15L10 15L10 17L8 17L8 16L7 16L7 17L5 17L5 18L10 18L10 19L11 19L11 18L12 18L12 20L11 20L11 21L12 21L12 23L14 23L14 24L13 24L13 25L14 25L14 26L17 26L17 27L16 27L16 28L19 28L19 29L15 29L15 28L14 28L14 29L13 29L13 27L12 27L12 24L11 24L11 23L10 23L10 24L11 24L11 26L10 26L10 25L9 25L9 26L10 26L10 28L12 28L12 29L11 29L11 30L12 30L12 31L13 31L13 32L14 32L14 31L13 31L13 30L14 30L14 29L15 29L15 30L19 30L19 31L18 31L18 32L19 32L19 33L16 33L16 34L15 34L15 33L12 33L12 36L11 36L11 37L10 37L10 34L11 34L11 33L10 33L10 32L11 32L11 31L10 31L10 30L7 30L7 31L6 31L6 32L8 32L8 33L6 33L6 34L8 34L8 33L10 33L10 34L9 34L9 35L8 35L8 36L7 36L7 37L6 37L6 38L8 38L8 39L11 39L11 40L9 40L9 41L8 41L8 42L9 42L9 43L8 43L8 45L9 45L9 44L10 44L10 43L11 43L11 42L13 42L13 41L14 41L14 43L17 43L17 42L19 42L19 43L20 43L20 44L21 44L21 43L22 43L22 45L23 45L23 46L24 46L24 42L26 42L26 41L27 41L27 42L29 42L29 41L31 41L31 42L30 42L30 45L31 45L31 43L33 43L33 42L32 42L32 41L33 41L33 40L34 40L34 42L36 42L36 43L35 43L35 44L37 44L37 43L38 43L38 42L41 42L41 41L43 41L43 42L42 42L42 43L44 43L44 44L43 44L43 45L44 45L44 44L45 44L45 43L47 43L47 44L48 44L48 43L47 43L47 42L45 42L45 43L44 43L44 41L45 41L45 40L46 40L46 41L50 41L50 40L51 40L51 39L50 39L50 38L51 38L51 37L50 37L50 38L49 38L49 39L47 39L47 38L46 38L46 39L45 39L45 38L44 38L44 37L45 37L45 34L46 34L46 35L47 35L47 36L46 36L46 37L49 37L49 35L50 35L50 36L52 36L52 35L50 35L50 34L51 34L51 33L52 33L52 32L51 32L51 31L50 31L50 32L51 32L51 33L49 33L49 34L46 34L46 33L45 33L45 31L44 31L44 32L42 32L42 31L43 31L43 30L44 30L44 26L42 26L42 25L44 25L44 22L45 22L45 24L49 24L49 23L46 23L46 22L47 22L47 21L43 21L43 22L41 22L41 21L42 21L42 20L39 20L39 21L38 21L38 20L37 20L37 19L38 19L38 18L39 18L39 17L38 17L38 16L37 16L37 15L38 15L38 14L39 14L39 16L40 16L40 17L41 17L41 16L40 16L40 13L43 13L43 14L41 14L41 15L43 15L43 16L45 16L45 15L46 15L46 14L45 14L45 13L44 13L44 12L42 12L42 11L43 11L43 10L40 10L40 11L41 11L41 12L39 12L39 13L38 13L38 10L39 10L39 9L38 9L38 10L36 10L36 11L35 11L35 13L33 13L33 12L34 12L34 11L33 11L33 10L30 10L30 11L29 11L29 10L28 10L28 12L27 12L27 11L26 11L26 10L24 10L24 11L25 11L25 14L24 14L24 13L23 13L23 12L21 12L21 11L20 11L20 10L21 10L21 9L24 9L24 8L23 8L23 7L24 7L24 4L25 4L25 3L22 3L22 4L20 4L20 3L21 3L21 2ZM22 4L22 5L21 5L21 6L20 6L20 7L21 7L21 6L22 6L22 7L23 7L23 4ZM25 5L25 8L28 8L28 5ZM30 5L30 6L29 6L29 9L30 9L30 6L31 6L31 7L32 7L32 6L33 6L33 5L32 5L32 6L31 6L31 5ZM39 5L39 7L40 7L40 5ZM41 5L41 8L40 8L40 9L41 9L41 8L42 8L42 9L43 9L43 8L42 8L42 5ZM26 6L26 7L27 7L27 6ZM11 7L11 8L12 8L12 7ZM49 8L49 10L51 10L51 9L52 9L52 10L53 10L53 9L52 9L52 8L51 8L51 9L50 9L50 8ZM4 10L4 11L5 11L5 10ZM6 10L6 11L7 11L7 10ZM17 10L17 11L16 11L16 12L15 12L15 13L14 13L14 12L13 12L13 13L12 13L12 14L10 14L10 15L11 15L11 17L12 17L12 16L13 16L13 17L15 17L15 13L17 13L17 12L18 12L18 13L19 13L19 14L20 14L20 15L19 15L19 16L17 16L17 15L18 15L18 14L16 14L16 17L19 17L19 16L20 16L20 17L21 17L21 18L20 18L20 21L19 21L19 20L18 20L18 21L17 21L17 19L16 19L16 20L15 20L15 21L14 21L14 19L15 19L15 18L14 18L14 19L13 19L13 20L12 20L12 21L14 21L14 22L15 22L15 23L16 23L16 25L21 25L21 26L20 26L20 27L21 27L21 28L20 28L20 29L21 29L21 30L22 30L22 31L19 31L19 32L20 32L20 33L21 33L21 35L23 35L23 34L24 34L24 35L25 35L25 36L23 36L23 37L21 37L21 36L20 36L20 34L19 34L19 36L16 36L16 35L18 35L18 34L16 34L16 35L15 35L15 34L13 34L13 35L14 35L14 36L15 36L15 37L14 37L14 38L15 38L15 39L16 39L16 41L19 41L19 42L20 42L20 41L21 41L21 42L24 42L24 41L25 41L25 40L23 40L23 41L21 41L21 40L20 40L20 41L19 41L19 39L20 39L20 38L18 38L18 37L19 37L19 36L20 36L20 37L21 37L21 39L22 39L22 38L24 38L24 39L29 39L29 40L30 40L30 39L29 39L29 38L31 38L31 39L32 39L32 40L31 40L31 41L32 41L32 40L33 40L33 39L32 39L32 38L31 38L31 37L32 37L32 36L33 36L33 37L34 37L34 36L35 36L35 37L36 37L36 38L34 38L34 40L35 40L35 41L38 41L38 39L39 39L39 40L41 40L41 39L42 39L42 38L43 38L43 37L42 37L42 36L44 36L44 35L42 35L42 34L44 34L44 33L42 33L42 34L41 34L41 35L40 35L40 36L41 36L41 39L40 39L40 38L38 38L38 37L37 37L37 36L39 36L39 34L40 34L40 32L41 32L41 31L42 31L42 30L43 30L43 27L40 27L40 26L41 26L41 25L40 25L40 24L41 24L41 22L38 22L38 21L37 21L37 20L35 20L35 21L36 21L36 22L33 22L33 21L32 21L32 20L33 20L33 19L36 19L36 18L38 18L38 17L37 17L37 16L36 16L36 18L33 18L33 17L32 17L32 16L33 16L33 14L32 14L32 12L33 12L33 11L32 11L32 12L31 12L31 13L28 13L28 14L29 14L29 15L27 15L27 12L26 12L26 15L23 15L23 13L22 13L22 16L23 16L23 17L21 17L21 14L20 14L20 13L21 13L21 12L20 12L20 13L19 13L19 10ZM36 12L36 13L35 13L35 14L34 14L34 16L35 16L35 15L37 15L37 14L38 14L38 13L37 13L37 12ZM3 13L3 14L5 14L5 13ZM6 13L6 14L7 14L7 15L8 15L8 14L7 14L7 13ZM13 13L13 14L12 14L12 15L13 15L13 16L14 16L14 15L13 15L13 14L14 14L14 13ZM49 13L49 14L51 14L51 13ZM30 14L30 15L29 15L29 17L31 17L31 18L28 18L28 16L27 16L27 15L26 15L26 16L24 16L24 17L23 17L23 19L26 19L26 20L27 20L27 21L28 21L28 20L27 20L27 19L29 19L29 20L30 20L30 21L29 21L29 22L28 22L28 23L29 23L29 24L31 24L31 25L32 25L32 26L36 26L36 28L37 28L37 27L38 27L38 30L37 30L37 31L36 31L36 30L35 30L35 28L34 28L34 27L33 27L33 28L32 28L32 30L29 30L29 29L31 29L31 28L30 28L30 27L31 27L31 26L29 26L29 29L27 29L27 30L29 30L29 31L26 31L26 32L25 32L25 33L24 33L24 32L21 32L21 33L24 33L24 34L26 34L26 37L25 37L25 38L26 38L26 37L29 37L29 35L30 35L30 36L32 36L32 35L31 35L31 34L32 34L32 33L33 33L33 34L35 34L35 32L37 32L37 31L38 31L38 30L39 30L39 31L41 31L41 28L39 28L39 27L38 27L38 26L39 26L39 24L40 24L40 23L34 23L34 24L32 24L32 23L33 23L33 22L32 22L32 21L31 21L31 20L32 20L32 19L31 19L31 18L32 18L32 17L31 17L31 16L32 16L32 14ZM43 14L43 15L45 15L45 14ZM50 15L50 16L49 16L49 17L50 17L50 16L51 16L51 17L52 17L52 16L51 16L51 15ZM26 16L26 17L27 17L27 16ZM3 17L3 18L4 18L4 17ZM24 17L24 18L25 18L25 17ZM18 18L18 19L19 19L19 18ZM26 18L26 19L27 19L27 18ZM42 18L42 19L43 19L43 20L45 20L45 19L44 19L44 18ZM2 19L2 21L1 21L1 22L2 22L2 21L3 21L3 23L1 23L1 24L2 24L2 25L3 25L3 27L4 27L4 25L3 25L3 24L5 24L5 23L6 23L6 24L8 24L8 22L10 22L10 21L9 21L9 19L8 19L8 20L7 20L7 19L6 19L6 20L7 20L7 21L5 21L5 19L4 19L4 21L3 21L3 19ZM21 19L21 20L22 20L22 21L24 21L24 22L23 22L23 23L26 23L26 24L27 24L27 23L26 23L26 22L25 22L25 20L22 20L22 19ZM4 21L4 23L5 23L5 21ZM7 21L7 22L6 22L6 23L7 23L7 22L8 22L8 21ZM15 21L15 22L16 22L16 23L17 23L17 21ZM18 21L18 22L19 22L19 24L21 24L21 25L23 25L23 26L22 26L22 27L23 27L23 28L21 28L21 29L24 29L24 30L23 30L23 31L24 31L24 30L25 30L25 29L24 29L24 25L23 25L23 24L21 24L21 23L22 23L22 22L21 22L21 21L20 21L20 22L19 22L19 21ZM30 21L30 22L31 22L31 21ZM20 22L20 23L21 23L21 22ZM42 23L42 24L43 24L43 23ZM35 24L35 25L36 25L36 26L38 26L38 24ZM5 25L5 28L8 28L8 25ZM25 25L25 28L28 28L28 25ZM45 25L45 28L48 28L48 25ZM52 25L52 26L53 26L53 25ZM6 26L6 27L7 27L7 26ZM26 26L26 27L27 27L27 26ZM46 26L46 27L47 27L47 26ZM51 27L51 28L50 28L50 29L52 29L52 30L53 30L53 29L52 29L52 28L53 28L53 27ZM2 28L2 29L3 29L3 28ZM33 28L33 29L34 29L34 28ZM39 29L39 30L40 30L40 29ZM46 29L46 31L47 31L47 29ZM33 30L33 31L32 31L32 32L31 32L31 31L29 31L29 33L30 33L30 34L31 34L31 33L32 33L32 32L35 32L35 30ZM0 31L0 32L1 32L1 33L0 33L0 35L1 35L1 34L3 34L3 33L2 33L2 31ZM16 31L16 32L17 32L17 31ZM30 32L30 33L31 33L31 32ZM38 32L38 34L37 34L37 35L35 35L35 36L37 36L37 35L38 35L38 34L39 34L39 32ZM26 33L26 34L28 34L28 35L29 35L29 34L28 34L28 33ZM33 35L33 36L34 36L34 35ZM41 35L41 36L42 36L42 35ZM8 36L8 38L9 38L9 36ZM2 37L2 38L3 38L3 37ZM16 37L16 39L18 39L18 38L17 38L17 37ZM11 38L11 39L12 39L12 41L13 41L13 40L14 40L14 39L12 39L12 38ZM37 38L37 39L36 39L36 40L37 40L37 39L38 39L38 38ZM6 39L6 40L7 40L7 39ZM43 39L43 40L44 40L44 39ZM46 39L46 40L47 40L47 39ZM49 39L49 40L50 40L50 39ZM27 40L27 41L28 41L28 40ZM10 41L10 42L11 42L11 41ZM2 42L2 43L3 43L3 42ZM25 43L25 44L29 44L29 43ZM13 45L13 46L14 46L14 47L13 47L13 48L16 48L16 47L17 47L17 48L18 48L18 47L19 47L19 48L20 48L20 46L21 46L21 47L22 47L22 48L21 48L21 49L20 49L20 51L19 51L19 49L15 49L15 51L13 51L13 50L11 50L11 51L10 51L10 49L9 49L9 51L10 51L10 52L11 52L11 51L12 51L12 52L15 52L15 51L16 51L16 52L18 52L18 51L19 51L19 52L20 52L20 51L21 51L21 49L23 49L23 50L22 50L22 51L23 51L23 50L24 50L24 47L22 47L22 46L21 46L21 45L16 45L16 47L15 47L15 46L14 46L14 45ZM25 45L25 48L28 48L28 45ZM45 45L45 48L48 48L48 45ZM49 45L49 46L50 46L50 48L51 48L51 46L52 46L52 45ZM17 46L17 47L18 47L18 46ZM26 46L26 47L27 47L27 46ZM36 46L36 47L37 47L37 46ZM39 46L39 47L40 47L40 46ZM41 46L41 48L39 48L39 49L41 49L41 50L40 50L40 51L41 51L41 52L43 52L43 50L44 50L44 52L45 52L45 50L44 50L44 48L43 48L43 47L44 47L44 46ZM46 46L46 47L47 47L47 46ZM41 48L41 49L42 49L42 50L43 50L43 49L42 49L42 48ZM26 49L26 50L27 50L27 49ZM47 49L47 50L49 50L49 51L50 51L50 52L51 52L51 51L52 51L52 50L51 50L51 49ZM17 50L17 51L18 51L18 50ZM33 50L33 52L34 52L34 50ZM50 50L50 51L51 51L51 50ZM46 51L46 52L48 52L48 51ZM26 52L26 53L27 53L27 52ZM0 0L0 7L7 7L7 0ZM1 1L1 6L6 6L6 1ZM2 2L2 5L5 5L5 2ZM46 0L46 7L53 7L53 0ZM47 1L47 6L52 6L52 1ZM48 2L48 5L51 5L51 2ZM0 46L0 53L7 53L7 46ZM1 47L1 52L6 52L6 47ZM2 48L2 51L5 51L5 48Z" fill="#000000"/></g></g></svg>
