<?xml version="1.0" encoding="UTF-8"?>
<svg xmlns="http://www.w3.org/2000/svg" version="1.1" width="300" height="300" viewBox="0 0 300 300"><rect x="0" y="0" width="300" height="300" fill="#ffffff"/><g transform="scale(4.918)"><g transform="translate(0,0)"><path fill-rule="evenodd" d="M9 0L9 1L8 1L8 2L9 2L9 3L8 3L8 4L9 4L9 5L8 5L8 7L9 7L9 6L10 6L10 7L11 7L11 6L12 6L12 9L13 9L13 10L11 10L11 12L10 12L10 8L6 8L6 9L8 9L8 11L7 11L7 10L6 10L6 11L7 11L7 12L4 12L4 11L1 11L1 9L2 9L2 10L4 10L4 9L5 9L5 8L0 8L0 11L1 11L1 12L0 12L0 13L2 13L2 14L1 14L1 15L0 15L0 16L3 16L3 18L2 18L2 17L1 17L1 19L2 19L2 20L0 20L0 23L1 23L1 24L0 24L0 28L1 28L1 29L2 29L2 28L1 28L1 27L4 27L4 30L3 30L3 31L2 31L2 30L1 30L1 31L2 31L2 32L0 32L0 33L4 33L4 34L2 34L2 36L1 36L1 34L0 34L0 37L1 37L1 38L0 38L0 39L1 39L1 40L0 40L0 41L1 41L1 40L2 40L2 43L1 43L1 42L0 42L0 43L1 43L1 44L0 44L0 46L1 46L1 44L3 44L3 45L2 45L2 47L1 47L1 49L0 49L0 50L2 50L2 51L0 51L0 53L4 53L4 52L5 52L5 51L8 51L8 55L9 55L9 56L8 56L8 61L9 61L9 60L11 60L11 58L12 58L12 59L13 59L13 60L12 60L12 61L13 61L13 60L15 60L15 61L21 61L21 60L17 60L17 58L18 58L18 59L21 59L21 58L23 58L23 59L24 59L24 60L25 60L25 59L27 59L27 61L28 61L28 60L29 60L29 61L32 61L32 60L33 60L33 61L34 61L34 60L35 60L35 59L34 59L34 58L33 58L33 57L37 57L37 56L34 56L34 55L35 55L35 54L33 54L33 52L36 52L36 53L38 53L38 52L36 52L36 51L39 51L39 50L40 50L40 48L41 48L41 50L43 50L43 51L42 51L42 54L41 54L41 55L40 55L40 56L41 56L41 57L40 57L40 58L45 58L45 59L44 59L44 60L43 60L43 59L42 59L42 60L43 60L43 61L44 61L44 60L47 60L47 61L50 61L50 60L47 60L47 59L49 59L49 56L50 56L50 55L52 55L52 56L51 56L51 58L50 58L50 59L51 59L51 60L52 60L52 61L53 61L53 60L52 60L52 58L54 58L54 60L55 60L55 58L57 58L57 59L56 59L56 60L57 60L57 61L61 61L61 57L60 57L60 55L61 55L61 54L59 54L59 56L58 56L58 57L60 57L60 60L57 60L57 59L58 59L58 58L57 58L57 53L61 53L61 50L60 50L60 49L59 49L59 48L61 48L61 46L59 46L59 48L58 48L58 46L56 46L56 45L57 45L57 44L56 44L56 42L55 42L55 41L54 41L54 40L53 40L53 39L55 39L55 38L56 38L56 41L57 41L57 42L60 42L60 43L59 43L59 44L58 44L58 45L59 45L59 44L60 44L60 45L61 45L61 42L60 42L60 40L57 40L57 39L61 39L61 38L58 38L58 37L59 37L59 36L57 36L57 35L61 35L61 34L59 34L59 33L61 33L61 32L60 32L60 31L61 31L61 30L60 30L60 29L59 29L59 28L57 28L57 27L58 27L58 26L59 26L59 27L60 27L60 28L61 28L61 26L60 26L60 24L58 24L58 26L57 26L57 27L56 27L56 24L57 24L57 23L61 23L61 22L58 22L58 21L59 21L59 20L60 20L60 21L61 21L61 18L59 18L59 17L61 17L61 14L59 14L59 12L60 12L60 11L61 11L61 10L60 10L60 11L59 11L59 12L57 12L57 11L56 11L56 12L57 12L57 13L56 13L56 14L57 14L57 15L56 15L56 16L57 16L57 17L53 17L53 16L51 16L51 14L50 14L50 13L53 13L53 12L52 12L52 11L54 11L54 10L55 10L55 9L56 9L56 10L58 10L58 8L57 8L57 9L56 9L56 8L55 8L55 9L54 9L54 8L52 8L52 7L53 7L53 6L52 6L52 7L51 7L51 5L52 5L52 4L53 4L53 0L51 0L51 2L50 2L50 1L49 1L49 0L47 0L47 1L46 1L46 0L44 0L44 2L42 2L42 3L45 3L45 4L44 4L44 5L45 5L45 6L44 6L44 7L43 7L43 6L42 6L42 5L43 5L43 4L42 4L42 5L41 5L41 6L40 6L40 4L39 4L39 5L37 5L37 3L38 3L38 2L39 2L39 3L40 3L40 1L41 1L41 0L39 0L39 1L38 1L38 2L37 2L37 3L36 3L36 4L35 4L35 2L36 2L36 1L37 1L37 0L36 0L36 1L33 1L33 0L32 0L32 1L31 1L31 0L29 0L29 2L30 2L30 3L31 3L31 4L29 4L29 3L27 3L27 2L28 2L28 0L26 0L26 1L27 1L27 2L26 2L26 3L25 3L25 0L21 0L21 1L20 1L20 4L19 4L19 3L17 3L17 5L15 5L15 4L14 4L14 2L15 2L15 3L16 3L16 2L15 2L15 1L16 1L16 0L15 0L15 1L14 1L14 0L13 0L13 1L14 1L14 2L11 2L11 1L10 1L10 0ZM42 0L42 1L43 1L43 0ZM18 1L18 2L19 2L19 1ZM21 1L21 3L22 3L22 4L23 4L23 7L22 7L22 6L21 6L21 7L20 7L20 6L19 6L19 4L18 4L18 6L17 6L17 7L16 7L16 6L15 6L15 5L14 5L14 4L13 4L13 8L14 8L14 9L15 9L15 8L14 8L14 6L15 6L15 7L16 7L16 8L18 8L18 9L16 9L16 11L15 11L15 12L14 12L14 10L13 10L13 11L12 11L12 12L14 12L14 13L13 13L13 14L12 14L12 13L10 13L10 14L9 14L9 13L6 13L6 14L5 14L5 13L3 13L3 12L2 12L2 13L3 13L3 14L2 14L2 15L3 15L3 14L5 14L5 15L4 15L4 17L6 17L6 18L7 18L7 19L5 19L5 20L4 20L4 21L3 21L3 20L2 20L2 21L1 21L1 22L2 22L2 21L3 21L3 22L5 22L5 20L7 20L7 21L6 21L6 22L7 22L7 21L8 21L8 22L9 22L9 21L10 21L10 24L9 24L9 23L6 23L6 24L4 24L4 23L2 23L2 24L3 24L3 26L4 26L4 27L5 27L5 28L9 28L9 31L10 31L10 32L9 32L9 33L5 33L5 34L4 34L4 36L5 36L5 34L8 34L8 35L6 35L6 36L8 36L8 37L6 37L6 38L7 38L7 39L5 39L5 37L3 37L3 36L2 36L2 37L3 37L3 38L4 38L4 39L2 39L2 40L3 40L3 41L4 41L4 45L3 45L3 46L4 46L4 45L5 45L5 47L3 47L3 48L4 48L4 49L5 49L5 50L7 50L7 49L11 49L11 48L10 48L10 47L11 47L11 46L12 46L12 50L10 50L10 52L9 52L9 54L10 54L10 53L11 53L11 55L12 55L12 56L9 56L9 57L10 57L10 58L11 58L11 57L12 57L12 58L13 58L13 57L15 57L15 56L17 56L17 57L16 57L16 58L14 58L14 59L16 59L16 58L17 58L17 57L18 57L18 56L17 56L17 55L18 55L18 54L19 54L19 53L20 53L20 54L21 54L21 55L19 55L19 58L21 58L21 57L23 57L23 58L24 58L24 57L25 57L25 58L26 58L26 57L27 57L27 58L28 58L28 57L27 57L27 55L28 55L28 54L26 54L26 53L27 53L27 52L26 52L26 53L25 53L25 51L26 51L26 50L22 50L22 49L27 49L27 50L28 50L28 51L32 51L32 52L33 52L33 51L36 51L36 50L37 50L37 49L38 49L38 50L39 50L39 46L40 46L40 47L41 47L41 48L44 48L44 49L45 49L45 52L44 52L44 51L43 51L43 53L44 53L44 54L42 54L42 55L41 55L41 56L44 56L44 57L45 57L45 58L47 58L47 56L44 56L44 54L46 54L46 55L48 55L48 56L49 56L49 55L50 55L50 54L51 54L51 53L50 53L50 52L52 52L52 51L53 51L53 52L56 52L56 51L57 51L57 52L60 52L60 51L58 51L58 50L59 50L59 49L58 49L58 50L57 50L57 49L56 49L56 48L57 48L57 47L54 47L54 48L53 48L53 49L54 49L54 50L55 50L55 51L53 51L53 50L52 50L52 51L50 51L50 50L51 50L51 48L52 48L52 47L53 47L53 45L54 45L54 44L55 44L55 45L56 45L56 44L55 44L55 43L54 43L54 42L53 42L53 40L52 40L52 38L53 38L53 37L55 37L55 35L54 35L54 36L53 36L53 37L52 37L52 38L51 38L51 36L52 36L52 35L53 35L53 34L55 34L55 33L53 33L53 34L52 34L52 33L50 33L50 32L51 32L51 31L52 31L52 29L51 29L51 27L50 27L50 26L51 26L51 25L52 25L52 26L53 26L53 28L54 28L54 27L55 27L55 26L53 26L53 25L55 25L55 24L53 24L53 21L55 21L55 22L54 22L54 23L57 23L57 22L56 22L56 21L57 21L57 20L59 20L59 18L57 18L57 20L54 20L54 19L56 19L56 18L53 18L53 17L51 17L51 16L49 16L49 15L50 15L50 14L49 14L49 13L48 13L48 12L49 12L49 10L47 10L47 9L45 9L45 8L46 8L46 6L45 6L45 8L43 8L43 7L42 7L42 6L41 6L41 8L39 8L39 7L40 7L40 6L39 6L39 7L38 7L38 6L37 6L37 5L36 5L36 6L35 6L35 8L34 8L34 6L33 6L33 9L34 9L34 10L35 10L35 8L39 8L39 9L38 9L38 10L37 10L37 9L36 9L36 11L35 11L35 12L34 12L34 11L33 11L33 10L32 10L32 9L31 9L31 10L32 10L32 11L31 11L31 12L29 12L29 11L30 11L30 9L28 9L28 10L26 10L26 9L27 9L27 8L28 8L28 6L27 6L27 8L26 8L26 5L28 5L28 4L27 4L27 3L26 3L26 4L25 4L25 3L24 3L24 2L22 2L22 1ZM32 1L32 2L33 2L33 3L34 3L34 2L33 2L33 1ZM45 2L45 3L46 3L46 5L47 5L47 8L49 8L49 9L50 9L50 12L51 12L51 9L50 9L50 8L49 8L49 7L50 7L50 6L49 6L49 7L48 7L48 5L49 5L49 4L47 4L47 3L46 3L46 2ZM48 2L48 3L50 3L50 2ZM10 3L10 4L11 4L11 5L10 5L10 6L11 6L11 5L12 5L12 3ZM51 3L51 4L52 4L52 3ZM20 4L20 5L21 5L21 4ZM24 4L24 7L23 7L23 8L24 8L24 7L25 7L25 4ZM33 4L33 5L35 5L35 4ZM29 5L29 8L32 8L32 5ZM18 6L18 7L19 7L19 6ZM30 6L30 7L31 7L31 6ZM36 6L36 7L37 7L37 6ZM59 8L59 9L60 9L60 8ZM18 9L18 10L17 10L17 11L16 11L16 12L15 12L15 13L14 13L14 14L13 14L13 15L12 15L12 17L11 17L11 16L9 16L9 15L7 15L7 14L6 14L6 15L7 15L7 16L6 16L6 17L7 17L7 16L8 16L8 19L7 19L7 20L8 20L8 21L9 21L9 20L11 20L11 22L12 22L12 23L11 23L11 24L12 24L12 25L13 25L13 26L11 26L11 27L10 27L10 25L9 25L9 24L6 24L6 25L7 25L7 26L6 26L6 27L8 27L8 25L9 25L9 27L10 27L10 31L11 31L11 32L12 32L12 31L13 31L13 33L12 33L12 34L11 34L11 35L10 35L10 33L9 33L9 35L8 35L8 36L11 36L11 37L13 37L13 38L14 38L14 37L15 37L15 40L13 40L13 39L11 39L11 41L10 41L10 37L8 37L8 39L7 39L7 40L4 40L4 41L7 41L7 42L6 42L6 43L5 43L5 45L7 45L7 46L6 46L6 47L7 47L7 48L6 48L6 49L7 49L7 48L9 48L9 47L7 47L7 46L8 46L8 43L7 43L7 42L11 42L11 43L14 43L14 44L12 44L12 45L14 45L14 47L16 47L16 48L15 48L15 49L16 49L16 50L14 50L14 49L13 49L13 51L11 51L11 52L14 52L14 51L16 51L16 52L15 52L15 54L14 54L14 53L12 53L12 55L13 55L13 56L15 56L15 54L16 54L16 53L19 53L19 52L20 52L20 53L21 53L21 54L22 54L22 55L21 55L21 56L20 56L20 57L21 57L21 56L22 56L22 55L24 55L24 56L25 56L25 57L26 57L26 54L25 54L25 53L24 53L24 51L22 51L22 50L21 50L21 51L19 51L19 50L20 50L20 49L21 49L21 48L20 48L20 44L19 44L19 43L18 43L18 42L20 42L20 43L23 43L23 44L24 44L24 43L25 43L25 41L26 41L26 42L27 42L27 43L26 43L26 44L27 44L27 45L26 45L26 46L25 46L25 45L21 45L21 47L23 47L23 46L25 46L25 47L24 47L24 48L26 48L26 46L27 46L27 49L28 49L28 48L29 48L29 50L30 50L30 49L31 49L31 50L32 50L32 51L33 51L33 48L32 48L32 47L35 47L35 46L33 46L33 45L34 45L34 43L37 43L37 44L36 44L36 45L37 45L37 46L36 46L36 47L37 47L37 46L38 46L38 45L40 45L40 44L41 44L41 45L42 45L42 46L41 46L41 47L42 47L42 46L43 46L43 47L44 47L44 48L45 48L45 47L47 47L47 48L48 48L48 49L49 49L49 50L48 50L48 51L47 51L47 50L46 50L46 52L45 52L45 53L47 53L47 52L48 52L48 53L49 53L49 52L50 52L50 51L49 51L49 50L50 50L50 49L49 49L49 48L50 48L50 47L52 47L52 46L50 46L50 45L49 45L49 44L51 44L51 45L52 45L52 44L51 44L51 43L53 43L53 42L50 42L50 40L51 40L51 41L52 41L52 40L51 40L51 38L50 38L50 36L51 36L51 34L50 34L50 33L49 33L49 32L48 32L48 31L49 31L49 30L50 30L50 31L51 31L51 30L50 30L50 28L48 28L48 29L47 29L47 30L46 30L46 31L44 31L44 32L45 32L45 33L44 33L44 34L43 34L43 33L40 33L40 32L41 32L41 31L42 31L42 30L43 30L43 29L42 29L42 30L41 30L41 29L40 29L40 28L41 28L41 26L38 26L38 25L37 25L37 24L34 24L34 23L35 23L35 22L34 22L34 23L32 23L32 22L33 22L33 21L32 21L32 22L31 22L31 21L30 21L30 22L31 22L31 23L30 23L30 24L28 24L28 25L26 25L26 24L27 24L27 23L29 23L29 21L26 21L26 20L25 20L25 19L26 19L26 18L27 18L27 19L29 19L29 20L34 20L34 19L35 19L35 21L39 21L39 22L36 22L36 23L38 23L38 24L41 24L41 25L42 25L42 26L43 26L43 25L42 25L42 24L41 24L41 23L42 23L42 22L43 22L43 21L42 21L42 22L41 22L41 23L40 23L40 20L41 20L41 19L42 19L42 20L43 20L43 17L40 17L40 16L41 16L41 15L42 15L42 16L45 16L45 17L44 17L44 18L45 18L45 19L44 19L44 20L45 20L45 21L44 21L44 24L46 24L46 22L45 22L45 21L47 21L47 22L48 22L48 21L49 21L49 22L50 22L50 23L49 23L49 24L47 24L47 25L48 25L48 26L46 26L46 27L42 27L42 28L46 28L46 27L49 27L49 26L50 26L50 25L51 25L51 23L52 23L52 22L50 22L50 21L53 21L53 18L52 18L52 20L50 20L50 21L49 21L49 20L48 20L48 21L47 21L47 20L46 20L46 19L47 19L47 18L46 18L46 16L48 16L48 18L49 18L49 16L48 16L48 15L49 15L49 14L48 14L48 15L47 15L47 14L45 14L45 13L46 13L46 12L45 12L45 11L47 11L47 10L45 10L45 9L44 9L44 10L45 10L45 11L44 11L44 12L45 12L45 13L44 13L44 15L42 15L42 14L43 14L43 11L42 11L42 10L43 10L43 9L39 9L39 10L38 10L38 11L37 11L37 12L35 12L35 13L37 13L37 14L36 14L36 15L37 15L37 16L35 16L35 14L34 14L34 12L33 12L33 11L32 11L32 12L31 12L31 13L30 13L30 14L28 14L28 13L29 13L29 12L28 12L28 11L29 11L29 10L28 10L28 11L27 11L27 13L26 13L26 12L25 12L25 13L21 13L21 12L24 12L24 11L26 11L26 10L25 10L25 9L21 9L21 11L20 11L20 10L19 10L19 9ZM52 9L52 10L53 10L53 9ZM22 10L22 11L24 11L24 10ZM39 10L39 11L38 11L38 12L37 12L37 13L38 13L38 14L37 14L37 15L39 15L39 16L37 16L37 17L35 17L35 16L33 16L33 14L32 14L32 17L31 17L31 16L29 16L29 15L28 15L28 16L29 16L29 17L30 17L30 18L32 18L32 19L33 19L33 18L35 18L35 19L36 19L36 20L39 20L39 19L38 19L38 18L39 18L39 16L40 16L40 15L41 15L41 14L42 14L42 13L41 13L41 12L42 12L42 11L41 11L41 12L40 12L40 10ZM17 12L17 13L15 13L15 14L16 14L16 15L15 15L15 16L16 16L16 17L13 17L13 18L14 18L14 19L12 19L12 18L11 18L11 20L14 20L14 21L15 21L15 20L16 20L16 19L15 19L15 18L16 18L16 17L17 17L17 20L21 20L21 19L20 19L20 18L21 18L21 17L27 17L27 16L26 16L26 15L27 15L27 14L24 14L24 16L23 16L23 15L22 15L22 14L21 14L21 13L20 13L20 15L18 15L18 14L19 14L19 13L18 13L18 12ZM38 12L38 13L40 13L40 14L39 14L39 15L40 15L40 14L41 14L41 13L40 13L40 12ZM54 13L54 14L55 14L55 13ZM13 15L13 16L14 16L14 15ZM21 15L21 16L17 16L17 17L21 17L21 16L22 16L22 15ZM45 15L45 16L46 16L46 15ZM54 15L54 16L55 16L55 15ZM57 15L57 16L59 16L59 15ZM32 17L32 18L33 18L33 17ZM3 18L3 19L4 19L4 18ZM9 18L9 19L10 19L10 18ZM18 18L18 19L19 19L19 18ZM22 18L22 19L23 19L23 18ZM24 18L24 19L25 19L25 18ZM36 18L36 19L37 19L37 18ZM50 18L50 19L51 19L51 18ZM14 19L14 20L15 20L15 19ZM22 20L22 21L20 21L20 22L22 22L22 23L23 23L23 24L21 24L21 23L19 23L19 24L21 24L21 25L20 25L20 27L22 27L22 28L21 28L21 29L20 29L20 28L19 28L19 27L18 27L18 26L17 26L17 25L18 25L18 24L17 24L17 25L16 25L16 26L15 26L15 25L14 25L14 24L13 24L13 23L12 23L12 24L13 24L13 25L14 25L14 26L13 26L13 28L14 28L14 29L12 29L12 28L11 28L11 31L12 31L12 30L14 30L14 29L15 29L15 31L16 31L16 32L14 32L14 33L16 33L16 34L13 34L13 37L14 37L14 36L15 36L15 37L16 37L16 38L17 38L17 37L16 37L16 36L17 36L17 35L19 35L19 34L20 34L20 36L21 36L21 33L27 33L27 34L25 34L25 35L26 35L26 37L25 37L25 36L22 36L22 37L23 37L23 38L21 38L21 37L20 37L20 39L19 39L19 37L18 37L18 39L16 39L16 40L15 40L15 42L18 42L18 41L19 41L19 40L20 40L20 39L21 39L21 41L20 41L20 42L21 42L21 41L23 41L23 43L24 43L24 41L25 41L25 40L24 40L24 39L27 39L27 40L26 40L26 41L27 41L27 40L28 40L28 41L29 41L29 42L28 42L28 45L27 45L27 46L28 46L28 47L29 47L29 48L31 48L31 47L32 47L32 46L31 46L31 45L30 45L30 46L28 46L28 45L29 45L29 44L31 44L31 43L32 43L32 45L33 45L33 43L32 43L32 42L33 42L33 39L32 39L32 38L35 38L35 40L37 40L37 39L36 39L36 38L39 38L39 37L38 37L38 36L40 36L40 39L41 39L41 40L39 40L39 41L38 41L38 42L39 42L39 43L38 43L38 44L37 44L37 45L38 45L38 44L40 44L40 43L41 43L41 44L42 44L42 45L43 45L43 46L44 46L44 47L45 47L45 46L47 46L47 47L48 47L48 48L49 48L49 47L50 47L50 46L47 46L47 45L45 45L45 44L44 44L44 43L45 43L45 42L47 42L47 43L46 43L46 44L47 44L47 43L48 43L48 44L49 44L49 43L50 43L50 42L49 42L49 41L48 41L48 42L47 42L47 39L48 39L48 40L50 40L50 38L49 38L49 37L46 37L46 36L47 36L47 35L48 35L48 36L50 36L50 34L49 34L49 33L48 33L48 32L47 32L47 31L48 31L48 30L49 30L49 29L48 29L48 30L47 30L47 31L46 31L46 32L47 32L47 33L45 33L45 35L46 35L46 36L40 36L40 35L43 35L43 34L40 34L40 35L37 35L37 34L36 34L36 32L37 32L37 33L38 33L38 34L39 34L39 33L38 33L38 32L40 32L40 31L41 31L41 30L40 30L40 31L39 31L39 29L38 29L38 30L36 30L36 28L40 28L40 27L38 27L38 26L37 26L37 25L34 25L34 26L32 26L32 25L33 25L33 24L32 24L32 23L31 23L31 24L30 24L30 25L29 25L29 26L30 26L30 25L31 25L31 26L32 26L32 27L31 27L31 28L32 28L32 27L34 27L34 28L35 28L35 29L33 29L33 35L32 35L32 34L31 34L31 33L30 33L30 35L29 35L29 33L28 33L28 32L26 32L26 29L28 29L28 28L29 28L29 27L28 27L28 28L27 28L27 27L26 27L26 26L23 26L23 27L22 27L22 26L21 26L21 25L25 25L25 24L26 24L26 23L27 23L27 22L26 22L26 21L25 21L25 20ZM12 21L12 22L13 22L13 21ZM16 21L16 22L17 22L17 23L18 23L18 22L19 22L19 21ZM22 21L22 22L23 22L23 21ZM24 21L24 22L25 22L25 21ZM14 22L14 23L15 23L15 22ZM24 23L24 24L25 24L25 23ZM52 24L52 25L53 25L53 24ZM1 25L1 26L2 26L2 25ZM4 25L4 26L5 26L5 25ZM44 25L44 26L45 26L45 25ZM14 26L14 27L15 27L15 26ZM34 26L34 27L36 27L36 26ZM16 27L16 29L17 29L17 27ZM24 27L24 28L26 28L26 27ZM18 28L18 29L19 29L19 30L18 30L18 31L17 31L17 32L18 32L18 33L17 33L17 34L18 34L18 33L19 33L19 32L20 32L20 33L21 33L21 31L22 31L22 30L25 30L25 29L21 29L21 30L20 30L20 29L19 29L19 28ZM5 29L5 32L8 32L8 29ZM29 29L29 32L32 32L32 29ZM44 29L44 30L45 30L45 29ZM53 29L53 32L56 32L56 29ZM57 29L57 33L56 33L56 34L58 34L58 32L59 32L59 29ZM6 30L6 31L7 31L7 30ZM27 30L27 31L28 31L28 30ZM30 30L30 31L31 31L31 30ZM34 30L34 31L36 31L36 30ZM54 30L54 31L55 31L55 30ZM3 31L3 32L4 32L4 31ZM18 31L18 32L19 32L19 31ZM23 31L23 32L24 32L24 31ZM27 34L27 35L28 35L28 34ZM34 34L34 35L36 35L36 34ZM46 34L46 35L47 35L47 34ZM15 35L15 36L16 36L16 35ZM30 35L30 36L29 36L29 37L28 37L28 36L27 36L27 37L26 37L26 38L27 38L27 39L28 39L28 38L29 38L29 37L31 37L31 38L30 38L30 39L31 39L31 40L29 40L29 41L32 41L32 39L31 39L31 38L32 38L32 37L31 37L31 36L32 36L32 35ZM33 36L33 37L34 37L34 36ZM36 36L36 37L35 37L35 38L36 38L36 37L37 37L37 36ZM60 36L60 37L61 37L61 36ZM24 37L24 38L25 38L25 37ZM27 37L27 38L28 38L28 37ZM42 37L42 38L43 38L43 37ZM44 37L44 38L45 38L45 39L42 39L42 40L43 40L43 41L41 41L41 42L43 42L43 43L42 43L42 44L43 44L43 43L44 43L44 40L45 40L45 41L46 41L46 40L45 40L45 39L46 39L46 38L45 38L45 37ZM56 37L56 38L57 38L57 37ZM8 39L8 41L9 41L9 39ZM16 40L16 41L18 41L18 40ZM11 41L11 42L13 42L13 41ZM34 41L34 42L35 42L35 41ZM48 42L48 43L49 43L49 42ZM6 43L6 44L7 44L7 43ZM9 43L9 46L11 46L11 45L10 45L10 43ZM16 43L16 44L17 44L17 45L15 45L15 46L17 46L17 48L16 48L16 49L17 49L17 50L18 50L18 49L17 49L17 48L19 48L19 49L20 49L20 48L19 48L19 47L18 47L18 46L19 46L19 45L18 45L18 43ZM44 45L44 46L45 46L45 45ZM30 46L30 47L31 47L31 46ZM36 48L36 49L37 49L37 48ZM54 48L54 49L55 49L55 50L56 50L56 49L55 49L55 48ZM2 49L2 50L3 50L3 49ZM8 50L8 51L9 51L9 50ZM3 51L3 52L4 52L4 51ZM17 51L17 52L19 52L19 51ZM40 51L40 52L39 52L39 53L40 53L40 52L41 52L41 51ZM48 51L48 52L49 52L49 51ZM6 52L6 53L7 53L7 52ZM21 52L21 53L23 53L23 52ZM29 53L29 56L32 56L32 53ZM53 53L53 56L56 56L56 53ZM30 54L30 55L31 55L31 54ZM36 54L36 55L39 55L39 54ZM48 54L48 55L49 55L49 54ZM54 54L54 55L55 55L55 54ZM38 56L38 57L39 57L39 56ZM30 58L30 59L31 59L31 60L32 60L32 59L31 59L31 58ZM36 58L36 59L37 59L37 58ZM38 58L38 59L39 59L39 58ZM33 59L33 60L34 60L34 59ZM40 59L40 60L39 60L39 61L40 61L40 60L41 60L41 59ZM36 60L36 61L38 61L38 60ZM0 0L0 7L7 7L7 0ZM1 1L1 6L6 6L6 1ZM2 2L2 5L5 5L5 2ZM54 0L54 7L61 7L61 0ZM55 1L55 6L60 6L60 1ZM56 2L56 5L59 5L59 2ZM0 54L0 61L7 61L7 54ZM1 55L1 60L6 60L6 55ZM2 56L2 59L5 59L5 56Z" fill="#000000"/></g></g></svg>
