<?xml version="1.0" encoding="UTF-8"?>
<svg xmlns="http://www.w3.org/2000/svg" version="1.1" width="300" height="300" viewBox="0 0 300 300"><rect x="0" y="0" width="300" height="300" fill="#ffffff"/><g transform="scale(4.918)"><g transform="translate(0,0)"><path fill-rule="evenodd" d="M8 0L8 1L9 1L9 2L12 2L12 3L11 3L11 4L15 4L15 3L17 3L17 5L18 5L18 4L19 4L19 3L17 3L17 2L21 2L21 3L22 3L22 4L20 4L20 5L21 5L21 6L20 6L20 7L21 7L21 6L22 6L22 7L23 7L23 6L22 6L22 5L23 5L23 3L24 3L24 2L23 2L23 0L20 0L20 1L19 1L19 0L14 0L14 1L15 1L15 2L13 2L13 1L12 1L12 0ZM27 0L27 1L28 1L28 2L27 2L27 3L26 3L26 1L25 1L25 4L24 4L24 7L25 7L25 8L27 8L27 10L26 10L26 12L25 12L25 9L23 9L23 8L22 8L22 9L23 9L23 10L24 10L24 12L25 12L25 13L24 13L24 14L25 14L25 15L24 15L24 16L23 16L23 11L21 11L21 9L20 9L20 10L19 10L19 9L18 9L18 8L17 8L17 6L16 6L16 5L15 5L15 6L14 6L14 8L15 8L15 10L14 10L14 11L12 11L12 10L13 10L13 5L11 5L11 6L10 6L10 7L11 7L11 6L12 6L12 9L11 9L11 8L9 8L9 6L8 6L8 8L9 8L9 9L10 9L10 10L11 10L11 11L12 11L12 13L13 13L13 12L14 12L14 13L15 13L15 14L14 14L14 15L15 15L15 18L13 18L13 17L14 17L14 16L13 16L13 14L12 14L12 16L11 16L11 14L10 14L10 15L9 15L9 14L8 14L8 13L9 13L9 12L10 12L10 13L11 13L11 12L10 12L10 11L9 11L9 10L8 10L8 11L7 11L7 10L6 10L6 9L7 9L7 8L6 8L6 9L5 9L5 8L3 8L3 9L2 9L2 8L0 8L0 9L2 9L2 12L1 12L1 13L2 13L2 14L0 14L0 16L5 16L5 17L7 17L7 18L4 18L4 17L3 17L3 18L2 18L2 19L1 19L1 20L0 20L0 21L2 21L2 22L3 22L3 21L2 21L2 20L4 20L4 21L5 21L5 22L4 22L4 23L7 23L7 24L5 24L5 28L3 28L3 29L2 29L2 31L1 31L1 30L0 30L0 32L1 32L1 33L0 33L0 36L1 36L1 38L0 38L0 40L2 40L2 41L1 41L1 42L2 42L2 41L3 41L3 40L2 40L2 39L3 39L3 37L4 37L4 38L6 38L6 39L5 39L5 41L4 41L4 42L5 42L5 43L2 43L2 45L3 45L3 44L4 44L4 47L7 47L7 48L5 48L5 50L4 50L4 49L3 49L3 48L2 48L2 46L1 46L1 47L0 47L0 48L1 48L1 49L2 49L2 51L0 51L0 53L4 53L4 52L5 52L5 51L7 51L7 52L6 52L6 53L7 53L7 52L8 52L8 49L9 49L9 50L10 50L10 51L9 51L9 53L8 53L8 54L9 54L9 56L8 56L8 58L10 58L10 57L12 57L12 56L13 56L13 58L11 58L11 59L8 59L8 61L9 61L9 60L10 60L10 61L11 61L11 60L14 60L14 61L16 61L16 58L18 58L18 59L17 59L17 60L18 60L18 61L19 61L19 60L22 60L22 61L24 61L24 60L23 60L23 59L26 59L26 61L27 61L27 59L26 59L26 58L25 58L25 57L26 57L26 56L25 56L25 57L23 57L23 56L24 56L24 55L27 55L27 52L26 52L26 54L25 54L25 53L24 53L24 52L25 52L25 51L26 51L26 49L27 49L27 51L28 51L28 56L27 56L27 57L28 57L28 58L29 58L29 60L28 60L28 61L33 61L33 60L34 60L34 61L35 61L35 60L36 60L36 61L37 61L37 60L39 60L39 61L42 61L42 60L43 60L43 61L45 61L45 60L46 60L46 61L50 61L50 60L48 60L48 58L49 58L49 57L50 57L50 58L52 58L52 57L54 57L54 58L55 58L55 59L53 59L53 61L54 61L54 60L55 60L55 61L58 61L58 60L60 60L60 61L61 61L61 54L60 54L60 52L59 52L59 51L61 51L61 50L58 50L58 48L59 48L59 49L61 49L61 48L60 48L60 47L61 47L61 46L58 46L58 48L57 48L57 49L56 49L56 50L57 50L57 51L56 51L56 52L52 52L52 51L55 51L55 48L54 48L54 49L52 49L52 47L51 47L51 48L50 48L50 47L49 47L49 48L47 48L47 44L45 44L45 45L44 45L44 44L43 44L43 43L42 43L42 42L44 42L44 43L46 43L46 42L48 42L48 41L49 41L49 44L48 44L48 46L49 46L49 44L50 44L50 46L51 46L51 45L53 45L53 46L54 46L54 47L56 47L56 46L57 46L57 43L58 43L58 42L59 42L59 44L60 44L60 45L61 45L61 42L59 42L59 39L60 39L60 40L61 40L61 38L59 38L59 39L58 39L58 38L57 38L57 37L56 37L56 36L55 36L55 37L56 37L56 38L57 38L57 41L58 41L58 42L57 42L57 43L56 43L56 40L54 40L54 39L55 39L55 38L54 38L54 39L53 39L53 38L52 38L52 39L51 39L51 37L52 37L52 34L53 34L53 33L55 33L55 34L54 34L54 35L53 35L53 37L54 37L54 35L55 35L55 34L57 34L57 36L59 36L59 34L60 34L60 37L61 37L61 34L60 34L60 33L61 33L61 32L60 32L60 33L58 33L58 34L57 34L57 32L58 32L58 30L57 30L57 29L61 29L61 26L60 26L60 24L61 24L61 22L60 22L60 21L61 21L61 18L60 18L60 17L59 17L59 16L61 16L61 14L60 14L60 15L58 15L58 14L57 14L57 13L58 13L58 12L59 12L59 13L60 13L60 12L59 12L59 11L61 11L61 10L59 10L59 9L57 9L57 10L56 10L56 14L55 14L55 11L54 11L54 13L53 13L53 14L52 14L52 12L53 12L53 11L52 11L52 10L55 10L55 8L54 8L54 9L52 9L52 7L53 7L53 6L52 6L52 7L51 7L51 5L52 5L52 4L53 4L53 0L51 0L51 2L50 2L50 0L48 0L48 1L47 1L47 0L44 0L44 1L43 1L43 0L42 0L42 1L43 1L43 2L41 2L41 3L40 3L40 2L39 2L39 4L38 4L38 2L37 2L37 1L39 1L39 0L36 0L36 2L37 2L37 3L34 3L34 4L35 4L35 6L34 6L34 7L33 7L33 3L32 3L32 4L27 4L27 3L29 3L29 2L30 2L30 3L31 3L31 2L30 2L30 0ZM31 0L31 1L32 1L32 2L35 2L35 0L34 0L34 1L32 1L32 0ZM40 0L40 1L41 1L41 0ZM16 1L16 2L17 2L17 1ZM21 1L21 2L22 2L22 3L23 3L23 2L22 2L22 1ZM45 1L45 5L43 5L43 7L42 7L42 6L41 6L41 5L42 5L42 4L44 4L44 2L43 2L43 3L41 3L41 5L40 5L40 6L39 6L39 7L38 7L38 6L37 6L37 7L36 7L36 6L35 6L35 8L33 8L33 9L32 9L32 10L33 10L33 9L35 9L35 11L34 11L34 12L35 12L35 13L34 13L34 15L33 15L33 13L32 13L32 14L30 14L30 13L31 13L31 12L32 12L32 11L31 11L31 12L30 12L30 10L31 10L31 9L29 9L29 12L30 12L30 13L28 13L28 12L27 12L27 13L26 13L26 16L25 16L25 19L24 19L24 18L23 18L23 19L24 19L24 20L23 20L23 21L26 21L26 22L25 22L25 23L23 23L23 24L24 24L24 25L26 25L26 26L23 26L23 28L21 28L21 27L22 27L22 19L21 19L21 14L20 14L20 13L22 13L22 12L21 12L21 11L18 11L18 12L16 12L16 11L14 11L14 12L16 12L16 19L18 19L18 18L19 18L19 19L21 19L21 22L20 22L20 21L18 21L18 20L16 20L16 21L17 21L17 22L15 22L15 21L14 21L14 22L15 22L15 25L14 25L14 26L13 26L13 27L12 27L12 25L11 25L11 24L13 24L13 23L12 23L12 22L13 22L13 20L12 20L12 19L13 19L13 18L12 18L12 17L13 17L13 16L12 16L12 17L10 17L10 16L9 16L9 17L8 17L8 18L7 18L7 19L6 19L6 20L5 20L5 21L6 21L6 22L8 22L8 24L9 24L9 25L10 25L10 26L9 26L9 27L8 27L8 28L9 28L9 29L11 29L11 30L12 30L12 33L11 33L11 34L9 34L9 33L6 33L6 34L9 34L9 35L8 35L8 36L7 36L7 35L6 35L6 36L7 36L7 37L6 37L6 38L9 38L9 36L11 36L11 38L12 38L12 39L14 39L14 38L15 38L15 36L16 36L16 38L17 38L17 36L16 36L16 35L17 35L17 34L16 34L16 32L15 32L15 31L17 31L17 32L19 32L19 31L17 31L17 30L15 30L15 29L14 29L14 28L15 28L15 27L14 27L14 26L15 26L15 25L16 25L16 26L17 26L17 24L18 24L18 23L17 23L17 22L19 22L19 24L21 24L21 25L19 25L19 26L18 26L18 27L17 27L17 29L18 29L18 30L19 30L19 29L20 29L20 31L21 31L21 34L19 34L19 33L18 33L18 34L19 34L19 35L18 35L18 36L20 36L20 37L21 37L21 38L20 38L20 39L19 39L19 37L18 37L18 39L17 39L17 41L19 41L19 43L20 43L20 42L21 42L21 43L23 43L23 45L22 45L22 44L21 44L21 46L19 46L19 45L20 45L20 44L19 44L19 45L18 45L18 46L15 46L15 44L16 44L16 45L17 45L17 42L16 42L16 43L13 43L13 42L15 42L15 41L16 41L16 40L15 40L15 41L13 41L13 42L12 42L12 40L10 40L10 39L9 39L9 40L7 40L7 39L6 39L6 40L7 40L7 41L6 41L6 42L7 42L7 41L8 41L8 42L12 42L12 43L8 43L8 44L7 44L7 43L5 43L5 44L7 44L7 45L6 45L6 46L7 46L7 45L8 45L8 46L10 46L10 47L8 47L8 48L9 48L9 49L10 49L10 47L15 47L15 48L18 48L18 47L19 47L19 48L20 48L20 49L21 49L21 46L22 46L22 47L23 47L23 49L22 49L22 51L23 51L23 52L21 52L21 51L19 51L19 49L17 49L17 50L16 50L16 52L20 52L20 54L19 54L19 53L18 53L18 54L19 54L19 56L20 56L20 58L19 58L19 59L21 59L21 56L22 56L22 55L21 55L21 54L23 54L23 52L24 52L24 51L25 51L25 50L23 50L23 49L26 49L26 46L27 46L27 43L26 43L26 44L25 44L25 43L24 43L24 41L25 41L25 40L24 40L24 39L25 39L25 38L23 38L23 40L22 40L22 41L19 41L19 40L20 40L20 39L22 39L22 35L23 35L23 36L24 36L24 37L25 37L25 36L26 36L26 34L27 34L27 32L28 32L28 30L26 30L26 26L28 26L28 27L29 27L29 26L28 26L28 25L26 25L26 24L27 24L27 23L28 23L28 22L30 22L30 23L29 23L29 24L30 24L30 25L32 25L32 27L31 27L31 26L30 26L30 27L31 27L31 28L33 28L33 29L36 29L36 30L34 30L34 32L35 32L35 31L36 31L36 32L38 32L38 33L37 33L37 35L36 35L36 34L35 34L35 35L36 35L36 36L37 36L37 37L38 37L38 36L42 36L42 37L43 37L43 38L44 38L44 40L45 40L45 39L46 39L46 40L47 40L47 41L48 41L48 40L51 40L51 39L48 39L48 38L50 38L50 37L51 37L51 34L52 34L52 30L51 30L51 29L50 29L50 30L49 30L49 29L48 29L48 26L47 26L47 25L48 25L48 24L49 24L49 26L50 26L50 25L51 25L51 24L52 24L52 27L49 27L49 28L52 28L52 27L54 27L54 28L58 28L58 26L59 26L59 24L60 24L60 22L59 22L59 24L57 24L57 25L58 25L58 26L56 26L56 24L54 24L54 23L56 23L56 22L58 22L58 21L59 21L59 20L60 20L60 19L56 19L56 18L57 18L57 17L58 17L58 18L59 18L59 17L58 17L58 15L55 15L55 14L53 14L53 15L52 15L52 16L54 16L54 17L55 17L55 18L51 18L51 17L50 17L50 18L49 18L49 17L48 17L48 18L46 18L46 17L47 17L47 15L48 15L48 16L49 16L49 15L48 15L48 14L50 14L50 12L51 12L51 11L49 11L49 13L48 13L48 12L46 12L46 11L44 11L44 10L45 10L45 9L46 9L46 5L47 5L47 4L48 4L48 5L49 5L49 7L48 7L48 6L47 6L47 8L51 8L51 7L50 7L50 5L49 5L49 4L48 4L48 3L49 3L49 2L48 2L48 3L47 3L47 2L46 2L46 1ZM9 3L9 4L10 4L10 3ZM51 3L51 4L52 4L52 3ZM25 4L25 5L27 5L27 7L28 7L28 5L27 5L27 4ZM37 4L37 5L38 5L38 4ZM29 5L29 8L32 8L32 5ZM15 6L15 8L16 8L16 9L17 9L17 10L18 10L18 9L17 9L17 8L16 8L16 6ZM18 6L18 7L19 7L19 6ZM25 6L25 7L26 7L26 6ZM30 6L30 7L31 7L31 6ZM40 6L40 11L39 11L39 12L38 12L38 17L40 17L40 15L42 15L42 14L43 14L43 15L44 15L44 14L45 14L45 13L46 13L46 12L44 12L44 13L42 13L42 12L43 12L43 11L41 11L41 10L43 10L43 9L44 9L44 8L43 8L43 9L41 9L41 6ZM44 6L44 7L45 7L45 6ZM37 7L37 8L35 8L35 9L37 9L37 10L39 10L39 9L37 9L37 8L38 8L38 7ZM60 8L60 9L61 9L61 8ZM3 9L3 12L2 12L2 13L3 13L3 12L4 12L4 9ZM47 9L47 11L48 11L48 9ZM58 10L58 11L59 11L59 10ZM5 11L5 13L4 13L4 14L2 14L2 15L5 15L5 16L7 16L7 15L6 15L6 14L7 14L7 13L8 13L8 12L9 12L9 11L8 11L8 12L7 12L7 11ZM35 11L35 12L36 12L36 13L35 13L35 14L36 14L36 15L37 15L37 12L36 12L36 11ZM40 11L40 12L41 12L41 11ZM6 12L6 13L5 13L5 14L6 14L6 13L7 13L7 12ZM18 12L18 13L19 13L19 12ZM39 13L39 14L40 14L40 13ZM41 13L41 14L42 14L42 13ZM47 13L47 14L48 14L48 13ZM18 14L18 15L17 15L17 18L18 18L18 17L20 17L20 16L18 16L18 15L19 15L19 14ZM27 14L27 16L26 16L26 18L27 18L27 16L28 16L28 18L29 18L29 21L30 21L30 22L31 22L31 23L30 23L30 24L31 24L31 23L32 23L32 25L33 25L33 24L34 24L34 25L35 25L35 27L34 27L34 26L33 26L33 27L34 27L34 28L35 28L35 27L37 27L37 28L36 28L36 29L37 29L37 31L38 31L38 29L40 29L40 31L39 31L39 33L38 33L38 34L39 34L39 35L40 35L40 34L39 34L39 33L41 33L41 34L43 34L43 32L44 32L44 31L46 31L46 30L47 30L47 32L48 32L48 33L49 33L49 35L50 35L50 34L51 34L51 31L49 31L49 30L48 30L48 29L46 29L46 28L47 28L47 27L46 27L46 25L45 25L45 24L46 24L46 23L48 23L48 22L47 22L47 19L46 19L46 18L44 18L44 19L46 19L46 22L44 22L44 24L43 24L43 25L42 25L42 26L43 26L43 27L42 27L42 28L43 28L43 27L44 27L44 25L45 25L45 28L44 28L44 29L46 29L46 30L43 30L43 29L40 29L40 27L41 27L41 24L42 24L42 23L43 23L43 21L44 21L44 20L43 20L43 19L42 19L42 18L43 18L43 17L46 17L46 15L45 15L45 16L43 16L43 17L42 17L42 18L41 18L41 19L40 19L40 18L39 18L39 19L38 19L38 18L37 18L37 16L36 16L36 17L35 17L35 15L34 15L34 16L33 16L33 17L30 17L30 16L31 16L31 15L30 15L30 14L29 14L29 15L28 15L28 14ZM54 15L54 16L55 16L55 15ZM22 16L22 17L23 17L23 16ZM56 16L56 17L57 17L57 16ZM0 17L0 18L1 18L1 17ZM9 17L9 18L8 18L8 19L7 19L7 20L6 20L6 21L8 21L8 20L9 20L9 22L10 22L10 23L9 23L9 24L11 24L11 21L12 21L12 20L11 20L11 19L12 19L12 18L10 18L10 17ZM9 18L9 19L10 19L10 18ZM30 18L30 19L32 19L32 20L33 20L33 21L31 21L31 20L30 20L30 21L31 21L31 22L33 22L33 23L34 23L34 24L35 24L35 25L36 25L36 24L37 24L37 27L38 27L38 24L39 24L39 26L40 26L40 24L41 24L41 21L40 21L40 19L39 19L39 20L38 20L38 19L36 19L36 20L38 20L38 21L35 21L35 22L38 22L38 24L37 24L37 23L36 23L36 24L35 24L35 23L34 23L34 22L33 22L33 21L34 21L34 19L35 19L35 18L33 18L33 19L32 19L32 18ZM48 18L48 19L49 19L49 20L48 20L48 21L49 21L49 24L51 24L51 23L52 23L52 24L53 24L53 26L55 26L55 25L54 25L54 24L53 24L53 23L54 23L54 22L56 22L56 21L54 21L54 22L53 22L53 21L49 21L49 20L56 20L56 19L49 19L49 18ZM14 19L14 20L15 20L15 19ZM41 19L41 20L42 20L42 21L43 21L43 20L42 20L42 19ZM10 20L10 21L11 21L11 20ZM27 20L27 21L28 21L28 20ZM57 20L57 21L58 21L58 20ZM38 21L38 22L39 22L39 23L40 23L40 22L39 22L39 21ZM0 22L0 23L1 23L1 25L0 25L0 27L1 27L1 28L0 28L0 29L1 29L1 28L2 28L2 27L1 27L1 26L2 26L2 25L3 25L3 27L4 27L4 24L2 24L2 23L1 23L1 22ZM26 22L26 23L25 23L25 24L26 24L26 23L27 23L27 22ZM50 22L50 23L51 23L51 22ZM16 23L16 24L17 24L17 23ZM6 25L6 26L7 26L7 25ZM10 26L10 27L9 27L9 28L10 28L10 27L11 27L11 26ZM19 26L19 28L18 28L18 29L19 29L19 28L20 28L20 27L21 27L21 26ZM6 27L6 28L7 28L7 27ZM24 27L24 28L23 28L23 29L21 29L21 30L24 30L24 31L22 31L22 32L23 32L23 33L22 33L22 34L24 34L24 35L25 35L25 33L26 33L26 32L27 32L27 31L25 31L25 29L24 29L24 28L25 28L25 27ZM59 27L59 28L60 28L60 27ZM11 28L11 29L12 29L12 30L14 30L14 31L13 31L13 32L14 32L14 33L13 33L13 34L12 34L12 35L13 35L13 36L12 36L12 38L14 38L14 35L13 35L13 34L14 34L14 33L15 33L15 32L14 32L14 31L15 31L15 30L14 30L14 29L12 29L12 28ZM27 28L27 29L28 29L28 28ZM37 28L37 29L38 29L38 28ZM3 29L3 30L4 30L4 29ZM5 29L5 32L8 32L8 29ZM29 29L29 32L32 32L32 29ZM53 29L53 32L56 32L56 29ZM6 30L6 31L7 31L7 30ZM30 30L30 31L31 31L31 30ZM41 30L41 32L42 32L42 31L43 31L43 30ZM54 30L54 31L55 31L55 30ZM60 30L60 31L61 31L61 30ZM2 31L2 32L3 32L3 33L2 33L2 34L3 34L3 33L4 33L4 31ZM9 31L9 32L11 32L11 31ZM24 31L24 33L25 33L25 31ZM48 31L48 32L49 32L49 33L50 33L50 32L49 32L49 31ZM45 32L45 34L44 34L44 35L42 35L42 36L43 36L43 37L44 37L44 38L45 38L45 37L46 37L46 36L47 36L47 37L50 37L50 36L47 36L47 35L48 35L48 34L47 34L47 33L46 33L46 32ZM28 33L28 36L27 36L27 37L26 37L26 38L27 38L27 37L28 37L28 38L29 38L29 39L31 39L31 41L30 41L30 43L31 43L31 44L32 44L32 43L31 43L31 42L33 42L33 45L35 45L35 47L36 47L36 48L34 48L34 47L33 47L33 46L32 46L32 45L28 45L28 46L29 46L29 47L27 47L27 48L29 48L29 50L28 50L28 51L29 51L29 52L32 52L32 51L31 51L31 49L30 49L30 46L32 46L32 47L31 47L31 48L32 48L32 49L33 49L33 51L35 51L35 52L33 52L33 54L34 54L34 55L33 55L33 56L34 56L34 57L31 57L31 58L30 58L30 59L31 59L31 60L32 60L32 59L33 59L33 58L34 58L34 57L35 57L35 58L36 58L36 57L35 57L35 56L34 56L34 55L36 55L36 56L37 56L37 57L38 57L38 56L40 56L40 55L39 55L39 54L41 54L41 53L42 53L42 51L43 51L43 50L42 50L42 49L43 49L43 48L44 48L44 45L43 45L43 46L42 46L42 45L40 45L40 47L39 47L39 46L37 46L37 45L39 45L39 43L41 43L41 44L42 44L42 43L41 43L41 42L42 42L42 41L43 41L43 40L42 40L42 38L41 38L41 37L39 37L39 40L40 40L40 41L38 41L38 42L37 42L37 41L36 41L36 40L37 40L37 38L36 38L36 37L34 37L34 39L33 39L33 40L32 40L32 38L31 38L31 37L30 37L30 34L32 34L32 37L33 37L33 34L34 34L34 33L30 33L30 34L29 34L29 33ZM4 34L4 37L5 37L5 34ZM45 34L45 36L46 36L46 34ZM1 35L1 36L3 36L3 35ZM37 35L37 36L38 36L38 35ZM1 38L1 39L2 39L2 38ZM35 38L35 39L34 39L34 40L33 40L33 41L34 41L34 42L35 42L35 43L37 43L37 44L35 44L35 45L37 45L37 44L38 44L38 43L39 43L39 42L38 42L38 43L37 43L37 42L36 42L36 41L35 41L35 39L36 39L36 38ZM9 40L9 41L10 41L10 40ZM23 40L23 41L24 41L24 40ZM28 40L28 44L29 44L29 40ZM41 40L41 41L40 41L40 42L41 42L41 41L42 41L42 40ZM44 41L44 42L46 42L46 41ZM50 41L50 43L52 43L52 44L53 44L53 45L54 45L54 44L55 44L55 43L54 43L54 44L53 44L53 43L52 43L52 42L51 42L51 41ZM54 41L54 42L55 42L55 41ZM8 44L8 45L9 45L9 44ZM10 44L10 45L12 45L12 44ZM23 45L23 46L25 46L25 45ZM45 45L45 47L46 47L46 45ZM41 47L41 48L39 48L39 49L38 49L38 48L36 48L36 50L35 50L35 51L37 51L37 49L38 49L38 52L39 52L39 53L40 53L40 52L39 52L39 49L42 49L42 48L43 48L43 47ZM11 48L11 50L12 50L12 48ZM13 48L13 49L14 49L14 50L13 50L13 51L14 51L14 53L13 53L13 56L16 56L16 57L14 57L14 60L15 60L15 58L16 58L16 57L18 57L18 56L17 56L17 54L16 54L16 55L14 55L14 53L15 53L15 51L14 51L14 50L15 50L15 49L14 49L14 48ZM33 48L33 49L34 49L34 48ZM45 48L45 49L44 49L44 50L45 50L45 51L44 51L44 52L43 52L43 54L42 54L42 55L41 55L41 56L43 56L43 57L44 57L44 58L42 58L42 59L44 59L44 58L45 58L45 59L46 59L46 57L47 57L47 56L50 56L50 57L51 57L51 56L50 56L50 55L51 55L51 54L52 54L52 53L50 53L50 55L48 55L48 54L49 54L49 53L48 53L48 54L46 54L46 53L45 53L45 54L46 54L46 55L44 55L44 56L43 56L43 54L44 54L44 52L51 52L51 51L48 51L48 50L50 50L50 49L46 49L46 48ZM6 49L6 50L7 50L7 49ZM45 49L45 50L46 50L46 49ZM29 50L29 51L30 51L30 50ZM40 50L40 51L41 51L41 50ZM3 51L3 52L4 52L4 51ZM11 51L11 52L10 52L10 55L11 55L11 54L12 54L12 53L11 53L11 52L12 52L12 51ZM35 52L35 53L34 53L34 54L35 54L35 53L36 53L36 54L38 54L38 53L37 53L37 52ZM29 53L29 56L32 56L32 53ZM53 53L53 56L56 56L56 53ZM30 54L30 55L31 55L31 54ZM54 54L54 55L55 55L55 54ZM57 54L57 55L58 55L58 56L57 56L57 57L55 57L55 58L60 58L60 56L59 56L59 55L60 55L60 54L59 54L59 55L58 55L58 54ZM9 56L9 57L10 57L10 56ZM45 56L45 57L46 57L46 56ZM22 57L22 59L23 59L23 57ZM39 57L39 58L37 58L37 59L36 59L36 60L37 60L37 59L39 59L39 58L40 58L40 60L41 60L41 57ZM55 59L55 60L56 60L56 59ZM57 59L57 60L58 60L58 59ZM51 60L51 61L52 61L52 60ZM0 0L0 7L7 7L7 0ZM1 1L1 6L6 6L6 1ZM2 2L2 5L5 5L5 2ZM54 0L54 7L61 7L61 0ZM55 1L55 6L60 6L60 1ZM56 2L56 5L59 5L59 2ZM0 54L0 61L7 61L7 54ZM1 55L1 60L6 60L6 55ZM2 56L2 59L5 59L5 56Z" fill="#000000"/></g></g></svg>
