<?xml version="1.0" encoding="UTF-8"?>
<svg xmlns="http://www.w3.org/2000/svg" version="1.1" width="300" height="300" viewBox="0 0 300 300"><rect x="0" y="0" width="300" height="300" fill="#ffffff"/><g transform="scale(4.918)"><g transform="translate(0,0)"><path fill-rule="evenodd" d="M8 0L8 4L9 4L9 5L8 5L8 7L9 7L9 8L11 8L11 9L10 9L10 11L12 11L12 14L13 14L13 15L11 15L11 16L6 16L6 17L5 17L5 16L4 16L4 17L5 17L5 18L6 18L6 19L4 19L4 18L3 18L3 17L2 17L2 16L3 16L3 15L8 15L8 14L5 14L5 13L7 13L7 12L6 12L6 11L7 11L7 10L8 10L8 9L7 9L7 8L4 8L4 9L2 9L2 8L0 8L0 9L1 9L1 10L0 10L0 13L2 13L2 14L0 14L0 17L2 17L2 19L1 19L1 20L3 20L3 21L1 21L1 22L0 22L0 24L1 24L1 27L0 27L0 29L1 29L1 30L0 30L0 32L2 32L2 34L4 34L4 33L8 33L8 35L7 35L7 34L6 34L6 35L5 35L5 37L7 37L7 38L6 38L6 39L5 39L5 38L3 38L3 37L4 37L4 36L3 36L3 37L2 37L2 38L0 38L0 42L1 42L1 43L0 43L0 45L1 45L1 46L0 46L0 47L1 47L1 46L3 46L3 47L2 47L2 48L0 48L0 50L1 50L1 49L3 49L3 50L2 50L2 51L0 51L0 53L4 53L4 52L5 52L5 51L7 51L7 52L6 52L6 53L8 53L8 54L9 54L9 53L10 53L10 54L11 54L11 56L12 56L12 55L14 55L14 56L13 56L13 58L11 58L11 57L10 57L10 55L8 55L8 57L9 57L9 59L8 59L8 61L9 61L9 60L12 60L12 61L14 61L14 60L16 60L16 61L17 61L17 60L18 60L18 61L20 61L20 60L21 60L21 61L22 61L22 60L24 60L24 59L25 59L25 58L27 58L27 59L26 59L26 60L25 60L25 61L28 61L28 60L30 60L30 61L31 61L31 60L30 60L30 59L28 59L28 58L29 58L29 57L30 57L30 58L31 58L31 59L32 59L32 61L33 61L33 60L35 60L35 61L37 61L37 59L40 59L40 55L41 55L41 61L42 61L42 59L43 59L43 55L44 55L44 57L45 57L45 59L44 59L44 61L46 61L46 60L47 60L47 61L52 61L52 59L53 59L53 58L52 58L52 59L51 59L51 56L50 56L50 55L52 55L52 57L55 57L55 58L56 58L56 57L58 57L58 60L56 60L56 61L61 61L61 60L60 60L60 58L61 58L61 57L60 57L60 58L59 58L59 54L58 54L58 53L59 53L59 52L60 52L60 53L61 53L61 51L58 51L58 49L59 49L59 50L60 50L60 49L61 49L61 47L60 47L60 46L58 46L58 45L59 45L59 43L60 43L60 42L61 42L61 41L60 41L60 40L61 40L61 39L60 39L60 40L59 40L59 39L58 39L58 38L57 38L57 37L61 37L61 36L60 36L60 35L58 35L58 34L57 34L57 31L58 31L58 33L59 33L59 34L60 34L60 33L61 33L61 31L60 31L60 28L61 28L61 27L59 27L59 26L60 26L60 24L61 24L61 23L58 23L58 22L57 22L57 21L59 21L59 20L60 20L60 21L61 21L61 19L58 19L58 18L56 18L56 17L57 17L57 15L55 15L55 14L57 14L57 11L58 11L58 13L59 13L59 11L60 11L60 12L61 12L61 11L60 11L60 10L59 10L59 9L61 9L61 8L57 8L57 11L55 11L55 10L56 10L56 8L55 8L55 9L53 9L53 6L52 6L52 7L51 7L51 5L52 5L52 4L53 4L53 0L51 0L51 2L50 2L50 5L49 5L49 4L47 4L47 5L46 5L46 7L45 7L45 6L44 6L44 4L42 4L42 5L43 5L43 6L42 6L42 7L41 7L41 6L40 6L40 4L41 4L41 3L40 3L40 2L38 2L38 1L39 1L39 0L37 0L37 1L36 1L36 3L37 3L37 2L38 2L38 3L40 3L40 4L37 4L37 5L36 5L36 7L35 7L35 5L34 5L34 4L35 4L35 3L34 3L34 4L32 4L32 2L33 2L33 1L34 1L34 2L35 2L35 1L34 1L34 0L33 0L33 1L32 1L32 2L31 2L31 3L29 3L29 4L28 4L28 0L27 0L27 2L26 2L26 0L25 0L25 2L24 2L24 4L23 4L23 3L22 3L22 5L21 5L21 3L19 3L19 2L20 2L20 1L21 1L21 2L23 2L23 1L24 1L24 0L23 0L23 1L21 1L21 0L19 0L19 1L18 1L18 0L17 0L17 2L16 2L16 1L15 1L15 0L14 0L14 2L15 2L15 5L16 5L16 7L15 7L15 6L14 6L14 7L15 7L15 8L11 8L11 6L12 6L12 7L13 7L13 5L14 5L14 3L13 3L13 1L12 1L12 0L11 0L11 1L12 1L12 3L11 3L11 2L10 2L10 4L9 4L9 1L10 1L10 0ZM30 0L30 1L29 1L29 2L30 2L30 1L31 1L31 0ZM40 0L40 1L41 1L41 2L42 2L42 1L43 1L43 2L44 2L44 3L45 3L45 4L46 4L46 3L49 3L49 2L47 2L47 1L50 1L50 0L47 0L47 1L46 1L46 2L45 2L45 1L44 1L44 0L42 0L42 1L41 1L41 0ZM25 2L25 4L26 4L26 5L27 5L27 7L26 7L26 6L25 6L25 5L23 5L23 7L24 7L24 8L22 8L22 9L21 9L21 10L20 10L20 11L19 11L19 10L18 10L18 9L20 9L20 8L21 8L21 7L22 7L22 6L21 6L21 5L20 5L20 4L19 4L19 3L18 3L18 4L17 4L17 3L16 3L16 5L18 5L18 6L17 6L17 7L18 7L18 6L19 6L19 8L18 8L18 9L16 9L16 8L15 8L15 9L14 9L14 10L13 10L13 9L12 9L12 11L14 11L14 12L13 12L13 13L14 13L14 14L15 14L15 15L16 15L16 14L20 14L20 15L19 15L19 16L20 16L20 17L22 17L22 18L20 18L20 20L19 20L19 21L18 21L18 20L17 20L17 18L18 18L18 19L19 19L19 17L18 17L18 16L14 16L14 15L13 15L13 17L12 17L12 18L13 18L13 19L11 19L11 18L10 18L10 17L6 17L6 18L9 18L9 20L8 20L8 21L6 21L6 22L5 22L5 21L4 21L4 25L2 25L2 26L3 26L3 27L5 27L5 28L7 28L7 27L5 27L5 26L7 26L7 25L9 25L9 27L8 27L8 28L9 28L9 30L10 30L10 31L9 31L9 32L12 32L12 34L11 34L11 33L9 33L9 36L7 36L7 35L6 35L6 36L7 36L7 37L8 37L8 39L9 39L9 41L10 41L10 43L9 43L9 44L10 44L10 46L11 46L11 47L12 47L12 48L14 48L14 50L13 50L13 49L12 49L12 50L11 50L11 48L10 48L10 47L9 47L9 46L8 46L8 43L6 43L6 42L7 42L7 41L8 41L8 40L7 40L7 39L6 39L6 40L5 40L5 39L3 39L3 38L2 38L2 39L1 39L1 41L2 41L2 44L1 44L1 45L3 45L3 46L4 46L4 45L3 45L3 44L5 44L5 47L3 47L3 49L5 49L5 48L8 48L8 49L9 49L9 48L10 48L10 50L7 50L7 49L6 49L6 50L7 50L7 51L10 51L10 52L11 52L11 53L12 53L12 54L14 54L14 55L15 55L15 53L13 53L13 51L14 51L14 50L15 50L15 49L18 49L18 50L19 50L19 51L21 51L21 50L20 50L20 49L22 49L22 52L21 52L21 55L20 55L20 53L18 53L18 51L17 51L17 50L16 50L16 51L15 51L15 52L17 52L17 53L16 53L16 55L17 55L17 56L14 56L14 59L13 59L13 60L14 60L14 59L15 59L15 57L16 57L16 59L18 59L18 60L19 60L19 59L20 59L20 58L21 58L21 59L22 59L22 57L23 57L23 58L24 58L24 57L27 57L27 58L28 58L28 54L27 54L27 53L28 53L28 51L27 51L27 49L25 49L25 50L24 50L24 49L23 49L23 48L24 48L24 47L25 47L25 48L26 48L26 46L27 46L27 48L31 48L31 47L33 47L33 48L32 48L32 49L30 49L30 51L29 51L29 52L31 52L31 50L32 50L32 52L33 52L33 51L35 51L35 52L34 52L34 53L33 53L33 55L34 55L34 54L35 54L35 53L36 53L36 51L37 51L37 52L39 52L39 51L40 51L40 53L44 53L44 54L45 54L45 53L44 53L44 52L45 52L45 51L47 51L47 50L48 50L48 51L49 51L49 52L50 52L50 53L46 53L46 54L47 54L47 55L48 55L48 54L49 54L49 55L50 55L50 53L51 53L51 54L52 54L52 52L54 52L54 51L55 51L55 52L57 52L57 53L58 53L58 52L57 52L57 50L55 50L55 49L57 49L57 48L58 48L58 46L57 46L57 47L55 47L55 46L56 46L56 45L58 45L58 43L57 43L57 42L56 42L56 41L58 41L58 39L56 39L56 38L55 38L55 37L57 37L57 34L56 34L56 36L55 36L55 37L54 37L54 36L53 36L53 35L51 35L51 39L52 39L52 40L51 40L51 41L52 41L52 42L53 42L53 43L54 43L54 44L52 44L52 43L50 43L50 38L48 38L48 39L47 39L47 40L46 40L46 42L44 42L44 40L43 40L43 39L44 39L44 37L43 37L43 36L44 36L44 35L43 35L43 34L45 34L45 35L47 35L47 36L48 36L48 35L47 35L47 34L49 34L49 35L50 35L50 34L49 34L49 33L48 33L48 31L47 31L47 29L46 29L46 28L48 28L48 27L50 27L50 28L49 28L49 31L50 31L50 29L52 29L52 28L51 28L51 27L50 27L50 25L51 25L51 26L52 26L52 27L53 27L53 25L55 25L55 26L56 26L56 27L57 27L57 30L58 30L58 31L59 31L59 30L58 30L58 26L59 26L59 25L57 25L57 26L56 26L56 24L55 24L55 23L53 23L53 22L54 22L54 20L56 20L56 18L55 18L55 19L54 19L54 20L53 20L53 18L54 18L54 17L56 17L56 16L54 16L54 17L52 17L52 16L53 16L53 15L54 15L54 13L55 13L55 11L54 11L54 10L53 10L53 9L51 9L51 8L50 8L50 9L49 9L49 10L48 10L48 9L47 9L47 7L48 7L48 6L49 6L49 7L50 7L50 6L49 6L49 5L47 5L47 7L46 7L46 11L45 11L45 9L44 9L44 10L43 10L43 11L42 11L42 10L41 10L41 9L43 9L43 8L41 8L41 7L40 7L40 6L39 6L39 5L37 5L37 7L38 7L38 6L39 6L39 7L40 7L40 11L38 11L38 9L39 9L39 8L38 8L38 9L36 9L36 10L35 10L35 7L34 7L34 6L33 6L33 8L34 8L34 9L33 9L33 10L34 10L34 11L33 11L33 12L32 12L32 11L31 11L31 10L29 10L29 9L28 9L28 5L27 5L27 3L26 3L26 2ZM12 3L12 5L13 5L13 3ZM51 3L51 4L52 4L52 3ZM9 5L9 7L10 7L10 6L11 6L11 5ZM29 5L29 8L32 8L32 5ZM20 6L20 7L21 7L21 6ZM24 6L24 7L25 7L25 9L22 9L22 10L23 10L23 11L22 11L22 12L24 12L24 11L25 11L25 12L26 12L26 13L22 13L22 14L21 14L21 13L20 13L20 12L19 12L19 11L18 11L18 10L16 10L16 11L18 11L18 12L14 12L14 13L15 13L15 14L16 14L16 13L20 13L20 14L21 14L21 15L20 15L20 16L21 16L21 15L22 15L22 16L23 16L23 17L24 17L24 18L26 18L26 17L27 17L27 16L28 16L28 17L31 17L31 21L29 21L29 19L28 19L28 18L27 18L27 19L26 19L26 21L24 21L24 22L23 22L23 21L22 21L22 22L21 22L21 21L20 21L20 22L19 22L19 23L20 23L20 24L18 24L18 25L17 25L17 23L18 23L18 21L17 21L17 20L15 20L15 19L16 19L16 18L17 18L17 17L13 17L13 18L15 18L15 19L13 19L13 20L12 20L12 22L13 22L13 23L12 23L12 24L11 24L11 22L10 22L10 23L9 23L9 24L10 24L10 25L11 25L11 27L12 27L12 28L10 28L10 30L11 30L11 31L13 31L13 34L12 34L12 35L13 35L13 36L10 36L10 37L9 37L9 39L11 39L11 40L10 40L10 41L11 41L11 43L12 43L12 44L11 44L11 45L12 45L12 46L13 46L13 47L14 47L14 48L17 48L17 47L18 47L18 49L20 49L20 48L19 48L19 47L20 47L20 46L21 46L21 47L22 47L22 48L23 48L23 47L24 47L24 46L26 46L26 45L27 45L27 44L26 44L26 43L24 43L24 42L25 42L25 41L26 41L26 42L27 42L27 43L28 43L28 44L30 44L30 45L28 45L28 47L30 47L30 45L32 45L32 43L33 43L33 44L34 44L34 45L33 45L33 46L34 46L34 45L35 45L35 47L34 47L34 48L33 48L33 50L34 50L34 48L36 48L36 49L38 49L38 50L37 50L37 51L39 51L39 48L40 48L40 47L41 47L41 48L43 48L43 47L44 47L44 51L45 51L45 50L46 50L46 48L47 48L47 47L48 47L48 49L50 49L50 51L53 51L53 50L52 50L52 49L53 49L53 48L52 48L52 49L50 49L50 48L49 48L49 47L48 47L48 46L49 46L49 43L47 43L47 44L46 44L46 45L45 45L45 43L44 43L44 42L43 42L43 41L40 41L40 40L39 40L39 38L40 38L40 39L41 39L41 40L42 40L42 39L43 39L43 37L42 37L42 38L40 38L40 35L41 35L41 36L43 36L43 35L41 35L41 34L43 34L43 33L40 33L40 34L39 34L39 33L38 33L38 32L37 32L37 31L36 31L36 29L37 29L37 26L36 26L36 27L35 27L35 28L36 28L36 29L35 29L35 32L36 32L36 33L38 33L38 34L37 34L37 35L36 35L36 34L35 34L35 35L36 35L36 38L35 38L35 36L34 36L34 37L33 37L33 38L32 38L32 39L31 39L31 40L30 40L30 41L33 41L33 40L34 40L34 41L35 41L35 42L37 42L37 41L38 41L38 43L36 43L36 44L35 44L35 43L34 43L34 42L32 42L32 43L30 43L30 42L29 42L29 41L28 41L28 40L29 40L29 39L28 39L28 37L27 37L27 36L28 36L28 35L29 35L29 37L30 37L30 38L31 38L31 37L30 37L30 36L32 36L32 35L34 35L34 30L33 30L33 28L32 28L32 27L31 27L31 28L29 28L29 27L30 27L30 26L31 26L31 25L30 25L30 26L29 26L29 24L30 24L30 23L28 23L28 24L27 24L27 19L28 19L28 21L29 21L29 22L31 22L31 23L32 23L32 21L34 21L34 20L32 20L32 17L33 17L33 19L34 19L34 17L33 17L33 16L32 16L32 17L31 17L31 16L30 16L30 15L27 15L27 16L25 16L25 15L26 15L26 13L27 13L27 14L29 14L29 13L30 13L30 14L31 14L31 15L32 15L32 13L30 13L30 12L28 12L28 13L27 13L27 12L26 12L26 11L29 11L29 10L28 10L28 9L27 9L27 8L26 8L26 7L25 7L25 6ZM30 6L30 7L31 7L31 6ZM43 6L43 7L44 7L44 6ZM6 9L6 10L4 10L4 11L3 11L3 12L4 12L4 13L5 13L5 11L6 11L6 10L7 10L7 9ZM25 9L25 10L26 10L26 9ZM50 9L50 10L49 10L49 11L47 11L47 12L45 12L45 11L44 11L44 13L42 13L42 15L41 15L41 13L40 13L40 14L39 14L39 13L38 13L38 15L36 15L36 14L35 14L35 16L36 16L36 19L35 19L35 20L36 20L36 22L37 22L37 23L35 23L35 22L33 22L33 24L32 24L32 26L33 26L33 24L34 24L34 25L37 25L37 23L39 23L39 25L38 25L38 27L39 27L39 26L40 26L40 27L41 27L41 28L42 28L42 31L41 31L41 30L40 30L40 29L39 29L39 28L38 28L38 31L41 31L41 32L42 32L42 31L43 31L43 28L44 28L44 33L45 33L45 34L46 34L46 33L47 33L47 31L46 31L46 29L45 29L45 27L46 27L46 25L47 25L47 27L48 27L48 25L49 25L49 24L51 24L51 25L53 25L53 23L52 23L52 21L50 21L50 20L49 20L49 19L48 19L48 18L47 18L47 21L48 21L48 22L50 22L50 23L48 23L48 24L46 24L46 25L45 25L45 23L46 23L46 22L45 22L45 23L44 23L44 24L43 24L43 22L44 22L44 21L45 21L45 19L46 19L46 18L44 18L44 17L45 17L45 15L46 15L46 13L47 13L47 15L48 15L48 17L49 17L49 18L50 18L50 19L51 19L51 18L52 18L52 17L51 17L51 16L50 16L50 17L49 17L49 15L48 15L48 13L49 13L49 12L50 12L50 15L52 15L52 13L53 13L53 12L54 12L54 11L53 11L53 12L52 12L52 10L51 10L51 9ZM1 10L1 11L2 11L2 10ZM14 10L14 11L15 11L15 10ZM36 10L36 12L35 12L35 13L37 13L37 12L38 12L38 11L37 11L37 10ZM50 10L50 12L51 12L51 13L52 13L52 12L51 12L51 10ZM58 10L58 11L59 11L59 10ZM8 11L8 12L9 12L9 11ZM41 11L41 12L42 12L42 11ZM10 12L10 14L9 14L9 15L10 15L10 14L11 14L11 12ZM33 12L33 13L34 13L34 12ZM47 12L47 13L48 13L48 12ZM2 14L2 15L3 15L3 14ZM33 14L33 15L34 15L34 14ZM44 14L44 15L43 15L43 16L41 16L41 15L39 15L39 18L40 18L40 21L39 21L39 19L38 19L38 18L37 18L37 19L38 19L38 20L37 20L37 21L39 21L39 23L40 23L40 26L42 26L42 25L43 25L43 24L42 24L42 25L41 25L41 23L42 23L42 21L43 21L43 19L42 19L42 20L41 20L41 18L42 18L42 17L43 17L43 16L44 16L44 15L45 15L45 14ZM58 14L58 17L59 17L59 16L61 16L61 15L60 15L60 14ZM23 15L23 16L24 16L24 15ZM40 17L40 18L41 18L41 17ZM3 19L3 20L4 20L4 19ZM6 19L6 20L7 20L7 19ZM22 19L22 20L24 20L24 19ZM9 20L9 21L8 21L8 22L6 22L6 23L7 23L7 24L5 24L5 25L7 25L7 24L8 24L8 22L9 22L9 21L10 21L10 20ZM16 21L16 22L14 22L14 23L13 23L13 24L12 24L12 25L13 25L13 26L12 26L12 27L13 27L13 28L12 28L12 30L14 30L14 28L15 28L15 29L16 29L16 31L15 31L15 32L16 32L16 33L14 33L14 34L13 34L13 35L14 35L14 36L13 36L13 37L12 37L12 38L13 38L13 42L12 42L12 43L13 43L13 44L14 44L14 42L18 42L18 43L19 43L19 45L18 45L18 44L17 44L17 43L16 43L16 44L15 44L15 45L13 45L13 46L14 46L14 47L15 47L15 45L16 45L16 47L17 47L17 46L18 46L18 47L19 47L19 46L20 46L20 45L21 45L21 42L22 42L22 41L23 41L23 42L24 42L24 41L25 41L25 39L26 39L26 40L28 40L28 39L27 39L27 37L26 37L26 36L27 36L27 33L28 33L28 34L29 34L29 35L30 35L30 34L31 34L31 35L32 35L32 34L31 34L31 33L28 33L28 32L27 32L27 33L24 33L24 32L26 32L26 31L27 31L27 30L28 30L28 29L26 29L26 27L28 27L28 26L24 26L24 25L27 25L27 24L26 24L26 23L24 23L24 24L22 24L22 23L23 23L23 22L22 22L22 23L21 23L21 22L20 22L20 23L21 23L21 24L22 24L22 25L19 25L19 26L17 26L17 25L16 25L16 27L17 27L17 29L16 29L16 28L15 28L15 27L14 27L14 25L15 25L15 24L14 24L14 23L16 23L16 22L17 22L17 21ZM40 21L40 22L41 22L41 21ZM55 21L55 22L56 22L56 23L57 23L57 24L58 24L58 23L57 23L57 22L56 22L56 21ZM51 23L51 24L52 24L52 23ZM13 24L13 25L14 25L14 24ZM22 25L22 26L23 26L23 27L21 27L21 26L20 26L20 27L19 27L19 28L18 28L18 29L20 29L20 31L21 31L21 33L20 33L20 32L19 32L19 31L18 31L18 30L17 30L17 33L20 33L20 34L21 34L21 35L19 35L19 34L16 34L16 35L15 35L15 34L14 34L14 35L15 35L15 36L16 36L16 37L13 37L13 38L15 38L15 39L14 39L14 41L15 41L15 39L16 39L16 41L18 41L18 42L19 42L19 43L20 43L20 42L21 42L21 41L22 41L22 39L23 39L23 40L24 40L24 39L23 39L23 38L26 38L26 37L24 37L24 36L25 36L25 35L26 35L26 34L24 34L24 33L23 33L23 32L24 32L24 31L25 31L25 30L26 30L26 29L22 29L22 30L23 30L23 32L22 32L22 31L21 31L21 29L20 29L20 28L23 28L23 27L24 27L24 28L25 28L25 27L24 27L24 26L23 26L23 25ZM44 25L44 26L43 26L43 27L45 27L45 25ZM1 28L1 29L2 29L2 30L3 30L3 31L4 31L4 29L2 29L2 28ZM5 29L5 32L8 32L8 29ZM29 29L29 32L32 32L32 29ZM53 29L53 32L56 32L56 29ZM6 30L6 31L7 31L7 30ZM30 30L30 31L31 31L31 30ZM51 30L51 31L52 31L52 30ZM54 30L54 31L55 31L55 30ZM45 32L45 33L46 33L46 32ZM59 32L59 33L60 33L60 32ZM0 33L0 34L1 34L1 33ZM21 33L21 34L23 34L23 33ZM51 33L51 34L52 34L52 33ZM53 33L53 34L54 34L54 35L55 35L55 33ZM0 35L0 37L1 37L1 36L2 36L2 35ZM22 35L22 36L20 36L20 37L18 37L18 38L17 38L17 37L16 37L16 38L17 38L17 39L18 39L18 38L20 38L20 37L23 37L23 36L24 36L24 35ZM37 35L37 37L39 37L39 35ZM45 36L45 37L46 37L46 38L47 38L47 37L46 37L46 36ZM52 36L52 37L53 37L53 36ZM52 38L52 39L53 39L53 40L52 40L52 41L53 41L53 40L54 40L54 42L55 42L55 41L56 41L56 40L55 40L55 39L53 39L53 38ZM19 39L19 40L18 40L18 41L20 41L20 40L21 40L21 39ZM32 39L32 40L33 40L33 39ZM34 39L34 40L35 40L35 39ZM37 39L37 40L38 40L38 39ZM48 39L48 40L47 40L47 42L49 42L49 39ZM2 40L2 41L3 41L3 43L4 43L4 42L6 42L6 41L7 41L7 40L6 40L6 41L5 41L5 40ZM28 42L28 43L29 43L29 42ZM39 42L39 46L41 46L41 47L42 47L42 45L44 45L44 43L40 43L40 42ZM5 43L5 44L6 44L6 45L7 45L7 44L6 44L6 43ZM22 43L22 45L23 45L23 46L24 46L24 45L25 45L25 44L23 44L23 43ZM55 43L55 44L54 44L54 45L52 45L52 46L51 46L51 44L50 44L50 47L53 47L53 46L55 46L55 45L56 45L56 43ZM16 44L16 45L17 45L17 44ZM41 44L41 45L42 45L42 44ZM60 44L60 45L61 45L61 44ZM37 45L37 48L39 48L39 47L38 47L38 45ZM46 45L46 47L45 47L45 48L46 48L46 47L47 47L47 45ZM6 46L6 47L7 47L7 46ZM8 47L8 48L9 48L9 47ZM54 47L54 49L55 49L55 47ZM41 49L41 50L40 50L40 51L41 51L41 52L42 52L42 51L43 51L43 49ZM12 50L12 51L11 51L11 52L12 52L12 51L13 51L13 50ZM35 50L35 51L36 51L36 50ZM3 51L3 52L4 52L4 51ZM23 51L23 52L24 52L24 51ZM25 51L25 52L26 52L26 53L22 53L22 56L18 56L18 57L17 57L17 58L18 58L18 59L19 59L19 57L22 57L22 56L23 56L23 57L24 57L24 56L25 56L25 55L26 55L26 56L27 56L27 54L26 54L26 53L27 53L27 52L26 52L26 51ZM8 52L8 53L9 53L9 52ZM29 53L29 56L32 56L32 53ZM53 53L53 56L56 56L56 53ZM17 54L17 55L18 55L18 54ZM23 54L23 55L24 55L24 54ZM30 54L30 55L31 55L31 54ZM41 54L41 55L42 55L42 54ZM54 54L54 55L55 55L55 54ZM57 54L57 56L58 56L58 54ZM45 55L45 57L46 57L46 59L50 59L50 58L48 58L48 57L47 57L47 56L46 56L46 55ZM33 56L33 57L34 57L34 58L36 58L36 59L37 59L37 58L38 58L38 57L39 57L39 56L37 56L37 57L34 57L34 56ZM31 57L31 58L32 58L32 59L33 59L33 58L32 58L32 57ZM10 58L10 59L11 59L11 58ZM38 60L38 61L39 61L39 60ZM0 0L0 7L7 7L7 0ZM1 1L1 6L6 6L6 1ZM2 2L2 5L5 5L5 2ZM54 0L54 7L61 7L61 0ZM55 1L55 6L60 6L60 1ZM56 2L56 5L59 5L59 2ZM0 54L0 61L7 61L7 54ZM1 55L1 60L6 60L6 55ZM2 56L2 59L5 59L5 56Z" fill="#000000"/></g></g></svg>
