<?xml version="1.0" encoding="UTF-8"?>
<svg xmlns="http://www.w3.org/2000/svg" version="1.1" width="300" height="300" viewBox="0 0 300 300"><rect x="0" y="0" width="300" height="300" fill="#ffffff"/><g transform="scale(4.918)"><g transform="translate(0,0)"><path fill-rule="evenodd" d="M9 0L9 1L8 1L8 2L9 2L9 1L10 1L10 3L8 3L8 4L9 4L9 5L8 5L8 7L9 7L9 6L10 6L10 8L11 8L11 9L10 9L10 10L8 10L8 9L9 9L9 8L6 8L6 9L7 9L7 10L6 10L6 11L10 11L10 10L11 10L11 9L12 9L12 8L13 8L13 5L12 5L12 4L14 4L14 5L15 5L15 4L17 4L17 5L16 5L16 7L15 7L15 6L14 6L14 8L15 8L15 9L13 9L13 10L12 10L12 11L11 11L11 12L13 12L13 13L14 13L14 14L15 14L15 13L14 13L14 12L13 12L13 10L14 10L14 11L16 11L16 9L17 9L17 10L20 10L20 11L17 11L17 12L16 12L16 13L19 13L19 12L20 12L20 13L21 13L21 12L23 12L23 11L22 11L22 10L23 10L23 9L24 9L24 10L25 10L25 11L24 11L24 12L25 12L25 13L22 13L22 15L21 15L21 14L20 14L20 17L21 17L21 18L22 18L22 17L23 17L23 18L24 18L24 17L26 17L26 18L27 18L27 19L26 19L26 20L25 20L25 21L22 21L22 20L21 20L21 19L20 19L20 18L19 18L19 20L16 20L16 19L15 19L15 18L16 18L16 17L15 17L15 18L14 18L14 17L13 17L13 16L14 16L14 15L13 15L13 14L12 14L12 15L9 15L9 16L8 16L8 17L7 17L7 16L6 16L6 17L7 17L7 18L6 18L6 19L7 19L7 18L8 18L8 20L10 20L10 21L9 21L9 22L6 22L6 21L7 21L7 20L6 20L6 21L5 21L5 19L4 19L4 20L3 20L3 18L4 18L4 13L5 13L5 15L8 15L8 14L10 14L10 12L9 12L9 13L7 13L7 12L4 12L4 11L3 11L3 10L4 10L4 9L5 9L5 8L0 8L0 9L2 9L2 11L3 11L3 12L4 12L4 13L2 13L2 12L1 12L1 10L0 10L0 12L1 12L1 13L2 13L2 14L3 14L3 17L2 17L2 16L0 16L0 17L2 17L2 18L0 18L0 20L1 20L1 19L2 19L2 20L3 20L3 21L4 21L4 22L0 22L0 25L1 25L1 26L0 26L0 27L2 27L2 28L1 28L1 29L0 29L0 30L1 30L1 29L2 29L2 28L4 28L4 29L3 29L3 30L2 30L2 31L1 31L1 32L0 32L0 33L3 33L3 34L2 34L2 35L3 35L3 36L1 36L1 37L0 37L0 40L1 40L1 39L2 39L2 40L3 40L3 41L1 41L1 44L0 44L0 45L1 45L1 46L0 46L0 47L1 47L1 48L0 48L0 50L1 50L1 49L3 49L3 50L2 50L2 51L0 51L0 53L4 53L4 52L5 52L5 51L8 51L8 50L9 50L9 51L11 51L11 52L13 52L13 50L12 50L12 49L14 49L14 48L16 48L16 47L14 47L14 45L12 45L12 46L13 46L13 47L12 47L12 49L11 49L11 47L10 47L10 46L11 46L11 45L9 45L9 48L8 48L8 42L9 42L9 43L10 43L10 44L13 44L13 43L14 43L14 44L15 44L15 45L19 45L19 44L20 44L20 45L21 45L21 43L23 43L23 44L24 44L24 43L25 43L25 41L22 41L22 40L30 40L30 41L32 41L32 42L30 42L30 43L28 43L28 42L27 42L27 41L26 41L26 42L27 42L27 43L26 43L26 44L30 44L30 45L28 45L28 46L27 46L27 45L22 45L22 47L21 47L21 48L20 48L20 46L18 46L18 47L19 47L19 48L17 48L17 49L19 49L19 48L20 48L20 49L21 49L21 50L17 50L17 52L16 52L16 51L15 51L15 50L16 50L16 49L15 49L15 50L14 50L14 53L10 53L10 52L9 52L9 53L8 53L8 52L6 52L6 53L8 53L8 55L9 55L9 56L8 56L8 61L9 61L9 60L10 60L10 59L11 59L11 58L14 58L14 57L18 57L18 58L17 58L17 59L18 59L18 58L19 58L19 59L20 59L20 58L19 58L19 57L20 57L20 56L19 56L19 57L18 57L18 56L14 56L14 57L13 57L13 56L12 56L12 55L13 55L13 54L15 54L15 53L17 53L17 55L18 55L18 53L19 53L19 54L20 54L20 55L22 55L22 54L23 54L23 56L25 56L25 57L22 57L22 56L21 56L21 57L22 57L22 58L24 58L24 59L21 59L21 60L20 60L20 61L21 61L21 60L24 60L24 59L25 59L25 58L26 58L26 60L27 60L27 61L28 61L28 60L29 60L29 59L28 59L28 58L31 58L31 57L32 57L32 58L33 58L33 59L32 59L32 60L31 60L31 59L30 59L30 60L31 60L31 61L32 61L32 60L33 60L33 61L37 61L37 60L38 60L38 61L40 61L40 60L41 60L41 61L42 61L42 60L45 60L45 61L46 61L46 59L47 59L47 58L49 58L49 56L50 56L50 55L52 55L52 56L51 56L51 57L52 57L52 58L50 58L50 59L48 59L48 60L47 60L47 61L49 61L49 60L50 60L50 61L52 61L52 60L53 60L53 61L54 61L54 60L55 60L55 58L57 58L57 59L56 59L56 61L61 61L61 54L60 54L60 55L59 55L59 56L58 56L58 58L57 58L57 52L56 52L56 51L55 51L55 50L56 50L56 49L57 49L57 51L61 51L61 50L60 50L60 47L61 47L61 46L60 46L60 45L61 45L61 42L60 42L60 43L59 43L59 44L56 44L56 41L59 41L59 40L56 40L56 41L55 41L55 40L53 40L53 39L56 39L56 38L55 38L55 36L53 36L53 35L56 35L56 33L58 33L58 34L57 34L57 36L56 36L56 37L57 37L57 39L59 39L59 38L60 38L60 39L61 39L61 38L60 38L60 37L59 37L59 36L60 36L60 35L61 35L61 34L60 34L60 35L59 35L59 36L58 36L58 34L59 34L59 32L58 32L58 30L57 30L57 29L60 29L60 27L61 27L61 26L60 26L60 25L59 25L59 24L58 24L58 25L57 25L57 26L58 26L58 27L59 27L59 28L57 28L57 27L56 27L56 24L57 24L57 23L59 23L59 22L58 22L58 21L59 21L59 20L58 20L58 19L57 19L57 18L55 18L55 17L53 17L53 16L52 16L52 15L53 15L53 14L55 14L55 13L56 13L56 14L59 14L59 15L61 15L61 14L60 14L60 13L59 13L59 12L60 12L60 11L61 11L61 10L60 10L60 11L59 11L59 10L58 10L58 8L57 8L57 9L56 9L56 8L55 8L55 9L54 9L54 8L52 8L52 7L53 7L53 6L52 6L52 7L51 7L51 5L52 5L52 4L53 4L53 0L51 0L51 2L50 2L50 3L48 3L48 4L49 4L49 6L48 6L48 7L47 7L47 5L46 5L46 4L47 4L47 3L46 3L46 2L47 2L47 1L48 1L48 2L49 2L49 1L50 1L50 0L49 0L49 1L48 1L48 0L47 0L47 1L46 1L46 0L44 0L44 1L43 1L43 0L41 0L41 1L43 1L43 2L42 2L42 3L41 3L41 2L40 2L40 3L41 3L41 5L42 5L42 7L43 7L43 8L45 8L45 9L44 9L44 10L45 10L45 13L44 13L44 12L43 12L43 11L42 11L42 10L43 10L43 9L39 9L39 10L38 10L38 9L37 9L37 8L41 8L41 6L40 6L40 5L38 5L38 7L37 7L37 4L38 4L38 3L39 3L39 1L40 1L40 0L39 0L39 1L38 1L38 2L37 2L37 0L36 0L36 2L37 2L37 3L36 3L36 4L35 4L35 5L34 5L34 8L35 8L35 10L34 10L34 9L33 9L33 3L35 3L35 1L33 1L33 0L32 0L32 1L31 1L31 0L30 0L30 1L31 1L31 2L30 2L30 3L29 3L29 2L28 2L28 1L27 1L27 0L26 0L26 1L25 1L25 0L24 0L24 1L22 1L22 2L19 2L19 1L18 1L18 2L19 2L19 3L17 3L17 0L16 0L16 1L15 1L15 2L16 2L16 3L15 3L15 4L14 4L14 3L11 3L11 1L13 1L13 2L14 2L14 1L13 1L13 0ZM32 1L32 3L33 3L33 1ZM23 2L23 3L21 3L21 4L20 4L20 3L19 3L19 4L20 4L20 5L19 5L19 7L20 7L20 8L19 8L19 9L21 9L21 7L22 7L22 6L21 6L21 4L23 4L23 3L24 3L24 4L25 4L25 7L26 7L26 9L25 9L25 8L24 8L24 6L23 6L23 8L22 8L22 9L23 9L23 8L24 8L24 9L25 9L25 10L26 10L26 9L27 9L27 10L28 10L28 8L27 8L27 7L28 7L28 6L27 6L27 5L28 5L28 4L27 4L27 3L28 3L28 2L25 2L25 3L24 3L24 2ZM10 3L10 4L11 4L11 3ZM30 3L30 4L31 4L31 3ZM42 3L42 4L45 4L45 3ZM51 3L51 4L52 4L52 3ZM26 4L26 5L27 5L27 4ZM10 5L10 6L11 6L11 8L12 8L12 6L11 6L11 5ZM17 5L17 7L16 7L16 8L17 8L17 9L18 9L18 8L17 8L17 7L18 7L18 5ZM29 5L29 8L32 8L32 5ZM43 5L43 7L44 7L44 6L45 6L45 7L46 7L46 5ZM20 6L20 7L21 7L21 6ZM26 6L26 7L27 7L27 6ZM30 6L30 7L31 7L31 6ZM35 6L35 8L37 8L37 7L36 7L36 6ZM39 6L39 7L40 7L40 6ZM49 6L49 7L48 7L48 8L47 8L47 9L46 9L46 10L47 10L47 11L46 11L46 12L47 12L47 13L46 13L46 14L44 14L44 13L43 13L43 14L42 14L42 12L40 12L40 11L41 11L41 10L40 10L40 11L38 11L38 10L37 10L37 9L36 9L36 11L34 11L34 12L37 12L37 13L38 13L38 14L36 14L36 13L34 13L34 14L33 14L33 12L29 12L29 11L30 11L30 10L29 10L29 11L27 11L27 12L26 12L26 13L25 13L25 15L26 15L26 17L27 17L27 15L26 15L26 13L27 13L27 14L28 14L28 13L31 13L31 14L32 14L32 15L31 15L31 16L29 16L29 15L28 15L28 16L29 16L29 17L28 17L28 18L29 18L29 17L30 17L30 19L31 19L31 20L30 20L30 21L28 21L28 22L29 22L29 23L26 23L26 21L27 21L27 20L29 20L29 19L27 19L27 20L26 20L26 21L25 21L25 22L24 22L24 24L21 24L21 21L20 21L20 23L19 23L19 21L15 21L15 22L14 22L14 19L13 19L13 20L11 20L11 22L10 22L10 23L9 23L9 24L8 24L8 23L5 23L5 22L4 22L4 23L3 23L3 24L8 24L8 25L6 25L6 26L8 26L8 27L6 27L6 28L9 28L9 26L10 26L10 29L9 29L9 33L8 33L8 34L9 34L9 35L6 35L6 34L7 34L7 33L6 33L6 34L4 34L4 35L6 35L6 36L7 36L7 37L6 37L6 38L7 38L7 39L5 39L5 37L4 37L4 40L7 40L7 41L4 41L4 42L2 42L2 44L1 44L1 45L2 45L2 44L4 44L4 45L5 45L5 46L1 46L1 47L3 47L3 49L4 49L4 47L5 47L5 49L6 49L6 50L8 50L8 48L7 48L7 47L6 47L6 46L7 46L7 45L5 45L5 44L7 44L7 43L6 43L6 42L8 42L8 40L9 40L9 39L8 39L8 38L7 38L7 37L9 37L9 35L10 35L10 39L14 39L14 40L15 40L15 39L18 39L18 38L19 38L19 39L20 39L20 38L21 38L21 39L23 39L23 38L21 38L21 37L20 37L20 36L21 36L21 35L20 35L20 34L22 34L22 35L23 35L23 34L24 34L24 32L26 32L26 33L25 33L25 34L26 34L26 33L27 33L27 34L28 34L28 35L24 35L24 36L26 36L26 37L25 37L25 39L27 39L27 38L28 38L28 39L29 39L29 38L31 38L31 39L32 39L32 41L33 41L33 39L32 39L32 36L33 36L33 37L34 37L34 38L35 38L35 40L37 40L37 39L36 39L36 38L35 38L35 36L37 36L37 37L38 37L38 38L39 38L39 37L41 37L41 38L40 38L40 39L41 39L41 40L40 40L40 41L43 41L43 40L42 40L42 39L46 39L46 38L49 38L49 37L48 37L48 36L50 36L50 38L51 38L51 40L50 40L50 39L47 39L47 40L50 40L50 42L49 42L49 41L48 41L48 43L46 43L46 46L45 46L45 44L44 44L44 43L45 43L45 42L47 42L47 41L45 41L45 40L44 40L44 43L43 43L43 42L40 42L40 43L39 43L39 44L40 44L40 46L39 46L39 45L38 45L38 46L37 46L37 45L34 45L34 44L33 44L33 43L32 43L32 44L33 44L33 45L34 45L34 46L36 46L36 47L32 47L32 46L31 46L31 45L30 45L30 46L29 46L29 47L30 47L30 48L31 48L31 49L29 49L29 50L32 50L32 48L34 48L34 50L35 50L35 48L37 48L37 49L36 49L36 51L34 51L34 52L37 52L37 53L38 53L38 54L36 54L36 53L34 53L34 54L33 54L33 55L34 55L34 56L37 56L37 55L38 55L38 59L39 59L39 60L40 60L40 59L41 59L41 60L42 60L42 59L45 59L45 58L47 58L47 56L49 56L49 55L50 55L50 54L51 54L51 53L50 53L50 52L52 52L52 51L53 51L53 52L55 52L55 51L53 51L53 49L54 49L54 48L55 48L55 49L56 49L56 48L57 48L57 49L58 49L58 50L59 50L59 49L58 49L58 48L59 48L59 47L58 47L58 48L57 48L57 47L54 47L54 48L53 48L53 49L52 49L52 50L51 50L51 48L52 48L52 47L51 47L51 46L53 46L53 45L54 45L54 44L55 44L55 45L56 45L56 46L57 46L57 45L56 45L56 44L55 44L55 43L54 43L54 42L55 42L55 41L53 41L53 40L52 40L52 38L54 38L54 37L52 37L52 38L51 38L51 36L52 36L52 35L53 35L53 34L54 34L54 33L52 33L52 32L51 32L51 30L52 30L52 29L50 29L50 28L53 28L53 27L54 27L54 28L55 28L55 26L53 26L53 25L55 25L55 24L53 24L53 25L50 25L50 26L49 26L49 25L48 25L48 24L49 24L49 23L50 23L50 22L51 22L51 23L52 23L52 22L53 22L53 23L55 23L55 22L53 22L53 21L52 21L52 22L51 22L51 20L52 20L52 18L53 18L53 20L56 20L56 21L57 21L57 20L56 20L56 19L55 19L55 18L53 18L53 17L50 17L50 16L49 16L49 15L50 15L50 14L51 14L51 12L49 12L49 11L48 11L48 10L49 10L49 9L50 9L50 11L53 11L53 12L54 12L54 11L55 11L55 12L56 12L56 13L58 13L58 12L59 12L59 11L57 11L57 10L56 10L56 9L55 9L55 10L54 10L54 11L53 11L53 9L50 9L50 8L49 8L49 7L50 7L50 6ZM48 8L48 9L49 9L49 8ZM59 8L59 9L60 9L60 8ZM31 9L31 10L32 10L32 11L33 11L33 10L32 10L32 9ZM37 11L37 12L38 12L38 11ZM56 11L56 12L57 12L57 11ZM27 12L27 13L28 13L28 12ZM48 12L48 13L49 13L49 12ZM6 13L6 14L7 14L7 13ZM39 13L39 14L38 14L38 15L37 15L37 16L36 16L36 14L34 14L34 15L32 15L32 16L34 16L34 15L35 15L35 18L34 18L34 19L37 19L37 20L35 20L35 22L33 22L33 21L34 21L34 20L33 20L33 21L32 21L32 20L31 20L31 21L32 21L32 22L31 22L31 23L30 23L30 24L27 24L27 25L26 25L26 23L25 23L25 25L24 25L24 26L23 26L23 25L21 25L21 28L18 28L18 26L19 26L19 27L20 27L20 26L19 26L19 25L20 25L20 24L19 24L19 25L18 25L18 24L17 24L17 23L18 23L18 22L15 22L15 23L14 23L14 22L13 22L13 23L14 23L14 25L13 25L13 24L12 24L12 23L11 23L11 24L9 24L9 25L11 25L11 29L10 29L10 30L11 30L11 29L12 29L12 28L13 28L13 26L14 26L14 25L15 25L15 23L16 23L16 25L18 25L18 26L17 26L17 28L14 28L14 29L13 29L13 32L14 32L14 31L16 31L16 32L15 32L15 33L12 33L12 32L10 32L10 34L11 34L11 33L12 33L12 38L15 38L15 37L19 37L19 38L20 38L20 37L19 37L19 35L17 35L17 34L18 34L18 33L19 33L19 34L20 34L20 33L22 33L22 32L19 32L19 30L17 30L17 31L16 31L16 30L15 30L15 29L21 29L21 30L20 30L20 31L22 31L22 30L23 30L23 31L24 31L24 30L25 30L25 29L21 29L21 28L26 28L26 27L29 27L29 28L28 28L28 29L26 29L26 30L27 30L27 31L26 31L26 32L27 32L27 33L36 33L36 34L34 34L34 35L39 35L39 36L38 36L38 37L39 37L39 36L41 36L41 37L42 37L42 38L43 38L43 36L47 36L47 34L46 34L46 35L44 35L44 32L45 32L45 33L47 33L47 32L48 32L48 33L49 33L49 35L52 35L52 34L50 34L50 32L48 32L48 31L49 31L49 30L50 30L50 29L49 29L49 28L48 28L48 26L47 26L47 28L48 28L48 29L49 29L49 30L48 30L48 31L47 31L47 30L46 30L46 29L45 29L45 30L46 30L46 31L44 31L44 32L42 32L42 33L40 33L40 32L41 32L41 31L42 31L42 30L43 30L43 29L44 29L44 28L43 28L43 27L42 27L42 28L41 28L41 26L40 26L40 24L41 24L41 25L42 25L42 26L43 26L43 25L42 25L42 24L41 24L41 22L42 22L42 23L43 23L43 22L44 22L44 21L39 21L39 22L38 22L38 24L34 24L34 23L35 23L35 22L36 22L36 23L37 23L37 22L36 22L36 21L37 21L37 20L45 20L45 22L46 22L46 23L44 23L44 24L45 24L45 25L44 25L44 26L45 26L45 25L47 25L47 24L46 24L46 23L47 23L47 22L46 22L46 19L47 19L47 20L48 20L48 21L49 21L49 22L48 22L48 23L49 23L49 22L50 22L50 21L49 21L49 20L50 20L50 19L51 19L51 18L50 18L50 17L49 17L49 16L48 16L48 15L47 15L47 14L46 14L46 16L45 16L45 15L44 15L44 14L43 14L43 15L42 15L42 14L41 14L41 13ZM52 13L52 14L53 14L53 13ZM18 14L18 15L19 15L19 14ZM40 14L40 15L39 15L39 16L37 16L37 19L38 19L38 18L39 18L39 16L40 16L40 17L41 17L41 16L42 16L42 17L43 17L43 16L44 16L44 18L41 18L41 19L44 19L44 18L45 18L45 16L44 16L44 15L43 15L43 16L42 16L42 15L41 15L41 14ZM12 15L12 16L13 16L13 15ZM15 15L15 16L17 16L17 18L18 18L18 17L19 17L19 16L17 16L17 15ZM23 15L23 17L24 17L24 15ZM40 15L40 16L41 16L41 15ZM54 15L54 16L55 16L55 15ZM56 15L56 16L57 16L57 17L58 17L58 18L59 18L59 19L61 19L61 18L59 18L59 16L57 16L57 15ZM9 16L9 17L8 17L8 18L9 18L9 17L10 17L10 16ZM21 16L21 17L22 17L22 16ZM46 16L46 18L47 18L47 19L48 19L48 20L49 20L49 19L50 19L50 18L49 18L49 19L48 19L48 18L47 18L47 17L48 17L48 16ZM60 16L60 17L61 17L61 16ZM11 17L11 18L12 18L12 17ZM32 17L32 18L33 18L33 17ZM23 19L23 20L24 20L24 19ZM60 20L60 21L61 21L61 20ZM22 22L22 23L23 23L23 22ZM32 22L32 25L33 25L33 22ZM39 22L39 23L40 23L40 22ZM56 22L56 23L57 23L57 22ZM60 22L60 23L61 23L61 22ZM11 24L11 25L12 25L12 26L13 26L13 25L12 25L12 24ZM30 24L30 25L28 25L28 26L30 26L30 25L31 25L31 24ZM38 24L38 26L37 26L37 25L34 25L34 26L32 26L32 27L31 27L31 28L32 28L32 27L34 27L34 26L36 26L36 27L35 27L35 28L38 28L38 30L37 30L37 31L36 31L36 30L35 30L35 29L33 29L33 31L34 31L34 32L37 32L37 33L38 33L38 34L39 34L39 33L38 33L38 32L40 32L40 31L41 31L41 30L42 30L42 29L41 29L41 28L40 28L40 31L38 31L38 30L39 30L39 28L38 28L38 26L39 26L39 27L40 27L40 26L39 26L39 24ZM2 25L2 27L3 27L3 25ZM58 25L58 26L59 26L59 25ZM22 26L22 27L23 27L23 26ZM50 26L50 27L52 27L52 26ZM5 29L5 32L8 32L8 29ZM29 29L29 32L32 32L32 29ZM53 29L53 32L56 32L56 29ZM6 30L6 31L7 31L7 30ZM30 30L30 31L31 31L31 30ZM34 30L34 31L35 31L35 30ZM54 30L54 31L55 31L55 30ZM60 30L60 31L61 31L61 30ZM17 31L17 32L16 32L16 33L15 33L15 34L16 34L16 33L17 33L17 32L18 32L18 31ZM46 31L46 32L47 32L47 31ZM3 32L3 33L4 33L4 32ZM60 32L60 33L61 33L61 32ZM13 34L13 36L14 36L14 37L15 37L15 36L16 36L16 35L14 35L14 34ZM29 34L29 35L30 35L30 34ZM32 34L32 35L33 35L33 34ZM40 34L40 35L41 35L41 36L42 36L42 35L43 35L43 34ZM22 36L22 37L23 37L23 36ZM27 36L27 37L26 37L26 38L27 38L27 37L28 37L28 36ZM29 36L29 37L31 37L31 36ZM1 37L1 38L3 38L3 37ZM44 37L44 38L46 38L46 37ZM58 37L58 38L59 38L59 37ZM7 39L7 40L8 40L8 39ZM38 39L38 42L39 42L39 39ZM10 40L10 41L9 41L9 42L10 42L10 43L11 43L11 42L12 42L12 41L13 41L13 42L14 42L14 43L15 43L15 42L17 42L17 41L18 41L18 40L17 40L17 41L15 41L15 42L14 42L14 41L13 41L13 40ZM19 40L19 41L21 41L21 42L22 42L22 41L21 41L21 40ZM51 40L51 41L52 41L52 40ZM60 40L60 41L61 41L61 40ZM34 41L34 42L35 42L35 41ZM18 42L18 43L17 43L17 44L19 44L19 43L20 43L20 42ZM23 42L23 43L24 43L24 42ZM50 42L50 43L51 43L51 42ZM52 42L52 44L48 44L48 45L47 45L47 46L46 46L46 47L47 47L47 48L48 48L48 49L49 49L49 50L48 50L48 51L49 51L49 50L50 50L50 51L51 51L51 50L50 50L50 49L49 49L49 48L50 48L50 47L49 47L49 48L48 48L48 47L47 47L47 46L50 46L50 45L53 45L53 42ZM4 43L4 44L5 44L5 43ZM35 43L35 44L37 44L37 43ZM40 43L40 44L41 44L41 43ZM42 43L42 44L43 44L43 43ZM59 44L59 45L58 45L58 46L59 46L59 45L60 45L60 44ZM42 45L42 46L41 46L41 47L39 47L39 46L38 46L38 47L39 47L39 50L38 50L38 49L37 49L37 51L39 51L39 54L38 54L38 55L39 55L39 59L40 59L40 58L45 58L45 57L44 57L44 56L47 56L47 54L50 54L50 53L49 53L49 52L47 52L47 54L46 54L46 53L44 53L44 54L46 54L46 55L44 55L44 56L41 56L41 54L40 54L40 52L41 52L41 51L42 51L42 52L46 52L46 51L47 51L47 50L46 50L46 51L44 51L44 50L45 50L45 49L44 49L44 48L45 48L45 47L43 47L43 49L42 49L42 46L43 46L43 45ZM23 46L23 48L24 48L24 49L25 49L25 51L24 51L24 53L25 53L25 56L26 56L26 57L27 57L27 58L28 58L28 57L27 57L27 56L26 56L26 55L28 55L28 54L26 54L26 53L27 53L27 51L26 51L26 49L27 49L27 50L28 50L28 49L27 49L27 48L28 48L28 47L27 47L27 46L26 46L26 49L25 49L25 48L24 48L24 47L25 47L25 46ZM6 48L6 49L7 49L7 48ZM9 48L9 49L10 49L10 48ZM21 48L21 49L22 49L22 50L21 50L21 51L18 51L18 52L19 52L19 53L20 53L20 54L21 54L21 53L20 53L20 52L21 52L21 51L22 51L22 53L23 53L23 51L22 51L22 50L23 50L23 49L22 49L22 48ZM40 48L40 50L39 50L39 51L41 51L41 48ZM42 50L42 51L43 51L43 50ZM3 51L3 52L4 52L4 51ZM25 51L25 53L26 53L26 51ZM28 51L28 52L29 52L29 51ZM31 51L31 52L33 52L33 51ZM58 52L58 53L59 53L59 52ZM9 53L9 55L12 55L12 54L10 54L10 53ZM29 53L29 56L32 56L32 53ZM42 53L42 54L43 54L43 53ZM53 53L53 56L56 56L56 53ZM30 54L30 55L31 55L31 54ZM34 54L34 55L36 55L36 54ZM39 54L39 55L40 55L40 54ZM54 54L54 55L55 55L55 54ZM9 56L9 57L10 57L10 58L11 58L11 57L10 57L10 56ZM40 56L40 57L41 57L41 56ZM33 57L33 58L35 58L35 59L34 59L34 60L37 60L37 59L36 59L36 58L37 58L37 57ZM59 57L59 59L57 59L57 60L60 60L60 57ZM52 58L52 59L53 59L53 58ZM15 59L15 61L19 61L19 60L16 60L16 59ZM11 60L11 61L13 61L13 60ZM0 0L0 7L7 7L7 0ZM1 1L1 6L6 6L6 1ZM2 2L2 5L5 5L5 2ZM54 0L54 7L61 7L61 0ZM55 1L55 6L60 6L60 1ZM56 2L56 5L59 5L59 2ZM0 54L0 61L7 61L7 54ZM1 55L1 60L6 60L6 55ZM2 56L2 59L5 59L5 56Z" fill="#000000"/></g></g></svg>
