<?xml version="1.0" encoding="UTF-8"?>
<svg xmlns="http://www.w3.org/2000/svg" version="1.1" width="300" height="300" viewBox="0 0 300 300"><rect x="0" y="0" width="300" height="300" fill="#ffffff"/><g transform="scale(4.918)"><g transform="translate(0,0)"><path fill-rule="evenodd" d="M9 0L9 1L8 1L8 2L9 2L9 1L10 1L10 3L11 3L11 4L12 4L12 5L13 5L13 6L12 6L12 7L11 7L11 5L10 5L10 7L11 7L11 8L10 8L10 9L9 9L9 8L6 8L6 9L9 9L9 11L10 11L10 14L8 14L8 15L9 15L9 16L5 16L5 15L3 15L3 14L2 14L2 13L4 13L4 14L5 14L5 13L4 13L4 11L5 11L5 8L0 8L0 11L3 11L3 12L0 12L0 14L2 14L2 15L3 15L3 16L2 16L2 18L0 18L0 19L1 19L1 21L0 21L0 26L3 26L3 27L2 27L2 28L3 28L3 29L4 29L4 30L2 30L2 29L1 29L1 28L0 28L0 29L1 29L1 30L2 30L2 31L3 31L3 33L1 33L1 31L0 31L0 36L2 36L2 37L4 37L4 38L3 38L3 39L1 39L1 37L0 37L0 40L1 40L1 41L0 41L0 43L1 43L1 44L4 44L4 43L7 43L7 44L6 44L6 45L7 45L7 44L8 44L8 43L7 43L7 42L8 42L8 41L9 41L9 45L11 45L11 46L10 46L10 47L8 47L8 46L4 46L4 45L3 45L3 46L2 46L2 48L1 48L1 49L2 49L2 48L4 48L4 49L3 49L3 50L2 50L2 51L0 51L0 53L4 53L4 52L5 52L5 51L7 51L7 52L6 52L6 53L7 53L7 52L8 52L8 55L9 55L9 56L8 56L8 61L9 61L9 57L10 57L10 58L11 58L11 59L10 59L10 61L12 61L12 60L13 60L13 61L19 61L19 60L20 60L20 61L21 61L21 60L23 60L23 59L22 59L22 58L25 58L25 59L24 59L24 60L26 60L26 59L27 59L27 60L29 60L29 58L31 58L31 57L32 57L32 59L30 59L30 60L31 60L31 61L32 61L32 60L33 60L33 61L37 61L37 60L38 60L38 61L40 61L40 60L41 60L41 59L40 59L40 58L43 58L43 59L44 59L44 60L45 60L45 61L46 61L46 59L47 59L47 58L48 58L48 60L47 60L47 61L49 61L49 56L50 56L50 55L52 55L52 56L51 56L51 57L52 57L52 58L53 58L53 57L54 57L54 58L55 58L55 57L56 57L56 58L58 58L58 59L59 59L59 58L58 58L58 57L59 57L59 56L61 56L61 54L60 54L60 53L61 53L61 50L60 50L60 52L57 52L57 51L59 51L59 50L58 50L58 49L60 49L60 48L61 48L61 46L60 46L60 47L59 47L59 48L56 48L56 49L55 49L55 48L54 48L54 47L57 47L57 46L59 46L59 44L60 44L60 45L61 45L61 42L60 42L60 43L59 43L59 42L58 42L58 41L61 41L61 38L58 38L58 37L59 37L59 36L58 36L58 37L57 37L57 36L56 36L56 35L57 35L57 34L58 34L58 33L59 33L59 34L60 34L60 35L61 35L61 34L60 34L60 32L61 32L61 30L60 30L60 32L57 32L57 31L59 31L59 30L58 30L58 29L60 29L60 28L58 28L58 27L61 27L61 26L60 26L60 25L61 25L61 22L60 22L60 23L59 23L59 22L58 22L58 21L59 21L59 20L57 20L57 19L58 19L58 18L57 18L57 17L59 17L59 19L61 19L61 18L60 18L60 17L61 17L61 16L60 16L60 17L59 17L59 16L58 16L58 15L61 15L61 14L60 14L60 13L59 13L59 12L60 12L60 11L61 11L61 10L60 10L60 11L59 11L59 10L58 10L58 8L57 8L57 9L56 9L56 8L55 8L55 9L54 9L54 8L52 8L52 7L53 7L53 6L52 6L52 7L51 7L51 5L52 5L52 4L53 4L53 0L51 0L51 2L50 2L50 3L48 3L48 4L49 4L49 5L46 5L46 4L47 4L47 3L46 3L46 2L47 2L47 1L46 1L46 0L45 0L45 1L46 1L46 2L42 2L42 1L44 1L44 0L39 0L39 1L37 1L37 0L36 0L36 1L34 1L34 0L32 0L32 1L29 1L29 2L28 2L28 0L26 0L26 1L27 1L27 2L26 2L26 3L27 3L27 4L26 4L26 7L25 7L25 3L24 3L24 2L23 2L23 1L24 1L24 0L23 0L23 1L22 1L22 0L21 0L21 1L20 1L20 0L19 0L19 1L18 1L18 0L17 0L17 1L18 1L18 2L19 2L19 1L20 1L20 2L22 2L22 3L23 3L23 4L21 4L21 3L20 3L20 4L19 4L19 3L18 3L18 4L17 4L17 3L16 3L16 2L15 2L15 1L16 1L16 0L15 0L15 1L14 1L14 0L13 0L13 1L11 1L11 0ZM48 0L48 2L49 2L49 1L50 1L50 0ZM32 1L32 2L33 2L33 3L29 3L29 4L33 4L33 5L35 5L35 8L37 8L37 7L38 7L38 11L36 11L36 12L38 12L38 14L35 14L35 13L34 13L34 12L35 12L35 11L34 11L34 12L33 12L33 10L35 10L35 9L33 9L33 10L32 10L32 9L31 9L31 10L32 10L32 13L33 13L33 14L32 14L32 15L33 15L33 14L35 14L35 15L34 15L34 16L35 16L35 15L36 15L36 16L37 16L37 17L34 17L34 18L32 18L32 17L33 17L33 16L32 16L32 17L31 17L31 16L29 16L29 15L31 15L31 12L29 12L29 11L27 11L27 10L28 10L28 9L27 9L27 7L28 7L28 6L27 6L27 7L26 7L26 9L27 9L27 10L25 10L25 11L24 11L24 10L23 10L23 11L24 11L24 12L22 12L22 10L21 10L21 8L22 8L22 9L25 9L25 8L23 8L23 7L24 7L24 6L23 6L23 5L21 5L21 4L20 4L20 5L19 5L19 4L18 4L18 6L17 6L17 7L16 7L16 6L15 6L15 5L14 5L14 4L15 4L15 2L13 2L13 3L14 3L14 4L13 4L13 5L14 5L14 6L13 6L13 7L12 7L12 8L13 8L13 7L14 7L14 9L15 9L15 10L13 10L13 9L12 9L12 10L13 10L13 11L11 11L11 9L10 9L10 11L11 11L11 12L14 12L14 13L15 13L15 15L16 15L16 17L13 17L13 16L14 16L14 15L13 15L13 16L12 16L12 14L10 14L10 17L9 17L9 18L8 18L8 19L6 19L6 18L7 18L7 17L6 17L6 18L5 18L5 19L4 19L4 18L3 18L3 20L8 20L8 19L9 19L9 22L8 22L8 21L6 21L6 22L5 22L5 21L2 21L2 22L1 22L1 23L3 23L3 25L6 25L6 26L8 26L8 25L9 25L9 27L10 27L10 28L11 28L11 29L12 29L12 30L10 30L10 31L11 31L11 32L10 32L10 33L6 33L6 34L7 34L7 35L5 35L5 34L3 34L3 35L2 35L2 36L5 36L5 39L4 39L4 41L5 41L5 42L7 42L7 41L8 41L8 40L9 40L9 41L11 41L11 42L10 42L10 43L11 43L11 44L12 44L12 41L13 41L13 43L14 43L14 42L17 42L17 43L16 43L16 44L17 44L17 43L19 43L19 44L21 44L21 45L20 45L20 47L18 47L18 46L19 46L19 45L15 45L15 44L14 44L14 45L12 45L12 46L11 46L11 47L12 47L12 48L11 48L11 49L12 49L12 51L11 51L11 50L10 50L10 48L9 48L9 49L8 49L8 48L7 48L7 47L6 47L6 48L5 48L5 47L4 47L4 48L5 48L5 50L8 50L8 51L9 51L9 52L10 52L10 53L9 53L9 55L10 55L10 56L11 56L11 58L13 58L13 59L15 59L15 60L17 60L17 57L18 57L18 56L17 56L17 55L18 55L18 54L19 54L19 57L25 57L25 55L24 55L24 54L22 54L22 55L24 55L24 56L21 56L21 55L20 55L20 54L21 54L21 53L20 53L20 52L22 52L22 53L25 53L25 54L26 54L26 53L27 53L27 55L26 55L26 57L27 57L27 55L28 55L28 53L27 53L27 52L29 52L29 51L27 51L27 50L28 50L28 49L29 49L29 50L31 50L31 51L30 51L30 52L31 52L31 51L32 51L32 52L33 52L33 51L34 51L34 50L35 50L35 51L36 51L36 52L37 52L37 53L34 53L34 54L35 54L35 55L34 55L34 56L35 56L35 55L36 55L36 56L37 56L37 55L38 55L38 58L39 58L39 57L43 57L43 56L42 56L42 55L46 55L46 56L47 56L47 55L48 55L48 56L49 56L49 54L51 54L51 53L50 53L50 52L52 52L52 51L53 51L53 52L56 52L56 51L57 51L57 49L56 49L56 51L53 51L53 50L51 50L51 49L50 49L50 48L49 48L49 47L50 47L50 46L51 46L51 44L52 44L52 45L54 45L54 44L55 44L55 45L56 45L56 46L57 46L57 45L58 45L58 44L59 44L59 43L57 43L57 41L56 41L56 40L60 40L60 39L56 39L56 38L57 38L57 37L55 37L55 35L56 35L56 34L57 34L57 33L54 33L54 34L55 34L55 35L53 35L53 33L52 33L52 32L50 32L50 30L51 30L51 31L52 31L52 29L50 29L50 28L53 28L53 27L55 27L55 28L56 28L56 27L57 27L57 25L58 25L58 24L59 24L59 23L57 23L57 24L56 24L56 27L55 27L55 26L53 26L53 25L55 25L55 24L53 24L53 21L55 21L55 22L54 22L54 23L55 23L55 22L56 22L56 21L57 21L57 20L56 20L56 17L57 17L57 16L54 16L54 15L58 15L58 14L56 14L56 13L58 13L58 12L59 12L59 11L58 11L58 12L55 12L55 14L53 14L53 13L52 13L52 12L53 12L53 11L52 11L52 10L53 10L53 9L52 9L52 8L51 8L51 9L50 9L50 8L49 8L49 7L50 7L50 5L49 5L49 7L48 7L48 6L47 6L47 8L49 8L49 9L48 9L48 11L46 11L46 14L42 14L42 13L43 13L43 12L44 12L44 13L45 13L45 10L44 10L44 9L45 9L45 8L46 8L46 5L44 5L44 4L45 4L45 3L39 3L39 2L38 2L38 3L37 3L37 2L33 2L33 1ZM27 2L27 3L28 3L28 2ZM8 3L8 4L9 4L9 3ZM33 3L33 4L34 4L34 3ZM35 3L35 5L36 5L36 7L37 7L37 3ZM51 3L51 4L52 4L52 3ZM16 4L16 5L17 5L17 4ZM39 4L39 5L38 5L38 7L39 7L39 5L40 5L40 4ZM41 4L41 5L42 5L42 8L43 8L43 4ZM8 5L8 7L9 7L9 5ZM20 5L20 7L19 7L19 6L18 6L18 7L19 7L19 9L18 9L18 8L16 8L16 7L15 7L15 6L14 6L14 7L15 7L15 9L18 9L18 11L17 11L17 10L15 10L15 11L14 11L14 12L15 12L15 13L17 13L17 16L18 16L18 17L19 17L19 16L20 16L20 17L22 17L22 16L20 16L20 14L19 14L19 15L18 15L18 13L19 13L19 11L20 11L20 10L19 10L19 9L20 9L20 8L21 8L21 5ZM29 5L29 8L32 8L32 5ZM22 6L22 7L23 7L23 6ZM30 6L30 7L31 7L31 6ZM33 6L33 8L34 8L34 6ZM40 6L40 8L41 8L41 6ZM44 6L44 8L45 8L45 6ZM59 8L59 9L60 9L60 8ZM1 9L1 10L3 10L3 11L4 11L4 10L3 10L3 9ZM42 9L42 10L41 10L41 11L40 11L40 12L39 12L39 11L38 11L38 12L39 12L39 13L40 13L40 14L41 14L41 15L40 15L40 16L38 16L38 17L39 17L39 18L36 18L36 19L40 19L40 20L41 20L41 21L42 21L42 22L43 22L43 20L45 20L45 22L44 22L44 23L43 23L43 25L41 25L41 26L38 26L38 25L39 25L39 24L41 24L41 23L40 23L40 22L38 22L38 21L39 21L39 20L38 20L38 21L37 21L37 20L35 20L35 21L36 21L36 22L34 22L34 21L33 21L33 23L32 23L32 21L29 21L29 20L31 20L31 19L32 19L32 20L33 20L33 19L32 19L32 18L31 18L31 17L30 17L30 18L29 18L29 16L28 16L28 18L27 18L27 17L26 17L26 16L27 16L27 15L26 15L26 16L25 16L25 15L24 15L24 16L23 16L23 17L24 17L24 18L23 18L23 19L24 19L24 20L23 20L23 21L21 21L21 19L22 19L22 18L21 18L21 19L20 19L20 18L19 18L19 20L18 20L18 21L19 21L19 22L18 22L18 23L17 23L17 24L16 24L16 23L15 23L15 19L16 19L16 21L17 21L17 17L16 17L16 18L15 18L15 19L14 19L14 18L13 18L13 17L12 17L12 16L11 16L11 17L10 17L10 20L11 20L11 19L12 19L12 21L10 21L10 22L9 22L9 23L8 23L8 22L6 22L6 23L7 23L7 24L6 24L6 25L8 25L8 24L9 24L9 25L10 25L10 24L12 24L12 25L11 25L11 28L13 28L13 30L12 30L12 31L13 31L13 32L14 32L14 33L13 33L13 34L14 34L14 35L13 35L13 36L10 36L10 35L9 35L9 34L8 34L8 38L6 38L6 39L8 39L8 38L9 38L9 40L10 40L10 38L11 38L11 39L12 39L12 40L11 40L11 41L12 41L12 40L13 40L13 41L18 41L18 42L19 42L19 43L20 43L20 42L19 42L19 41L20 41L20 40L21 40L21 44L23 44L23 45L22 45L22 46L21 46L21 47L20 47L20 48L17 48L17 46L12 46L12 47L13 47L13 49L16 49L16 50L13 50L13 52L14 52L14 53L19 53L19 51L21 51L21 50L18 50L18 49L22 49L22 48L21 48L21 47L22 47L22 46L23 46L23 45L24 45L24 46L25 46L25 45L26 45L26 47L24 47L24 50L23 50L23 52L24 52L24 51L25 51L25 49L26 49L26 50L27 50L27 49L28 49L28 47L30 47L30 45L31 45L31 44L30 44L30 45L28 45L28 43L29 43L29 42L27 42L27 41L28 41L28 40L29 40L29 41L32 41L32 43L33 43L33 44L32 44L32 46L31 46L31 48L29 48L29 49L31 49L31 48L32 48L32 49L36 49L36 51L37 51L37 52L42 52L42 54L43 54L43 52L46 52L46 51L47 51L47 50L46 50L46 51L44 51L44 50L43 50L43 49L44 49L44 48L45 48L45 49L47 49L47 48L48 48L48 49L49 49L49 50L48 50L48 51L49 51L49 50L50 50L50 51L51 51L51 50L50 50L50 49L49 49L49 48L48 48L48 47L49 47L49 46L48 46L48 45L49 45L49 44L51 44L51 43L52 43L52 44L53 44L53 43L52 43L52 42L54 42L54 43L55 43L55 44L56 44L56 45L57 45L57 44L56 44L56 41L55 41L55 42L54 42L54 41L52 41L52 40L53 40L53 39L52 39L52 40L51 40L51 38L52 38L52 37L54 37L54 39L55 39L55 37L54 37L54 36L53 36L53 35L52 35L52 33L51 33L51 34L50 34L50 32L48 32L48 30L46 30L46 29L44 29L44 28L42 28L42 30L40 30L40 28L41 28L41 27L42 27L42 26L43 26L43 27L44 27L44 24L45 24L45 26L46 26L46 27L47 27L47 26L50 26L50 27L51 27L51 26L50 26L50 25L51 25L51 24L52 24L52 25L53 25L53 24L52 24L52 23L51 23L51 22L50 22L50 20L51 20L51 18L50 18L50 17L49 17L49 16L50 16L50 15L51 15L51 17L54 17L54 18L55 18L55 17L54 17L54 16L53 16L53 15L51 15L51 14L50 14L50 15L49 15L49 16L48 16L48 15L47 15L47 14L49 14L49 13L51 13L51 12L52 12L52 11L51 11L51 12L48 12L48 13L47 13L47 14L46 14L46 15L44 15L44 16L43 16L43 15L42 15L42 14L41 14L41 13L42 13L42 12L43 12L43 11L42 11L42 10L43 10L43 9ZM46 9L46 10L47 10L47 9ZM49 9L49 11L50 11L50 9ZM55 9L55 10L54 10L54 11L57 11L57 10L56 10L56 9ZM6 10L6 11L8 11L8 10ZM26 11L26 12L24 12L24 13L21 13L21 12L20 12L20 13L21 13L21 15L22 15L22 14L25 14L25 13L26 13L26 14L28 14L28 15L29 15L29 14L30 14L30 13L29 13L29 14L28 14L28 13L26 13L26 12L27 12L27 11ZM41 11L41 12L40 12L40 13L41 13L41 12L42 12L42 11ZM6 12L6 13L7 13L7 12ZM6 14L6 15L7 15L7 14ZM38 14L38 15L39 15L39 14ZM0 15L0 17L1 17L1 15ZM41 15L41 16L40 16L40 17L41 17L41 18L40 18L40 19L41 19L41 20L42 20L42 19L44 19L44 18L42 18L42 17L43 17L43 16L42 16L42 15ZM46 15L46 16L44 16L44 17L46 17L46 18L47 18L47 19L48 19L48 20L47 20L47 21L46 21L46 22L47 22L47 23L46 23L46 24L49 24L49 23L50 23L50 22L49 22L49 21L48 21L48 20L50 20L50 18L49 18L49 19L48 19L48 18L47 18L47 17L48 17L48 16L47 16L47 15ZM11 17L11 18L12 18L12 19L13 19L13 18L12 18L12 17ZM25 17L25 20L24 20L24 21L25 21L25 23L27 23L27 22L26 22L26 21L28 21L28 22L29 22L29 23L28 23L28 24L29 24L29 25L28 25L28 26L32 26L32 27L33 27L33 29L34 29L34 30L36 30L36 32L37 32L37 35L36 35L36 34L35 34L35 33L34 33L34 34L35 34L35 35L34 35L34 36L37 36L37 35L38 35L38 34L39 34L39 35L41 35L41 36L38 36L38 37L37 37L37 39L36 39L36 37L34 37L34 38L33 38L33 39L32 39L32 37L33 37L33 35L32 35L32 34L33 34L33 33L29 33L29 34L28 34L28 33L27 33L27 32L28 32L28 30L27 30L27 31L25 31L25 30L26 30L26 29L27 29L27 28L29 28L29 27L27 27L27 28L26 28L26 27L24 27L24 26L22 26L22 25L25 25L25 26L26 26L26 25L27 25L27 24L22 24L22 25L21 25L21 23L20 23L20 22L21 22L21 21L20 21L20 20L19 20L19 21L20 21L20 22L19 22L19 25L21 25L21 26L22 26L22 27L21 27L21 29L20 29L20 28L19 28L19 29L15 29L15 30L14 30L14 31L15 31L15 33L14 33L14 34L15 34L15 35L14 35L14 36L15 36L15 35L16 35L16 36L19 36L19 37L15 37L15 38L13 38L13 40L15 40L15 39L16 39L16 38L18 38L18 39L17 39L17 40L18 40L18 41L19 41L19 39L21 39L21 37L25 37L25 39L23 39L23 40L22 40L22 41L25 41L25 40L26 40L26 41L27 41L27 40L26 40L26 39L27 39L27 38L30 38L30 39L31 39L31 40L33 40L33 41L34 41L34 42L35 42L35 43L34 43L34 44L37 44L37 45L38 45L38 46L37 46L37 47L36 47L36 46L35 46L35 45L34 45L34 46L33 46L33 47L32 47L32 48L33 48L33 47L34 47L34 48L37 48L37 51L38 51L38 50L41 50L41 51L42 51L42 52L43 52L43 50L42 50L42 48L44 48L44 47L46 47L46 48L47 48L47 47L48 47L48 46L47 46L47 44L48 44L48 43L46 43L46 46L45 46L45 42L42 42L42 41L43 41L43 40L44 40L44 41L45 41L45 40L44 40L44 38L45 38L45 39L46 39L46 38L47 38L47 40L50 40L50 42L49 42L49 43L50 43L50 42L51 42L51 40L50 40L50 38L51 38L51 37L50 37L50 36L52 36L52 35L50 35L50 34L49 34L49 33L48 33L48 32L46 32L46 30L44 30L44 29L43 29L43 30L42 30L42 31L41 31L41 32L40 32L40 34L39 34L39 32L38 32L38 30L39 30L39 29L38 29L38 30L36 30L36 29L35 29L35 28L37 28L37 27L38 27L38 26L37 26L37 25L34 25L34 23L33 23L33 24L32 24L32 23L31 23L31 24L30 24L30 22L29 22L29 21L28 21L28 20L29 20L29 19L28 19L28 20L26 20L26 19L27 19L27 18L26 18L26 17ZM34 18L34 19L35 19L35 18ZM52 18L52 21L53 21L53 18ZM13 20L13 23L12 23L12 24L13 24L13 25L12 25L12 27L13 27L13 25L15 25L15 27L14 27L14 28L15 28L15 27L16 27L16 28L18 28L18 27L17 27L17 25L18 25L18 24L17 24L17 25L15 25L15 23L14 23L14 20ZM55 20L55 21L56 21L56 20ZM3 22L3 23L4 23L4 24L5 24L5 23L4 23L4 22ZM10 22L10 23L9 23L9 24L10 24L10 23L11 23L11 22ZM22 22L22 23L23 23L23 22ZM36 22L36 23L35 23L35 24L37 24L37 22ZM48 22L48 23L49 23L49 22ZM32 25L32 26L33 26L33 27L35 27L35 26L33 26L33 25ZM46 25L46 26L47 26L47 25ZM4 26L4 27L3 27L3 28L5 28L5 26ZM19 26L19 27L20 27L20 26ZM36 26L36 27L37 27L37 26ZM6 27L6 28L8 28L8 27ZM23 27L23 28L24 28L24 27ZM39 27L39 28L40 28L40 27ZM48 27L48 28L47 28L47 29L49 29L49 27ZM25 28L25 29L24 29L24 30L25 30L25 29L26 29L26 28ZM5 29L5 32L8 32L8 29ZM19 29L19 30L20 30L20 31L18 31L18 30L15 30L15 31L16 31L16 32L17 32L17 31L18 31L18 33L19 33L19 34L18 34L18 35L19 35L19 34L20 34L20 35L21 35L21 36L20 36L20 37L21 37L21 36L24 36L24 35L23 35L23 34L24 34L24 33L26 33L26 34L25 34L25 35L27 35L27 36L28 36L28 37L32 37L32 35L31 35L31 34L29 34L29 36L28 36L28 34L27 34L27 33L26 33L26 32L24 32L24 33L23 33L23 29L22 29L22 31L21 31L21 30L20 30L20 29ZM29 29L29 32L32 32L32 29ZM53 29L53 32L56 32L56 29ZM6 30L6 31L7 31L7 30ZM30 30L30 31L31 31L31 30ZM43 30L43 31L42 31L42 32L43 32L43 33L42 33L42 34L44 34L44 32L45 32L45 35L42 35L42 36L45 36L45 38L46 38L46 37L47 37L47 36L48 36L48 37L49 37L49 36L50 36L50 35L49 35L49 36L48 36L48 35L47 35L47 34L46 34L46 32L45 32L45 31L44 31L44 30ZM54 30L54 31L55 31L55 30ZM20 31L20 32L19 32L19 33L20 33L20 34L21 34L21 35L22 35L22 34L23 34L23 33L22 33L22 32L21 32L21 31ZM43 31L43 32L44 32L44 31ZM10 33L10 34L11 34L11 35L12 35L12 34L11 34L11 33ZM15 33L15 34L16 34L16 33ZM21 33L21 34L22 34L22 33ZM46 35L46 36L47 36L47 35ZM6 36L6 37L7 37L7 36ZM60 36L60 37L61 37L61 36ZM26 37L26 38L27 38L27 37ZM39 37L39 38L38 38L38 39L37 39L37 40L36 40L36 39L35 39L35 38L34 38L34 40L35 40L35 41L36 41L36 43L37 43L37 44L38 44L38 45L40 45L40 44L41 44L41 45L42 45L42 46L38 46L38 47L37 47L37 48L42 48L42 46L43 46L43 45L44 45L44 44L43 44L43 43L41 43L41 42L40 42L40 41L39 41L39 42L38 42L38 41L37 41L37 40L38 40L38 39L39 39L39 40L41 40L41 41L42 41L42 40L41 40L41 37ZM42 37L42 38L44 38L44 37ZM39 38L39 39L40 39L40 38ZM48 38L48 39L49 39L49 38ZM6 40L6 41L7 41L7 40ZM1 41L1 43L3 43L3 42L2 42L2 41ZM46 41L46 42L48 42L48 41ZM22 42L22 43L23 43L23 42ZM30 42L30 43L31 43L31 42ZM37 42L37 43L38 43L38 42ZM39 42L39 44L40 44L40 42ZM24 44L24 45L25 45L25 44ZM26 44L26 45L27 45L27 46L28 46L28 45L27 45L27 44ZM42 44L42 45L43 45L43 44ZM0 45L0 47L1 47L1 45ZM34 46L34 47L35 47L35 46ZM46 46L46 47L47 47L47 46ZM52 46L52 47L51 47L51 48L52 48L52 49L54 49L54 48L52 48L52 47L53 47L53 46ZM14 47L14 48L16 48L16 49L17 49L17 48L16 48L16 47ZM26 47L26 49L27 49L27 47ZM6 48L6 49L7 49L7 48ZM32 50L32 51L33 51L33 50ZM3 51L3 52L4 52L4 51ZM14 51L14 52L16 52L16 51ZM17 51L17 52L18 52L18 51ZM26 51L26 52L25 52L25 53L26 53L26 52L27 52L27 51ZM48 52L48 53L49 53L49 52ZM10 53L10 55L11 55L11 56L12 56L12 57L14 57L14 58L15 58L15 59L16 59L16 58L15 58L15 56L16 56L16 57L17 57L17 56L16 56L16 55L14 55L14 56L13 56L13 54L12 54L12 55L11 55L11 53ZM29 53L29 56L32 56L32 53ZM39 53L39 54L38 54L38 55L39 55L39 56L41 56L41 55L40 55L40 54L41 54L41 53ZM45 53L45 54L46 54L46 55L47 55L47 54L46 54L46 53ZM53 53L53 56L56 56L56 53ZM57 53L57 57L58 57L58 56L59 56L59 53ZM30 54L30 55L31 55L31 54ZM36 54L36 55L37 55L37 54ZM54 54L54 55L55 55L55 54ZM44 56L44 59L45 59L45 58L47 58L47 57L45 57L45 56ZM34 57L34 58L33 58L33 59L34 59L34 58L35 58L35 60L37 60L37 59L36 59L36 58L37 58L37 57ZM60 57L60 60L57 60L57 61L61 61L61 57ZM18 58L18 60L19 60L19 59L20 59L20 58ZM50 58L50 59L51 59L51 60L50 60L50 61L52 61L52 60L55 60L55 61L56 61L56 60L55 60L55 59L51 59L51 58ZM39 59L39 60L40 60L40 59ZM42 60L42 61L43 61L43 60ZM0 0L0 7L7 7L7 0ZM1 1L1 6L6 6L6 1ZM2 2L2 5L5 5L5 2ZM54 0L54 7L61 7L61 0ZM55 1L55 6L60 6L60 1ZM56 2L56 5L59 5L59 2ZM0 54L0 61L7 61L7 54ZM1 55L1 60L6 60L6 55ZM2 56L2 59L5 59L5 56Z" fill="#000000"/></g></g></svg>
